<?xml version="1.0" encoding="UTF-8"?>
<svg id="Layer_2" data-name="Layer 2" xmlns="http://www.w3.org/2000/svg" viewBox="0 0 310.13 324.48">
  <defs>
    <style>
      .cls-1 {
        fill: #f6c;
      }
    </style>
  </defs>
  <g id="Layer_1-2" data-name="Layer 1">
    <polygon class="cls-1" points="310.13 213.04 193.05 160.91 306.21 100.75 290.57 71.32 216.46 110.73 268.13 44.59 241.87 24.07 186.37 95.11 205.11 6.93 172.52 0 153.77 88.18 131.96 .71 99.63 8.77 121.44 96.24 63.49 27.18 37.96 48.6 95.91 117.66 13.55 81 0 111.44 117.08 163.57 3.92 223.73 19.57 253.16 93.67 213.75 42 279.89 68.26 300.41 123.76 229.37 105.02 317.55 137.62 324.48 156.36 236.3 178.17 323.77 210.5 315.71 188.69 228.24 246.64 297.3 272.17 275.88 214.22 206.82 296.58 243.48 310.13 213.04"/>
  </g>
</svg>