<?xml version="1.0" encoding="UTF-8"?>
<svg id="Layer_1" data-name="Layer 1" xmlns="http://www.w3.org/2000/svg" viewBox="0 0 992 762.92">
  <defs>
    <style>
      .cls-1 {
        fill: #fff;
      }

      .cls-2 {
        fill: #336;
      }

      .cls-3 {
        fill: #fc3;
      }

      .cls-4 {
        fill: #f27e9d;
      }
    </style>
  </defs>
  <rect class="cls-2" x="-36.09" y="-61.76" width="1070" height="866"/>
  <g>
    <polygon class="cls-3" points="230.29 230.24 228.91 422.01 751 416.58 742.72 246.52 230.29 230.24"/>
    <polygon class="cls-4" points="243.68 260.05 239.53 467.24 761.91 449.65 752.91 271.78 243.68 260.05"/>
    <g>
      <path class="cls-1" d="M386.79,349.15h-17.93v-66.49h51.08v11.58h-33.15v17h25.77v11.58h-25.77v26.33Z"/>
      <path class="cls-1" d="M456.08,350.36c-5.23,0-10.01-.51-14.33-1.54-4.33-1.03-8.05-2.83-11.16-5.42-3.11-2.58-5.51-6.1-7.19-10.55-1.68-4.45-2.52-10.07-2.52-16.86s.84-12.51,2.52-17c1.68-4.48,4.08-8,7.19-10.55,3.11-2.55,6.83-4.36,11.16-5.42,4.33-1.06,9.1-1.59,14.33-1.59s10.08.53,14.38,1.59c4.3,1.06,8,2.86,11.11,5.42,3.11,2.55,5.51,6.06,7.19,10.51,1.68,4.45,2.52,10.1,2.52,16.95s-.84,12.5-2.52,16.95c-1.68,4.45-4.08,7.97-7.19,10.55-3.11,2.58-6.82,4.39-11.11,5.42-4.3,1.03-9.09,1.54-14.38,1.54ZM456.08,338.88c3.8,0,6.96-.64,9.48-1.91,2.52-1.28,4.42-3.58,5.7-6.91,1.27-3.33,1.91-8.05,1.91-14.15,0-4.61-.36-8.4-1.07-11.39-.72-2.99-1.79-5.32-3.22-7-1.43-1.68-3.21-2.86-5.32-3.55-2.12-.68-4.58-1.03-7.38-1.03-3.8,0-6.97.64-9.52,1.91-2.55,1.28-4.47,3.58-5.74,6.91-1.28,3.33-1.91,8.08-1.91,14.24s.64,10.82,1.91,14.15c1.27,3.33,3.17,5.62,5.7,6.86,2.52,1.25,5.68,1.87,9.48,1.87Z"/>
      <path class="cls-1" d="M531.63,349.15h-17.93v-54.91h-21.85v-11.58h61.54v11.58h-21.76v54.91Z"/>
      <path class="cls-1" d="M589.24,350.36c-5.23,0-10.01-.51-14.33-1.54-4.33-1.03-8.05-2.83-11.16-5.42-3.11-2.58-5.51-6.1-7.19-10.55-1.68-4.45-2.52-10.07-2.52-16.86s.84-12.51,2.52-17c1.68-4.48,4.08-8,7.19-10.55,3.11-2.55,6.83-4.36,11.16-5.42,4.33-1.06,9.1-1.59,14.33-1.59s10.08.53,14.38,1.59c4.3,1.06,8,2.86,11.11,5.42,3.11,2.55,5.51,6.06,7.19,10.51,1.68,4.45,2.52,10.1,2.52,16.95s-.84,12.5-2.52,16.95c-1.68,4.45-4.08,7.97-7.19,10.55-3.11,2.58-6.82,4.39-11.11,5.42-4.3,1.03-9.09,1.54-14.38,1.54ZM589.24,338.88c3.8,0,6.96-.64,9.48-1.91,2.52-1.28,4.42-3.58,5.7-6.91,1.27-3.33,1.91-8.05,1.91-14.15,0-4.61-.36-8.4-1.07-11.39-.72-2.99-1.79-5.32-3.22-7-1.43-1.68-3.21-2.86-5.32-3.55-2.12-.68-4.58-1.03-7.38-1.03-3.8,0-6.97.64-9.52,1.91-2.55,1.28-4.47,3.58-5.74,6.91-1.28,3.33-1.91,8.08-1.91,14.24s.64,10.82,1.91,14.15c1.27,3.33,3.17,5.62,5.7,6.86,2.52,1.25,5.68,1.87,9.48,1.87Z"/>
      <path class="cls-1" d="M287.43,436.55c-4.05,0-7.84-.56-11.39-1.68-3.55-1.12-6.68-3-9.38-5.65-2.71-2.65-4.84-6.18-6.4-10.6-1.56-4.42-2.33-9.93-2.33-16.53s.82-12.42,2.47-16.9c1.65-4.48,3.98-8.03,7-10.65,3.02-2.61,6.54-4.45,10.55-5.51,4.02-1.06,8.42-1.59,13.21-1.59,5.17,0,9.7.41,13.59,1.21,3.89.81,7.17,2.12,9.85,3.92,2.68,1.81,4.72,4.19,6.12,7.14,1.4,2.96,2.16,6.58,2.29,10.88h-19.14c0-2.3-.31-4.2-.93-5.7-.62-1.49-1.49-2.68-2.61-3.55-1.12-.87-2.46-1.48-4.02-1.82-1.56-.34-3.33-.51-5.32-.51-2.55,0-4.76.37-6.63,1.12s-3.42,1.98-4.67,3.69c-1.25,1.71-2.15,4.05-2.71,7-.56,2.96-.84,6.65-.84,11.07s.34,8.2,1.03,11.16c.68,2.96,1.71,5.29,3.08,7,1.37,1.71,3.11,2.94,5.23,3.69,2.12.75,4.61,1.12,7.47,1.12,5.73,0,9.82-1.2,12.28-3.6,2.46-2.4,3.69-5.96,3.69-10.69v-1.21h-17v-11.21h33.99v36.98h-14.29l.37-10.37-.37-.09c-1.06,2.3-2.75,4.36-5.09,6.16-2.33,1.81-5.14,3.21-8.4,4.2-3.27.99-6.83,1.49-10.69,1.49Z"/>
      <path class="cls-1" d="M327.96,435.15l24.65-66.77h22.32l24.65,66.77h-19.8l-5.6-15.69h-25.31l-5.79,15.69h-15.13ZM352.52,408.16h18.02l-5.04-13.73-3.74-10.46h-.28l-3.83,10.37-5.14,13.82Z"/>
      <path class="cls-1" d="M452.53,435.15h-49.21v-66.49h17.93v54.91h31.28v11.58Z"/>
      <path class="cls-1" d="M513.51,435.15h-55.84v-66.49h51.55v11.58h-33.62v14.57h25.87v11.49h-25.87v17.28h37.91v11.58Z"/>
      <path class="cls-1" d="M536.76,435.15h-17.93v-66.49h30.44c5.98,0,10.97.48,14.99,1.45,4.02.97,7.03,2.65,9.06,5.04,2.02,2.4,3.04,5.74,3.04,10.04,0,3.61-.72,6.6-2.15,8.96-1.43,2.37-3.52,4.19-6.26,5.46-2.74,1.28-6.1,2.16-10.09,2.66v.28c3.98.19,7.44.78,10.37,1.77,2.93,1,5.28,2.57,7.05,4.72,1.77,2.15,2.88,5.03,3.31,8.64l2.15,17.46h-17.93l-1.68-14.47c-.37-3.42-1.03-5.94-1.96-7.56-.93-1.62-2.26-2.68-3.97-3.18-1.71-.5-4-.75-6.86-.75h-11.58v25.96ZM546.75,379.86h-10.18v18.12h10.18c2.05,0,3.81-.14,5.28-.42,1.46-.28,2.65-.78,3.55-1.49.9-.71,1.57-1.68,2.01-2.89.44-1.21.65-2.75.65-4.62,0-2.49-.37-4.36-1.12-5.6-.75-1.24-1.98-2.07-3.69-2.47-1.71-.4-3.94-.61-6.68-.61Z"/>
      <path class="cls-1" d="M605.02,435.15h-18.02v-66.49h18.02v66.49Z"/>
      <path class="cls-1" d="M638.17,436.36c-5.92,0-10.91-.84-14.99-2.52-4.08-1.68-7.18-4.33-9.29-7.94-2.12-3.61-3.17-8.31-3.17-14.1v-5.14h16.72v5.23c0,2.37.25,4.34.75,5.93.5,1.59,1.18,2.85,2.05,3.78.87.93,1.94,1.6,3.22,2.01,1.28.41,2.66.61,4.16.61,1.99,0,3.69-.33,5.09-.98,1.4-.65,2.47-1.76,3.22-3.32.75-1.56,1.12-3.61,1.12-6.16v-45.1h17.84v45.2c0,7.47-2.24,13.09-6.72,16.86-4.48,3.77-11.14,5.65-19.98,5.65Z"/>
      <path class="cls-1" d="M665.26,435.15l24.65-66.77h22.32l24.65,66.77h-19.8l-5.6-15.69h-25.31l-5.79,15.69h-15.13ZM689.82,408.16h18.02l-5.04-13.73-3.74-10.46h-.28l-3.83,10.37-5.14,13.82Z"/>
    </g>
  </g>
</svg>