<?xml version="1.0" encoding="UTF-8"?>
<svg id="Layer_1" xmlns="http://www.w3.org/2000/svg" version="1.1" viewBox="0 0 992 762.9">
  <!-- Generator: Adobe Illustrator 29.5.1, SVG Export Plug-In . SVG Version: 2.1.0 Build 141)  -->
  <defs>
    <style>
      .st0 {
        fill: #69c8c9;
      }

      .st1 {
        fill: #fff;
      }

      .st2 {
        fill: #336;
      }

      .st3 {
        fill: #fc3;
      }
    </style>
  </defs>
  <rect class="st3" x="-36.1" y="-61.8" width="1070" height="866"/>
  <g>
    <polygon class="st0" points="43.2 160.4 40.9 521 917.2 510.8 903.3 191 43.2 160.4"/>
    <polygon class="st2" points="93.9 202.7 86.9 550.5 963.7 521 948.6 222.5 93.9 202.7"/>
    <g>
      <path class="st1" d="M334.1,352.3h-30.1v-111.6h85.7v19.4h-55.6v28.6h43.3v19.4h-43.3v44.2h.1Z"/>
      <path class="st1" d="M450.4,354.4c-8.7,0-16.8-.9-24-2.6-7.3-1.7-13.5-4.8-18.7-9.1s-9.3-10.2-12-17.7c-2.8-7.5-4.2-16.9-4.2-28.3s1.4-21,4.2-28.6c2.8-7.5,6.8-13.4,12-17.7,5.2-4.3,11.4-7.4,18.7-9.1,7.3-1.8,15.3-2.7,24-2.7s16.9.9,24.1,2.7c7.3,1.8,13.4,4.8,18.7,9.1,5.2,4.3,9.3,10.2,12,17.7,2.8,7.5,4.2,17,4.2,28.4s-1.4,21-4.2,28.4-6.8,13.4-12,17.7c-5.2,4.3-11.4,7.4-18.7,9.1s-15.3,2.6-24.1,2.6h0ZM450.4,335.1c6.3,0,11.7-1,15.9-3.2s7.4-6,9.5-11.6c2.2-5.6,3.2-13.5,3.2-23.8s-.6-14.1-1.8-19.2c-1.2-5-3.1-9-5.4-11.8s-5.4-4.8-9-6c-3.5-1.1-7.7-1.7-12.4-1.7s-11.7,1-16,3.2c-4.3,2.2-7.5,6-9.6,11.6-2.2,5.6-3.2,13.6-3.2,23.9s1,18.1,3.2,23.8,5.3,9.4,9.5,11.6c4.2,2.2,9.5,3.2,15.9,3.2h.2Z"/>
      <path class="st1" d="M577.2,352.3h-30.1v-92.1h-36.7v-19.4h103.2v19.4h-36.5v92.1h.1Z"/>
      <path class="st1" d="M673.9,354.4c-8.7,0-16.8-.9-24-2.6s-13.5-4.8-18.7-9.1-9.3-10.2-12-17.7c-2.8-7.5-4.2-16.9-4.2-28.3s1.4-21,4.2-28.6c2.8-7.5,6.8-13.4,12-17.7s11.4-7.4,18.7-9.1c7.3-1.8,15.3-2.7,24-2.7s16.9.9,24.1,2.7,13.4,4.8,18.7,9.1c5.2,4.3,9.3,10.2,12,17.7,2.8,7.5,4.2,17,4.2,28.4s-1.4,21-4.2,28.4-6.8,13.4-12,17.7-11.4,7.4-18.7,9.1-15.3,2.6-24.1,2.6h0ZM673.9,335.1c6.3,0,11.7-1,15.9-3.2s7.4-6,9.5-11.6c2.2-5.6,3.2-13.5,3.2-23.8s-.6-14.1-1.8-19.2c-1.2-5-3.1-9-5.4-11.8s-5.4-4.8-9-6c-3.5-1.1-7.7-1.7-12.4-1.7s-11.7,1-16,3.2-7.5,6-9.6,11.6c-2.2,5.6-3.2,13.6-3.2,23.9s1,18.1,3.2,23.8c2.2,5.6,5.3,9.4,9.5,11.6,4.2,2.2,9.5,3.2,15.9,3.2h.2Z"/>
      <path class="st1" d="M167.3,499c-6.8,0-13.1-.9-19.2-2.8-6-1.9-11.2-5-15.8-9.5-4.5-4.4-8.2-10.4-10.8-17.8-2.6-7.4-4-16.7-4-27.8s1.4-20.9,4.2-28.3c2.7-7.5,6.7-13.5,11.8-17.9s11-7.5,17.7-9.3c6.8-1.8,14.2-2.7,22.2-2.7s16.3.7,22.8,2c6.6,1.4,12,3.5,16.5,6.6,4.5,3.1,7.9,7,10.3,12s3.6,11,3.9,18.2h-32.1c0-3.9-.6-7-1.6-9.5-1-2.5-2.5-4.5-4.4-6s-4.1-2.5-6.8-3.1-5.6-.9-9-.9-7.9.6-11.1,1.9-5.8,3.3-7.8,6.2-3.6,6.8-4.5,11.8-1.4,11.1-1.4,18.6.6,13.7,1.7,18.7,2.8,8.8,5.2,11.8,5.2,5,8.7,6.2c3.5,1.2,7.7,1.9,12.6,1.9,9.6,0,16.4-2,20.6-6s6.2-10,6.2-17.9v-2h-28.6v-18.8h57v62.1h-24l.6-17.5h-.6c-1.8,3.7-4.6,7.1-8.5,10.2-4,3.1-8.6,5.4-14.1,7-5.4,1.7-11.4,2.5-17.9,2.5h-.1Z"/>
      <path class="st1" d="M235.4,496.6l41.4-112.1h37.5l41.4,112.1h-33.2l-9.4-26.3h-42.5l-9.7,26.3h-25.4ZM276.5,451.4h30.3l-8.5-23-6.2-17.6h-.5l-6.5,17.5-8.6,23.2h0Z"/>
      <path class="st1" d="M444.4,496.6h-82.6v-111.6h30.1v92.1h52.5v19.4h0Z"/>
      <path class="st1" d="M546.7,496.6h-93.7v-111.6h86.5v19.4h-56.4v24.5h43.4v19.3h-43.4v29h63.6v19.4h.1Z"/>
      <path class="st1" d="M585.8,496.6h-30.1v-111.6h51.1c10.1,0,18.4.8,25.2,2.4s11.8,4.4,15.2,8.5,5.1,9.6,5.1,16.9-1.2,11.1-3.6,15.1c-2.4,4-5.9,7-10.5,9.2s-10.2,3.6-16.9,4.4v.5c6.7.3,12.5,1.4,17.5,2.9,4.9,1.7,8.8,4.3,11.8,7.9,2.9,3.6,4.9,8.4,5.6,14.5l3.6,29.4h-30.1l-2.8-24.3c-.6-5.8-1.7-10-3.3-12.7s-3.7-4.5-6.7-5.3c-2.8-.8-6.7-1.2-11.6-1.2h-19.4v43.5h.1ZM602.6,403.9h-17.1v30.4h17.1c3.4,0,6.3-.2,8.8-.7s4.4-1.4,6-2.5c1.5-1.2,2.6-2.8,3.4-4.9s1.1-4.6,1.1-7.7-.6-7.4-1.9-9.4c-1.2-2-3.3-3.5-6.2-4.2s-6.6-1-11.2-1h0Z"/>
      <path class="st1" d="M700.4,496.6h-30.3v-111.6h30.3v111.6Z"/>
      <path class="st1" d="M756,498.6c-10,0-18.4-1.4-25.2-4.2s-12-7.3-15.6-13.4c-3.5-6-5.3-13.9-5.3-23.7v-8.6h28.1v8.7c0,4,.5,7.3,1.2,10s1.9,4.8,3.4,6.3,3.3,2.7,5.4,3.4c2.2.7,4.4,1,7,1s6.2-.6,8.5-1.7c2.4-1.1,4.2-2.9,5.4-5.6s1.9-6,1.9-10.3v-75.7h29.9v75.8c0,12.6-3.7,22-11.3,28.3-7.5,6.3-18.7,9.5-33.5,9.5h0Z"/>
      <path class="st1" d="M801.5,496.6l41.4-112.1h37.5l41.4,112.1h-33.2l-9.4-26.3h-42.5l-9.7,26.3h-25.4ZM842.7,451.4h30.3l-8.5-23-6.2-17.6h-.5l-6.5,17.5-8.6,23.2h0Z"/>
    </g>
  </g>
</svg>