<?xml version="1.0" encoding="UTF-8"?>
<svg id="Layer_1" data-name="Layer 1" xmlns="http://www.w3.org/2000/svg" viewBox="0 0 992 762.92">
  <defs>
    <style>
      .cls-1 {
        fill: #9c3;
      }

      .cls-2 {
        fill: #fff;
      }

      .cls-3 {
        fill: #336;
      }

      .cls-4 {
        fill: #f63;
      }
    </style>
  </defs>
  <rect class="cls-3" x="-36.09" y="-61.76" width="1070" height="866"/>
  <g>
    <polygon class="cls-4" points="190.09 284.7 188.5 414.98 790.92 411.29 781.35 295.76 190.09 284.7"/>
    <polygon class="cls-1" points="205.54 304.95 200.75 445.7 803.5 433.75 793.12 312.92 205.54 304.95"/>
    <g>
      <path class="cls-2" d="M244.88,411.16h-17.93v-66.49h31.38c5.98,0,11.02.75,15.13,2.24s7.22,3.92,9.34,7.28c2.12,3.36,3.17,7.88,3.17,13.54s-1.04,10.19-3.13,13.59c-2.09,3.39-5.18,5.85-9.29,7.38-4.11,1.53-9.18,2.29-15.22,2.29h-13.45v20.17ZM244.69,379.69h10.55c3.24,0,5.77-.34,7.61-1.03,1.84-.68,3.16-1.9,3.97-3.64.81-1.74,1.21-4.17,1.21-7.28s-.41-5.6-1.21-7.28c-.81-1.68-2.13-2.86-3.97-3.55-1.84-.68-4.37-1.03-7.61-1.03h-10.55v23.81Z"/>
      <path class="cls-2" d="M309.5,411.16h-17.93v-66.49h30.44c5.98,0,10.97.48,14.99,1.45,4.02.97,7.03,2.65,9.06,5.04,2.02,2.4,3.04,5.74,3.04,10.04,0,3.61-.72,6.6-2.15,8.96-1.43,2.37-3.52,4.19-6.26,5.46-2.74,1.28-6.1,2.16-10.09,2.66v.28c3.98.19,7.44.78,10.37,1.77,2.93,1,5.28,2.57,7.05,4.72,1.77,2.15,2.88,5.03,3.31,8.64l2.15,17.46h-17.93l-1.68-14.47c-.37-3.42-1.03-5.94-1.96-7.56-.93-1.62-2.26-2.68-3.97-3.18-1.71-.5-4-.75-6.86-.75h-11.58v25.96ZM319.49,355.88h-10.18v18.12h10.18c2.05,0,3.81-.14,5.28-.42,1.46-.28,2.65-.78,3.55-1.49.9-.71,1.57-1.68,2.01-2.89.44-1.21.65-2.75.65-4.62,0-2.49-.37-4.36-1.12-5.6-.75-1.24-1.98-2.07-3.69-2.47-1.71-.4-3.94-.61-6.68-.61Z"/>
      <path class="cls-2" d="M415.11,411.16h-55.84v-66.49h51.55v11.58h-33.62v14.57h25.87v11.49h-25.87v17.28h37.91v11.58Z"/>
      <path class="cls-2" d="M451.81,411.16h-31.38v-66.49h31.38c5.23,0,9.95.47,14.15,1.4,4.2.93,7.81,2.61,10.83,5.04,3.02,2.43,5.32,5.81,6.91,10.13,1.59,4.33,2.38,9.85,2.38,16.58s-.79,12.27-2.38,16.62c-1.59,4.36-3.89,7.75-6.91,10.18-3.02,2.43-6.63,4.12-10.83,5.09-4.2.97-8.92,1.45-14.15,1.45ZM438.37,399.58h10.37c4.54,0,8.25-.64,11.11-1.91,2.86-1.28,4.96-3.49,6.3-6.63,1.34-3.14,2.01-7.55,2.01-13.21s-.67-10.24-2.01-13.35c-1.34-3.11-3.44-5.26-6.3-6.44-2.86-1.18-6.57-1.77-11.11-1.77h-10.37v43.33Z"/>
      <path class="cls-2" d="M485.15,411.16l24.65-66.77h22.32l24.65,66.77h-19.8l-5.6-15.69h-25.31l-5.79,15.69h-15.13ZM509.71,384.17h18.02l-5.04-13.73-3.74-10.46h-.28l-3.83,10.37-5.14,13.82Z"/>
      <path class="cls-2" d="M573.96,411.44l-24.28-66.77h19.7l13.26,37.54,4.48,12.98h.37l4.67-13.17,13.26-37.35h15.22l-24.28,66.77h-22.41Z"/>
      <path class="cls-2" d="M613.55,411.16l24.65-66.77h22.32l24.65,66.77h-19.8l-5.6-15.69h-25.31l-5.79,15.69h-15.13ZM638.11,384.17h18.02l-5.04-13.73-3.74-10.46h-.28l-3.83,10.37-5.14,13.82Z"/>
      <path class="cls-2" d="M718.79,412.37c-5.42,0-10.29-.55-14.61-1.63-4.33-1.09-8-2.96-11.02-5.6-3.02-2.65-5.34-6.19-6.96-10.65-1.62-4.45-2.43-9.98-2.43-16.58s.84-12.42,2.52-16.9c1.68-4.48,4.05-8,7.1-10.55,3.05-2.55,6.68-4.36,10.88-5.42,4.2-1.06,8.82-1.59,13.87-1.59s9.37.47,13.17,1.4c3.8.93,6.97,2.44,9.53,4.53,2.55,2.09,4.48,4.84,5.79,8.26,1.31,3.42,1.96,7.66,1.96,12.7h-18.3c-.13-3.05-.48-5.57-1.07-7.56-.59-1.99-1.45-3.55-2.57-4.67s-2.47-1.91-4.06-2.38c-1.59-.47-3.44-.7-5.56-.7-2.55,0-4.76.31-6.63.93-1.87.62-3.42,1.76-4.67,3.41-1.25,1.65-2.16,3.98-2.75,7-.59,3.02-.89,6.9-.89,11.63,0,4.3.33,7.88.98,10.74.65,2.86,1.68,5.14,3.08,6.82s3.16,2.88,5.28,3.6c2.12.72,4.61,1.07,7.47,1.07s5.46-.26,7.61-.79c2.15-.53,3.92-1.45,5.32-2.75,1.4-1.31,2.43-3.1,3.08-5.37.65-2.27.92-5.15.79-8.64h16.53c.62,9.71-1.95,17.09-7.7,22.13-5.76,5.04-14.33,7.56-25.73,7.56ZM728.41,318.9l7.38,4.95-12.7,16.16h-11.67l-12.14-15.97,5.98-5.14,12.05,11.02,11.11-11.02Z"/>
      <path class="cls-2" d="M776.41,411.16h-18.02v-66.49h18.02v66.49Z"/>
    </g>
  </g>
</svg>