<?xml version="1.0" encoding="UTF-8"?>
<svg id="Layer_1" xmlns="http://www.w3.org/2000/svg" version="1.1" viewBox="0 0 992 762.9">
  <!-- Generator: Adobe Illustrator 29.5.1, SVG Export Plug-In . SVG Version: 2.1.0 Build 141)  -->
  <defs>
    <style>
      .st0 {
        fill: #fff;
      }

      .st1 {
        fill: #336;
      }

      .st2 {
        fill: #fc3;
      }

      .st3 {
        fill: #f1673a;
      }
    </style>
  </defs>
  <rect class="st3" x="-36.1" y="-61.8" width="1070" height="866"/>
  <g>
    <polygon class="st2" points="31.2 242.9 28.8 440.8 944.1 435.2 929.5 259.7 31.2 242.9"/>
    <polygon class="st1" points="54.7 273.7 47.4 487.5 963.2 469.3 947.4 285.8 54.7 273.7"/>
    <g>
      <path class="st0" d="M114.5,435h-27.2v-101h47.7c9.1,0,16.7,1.1,23,3.4,6.2,2.3,11,6,14.2,11.1s4.8,12,4.8,20.6-1.6,15.5-4.8,20.6c-3.2,5.2-7.9,8.9-14.1,11.2-6.2,2.3-13.9,3.5-23.1,3.5h-20.4v30.6h0ZM114.2,387.2h16c4.9,0,8.8-.5,11.6-1.6,2.8-1,4.8-2.9,6-5.5,1.2-2.6,1.8-6.3,1.8-11.1s-.6-8.5-1.8-11.1c-1.2-2.6-3.2-4.3-6-5.4-2.8-1-6.6-1.6-11.6-1.6h-16v36.2Z"/>
      <path class="st0" d="M212.6,435h-27.2v-101h46.2c9.1,0,16.7.7,22.8,2.2,6.1,1.5,10.7,4,13.8,7.7,3.1,3.6,4.6,8.7,4.6,15.3s-1.1,10-3.3,13.6c-2.2,3.6-5.3,6.4-9.5,8.3-4.2,1.9-9.3,3.3-15.3,4v.4c6,.3,11.3,1.2,15.8,2.7,4.5,1.5,8,3.9,10.7,7.2s4.4,7.6,5,13.1l3.3,26.5h-27.2l-2.6-22c-.6-5.2-1.6-9-3-11.5s-3.4-4.1-6-4.8-6.1-1.1-10.4-1.1h-17.6v39.4h0ZM227.8,351h-15.5v27.5h15.5c3.1,0,5.8-.2,8-.6,2.2-.4,4-1.2,5.4-2.3s2.4-2.6,3.1-4.4c.7-1.8,1-4.2,1-7s-.6-6.6-1.7-8.5c-1.1-1.9-3-3.1-5.6-3.8s-6-.9-10.1-.9h0Z"/>
      <path class="st0" d="M373.1,435h-84.8v-101h78.3v17.6h-51.1v22.1h39.3v17.5h-39.3v26.3h57.6v17.6h0Z"/>
      <path class="st0" d="M428.9,435h-47.7v-101h47.7c7.9,0,15.1.7,21.5,2.1,6.4,1.4,11.9,4,16.5,7.7,4.6,3.7,8.1,8.8,10.5,15.4,2.4,6.6,3.6,15,3.6,25.2s-1.2,18.6-3.6,25.3c-2.4,6.6-5.9,11.8-10.5,15.5s-10.1,6.3-16.5,7.7c-6.4,1.5-13.6,2.2-21.5,2.2ZM408.4,417.4h15.8c6.9,0,12.5-1,16.9-2.9,4.3-1.9,7.5-5.3,9.6-10.1,2-4.8,3.1-11.5,3.1-20.1s-1-15.6-3.1-20.3c-2-4.7-5.2-8-9.6-9.8s-10-2.7-16.9-2.7h-15.8v65.8h0Z"/>
      <path class="st0" d="M479.5,435l37.5-101.4h33.9l37.5,101.4h-30.1l-8.5-23.8h-38.5l-8.8,23.8h-23,0ZM516.8,394h27.4l-7.7-20.9-5.7-15.9h-.4l-5.8,15.8-7.8,21h0Z"/>
      <path class="st0" d="M614.4,435.5l-36.9-101.4h29.9l20.1,57,6.8,19.7h.6l7.1-20,20.1-56.7h23.1l-36.9,101.4h-34,0Z"/>
      <path class="st0" d="M674.6,435l37.5-101.4h33.9l37.5,101.4h-30.1l-8.5-23.8h-38.5l-8.8,23.8h-23,0ZM711.9,394h27.4l-7.7-20.9-5.7-15.9h-.4l-5.8,15.8-7.8,21h0Z"/>
      <path class="st0" d="M834.5,436.9c-8.2,0-15.6-.8-22.2-2.5-6.6-1.7-12.2-4.5-16.7-8.5-4.6-4-8.1-9.4-10.6-16.2-2.5-6.8-3.7-15.2-3.7-25.2s1.3-18.9,3.8-25.7c2.6-6.8,6.2-12.2,10.8-16s10.1-6.6,16.5-8.2c6.4-1.6,13.4-2.4,21.1-2.4s14.2.7,20,2.1,10.6,3.7,14.5,6.9c3.9,3.2,6.8,7.4,8.8,12.5,2,5.2,3,11.6,3,19.3h-27.8c-.2-4.6-.7-8.5-1.6-11.5s-2.2-5.4-3.9-7.1-3.8-2.9-6.2-3.6-5.2-1.1-8.4-1.1-7.2.5-10.1,1.4-5.2,2.7-7.1,5.2-3.3,6-4.2,10.6-1.4,10.5-1.4,17.7.5,12,1.5,16.3c1,4.3,2.6,7.8,4.7,10.4s4.8,4.4,8,5.5c3.2,1.1,7,1.6,11.3,1.6s8.3-.4,11.6-1.2c3.3-.8,6-2.2,8.1-4.2,2.1-2,3.7-4.7,4.7-8.2,1-3.4,1.4-7.8,1.2-13.1h25.1c.9,14.8-3,26-11.7,33.6-8.8,7.7-21.8,11.5-39.1,11.5h0ZM849.1,294.9l11.2,7.5-19.3,24.6h-17.7l-18.4-24.3,9.1-7.8,18.3,16.7,16.9-16.7h0Z"/>
      <path class="st0" d="M922,435h-27.4v-101h27.4v101Z"/>
    </g>
  </g>
</svg>