<?xml version="1.0" encoding="UTF-8"?>
<svg id="Layer_1" xmlns="http://www.w3.org/2000/svg" version="1.1" viewBox="0 0 992 762.9">
  <!-- Generator: Adobe Illustrator 29.5.1, SVG Export Plug-In . SVG Version: 2.1.0 Build 141)  -->
  <defs>
    <style>
      .st0 {
        fill: #e16faa;
      }

      .st1 {
        fill: #fff;
      }

      .st2 {
        fill: #336;
      }

      .st3 {
        fill: #98c93c;
      }
    </style>
  </defs>
  <rect class="st0" x="-36.1" y="-61.8" width="1070" height="866"/>
  <g>
    <polygon class="st3" points="44.4 163.3 42 516.3 931.4 506.3 917.3 193.3 44.4 163.3"/>
    <polygon class="st2" points="67.2 218.2 60.1 599.6 950 567.2 934.7 239.8 67.2 218.2"/>
    <g>
      <path class="st1" d="M200.8,383.5h-26.5v-98.5h26.5v36.9h5.3l29.7-36.9h26.5l-33.6,41.1,42.2,57.4h-33.1l-31.3-43.6h-5.8v43.6Z"/>
      <path class="st1" d="M300.3,383.5h-26.5v-98.5h45.1c8.9,0,16.3.7,22.2,2.1,6,1.4,10.4,3.9,13.4,7.5,3,3.5,4.5,8.5,4.5,14.9s-1.1,9.8-3.2,13.3c-2.1,3.5-5.2,6.2-9.3,8.1-4.1,1.9-9,3.2-14.9,3.9v.4c5.9.3,11,1.2,15.3,2.6s7.8,3.8,10.4,7,4.3,7.4,4.9,12.8l3.2,25.9h-26.5l-2.5-21.4c-.6-5.1-1.5-8.8-2.9-11.2-1.4-2.4-3.3-4-5.9-4.7s-5.9-1.1-10.2-1.1h-17.2v38.5h0ZM315.1,301.6h-15.1v26.8h15.1c3,0,5.7-.2,7.8-.6,2.2-.4,3.9-1.2,5.3-2.2s2.3-2.5,3-4.3c.6-1.8,1-4.1,1-6.8s-.6-6.4-1.7-8.3c-1.1-1.8-2.9-3.1-5.5-3.7-2.5-.6-5.8-.9-9.9-.9h0Z"/>
      <path class="st1" d="M401.4,383.5h-26.7v-98.5h26.7v98.5Z"/>
      <path class="st1" d="M469.4,383.5h-26.5v-81.3h-32.4v-17.2h91.1v17.2h-32.2v81.3Z"/>
      <path class="st1" d="M537.6,383.5h-26.7v-98.5h26.7v98.5Z"/>
      <path class="st1" d="M600.7,385.3c-8,0-15.2-.8-21.6-2.4-6.4-1.6-11.8-4.4-16.3-8.3s-7.9-9.2-10.3-15.8c-2.4-6.6-3.6-14.8-3.6-24.5s1.2-18.4,3.7-25c2.5-6.6,6-11.8,10.5-15.6,4.5-3.8,9.9-6.4,16.1-8,6.2-1.6,13.1-2.3,20.5-2.3s13.9.7,19.5,2.1,10.3,3.6,14.1,6.7c3.8,3.1,6.6,7.2,8.6,12.2,1.9,5.1,2.9,11.3,2.9,18.8h-27.1c-.2-4.5-.7-8.3-1.6-11.2-.9-2.9-2.1-5.3-3.8-6.9-1.7-1.7-3.7-2.8-6-3.5s-5.1-1-8.2-1-7.1.5-9.8,1.4c-2.8.9-5.1,2.6-6.9,5.1-1.8,2.5-3.2,5.9-4.1,10.4-.9,4.5-1.3,10.2-1.3,17.2s.5,11.7,1.5,15.9c1,4.2,2.5,7.6,4.6,10.1,2.1,2.5,4.7,4.3,7.8,5.3,3.1,1.1,6.8,1.6,11.1,1.6s8.1-.4,11.3-1.2,5.8-2.1,7.9-4.1c2.1-1.9,3.6-4.6,4.6-8,1-3.4,1.4-7.6,1.2-12.8h24.5c.9,14.4-2.9,25.3-11.4,32.8-8.5,7.5-21.2,11.2-38.1,11.2h0ZM614.9,246.9l10.9,7.3-18.8,23.9h-17.3l-18-23.6,8.9-7.6,17.8,16.3,16.5-16.3h0Z"/>
      <path class="st1" d="M685.2,383.5h-26.5v-98.5h26.5v36.9h5.3l29.7-36.9h26.5l-33.6,41.1,42.2,57.4h-33.1l-31.3-43.6h-5.8v43.6h0Z"/>
      <path class="st1" d="M800.5,385.3c-7.7,0-14.8-.8-21.2-2.3-6.4-1.5-11.9-4.2-16.5-8-4.6-3.8-8.2-9-10.6-15.6-2.5-6.6-3.7-14.9-3.7-25s1.2-18.5,3.7-25.2c2.5-6.6,6-11.8,10.6-15.6,4.6-3.8,10.1-6.4,16.5-8,6.4-1.6,13.5-2.3,21.2-2.3s14.9.8,21.3,2.3c6.4,1.6,11.8,4.2,16.5,8,4.6,3.8,8.2,9,10.6,15.6,2.5,6.6,3.7,15,3.7,25.1s-1.2,18.5-3.7,25.1c-2.5,6.6-6,11.8-10.6,15.6-4.6,3.8-10.1,6.5-16.5,8-6.4,1.5-13.5,2.3-21.3,2.3h0ZM800.5,368.3c5.6,0,10.3-.9,14-2.8,3.7-1.9,6.5-5.3,8.4-10.2s2.8-11.9,2.8-21-.5-12.4-1.6-16.9c-1.1-4.4-2.6-7.9-4.8-10.4s-4.8-4.2-7.9-5.3c-3.1-1-6.8-1.5-10.9-1.5s-10.3.9-14.1,2.8c-3.8,1.9-6.6,5.3-8.5,10.2-1.9,4.9-2.8,12-2.8,21.1s.9,16,2.8,21,4.7,8.3,8.4,10.2c3.7,1.8,8.4,2.8,14,2.8h0Z"/>
      <path class="st1" d="M112.9,527.8v-98.5h36.5l17.6,50.2,5.3,15.5h.3l5.4-15.3,18-50.3h36v98.5h-26.1v-49c.1,0,.3-18.9.3-18.9h-.3l-5.7,17.6-18.4,50.3h-25.6l-18.3-51.2-5.3-16.7h-.3v67.9h-19.4Z"/>
      <path class="st1" d="M272.5,527.8h-26.7v-98.5h26.7v98.5Z"/>
      <path class="st1" d="M329.5,529.6c-11,0-20-1.1-27-3.3s-12.2-5.8-15.5-10.6c-3.3-4.9-5-11.3-5.1-19.2h26.4c0,6.1,1.8,10.4,5.1,12.9,3.3,2.5,8.7,3.8,16.3,3.8s12-.9,15.1-2.7c3.2-1.8,4.8-4.8,4.8-8.9s-.8-5.3-2.4-7c-1.6-1.7-4.6-2.9-9.1-3.5l-24.3-3.5c-9.7-1.5-16.9-4.5-21.6-9-4.8-4.5-7.1-11.2-7.1-19.9s3.7-18,11-23.2c7.3-5.3,17.9-7.9,31.9-7.9s26.2,2.5,33.4,7.5c7.1,5,10.9,13.4,11.1,25.2h-26.4c0-4-.6-7.1-1.7-9.5s-3-4.1-5.6-5.2c-2.6-1.1-6.2-1.7-10.8-1.7s-9.9.9-12.7,2.6c-2.9,1.7-4.3,4.6-4.3,8.6s.8,4.9,2.4,6.5c1.6,1.6,4.4,2.6,8.2,3.2l24.9,3.9c10.3,1.6,17.8,4.7,22.3,9.4,4.6,4.7,6.8,11.4,6.8,20.2s-3.8,18.3-11.5,23.5c-7.7,5.3-19.2,7.9-34.6,7.9h0ZM345.1,391.2l10.9,7.3-18.8,23.9h-17.3l-18-23.6,8.9-7.6,17.8,16.3,16.5-16.3h0Z"/>
      <path class="st1" d="M457.4,527.8h-72.9v-98.5h26.5v81.3h46.3v17.2h0Z"/>
      <path class="st1" d="M499,529.6c-8.8,0-16.2-1.2-22.2-3.7-6-2.5-10.6-6.4-13.8-11.8-3.1-5.4-4.7-12.3-4.7-20.9v-7.6h24.8v7.7c0,3.5.4,6.4,1.1,8.8.7,2.3,1.7,4.2,3,5.6s2.9,2.4,4.8,3c1.9.6,3.9.9,6.1.9s5.5-.5,7.5-1.5,3.7-2.6,4.8-4.9c1.1-2.3,1.7-5.4,1.7-9.1v-66.8h26.4v66.9c0,11.1-3.3,19.4-10,25-6.6,5.6-16.5,8.4-29.6,8.4h0Z"/>
      <path class="st1" d="M633.3,527.8h-82.7v-98.5h76.3v17.2h-49.8v21.6h38.3v17h-38.3v25.6h56.1v17.2h0Z"/>
      <path class="st1" d="M662.2,527.8h-21v-98.5h29l34.3,47.6,8,10.5h.4v-58.1h21v98.5h-24.8l-37.9-54.1-8.7-11.9h-.4v66h0Z"/>
      <path class="st1" d="M782.4,529.6c-8.8,0-16.2-1.2-22.2-3.7-6-2.5-10.6-6.4-13.8-11.8-3.1-5.4-4.7-12.3-4.7-20.9v-7.6h24.8v7.7c0,3.5.4,6.4,1.1,8.8.7,2.3,1.7,4.2,3,5.6,1.3,1.4,2.9,2.4,4.8,3,1.9.6,3.9.9,6.1.9s5.5-.5,7.5-1.5,3.7-2.6,4.8-4.9c1.1-2.3,1.7-5.4,1.7-9.1v-66.8h26.4v66.9c0,11.1-3.3,19.4-10,25-6.6,5.6-16.5,8.4-29.6,8.4h0Z"/>
      <path class="st1" d="M916.7,527.8h-82.7v-98.5h76.3v17.2h-49.8v21.6h38.3v17h-38.3v25.6h56.1v17.2h0Z"/>
    </g>
  </g>
</svg>