<?xml version="1.0" encoding="UTF-8"?>
<svg id="Layer_1" data-name="Layer 1" xmlns="http://www.w3.org/2000/svg" viewBox="0 0 992 762.92">
  <defs>
    <style>
      .cls-1 {
        fill: #fff;
      }

      .cls-2 {
        fill: #336;
      }

      .cls-3 {
        fill: #6cc;
      }

      .cls-4 {
        fill: #f63;
      }
    </style>
  </defs>
  <rect class="cls-2" x="-36.09" y="-61.76" width="1070" height="866"/>
  <g>
    <polygon class="cls-3" points="195.57 236.36 194 471.17 785.64 464.53 776.25 256.3 195.57 236.36"/>
    <polygon class="cls-4" points="210.74 272.86 206.03 526.55 798 505.01 787.81 287.22 210.74 272.86"/>
    <g>
      <path class="cls-1" d="M299.66,382.82h-17.66v-65.5h17.66v24.56h3.5l19.78-24.56h17.66l-22.36,27.32,28.06,38.18h-21.99l-20.79-28.98h-3.86v28.98Z"/>
      <path class="cls-1" d="M365.81,382.82h-17.66v-65.5h29.99c5.89,0,10.81.48,14.77,1.43,3.96.95,6.93,2.61,8.92,4.97,1.99,2.36,2.99,5.66,2.99,9.89,0,3.56-.71,6.5-2.12,8.83-1.41,2.33-3.47,4.13-6.16,5.38-2.7,1.26-6.01,2.13-9.94,2.62v.28c3.92.18,7.33.77,10.21,1.75,2.88.98,5.2,2.53,6.95,4.65,1.75,2.12,2.84,4.95,3.27,8.51l2.12,17.2h-17.66l-1.66-14.26c-.37-3.37-1.01-5.86-1.93-7.45-.92-1.59-2.22-2.64-3.91-3.13-1.69-.49-3.94-.74-6.76-.74h-11.41v25.58ZM375.65,328.36h-10.03v17.85h10.03c2.02,0,3.76-.14,5.2-.41,1.44-.28,2.61-.77,3.5-1.47.89-.7,1.55-1.66,1.98-2.85.43-1.2.64-2.71.64-4.55,0-2.45-.37-4.29-1.1-5.52-.74-1.23-1.95-2.04-3.63-2.44-1.69-.4-3.88-.6-6.58-.6Z"/>
      <path class="cls-1" d="M433.06,382.82h-17.76v-65.5h17.76v65.5Z"/>
      <path class="cls-1" d="M478.32,382.82h-17.66v-54.1h-21.53v-11.41h60.63v11.41h-21.44v54.1Z"/>
      <path class="cls-1" d="M523.68,382.82h-17.76v-65.5h17.76v65.5Z"/>
      <path class="cls-1" d="M565.63,384.02c-5.34,0-10.14-.54-14.4-1.61-4.26-1.07-7.88-2.91-10.86-5.52-2.98-2.61-5.26-6.1-6.85-10.49-1.59-4.38-2.39-9.83-2.39-16.33s.83-12.24,2.48-16.65c1.66-4.42,3.99-7.88,6.99-10.4,3-2.51,6.58-4.29,10.72-5.34,4.14-1.04,8.69-1.56,13.66-1.56s9.23.46,12.97,1.38c3.74.92,6.87,2.41,9.38,4.46,2.51,2.06,4.42,4.77,5.7,8.14,1.29,3.37,1.93,7.54,1.93,12.51h-18.03c-.12-3-.48-5.49-1.06-7.45-.58-1.96-1.43-3.5-2.53-4.6-1.1-1.1-2.44-1.89-4-2.35-1.56-.46-3.39-.69-5.47-.69-2.52,0-4.69.31-6.53.92-1.84.61-3.37,1.73-4.6,3.36-1.23,1.63-2.13,3.93-2.71,6.9-.58,2.98-.87,6.79-.87,11.45,0,4.23.32,7.76.97,10.58.64,2.82,1.66,5.06,3.04,6.72s3.11,2.84,5.2,3.54c2.08.71,4.54,1.06,7.36,1.06s5.38-.26,7.5-.78c2.12-.52,3.86-1.43,5.24-2.71s2.39-3.05,3.04-5.29c.64-2.24.9-5.07.78-8.51h16.28c.61,9.57-1.92,16.84-7.59,21.8-5.67,4.97-14.12,7.45-25.35,7.45ZM575.1,291.93l7.27,4.88-12.51,15.92h-11.5l-11.96-15.73,5.89-5.06,11.87,10.86,10.95-10.86Z"/>
      <path class="cls-1" d="M621.84,382.82h-17.66v-65.5h17.66v24.56h3.5l19.78-24.56h17.66l-22.36,27.32,28.06,38.18h-21.99l-20.79-28.98h-3.86v28.98Z"/>
      <path class="cls-1" d="M698.57,384.02c-5.15,0-9.86-.51-14.12-1.52-4.26-1.01-7.93-2.79-10.99-5.34-3.07-2.54-5.43-6.01-7.08-10.4-1.66-4.38-2.48-9.92-2.48-16.61s.83-12.33,2.48-16.74c1.66-4.42,4.02-7.88,7.08-10.4,3.07-2.51,6.73-4.29,10.99-5.34,4.26-1.04,8.97-1.56,14.12-1.56s9.94.52,14.17,1.56c4.23,1.04,7.88,2.82,10.95,5.34,3.07,2.52,5.43,5.97,7.08,10.35,1.66,4.39,2.48,9.95,2.48,16.7s-.83,12.31-2.48,16.7c-1.66,4.39-4.02,7.85-7.08,10.4-3.07,2.55-6.72,4.32-10.95,5.34-4.23,1.01-8.96,1.52-14.17,1.52ZM698.57,372.7c3.74,0,6.85-.63,9.34-1.89,2.48-1.26,4.35-3.53,5.61-6.81,1.26-3.28,1.89-7.93,1.89-13.94,0-4.54-.35-8.28-1.06-11.22-.71-2.94-1.76-5.24-3.17-6.9-1.41-1.66-3.16-2.82-5.24-3.5-2.09-.67-4.51-1.01-7.27-1.01-3.74,0-6.87.63-9.38,1.89-2.52,1.26-4.4,3.53-5.66,6.81-1.26,3.28-1.89,7.96-1.89,14.03s.63,10.66,1.89,13.94c1.26,3.28,3.13,5.54,5.61,6.76,2.48,1.23,5.6,1.84,9.34,1.84Z"/>
      <path class="cls-1" d="M241.15,478.82v-65.5h24.29l11.68,33.4,3.5,10.3h.18l3.59-10.21,11.96-33.49h23.92v65.5h-17.39l.09-32.57.09-12.6h-.18l-3.77,11.68-12.24,33.49h-17.02l-12.14-34.04-3.5-11.13h-.18v45.17h-12.88Z"/>
      <path class="cls-1" d="M347.31,478.82h-17.76v-65.5h17.76v65.5Z"/>
      <path class="cls-1" d="M385.22,480.02c-7.3,0-13.28-.74-17.94-2.21s-8.1-3.83-10.3-7.08c-2.21-3.25-3.34-7.51-3.4-12.79h17.57c.06,4.05,1.18,6.92,3.36,8.6,2.18,1.69,5.78,2.53,10.81,2.53,4.6,0,7.96-.6,10.07-1.79,2.12-1.2,3.17-3.17,3.17-5.93,0-1.96-.54-3.51-1.61-4.65-1.07-1.13-3.08-1.92-6.03-2.35l-16.19-2.3c-6.44-.98-11.24-2.97-14.4-5.98-3.16-3-4.74-7.42-4.74-13.25,0-6.81,2.44-11.96,7.31-15.46,4.88-3.5,11.94-5.24,21.21-5.24,10.06,0,17.46,1.66,22.22,4.97,4.75,3.31,7.22,8.89,7.41,16.74h-17.57c0-2.64-.38-4.74-1.15-6.3-.77-1.56-2.01-2.71-3.73-3.45-1.72-.74-4.11-1.1-7.18-1.1-3.74,0-6.56.57-8.46,1.7-1.9,1.14-2.85,3.05-2.85,5.75,0,1.84.54,3.28,1.61,4.32,1.07,1.04,2.9,1.75,5.47,2.12l16.56,2.58c6.87,1.04,11.82,3.13,14.86,6.26,3.04,3.13,4.55,7.61,4.55,13.43,0,6.93-2.55,12.14-7.64,15.64-5.09,3.5-12.76,5.24-23,5.24ZM395.61,387.93l7.27,4.88-12.51,15.92h-11.5l-11.96-15.73,5.89-5.06,11.87,10.86,10.95-10.86Z"/>
      <path class="cls-1" d="M470.32,478.82h-48.48v-65.5h17.66v54.1h30.82v11.41Z"/>
      <path class="cls-1" d="M498.01,480.02c-5.83,0-10.75-.83-14.77-2.48-4.02-1.66-7.07-4.26-9.15-7.82-2.09-3.56-3.13-8.19-3.13-13.89v-5.06h16.47v5.15c0,2.33.24,4.28.74,5.84.49,1.56,1.16,2.81,2.02,3.73.86.92,1.92,1.58,3.17,1.98,1.26.4,2.62.6,4.09.6,1.96,0,3.63-.32,5.01-.97s2.44-1.73,3.17-3.27c.74-1.53,1.1-3.56,1.1-6.07v-44.44h17.57v44.53c0,7.36-2.21,12.9-6.62,16.61-4.42,3.71-10.98,5.57-19.69,5.57Z"/>
      <path class="cls-1" d="M587.34,478.82h-55.02v-65.5h50.78v11.41h-33.12v14.35h25.48v11.32h-25.48v17.02h37.35v11.41Z"/>
      <path class="cls-1" d="M606.57,478.82h-13.98v-65.5h19.32l22.82,31.65,5.34,6.99h.28v-38.64h13.98v65.5h-16.47l-25.21-35.97-5.8-7.91h-.28v43.88Z"/>
      <path class="cls-1" d="M686.52,480.02c-5.83,0-10.75-.83-14.77-2.48-4.02-1.66-7.07-4.26-9.15-7.82-2.09-3.56-3.13-8.19-3.13-13.89v-5.06h16.47v5.15c0,2.33.24,4.28.74,5.84.49,1.56,1.16,2.81,2.02,3.73.86.92,1.92,1.58,3.17,1.98,1.26.4,2.62.6,4.09.6,1.96,0,3.63-.32,5.01-.97s2.44-1.73,3.17-3.27c.74-1.53,1.1-3.56,1.1-6.07v-44.44h17.57v44.53c0,7.36-2.21,12.9-6.62,16.61-4.42,3.71-10.98,5.57-19.69,5.57Z"/>
      <path class="cls-1" d="M775.85,478.82h-55.02v-65.5h50.78v11.41h-33.12v14.35h25.48v11.32h-25.48v17.02h37.35v11.41Z"/>
    </g>
  </g>
</svg>