<svg width="704" height="428" viewBox="0 0 704 428" fill="none" xmlns="http://www.w3.org/2000/svg">
<path d="M692.257 300.949C678.623 313.765 663.653 324.329 649.855 336.885C639.129 346.643 629.044 357.816 621.474 371.256C622.083 366.642 622.541 361.877 622.371 357.255C622.286 354.9 621.939 352.403 620.838 350.396C619.738 348.381 618.003 347.054 616.038 346.604C612.175 345.703 607.997 347.204 604.31 348.524C600.57 349.867 596.93 351.629 593.439 353.739C586.38 358.005 579.923 363.781 574.448 370.648C572.7 372.844 571.049 375.159 569.517 377.569C570.218 374.448 570.761 371.272 571.135 368.064C571.724 362.96 572.084 357.587 571.554 352.459C571.076 347.812 569.249 343.633 565.378 342.1C556.878 338.742 550.566 348.531 546.04 355.564C540.376 364.374 535.085 373.524 530.206 382.99C525.072 392.954 520.409 403.257 516.212 413.837C516.186 413.837 516.159 413.829 516.127 413.829H484.634C518.209 403.731 543.166 367.045 543.166 323.452C543.166 318.206 542.799 312.951 542.072 307.815L542.275 307.997L541.876 306.448C541.869 306.393 541.862 306.33 541.849 306.274C540.998 300.728 539.701 295.205 537.992 289.863C537.894 289.555 537.796 289.255 537.691 288.947C547.507 261.212 557.658 233.628 567.867 206.953C568.096 206.36 567.88 205.657 567.389 205.381C566.898 205.104 566.315 205.365 566.086 205.957C556.132 231.977 546.23 258.858 536.643 285.897C527.986 262.161 511.641 243.956 491.334 235.454C492.558 233.81 493.259 231.661 493.259 229.393V222.582C494.379 221.089 495.132 219.343 495.427 217.486L495.852 214.894C496.861 213.685 497.646 212.287 498.144 210.793C501.17 209.41 503.769 206.368 504.837 202.907L542.046 82.5129C542.406 81.3435 542.327 80.174 541.83 79.3049C541.358 78.4831 540.546 78.009 539.616 78.009H381.652L387.964 57.5758C388.527 55.7664 388.41 53.9728 387.657 52.6611C386.943 51.4127 385.751 50.7332 384.304 50.7332H341.574C338.745 50.7332 335.713 53.3802 334.672 56.7462L334.338 57.8129H326.617C323.769 57.8129 320.854 60.4836 319.99 63.897L319.636 65.2877H310.455C307.561 65.2877 304.843 68.0137 304.28 71.4982L302.931 79.7948H321.653C323.513 79.7948 325.026 81.62 325.026 83.864V107.11H486.586V229.401C486.586 230.823 486.213 232.198 485.519 233.336C479.166 231.337 472.598 230.31 465.984 230.31C456.685 230.31 447.596 232.285 438.971 236.173C424.388 242.747 411.913 254.362 402.889 269.77C393.662 285.525 388.789 304.086 388.789 323.444C388.789 349.393 397.846 374.298 413.648 391.895C412.345 400.104 411.009 407.484 409.673 413.821H386.772C386.962 413.608 387.087 413.3 387.087 412.96V340.259C387.087 339.856 387.002 339.484 386.858 339.16C386.936 338.994 386.982 338.805 386.982 338.599V274.116C386.982 272.93 386.183 271.958 385.194 271.958H370.106C369.124 271.958 368.319 272.922 368.319 274.116V317.076H284.254V274.116C284.254 272.93 283.456 271.958 282.467 271.958H267.379C266.397 271.958 265.591 272.922 265.591 274.116V338.599C265.591 338.9 265.689 339.168 265.84 339.382C265.748 339.65 265.702 339.951 265.702 340.267V345.726C265.63 345.703 265.552 345.687 265.473 345.687H249.39V200.616H279.33C279.873 200.616 280.312 200.087 280.312 199.431C280.312 198.775 279.873 198.246 279.33 198.246H249.39V192.857H266.298C266.626 192.857 266.934 192.659 267.117 192.335C267.3 192.003 267.333 191.593 267.209 191.229L249.973 140.533H279.33C279.873 140.533 280.312 140.004 280.312 139.348C280.312 138.692 279.873 138.163 279.33 138.163H249.39V85.1915C249.39 84.5357 248.951 84.0062 248.408 84.0062C247.864 84.0062 247.425 84.5357 247.425 85.1915V133.051L225.258 67.8557C225.108 67.4132 224.748 67.1208 224.348 67.1208H224.335C223.929 67.1287 223.569 67.4369 223.431 67.8952L201.697 138.163H179.307V85.1915C179.307 84.5357 178.868 84.0062 178.325 84.0062C177.781 84.0062 177.342 84.5357 177.342 85.1915V138.163H123.002V87.2854C123.002 86.6295 122.564 86.1001 122.02 86.1001C121.476 86.1001 121.038 86.6295 121.038 87.2854V138.163H71.4846V87.2854C71.4846 86.6295 71.0459 86.1001 70.5023 86.1001C69.9588 86.1001 69.52 86.6295 69.52 87.2854V138.163H16.8957C16.3521 138.163 15.9134 138.692 15.9134 139.348C15.9134 140.004 16.3521 140.533 16.8957 140.533H69.52V198.254H16.8957C16.3521 198.254 15.9134 198.783 15.9134 199.439C15.9134 200.095 16.3521 200.624 16.8957 200.624H69.52V263.938H18.69C18.1464 263.938 17.7077 264.468 17.7077 265.124C17.7077 265.779 18.1464 266.309 18.69 266.309H69.52V345.695H18.69C18.1464 345.695 17.7077 346.224 17.7077 346.88C17.7077 347.536 18.1464 348.065 18.69 348.065H69.52L69.4873 413.308C69.4873 413.497 69.5266 413.679 69.5921 413.837H10.9823C10.4388 413.837 10 414.367 10 415.022C10 415.678 10.4388 416.208 10.9823 416.208H458.938C461.269 416.46 463.613 416.595 465.978 416.595C468.342 416.595 470.673 416.46 472.978 416.208H515.282C514.758 417.574 516.447 418.776 516.978 417.393C524.437 398.208 533.461 379.916 543.899 362.881C546.44 358.732 548.987 354.505 551.862 350.689C554.364 347.354 557.5 344.233 561.377 343.917C562.975 343.791 564.632 344.067 566.046 345.023C567.677 346.129 568.692 348.018 569.196 350.159C569.714 352.364 569.779 354.671 569.799 356.947C569.812 359.562 569.714 362.185 569.504 364.793C568.954 371.541 567.618 378.17 565.581 384.475C563.473 388.592 561.665 392.93 560.205 397.449C559.786 398.737 561.43 399.456 561.999 398.366C564.128 394.273 565.922 389.951 567.376 385.455C573.197 374.211 581.377 364.745 590.885 358.108C594.081 355.88 597.427 353.96 600.891 352.411C604.375 350.855 608.075 349.448 611.769 348.879C613.609 348.595 615.672 348.547 617.348 349.646C619.051 350.76 619.876 352.814 620.216 355.034C620.57 357.334 620.432 359.736 620.314 362.059C620.17 364.895 619.928 367.732 619.588 370.545C619.339 372.56 619.044 374.567 618.704 376.558C618.56 376.85 618.409 377.143 618.265 377.435C614.074 386.174 611.055 395.759 609.863 405.778C609.719 407.002 611.081 407.982 611.657 406.694C615.757 397.544 618.762 387.699 620.537 377.522C623.752 371.003 627.623 364.919 631.879 359.333C642.992 344.747 656.653 333.598 670.208 322.615C678.158 316.175 686.108 309.727 693.659 302.624C694.654 301.684 693.253 300.024 692.27 300.949H692.257ZM459.023 413.829C453.306 413.189 447.707 411.775 442.324 409.626L442.383 409.475C442.259 409.389 429.751 400.926 423.255 389.769C420.498 385.036 419.666 371.73 419.417 364.714C419.463 364.358 419.502 364.003 419.548 363.639C419.62 363.07 419.686 362.493 419.751 361.917C419.849 361.103 419.948 360.297 420.039 359.483C420.111 358.882 420.177 358.274 420.249 357.673C420.34 356.883 420.432 356.093 420.517 355.303C420.589 354.655 420.661 354.007 420.733 353.359C420.819 352.609 420.904 351.85 420.982 351.099C421.061 350.396 421.133 349.693 421.205 348.982C421.277 348.287 421.356 347.591 421.428 346.888C421.506 346.114 421.585 345.339 421.663 344.557C421.729 343.925 421.794 343.293 421.853 342.661C421.938 341.792 422.023 340.914 422.109 340.045C422.161 339.516 422.213 338.979 422.266 338.449C422.357 337.501 422.443 336.553 422.534 335.613C422.574 335.154 422.619 334.696 422.665 334.238C422.763 333.195 422.849 332.16 422.94 331.125C422.973 330.769 423.006 330.406 423.039 330.042C423.163 328.644 423.281 327.261 423.392 325.87C424.289 338.196 426.228 348.958 428.814 357.658C429.03 358.385 429.253 359.096 429.476 359.791C430.825 363.971 432.324 367.614 433.922 370.671C437.4 377.301 441.361 381.149 445.317 381.583C445.579 381.615 445.847 381.631 446.116 381.631C446.81 381.631 447.517 381.536 448.231 381.338C458.931 378.446 471.236 354.339 477.588 323.444C480.319 340.417 483.24 353.367 486.396 362.399C486.815 363.6 487.241 364.737 487.673 365.804C488.105 366.871 488.537 367.866 488.97 368.791C489.847 370.64 490.738 372.22 491.648 373.516C492.1 374.164 492.565 374.749 493.023 375.262C494.647 377.056 496.324 378.012 498.066 378.138C498.203 378.146 498.334 378.154 498.465 378.154C506.153 378.154 512.315 361.861 524.424 327.008C527.095 322.148 533.467 310.881 536.624 308.084C537.966 306.891 539.092 306.622 539.924 306.677C539.924 306.693 539.924 306.701 539.924 306.717C540.775 312.201 541.208 317.826 541.208 323.452C541.208 370.687 511.15 409.602 472.899 413.829H459.023ZM336.499 57.5917C337.252 55.1659 339.57 53.1194 341.561 53.1194H379.576C380.158 53.1194 380.643 53.3012 380.997 53.633C381.121 53.7515 381.226 53.878 381.318 54.036C381.35 54.0913 381.363 54.1545 381.39 54.2177C381.691 54.8736 381.704 55.7822 381.396 56.7699L374.094 80.4032H535.884L509.788 164.838L528.811 89.5531C529.099 88.3995 528.968 87.2538 528.451 86.4083C527.947 85.5865 527.122 85.1204 526.192 85.1204H368.142L373.322 64.624C373.774 62.8382 373.577 61.0762 372.791 59.7883C372.025 58.5398 370.801 57.8445 369.353 57.8445H336.44L336.512 57.6075L336.499 57.5917ZM321.856 64.6003C322.459 62.214 324.633 60.1912 326.604 60.1912H364.625C365.437 60.1912 366.092 60.5389 366.485 61.171C366.59 61.3448 366.675 61.5345 366.74 61.7399C366.806 61.9454 366.845 62.1666 366.865 62.3957C366.904 62.8619 366.858 63.3676 366.721 63.9049L360.768 87.4671H522.564L505.806 153.808L515.079 96.9409C515.125 96.6644 515.144 96.3799 515.144 96.1034C515.144 95.8268 515.112 95.5582 515.066 95.2974C514.967 94.7759 514.771 94.294 514.496 93.8831C513.946 93.0771 513.108 92.6188 512.184 92.6188H354.226L357.592 71.9723C357.88 70.1945 357.559 68.5115 356.695 67.2393C355.844 65.9909 354.58 65.3035 353.132 65.3035H321.699L321.876 64.6082L321.856 64.6003ZM331.692 104.748V83.8719C331.692 81.6516 330.769 79.6209 329.224 78.4436C328.372 77.7878 327.377 77.4322 326.355 77.4322H305.308L306.199 71.9644C306.579 69.6335 308.524 67.666 310.449 67.666H348.411C349.256 67.666 349.983 68.0453 350.454 68.7327C350.945 69.4518 351.116 70.4315 350.945 71.5061L347.121 94.9814H508.681L493.252 189.633V108.841C493.252 106.581 491.733 104.748 489.86 104.748H331.692ZM390.747 323.452C390.747 285.762 410.4 251.581 439.652 238.401C448.054 234.608 456.914 232.688 465.978 232.688C472.637 232.688 479.252 233.739 485.63 235.825C486.795 236.196 487.961 236.615 489.094 237.058H489.101C510.207 245.275 527.122 264.16 535.563 288.923C535.006 290.487 534.45 292.068 533.893 293.664C533.31 295.331 532.721 297.006 532.125 298.697L532.007 299.045C529.59 305.951 527.364 312.374 525.301 318.324C511.929 356.923 505.217 376.297 498.177 375.784C493.226 375.428 485.813 365.022 478.649 317.471L477.758 311.584L476.717 317.431C469.913 355.722 455.061 380.303 445.487 379.244C434.898 378.075 423.818 347.188 424.859 304.734L422.894 304.615C422.803 306.298 422.698 308.005 422.587 309.727C422.547 310.359 422.502 311 422.462 311.632C422.39 312.738 422.318 313.836 422.24 314.95C422.187 315.709 422.128 316.483 422.069 317.242C421.997 318.253 421.925 319.257 421.847 320.276C421.788 321.09 421.716 321.911 421.65 322.725C421.572 323.713 421.493 324.693 421.414 325.68C421.342 326.542 421.27 327.411 421.192 328.272C421.113 329.228 421.028 330.176 420.943 331.14C420.864 332.025 420.779 332.918 420.701 333.811C420.616 334.759 420.53 335.707 420.439 336.664C420.354 337.564 420.268 338.465 420.177 339.366C420.085 340.306 419.993 341.246 419.902 342.187C419.81 343.103 419.718 344.012 419.62 344.928C419.522 345.869 419.43 346.801 419.332 347.741C419.234 348.65 419.136 349.551 419.044 350.459C418.946 351.4 418.841 352.34 418.736 353.28C418.638 354.181 418.533 355.082 418.435 355.975C418.33 356.915 418.225 357.855 418.114 358.788C418.009 359.68 417.904 360.565 417.8 361.45C417.754 361.83 417.708 362.217 417.662 362.596C417.747 360.976 417.315 359.341 416.359 358.053C414.951 356.148 412.652 355.271 410.59 355.769C408.474 356.283 406.949 358.487 406.641 361.008C406.294 363.829 407.198 366.934 409.352 368.348C409.575 368.491 409.791 368.522 409.987 368.483C410.099 368.68 410.275 368.838 410.518 368.917C412.947 369.692 415.455 368.167 416.798 365.709C417.171 365.03 417.413 364.295 417.551 363.544C417.525 363.781 417.492 364.018 417.466 364.255C417.361 365.132 417.25 365.994 417.145 366.863C417.027 367.795 416.909 368.728 416.791 369.652C416.68 370.513 416.569 371.367 416.457 372.22C416.339 373.137 416.215 374.053 416.097 374.962C415.986 375.807 415.868 376.637 415.757 377.475C415.632 378.383 415.508 379.292 415.383 380.185C415.265 380.999 415.154 381.805 415.036 382.611C414.905 383.511 414.774 384.404 414.643 385.289C414.525 386.071 414.414 386.846 414.296 387.62C414.218 388.134 414.139 388.639 414.06 389.153C399.215 372.07 390.741 348.255 390.741 323.46L390.747 323.452ZM410.655 366.602C410.583 366.492 410.485 366.389 410.354 366.302C409.948 366.033 409.869 365.97 409.568 365.591C409.306 365.259 409.175 365.053 408.959 364.54C408.671 363.86 408.514 362.96 408.527 362.13C408.527 361.917 408.54 361.703 408.56 361.498C408.566 361.443 408.586 361.308 408.586 361.3C408.605 361.19 408.625 361.079 408.651 360.961C408.697 360.739 408.756 360.518 408.822 360.305C408.828 360.281 408.835 360.265 408.841 360.249C408.848 360.234 408.861 360.21 408.874 360.17C408.933 360.036 408.985 359.902 409.051 359.767C409.097 359.673 409.149 359.578 409.201 359.483C409.221 359.443 409.234 359.42 409.241 359.404C409.254 359.388 409.26 359.38 409.273 359.357C409.398 359.183 409.529 359.017 409.666 358.867C409.666 358.867 409.784 358.748 409.804 358.724C409.869 358.669 409.941 358.614 410.007 358.558C410.092 358.495 410.177 358.44 410.262 358.385C410.321 358.353 410.374 358.314 410.432 358.282C410.446 358.282 410.446 358.282 410.465 358.266C410.642 358.187 410.832 358.116 411.015 358.069C411.087 358.053 411.159 358.037 411.238 358.021C411.264 358.021 411.408 357.997 411.421 357.997C411.611 357.982 411.808 357.982 412.004 357.997C412.083 357.997 412.168 358.013 412.246 358.021C412.24 358.021 412.489 358.069 412.515 358.076C412.672 358.116 412.836 358.163 412.993 358.219C413.085 358.25 413.183 358.29 413.275 358.329C413.275 358.329 413.399 358.393 413.438 358.408C413.602 358.495 413.766 358.598 413.923 358.709C414.008 358.764 414.093 358.827 414.172 358.89C414.191 358.906 414.362 359.048 414.394 359.072C414.538 359.206 414.676 359.357 414.8 359.515C414.866 359.594 414.931 359.68 414.997 359.767C414.997 359.767 415.075 359.886 415.102 359.925C415.206 360.099 415.305 360.281 415.39 360.471C415.429 360.558 415.468 360.644 415.501 360.739C415.501 360.739 415.586 361.008 415.593 361.047C415.829 361.956 415.763 362.888 415.468 363.694C415.069 364.793 414.414 365.614 413.576 366.183C412.777 366.729 411.886 366.91 411.028 366.634C410.884 366.586 410.753 366.578 410.629 366.602H410.655ZM283.377 391.223H369.406C369.949 391.223 370.388 390.694 370.388 390.038V340.353H385.116V411.783H369.982C369.818 411.641 369.622 411.561 369.406 411.561H283.377C283.161 411.561 282.964 411.641 282.801 411.783H267.667V340.353H282.395V390.038C282.395 390.694 282.833 391.223 283.377 391.223ZM368.423 340.267V388.853H284.359V340.267C284.359 340.03 284.32 339.808 284.268 339.595H368.509C368.456 339.808 368.417 340.037 368.417 340.267H368.423ZM267.562 274.329H282.29V318.261C282.29 318.917 282.729 319.446 283.272 319.446H369.301C369.844 319.446 370.283 318.917 370.283 318.261V274.329H385.011V337.414H369.844C369.687 337.288 369.504 337.217 369.301 337.217H283.272C283.069 337.217 282.886 337.288 282.729 337.414H267.562V274.329ZM265.473 348.057C265.552 348.057 265.63 348.042 265.702 348.018V412.968C265.702 413.308 265.82 413.616 266.017 413.829H249.39V348.057H265.473ZM247.425 413.829H179.307V348.057H247.425V413.829ZM179.307 345.687V284.767C188.128 298.286 198.226 310.091 211.893 309.696C232.219 309.119 239.56 298.531 241.761 266.301H247.425V345.687H179.307ZM140.985 266.301H167.984C169.248 268.347 170.506 270.441 171.828 272.646C173.61 275.617 175.456 278.683 177.349 281.693V345.687H141.286L140.991 266.301H140.985ZM224.394 71.5456L247.425 139.285V139.332C247.425 139.419 247.432 139.498 247.445 139.577C247.445 139.601 247.458 139.625 247.465 139.656C247.478 139.704 247.491 139.759 247.504 139.806C247.517 139.838 247.53 139.862 247.543 139.893C247.563 139.933 247.576 139.972 247.602 140.012C247.622 140.043 247.641 140.067 247.654 140.091C247.674 140.122 247.7 140.154 247.72 140.186C247.72 140.186 247.727 140.201 247.733 140.201L264.831 190.478H187.604L203.294 139.751C203.294 139.751 203.294 139.735 203.294 139.727L224.381 71.5377L224.394 71.5456ZM208.979 266.301C206.687 268.134 204.283 267.636 202.175 266.301H208.979ZM71.4846 266.301H107.757C107.384 269.944 107.266 272.203 107.259 272.369L106.958 345.687H71.4846V266.301ZM71.3405 413.829C71.406 413.671 71.4453 413.489 71.4453 413.3L71.4781 348.057H106.945L106.677 413.829H71.334H71.3405ZM108.648 413.829L109.224 272.448C109.224 272.448 109.375 269.612 109.853 265.274C111.529 250.198 117.429 214.839 135.916 212.121C158.358 208.818 182.136 241.206 194.316 260.802C194.631 261.307 194.958 261.797 195.285 262.271C196.268 263.686 197.302 264.95 198.37 266.024C203.524 271.2 208.586 271.145 212.259 265.874C213.425 264.207 214.453 262.034 215.337 259.371C218.14 250.933 219.522 237.516 219.476 219.271C219.463 212.547 219.247 205.167 218.847 197.139L218.631 192.857H239.646C239.704 195.306 239.763 197.882 239.829 200.577C239.829 200.656 239.829 200.735 239.829 200.814C239.855 201.849 239.881 202.907 239.901 203.982C239.901 203.982 239.901 203.998 239.901 204.006C239.914 204.654 239.934 205.31 239.947 205.965C239.973 207.103 239.999 208.273 240.032 209.45C240.097 212.255 240.169 215.155 240.241 218.197C240.366 223.309 240.451 228.074 240.497 232.522C240.523 234.75 240.536 236.892 240.536 238.962C240.556 249.321 240.34 257.831 239.881 265.021C237.622 300.372 229.043 306.835 211.847 307.325C211.644 307.325 211.441 307.333 211.244 307.333C197.879 307.333 187.905 294.493 179.111 280.579C177.159 277.489 175.26 274.321 173.42 271.255C171.986 268.869 170.637 266.617 169.268 264.405C168.489 263.14 167.677 261.845 166.825 260.541C166.4 259.893 165.974 259.237 165.535 258.589C163.348 255.35 161.004 252.213 158.594 249.779C157.245 248.412 155.948 247.337 154.691 246.547C152.936 245.441 151.273 244.904 149.72 244.927C148.83 244.943 147.972 245.141 147.153 245.528C142.065 247.914 140.002 256.772 139.315 260.809C139.118 261.939 139.033 262.69 139.02 262.816V262.895L139.014 262.967V265.108C139.014 265.108 139.02 265.116 139.02 265.124L139.577 413.813H108.654L108.648 413.829ZM141.535 413.829L141.286 348.057H177.336V413.829H141.528H141.535ZM411.696 413.829C412.921 407.951 414.146 401.218 415.344 393.783V393.759C424.617 403.486 435.566 410.305 447.308 413.829H411.69H411.696ZM613.583 396.367C614.362 393.183 615.324 390.069 616.431 387.043C615.606 390.204 614.65 393.317 613.583 396.367Z" fill="#070600"/>
<path d="M300.646 273.057C300.646 272.069 299.984 271.271 299.166 271.271H289.827C289.009 271.271 288.347 272.069 288.347 273.057V312.967C288.347 313.623 288.786 314.152 289.33 314.152H299.663C299.82 314.152 299.965 314.105 300.096 314.034H352.471C352.602 314.113 352.753 314.152 352.903 314.152H363.237C363.78 314.152 364.219 313.623 364.219 312.967V273.057C364.219 272.069 363.558 271.271 362.739 271.271H353.401C352.582 271.271 351.921 272.069 351.921 273.057V299.195H300.646V273.057ZM352.903 301.565C353.447 301.565 353.886 301.036 353.886 300.38V273.641H362.255V311.782H353.342C353.211 311.703 353.06 311.663 352.91 311.663H299.67C299.513 311.663 299.369 311.711 299.238 311.782H290.325V273.641H298.694V300.38C298.694 301.036 299.133 301.565 299.676 301.565H352.916H352.903Z" fill="#070600"/>
<path d="M364.756 203.16C365.123 203.848 365.752 204.259 366.426 204.259H375.424C376.216 204.259 376.93 203.698 377.238 202.836L401.199 138.503C401.481 137.752 401.422 136.899 401.055 136.211C400.688 135.524 400.066 135.113 399.385 135.113H390.387C389.595 135.113 388.888 135.674 388.573 136.535L364.612 200.869C364.331 201.612 364.383 202.465 364.75 203.152L364.756 203.16Z" fill="#070600"/>
<path d="M348.607 164.483L323.219 183.201C322.465 183.762 322.02 184.726 322.02 185.785V202.694C322.02 203.864 322.564 204.907 323.435 205.412C323.788 205.618 324.162 205.72 324.535 205.72C325.091 205.72 325.635 205.499 326.093 205.057L367.402 165.455C368.004 164.878 368.345 164.016 368.345 163.092V158.896C368.345 157.632 367.71 156.526 366.721 156.068L326.054 137.673C325.275 137.317 324.41 137.452 323.729 138.029C323.048 138.605 322.649 139.546 322.662 140.549L322.812 152.844C322.832 154.195 323.605 155.38 324.685 155.712L348.47 163.297C348.784 163.4 348.856 163.708 348.869 163.843C348.882 163.969 348.889 164.293 348.614 164.491L348.607 164.483Z" fill="#070600"/>
<path d="M424.054 163.29L447.831 155.704C448.919 155.364 449.685 154.187 449.711 152.828L449.862 140.541C449.868 139.538 449.475 138.597 448.794 138.021C448.113 137.444 447.249 137.317 446.476 137.665L405.803 156.06C404.82 156.518 404.185 157.624 404.185 158.888V163.084C404.185 164.009 404.532 164.87 405.135 165.447L446.443 205.049C446.902 205.483 447.445 205.705 448.002 205.705C448.375 205.705 448.748 205.602 449.102 205.396C449.973 204.891 450.516 203.848 450.516 202.678V185.769C450.516 184.71 450.065 183.746 449.311 183.185L423.923 164.467C423.648 164.261 423.654 163.945 423.667 163.819C423.68 163.693 423.752 163.376 424.067 163.274L424.054 163.29Z" fill="#070600"/>
<path d="M200.295 376.621L227.321 402.53C227.681 402.87 228.113 403.052 228.552 403.052C228.847 403.052 229.142 402.973 229.417 402.807C230.104 402.404 230.53 401.582 230.53 400.657V389.595C230.53 388.758 230.176 387.999 229.58 387.557L212.973 375.278L228.526 370.316C229.384 370.047 229.993 369.115 230.006 368.04L230.104 359.996C230.111 359.206 229.796 358.464 229.26 358.013C228.723 357.563 228.035 357.452 227.426 357.737L200.812 369.779C200.04 370.142 199.535 371.011 199.535 372.015V374.756C199.535 375.483 199.811 376.163 200.282 376.629L200.295 376.621ZM201.526 371.991L228.159 359.973L228.048 368.024L212.482 372.987C211.716 373.231 211.146 374.006 211.028 374.954C210.91 375.918 211.271 376.827 211.958 377.332L228.565 389.58C228.565 389.58 228.578 389.587 228.578 389.595L228.552 400.673L201.52 374.749V371.983L201.526 371.991Z" fill="#070600"/>
<path d="M27.3734 241.846H33.8041C34.3935 241.846 34.9304 241.482 35.2382 240.874L42.016 227.497L44.7337 239.886C44.9236 240.763 45.5784 241.388 46.3315 241.411L51.0072 241.498C51.5507 241.498 52.0877 241.182 52.4086 240.629C52.7295 240.076 52.8015 239.381 52.6051 238.749L45.6046 216.221C45.3492 215.423 44.7337 214.91 44.033 214.91H42.4351C41.9243 214.91 41.4463 215.186 41.1188 215.676L26.0571 238.551C25.6511 239.167 25.5791 239.989 25.8607 240.7C26.1422 241.403 26.7251 241.846 27.3734 241.846ZM42.5726 217.28H43.8365L50.6208 239.112L46.5804 239.041L43.7514 226.114C43.5746 225.324 43.031 224.747 42.3631 224.629C41.6951 224.51 41.0403 224.881 40.6866 225.577L33.6469 239.475H27.9562L42.5726 217.28Z" fill="#070600"/>
<path d="M179.883 76.7843C183.636 75.6465 187.99 74.1136 191.605 71.6009C192.98 72.1856 194.421 72.5728 195.855 72.7625C202.031 73.5605 208.095 70.874 213.805 68.4087C219.076 66.1331 224.348 63.8417 229.541 61.3132C240.451 56.0113 251.092 49.627 260.169 40.5324C259.298 45.8659 256.207 50.4882 255.473 55.9086C254.694 61.6846 257.595 66.5914 262.291 67.824C267.687 69.2384 273.214 66.9944 278.367 65.2956C285.879 62.8303 293.39 60.3572 300.901 57.8919C330.448 48.1889 359.995 38.4859 389.536 28.775L439.613 12.3242C440.831 11.9212 440.314 9.63766 439.089 10.0406C410.38 19.4671 381.665 28.9014 352.956 38.3279C338.601 43.045 324.247 47.7543 309.886 52.4715C302.708 54.8261 295.531 57.1887 288.354 59.5433C284.68 60.7522 281.006 61.9533 277.339 63.1622C274.582 64.0708 271.832 65.098 268.996 65.58C266.397 66.0225 263.45 66.1568 260.994 64.8373C258.532 63.5098 257.13 60.5942 257.287 57.3625C257.458 53.8938 259.003 50.6384 260.156 47.5331C261.321 44.4041 262.376 41.1803 262.356 37.7037C262.356 36.637 261.302 36.1945 260.68 36.8661C253.293 44.7834 244.662 50.7174 235.684 55.5926C231.119 58.0657 226.463 60.2781 221.775 62.3799C216.981 64.5291 212.181 66.7731 207.289 68.5589C202.928 70.155 198.219 71.2138 193.733 69.8942C196.936 67.0023 199.149 63.0437 199.11 57.4573C199.077 53.1589 197.512 48.4734 194.094 46.6165C190.282 44.5463 186.248 46.8615 184.022 50.8122C181.468 55.3318 181.658 61.0525 184.349 65.4062C185.685 67.5633 187.447 69.2542 189.425 70.471C186.275 72.3911 182.719 73.4657 179.353 74.485C178.128 74.8563 178.646 77.1399 179.877 76.7685L179.883 76.7843ZM184.179 59.0613C183.727 54.7392 186.078 49.627 189.667 48.4338C193.203 47.2644 196.006 50.5672 196.838 54.439C197.892 59.3695 196.379 64.1657 193.249 67.4369C192.699 68.0137 192.116 68.5352 191.514 69.0172C188.01 67.263 184.677 63.7785 184.179 59.0534V59.0613Z" fill="#070600"/>
<path d="M114.777 283.336C114.286 298.326 113.788 313.323 113.297 328.312C112.806 343.301 112.308 358.298 111.817 373.287C111.542 381.702 111.261 390.117 110.986 398.54C110.933 400.065 112.898 400.065 112.95 398.54C113.441 383.551 113.939 368.554 114.43 353.565C114.921 338.576 115.419 323.579 115.91 308.59C116.185 300.174 116.467 291.759 116.742 283.336C116.794 281.811 114.83 281.811 114.777 283.336Z" fill="#070600"/>
<path d="M211.978 295.039C216.739 298.349 222.822 297.18 227.059 293.213C231.571 288.986 233.929 282.262 234.708 275.585C235.225 271.113 235.147 266.593 234.891 262.097C234.806 260.58 232.842 260.572 232.927 262.097C233.313 268.972 233.365 276.138 231.159 282.617C229.299 288.062 225.776 292.818 220.897 294.217C218.219 294.983 215.37 294.659 212.967 292.992C211.867 292.226 210.878 294.28 211.978 295.039Z" fill="#070600"/>
<path d="M242.625 149.422C244.577 155.04 246.581 160.627 248.624 166.197C249.134 167.588 250.831 166.387 250.32 165.004C243.123 145.416 236.515 125.521 230.517 105.356C228.84 99.7223 227.216 94.0648 225.632 88.3916C225.232 86.9535 223.333 87.5698 223.739 89.0237C229.423 109.425 235.723 129.582 242.625 149.43V149.422Z" fill="#070600"/>
<path d="M96.271 128.934C104.129 128.934 110.514 121.222 110.514 111.74C110.514 102.259 104.123 94.5547 96.271 94.5547C88.4192 94.5547 82.0213 102.267 82.0213 111.74C82.0213 121.214 88.4127 128.934 96.271 128.934ZM96.271 96.9251C103.042 96.9251 108.55 103.57 108.55 111.74C108.55 119.91 103.042 126.564 96.271 126.564C89.4997 126.564 83.9858 119.918 83.9858 111.74C83.9858 103.562 89.4932 96.9251 96.271 96.9251Z" fill="#070600"/>
<path d="M158.875 300.696C151.017 300.696 144.626 308.408 144.626 317.882C144.626 327.356 151.017 335.075 158.875 335.075C166.734 335.075 173.119 327.363 173.119 317.882C173.119 308.4 166.727 300.696 158.875 300.696ZM158.875 332.705C152.104 332.705 146.59 326.06 146.59 317.882C146.59 309.704 152.098 303.066 158.875 303.066C165.653 303.066 171.154 309.712 171.154 317.882C171.154 326.052 165.647 332.705 158.875 332.705Z" fill="#070600"/>
<path d="M451.44 358.551L448.977 359.293C450.529 349.811 451.669 340.243 452.396 330.619C452.468 329.639 451.243 328.991 450.719 329.781C446.515 336.118 442.318 342.447 438.113 348.784C437.334 349.962 438.709 351.653 439.502 350.459L450.117 334.451C449.37 343 448.283 351.495 446.875 359.925C446.378 360.075 445.873 360.226 445.376 360.376C444.878 360.526 444.531 361.237 444.688 361.838C444.858 362.462 445.363 362.825 445.9 362.667C446.279 362.557 446.659 362.438 447.033 362.327C447.524 362.794 448.329 362.738 448.539 361.869C449.678 361.521 450.818 361.182 451.957 360.834C452.455 360.684 452.802 359.973 452.645 359.372C452.474 358.748 451.97 358.385 451.433 358.543L451.44 358.551Z" fill="#070600"/>
<path d="M514.548 299.234C515.033 298.966 515.144 298.128 514.902 297.614C514.614 297.014 514.038 296.927 513.56 297.188C510.514 298.847 508.93 303.146 509.355 307.033C509.814 311.197 512.623 314.16 516.002 314.729C519.473 315.314 522.957 313.37 524.509 309.49C526.061 305.611 525.688 300.775 523.291 297.512C520.547 293.774 515.845 292.85 512.132 294.825C511.641 295.086 511.536 295.939 511.778 296.445C512.066 297.053 512.643 297.125 513.121 296.872C515.668 295.521 518.897 296.082 521.051 298.199C523.251 300.364 523.972 303.967 523.16 307.199C522.361 310.367 520.062 312.461 517.318 312.477C514.778 312.501 512.191 310.794 511.464 307.72C510.691 304.449 511.949 300.657 514.555 299.242L514.548 299.234Z" fill="#070600"/>
<path d="M502.309 355.437C502.578 356.931 504.47 356.299 504.202 354.805C503.462 350.665 502.722 346.532 501.982 342.392C501.838 341.578 500.796 341.167 500.338 341.871C498.046 345.395 495.754 348.927 493.462 352.458C493.134 352.964 493.056 353.644 493.462 354.134C493.802 354.544 494.523 354.639 494.85 354.134C496.736 351.226 498.629 348.326 500.515 345.418L502.309 355.437Z" fill="#070600"/>
<path d="M507.306 353.185C505.282 355.019 503.265 356.844 501.242 358.677C500.829 359.048 500.58 359.72 500.888 360.297C501.15 360.787 501.792 361.118 502.23 360.723C504.254 358.89 506.271 357.065 508.294 355.232C508.707 354.861 508.956 354.189 508.648 353.612C508.386 353.122 507.744 352.79 507.306 353.185Z" fill="#070600"/>
<path d="M496.815 337.232C500.692 337.454 504.175 334.617 505.276 330.097C506.33 325.744 505.105 320.671 501.851 318.206C498.308 315.527 493.115 316.365 490.43 320.292C490.07 320.813 490.155 321.437 490.423 321.864C488.917 323.681 488.361 326.289 488.662 328.801C489.245 333.716 492.833 337.003 496.821 337.232H496.815ZM499.585 319.509C502.44 320.695 503.868 324.203 503.652 327.695C503.429 331.243 501.412 334.064 498.517 334.743C495.721 335.399 492.598 333.914 491.235 330.832C490.358 328.857 490.227 326.297 491.249 324.369C492.146 322.678 493.933 321.635 495.577 322.101C496.808 322.457 497.332 320.165 496.101 319.818C495.564 319.667 495.027 319.612 494.497 319.644C496.094 318.877 497.922 318.822 499.585 319.509Z" fill="#070600"/>
<path d="M406.379 337.541C407.256 338.647 408.645 336.964 407.767 335.865C405.645 333.195 403.524 330.516 401.409 327.845C400.786 327.055 399.791 327.703 399.732 328.683C399.483 332.918 399.228 337.153 398.979 341.389C398.94 342.029 399.457 342.574 399.961 342.574C400.524 342.574 400.904 342.029 400.944 341.389C401.14 338.07 401.337 334.751 401.533 331.433C403.15 333.471 404.761 335.51 406.379 337.541Z" fill="#070600"/>
<path d="M407.053 345.655C408.822 341.997 410.59 338.339 412.358 334.68C412.993 333.361 411.297 332.168 410.662 333.487C408.894 337.145 407.125 340.804 405.357 344.462C404.716 345.782 406.418 346.975 407.053 345.655Z" fill="#070600"/>
<path d="M460.87 318.166C458.63 322.528 460.739 329.702 465.454 330.003C468.486 330.192 471.282 327.308 472.159 323.942C473.037 320.568 471.675 317.099 469.154 315.44C466.514 313.71 463.004 313.876 460.785 316.467C460.3 317.028 460.47 317.763 460.863 318.174L460.87 318.166ZM464.897 316.681C465.028 316.665 465.159 316.657 465.283 316.657C465.565 316.657 465.84 316.657 466.122 316.696C466.436 316.736 467.065 316.918 467.49 317.107C468.296 317.455 469.134 318.142 469.677 318.98C470.28 319.912 470.581 321.105 470.444 322.378C470.182 324.843 468.355 327.142 466.285 327.585C465.336 327.79 464.393 327.49 463.633 326.818C463.044 326.305 462.481 325.285 462.225 324.385C461.885 323.184 461.813 321.983 462.042 320.845C462.278 319.675 462.788 318.711 463.594 318.111C464 317.803 464.111 317.321 464.033 316.878C464.236 316.815 464.439 316.752 464.661 316.712C464.576 316.728 464.845 316.689 464.897 316.681Z" fill="#070600"/>
<path d="M499.69 302.98C499.729 299.29 499.762 295.6 499.801 291.91C501.176 294.58 502.551 297.243 503.92 299.914C504.241 300.53 504.797 300.577 505.217 300.317C505.04 302.213 505.079 304.133 505.348 306.029C505.439 306.662 506.081 307.017 506.559 306.859C507.116 306.677 507.332 306.037 507.247 305.397C506.566 300.554 507.692 295.544 510.161 291.665C510.482 291.159 510.226 290.337 509.807 290.045C509.303 289.689 508.786 289.958 508.465 290.471C506.965 292.826 505.963 295.56 505.472 298.42C503.553 294.691 501.635 290.961 499.709 287.232C499.198 286.236 497.889 286.639 497.876 287.832C497.823 292.881 497.771 297.923 497.725 302.972C497.712 304.497 499.677 304.497 499.69 302.972V302.98Z" fill="#070600"/>
<path d="M200.57 145.171L196.772 157.458H82.7809C79.9716 157.458 77.6927 154.709 77.6927 151.311C77.6927 149.62 78.2624 148.079 79.1857 146.973C80.1025 145.859 81.373 145.171 82.7809 145.171H200.57Z" fill="#EEF0F2"/>
<path d="M207.721 141.695C207.616 141.695 207.512 141.671 207.407 141.632C206.89 141.426 206.615 140.755 206.791 140.13L219.836 93.2352C220.006 92.6109 220.57 92.2791 221.08 92.4924C221.598 92.6979 221.873 93.3695 221.696 93.9937L208.651 140.889C208.514 141.387 208.134 141.695 207.721 141.695Z" fill="#070600"/>
<path d="M110.023 211.093C123.611 211.062 137.193 209.987 150.67 207.885C151.908 207.696 151.921 205.317 150.67 205.515C137.193 207.617 123.611 208.691 110.023 208.723C108.759 208.723 108.759 211.093 110.023 211.093Z" fill="#EEF0F2"/>
<path d="M108.13 218.047H119.964C121.228 218.047 121.228 215.676 119.964 215.676H108.13C106.867 215.676 106.867 218.047 108.13 218.047Z" fill="#EEF0F2"/>
<path d="M154.521 211.599C168.253 212.855 182.038 213.329 195.809 212.99C199.712 212.895 203.615 212.737 207.518 212.508C208.776 212.437 208.782 210.066 207.518 210.137C193.76 210.92 179.968 210.92 166.21 210.106C162.307 209.877 158.41 209.576 154.521 209.221C153.257 209.102 153.263 211.473 154.521 211.591V211.599Z" fill="#EEF0F2"/>
<path d="M164.143 220.371C175.079 220.639 186.015 220.908 196.951 221.177C200.055 221.256 203.153 221.327 206.257 221.406C207.521 221.437 207.521 219.067 206.257 219.035C195.321 218.767 184.385 218.498 173.448 218.229C170.344 218.15 167.247 218.079 164.143 218C162.879 217.969 162.879 220.339 164.143 220.371Z" fill="#EEF0F2"/>
<path d="M179.117 231.045C188.423 231.345 197.728 231.645 207.027 231.945C208.291 231.985 208.291 229.614 207.027 229.575C197.722 229.275 188.416 228.974 179.117 228.674C177.853 228.635 177.853 231.005 179.117 231.045Z" fill="#EEF0F2"/>
<path d="M184.323 241.972C191.225 242.723 198.18 242.162 204.945 240.36C206.176 240.029 205.658 237.745 204.421 238.077C197.826 239.839 191.049 240.337 184.323 239.61C183.066 239.475 183.072 241.846 184.323 241.98V241.972Z" fill="#EEF0F2"/>
<path d="M80.9473 173.079C92.8788 175.142 104.895 175.908 116.945 175.545C128.994 175.181 141.253 174.699 153.401 174.273C160.231 174.036 167.068 173.791 173.898 173.554C175.162 173.506 175.162 171.136 173.898 171.183C161.862 171.61 149.819 172.029 137.782 172.455C125.746 172.882 113.631 173.688 101.575 173.056C94.8499 172.7 88.1376 171.95 81.4712 170.796C80.9408 170.701 80.4234 170.954 80.2597 171.626C80.1287 172.179 80.4234 172.993 80.9473 173.087V173.079Z" fill="#EEF0F2"/>
<path d="M82.5779 185.58C94.0641 184.75 105.563 184.236 117.069 184.047C128.575 183.857 140.081 183.991 151.58 184.45C158.09 184.71 164.592 185.074 171.095 185.54C172.359 185.627 172.352 183.257 171.095 183.17C159.609 182.348 148.11 181.85 136.604 181.668C125.098 181.487 113.592 181.637 102.093 182.103C95.5834 182.372 89.0806 182.735 82.5779 183.209C81.3206 183.304 81.314 185.674 82.5779 185.58Z" fill="#EEF0F2"/>
<path d="M85.8718 193.489C105.675 194.366 125.504 194.437 145.313 193.679C150.906 193.465 156.492 193.189 162.078 192.841C163.335 192.762 163.342 190.392 162.078 190.471C142.288 191.68 122.459 192.082 102.643 191.664C97.0503 191.545 91.4578 191.363 85.8718 191.111C84.608 191.055 84.608 193.426 85.8718 193.481V193.489Z" fill="#EEF0F2"/>
<path d="M84.9419 210.627H89.6766C90.1873 210.627 90.685 210.082 90.6588 209.442C90.6327 208.802 90.2266 208.257 89.6766 208.257H84.9419C84.4312 208.257 83.9335 208.802 83.9596 209.442C83.9858 210.082 84.3919 210.627 84.9419 210.627Z" fill="#EEF0F2"/>
<path d="M96.7752 210.627C97.2467 210.627 97.7248 210.627 98.1963 210.627C98.4451 210.627 98.7136 210.493 98.8904 210.28C99.0672 210.066 99.1916 209.734 99.1785 209.442C99.1654 209.15 99.0869 208.818 98.8904 208.604C98.694 208.391 98.4647 208.257 98.1963 208.257C97.7248 208.257 97.2467 208.257 96.7752 208.257C96.5264 208.257 96.2579 208.391 96.0811 208.604C95.9043 208.818 95.7798 209.15 95.7929 209.442C95.806 209.734 95.8846 210.066 96.0811 210.28C96.2775 210.493 96.5067 210.627 96.7752 210.627Z" fill="#EEF0F2"/>
<path d="M104.607 209.695C104.751 209.845 104.889 209.995 105.013 210.169C105.066 210.24 105.118 210.327 105.177 210.398C105.013 210.201 105.112 210.295 105.157 210.374C105.184 210.414 105.203 210.453 105.229 210.501C105.334 210.69 105.426 210.888 105.511 211.093C105.531 211.141 105.544 211.188 105.563 211.228C105.616 211.362 105.485 210.991 105.55 211.188C105.583 211.299 105.616 211.402 105.649 211.512C105.701 211.718 105.747 211.923 105.78 212.136C105.793 212.2 105.799 212.263 105.806 212.326C105.832 212.484 105.786 212.081 105.793 212.239C105.799 212.35 105.812 212.468 105.812 212.579C105.819 212.792 105.812 213.006 105.799 213.227C105.799 213.282 105.773 213.361 105.78 213.416C105.773 213.369 105.812 213.164 105.786 213.329C105.766 213.456 105.747 213.574 105.721 213.701C105.596 214.301 105.884 215.013 106.408 215.163C106.932 215.313 107.482 214.981 107.62 214.333C108.085 212.089 107.469 209.537 105.989 208.036C105.596 207.633 104.981 207.538 104.601 208.036C104.267 208.478 104.182 209.284 104.601 209.711L104.607 209.695Z" fill="#EEF0F2"/>
<path d="M82.0999 218.047H84.9419C85.4527 218.047 85.9504 217.501 85.9242 216.861C85.898 216.221 85.492 215.676 84.9419 215.676H82.0999C81.5891 215.676 81.0914 216.221 81.1176 216.861C81.1438 217.501 81.5498 218.047 82.0999 218.047Z" fill="#EEF0F2"/>
<path d="M93.4616 216.909H95.3542C95.603 216.909 95.8715 216.775 96.0483 216.561C96.2251 216.348 96.3496 216.016 96.3365 215.724C96.3234 215.431 96.2448 215.099 96.0483 214.886C95.8519 214.673 95.6227 214.538 95.3542 214.538H93.4616C93.2128 214.538 92.9443 214.673 92.7675 214.886C92.5907 215.099 92.4663 215.431 92.4793 215.724C92.4924 216.016 92.571 216.348 92.7675 216.561C92.9639 216.775 93.1931 216.909 93.4616 216.909Z" fill="#EEF0F2"/>
<path d="M100.082 216.909H101.503C101.752 216.909 102.021 216.775 102.197 216.561C102.374 216.348 102.499 216.016 102.486 215.724C102.472 215.431 102.394 215.099 102.197 214.886C102.001 214.673 101.772 214.538 101.503 214.538H100.082C99.8334 214.538 99.5649 214.673 99.3881 214.886C99.2113 215.099 99.0869 215.431 99.1 215.724C99.1131 216.016 99.1916 216.348 99.3881 216.561C99.5846 216.775 99.8138 216.909 100.082 216.909Z" fill="#EEF0F2"/>
<path d="M85.6099 229.796C86.1534 234.458 85.4396 239.27 83.6453 243.434C83.4423 243.9 83.4751 244.493 83.7959 244.872C85.4789 246.855 86.6642 249.281 87.2863 252.023C87.6203 253.493 89.5194 252.868 89.1789 251.391C88.4716 248.27 87.0964 245.457 85.1777 243.189L85.3283 244.627C87.3911 239.839 88.118 234.498 87.4959 229.164C87.3191 227.663 85.4265 228.303 85.6033 229.796H85.6099Z" fill="#EEF0F2"/>
<path d="M91.0911 234.039H97.7182C98.2486 234.039 98.7005 233.494 98.7005 232.854C98.7005 232.214 98.2486 231.669 97.7182 231.669H91.0911C90.5606 231.669 90.1088 232.214 90.1088 232.854C90.1088 233.494 90.5606 234.039 91.0911 234.039Z" fill="#EEF0F2"/>
<path d="M90.6196 239.744L94.8761 240.313C95.3869 240.384 95.8781 239.72 95.8584 239.128C95.8322 238.425 95.4262 238.014 94.8761 237.943L90.6196 237.374C90.1088 237.303 89.6176 237.966 89.6373 238.559C89.6635 239.262 90.0695 239.673 90.6196 239.744Z" fill="#EEF0F2"/>
<path d="M91.556 245.583C92.977 245.765 94.3981 245.947 95.8191 246.128C96.3299 246.192 96.8211 245.536 96.8014 244.943C96.7752 244.248 96.3692 243.829 95.8191 243.758C94.3981 243.576 92.977 243.395 91.556 243.213C91.0452 243.15 90.5541 243.805 90.5737 244.398C90.5999 245.093 91.0059 245.512 91.556 245.583Z" fill="#EEF0F2"/>
<path d="M92.0406 252.307H95.8257C96.3365 252.307 96.8342 251.762 96.808 251.122C96.7818 250.482 96.3758 249.937 95.8257 249.937H92.0406C91.5298 249.937 91.0321 250.482 91.0583 251.122C91.0845 251.762 91.4905 252.307 92.0406 252.307Z" fill="#EEF0F2"/>
</svg>
