<svg width="705" height="420" viewBox="0 0 705 420" fill="none" xmlns="http://www.w3.org/2000/svg">
<path d="M606.493 49.4326V80.8617L559.144 80.0714L572.791 87.3095L572.834 87.3291H610.777V53.7207L606.493 49.4326Z" fill="black"/>
<path d="M209.429 90.9208H207.864V168.447H209.429V90.9208Z" fill="black"/>
<path d="M209.429 231.763V338.782H207.864V231.755L209.429 231.763Z" fill="black"/>
<path d="M204.303 120.66H194.475C194.045 120.66 193.693 120.308 193.693 119.877C193.693 119.447 194.045 119.095 194.475 119.095H204.303C204.734 119.095 205.086 119.447 205.086 119.877C205.086 120.308 204.734 120.66 204.303 120.66Z" fill="black"/>
<path d="M222.68 120.66H212.852C212.422 120.66 212.07 120.308 212.07 119.877C212.07 119.447 212.422 119.095 212.852 119.095H222.68C223.111 119.095 223.463 119.447 223.463 119.877C223.463 120.308 223.111 120.66 222.68 120.66Z" fill="black"/>
<path d="M204.303 324.11H194.475C194.045 324.11 193.693 323.758 193.693 323.327C193.693 322.897 194.045 322.545 194.475 322.545H204.303C204.734 322.545 205.086 322.897 205.086 323.327C205.086 323.758 204.734 324.11 204.303 324.11Z" fill="black"/>
<path d="M222.68 324.11H212.852C212.422 324.11 212.07 323.758 212.07 323.327C212.07 322.897 212.422 322.545 212.852 322.545H222.68C223.111 322.545 223.463 322.897 223.463 323.327C223.463 323.758 223.111 324.11 222.68 324.11Z" fill="black"/>
<path d="M204.303 298.678H194.475C194.045 298.678 193.693 298.326 193.693 297.896C193.693 297.466 194.045 297.113 194.475 297.113H204.303C204.734 297.113 205.086 297.466 205.086 297.896C205.086 298.326 204.734 298.678 204.303 298.678Z" fill="black"/>
<path d="M222.68 298.678H212.852C212.422 298.678 212.07 298.326 212.07 297.896C212.07 297.466 212.422 297.113 212.852 297.113H222.68C223.111 297.113 223.463 297.466 223.463 297.896C223.463 298.326 223.111 298.678 222.68 298.678Z" fill="black"/>
<path d="M204.303 273.247H194.475C194.045 273.247 193.693 272.895 193.693 272.465C193.693 272.034 194.045 271.682 194.475 271.682H204.303C204.734 271.682 205.086 272.034 205.086 272.465C205.086 272.895 204.734 273.247 204.303 273.247Z" fill="black"/>
<path d="M222.68 273.247H212.852C212.422 273.247 212.07 272.895 212.07 272.465C212.07 272.034 212.422 271.682 212.852 271.682H222.68C223.111 271.682 223.463 272.034 223.463 272.465C223.463 272.895 223.111 273.247 222.68 273.247Z" fill="black"/>
<path d="M204.303 247.816H194.475C194.045 247.816 193.693 247.464 193.693 247.033C193.693 246.603 194.045 246.251 194.475 246.251H204.303C204.734 246.251 205.086 246.603 205.086 247.033C205.086 247.464 204.734 247.816 204.303 247.816Z" fill="black"/>
<path d="M222.68 247.816H212.852C212.422 247.816 212.07 247.464 212.07 247.033C212.07 246.603 212.422 246.251 212.852 246.251H222.68C223.111 246.251 223.463 246.603 223.463 247.033C223.463 247.464 223.111 247.816 222.68 247.816Z" fill="black"/>
<path d="M204.303 146.091H194.475C194.045 146.091 193.693 145.739 193.693 145.308C193.693 144.878 194.045 144.526 194.475 144.526H204.303C204.734 144.526 205.086 144.878 205.086 145.308C205.086 145.739 204.734 146.091 204.303 146.091Z" fill="black"/>
<path d="M222.68 146.091H212.852C212.422 146.091 212.07 145.739 212.07 145.308C212.07 144.878 212.422 144.526 212.852 144.526H222.68C223.111 144.526 223.463 144.878 223.463 145.308C223.463 145.739 223.111 146.091 222.68 146.091Z" fill="black"/>
<path d="M143.323 90.9208H141.758V134.353H143.323V90.9208Z" fill="black"/>
<path d="M143.323 199.25V338.782H141.758V199.238L143.323 199.25Z" fill="black"/>
<path d="M143.323 199.043V199.25L141.758 199.238V199.051L143.323 199.043Z" fill="black"/>
<path d="M138.194 120.66H128.366C127.935 120.66 127.583 120.308 127.583 119.877C127.583 119.447 127.935 119.095 128.366 119.095H138.194C138.624 119.095 138.976 119.447 138.976 119.877C138.976 120.308 138.624 120.66 138.194 120.66Z" fill="black"/>
<path d="M156.575 120.66H146.747C146.316 120.66 145.964 120.308 145.964 119.877C145.964 119.447 146.316 119.095 146.747 119.095H156.575C157.005 119.095 157.357 119.447 157.357 119.877C157.357 120.308 157.005 120.66 156.575 120.66Z" fill="black"/>
<path d="M138.194 324.11H128.366C127.935 324.11 127.583 323.758 127.583 323.327C127.583 322.897 127.935 322.545 128.366 322.545H138.194C138.624 322.545 138.976 322.897 138.976 323.327C138.976 323.758 138.624 324.11 138.194 324.11Z" fill="black"/>
<path d="M156.575 324.11H146.747C146.316 324.11 145.964 323.758 145.964 323.327C145.964 322.897 146.316 322.545 146.747 322.545H156.575C157.005 322.545 157.357 322.897 157.357 323.327C157.357 323.758 157.005 324.11 156.575 324.11Z" fill="black"/>
<path d="M138.194 298.678H128.366C127.935 298.678 127.583 298.326 127.583 297.896C127.583 297.466 127.935 297.113 128.366 297.113H138.194C138.624 297.113 138.976 297.466 138.976 297.896C138.976 298.326 138.624 298.678 138.194 298.678Z" fill="black"/>
<path d="M156.575 298.678H146.747C146.316 298.678 145.964 298.326 145.964 297.896C145.964 297.466 146.316 297.113 146.747 297.113H156.575C157.005 297.113 157.357 297.466 157.357 297.896C157.357 298.326 157.005 298.678 156.575 298.678Z" fill="black"/>
<path d="M138.194 273.247H128.366C127.935 273.247 127.583 272.895 127.583 272.465C127.583 272.034 127.935 271.682 128.366 271.682H138.194C138.624 271.682 138.976 272.034 138.976 272.465C138.976 272.895 138.624 273.247 138.194 273.247Z" fill="black"/>
<path d="M156.575 273.247H146.747C146.316 273.247 145.964 272.895 145.964 272.465C145.964 272.034 146.316 271.682 146.747 271.682H156.575C157.005 271.682 157.357 272.034 157.357 272.465C157.357 272.895 157.005 273.247 156.575 273.247Z" fill="black"/>
<path d="M138.194 247.816H128.366C127.935 247.816 127.583 247.464 127.583 247.033C127.583 246.603 127.935 246.251 128.366 246.251H138.194C138.624 246.251 138.976 246.603 138.976 247.033C138.976 247.464 138.624 247.816 138.194 247.816Z" fill="black"/>
<path d="M156.575 247.816H146.747C146.316 247.816 145.964 247.464 145.964 247.033C145.964 246.603 146.316 246.251 146.747 246.251H156.575C157.005 246.251 157.357 246.603 157.357 247.033C157.357 247.464 157.005 247.816 156.575 247.816Z" fill="black"/>
<path d="M138.194 222.385H128.366C127.935 222.385 127.583 222.033 127.583 221.602C127.583 221.172 127.935 220.82 128.366 220.82H138.194C138.624 220.82 138.976 221.172 138.976 221.602C138.976 222.033 138.624 222.385 138.194 222.385Z" fill="black"/>
<path d="M156.575 222.385H146.747C146.316 222.385 145.964 222.033 145.964 221.602C145.964 221.172 146.316 220.82 146.747 220.82H156.575C157.005 220.82 157.357 221.172 157.357 221.602C157.357 222.033 157.005 222.385 156.575 222.385Z" fill="black"/>
<path d="M275.675 90.9208H274.11V262.785H275.675V90.9208Z" fill="black"/>
<path d="M274.11 326.097L275.675 326.105V338.782H274.11V326.097Z" fill="black"/>
<path d="M270.55 120.66H260.722C260.291 120.66 259.939 120.308 259.939 119.877C259.939 119.447 260.291 119.095 260.722 119.095H270.55C270.98 119.095 271.332 119.447 271.332 119.877C271.332 120.308 270.98 120.66 270.55 120.66Z" fill="black"/>
<path d="M288.927 120.66H279.099C278.668 120.66 278.316 120.308 278.316 119.877C278.316 119.447 278.668 119.095 279.099 119.095H288.927C289.357 119.095 289.709 119.447 289.709 119.877C289.709 120.308 289.357 120.66 288.927 120.66Z" fill="black"/>
<path d="M296.466 261.975C296.466 261.975 296.466 261.971 296.462 261.967L296.259 261.744L295.958 261.553L295.609 261.33C295.688 261.353 295.762 261.381 295.832 261.412C295.696 261.294 295.516 261.22 295.32 261.22H275.675V262.785L294.537 262.785V319.172H254.865V262.785L274.11 262.785V261.22H254.082C253.648 261.22 253.3 261.572 253.3 262.003V319.955C253.3 320.334 253.574 320.655 253.937 320.721L256.508 323.484L259.125 326.003L274.11 326.097L275.675 326.105L296.693 326.234V262.762C296.693 262.476 296.611 262.206 296.466 261.975ZM295.461 261.298V261.236L295.606 261.33C295.559 261.314 295.508 261.306 295.461 261.298Z" fill="black"/>
<path d="M270.55 247.816H260.722C260.291 247.816 259.939 247.464 259.939 247.033C259.939 246.603 260.291 246.251 260.722 246.251H270.55C270.98 246.251 271.332 246.603 271.332 247.033C271.332 247.464 270.98 247.816 270.55 247.816Z" fill="black"/>
<path d="M288.927 247.816H279.099C278.668 247.816 278.316 247.464 278.316 247.033C278.316 246.603 278.668 246.251 279.099 246.251H288.927C289.357 246.251 289.709 246.603 289.709 247.033C289.709 247.464 289.357 247.816 288.927 247.816Z" fill="black"/>
<path d="M270.55 222.385H260.722C260.291 222.385 259.939 222.033 259.939 221.602C259.939 221.172 260.291 220.82 260.722 220.82H270.55C270.98 220.82 271.332 221.172 271.332 221.602C271.332 222.033 270.98 222.385 270.55 222.385Z" fill="black"/>
<path d="M288.927 222.385H279.099C278.668 222.385 278.316 222.033 278.316 221.602C278.316 221.172 278.668 220.82 279.099 220.82H288.927C289.357 220.82 289.709 221.172 289.709 221.602C289.709 222.033 289.357 222.385 288.927 222.385Z" fill="black"/>
<path d="M270.55 196.953H260.722C260.291 196.953 259.939 196.601 259.939 196.171C259.939 195.741 260.291 195.388 260.722 195.388H270.55C270.98 195.388 271.332 195.741 271.332 196.171C271.332 196.601 270.98 196.953 270.55 196.953Z" fill="black"/>
<path d="M288.927 196.953H279.099C278.668 196.953 278.316 196.601 278.316 196.171C278.316 195.741 278.668 195.388 279.099 195.388H288.927C289.357 195.388 289.709 195.741 289.709 196.171C289.709 196.601 289.357 196.953 288.927 196.953Z" fill="black"/>
<path d="M270.55 171.522H260.722C260.291 171.522 259.939 171.17 259.939 170.74C259.939 170.309 260.291 169.957 260.722 169.957H270.55C270.98 169.957 271.332 170.309 271.332 170.74C271.332 171.17 270.98 171.522 270.55 171.522Z" fill="black"/>
<path d="M288.927 171.522H279.099C278.668 171.522 278.316 171.17 278.316 170.74C278.316 170.309 278.668 169.957 279.099 169.957H288.927C289.357 169.957 289.709 170.309 289.709 170.74C289.709 171.17 289.357 171.522 288.927 171.522Z" fill="black"/>
<path d="M270.55 146.091H260.722C260.291 146.091 259.939 145.739 259.939 145.308C259.939 144.878 260.291 144.526 260.722 144.526H270.55C270.98 144.526 271.332 144.878 271.332 145.308C271.332 145.739 270.98 146.091 270.55 146.091Z" fill="black"/>
<path d="M288.927 146.091H279.099C278.668 146.091 278.316 145.739 278.316 145.308C278.316 144.878 278.668 144.526 279.099 144.526H288.927C289.357 144.526 289.709 144.878 289.709 145.308C289.709 145.739 289.357 146.091 288.927 146.091Z" fill="black"/>
<path d="M342.45 90.9208H340.885V195.267H342.45V90.9208Z" fill="black"/>
<path d="M342.45 258.599V338.782H340.885V258.587L342.45 258.599Z" fill="black"/>
<path d="M337.325 120.66H327.496C327.066 120.66 326.714 120.308 326.714 119.877C326.714 119.447 327.066 119.095 327.496 119.095H337.325C337.755 119.095 338.107 119.447 338.107 119.877C338.107 120.308 337.755 120.66 337.325 120.66Z" fill="black"/>
<path d="M355.702 120.66H345.873C345.443 120.66 345.091 120.308 345.091 119.877C345.091 119.447 345.443 119.095 345.873 119.095H355.702C356.132 119.095 356.484 119.447 356.484 119.877C356.484 120.308 356.132 120.66 355.702 120.66Z" fill="black"/>
<path d="M337.325 324.11H327.496C327.066 324.11 326.714 323.758 326.714 323.327C326.714 322.897 327.066 322.545 327.496 322.545H337.325C337.755 322.545 338.107 322.897 338.107 323.327C338.107 323.758 337.755 324.11 337.325 324.11Z" fill="black"/>
<path d="M355.702 324.11H345.873C345.443 324.11 345.091 323.758 345.091 323.327C345.091 322.897 345.443 322.545 345.873 322.545H355.702C356.132 322.545 356.484 322.897 356.484 323.327C356.484 323.758 356.132 324.11 355.702 324.11Z" fill="black"/>
<path d="M337.325 298.678H327.496C327.066 298.678 326.714 298.326 326.714 297.896C326.714 297.466 327.066 297.113 327.496 297.113H337.325C337.755 297.113 338.107 297.466 338.107 297.896C338.107 298.326 337.755 298.678 337.325 298.678Z" fill="black"/>
<path d="M355.702 298.678H345.873C345.443 298.678 345.091 298.326 345.091 297.896C345.091 297.466 345.443 297.113 345.873 297.113H355.702C356.132 297.113 356.484 297.466 356.484 297.896C356.484 298.326 356.132 298.678 355.702 298.678Z" fill="black"/>
<path d="M337.325 273.247H327.496C327.066 273.247 326.714 272.895 326.714 272.465C326.714 272.034 327.066 271.682 327.496 271.682H337.325C337.755 271.682 338.107 272.034 338.107 272.465C338.107 272.895 337.755 273.247 337.325 273.247Z" fill="black"/>
<path d="M355.702 273.247H345.873C345.443 273.247 345.091 272.895 345.091 272.465C345.091 272.034 345.443 271.682 345.873 271.682H355.702C356.132 271.682 356.484 272.034 356.484 272.465C356.484 272.895 356.132 273.247 355.702 273.247Z" fill="black"/>
<path d="M337.325 171.522H327.496C327.066 171.522 326.714 171.17 326.714 170.74C326.714 170.309 327.066 169.957 327.496 169.957H337.325C337.755 169.957 338.107 170.309 338.107 170.74C338.107 171.17 337.755 171.522 337.325 171.522Z" fill="black"/>
<path d="M355.702 171.522H345.873C345.443 171.522 345.091 171.17 345.091 170.74C345.091 170.309 345.443 169.957 345.873 169.957H355.702C356.132 169.957 356.484 170.309 356.484 170.74C356.484 171.17 356.132 171.522 355.702 171.522Z" fill="black"/>
<path d="M337.325 146.091H327.496C327.066 146.091 326.714 145.739 326.714 145.308C326.714 144.878 327.066 144.526 327.496 144.526H337.325C337.755 144.526 338.107 144.878 338.107 145.308C338.107 145.739 337.755 146.091 337.325 146.091Z" fill="black"/>
<path d="M355.702 146.091H345.873C345.443 146.091 345.091 145.739 345.091 145.308C345.091 144.878 345.443 144.526 345.873 144.526H355.702C356.132 144.526 356.484 144.878 356.484 145.308C356.484 145.739 356.132 146.091 355.702 146.091Z" fill="black"/>
<path d="M405.226 90.9208H403.661V118.105H405.226V90.9208Z" fill="black"/>
<path d="M403.661 181.417L405.226 181.425V338.782H403.661V181.417Z" fill="black"/>
<path d="M400.101 324.11H390.272C389.842 324.11 389.49 323.758 389.49 323.327C389.49 322.897 389.842 322.545 390.272 322.545H400.101C400.531 322.545 400.883 322.897 400.883 323.327C400.883 323.758 400.531 324.11 400.101 324.11Z" fill="black"/>
<path d="M418.478 324.11H408.649C408.219 324.11 407.867 323.758 407.867 323.327C407.867 322.897 408.219 322.545 408.649 322.545H418.478C418.908 322.545 419.26 322.897 419.26 323.327C419.26 323.758 418.908 324.11 418.478 324.11Z" fill="black"/>
<path d="M400.101 298.678H390.272C389.842 298.678 389.49 298.326 389.49 297.896C389.49 297.466 389.842 297.113 390.272 297.113H400.101C400.531 297.113 400.883 297.466 400.883 297.896C400.883 298.326 400.531 298.678 400.101 298.678Z" fill="black"/>
<path d="M418.478 298.678H408.649C408.219 298.678 407.867 298.326 407.867 297.896C407.867 297.466 408.219 297.113 408.649 297.113H418.478C418.908 297.113 419.26 297.466 419.26 297.896C419.26 298.326 418.908 298.678 418.478 298.678Z" fill="black"/>
<path d="M400.101 273.247H390.272C389.842 273.247 389.49 272.895 389.49 272.465C389.49 272.034 389.842 271.682 390.272 271.682H400.101C400.531 271.682 400.883 272.034 400.883 272.465C400.883 272.895 400.531 273.247 400.101 273.247Z" fill="black"/>
<path d="M418.478 273.247H408.649C408.219 273.247 407.867 272.895 407.867 272.465C407.867 272.034 408.219 271.682 408.649 271.682H418.478C418.908 271.682 419.26 272.034 419.26 272.465C419.26 272.895 418.908 273.247 418.478 273.247Z" fill="black"/>
<path d="M400.101 247.816H390.272C389.842 247.816 389.49 247.464 389.49 247.033C389.49 246.603 389.842 246.251 390.272 246.251H400.101C400.531 246.251 400.883 246.603 400.883 247.033C400.883 247.464 400.531 247.816 400.101 247.816Z" fill="black"/>
<path d="M418.478 247.816H408.649C408.219 247.816 407.867 247.464 407.867 247.033C407.867 246.603 408.219 246.251 408.649 246.251H418.478C418.908 246.251 419.26 246.603 419.26 247.033C419.26 247.464 418.908 247.816 418.478 247.816Z" fill="black"/>
<path d="M400.101 222.385H390.272C389.842 222.385 389.49 222.033 389.49 221.602C389.49 221.172 389.842 220.82 390.272 220.82H400.101C400.531 220.82 400.883 221.172 400.883 221.602C400.883 222.033 400.531 222.385 400.101 222.385Z" fill="black"/>
<path d="M418.478 222.385H408.649C408.219 222.385 407.867 222.033 407.867 221.602C407.867 221.172 408.219 220.82 408.649 220.82H418.478C418.908 220.82 419.26 221.172 419.26 221.602C419.26 222.033 418.908 222.385 418.478 222.385Z" fill="black"/>
<path d="M400.101 196.953H390.272C389.842 196.953 389.49 196.601 389.49 196.171C389.49 195.741 389.842 195.388 390.272 195.388H400.101C400.531 195.388 400.883 195.741 400.883 196.171C400.883 196.601 400.531 196.953 400.101 196.953Z" fill="black"/>
<path d="M418.478 196.953H408.649C408.219 196.953 407.867 196.601 407.867 196.171C407.867 195.741 408.219 195.388 408.649 195.388H418.478C418.908 195.388 419.26 195.741 419.26 196.171C419.26 196.601 418.908 196.953 418.478 196.953Z" fill="black"/>
<path d="M472.4 90.9208H470.835V141.529H472.4V90.9208Z" fill="black"/>
<path d="M470.835 204.841L472.4 204.853V338.782H470.835V204.841Z" fill="black"/>
<path d="M467.274 120.66H457.446C457.016 120.66 456.664 120.308 456.664 119.877C456.664 119.447 457.016 119.095 457.446 119.095H467.274C467.705 119.095 468.057 119.447 468.057 119.877C468.057 120.308 467.705 120.66 467.274 120.66Z" fill="black"/>
<path d="M485.651 120.66H475.823C475.393 120.66 475.041 120.308 475.041 119.877C475.041 119.447 475.393 119.095 475.823 119.095H485.651C486.082 119.095 486.434 119.447 486.434 119.877C486.434 120.308 486.082 120.66 485.651 120.66Z" fill="black"/>
<path d="M467.274 324.11H457.446C457.016 324.11 456.664 323.758 456.664 323.327C456.664 322.897 457.016 322.545 457.446 322.545H467.274C467.705 322.545 468.057 322.897 468.057 323.327C468.057 323.758 467.705 324.11 467.274 324.11Z" fill="black"/>
<path d="M485.651 324.11H475.823C475.393 324.11 475.041 323.758 475.041 323.327C475.041 322.897 475.393 322.545 475.823 322.545H485.651C486.082 322.545 486.434 322.897 486.434 323.327C486.434 323.758 486.082 324.11 485.651 324.11Z" fill="black"/>
<path d="M467.274 298.678H457.446C457.016 298.678 456.664 298.326 456.664 297.896C456.664 297.466 457.016 297.113 457.446 297.113H467.274C467.705 297.113 468.057 297.466 468.057 297.896C468.057 298.326 467.705 298.678 467.274 298.678Z" fill="black"/>
<path d="M485.651 298.678H475.823C475.393 298.678 475.041 298.326 475.041 297.896C475.041 297.466 475.393 297.113 475.823 297.113H485.651C486.082 297.113 486.434 297.466 486.434 297.896C486.434 298.326 486.082 298.678 485.651 298.678Z" fill="black"/>
<path d="M467.274 273.247H457.446C457.016 273.247 456.664 272.895 456.664 272.465C456.664 272.034 457.016 271.682 457.446 271.682H467.274C467.705 271.682 468.057 272.034 468.057 272.465C468.057 272.895 467.705 273.247 467.274 273.247Z" fill="black"/>
<path d="M485.651 273.247H475.823C475.393 273.247 475.041 272.895 475.041 272.465C475.041 272.034 475.393 271.682 475.823 271.682H485.651C486.082 271.682 486.434 272.034 486.434 272.465C486.434 272.895 486.082 273.247 485.651 273.247Z" fill="black"/>
<path d="M467.274 247.816H457.446C457.016 247.816 456.664 247.464 456.664 247.033C456.664 246.603 457.016 246.251 457.446 246.251H467.274C467.705 246.251 468.057 246.603 468.057 247.033C468.057 247.464 467.705 247.816 467.274 247.816Z" fill="black"/>
<path d="M485.651 247.816H475.823C475.393 247.816 475.041 247.464 475.041 247.033C475.041 246.603 475.393 246.251 475.823 246.251H485.651C486.082 246.251 486.434 246.603 486.434 247.033C486.434 247.464 486.082 247.816 485.651 247.816Z" fill="black"/>
<path d="M467.274 222.385H457.446C457.016 222.385 456.664 222.033 456.664 221.602C456.664 221.172 457.016 220.82 457.446 220.82H467.274C467.705 220.82 468.057 221.172 468.057 221.602C468.057 222.033 467.705 222.385 467.274 222.385Z" fill="black"/>
<path d="M485.651 222.385H475.823C475.393 222.385 475.041 222.033 475.041 221.602C475.041 221.172 475.393 220.82 475.823 220.82H485.651C486.082 220.82 486.434 221.172 486.434 221.602C486.434 222.033 486.082 222.385 485.651 222.385Z" fill="black"/>
<path d="M162.929 64.351C162.929 72.5594 156.274 79.2146 148.061 79.2146C147.439 79.2146 146.825 79.1754 146.222 79.1011C145.706 79.0385 145.197 78.9485 144.697 78.8311C141.3 78.0447 138.347 76.0924 136.289 73.4202C138.202 74.2027 140.264 74.6096 142.349 74.6096C151.191 74.6096 158.386 67.4145 158.386 58.5722C158.386 56.5455 158.003 54.5423 157.26 52.6722C159.975 54.8084 161.923 57.8758 162.631 61.3931C162.741 61.9291 162.823 62.473 162.87 63.0286C162.909 63.4628 162.929 63.905 162.929 64.351Z" fill="black"/>
<path d="M157.26 52.6722C156.997 51.9914 156.681 51.3302 156.321 50.6925C153.48 45.6571 148.128 42.531 142.349 42.531C133.503 42.531 126.308 49.7261 126.308 58.5722C126.308 64.3549 129.442 69.7111 134.485 72.5516C135.068 72.8802 135.67 73.1698 136.289 73.4202C138.202 74.2027 140.264 74.6096 142.349 74.6096C151.191 74.6096 158.386 67.4145 158.386 58.5722C158.386 56.5455 158.003 54.5423 157.26 52.6722ZM142.349 72.2621C139.994 72.2621 137.674 71.6556 135.635 70.5053C131.331 68.0835 128.655 63.5098 128.655 58.5722C128.655 51.0211 134.798 44.8785 142.349 44.8785C147.279 44.8785 151.852 47.5468 154.278 51.8466C155.429 53.889 156.039 56.213 156.039 58.5722C156.039 66.1194 149.9 72.2621 142.349 72.2621Z" fill="black"/>
<path d="M148.112 58.7404C148.112 57.954 147.748 57.2302 147.122 56.7607C147.232 55.99 146.981 55.2192 146.422 54.6636C145.866 54.108 145.103 53.8577 144.325 53.9672C143.855 53.3412 143.135 52.9773 142.349 52.9773C141.563 52.9773 140.839 53.3412 140.369 53.9672C139.595 53.8537 138.828 54.108 138.272 54.6636C137.713 55.2231 137.462 55.99 137.572 56.7646C136.95 57.2341 136.582 57.954 136.582 58.7404C136.582 59.5269 136.95 60.2507 137.572 60.7163C137.462 61.4909 137.713 62.2578 138.272 62.8173C138.828 63.3728 139.595 63.6232 140.369 63.5137C140.839 64.1397 141.559 64.5036 142.349 64.5036C143.139 64.5036 143.855 64.1397 144.325 63.5137C145.096 63.6272 145.866 63.3728 146.426 62.8173C146.981 62.2578 147.232 61.4909 147.122 60.7163C147.748 60.2468 148.112 59.5269 148.112 58.7404ZM143.167 59.0808C143.069 59.1474 142.987 59.2217 142.909 59.2999C142.83 59.3782 142.756 59.4643 142.686 59.5582C142.568 59.5386 142.459 59.5308 142.349 59.5308C142.239 59.5308 142.126 59.5386 142.009 59.5582C141.938 59.4604 141.864 59.3782 141.79 59.2999C141.711 59.2217 141.625 59.1474 141.531 59.0808C141.547 58.9635 141.559 58.85 141.559 58.7404C141.559 58.6309 141.547 58.5174 141.531 58.4001C141.625 58.3335 141.711 58.2592 141.786 58.181C141.868 58.1027 141.938 58.0205 142.009 57.9227C142.243 57.9579 142.451 57.9579 142.686 57.9227C142.756 58.0205 142.83 58.1027 142.905 58.181C142.983 58.2592 143.069 58.3335 143.167 58.404C143.147 58.5174 143.139 58.6309 143.139 58.7404C143.139 58.85 143.147 58.9635 143.167 59.0808Z" fill="black"/>
<path d="M228.69 64.351C228.69 72.5594 222.035 79.2146 213.823 79.2146C209.026 79.2146 204.765 76.9453 202.05 73.4202C203.963 74.2027 206.025 74.6096 208.11 74.6096C216.953 74.6096 224.148 67.4145 224.148 58.5722C224.148 56.5455 223.76 54.5384 223.021 52.6682C226.476 55.3913 228.69 59.6129 228.69 64.351Z" fill="black"/>
<path d="M223.021 52.6682C222.755 51.9875 222.438 51.3302 222.082 50.6925C219.237 45.6571 213.885 42.531 208.11 42.531C199.264 42.531 192.069 49.7261 192.069 58.5722C192.069 64.3549 195.203 69.7111 200.242 72.5516C200.829 72.8802 201.432 73.1698 202.05 73.4202C203.963 74.2027 206.025 74.6096 208.11 74.6096C216.953 74.6096 224.148 67.4145 224.148 58.5722C224.148 56.5455 223.76 54.5384 223.021 52.6682ZM208.11 72.2621C205.755 72.2621 203.431 71.6556 201.396 70.5053C197.089 68.0835 194.417 63.5098 194.417 58.5722C194.417 51.0211 200.559 44.8785 208.11 44.8785C213.04 44.8785 217.61 47.5468 220.04 51.8466C221.19 53.889 221.8 56.213 221.8 58.5722C221.8 66.1194 215.658 72.2621 208.11 72.2621Z" fill="black"/>
<path d="M213.873 58.7404C213.873 57.954 213.506 57.2302 212.88 56.7607C212.989 55.99 212.739 55.2192 212.183 54.6636C211.628 54.108 210.861 53.8577 210.086 53.9672C209.617 53.3412 208.893 52.9773 208.106 52.9773C207.32 52.9773 206.6 53.3412 206.131 53.9672C205.356 53.8537 204.589 54.108 204.03 54.6636C203.474 55.2231 203.224 55.99 203.333 56.7646C202.707 57.2341 202.343 57.954 202.343 58.7404C202.343 59.5269 202.707 60.2507 203.333 60.7163C203.224 61.4909 203.474 62.2578 204.03 62.8173C204.589 63.3728 205.356 63.6232 206.131 63.5137C206.596 64.1397 207.32 64.5036 208.106 64.5036C208.893 64.5036 209.617 64.1397 210.086 63.5137C210.857 63.6272 211.628 63.3728 212.183 62.8173C212.743 62.2578 212.993 61.4909 212.884 60.7163C213.506 60.2468 213.873 59.5269 213.873 58.7404ZM208.924 59.0808C208.83 59.1474 208.744 59.2217 208.666 59.2999C208.588 59.3782 208.517 59.4643 208.447 59.5582C208.329 59.5386 208.22 59.5308 208.106 59.5308C207.993 59.5308 207.883 59.5386 207.766 59.5582C207.7 59.4604 207.625 59.3782 207.547 59.2999C207.469 59.2217 207.387 59.1474 207.289 59.0808C207.308 58.9635 207.316 58.85 207.316 58.7404C207.316 58.6309 207.308 58.5174 207.289 58.4001C207.387 58.3335 207.469 58.2592 207.547 58.181C207.625 58.1027 207.7 58.0205 207.77 57.9227C208.001 57.9579 208.212 57.9579 208.447 57.9227C208.517 58.0205 208.588 58.1027 208.666 58.181C208.744 58.2592 208.83 58.3335 208.924 58.404C208.908 58.5174 208.897 58.6309 208.897 58.7404C208.897 58.85 208.908 58.9635 208.924 59.0808Z" fill="black"/>
<path d="M295.426 64.351C295.426 72.5594 288.77 79.2146 280.558 79.2146C275.765 79.2146 271.505 76.9453 268.785 73.4241C270.699 74.2027 272.764 74.6096 274.846 74.6096C283.688 74.6096 290.883 67.4145 290.883 58.5722C290.883 56.5455 290.5 54.5423 289.76 52.6722C293.211 55.3953 295.426 59.6169 295.426 64.351Z" fill="black"/>
<path d="M289.76 52.6722C289.494 51.9914 289.177 51.3302 288.817 50.6925C285.973 45.6571 280.621 42.531 274.846 42.531C266 42.531 258.805 49.7261 258.805 58.5722C258.805 64.3549 261.935 69.7111 266.978 72.5516C267.561 72.8802 268.167 73.1737 268.785 73.4241C270.699 74.2027 272.764 74.6096 274.846 74.6096C283.688 74.6096 290.883 67.4145 290.883 58.5722C290.883 56.5455 290.5 54.5423 289.76 52.6722ZM274.846 72.2621C272.491 72.2621 270.166 71.6556 268.132 70.5053C263.824 68.0835 261.152 63.5098 261.152 58.5722C261.152 51.0211 267.295 44.8785 274.846 44.8785C279.776 44.8785 284.345 47.5468 286.775 51.8466C287.925 53.889 288.536 56.213 288.536 58.5722C288.536 66.1194 282.393 72.2621 274.846 72.2621Z" fill="black"/>
<path d="M280.609 58.7404C280.609 57.954 280.241 57.2302 279.615 56.7607C279.725 55.99 279.474 55.2192 278.919 54.6636C278.363 54.108 277.596 53.8577 276.818 53.9672C276.352 53.3412 275.628 52.9773 274.842 52.9773C274.056 52.9773 273.336 53.3412 272.866 53.9672C272.091 53.8537 271.321 54.108 270.765 54.6636C270.21 55.2231 269.959 55.99 270.069 56.7646C269.443 57.2341 269.079 57.954 269.079 58.7404C269.079 59.5269 269.443 60.2507 270.069 60.7163C269.959 61.4909 270.21 62.2578 270.765 62.8173C271.321 63.3728 272.091 63.6232 272.866 63.5137C273.332 64.1397 274.056 64.5036 274.842 64.5036C275.628 64.5036 276.352 64.1397 276.822 63.5137C277.592 63.6272 278.363 63.3728 278.919 62.8173C279.478 62.2578 279.729 61.4909 279.619 60.7163C280.241 60.2468 280.609 59.5269 280.609 58.7404ZM275.66 59.0808C275.566 59.1474 275.48 59.2217 275.401 59.2999C275.323 59.3782 275.253 59.4643 275.182 59.5582C275.065 59.5386 274.951 59.5308 274.842 59.5308C274.732 59.5308 274.619 59.5386 274.502 59.5582C274.431 59.4604 274.361 59.3782 274.282 59.2999C274.204 59.2217 274.122 59.1474 274.024 59.0808C274.044 58.9635 274.052 58.85 274.052 58.7404C274.052 58.6309 274.044 58.5174 274.024 58.4001C274.122 58.3335 274.204 58.2592 274.282 58.181C274.361 58.1027 274.435 58.0205 274.502 57.9227C274.736 57.9579 274.948 57.9579 275.182 57.9227C275.249 58.0205 275.323 58.1027 275.401 58.181C275.48 58.2592 275.566 58.3335 275.66 58.404C275.64 58.5174 275.632 58.6309 275.632 58.7404C275.632 58.85 275.644 58.9635 275.66 59.0808Z" fill="black"/>
<path d="M361.179 64.351C361.179 72.5594 354.524 79.2146 346.312 79.2146C341.515 79.2146 337.254 76.9453 334.539 73.4202C336.452 74.2027 338.514 74.6096 340.599 74.6096C349.442 74.6096 356.637 67.4145 356.637 58.5722C356.637 56.5455 356.253 54.5423 355.518 52.6761C358.969 55.3992 361.179 59.6169 361.179 64.351Z" fill="black"/>
<path d="M355.518 52.6761C355.248 51.9953 354.935 51.3302 354.575 50.6925C351.73 45.6571 346.374 42.531 340.599 42.531C331.753 42.531 324.558 49.7261 324.558 58.5722C324.558 64.3549 327.692 69.7111 332.735 72.5516C333.318 72.8802 333.921 73.1698 334.539 73.4202C336.452 74.2027 338.514 74.6096 340.599 74.6096C349.442 74.6096 356.637 67.4145 356.637 58.5722C356.637 56.5455 356.253 54.5423 355.518 52.6761ZM340.599 72.2621C338.244 72.2621 335.924 71.6556 333.885 70.5053C329.582 68.0835 326.906 63.5098 326.906 58.5722C326.906 51.0211 333.048 44.8785 340.599 44.8785C345.529 44.8785 350.103 47.5468 352.529 51.8466C353.683 53.889 354.289 56.213 354.289 58.5722C354.289 66.1194 348.15 72.2621 340.599 72.2621Z" fill="black"/>
<path d="M346.362 58.7404C346.362 57.954 345.999 57.2302 345.373 56.7607C345.482 55.99 345.232 55.2192 344.672 54.6636C344.117 54.108 343.354 53.8577 342.575 53.9672C342.106 53.3412 341.386 52.9773 340.599 52.9773C339.813 52.9773 339.089 53.3412 338.62 53.9672C337.845 53.8537 337.078 54.108 336.522 54.6636C335.963 55.2231 335.713 55.99 335.822 56.7646C335.2 57.2341 334.832 57.954 334.832 58.7404C334.832 59.5269 335.2 60.2507 335.822 60.7163C335.713 61.4909 335.963 62.2578 336.522 62.8173C337.078 63.3728 337.845 63.6232 338.62 63.5137C339.089 64.1397 339.809 64.5036 340.599 64.5036C341.39 64.5036 342.106 64.1397 342.575 63.5137C343.35 63.6272 344.117 63.3728 344.676 62.8173C345.232 62.2578 345.482 61.4909 345.373 60.7163C345.999 60.2468 346.362 59.5269 346.362 58.7404ZM341.417 59.0808C341.319 59.1474 341.237 59.2217 341.159 59.2999C341.081 59.3782 341.006 59.4643 340.94 59.5582C340.822 59.5386 340.709 59.5308 340.599 59.5308C340.49 59.5308 340.376 59.5386 340.259 59.5582C340.189 59.4604 340.114 59.3782 340.04 59.2999C339.962 59.2217 339.875 59.1474 339.782 59.0808C339.797 58.9635 339.809 58.85 339.809 58.7404C339.809 58.6309 339.797 58.5174 339.782 58.4001C339.875 58.3335 339.962 58.2592 340.04 58.181C340.118 58.1027 340.189 58.0205 340.259 57.9227C340.494 57.9579 340.701 57.9579 340.936 57.9227C341.006 58.0205 341.081 58.1027 341.155 58.181C341.233 58.2592 341.319 58.3335 341.417 58.404C341.397 58.5174 341.39 58.6309 341.39 58.7404C341.39 58.85 341.397 58.9635 341.417 59.0808Z" fill="black"/>
<path d="M424.843 64.351C424.843 72.5594 418.188 79.2146 409.976 79.2146C405.179 79.2146 400.918 76.9453 398.203 73.4202C400.116 74.2027 402.178 74.6096 404.264 74.6096C413.11 74.6096 420.301 67.4145 420.301 58.5722C420.301 56.5455 419.917 54.5423 419.182 52.6761C422.633 55.3992 424.843 59.6169 424.843 64.351Z" fill="black"/>
<path d="M419.182 52.6761C418.912 51.9953 418.595 51.3302 418.235 50.6925C415.395 45.6571 410.042 42.531 404.264 42.531C395.421 42.531 388.222 49.7261 388.222 58.5722C388.222 64.3549 391.356 69.7111 396.399 72.5516C396.982 72.8802 397.585 73.1698 398.203 73.4202C400.116 74.2027 402.178 74.6096 404.264 74.6096C413.11 74.6096 420.301 67.4145 420.301 58.5722C420.301 56.5455 419.917 54.5423 419.182 52.6761ZM404.264 72.2621C401.908 72.2621 399.588 71.6556 397.55 70.5053C393.246 68.0835 390.57 63.5098 390.57 58.5722C390.57 51.0211 396.712 44.8785 404.264 44.8785C409.197 44.8785 413.767 47.5468 416.193 51.8466C417.347 53.889 417.953 56.213 417.953 58.5722C417.953 66.1194 411.815 72.2621 404.264 72.2621Z" fill="black"/>
<path d="M410.027 58.7404C410.027 57.954 409.663 57.2302 409.037 56.7607C409.146 55.99 408.896 55.2192 408.336 54.6636C407.781 54.108 407.018 53.8577 406.239 53.9672C405.77 53.3412 405.05 52.9773 404.264 52.9773C403.477 52.9773 402.753 53.3412 402.284 53.9672C401.509 53.8537 400.742 54.108 400.187 54.6636C399.627 55.2231 399.377 55.99 399.486 56.7646C398.864 57.2341 398.496 57.954 398.496 58.7404C398.496 59.5269 398.864 60.2507 399.486 60.7163C399.377 61.4909 399.627 62.2578 400.187 62.8173C400.742 63.3728 401.513 63.6232 402.284 63.5137C402.753 64.1397 403.473 64.5036 404.264 64.5036C405.054 64.5036 405.77 64.1397 406.239 63.5137C407.014 63.6272 407.781 63.3728 408.34 62.8173C408.896 62.2578 409.146 61.4909 409.037 60.7163C409.663 60.2468 410.027 59.5269 410.027 58.7404ZM405.081 59.0808C404.983 59.1474 404.901 59.2217 404.823 59.2999C404.745 59.3782 404.67 59.4643 404.604 59.5582C404.487 59.5386 404.373 59.5308 404.264 59.5308C404.154 59.5308 404.04 59.5386 403.923 59.5582C403.853 59.4604 403.778 59.3782 403.704 59.2999C403.626 59.2217 403.54 59.1474 403.446 59.0808C403.461 58.9635 403.473 58.85 403.473 58.7404C403.473 58.6309 403.461 58.5174 403.446 58.4001C403.54 58.3335 403.626 58.2592 403.704 58.181C403.782 58.1027 403.853 58.0205 403.923 57.9227C404.158 57.9579 404.365 57.9579 404.6 57.9227C404.67 58.0205 404.745 58.1027 404.819 58.181C404.897 58.2592 404.983 58.3335 405.081 58.404C405.062 58.5174 405.054 58.6309 405.054 58.7404C405.054 58.85 405.062 58.9635 405.081 59.0808Z" fill="black"/>
<path d="M490.276 64.351C490.276 72.5594 483.621 79.2146 475.408 79.2146C470.612 79.2146 466.351 76.9453 463.636 73.4202C465.549 74.2027 467.611 74.6096 469.696 74.6096C478.542 74.6096 485.733 67.4145 485.733 58.5722C485.733 56.5455 485.35 54.5423 484.615 52.6761C488.065 55.3992 490.276 59.6169 490.276 64.351Z" fill="black"/>
<path d="M484.615 52.6761C484.345 51.9953 484.032 51.3302 483.672 50.6925C480.827 45.6571 475.475 42.531 469.696 42.531C460.854 42.531 453.655 49.7261 453.655 58.5722C453.655 64.3549 456.789 69.7111 461.832 72.5516C462.415 72.8802 463.018 73.1698 463.636 73.4202C465.549 74.2027 467.611 74.6096 469.696 74.6096C478.542 74.6096 485.733 67.4145 485.733 58.5722C485.733 56.5455 485.35 54.5423 484.615 52.6761ZM469.696 72.2621C467.341 72.2621 465.021 71.6556 462.982 70.5053C458.679 68.0835 456.002 63.5098 456.002 58.5722C456.002 51.0211 462.145 44.8785 469.696 44.8785C474.63 44.8785 479.2 47.5468 481.625 51.8466C482.78 53.889 483.386 56.213 483.386 58.5722C483.386 66.1194 477.247 72.2621 469.696 72.2621Z" fill="black"/>
<path d="M475.459 58.7404C475.459 57.954 475.095 57.2302 474.469 56.7607C474.579 55.99 474.329 55.2192 473.769 54.6636C473.214 54.108 472.451 53.8577 471.672 53.9672C471.202 53.3412 470.483 52.9773 469.696 52.9773C468.91 52.9773 468.186 53.3412 467.716 53.9672C466.942 53.8537 466.175 54.108 465.619 54.6636C465.06 55.2231 464.809 55.99 464.919 56.7646C464.297 57.2341 463.929 57.954 463.929 58.7404C463.929 59.5269 464.297 60.2507 464.919 60.7163C464.809 61.4909 465.06 62.2578 465.619 62.8173C466.175 63.3728 466.946 63.6232 467.716 63.5137C468.186 64.1397 468.906 64.5036 469.696 64.5036C470.486 64.5036 471.202 64.1397 471.672 63.5137C472.447 63.6272 473.214 63.3728 473.773 62.8173C474.329 62.2578 474.583 61.4909 474.469 60.7163C475.095 60.2468 475.459 59.5269 475.459 58.7404ZM470.514 59.0808C470.416 59.1474 470.334 59.2217 470.256 59.2999C470.177 59.3782 470.103 59.4643 470.037 59.5582C469.919 59.5386 469.806 59.5308 469.696 59.5308C469.587 59.5308 469.473 59.5386 469.356 59.5582C469.285 59.4604 469.211 59.3782 469.137 59.2999C469.058 59.2217 468.972 59.1474 468.878 59.0808C468.894 58.9635 468.906 58.85 468.906 58.7404C468.906 58.6309 468.894 58.5174 468.878 58.4001C468.972 58.3335 469.058 58.2592 469.137 58.181C469.215 58.1027 469.285 58.0205 469.356 57.9227C469.591 57.9579 469.798 57.9579 470.033 57.9227C470.103 58.0205 470.177 58.1027 470.252 58.181C470.33 58.2592 470.416 58.3335 470.514 58.404C470.494 58.5174 470.486 58.6309 470.486 58.7404C470.486 58.85 470.494 58.9635 470.514 59.0808Z" fill="black"/>
<path d="M72.7652 91.359C77.6167 99.1644 86.9558 102.967 95.9037 102.94C106.976 102.905 117.458 97.8576 126.867 92.4701C135.893 87.3017 144.333 81.1121 151.993 74.0814C159.654 67.0506 166.966 59.0065 172.64 50.1877C175.523 45.704 177.804 40.6921 178.066 35.2967C178.156 33.4618 178.36 30.7621 176.885 29.3615C175.938 28.4655 174.49 28.2464 173.293 28.7237C169.584 30.1948 171.571 35.8954 173.293 38.145C176.032 41.7289 180.656 43.3135 185.042 43.3761C190.876 43.4582 196.4 41.0168 201.725 38.9315C207.34 36.7365 212.958 34.5495 218.6 32.425C230.032 28.1212 241.562 24.06 253.3 20.6601C276.665 13.8915 301.126 9.75203 325.497 11.8296C328.611 12.0956 331.71 12.4673 334.797 12.9407C335.537 13.0542 335.853 11.9235 335.11 11.81C312.926 8.41396 290.304 10.4915 268.527 15.4838C246.48 20.5349 225.251 28.5046 204.221 36.7052C199.174 38.6732 194.084 41.0559 188.696 41.9206C184.017 42.6718 178.634 41.9715 175.14 38.4815C173.422 36.7678 171.982 33.8726 172.471 31.3647C172.777 29.8075 174.729 29.1033 175.973 30.1166C176.779 30.7739 176.806 31.9203 176.873 32.8788C176.979 34.4399 176.908 36.0166 176.662 37.5621C176.247 40.1795 175.359 42.7031 174.197 45.0819C171.939 49.7143 168.758 53.8889 165.546 57.8914C162.51 61.6748 159.275 65.2939 155.859 68.7369C148.91 75.7402 141.218 82.0081 132.947 87.3878C124.676 92.7674 115.028 98.2058 105.051 100.612C95.935 102.811 85.5787 102.009 78.1332 95.784C76.4195 94.352 74.9601 92.6696 73.7786 90.7721C73.3795 90.1304 72.3661 90.7212 72.7652 91.3629V91.359Z" fill="black"/>
<path d="M401.044 399.026C416.334 389.75 431.408 380.129 446.256 370.16C449.719 367.836 453.224 365.57 456.675 363.227C459.492 361.314 462.419 359.189 464.328 356.325C466.085 353.696 466.77 350.253 465.236 347.354C464.156 345.312 461.938 343.817 459.571 344.146C454.907 344.795 451.781 350.683 450.345 354.623C449.011 358.285 447.904 362.3 447.371 366.161C447.109 368.051 446.976 369.952 446.878 371.854C446.773 373.912 446.55 376.021 446.812 378.075C447.688 384.922 454.011 389.812 460.717 386.89C464.387 385.289 467.619 382.32 470.62 379.73C473.62 377.14 476.739 374.139 479.571 371.114C492.666 357.143 502.596 340.554 511.646 323.781L510.55 323.484C510.386 331.782 509.748 340.061 509.291 348.348C509.072 352.315 508.774 356.321 508.841 360.296C508.888 363.18 509.435 366.126 510.684 368.743C511.865 371.224 513.892 373.505 516.642 374.194C519.886 375.007 523.203 373.536 525.946 371.924C532.05 368.337 537.449 363.493 542.692 358.782C549.449 352.706 556.139 346.579 563.498 341.227L562.614 340.718C562.25 347.291 561.519 361.224 571.527 360.985C573.921 360.926 576.218 360.026 578.382 359.068C580.925 357.945 583.432 356.716 585.839 355.32C590.229 352.765 594.208 349.541 598.265 346.501C618.719 331.168 639.24 315.925 659.738 300.65C671.252 292.07 682.763 283.478 694.25 274.859C694.849 274.413 694.262 273.392 693.659 273.846C674.206 288.443 654.695 302.955 635.191 317.482C625.402 324.771 615.621 332.064 605.847 339.372C597.451 345.652 589.34 352.628 579.806 357.131C577.126 358.395 574.144 359.917 571.096 359.815C568.502 359.725 566.464 358.137 565.306 355.895C562.994 351.419 563.53 345.574 563.796 340.726C563.819 340.307 563.268 339.959 562.911 340.217C556.906 344.584 551.299 349.431 545.794 354.408C540.716 358.997 535.68 363.665 530.144 367.703C527.378 369.722 524.412 371.909 521.079 372.863C517.393 373.92 514.162 372.433 512.249 369.189C508.872 363.469 510.061 356.008 510.394 349.709C510.856 340.969 511.556 332.24 511.728 323.488C511.74 322.912 510.91 322.678 510.633 323.19C503.305 336.774 495.429 350.167 485.733 362.221C481.023 368.078 475.878 373.595 470.213 378.536C465.236 382.875 456.981 390.736 450.685 383.994C447.943 381.056 447.814 377.304 447.978 373.525C448.154 369.479 448.455 365.488 449.527 361.568C450.94 356.392 452.36 350.82 456.484 347.056C458.373 345.331 460.909 344.537 463.025 346.407C465.936 348.981 465.079 353.313 463.053 356.122C461.026 358.931 457.794 361.11 454.852 363.047C451.91 364.984 448.717 367.108 445.662 369.162C430.818 379.131 415.739 388.756 400.449 398.029C399.803 398.42 400.394 399.437 401.04 399.042L401.044 399.026Z" fill="black"/>
<path d="M295.606 261.33C295.559 261.314 295.508 261.306 295.461 261.298V261.236L295.606 261.33Z" fill="black"/>
<path d="M304.808 271.944V334.939C304.808 335.315 304.51 335.62 304.139 335.62H269.517C268.954 335.62 268.41 335.393 268.011 334.986L259.125 326.003L274.11 326.097L275.675 326.105L296.693 326.234V262.762C296.693 262.476 296.611 262.206 296.466 261.975L304.35 270.735C304.647 271.064 304.808 271.498 304.808 271.944Z" fill="black"/>
<path d="M294.537 319.086V319.172H292.155L294.537 319.086Z" fill="black"/>
<path d="M296.462 261.967L296.259 261.744L295.958 261.553L295.609 261.33C295.688 261.353 295.762 261.381 295.832 261.412C296.095 261.533 296.314 261.729 296.462 261.967Z" fill="black"/>
<path d="M274.11 261.22V262.785H275.675V261.22H274.11Z" fill="black"/>
<path d="M294.537 319.086V319.172H292.155L294.537 319.086Z" fill="white"/>
<path d="M295.832 261.412C295.762 261.381 295.688 261.353 295.609 261.33L295.958 261.553C295.922 261.502 295.879 261.455 295.832 261.412ZM295.461 261.236V261.298C295.508 261.306 295.559 261.314 295.606 261.33L295.461 261.236Z" fill="black"/>
<path d="M360.827 193.812C360.78 193.796 360.729 193.788 360.682 193.78V193.718L360.827 193.812Z" fill="black"/>
<path d="M370.029 204.426V267.421C370.029 267.797 369.732 268.102 369.36 268.102H334.738C334.175 268.102 333.631 267.875 333.232 267.468L324.347 258.485L340.885 258.587L342.45 258.599L361.915 258.72V195.244C361.915 194.958 361.832 194.688 361.688 194.457L369.571 203.217C369.869 203.546 370.029 203.98 370.029 204.426Z" fill="black"/>
<path d="M359.759 251.568V251.654H357.376L359.759 251.568Z" fill="black"/>
<path d="M361.684 194.449L361.48 194.226L361.179 194.035L360.831 193.812C360.909 193.835 360.983 193.863 361.054 193.894C361.316 194.015 361.535 194.211 361.684 194.449Z" fill="black"/>
<path d="M359.759 251.568V251.654H357.376L359.759 251.568Z" fill="white"/>
<path d="M361.054 193.894C360.983 193.863 360.909 193.835 360.831 193.812L361.179 194.035C361.144 193.984 361.101 193.937 361.054 193.894ZM360.682 193.718V193.78C360.729 193.788 360.78 193.796 360.827 193.812L360.682 193.718Z" fill="black"/>
<path d="M340.885 193.702V195.267H342.45V193.702H340.885Z" fill="black"/>
<path d="M361.688 194.457C361.688 194.457 361.688 194.453 361.688 194.449L361.484 194.226L361.183 194.035L360.835 193.812C360.913 193.835 360.987 193.863 361.058 193.894C360.921 193.773 360.741 193.702 360.545 193.702H342.454V195.267H359.763V251.654H320.09V195.267H340.889V193.702H319.307C318.873 193.702 318.525 194.054 318.525 194.485V252.437C318.525 252.816 318.799 253.137 319.163 253.203L321.733 255.966L324.351 258.485L340.889 258.587L342.454 258.599L361.919 258.72V195.244C361.919 194.958 361.836 194.688 361.692 194.457H361.688ZM360.682 193.78V193.718L360.827 193.812C360.78 193.796 360.729 193.788 360.682 193.78Z" fill="black"/>
<path d="M424.679 116.649C424.632 116.634 424.581 116.626 424.526 116.614V116.552L424.675 116.649H424.679Z" fill="black"/>
<path d="M433.873 127.264V190.255C433.873 190.635 433.572 190.94 433.204 190.94H398.583C398.015 190.94 397.475 190.713 397.072 190.302L388.191 181.319L403.661 181.417L405.226 181.425L425.759 181.554V118.081C425.759 117.788 425.677 117.518 425.528 117.287L433.416 126.051C433.713 126.384 433.873 126.814 433.873 127.264Z" fill="black"/>
<path d="M423.599 174.402V174.488H421.228L423.599 174.402Z" fill="black"/>
<path d="M425.524 117.283L425.324 117.06L425.015 116.865L424.679 116.649C424.753 116.673 424.824 116.696 424.894 116.732C425.156 116.849 425.375 117.041 425.524 117.283Z" fill="black"/>
<path d="M423.599 174.402V174.488H421.228L423.599 174.402Z" fill="white"/>
<path d="M424.894 116.732C424.792 116.642 424.667 116.579 424.53 116.555V116.614C424.585 116.626 424.636 116.634 424.683 116.649L425.019 116.865C424.984 116.814 424.941 116.771 424.898 116.732H424.894Z" fill="black"/>
<path d="M403.661 116.54V118.105H405.226V116.54H403.661Z" fill="black"/>
<path d="M425.759 118.081V181.554L405.226 181.425L403.661 181.417L388.191 181.319L385.573 178.803L382.999 176.037C382.635 175.971 382.361 175.654 382.361 175.27V117.322C382.361 116.892 382.713 116.54 383.144 116.54H403.661V118.105H383.926V174.488L423.599 174.488V118.105H405.226V116.54H424.382C424.432 116.54 424.479 116.544 424.526 116.552V116.614C424.581 116.626 424.632 116.634 424.679 116.649L425.015 116.865L425.324 117.06L425.524 117.283H425.528C425.677 117.518 425.759 117.788 425.759 118.081Z" fill="black"/>
<path d="M491.747 140.081C491.692 140.062 491.637 140.05 491.583 140.042V139.976L491.587 139.98L491.747 140.081Z" fill="black"/>
<path d="M500.934 150.688V213.679C500.934 214.059 500.632 214.364 500.261 214.364H465.643C465.076 214.364 464.532 214.137 464.133 213.73L455.251 204.747L470.835 204.841L472.4 204.853L492.819 204.978V141.505C492.819 141.216 492.737 140.942 492.588 140.711L500.476 149.475C500.769 149.808 500.934 150.238 500.934 150.688Z" fill="black"/>
<path d="M490.659 197.826V197.912H488.288L490.659 197.826Z" fill="black"/>
<path d="M492.584 140.707L492.385 140.484L492.076 140.289L491.747 140.081C491.817 140.097 491.884 140.124 491.95 140.156C492.213 140.273 492.432 140.469 492.584 140.707Z" fill="black"/>
<path d="M490.659 197.826V197.912H488.288L490.659 197.826Z" fill="white"/>
<path d="M491.95 140.156C491.849 140.066 491.724 140.003 491.587 139.98C491.587 139.98 491.587 139.976 491.583 139.976V140.042C491.637 140.05 491.692 140.062 491.747 140.081L492.076 140.289C492.04 140.238 491.997 140.195 491.95 140.156Z" fill="black"/>
<path d="M470.835 139.964V141.529H472.4V139.964H470.835Z" fill="black"/>
<path d="M492.819 141.505V204.978L472.4 204.853L470.835 204.841L455.251 204.747L452.63 202.227L450.055 199.461C449.695 199.395 449.422 199.078 449.422 198.694V140.746C449.422 140.316 449.774 139.964 450.204 139.964L470.835 139.964V141.529H450.987V197.912H490.659V141.529H472.4V139.964L491.442 139.964C491.489 139.964 491.536 139.968 491.583 139.976V140.042C491.637 140.05 491.692 140.062 491.747 140.081L492.076 140.289L492.385 140.484L492.584 140.707C492.733 140.942 492.815 141.216 492.815 141.505L492.819 141.505Z" fill="black"/>
<path d="M161.509 134.467C161.454 134.451 161.399 134.44 161.344 134.432V134.369L161.505 134.467H161.509Z" fill="black"/>
<path d="M143.323 199.043V199.25L141.758 199.238V208.754H135.4C134.833 208.754 134.293 208.527 133.89 208.12L125.009 199.137L141.758 199.051L143.323 199.043Z" fill="black"/>
<path d="M170.691 145.078V208.069C170.691 208.448 170.39 208.754 170.022 208.754H143.323V199.25L162.577 199.367V135.895C162.577 135.605 162.494 135.332 162.346 135.101L170.233 143.865C170.531 144.197 170.691 144.628 170.691 145.078Z" fill="black"/>
<path d="M143.323 199.043V199.25L141.758 199.238L125.009 199.137L141.758 199.051L143.323 199.043Z" fill="black"/>
<path d="M160.417 192.215V192.305H157.936L160.417 192.215Z" fill="black"/>
<path d="M162.342 135.097L162.142 134.874L161.833 134.678L161.509 134.467C161.579 134.49 161.649 134.514 161.716 134.545C161.974 134.666 162.193 134.858 162.342 135.097Z" fill="black"/>
<path d="M162.346 135.101L162.146 134.874L161.837 134.678L161.512 134.467C161.458 134.451 161.403 134.44 161.348 134.432V134.365C161.301 134.357 161.254 134.353 161.203 134.353H119.966C119.535 134.353 119.183 134.706 119.183 135.136V193.088C119.183 193.471 119.461 193.788 119.825 193.859L122.395 196.617L125.013 199.137L143.327 199.043V199.25L162.581 199.367V135.895C162.581 135.605 162.498 135.332 162.35 135.101L162.346 135.101ZM160.417 192.305H120.744V135.918H160.417L160.417 192.305Z" fill="black"/>
<path d="M160.417 192.215V192.305H157.936L160.417 192.215Z" fill="white"/>
<path d="M161.716 134.545C161.61 134.459 161.485 134.396 161.348 134.369V134.432C161.403 134.44 161.458 134.451 161.512 134.467L161.837 134.678C161.802 134.631 161.763 134.584 161.72 134.545H161.716Z" fill="black"/>
<path d="M229.465 166.988C229.418 166.972 229.367 166.964 229.32 166.956V166.894L229.324 166.898L229.465 166.988Z" fill="black"/>
<path d="M238.671 177.602V240.597C238.671 240.973 238.37 241.278 237.998 241.278H203.376C202.813 241.278 202.269 241.051 201.87 240.644L192.985 231.661L207.864 231.755L209.429 231.763L230.552 231.896V168.42C230.552 168.13 230.47 167.856 230.322 167.625L238.209 176.393C238.507 176.726 238.671 177.156 238.671 177.602Z" fill="black"/>
<path d="M228.397 224.744V224.83H226.018L228.397 224.744Z" fill="black"/>
<path d="M230.318 167.621L230.122 167.402L229.813 167.207L229.473 166.991C229.551 167.011 229.621 167.038 229.692 167.07C229.954 167.191 230.169 167.383 230.318 167.621Z" fill="black"/>
<path d="M228.397 224.744V224.83H226.018L228.397 224.744Z" fill="white"/>
<path d="M229.692 167.07C229.59 166.984 229.465 166.921 229.324 166.898C229.324 166.898 229.324 166.894 229.32 166.894V166.956C229.367 166.964 229.418 166.972 229.465 166.988C229.465 166.988 229.467 166.989 229.473 166.991L229.813 167.207C229.778 167.16 229.739 167.113 229.692 167.07Z" fill="black"/>
<path d="M207.864 166.882V168.447H209.429V166.882H207.864Z" fill="black"/>
<path d="M230.552 168.42V231.896L209.429 231.763L207.864 231.755L192.985 231.661L190.367 229.142L187.797 226.383C187.433 226.313 187.159 225.996 187.159 225.612V167.664C187.159 167.23 187.507 166.882 187.941 166.882H207.864V168.447L188.724 168.447V224.83L228.397 224.83V168.447L209.429 168.447V166.882H229.179C229.226 166.882 229.273 166.886 229.32 166.894V166.956C229.367 166.964 229.418 166.972 229.465 166.988C229.465 166.988 229.467 166.989 229.473 166.991L229.813 167.207L230.122 167.402L230.318 167.621C230.466 167.856 230.549 168.13 230.549 168.42H230.552Z" fill="black"/>
<path d="M607.076 45.5279L600.984 40.6178C600.984 40.6178 600.972 40.6099 600.964 40.606C600.914 40.5669 600.855 40.5278 600.796 40.5043C600.738 40.4808 600.675 40.4652 600.612 40.4534C600.593 40.4534 600.577 40.4534 600.558 40.4534C600.538 40.4534 600.518 40.4456 600.495 40.4456H551.769C551.334 40.4456 550.986 40.7977 550.986 41.2281V75.2238C550.986 75.4038 551.049 75.5681 551.154 75.7011C551.213 75.8224 551.291 75.9281 551.405 76.0063L558.314 80.7796C558.447 80.8696 558.6 80.9165 558.76 80.9165H606.587C606.661 80.9165 606.732 80.9048 606.802 80.8813C606.822 80.8774 606.841 80.8696 606.857 80.8656C606.88 80.8539 606.904 80.85 606.927 80.8422C606.951 80.8304 606.966 80.8109 606.99 80.7991C607.017 80.7835 607.044 80.7639 607.068 80.7444C607.103 80.717 607.134 80.6857 607.166 80.6505C607.185 80.627 607.209 80.6074 607.224 80.58C607.252 80.5409 607.275 80.4979 607.295 80.4509C607.303 80.4314 607.318 80.4157 607.326 80.3961C607.326 80.3883 607.326 80.3805 607.326 80.3766C607.342 80.3257 607.35 80.2749 607.354 80.2201C607.354 80.1966 607.365 80.1692 607.365 80.1458V46.1422C607.365 45.9035 607.26 45.6805 607.076 45.5319V45.5279ZM601.274 42.8635L605.8 46.5139V78.4947L601.274 74.8443V42.8635ZM552.547 42.0067H599.709V74.4374H552.547V42.0067ZM554.347 76.1354L600.217 76.0024L604.368 79.3476H558.999L554.347 76.1354Z" fill="black"/>
<path d="M566.018 50.4694C565.619 51.4163 565.224 52.367 564.829 53.3138C564.629 53.7872 564.43 54.2606 564.234 54.7341C564.183 54.8592 564.077 55.3014 563.956 55.3679C563.874 55.4109 563.604 55.1879 563.514 55.1175C561.839 53.9007 560.177 52.6604 558.51 51.4319C558.228 51.2245 557.7 51.4319 557.649 51.784C557.043 55.8256 557.078 59.9064 557.763 63.9363C557.888 64.6796 559.019 64.3627 558.893 63.6233C558.299 60.1177 558.224 56.526 558.666 52.9969C559.445 53.5681 560.224 54.1433 560.998 54.7145L562.462 55.7904C562.88 56.0995 563.318 56.5064 563.862 56.5612C565.02 56.6707 565.326 55.1527 565.67 54.335C565.873 53.8537 566.073 53.3686 566.276 52.8874C566.785 57.4024 567.102 61.937 567.215 66.4794C567.235 67.2345 568.409 67.2345 568.389 66.4794C568.256 61.1779 567.849 55.8843 567.18 50.6259C567.094 49.9569 566.288 49.8434 566.026 50.4694H566.018Z" fill="black"/>
<path d="M575.4 49.8708C575.913 52.9969 576.5 56.3969 575.514 59.4916C575.13 60.6967 574.195 61.8039 572.834 61.1427C571.55 60.5167 571.089 58.8969 570.772 57.6215C570.33 55.8335 570.244 53.9515 570.517 52.1283C570.627 51.3889 569.496 51.0719 569.387 51.8153C569.101 53.709 569.136 55.6183 569.539 57.4924C569.891 59.1239 570.463 60.9901 571.922 61.9643C573.315 62.8955 575.021 62.5747 575.979 61.221C576.965 59.8242 577.153 57.8249 577.196 56.1699C577.255 53.9476 576.895 51.741 576.535 49.5539C576.414 48.8105 575.283 49.1274 575.404 49.8669L575.4 49.8708Z" fill="black"/>
<path d="M585.905 51.0524H581.39C581.202 50.9389 580.94 50.9389 580.737 51.0524H578.162C577.407 51.0524 577.407 52.2261 578.162 52.2261H580.4C580.142 56.3303 579.888 60.4307 579.63 64.5349C579.583 65.29 580.756 65.2861 580.803 64.5349C581.062 60.4307 581.316 56.3303 581.574 52.2261H585.901C586.656 52.2261 586.656 51.0524 585.901 51.0524H585.905Z" fill="black"/>
<path d="M593.875 60.9862C592.662 61.311 591.363 61.6866 590.103 61.4088C589.004 61.1662 588.21 60.4619 587.908 59.3704C587.736 58.7404 587.713 58.091 587.756 57.4415C589.215 57.4141 590.679 57.3906 592.138 57.3632C592.893 57.3515 592.893 56.1778 592.138 56.1895C590.722 56.213 589.301 56.2404 587.881 56.2638C587.893 56.1934 587.901 56.1191 587.912 56.0487C588.057 55.0197 588.19 53.9985 588.084 52.9773H593.535C594.29 52.9773 594.29 51.8036 593.535 51.8036H587.713C587.329 51.5571 586.664 51.8701 586.809 52.4452C587.181 53.9359 586.774 55.4539 586.617 56.9446C586.492 58.1418 586.551 59.3938 587.083 60.4932C587.627 61.62 588.73 62.3439 589.939 62.5708C591.375 62.8368 592.799 62.4886 594.184 62.1169C594.912 61.9213 594.603 60.7867 593.871 60.9862H593.875Z" fill="black"/>
<path d="M606.493 115.17V145.508C606.493 146.107 606.004 146.588 605.405 146.58L559.144 145.809L572.794 153.047L572.837 153.071H609.709C610.3 153.071 610.781 152.59 610.781 151.999V119.901C610.781 119.615 610.667 119.345 610.468 119.142L606.497 115.17H606.493Z" fill="black"/>
<path d="M606.493 164.824V195.506C606.493 195.917 606.156 196.245 605.749 196.237L559.144 195.459L572.794 202.697L572.837 202.72H610.045C610.448 202.72 610.777 202.392 610.777 201.989V169.413C610.777 169.218 610.699 169.034 610.562 168.897L606.489 164.824H606.493Z" fill="black"/>
<path d="M611.513 295.897V328.887C611.513 329.125 611.317 329.321 611.078 329.321L569.41 329.302C569.332 329.302 569.254 329.278 569.187 329.239L559.249 323.386H606.583C606.618 323.386 606.653 323.382 606.685 323.378C606.704 323.378 606.72 323.374 606.735 323.37C606.767 323.366 606.794 323.358 606.821 323.347C606.861 323.335 606.9 323.323 606.935 323.304C607.029 323.257 607.115 323.19 607.181 323.108C607.205 323.081 607.224 323.049 607.244 323.022C607.264 322.991 607.283 322.959 607.295 322.924C607.311 322.893 607.322 322.862 607.33 322.83C607.357 322.756 607.365 322.682 607.365 322.603V291.976L611.368 295.572C611.458 295.654 611.513 295.771 611.513 295.897Z" fill="black"/>
<path d="M611.513 244.651V277.641C611.513 277.88 611.317 278.075 611.078 278.075L569.41 278.056C569.332 278.056 569.254 278.032 569.187 277.993L559.249 272.14H606.583C606.618 272.14 606.653 272.136 606.685 272.132C606.704 272.132 606.72 272.128 606.735 272.124C606.767 272.12 606.794 272.113 606.821 272.101C606.861 272.089 606.9 272.077 606.935 272.058C607.029 272.011 607.115 271.944 607.181 271.862C607.205 271.835 607.224 271.803 607.244 271.776C607.264 271.745 607.283 271.713 607.295 271.678C607.311 271.647 607.322 271.616 607.33 271.584C607.357 271.51 607.365 271.436 607.365 271.357V240.73L611.368 244.326C611.458 244.408 611.513 244.526 611.513 244.651Z" fill="black"/>
<path d="M611.403 371.991V402.336C611.403 402.911 610.93 403.377 610.354 403.369L558.713 402.594L573.698 409.735C573.835 409.801 573.988 409.836 574.14 409.836L615.096 409.856C615.668 409.856 616.129 409.394 616.129 408.823V376.698C616.129 376.404 616.004 376.126 615.785 375.931L611.403 371.991Z" fill="black"/>
<path d="M607.076 111.266L600.984 106.352C600.984 106.352 600.972 106.348 600.964 106.34C600.914 106.301 600.855 106.266 600.796 106.242C600.738 106.215 600.675 106.199 600.612 106.191C600.593 106.191 600.577 106.191 600.558 106.191C600.538 106.187 600.518 106.183 600.495 106.183H551.769C551.334 106.183 550.986 106.536 550.986 106.966V140.958C550.986 141.142 551.049 141.306 551.154 141.439C551.213 141.556 551.291 141.666 551.405 141.744L558.314 146.513C558.447 146.603 558.6 146.654 558.76 146.654H606.587C606.661 146.654 606.732 146.639 606.802 146.619C606.822 146.615 606.841 146.607 606.861 146.6C606.88 146.592 606.904 146.588 606.927 146.576C606.947 146.564 606.966 146.549 606.986 146.537C607.017 146.517 607.044 146.502 607.068 146.482C607.103 146.455 607.134 146.423 607.166 146.388C607.185 146.365 607.209 146.345 607.224 146.318C607.252 146.279 607.275 146.232 607.295 146.189C607.303 146.169 607.318 146.154 607.326 146.13C607.326 146.126 607.326 146.118 607.326 146.11C607.342 146.064 607.35 146.009 607.354 145.958C607.354 145.931 607.365 145.907 607.365 145.884V111.88C607.365 111.641 607.26 111.418 607.076 111.27V111.266ZM601.274 108.597L605.8 112.248V144.232L601.274 140.582V108.597ZM552.547 107.744H599.709V140.171H552.547V107.744ZM554.347 141.873L600.217 141.74L604.368 145.085H558.999L554.347 141.873Z" fill="black"/>
<path d="M577.908 124.216C578.988 121.998 580.068 119.775 581.144 117.557C581.472 116.88 580.459 116.285 580.13 116.966L577.028 123.351C575.013 121.364 572.994 119.38 570.979 117.393C570.67 117.088 570.267 117.232 570.079 117.506C569.989 117.358 569.833 117.248 569.614 117.24C567.348 117.135 565.083 117.236 562.837 117.526C562.634 117.135 561.918 117.185 561.749 117.682C561.62 117.702 561.491 117.721 561.362 117.741C560.638 117.862 560.92 118.934 561.616 118.876C561.245 122.929 561.123 126.998 561.253 131.063C561.276 131.818 562.45 131.818 562.426 131.063C562.348 128.661 562.364 126.255 562.462 123.856C564.848 123.657 567.231 123.457 569.618 123.262C570.365 123.199 570.373 122.025 569.618 122.088C567.25 122.283 564.883 122.483 562.516 122.679C562.587 121.352 562.685 120.026 562.81 118.703C565.063 118.402 567.344 118.308 569.618 118.414C569.852 118.426 570.017 118.316 570.103 118.164C570.118 118.183 570.134 118.203 570.154 118.222C572.266 120.304 574.379 122.381 576.492 124.463C575.827 125.828 575.165 127.194 574.5 128.559C574.172 129.236 575.185 129.831 575.514 129.15C576.132 127.878 576.75 126.603 577.372 125.331L580.987 128.888C581.527 129.42 582.357 128.59 581.817 128.058C580.518 126.779 579.215 125.496 577.916 124.216H577.908Z" fill="black"/>
<path d="M592.357 130.504C591.637 130.519 590.917 130.547 590.201 130.578C590.213 125.703 590.225 120.828 590.24 115.953C590.24 115.229 589.168 115.202 589.074 115.863C587.329 117.995 585.584 120.128 583.836 122.26C583.636 122.506 583.597 122.851 583.836 123.089C584.043 123.297 584.465 123.336 584.665 123.089C586.128 121.301 587.595 119.509 589.059 117.721C589.047 122.029 589.035 126.337 589.027 130.644C586.962 130.773 584.904 130.977 582.853 131.263C582.537 131.306 582.372 131.709 582.443 131.986C582.533 132.327 582.853 132.44 583.166 132.397C586.214 131.971 589.282 131.736 592.357 131.673C593.112 131.658 593.112 130.484 592.357 130.5V130.504Z" fill="black"/>
<path d="M607.076 161.651L600.984 156.737C600.984 156.737 600.972 156.729 600.964 156.725C600.914 156.686 600.855 156.651 600.796 156.623C600.738 156.6 600.675 156.584 600.612 156.576C600.593 156.573 600.577 156.572 600.558 156.572C600.538 156.572 600.518 156.565 600.495 156.565H551.769C551.334 156.565 550.986 156.917 550.986 157.347V191.339C550.986 191.523 551.049 191.687 551.154 191.82C551.213 191.938 551.291 192.047 551.405 192.125L558.314 196.895C558.447 196.985 558.6 197.036 558.76 197.036H606.587C606.661 197.036 606.732 197.02 606.802 197C606.822 196.996 606.841 196.989 606.861 196.981C606.88 196.973 606.904 196.969 606.927 196.957C606.947 196.946 606.966 196.93 606.986 196.918C607.017 196.899 607.044 196.883 607.068 196.863C607.103 196.836 607.134 196.805 607.166 196.77C607.185 196.746 607.209 196.723 607.224 196.699C607.252 196.656 607.275 196.613 607.295 196.57C607.303 196.55 607.318 196.535 607.326 196.511C607.326 196.507 607.326 196.5 607.326 196.492C607.342 196.445 607.35 196.39 607.354 196.339C607.354 196.312 607.365 196.288 607.365 196.265V162.261C607.365 162.023 607.26 161.8 607.076 161.651ZM601.274 158.983L605.8 162.633V194.614L601.274 190.967V158.983ZM552.547 158.13H599.709V190.556H552.547V158.13ZM558.999 195.471L554.347 192.258L600.217 192.121L604.368 195.471H558.999Z" fill="black"/>
<path d="M569.614 168.799C570.369 168.834 570.369 167.661 569.614 167.625C567.348 167.52 565.083 167.621 562.837 167.911C562.634 167.52 561.918 167.571 561.749 168.067C561.62 168.087 561.491 168.107 561.362 168.126C560.638 168.247 560.92 169.319 561.616 169.261C561.245 173.314 561.123 177.383 561.253 181.448C561.276 182.203 562.45 182.203 562.426 181.448C562.348 179.046 562.364 176.64 562.462 174.241C564.848 174.042 567.231 173.842 569.618 173.647C570.365 173.584 570.373 172.41 569.618 172.473C567.25 172.669 564.883 172.868 562.516 173.064C562.587 171.737 562.685 170.411 562.81 169.089C565.063 168.787 567.344 168.693 569.618 168.799H569.614Z" fill="black"/>
<path d="M578.147 174.108L581.144 167.938C581.472 167.261 580.459 166.667 580.13 167.348C579.203 169.253 578.28 171.158 577.353 173.064C576.1 171.405 574.833 169.754 573.35 168.283C572.814 167.751 571.981 168.58 572.521 169.112C574.105 170.685 575.443 172.461 576.781 174.234C576.018 175.802 575.255 177.371 574.492 178.94C574.164 179.617 575.177 180.212 575.506 179.531C576.194 178.115 576.883 176.694 577.572 175.278C578.632 176.667 579.727 178.033 580.975 179.269C581.512 179.801 582.345 178.972 581.805 178.439C580.455 177.101 579.285 175.615 578.143 174.108H578.147Z" fill="black"/>
<path d="M592.357 180.885C590.009 180.932 587.67 181.088 585.338 181.343C586.046 180.149 586.754 178.956 587.466 177.763C588.288 176.382 589.2 175.02 589.927 173.584C590.502 172.446 590.808 170.971 589.708 170.032C588.82 169.272 587.486 169.265 586.418 169.585C585.131 169.977 583.98 170.888 583.624 172.226C583.433 172.958 584.563 173.271 584.755 172.539C585.056 171.389 586.246 170.704 587.372 170.579C587.885 170.521 588.511 170.564 588.926 170.904C589.505 171.373 589.278 172.191 589.02 172.77C588.699 173.486 588.245 174.155 587.846 174.828C587.415 175.556 586.981 176.284 586.551 177.008C585.67 178.49 584.79 179.969 583.91 181.452C583.894 181.479 583.886 181.503 583.875 181.53C583.534 181.573 583.194 181.613 582.853 181.659C582.537 181.703 582.372 182.105 582.443 182.383C582.533 182.724 582.853 182.837 583.166 182.794C586.214 182.368 589.282 182.133 592.357 182.07C593.112 182.055 593.112 180.881 592.357 180.897V180.885Z" fill="black"/>
<path d="M607.076 237.182L600.984 232.268C600.984 232.268 600.972 232.26 600.964 232.256C600.914 232.217 600.855 232.182 600.796 232.154C600.738 232.131 600.675 232.115 600.612 232.107C600.593 232.103 600.577 232.103 600.558 232.099C600.538 232.099 600.518 232.096 600.495 232.096H551.769C551.334 232.096 550.986 232.444 550.986 232.878V266.87C550.986 267.054 551.049 267.218 551.154 267.351C551.213 267.468 551.291 267.578 551.405 267.656L558.314 272.426C558.447 272.516 558.6 272.566 558.76 272.566H606.587C606.661 272.566 606.732 272.551 606.802 272.531C606.822 272.527 606.841 272.519 606.861 272.512C606.88 272.504 606.904 272.5 606.927 272.488C606.947 272.476 606.966 272.461 606.986 272.449C607.017 272.429 607.044 272.414 607.068 272.394C607.103 272.363 607.134 272.332 607.166 272.3C607.185 272.277 607.209 272.253 607.224 272.23C607.252 272.187 607.275 272.144 607.295 272.101C607.303 272.081 607.318 272.066 607.326 272.042C607.326 272.038 607.326 272.03 607.326 272.023C607.342 271.976 607.35 271.921 607.354 271.87C607.354 271.843 607.365 271.819 607.365 271.796V237.788C607.365 237.553 607.26 237.33 607.076 237.182ZM601.274 234.513L605.8 238.164V270.145L601.274 266.494V234.513ZM552.547 233.661H599.709V266.087H552.547V233.661ZM554.347 267.785L600.217 267.652L604.368 271.001H558.999L554.347 267.785Z" fill="black"/>
<path d="M607.295 322.924C607.307 322.905 607.314 322.885 607.322 322.865C607.322 322.854 607.33 322.842 607.33 322.83C607.322 322.862 607.311 322.893 607.295 322.924Z" fill="black"/>
<path d="M607.076 288.001L601.011 283.115L600.984 283.091C600.953 283.064 600.921 283.04 600.886 283.021C600.855 283.005 600.828 282.989 600.796 282.978C600.777 282.966 600.757 282.958 600.734 282.954C600.734 282.954 600.731 282.953 600.726 282.95C600.695 282.938 600.659 282.931 600.624 282.927C600.585 282.919 600.542 282.915 600.499 282.915H551.765C551.331 282.915 550.982 283.267 550.982 283.697V317.693C550.982 317.865 551.037 318.026 551.135 318.155C551.19 318.28 551.28 318.394 551.401 318.476L558.31 323.249C558.443 323.339 558.596 323.386 558.756 323.386H606.583C606.618 323.386 606.653 323.382 606.685 323.378C606.704 323.378 606.72 323.374 606.735 323.37C606.767 323.366 606.794 323.358 606.821 323.347C606.861 323.335 606.9 323.323 606.935 323.304C607.029 323.257 607.115 323.19 607.181 323.108C607.205 323.081 607.224 323.049 607.244 323.022C607.264 322.991 607.283 322.959 607.295 322.924C607.311 322.893 607.322 322.862 607.33 322.83C607.357 322.756 607.365 322.682 607.365 322.603V288.612C607.365 288.373 607.26 288.15 607.076 288.001ZM552.547 284.48H599.709V316.911H552.547V284.48ZM558.999 321.821L554.347 318.609L600.217 318.476H600.221L604.368 321.821H558.999ZM605.8 320.968L601.274 317.318V285.337L605.8 288.987V320.968Z" fill="black"/>
<path d="M612.002 368.286L605.358 363.375C605.358 363.375 605.35 363.372 605.346 363.368C605.296 363.332 605.241 363.301 605.178 363.278C605.167 363.27 605.151 363.27 605.139 363.262C605.092 363.246 605.041 363.239 604.99 363.231C604.975 363.227 604.955 363.227 604.936 363.223C604.92 363.223 604.908 363.219 604.893 363.219H551.765C551.331 363.219 550.982 363.571 550.982 364.001V397.997C550.982 398.189 551.053 398.365 551.17 398.502C551.233 398.619 551.315 398.725 551.432 398.799L558.972 403.569C559.093 403.647 559.242 403.69 559.386 403.69H611.536C611.61 403.69 611.685 403.678 611.755 403.655C611.775 403.651 611.794 403.643 611.814 403.635C611.841 403.623 611.865 403.62 611.888 403.608C611.912 403.596 611.927 403.58 611.947 403.565C611.974 403.549 611.998 403.533 612.025 403.514C612.06 403.483 612.092 403.451 612.123 403.416C612.143 403.393 612.162 403.373 612.178 403.346C612.209 403.303 612.232 403.256 612.252 403.205C612.26 403.185 612.272 403.173 612.279 403.154C612.279 403.15 612.279 403.142 612.279 403.138C612.299 403.068 612.311 402.997 612.315 402.919V368.916C612.315 368.669 612.197 368.434 611.998 368.286H612.002ZM605.675 365.555L610.754 369.311V401.354L605.675 397.602V365.555ZM552.547 364.784H604.11V397.215H552.547V364.784ZM604.638 398.78L606.344 400.04L609.161 402.125H559.613L554.539 398.913L604.638 398.78Z" fill="black"/>
<path d="M562.79 335.405H550.744C542.649 335.405 536.064 328.441 536.064 319.88V239.858C536.064 231.297 542.649 224.333 550.744 224.333H564.641C565.071 224.333 565.423 224.685 565.423 225.116C565.423 225.546 565.071 225.898 564.641 225.898H550.744C543.509 225.898 537.629 232.158 537.629 239.858V319.88C537.629 327.576 543.513 333.84 550.744 333.84H562.79C563.221 333.84 563.573 334.192 563.573 334.623C563.573 335.053 563.221 335.405 562.79 335.405Z" fill="black"/>
<path d="M603.531 335.405H591.484C591.054 335.405 590.702 335.053 590.702 334.623C590.702 334.192 591.054 333.84 591.484 333.84H603.531C610.765 333.84 616.646 327.58 616.646 319.88V239.858C616.646 232.162 610.761 225.898 603.531 225.898H589.634C589.203 225.898 588.851 225.546 588.851 225.116C588.851 224.685 589.203 224.333 589.634 224.333H603.531C611.626 224.333 618.211 231.297 618.211 239.858V319.88C618.211 328.441 611.626 335.405 603.531 335.405Z" fill="black"/>
<path d="M559.05 256.283C558.889 251.885 559.105 247.483 559.691 243.121L558.69 243.536C559.703 244.529 560.72 245.523 561.734 246.521C562.571 247.343 563.44 248.289 564.684 248.383C565.76 248.465 566.785 247.835 567.427 247.01C568.193 246.024 568.44 244.772 568.651 243.575L567.497 243.418C567.399 247.147 567.301 250.876 567.207 254.6C567.188 255.355 568.362 255.355 568.381 254.6C568.479 250.872 568.577 247.143 568.671 243.418C568.686 242.773 567.634 242.601 567.517 243.262C567.344 244.236 567.176 245.277 566.621 246.122C566.155 246.83 565.271 247.429 564.398 247.147C563.475 246.846 562.743 245.875 562.074 245.218C561.221 244.381 560.368 243.543 559.515 242.71C559.116 242.319 558.576 242.644 558.514 243.125C557.927 247.487 557.716 251.889 557.872 256.286C557.9 257.038 559.073 257.042 559.046 256.286L559.05 256.283Z" fill="black"/>
<path d="M576.069 244.13C574.68 243.935 573.381 244.678 572.736 245.914C572.09 247.151 572.039 248.63 572.305 249.964C572.763 252.276 574.602 254.639 577.196 254.362C579.919 254.068 581.75 251.341 581.578 248.724C581.48 247.268 580.913 245.875 580.095 244.674C579.277 243.473 578.307 242.409 577.067 241.759C575.748 241.071 574.015 240.985 572.841 242.025C571.793 242.957 571.644 244.721 572.673 245.723C573.217 246.251 574.046 245.421 573.503 244.893C572.834 244.244 573.154 243.152 573.89 242.706C574.782 242.17 575.901 242.421 576.738 242.929C578.522 244.013 579.958 246.137 580.334 248.184C580.69 250.148 579.747 252.374 577.759 253.051C575.924 253.673 574.356 252.331 573.73 250.684C573.35 249.686 573.217 248.551 573.424 247.499C573.632 246.447 574.465 245.081 575.76 245.265C576.077 245.308 576.386 245.187 576.484 244.854C576.562 244.58 576.386 244.177 576.073 244.13H576.069Z" fill="black"/>
<path d="M581.457 256.028C583.151 252.558 584.133 248.794 584.344 244.936L583.19 245.093C584.763 249.029 586.879 252.699 589.505 256.024C589.849 256.463 590.471 256.056 590.506 255.61C590.831 251.525 591.156 247.44 591.477 243.356C591.535 242.604 590.362 242.608 590.303 243.356C589.978 247.44 589.653 251.525 589.333 255.61L590.334 255.195C587.846 252.037 585.811 248.512 584.321 244.78C584.082 244.177 583.206 244.24 583.166 244.936C582.967 248.579 582.04 252.159 580.439 255.437C580.111 256.114 581.12 256.709 581.453 256.028H581.457Z" fill="black"/>
<path d="M595.866 242.792C594.994 244.432 594.121 246.075 593.253 247.714L594.325 248.168C594.83 246.537 595.796 245.128 597.107 244.04L596.105 243.626C596.34 248.125 596.301 252.632 595.98 257.124C595.925 257.879 597.099 257.875 597.154 257.124C597.474 252.632 597.514 248.125 597.279 243.626C597.251 243.094 596.668 242.886 596.277 243.211C594.814 244.424 593.758 246.044 593.194 247.855C592.999 248.485 593.953 248.9 594.266 248.309C595.139 246.67 596.011 245.026 596.88 243.387C597.236 242.722 596.222 242.127 595.866 242.796V242.792Z" fill="black"/>
<path d="M558.878 305.791C557.868 302.376 557.438 298.831 557.59 295.271L556.706 295.779C558.005 296.699 559.3 297.622 560.599 298.542C561.26 299.011 561.922 299.48 562.583 299.95C563.201 300.388 563.807 300.893 564.457 301.276C564.969 301.582 565.588 301.625 566.01 301.143C566.433 300.662 566.48 299.942 566.613 299.367C566.98 297.782 567.348 296.198 567.712 294.617L566.558 294.461C566.863 298.205 567.164 301.953 567.47 305.697C567.528 306.445 568.706 306.453 568.643 305.697C568.338 301.953 568.037 298.205 567.732 294.461C567.681 293.839 566.738 293.62 566.577 294.304C566.268 295.635 565.959 296.965 565.654 298.295C565.58 298.612 565.505 298.929 565.435 299.246C565.365 299.543 565.337 299.907 565.212 300.185C565.204 300.204 565.118 300.369 565.181 300.341C565.126 300.365 564.883 300.15 564.84 300.122C564.547 299.919 564.257 299.707 563.968 299.5C561.746 297.919 559.519 296.343 557.297 294.762C556.914 294.488 556.432 294.86 556.413 295.271C556.256 298.925 556.71 302.595 557.743 306.104C557.954 306.828 559.089 306.519 558.874 305.791H558.878Z" fill="black"/>
<path d="M573.319 295.568C572.247 294.39 570.263 294.977 569.524 296.233C568.592 297.822 569.242 300.032 570.189 301.464C571.085 302.818 572.677 304.078 574.395 303.522C575.87 303.045 576.66 301.433 576.554 299.95C576.41 297.939 574.825 296.468 573.24 295.423C572.607 295.005 572.02 296.022 572.65 296.437C573.73 297.149 574.845 298.068 575.255 299.344C575.553 300.275 575.369 301.495 574.567 302.133C573.573 302.916 572.364 302.239 571.644 301.441C570.772 300.478 570.122 298.968 570.279 297.649C570.349 297.043 570.639 296.507 571.206 296.245C571.644 296.041 572.153 296.026 572.493 296.401C573.002 296.961 573.831 296.128 573.323 295.572L573.319 295.568Z" fill="black"/>
<path d="M577.255 294.191C576.973 297.372 576.691 300.556 576.413 303.737C576.347 304.488 577.521 304.485 577.587 303.737C577.869 300.556 578.151 297.372 578.428 294.191C578.495 293.44 577.321 293.443 577.255 294.191Z" fill="black"/>
<path d="M588.828 297.841C590.092 296.793 591.574 295.787 593.128 295.224C593.433 295.114 593.812 294.989 594.078 295.239C594.294 295.447 594.376 295.799 594.411 296.084C594.493 296.695 594.419 297.356 594.298 297.959C593.762 300.627 591.829 302.982 589.25 303.902C588.64 304.117 588.718 305.04 589.407 305.056C592.009 305.111 594.611 305.165 597.212 305.216C597.968 305.232 597.968 304.058 597.212 304.042C594.611 303.988 592.009 303.933 589.407 303.882L589.563 305.036C592.095 304.136 594.071 302.125 595.037 299.625C595.495 298.436 595.749 297.047 595.542 295.775C595.448 295.188 595.193 294.602 594.701 294.242C594.086 293.796 593.323 293.89 592.654 294.156C590.956 294.829 589.391 295.85 587.995 297.012C587.412 297.497 588.249 298.322 588.824 297.841H588.828Z" fill="black"/>
<path d="M567.18 374.065C564.203 373.861 561.26 375.305 559.504 377.699C557.747 380.094 557.516 383.423 558.674 386.142C559.832 388.862 562.747 391.432 565.834 390.352C568.682 389.351 570.118 386.08 569.395 383.239C568.992 381.663 567.935 380.285 566.413 379.663C564.891 379.041 563.103 379.229 561.789 380.27C561.503 380.497 561.593 381.037 561.906 381.193C563.017 381.737 564.214 381.713 565.415 381.58C566.484 381.463 567.685 381.193 568.733 381.553C569.915 381.956 570.263 383.204 570.286 384.335C570.318 385.896 569.884 387.418 570.286 388.967C570.474 389.699 571.609 389.39 571.417 388.654C571.01 387.089 571.57 385.489 571.437 383.904C571.327 382.613 570.823 381.314 569.625 380.669C568.538 380.086 567.274 380.191 566.092 380.328C564.911 380.465 563.596 380.724 562.497 380.18L562.614 381.103C563.537 380.375 564.836 380.324 565.905 380.724C567.035 381.146 567.833 382.152 568.185 383.282C568.882 385.524 567.888 388.333 565.584 389.202C563.072 390.153 560.717 387.887 559.774 385.751C558.831 383.615 558.905 380.837 560.196 378.767C561.663 376.42 564.433 375.05 567.18 375.238C567.935 375.289 567.931 374.115 567.18 374.065Z" fill="black"/>
<path d="M574.25 385.164C574.168 383.38 574.148 381.596 574.191 379.808C574.215 378.916 574.25 378.024 574.305 377.132C574.356 376.318 574.332 375.422 574.516 374.628C574.598 374.276 574.633 374.233 574.864 374.514C575.111 374.816 575.306 375.176 575.514 375.504C575.948 376.189 576.363 376.889 576.758 377.597C577.548 379.022 578.264 380.497 578.878 382.007C579.579 383.724 580.162 385.493 580.631 387.289C580.823 388.02 581.954 387.707 581.762 386.976C580.811 383.337 579.383 379.82 577.513 376.553C577.051 375.747 576.566 374.957 576.05 374.186C575.631 373.56 574.997 372.852 574.164 373.235C573.467 373.552 573.346 374.362 573.284 375.039C573.186 376.087 573.119 377.136 573.072 378.188C572.963 380.512 572.967 382.844 573.072 385.168C573.107 385.919 574.281 385.923 574.246 385.168L574.25 385.164Z" fill="black"/>
<path d="M571.785 382.488C574.598 381.85 577.407 381.213 580.22 380.575C580.956 380.407 580.647 379.276 579.907 379.444C577.094 380.082 574.285 380.72 571.472 381.357C570.736 381.526 571.046 382.656 571.785 382.488Z" fill="black"/>
<path d="M586.621 384.323C586.715 380.673 586.809 377.022 586.903 373.372C586.922 372.617 585.749 372.617 585.729 373.372C585.635 377.022 585.541 380.673 585.447 384.323C585.428 385.078 586.602 385.078 586.621 384.323Z" fill="black"/>
<path d="M590.538 385.156C591.692 381.796 592.752 378.403 593.715 374.984L592.643 375.125C593.828 377.719 595.017 380.309 596.203 382.903C596.457 383.462 597.279 383.145 597.298 382.605C597.408 378.967 597.514 375.328 597.623 371.69C597.647 370.934 596.473 370.934 596.449 371.69C596.34 375.328 596.234 378.967 596.125 382.605L597.22 382.308C596.035 379.714 594.845 377.124 593.66 374.53C593.441 374.053 592.713 374.217 592.588 374.671C591.621 378.09 590.561 381.483 589.411 384.843C589.164 385.559 590.299 385.868 590.542 385.156H590.538Z" fill="black"/>
<path d="M555.752 33.2896C555.513 33.2896 555.278 33.1801 555.122 32.9727L545.595 20.1397C545.336 19.7915 545.411 19.3025 545.755 19.0442C546.103 18.786 546.592 18.8603 546.851 19.2046L556.378 32.0376C556.636 32.3858 556.561 32.8749 556.217 33.1331C556.076 33.2388 555.912 33.2857 555.752 33.2857V33.2896Z" fill="black"/>
<path d="M548.944 38.9315C548.787 38.9315 548.627 38.8845 548.49 38.7867L531.377 26.5367C531.025 26.2863 530.942 25.7972 531.197 25.4451C531.447 25.093 531.936 25.0108 532.288 25.2651L549.402 37.5151C549.754 37.7655 549.836 38.2546 549.582 38.6067C549.429 38.8219 549.19 38.9354 548.944 38.9354V38.9315Z" fill="black"/>
<path d="M545.638 44.3738C545.575 44.3738 545.509 44.3659 545.446 44.3503L531.639 40.8486C531.22 40.743 530.966 40.3165 531.072 39.8979C531.177 39.4792 531.604 39.2249 532.022 39.3305L545.829 42.8322C546.248 42.9379 546.502 43.3643 546.397 43.783C546.307 44.139 545.99 44.3738 545.638 44.3738Z" fill="black"/>
<path d="M577.345 294.386C578.781 298.068 580.573 301.597 582.724 304.915C582.967 305.291 583.722 305.314 583.796 304.774C584.297 301.245 584.798 297.716 585.303 294.183C585.346 293.866 585.225 293.557 584.892 293.459C584.618 293.381 584.215 293.557 584.168 293.87C583.667 297.399 583.166 300.928 582.662 304.461L583.734 304.32C581.641 301.092 579.868 297.661 578.472 294.073C578.202 293.377 577.063 293.678 577.341 294.386H577.345Z" fill="black"/>
</svg>
