<svg width="681" height="450" viewBox="0 0 681 450" fill="none" xmlns="http://www.w3.org/2000/svg">
<path d="M486.458 391.971V398.616C476.955 412.219 468.63 430.354 467.731 432.31C468.228 430.901 471.532 421.368 472.822 412.377C475.414 407.776 478.332 402.966 481.368 398.616C483.037 396.222 484.748 393.969 486.458 391.971Z" fill="#070600"/>
<path d="M462.698 434.299L461.105 433.577C462.173 431.23 466.072 422.839 471.355 413.48C471.595 413.061 472.126 412.91 472.546 413.148C472.966 413.387 473.118 413.917 472.879 414.336C467.631 423.631 463.761 431.964 462.698 434.293V434.299Z" fill="#070600"/>
<path d="M669.328 436.833H490.391C490.105 436.833 489.843 436.693 489.679 436.466C489.516 436.239 489.475 435.941 489.568 435.674C493.765 423.671 503.572 391.444 498.61 386.558C498.389 386.337 497.712 385.673 495.884 386.331C493.047 387.362 484.939 396.849 481.886 400.418L481.682 400.657C481.367 401.024 480.818 401.071 480.444 400.756C480.076 400.442 480.03 399.894 480.345 399.527L480.549 399.289C486.217 392.656 492.399 385.737 495.283 384.695C497.647 383.839 499.066 384.561 499.836 385.318C506.088 391.473 494.349 427.125 491.623 435.091H669.328C669.813 435.091 670.204 435.481 670.204 435.965C670.204 436.448 669.813 436.838 669.328 436.838V436.833Z" fill="#070600"/>
<path d="M463.241 397.536C448.834 401.368 430.341 431.818 429.95 432.488C430.002 432.214 423.429 436.617 425.56 430.234L432.39 422.087C432.39 422.087 432.402 422.076 432.402 422.07C432.489 421.948 432.577 421.82 432.664 421.691C432.804 421.499 432.939 421.307 433.073 421.115C433.12 421.051 433.166 420.987 433.207 420.923C433.394 420.667 433.575 420.404 433.762 420.142C433.773 420.137 433.779 420.125 433.785 420.113C433.966 419.863 434.147 419.607 434.334 419.356C434.888 418.588 435.46 417.813 436.05 417.033C436.173 416.87 436.301 416.701 436.429 416.532C436.564 416.351 436.704 416.171 436.844 415.99C437.328 415.355 437.83 414.715 438.338 414.08C438.671 413.673 439.004 413.259 439.337 412.851C439.558 412.584 439.78 412.316 440.002 412.048C440.072 411.966 440.136 411.891 440.201 411.815C440.364 411.623 440.522 411.431 440.679 411.244C440.796 411.11 440.913 410.976 441.024 410.842C441.14 410.708 441.257 410.574 441.368 410.446C441.566 410.219 441.765 409.992 441.963 409.771C442.465 409.206 442.967 408.653 443.475 408.105C443.703 407.861 443.936 407.622 444.164 407.383C444.409 407.121 444.655 406.871 444.906 406.615C445.145 406.37 445.384 406.131 445.624 405.898C445.746 405.776 445.875 405.654 445.997 405.531C446.236 405.298 446.482 405.065 446.727 404.838C446.849 404.722 446.966 404.611 447.089 404.495L447.824 403.831C448.069 403.615 448.315 403.4 448.566 403.184H448.571C448.811 402.975 449.056 402.771 449.301 402.567C449.301 402.567 449.313 402.561 449.319 402.556C449.803 402.16 450.294 401.775 450.784 401.402C450.796 401.402 450.801 401.391 450.813 401.385C450.971 401.263 451.128 401.146 451.286 401.036C451.525 400.861 451.77 400.692 452.01 400.529C452.249 400.366 452.494 400.203 452.734 400.051C453.195 399.754 453.656 399.481 454.111 399.219C454.374 399.079 454.637 398.939 454.893 398.805C455.133 398.683 455.372 398.566 455.611 398.462C456.084 398.24 456.563 398.048 457.03 397.879C457.153 397.839 457.275 397.792 457.398 397.757C457.55 397.705 457.707 397.658 457.859 397.611C458.011 397.565 458.162 397.524 458.314 397.489C458.425 397.46 458.53 397.437 458.635 397.413C458.7 397.396 458.758 397.384 458.816 397.373C458.997 397.332 459.172 397.303 459.348 397.274C459.458 397.256 459.563 397.239 459.674 397.227C459.785 397.21 459.89 397.198 459.995 397.186C460.013 397.186 460.036 397.18 460.054 397.18C460.223 397.163 460.398 397.151 460.568 397.146C460.854 397.134 461.134 397.134 461.396 397.151C461.548 397.163 461.694 397.175 461.834 397.192C461.98 397.21 462.12 397.227 462.255 397.256C462.389 397.279 462.517 397.309 462.64 397.338C462.85 397.39 463.048 397.454 463.241 397.53V397.536Z" fill="#070600"/>
<path d="M425.566 433.583C425.42 433.583 425.274 433.548 425.14 433.472C424.719 433.234 424.568 432.704 424.807 432.284C424.83 432.244 424.9 432.127 425.011 431.935L425.181 431.644C425.227 431.568 425.286 431.469 425.35 431.364L425.531 431.061C425.595 430.951 425.665 430.84 425.741 430.724C425.869 430.508 426.033 430.234 426.214 429.943C426.325 429.769 426.43 429.594 426.541 429.413L426.628 429.268C426.693 429.157 426.763 429.052 426.833 428.942L427.014 428.662C427.049 428.604 427.101 428.517 427.154 428.435L427.819 427.387C427.889 427.288 427.936 427.206 427.988 427.131L428.047 427.043C428.228 426.764 428.42 426.461 428.619 426.158C428.706 426.018 428.812 425.855 428.922 425.692L428.987 425.599C429.074 425.465 429.162 425.337 429.243 425.203C429.413 424.958 429.559 424.737 429.699 424.516C429.88 424.242 430.055 423.98 430.242 423.712L430.388 423.497C430.569 423.229 430.75 422.961 430.936 422.687C430.966 422.641 431.012 422.577 431.053 422.518L431.403 422.006C431.497 421.872 431.59 421.738 431.689 421.598C431.97 421.208 432.518 421.115 432.909 421.394C433.301 421.674 433.394 422.221 433.114 422.612C433.02 422.74 432.933 422.868 432.845 422.99L432.606 423.334C432.583 423.374 432.536 423.439 432.489 423.503L432.39 423.648C432.197 423.928 432.016 424.196 431.841 424.463L431.684 424.696C431.497 424.964 431.333 425.209 431.17 425.459C431.024 425.686 430.866 425.919 430.715 426.146C430.645 426.257 430.551 426.403 430.452 426.548L430.388 426.647C430.288 426.799 430.189 426.944 430.102 427.084C429.892 427.404 429.705 427.695 429.524 427.981L429.465 428.068C429.407 428.161 429.349 428.249 429.284 428.342L428.765 429.157C428.73 429.215 428.683 429.285 428.642 429.355C428.601 429.425 428.555 429.489 428.52 429.559C428.508 429.576 428.49 429.611 428.479 429.623L428.041 430.316C427.924 430.508 427.807 430.695 427.702 430.869C427.539 431.137 427.381 431.399 427.241 431.632C427.16 431.766 427.095 431.865 427.037 431.964L426.844 432.29C426.792 432.372 426.745 432.447 426.704 432.523L426.523 432.826C426.418 433.001 426.354 433.111 426.336 433.146C426.173 433.432 425.881 433.595 425.572 433.595L425.566 433.583Z" fill="#070600"/>
<path d="M433.411 422.152L432.658 421.697L431.94 421.196C432.098 420.969 432.226 420.789 432.361 420.608C432.647 420.218 433.19 420.131 433.587 420.416C433.978 420.701 434.065 421.249 433.779 421.639C433.657 421.808 433.534 421.983 433.411 422.152Z" fill="#070600"/>
<path d="M433.785 420.993C433.61 420.993 433.435 420.94 433.283 420.835C432.886 420.556 432.793 420.014 433.067 419.618C433.248 419.362 433.435 419.1 433.633 418.838C433.925 418.454 434.474 418.372 434.859 418.663C435.244 418.954 435.326 419.502 435.034 419.886C434.847 420.137 434.672 420.375 434.503 420.62C434.334 420.865 434.059 420.993 433.785 420.993Z" fill="#070600"/>
<path d="M434.334 420.23C434.159 420.23 433.978 420.177 433.826 420.067C433.435 419.787 433.341 419.24 433.627 418.85C434.194 418.058 434.777 417.271 435.355 416.514C435.647 416.13 436.196 416.054 436.581 416.345C436.966 416.637 437.042 417.184 436.75 417.568C436.184 418.314 435.606 419.088 435.052 419.869C434.882 420.107 434.614 420.236 434.34 420.236L434.334 420.23Z" fill="#070600"/>
<path d="M439.337 413.731C439.144 413.731 438.951 413.667 438.788 413.539C438.408 413.236 438.35 412.688 438.654 412.31C438.875 412.036 439.103 411.762 439.337 411.489C439.652 411.122 440.2 411.075 440.568 411.39C440.936 411.704 440.983 412.252 440.667 412.618C440.446 412.881 440.23 413.143 440.02 413.405C439.844 413.62 439.593 413.731 439.337 413.731Z" fill="#070600"/>
<path d="M440.201 412.694C440.008 412.694 439.821 412.636 439.658 412.508C439.278 412.211 439.214 411.658 439.512 411.279C439.675 411.075 439.844 410.871 440.02 410.673C440.335 410.312 440.889 410.272 441.257 410.592C441.619 410.912 441.66 411.46 441.339 411.827C441.187 412.001 441.029 412.182 440.889 412.362C440.714 412.584 440.457 412.694 440.201 412.694Z" fill="#070600"/>
<path d="M443.475 408.985C443.259 408.985 443.049 408.909 442.88 408.752C442.524 408.426 442.506 407.872 442.833 407.517C443.067 407.267 443.3 407.022 443.539 406.778C443.878 406.434 444.433 406.428 444.777 406.766C445.121 407.104 445.127 407.657 444.789 408C444.561 408.233 444.339 408.466 444.117 408.705C443.942 408.891 443.709 408.985 443.475 408.985Z" fill="#070600"/>
<path d="M444.905 407.494C444.684 407.494 444.468 407.412 444.293 407.243C443.948 406.906 443.936 406.352 444.275 406.009C444.52 405.758 444.765 405.514 445.011 405.275C445.069 405.211 445.156 405.129 445.238 405.048L445.372 404.914C445.624 404.669 445.875 404.431 446.126 404.198C446.476 403.872 447.03 403.889 447.363 404.244C447.69 404.6 447.672 405.153 447.316 405.479C447.077 405.7 446.838 405.927 446.604 406.16L446.452 406.306C446.388 406.37 446.318 406.434 446.254 406.504C445.997 406.754 445.764 406.987 445.53 407.226C445.361 407.401 445.133 407.488 444.905 407.488V407.494Z" fill="#070600"/>
<path d="M447.089 405.374C446.855 405.374 446.622 405.281 446.447 405.095C446.12 404.739 446.137 404.186 446.493 403.86C446.744 403.627 446.995 403.4 447.246 403.179C447.492 402.957 447.743 402.736 448.005 402.521C448.373 402.212 448.928 402.258 449.237 402.631C449.546 402.998 449.5 403.551 449.126 403.86C448.881 404.064 448.647 404.273 448.408 404.483C448.157 404.704 447.918 404.92 447.678 405.141C447.509 405.298 447.299 405.374 447.083 405.374H447.089Z" fill="#070600"/>
<path d="M448.571 404.064C448.332 404.064 448.093 403.965 447.923 403.773C447.597 403.412 447.626 402.864 447.988 402.538C448.239 402.311 448.496 402.095 448.752 401.892C449.132 401.589 449.681 401.647 449.984 402.02C450.288 402.392 450.229 402.946 449.856 403.249C449.622 403.435 449.389 403.633 449.161 403.837C448.992 403.988 448.782 404.064 448.577 404.064H448.571Z" fill="#070600"/>
<path d="M449.319 403.435C449.068 403.435 448.817 403.33 448.647 403.12C448.338 402.748 448.39 402.2 448.758 401.892C449.231 401.501 449.721 401.117 450.258 400.709C450.65 400.418 451.193 400.5 451.484 400.884C451.776 401.268 451.695 401.816 451.309 402.107C450.796 402.491 450.329 402.858 449.879 403.231C449.716 403.365 449.517 403.435 449.319 403.435Z" fill="#070600"/>
<path d="M450.813 402.264C450.55 402.264 450.293 402.148 450.118 401.927C449.821 401.548 449.891 400.995 450.27 400.704C450.439 400.576 450.609 400.447 450.778 400.331C451.006 400.156 451.268 399.976 451.525 399.807C451.759 399.644 452.016 399.469 452.272 399.312C452.71 399.021 453.183 398.741 453.679 398.462C454.1 398.229 454.637 398.38 454.87 398.799C455.104 399.219 454.952 399.754 454.532 399.987C454.07 400.244 453.638 400.506 453.206 400.785C452.961 400.937 452.728 401.088 452.506 401.245C452.255 401.408 452.027 401.566 451.805 401.734C451.636 401.857 451.49 401.962 451.344 402.078C451.187 402.2 450.994 402.259 450.807 402.259L450.813 402.264Z" fill="#070600"/>
<path d="M454.893 399.685C454.578 399.685 454.269 399.51 454.111 399.207C453.889 398.776 454.059 398.252 454.491 398.031C454.747 397.903 454.999 397.774 455.255 397.664C455.711 397.448 456.219 397.245 456.732 397.058C457.188 396.895 457.69 397.134 457.853 397.588C458.016 398.042 457.777 398.543 457.322 398.706C456.861 398.869 456.405 399.056 455.979 399.259C455.734 399.364 455.512 399.475 455.29 399.591C455.162 399.655 455.028 399.69 454.893 399.69V399.685Z" fill="#070600"/>
<path d="M457.398 398.636C457.042 398.636 456.709 398.415 456.575 398.066C456.405 397.611 456.639 397.111 457.094 396.942C457.275 396.872 457.456 396.819 457.631 396.773C457.771 396.726 457.946 396.68 458.116 396.645C458.25 396.61 458.373 396.581 458.489 396.557C458.968 396.482 459.417 396.802 459.493 397.274C459.575 397.751 459.248 398.2 458.775 398.281C458.711 398.293 458.647 398.31 458.577 398.328C458.565 398.328 458.519 398.345 458.507 398.345C458.373 398.374 458.244 398.409 458.11 398.45C457.952 398.491 457.824 398.531 457.695 398.578C457.596 398.613 457.491 398.63 457.392 398.63L457.398 398.636Z" fill="#070600"/>
<path d="M459.528 398.135L459.348 397.279L459.254 396.412C459.365 396.394 459.47 396.377 459.581 396.365C459.639 396.353 459.756 396.342 459.867 396.33C460.34 396.284 460.795 396.621 460.848 397.099C460.9 397.576 460.568 398.007 460.089 398.06C459.978 398.071 459.896 398.083 459.814 398.095C459.68 398.112 459.599 398.124 459.523 398.135H459.528Z" fill="#070600"/>
<path d="M461.869 434.887C461.653 434.887 461.437 434.806 461.268 434.649C460.982 434.375 460.918 433.956 461.087 433.624L461.116 433.525C461.145 433.432 461.192 433.315 461.239 433.17L461.647 431.97C461.7 431.813 461.758 431.632 461.823 431.44L461.84 431.376C461.863 431.3 461.887 431.219 461.916 431.143C461.945 431.05 461.986 430.933 462.021 430.817L462.109 430.543C462.179 430.333 462.249 430.118 462.313 429.891L462.424 429.547C462.5 429.303 462.57 429.076 462.64 428.843C462.64 428.819 462.651 428.802 462.657 428.779C462.733 428.528 462.815 428.278 462.891 428.022L463.229 426.863C463.282 426.682 463.334 426.502 463.387 426.321C463.428 426.164 463.475 426.007 463.521 425.849C463.726 425.121 463.936 424.335 464.146 423.52L464.268 423.037C464.356 422.693 464.438 422.361 464.519 422.029C464.648 421.523 464.771 421.01 464.881 420.498C465.004 419.968 465.121 419.449 465.232 418.925C466.265 414.051 466.744 409.934 466.656 406.679C466.656 406.416 466.639 406.166 466.621 405.922C466.615 405.758 466.604 405.613 466.592 405.479C466.592 405.444 466.592 405.415 466.592 405.38C466.574 405.095 466.539 404.792 466.504 404.495C466.504 404.477 466.498 404.46 466.493 404.437C466.469 404.273 466.452 404.11 466.423 403.959C466.405 403.837 466.393 403.761 466.376 403.679L466.352 403.528C466.341 403.441 466.323 403.353 466.3 403.272C466.212 402.835 466.113 402.451 465.991 402.049C465.961 401.95 465.932 401.863 465.903 401.781C465.897 401.764 465.891 401.74 465.88 401.723C465.856 401.647 465.827 401.566 465.792 401.49C465.704 401.274 465.629 401.1 465.553 400.931C465.524 400.873 465.494 400.808 465.459 400.744L465.407 400.645C465.354 400.541 465.313 400.477 465.273 400.412C465.261 400.395 465.249 400.378 465.238 400.354C465.202 400.29 465.167 400.226 465.127 400.168C465.051 400.057 464.998 399.982 464.946 399.9C464.841 399.754 464.73 399.621 464.613 399.492C464.595 399.475 464.584 399.457 464.566 399.44C464.479 399.347 464.42 399.289 464.356 399.23C464.239 399.12 464.163 399.05 464.076 398.992C464.058 398.98 464.041 398.968 464.023 398.951C463.924 398.869 463.813 398.788 463.685 398.718C463.568 398.642 463.486 398.601 463.41 398.561C463.323 398.514 463.27 398.485 463.218 398.467C463.189 398.456 463.159 398.444 463.13 398.433C463.072 398.403 463.008 398.374 462.943 398.357C462.488 398.2 462.249 397.699 462.406 397.245C462.57 396.79 463.066 396.552 463.521 396.709C463.644 396.75 463.761 396.802 463.877 396.854C463.994 396.901 464.117 396.959 464.233 397.029C464.356 397.093 464.49 397.163 464.619 397.25C464.776 397.344 464.951 397.466 465.115 397.6C465.267 397.71 465.413 397.833 465.553 397.972C465.64 398.048 465.757 398.165 465.868 398.293C465.868 398.293 465.897 398.322 465.926 398.357C466.084 398.526 466.224 398.706 466.358 398.887C466.428 398.98 466.493 399.079 466.557 399.178C466.615 399.254 466.679 399.364 466.744 399.481C466.814 399.586 466.872 399.69 466.936 399.807L466.971 399.877C467.03 399.987 467.082 400.098 467.135 400.209C467.228 400.407 467.316 400.616 467.392 400.82C467.432 400.913 467.485 401.041 467.526 401.175C467.567 401.28 467.602 401.391 467.637 401.501C467.788 401.991 467.899 402.433 467.987 402.876C468.01 402.963 468.039 403.103 468.063 403.243L468.086 403.365C468.104 403.476 468.127 403.58 468.139 403.691C468.162 403.813 468.185 403.982 468.209 404.157C468.209 404.18 468.22 404.204 468.22 404.227C468.261 404.57 468.302 404.92 468.326 405.269C468.326 405.287 468.326 405.298 468.326 405.316C468.343 405.479 468.355 405.648 468.361 405.811C468.378 406.055 468.39 406.335 468.396 406.62C468.489 410.004 467.999 414.267 466.936 419.269C466.825 419.805 466.703 420.34 466.58 420.87C466.463 421.394 466.341 421.919 466.207 422.437C466.125 422.769 466.043 423.112 465.956 423.45C465.938 423.532 465.909 423.625 465.885 423.718L465.827 423.934C465.611 424.766 465.395 425.564 465.185 426.327C465.138 426.49 465.097 426.63 465.057 426.77C465.004 426.962 464.946 427.154 464.893 427.34L464.555 428.493C464.484 428.744 464.403 429 464.327 429.25C464.327 429.262 464.321 429.279 464.315 429.291C464.239 429.547 464.163 429.798 464.082 430.042C464.064 430.095 464.041 430.17 464.017 430.246L463.971 430.386C463.895 430.631 463.825 430.863 463.749 431.085L463.667 431.341C463.626 431.469 463.591 431.591 463.55 431.702C463.527 431.772 463.51 431.83 463.492 431.888L463.463 431.982C463.393 432.18 463.34 432.348 463.288 432.506L462.996 433.385C462.961 433.49 462.926 433.583 462.897 433.67L462.873 433.734C462.827 433.874 462.78 434.008 462.745 434.101L462.704 434.224C462.704 434.224 462.687 434.27 462.681 434.282C462.681 434.288 462.681 434.293 462.675 434.299C462.634 434.416 462.57 434.521 462.482 434.608C462.307 434.788 462.079 434.882 461.846 434.882L461.869 434.887Z" fill="#070600"/>
<path d="M423.569 378.935C407.154 385.015 371.254 439.622 371.254 439.622L368.744 439.744L363.729 439.622C366.525 435.662 377.074 422.74 381.569 416.823C381.872 416.421 382.182 416.019 382.485 415.612C383.051 414.872 383.623 414.127 384.207 413.376C384.388 413.143 384.569 412.91 384.75 412.677C385.468 411.745 386.204 410.813 386.945 409.87C387.132 409.637 387.319 409.398 387.505 409.165C391.294 404.39 395.287 399.586 399.21 395.241C399.461 394.956 399.717 394.676 399.974 394.397C402.017 392.155 404.043 390.052 406.004 388.148C406.296 387.863 406.588 387.583 406.88 387.31C407.458 386.756 408.036 386.221 408.608 385.714C408.894 385.458 409.174 385.207 409.454 384.963C409.594 384.835 409.735 384.718 409.875 384.596C410.137 384.369 410.406 384.147 410.663 383.926C411.089 383.577 411.509 383.233 411.929 382.913C412.064 382.808 412.192 382.703 412.326 382.604C412.589 382.395 412.858 382.197 413.12 382.01C413.249 381.917 413.377 381.824 413.506 381.731C413.634 381.638 413.762 381.544 413.891 381.457C414.148 381.277 414.399 381.108 414.656 380.945C414.901 380.782 415.152 380.624 415.397 380.479C416.862 379.576 418.228 378.941 419.466 378.621C419.67 378.569 419.874 378.522 420.073 378.487C420.172 378.464 420.271 378.452 420.37 378.44C420.464 378.423 420.563 378.411 420.657 378.406C420.727 378.394 420.802 378.388 420.873 378.388C420.989 378.382 421.106 378.376 421.217 378.376C421.369 378.376 421.52 378.382 421.672 378.394C421.83 378.411 421.987 378.429 422.139 378.458C422.163 378.464 422.192 378.464 422.221 378.475C422.338 378.493 422.46 378.522 422.577 378.551C422.624 378.563 422.67 378.58 422.711 378.592C422.723 378.598 422.735 378.598 422.746 378.604C423.032 378.691 423.307 378.802 423.569 378.935Z" fill="#070600"/>
<path d="M365.912 439.418H33.3267C32.8422 439.418 32.4511 439.028 32.4511 438.545C32.4511 438.061 32.8422 437.671 33.3267 437.671H365.445C365.445 437.671 365.469 437.63 365.486 437.613C365.539 437.537 365.597 437.45 365.661 437.362C366.018 436.844 367.389 434.835 369.637 431.644C369.917 431.248 370.46 431.155 370.857 431.434C371.254 431.714 371.347 432.255 371.073 432.651C368.831 435.837 367.465 437.828 367.097 438.364C367.033 438.457 366.987 438.521 366.946 438.585C366.741 438.888 366.636 439.045 366.636 439.045C366.473 439.284 366.204 439.424 365.918 439.424L365.912 439.418Z" fill="#070600"/>
<path d="M399.21 396.115C399.005 396.115 398.801 396.045 398.632 395.899C398.27 395.579 398.235 395.032 398.55 394.665C398.795 394.391 399.04 394.117 399.291 393.844C399.618 393.488 400.19 393.442 400.546 393.768C400.902 394.094 400.943 394.624 400.616 394.979L400.581 395.02C400.342 395.282 400.103 395.544 399.863 395.812C399.688 396.01 399.449 396.109 399.204 396.109L399.21 396.115Z" fill="#070600"/>
<path d="M406.004 389.022C405.777 389.022 405.549 388.934 405.38 388.76C405.041 388.416 405.047 387.863 405.391 387.525C405.689 387.234 405.993 386.943 406.279 386.675C406.629 386.343 407.184 386.361 407.516 386.716C407.849 387.065 407.832 387.618 407.475 387.95C407.195 388.212 406.903 388.492 406.612 388.777C406.442 388.946 406.22 389.028 405.999 389.028L406.004 389.022Z" fill="#070600"/>
<path d="M408.608 386.588C408.369 386.588 408.129 386.489 407.954 386.296C407.633 385.935 407.662 385.388 408.018 385.062L408.223 384.881C408.444 384.683 408.66 384.485 408.882 384.299C409.25 383.984 409.805 384.031 410.114 384.398C410.429 384.765 410.383 385.318 410.015 385.627C409.81 385.801 409.6 385.988 409.39 386.18L409.186 386.366C409.017 386.518 408.812 386.588 408.602 386.588H408.608Z" fill="#070600"/>
<path d="M409.875 385.469C409.63 385.469 409.384 385.365 409.215 385.167C408.9 384.8 408.941 384.252 409.303 383.932C409.443 383.81 409.589 383.687 409.729 383.571L410.091 383.262C410.458 382.948 411.007 382.989 411.328 383.356C411.643 383.722 411.603 384.27 411.235 384.59L410.861 384.91C410.727 385.027 410.587 385.143 410.453 385.26C410.289 385.405 410.085 385.475 409.881 385.475L409.875 385.469Z" fill="#070600"/>
<path d="M411.929 383.786C411.678 383.786 411.427 383.676 411.252 383.472C410.943 383.099 410.995 382.552 411.369 382.243C411.515 382.121 411.655 382.016 411.801 381.905C412.192 381.62 412.741 381.702 413.027 382.086C413.313 382.476 413.231 383.018 412.846 383.309C412.723 383.396 412.607 383.489 412.484 383.588C412.321 383.722 412.122 383.786 411.924 383.786H411.929Z" fill="#070600"/>
<path d="M413.12 382.884C412.858 382.884 412.601 382.767 412.426 382.546C412.128 382.162 412.198 381.614 412.583 381.323C412.729 381.212 412.869 381.108 413.015 381.014L413.173 380.904C413.249 380.851 413.325 380.793 413.4 380.741C413.803 380.467 414.346 380.572 414.621 380.968C414.895 381.364 414.79 381.911 414.393 382.179C414.329 382.22 414.27 382.267 414.206 382.313L414.013 382.447C413.891 382.529 413.774 382.616 413.663 382.703C413.506 382.826 413.313 382.884 413.126 382.884H413.12Z" fill="#070600"/>
<path d="M414.656 381.818C414.369 381.818 414.089 381.678 413.92 381.422C413.657 381.02 413.768 380.479 414.177 380.211C414.44 380.042 414.691 379.879 414.947 379.728C415.362 379.483 415.899 379.617 416.15 380.03C416.395 380.444 416.261 380.98 415.846 381.23C415.613 381.37 415.374 381.521 415.134 381.678C414.988 381.772 414.819 381.818 414.656 381.818Z" fill="#070600"/>
<path d="M420.37 379.314C419.956 379.314 419.582 379.017 419.512 378.592C419.425 378.114 419.746 377.666 420.219 377.579C420.353 377.555 420.481 377.538 420.604 377.532C421.077 377.503 421.503 377.87 421.532 378.353C421.561 378.836 421.194 379.25 420.709 379.279C420.651 379.279 420.586 379.291 420.522 379.302C420.47 379.314 420.417 379.314 420.37 379.314Z" fill="#070600"/>
<path d="M422.139 379.331C422.087 379.331 422.028 379.331 421.976 379.314C421.853 379.291 421.731 379.273 421.608 379.262C421.123 379.227 420.762 378.807 420.797 378.324C420.832 377.841 421.264 377.491 421.736 377.515C421.929 377.526 422.122 377.555 422.303 377.59C422.776 377.683 423.091 378.138 422.997 378.609C422.916 379.029 422.548 379.32 422.139 379.32V379.331Z" fill="#070600"/>
<path d="M422.577 379.425C422.507 379.425 422.437 379.419 422.361 379.396C422.274 379.372 422.186 379.349 422.093 379.337C421.614 379.267 421.281 378.825 421.351 378.347C421.421 377.87 421.865 377.544 422.344 377.608C422.495 377.631 422.641 377.666 422.787 377.701C423.254 377.817 423.54 378.295 423.423 378.761C423.324 379.157 422.968 379.425 422.577 379.425Z" fill="#070600"/>
<path d="M425.56 433.589C425.344 433.589 425.128 433.507 424.959 433.35C424.714 433.117 424.632 432.785 424.719 432.482C425 431.026 428.712 411.489 428.292 396.225C428.292 396.051 428.286 395.899 428.28 395.748C428.234 394.467 428.175 393.43 428.088 392.475C428.07 392.178 428.041 391.91 428.012 391.648C428 391.479 427.983 391.328 427.965 391.182C427.942 390.938 427.913 390.711 427.883 390.483L427.866 390.32C427.854 390.251 427.848 390.181 427.843 390.111C427.819 389.919 427.79 389.709 427.755 389.505C427.72 389.226 427.679 388.975 427.638 388.736C427.574 388.358 427.51 387.991 427.434 387.63C427.387 387.403 427.341 387.182 427.294 386.966C427.276 386.867 427.265 386.821 427.253 386.774C427.165 386.39 427.072 386.046 426.979 385.702C426.582 384.258 426.085 383.035 425.502 382.063C425.426 381.94 425.35 381.818 425.274 381.702C425.262 381.69 425.257 381.673 425.245 381.661C425.163 381.539 425.087 381.422 425.005 381.323C424.988 381.3 424.97 381.277 424.953 381.253C424.883 381.16 424.813 381.079 424.743 380.991C424.719 380.968 424.702 380.945 424.684 380.921C424.62 380.846 424.556 380.782 424.492 380.712L424.428 380.648C424.328 380.537 424.247 380.467 424.165 380.397C424.153 380.386 424.136 380.374 424.124 380.362C423.926 380.193 423.721 380.036 423.505 379.908C423.394 379.838 423.289 379.78 423.19 379.728C422.968 379.611 422.746 379.524 422.49 379.442C422.028 379.302 421.766 378.813 421.906 378.353C422.046 377.893 422.536 377.631 422.997 377.771C423.365 377.881 423.686 378.015 423.978 378.167C424.107 378.231 424.276 378.324 424.433 378.423C424.708 378.592 424.988 378.796 425.251 379.023C425.268 379.035 425.292 379.052 425.309 379.069C425.449 379.192 425.578 379.314 425.7 379.448L425.729 379.477C425.829 379.576 425.922 379.675 426.015 379.786C426.027 379.797 426.039 379.809 426.05 379.821C426.155 379.943 426.255 380.065 426.354 380.193C426.354 380.193 426.371 380.217 426.383 380.228C426.494 380.362 426.593 380.514 426.693 380.659C426.704 380.677 426.716 380.694 426.728 380.712C426.821 380.857 426.914 380.997 427.008 381.154C427.673 382.267 428.234 383.635 428.671 385.231C428.771 385.592 428.87 385.97 428.963 386.36C428.981 386.436 429.004 386.529 429.022 386.622C429.068 386.809 429.115 387.042 429.162 387.286C429.238 387.665 429.314 388.055 429.378 388.457C429.419 388.713 429.465 388.981 429.5 389.255C429.535 389.453 429.565 389.686 429.594 389.924L429.635 390.297C429.664 390.518 429.693 390.763 429.716 391.013C429.734 391.171 429.751 391.334 429.763 391.503C429.792 391.77 429.821 392.062 429.839 392.359C429.921 393.325 429.985 394.391 430.032 395.701C430.037 395.87 430.043 396.045 430.043 396.214C430.469 411.827 426.634 431.824 426.43 432.872C426.401 433.041 426.319 433.204 426.202 433.327C426.027 433.507 425.799 433.6 425.566 433.6L425.56 433.589Z" fill="#070600"/>
<path d="M178.628 346.277C178.529 346.277 178.435 346.26 178.336 346.231L131.77 329.943C131.42 329.82 131.187 329.488 131.187 329.116C131.187 328.999 131.21 328.877 131.257 328.772L139.289 309.799C139.289 309.799 139.301 309.764 139.312 309.741L145.144 295.945C145.243 295.706 145.448 295.526 145.699 295.45C145.95 295.374 146.218 295.415 146.434 295.555C162.686 306.253 176.328 317.207 188.137 329.04C188.412 329.319 188.47 329.745 188.277 330.082L179.393 345.829C179.235 346.109 178.937 346.277 178.628 346.277ZM133.23 328.597L178.225 344.338L186.427 329.809C175.026 318.453 161.903 307.901 146.347 297.593L140.947 310.37C140.947 310.37 140.935 310.411 140.924 310.428L133.23 328.603V328.597Z" fill="#070600"/>
<path d="M85.7767 439.418C85.6658 439.418 85.549 439.395 85.4381 439.348C84.9944 439.162 84.7843 438.649 84.9711 438.207L131.257 328.778C131.443 328.335 131.957 328.126 132.401 328.312C132.844 328.498 133.055 329.011 132.868 329.453L86.5822 438.882C86.4421 439.214 86.1152 439.418 85.7767 439.418Z" fill="#070600"/>
<path d="M146.131 403.848C145.985 403.848 145.839 403.813 145.699 403.738C145.278 403.499 145.127 402.969 145.366 402.55L177.863 344.979C178.103 344.56 178.634 344.408 179.054 344.647C179.474 344.886 179.626 345.416 179.387 345.835L146.889 403.406C146.726 403.691 146.434 403.848 146.125 403.848H146.131Z" fill="#070600"/>
<path d="M178.915 344.555L178.337 346.204L180.204 346.856L180.783 345.207L178.915 344.555Z" fill="#070600"/>
<path d="M130.859 327.734L130.282 329.383L131.77 329.901L132.347 328.252L130.859 327.734Z" fill="#070600"/>
<path d="M142.243 379.267C135.681 379.267 130.346 373.654 130.346 366.753C130.346 359.852 135.681 354.238 142.243 354.238C148.804 354.238 154.14 359.852 154.14 366.753C154.14 373.654 148.804 379.267 142.243 379.267ZM142.243 355.985C136.65 355.985 132.097 360.813 132.097 366.753C132.097 372.693 136.65 377.52 142.243 377.52C147.835 377.52 152.388 372.693 152.388 366.753C152.388 360.813 147.835 355.985 142.243 355.985Z" fill="#070600"/>
<path d="M261.41 439.418C261.41 439.418 261.369 439.418 261.345 439.418C260.861 439.383 260.499 438.964 260.534 438.486C260.878 433.676 261.299 426.583 261.31 420.096V419.793C261.31 403.703 241.527 393.168 231.066 389.843C221.464 386.791 211.219 385.65 201.318 384.544C198.668 384.247 195.936 383.944 193.251 383.606C192.364 383.49 191.505 383.385 190.653 383.268C188.791 383.012 187.122 382.762 185.54 382.499C184.489 382.319 183.385 381.993 182.265 381.521C175.511 378.685 169.691 371.493 169.446 371.184C169.142 370.806 169.206 370.259 169.58 369.956C169.959 369.653 170.508 369.717 170.812 370.09C170.87 370.16 176.602 377.241 182.942 379.908C183.94 380.327 184.915 380.619 185.831 380.77C187.39 381.026 189.042 381.277 190.887 381.527C191.733 381.643 192.585 381.748 193.438 381.859C196.14 382.197 198.872 382.505 201.511 382.796C211.499 383.909 221.825 385.062 231.597 388.166C246.752 392.982 263.062 404.926 263.062 419.781V420.084C263.05 426.63 262.63 433.764 262.285 438.603C262.25 439.063 261.871 439.412 261.415 439.412L261.41 439.418Z" fill="#070600"/>
<path d="M152.324 422.093C125.46 422.093 104.41 421.721 101.707 420.591C98.9052 419.426 97.3115 415.891 96.9613 410.085C96.9321 409.602 97.2999 409.188 97.7844 409.159C98.2864 409.136 98.6834 409.497 98.7125 409.98C98.9227 413.475 99.7283 417.871 102.384 418.972C106.581 420.719 166.317 420.806 262.174 419.205C262.635 419.205 263.056 419.583 263.067 420.067C263.073 420.55 262.688 420.946 262.209 420.952C235.678 421.394 188.686 422.082 152.336 422.082L152.324 422.093Z" fill="#070600"/>
<path d="M192.58 393.477C187.746 389.033 184.156 383.338 182.2 377.078C181.226 373.956 180.642 370.719 180.519 367.452C180.403 364.365 180.595 361.104 181.856 358.239C183 355.642 185.008 353.638 187.863 353.103C190.367 352.631 193.117 353.551 194.097 356.055C194.693 357.575 194.611 359.281 194.448 360.871C194.261 362.671 193.963 364.458 193.659 366.24C193.041 369.886 192.264 373.502 191.342 377.084C189.509 384.165 187.092 391.107 184.098 397.786C183.339 399.475 182.551 401.146 181.722 402.8C180.94 404.361 180.21 406.032 179.217 407.471C178.675 408.263 177.344 409.87 176.2 409.439C174.793 408.909 175.803 406.783 176.27 405.951C177.846 403.161 179.755 400.511 181.634 397.92C183.514 395.329 185.545 392.749 187.641 390.274C191.786 385.394 196.286 380.816 201.091 376.583C210.793 368.04 221.761 360.929 233.541 355.583C234.983 354.931 236.443 354.302 237.908 353.702C238.935 353.283 238.486 351.589 237.441 352.019C224.563 357.284 212.579 364.569 201.955 373.531C196.648 378.01 191.692 382.907 187.151 388.16C182.609 393.413 178.354 398.951 174.851 404.891C174.116 406.131 173.444 407.733 173.859 409.188C174.273 410.644 175.814 411.506 177.291 411.134C178.768 410.761 179.906 409.532 180.718 408.344C181.804 406.76 182.609 404.914 183.456 403.202C186.946 396.15 189.813 388.789 192.002 381.236C193.093 377.474 194.016 373.665 194.763 369.822C195.148 367.836 195.492 365.839 195.784 363.835C196.041 362.082 196.345 360.295 196.281 358.518C196.17 355.35 194.617 352.491 191.441 351.559C188.738 350.767 185.639 351.478 183.444 353.202C180.84 355.251 179.539 358.577 179.042 361.756C178.505 365.175 178.669 368.686 179.206 372.093C180.303 379.005 183.315 385.592 187.781 390.99C188.873 392.312 190.058 393.552 191.319 394.711C192.148 395.474 193.385 394.24 192.556 393.477H192.58Z" fill="#070600"/>
<path d="M55.3458 298.135C60.1675 293.604 66.1918 290.454 72.6364 288.963C75.8529 288.217 79.1569 287.903 82.4551 288.031C85.5081 288.153 88.6896 288.608 91.404 290.075C93.8149 291.38 95.6829 293.494 95.9864 296.289C96.255 298.781 95.2684 301.454 92.7174 302.299C91.1121 302.834 89.355 302.636 87.7205 302.339C85.9518 302.019 84.2005 301.606 82.4551 301.181C78.9118 300.319 75.4093 299.317 71.9476 298.164C65.1002 295.887 58.4513 293.051 52.0709 289.679C48.8836 287.996 45.673 286.237 42.6842 284.211C41.7853 283.599 40.25 282.277 40.4076 281.037C40.6119 279.401 42.8418 280.373 43.6357 280.845C45.0075 281.66 46.2684 282.708 47.5293 283.681C48.7902 284.654 50.0979 285.702 51.3529 286.744C53.8572 288.829 56.2798 291.013 58.6206 293.278C63.2439 297.762 67.552 302.584 71.4631 307.697C79.3554 318.01 85.7591 329.488 90.2715 341.665C90.8261 343.156 91.3456 344.659 91.8418 346.167C92.1921 347.233 93.8849 346.772 93.5289 345.701C89.1624 332.447 82.6594 319.915 74.3702 308.675C70.2256 303.061 65.6548 297.762 60.6871 292.859C58.2003 290.407 55.6201 288.054 52.9465 285.807C51.6389 284.706 50.308 283.634 48.9595 282.592C47.6111 281.55 46.1926 280.379 44.704 279.453C43.4431 278.661 41.7677 277.98 40.3084 278.632C38.849 279.284 38.3411 280.868 38.8665 282.289C39.3919 283.71 40.5535 284.875 41.7969 285.719C43.4256 286.826 45.1535 287.816 46.858 288.794C53.5712 292.667 60.6287 295.945 67.9139 298.601C71.539 299.923 75.2283 301.087 78.9584 302.083C80.8848 302.601 82.8229 303.073 84.7726 303.498C86.5355 303.888 88.3276 304.302 90.1431 304.354C93.3479 304.442 96.2316 302.968 97.3291 299.859C98.2397 297.29 97.7494 294.146 96.1849 291.927C92.2563 286.354 83.9145 285.841 77.7384 286.383C70.6984 286.995 63.8218 289.487 58.0836 293.604C56.6826 294.612 55.3516 295.701 54.0965 296.883C53.2734 297.657 54.5168 298.886 55.3341 298.117L55.3458 298.135Z" fill="#070600"/>
<path d="M512.107 418.308C511.459 418.308 510.863 418.151 510.344 417.79C507.933 416.107 509.089 411.297 510.484 407.552C512.329 402.608 515.621 396.639 519.76 390.746C523.898 384.852 528.393 379.728 532.421 376.303C535.469 373.718 539.607 370.992 542.018 372.675C546.192 375.587 540.284 388.783 532.608 399.719C528.469 405.613 523.974 410.737 519.947 414.162C517.553 416.194 514.488 418.308 512.113 418.308H512.107ZM540.214 373.898C539 373.898 536.811 374.871 533.554 377.637C529.637 380.962 525.247 385.976 521.19 391.747C517.139 397.524 513.916 403.353 512.124 408.164C510.221 413.277 510.478 415.746 511.348 416.357C512.223 416.969 514.64 416.357 518.802 412.828C522.719 409.503 527.109 404.489 531.166 398.718C540.354 385.633 543.092 375.564 541.008 374.108C540.816 373.974 540.553 373.898 540.214 373.898Z" fill="#070600"/>
<path d="M92.6124 419.962C91.2464 422.845 89.3842 425.535 86.7574 427.404C83.6985 429.576 79.9158 430.677 76.3199 431.58C68.7195 433.496 60.9556 434.986 53.2209 436.221C48.8428 436.92 44.4472 437.479 40.0282 437.793C38.9132 437.875 38.9015 439.622 40.0282 439.54C48.1657 438.958 56.2389 437.595 64.2305 436C68.1649 435.214 72.0994 434.404 75.9989 433.461C79.8983 432.517 83.7219 431.452 87.0084 429.343C90.2949 427.235 92.519 424.242 94.1243 420.841C94.603 419.828 93.0911 418.943 92.6124 419.962Z" fill="#070600"/>
<path d="M493.754 159.856C477.753 185.783 463.276 212.879 453.761 241.892C446.639 263.549 442.103 286.168 441.397 308.984C441.315 316.496 440.983 324.247 442.658 331.596C442.769 332.062 442.483 332.534 442.01 332.645C441.543 332.755 441.076 332.476 440.959 332.016C439.984 328.213 439.611 324.317 439.43 320.468C438.344 297.389 441.502 274.276 447.316 251.955C454.637 224.2 466.539 197.954 480.444 172.889L442.833 209.263L444.263 204.814L489.737 156.892C490.695 155.885 492.288 155.844 493.298 156.793C494.156 157.603 494.314 158.872 493.754 159.856Z" fill="#070600"/>
<path d="M444.263 204.814L442.833 209.263L442.395 209.688L438.262 213.683C437.451 214.457 436.248 213.275 437.013 212.454L443.826 205.274L444.263 204.814Z" fill="#070600"/>
<path d="M465.763 262.577C465.699 262.577 465.634 262.571 465.57 262.553C465.097 262.449 464.8 261.983 464.911 261.511C470.771 235.55 478.85 212.472 488.92 192.922C490.064 190.698 491.214 188.432 492.382 186.132C499.854 171.41 507.577 156.182 517.886 144.081C518.201 143.714 518.75 143.667 519.118 143.982C519.485 144.296 519.532 144.844 519.217 145.21C509.042 157.154 501.366 172.284 493.94 186.918C492.773 189.218 491.623 191.49 490.473 193.714C480.473 213.135 472.447 236.074 466.615 261.889C466.522 262.297 466.16 262.571 465.763 262.571V262.577Z" fill="#070600"/>
<path d="M408.999 309.741H398.258C397.207 309.741 396.244 309.263 395.608 308.431C394.972 307.598 394.773 306.538 395.053 305.531L459.984 72.5102C460.626 70.2216 462.815 68.6958 465.173 68.8705L482.044 70.0935C483.585 70.2041 484.962 71.0019 485.826 72.2773C486.69 73.5526 486.918 75.1308 486.445 76.6041L412.163 307.441C411.941 308.157 411.468 308.78 410.832 309.194C410.295 309.555 409.653 309.747 408.999 309.747V309.741ZM464.806 70.6001C463.364 70.6001 462.068 71.5668 461.671 72.9761L396.74 305.996C396.606 306.474 396.699 306.975 397.003 307.371C397.301 307.767 397.762 307.994 398.258 307.994H408.999C409.308 307.994 409.606 307.901 409.863 307.726C410.167 307.528 410.388 307.237 410.493 306.905L484.776 76.0625C485.085 75.1075 484.939 74.0825 484.373 73.2498C483.812 72.4228 482.913 71.9046 481.915 71.8347L465.045 70.6117C464.963 70.6059 464.887 70.6001 464.806 70.6001Z" fill="#070600"/>
<path d="M485.61 76.3304L480.158 93.265L443.826 205.274L442.395 209.688L410.108 309.211C409.91 309.823 409.256 310.16 408.643 309.962C408.153 309.799 407.837 309.351 407.832 308.867C407.832 308.751 407.849 308.635 407.884 308.518L479.51 70.7806L481.979 70.9612C484.647 71.1533 486.428 73.7855 485.61 76.3304Z" fill="#070600"/>
<path d="M485.756 341.531V393.506C484.046 395.503 482.336 397.757 480.666 400.15V341.531H485.756Z" fill="#070600"/>
<path d="M480.666 401.024C480.578 401.024 480.491 401.012 480.403 400.983C480.041 400.867 479.79 400.529 479.79 400.15V341.531C479.79 341.048 480.181 340.658 480.666 340.658H485.756C486.241 340.658 486.632 341.048 486.632 341.531V393.506C486.632 393.715 486.556 393.913 486.422 394.071C484.811 395.958 483.112 398.17 481.384 400.645C481.215 400.884 480.946 401.018 480.666 401.018V401.024ZM481.542 342.405V397.425C482.68 395.882 483.795 394.461 484.881 393.186V342.405H481.542Z" fill="#070600"/>
<path d="M365.912 439.418H365.264C364.78 439.418 364.389 439.028 364.389 438.545V341.531C364.389 341.048 364.78 340.658 365.264 340.658H480.666C481.151 340.658 481.542 341.048 481.542 341.531V400.15C481.542 400.331 481.489 400.506 481.384 400.651C478.664 404.547 475.809 409.154 472.885 414.342C467.637 423.636 463.766 431.97 462.704 434.305C462.511 434.73 462.015 434.934 461.583 434.765C461.151 434.596 460.924 434.125 461.07 433.682L461.122 433.531C461.151 433.437 461.198 433.321 461.245 433.175L461.653 431.976C461.706 431.818 461.764 431.638 461.828 431.446L461.84 431.411C461.869 431.323 461.893 431.236 461.928 431.149C461.957 431.056 461.998 430.939 462.033 430.823L462.12 430.549C462.19 430.339 462.26 430.124 462.325 429.897L462.377 429.728C462.395 429.67 462.412 429.611 462.43 429.553C462.506 429.309 462.576 429.076 462.651 428.843C462.651 428.819 462.663 428.802 462.669 428.779C462.745 428.528 462.827 428.278 462.903 428.022L463.241 426.863C463.294 426.682 463.346 426.502 463.399 426.321C463.44 426.164 463.486 426.007 463.533 425.844C463.737 425.116 463.947 424.329 464.158 423.514L464.216 423.287C464.239 423.2 464.263 423.118 464.286 423.025C464.374 422.681 464.455 422.35 464.537 422.018C464.665 421.511 464.788 420.998 464.899 420.486C465.022 419.962 465.138 419.438 465.249 418.914C466.282 414.039 466.761 409.922 466.674 406.667L466.638 405.892C466.638 405.741 466.621 405.601 466.609 405.467C466.609 405.432 466.609 405.403 466.609 405.368C466.592 405.083 466.557 404.78 466.522 404.483C466.522 404.466 466.516 404.448 466.51 404.425C466.487 404.262 466.463 404.105 466.44 403.947C466.423 403.831 466.411 403.755 466.393 403.674L466.347 403.429C466.335 403.377 466.329 403.324 466.317 403.278C466.312 403.254 466.306 403.237 466.3 403.214C466.224 402.829 466.125 402.445 466.002 402.043L465.897 401.734C465.868 401.635 465.833 401.554 465.798 401.472C465.722 401.274 465.646 401.094 465.57 400.931L465.401 400.593C465.378 400.546 465.337 400.477 465.296 400.412C465.284 400.395 465.273 400.378 465.261 400.36C465.22 400.284 465.173 400.214 465.127 400.139C465.074 400.063 465.022 399.987 464.969 399.906C464.864 399.76 464.753 399.626 464.636 399.498C464.625 399.481 464.607 399.469 464.595 399.452C464.514 399.364 464.449 399.294 464.379 399.236C464.268 399.131 464.175 399.056 464.076 398.98C463.947 398.875 463.836 398.794 463.714 398.724C463.597 398.648 463.515 398.607 463.44 398.566C463.364 398.531 463.288 398.491 463.206 398.456C463.101 398.403 463.037 398.38 462.973 398.357C462.78 398.281 462.616 398.229 462.447 398.188C462.325 398.153 462.225 398.135 462.126 398.118C462.009 398.095 461.881 398.077 461.753 398.06C461.63 398.042 461.507 398.031 461.385 398.025C461.14 398.007 460.9 398.007 460.626 398.019C460.468 398.019 460.316 398.036 460.165 398.048C460.165 398.048 460.153 398.048 460.147 398.048C460.13 398.048 460.112 398.048 460.095 398.048C460.007 398.06 459.925 398.066 459.832 398.083C459.704 398.095 459.628 398.112 459.546 398.124C459.342 398.159 459.19 398.182 459.026 398.217C458.962 398.229 458.921 398.234 458.886 398.246C458.746 398.281 458.653 398.299 458.559 398.322C458.402 398.357 458.268 398.392 458.139 398.432L458.046 398.462C457.935 398.497 457.818 398.531 457.707 398.566C457.596 398.601 457.532 398.625 457.468 398.648L457.334 398.695C456.867 398.863 456.423 399.044 456.008 399.236C455.763 399.341 455.541 399.452 455.32 399.568C455.074 399.696 454.812 399.836 454.555 399.97C454.047 400.261 453.621 400.517 453.236 400.768C452.99 400.913 452.763 401.065 452.541 401.222C452.296 401.385 452.062 401.554 451.829 401.723C451.671 401.833 451.525 401.944 451.373 402.055C451.368 402.061 451.356 402.066 451.344 402.072C451.327 402.084 451.309 402.095 451.292 402.107C450.825 402.462 450.358 402.829 449.897 403.208C449.897 403.208 449.867 403.231 449.85 403.243C449.61 403.441 449.389 403.627 449.167 403.819C449.144 403.837 449.12 403.86 449.097 403.872C448.869 404.07 448.642 404.268 448.42 404.46L447.346 405.444C447.095 405.677 446.855 405.904 446.622 406.131L446.254 406.492C446.009 406.725 445.775 406.964 445.542 407.203C445.279 407.471 445.046 407.709 444.812 407.954L444.573 408.204C444.421 408.361 444.275 408.513 444.129 408.676C443.627 409.218 443.131 409.765 442.629 410.324C442.442 410.534 442.255 410.749 442.068 410.959L441.695 411.384C441.601 411.495 441.496 411.623 441.385 411.745L439.027 414.598C438.531 415.222 438.029 415.856 437.55 416.485C437.41 416.666 437.276 416.84 437.142 417.015L436.756 417.522C436.184 418.279 435.63 419.03 435.093 419.77C435.075 419.793 435.063 419.816 435.046 419.84C434.918 420.008 434.795 420.183 434.672 420.352L434.503 420.585C434.503 420.585 434.48 420.614 434.468 420.626L434.293 420.87C434.17 421.045 434.048 421.22 433.919 421.394C433.902 421.424 433.849 421.499 433.791 421.581L433.75 421.639C433.627 421.814 433.505 421.988 433.376 422.169C433.312 422.268 433.23 422.379 433.155 422.489C433.143 422.513 433.131 422.53 433.114 422.547C432.944 422.792 432.769 423.042 432.6 423.281C432.577 423.316 432.53 423.386 432.489 423.45L432.39 423.596C432.197 423.875 432.016 424.143 431.841 424.405L431.678 424.644C431.491 424.912 431.327 425.156 431.164 425.407C431.018 425.634 430.86 425.867 430.709 426.094C430.639 426.21 430.539 426.362 430.44 426.507L430.388 426.589C430.294 426.735 430.195 426.892 430.09 427.049C429.897 427.346 429.705 427.643 429.524 427.923L429.465 428.01C429.407 428.103 429.349 428.19 429.284 428.284L428.771 429.099C428.689 429.239 428.595 429.384 428.508 429.524L428.426 429.652C428.362 429.757 428.28 429.897 428.193 430.025L428.053 430.252C427.93 430.45 427.819 430.636 427.708 430.811C427.545 431.073 427.387 431.335 427.247 431.574L426.85 432.232C426.798 432.319 426.751 432.395 426.71 432.465L426.5 432.82C426.418 432.954 426.366 433.041 426.348 433.076C426.138 433.449 425.688 433.618 425.28 433.472C424.877 433.327 424.638 432.907 424.719 432.488C424.883 431.644 428.73 411.698 428.304 396.173C428.304 396.004 428.304 395.859 428.292 395.713C428.245 394.42 428.187 393.378 428.099 392.423C428.082 392.126 428.053 391.858 428.023 391.596C428.012 391.427 427.994 391.275 427.977 391.13C427.953 390.885 427.924 390.658 427.895 390.431L427.878 390.268C427.866 390.198 427.86 390.128 427.854 390.058C427.831 389.872 427.802 389.657 427.767 389.447C427.732 389.173 427.691 388.923 427.65 388.684C427.586 388.305 427.521 387.939 427.445 387.578C427.399 387.35 427.352 387.129 427.305 386.914C427.288 386.82 427.276 386.78 427.265 386.733C427.171 386.343 427.084 385.988 426.984 385.644C426.587 384.2 426.091 382.977 425.507 382.004C425.432 381.876 425.356 381.76 425.28 381.643C425.268 381.632 425.262 381.62 425.251 381.603C425.163 381.475 425.076 381.352 424.982 381.23C424.976 381.218 424.965 381.207 424.959 381.201L424.924 381.154C424.865 381.079 424.801 381.003 424.743 380.933C424.725 380.915 424.708 380.898 424.696 380.875C424.62 380.787 424.556 380.723 424.492 380.653L424.433 380.595C424.346 380.508 424.258 380.421 424.171 380.339C424.159 380.327 424.147 380.316 424.13 380.31C423.937 380.141 423.727 379.99 423.511 379.856C423.394 379.78 423.278 379.722 423.167 379.663C423.067 379.611 422.968 379.57 422.875 379.53L422.816 379.506C422.781 379.489 422.729 379.477 422.676 379.46C422.653 379.454 422.635 379.448 422.618 379.436C422.589 379.425 422.565 379.413 422.536 379.407C422.513 379.401 422.484 379.396 422.46 379.384C422.431 379.378 422.402 379.366 422.373 379.355C422.279 379.332 422.186 379.308 422.093 379.291C422.063 379.291 422.034 379.279 422.005 379.273C421.976 379.273 421.947 379.262 421.923 379.256C421.859 379.244 421.731 379.227 421.608 379.215C421.38 379.198 421.164 379.198 420.931 379.215C420.896 379.215 420.837 379.215 420.802 379.221C420.773 379.221 420.744 379.227 420.709 379.232C420.651 379.232 420.592 379.244 420.534 379.256C420.516 379.256 420.493 379.262 420.476 379.267C420.411 379.273 420.341 379.279 420.277 379.297C420.049 379.337 419.868 379.378 419.687 379.425C418.567 379.716 417.282 380.304 415.864 381.178C415.619 381.323 415.379 381.475 415.14 381.632C414.889 381.795 414.65 381.952 414.399 382.127C414.27 382.214 414.154 382.301 414.031 382.389L413.64 382.674C413.383 382.855 413.126 383.047 412.875 383.245C412.764 383.326 412.682 383.396 412.595 383.46L412.466 383.559C412.046 383.88 411.632 384.217 411.217 384.561L410.855 384.87C410.721 384.986 410.581 385.103 410.447 385.219L410.307 385.335C410.219 385.411 410.131 385.487 410.044 385.568C409.816 385.766 409.606 385.953 409.396 386.139L409.192 386.325C408.655 386.803 408.077 387.333 407.487 387.904C407.195 388.177 406.903 388.457 406.617 388.736C404.697 390.606 402.677 392.691 400.622 394.95C400.342 395.253 400.103 395.515 399.869 395.783C396.279 399.754 392.356 404.425 388.194 409.672L387.26 410.848C386.647 411.628 386.04 412.403 385.445 413.172C385.252 413.41 385.077 413.638 384.908 413.865C384.318 414.628 383.746 415.367 383.18 416.107L382.263 417.312C377.634 423.404 373.618 428.994 371.067 432.61C368.843 435.761 367.465 437.782 367.092 438.323C367.027 438.416 366.969 438.504 366.917 438.574C366.736 438.847 366.625 439.005 366.625 439.005C366.461 439.243 366.193 439.383 365.907 439.383L365.912 439.418ZM366.14 342.405V436.664C366.8 435.703 367.985 433.985 369.637 431.644C372.199 428.016 376.227 422.408 380.868 416.299L381.785 415.088C382.351 414.342 382.929 413.597 383.513 412.846C383.682 412.618 383.869 412.38 384.061 412.135C384.651 411.372 385.264 410.592 385.877 409.812L386.817 408.624C390.996 403.353 394.948 398.654 398.556 394.659C398.789 394.391 399.04 394.117 399.285 393.849C401.399 391.532 403.442 389.412 405.386 387.525C405.677 387.24 405.975 386.954 406.273 386.675C406.88 386.098 407.464 385.551 408.018 385.062L408.217 384.881C408.439 384.683 408.655 384.485 408.876 384.299C408.952 384.229 409.057 384.142 409.157 384.054L409.285 383.944C409.431 383.821 409.571 383.699 409.717 383.577L410.079 383.268C410.528 382.901 410.955 382.546 411.387 382.22L411.497 382.133C411.597 382.051 411.696 381.975 411.795 381.9C412.046 381.702 412.326 381.492 412.601 381.294L412.98 381.02C413.12 380.915 413.255 380.822 413.383 380.735C413.64 380.554 413.903 380.38 414.171 380.205C414.422 380.042 414.679 379.879 414.936 379.728C416.494 378.767 417.942 378.109 419.232 377.777C419.46 377.718 419.687 377.666 419.909 377.625C419.985 377.608 420.108 377.59 420.23 377.573C420.335 377.555 420.446 377.544 420.551 377.532C420.656 377.52 420.762 377.509 420.867 377.509C421.112 377.491 421.439 377.497 421.736 377.515C421.923 377.526 422.116 377.555 422.303 377.59C422.32 377.59 422.361 377.596 422.414 377.614C422.536 377.637 422.67 377.666 422.793 377.695C422.834 377.707 422.881 377.718 422.921 377.736C422.951 377.742 422.974 377.753 423.003 377.759C423.091 377.782 423.178 377.812 423.266 377.846C423.348 377.876 423.423 377.899 423.505 377.934L423.575 377.963C423.715 378.021 423.855 378.085 423.99 378.161C424.136 378.237 424.287 378.318 424.439 378.411C424.719 378.58 424.994 378.784 425.256 379.011C425.274 379.023 425.297 379.04 425.315 379.058C425.437 379.168 425.554 379.285 425.671 379.401L425.735 379.465C425.846 379.588 425.934 379.675 426.009 379.768C426.027 379.786 426.039 379.797 426.05 379.815C426.132 379.908 426.208 380.007 426.29 380.106L426.336 380.17C426.336 380.17 426.371 380.217 426.389 380.24C426.488 380.374 426.593 380.514 426.687 380.653C426.698 380.671 426.71 380.688 426.722 380.706C426.809 380.834 426.891 380.974 426.979 381.108C427.667 382.255 428.228 383.629 428.666 385.219C428.765 385.58 428.864 385.959 428.952 386.343C428.975 386.436 428.992 386.523 429.01 386.605C429.057 386.791 429.103 387.024 429.15 387.269C429.226 387.647 429.302 388.038 429.366 388.439C429.407 388.696 429.454 388.964 429.489 389.237C429.524 389.447 429.553 389.674 429.582 389.901L429.629 390.274C429.658 390.495 429.687 390.74 429.71 390.99C429.728 391.147 429.745 391.31 429.757 391.479C429.786 391.747 429.816 392.038 429.833 392.335C429.915 393.302 429.979 394.368 430.026 395.678C430.032 395.864 430.037 396.027 430.037 396.19C430.347 407.564 428.397 421.272 427.235 428.278C427.247 428.26 427.253 428.249 427.265 428.231L427.813 427.369C427.883 427.27 427.93 427.189 427.983 427.113L428.041 427.026C428.222 426.746 428.415 426.443 428.613 426.141C428.712 425.995 428.806 425.844 428.905 425.692L428.969 425.593C429.057 425.459 429.15 425.319 429.238 425.18C429.407 424.935 429.553 424.714 429.693 424.493C429.874 424.219 430.049 423.957 430.236 423.689L430.382 423.468C430.557 423.206 430.744 422.932 430.925 422.664C430.954 422.617 431.001 422.553 431.047 422.489L431.152 422.338C431.327 422.087 431.485 421.86 431.643 421.639C431.643 421.639 431.643 421.639 431.643 421.633C431.66 421.61 431.672 421.581 431.689 421.557C431.771 421.441 431.859 421.319 431.94 421.196C432.081 421.004 432.197 420.841 432.314 420.672L432.361 420.608C432.407 420.544 432.442 420.498 432.472 420.451C432.623 420.236 432.74 420.073 432.863 419.904L433.055 419.63C433.055 419.63 433.079 419.595 433.096 419.578L433.248 419.368C433.365 419.211 433.476 419.048 433.598 418.89C433.61 418.873 433.622 418.85 433.633 418.832C434.194 418.063 434.766 417.289 435.361 416.503L435.741 416.002C435.875 415.821 436.015 415.641 436.161 415.454C436.645 414.82 437.153 414.173 437.661 413.533L440.02 410.679C440.02 410.679 440.055 410.638 440.06 410.633C440.16 410.516 440.265 410.4 440.358 410.283L440.714 409.876C440.936 409.619 441.129 409.404 441.321 409.188C441.823 408.624 442.331 408.064 442.845 407.511C442.997 407.342 443.154 407.185 443.312 407.022L443.539 406.783C443.773 406.533 444.018 406.283 444.263 406.032C444.532 405.753 444.777 405.514 445.022 405.275L445.39 404.914C445.641 404.669 445.892 404.431 446.143 404.198L447.246 403.184C447.503 402.957 447.748 402.742 448.005 402.526C448.023 402.509 448.046 402.497 448.064 402.48C448.285 402.288 448.507 402.101 448.735 401.915C448.752 401.903 448.77 401.886 448.787 401.874C449.278 401.472 449.768 401.088 450.264 400.709C450.282 400.692 450.305 400.68 450.329 400.669C450.486 400.546 450.638 400.436 450.796 400.325C451.029 400.156 451.28 399.982 451.531 399.813C451.776 399.638 452.039 399.463 452.296 399.312C452.687 399.056 453.142 398.788 453.691 398.467C453.983 398.31 454.246 398.17 454.502 398.036C454.765 397.903 455.016 397.78 455.273 397.67C455.717 397.46 456.201 397.262 456.744 397.064L456.878 397.017C456.977 396.982 457.071 396.947 457.17 396.924C457.258 396.895 457.392 396.854 457.526 396.814L457.62 396.784C457.789 396.732 457.964 396.685 458.133 396.645C458.227 396.621 458.338 396.592 458.454 396.569C458.501 396.557 458.577 396.54 458.653 396.522C458.834 396.482 459.021 396.453 459.207 396.418L459.272 396.406C459.382 396.388 459.488 396.371 459.598 396.359C459.674 396.348 459.797 396.33 459.914 396.319C459.92 396.319 459.931 396.319 459.937 396.319C459.955 396.319 459.972 396.319 459.99 396.319C460.176 396.301 460.363 396.289 460.55 396.284C460.883 396.272 461.18 396.272 461.466 396.289C461.624 396.295 461.793 396.313 461.957 396.336C462.114 396.353 462.266 396.383 462.418 396.406C462.581 396.435 462.739 396.464 462.891 396.511C463.107 396.563 463.34 396.639 463.574 396.732C463.673 396.767 463.807 396.825 463.936 396.883C464 396.913 464.111 396.965 464.216 397.017C464.379 397.105 464.514 397.175 464.636 397.256C464.8 397.349 464.987 397.483 465.162 397.623C465.278 397.71 465.418 397.833 465.553 397.955C465.652 398.042 465.757 398.153 465.868 398.269C465.885 398.287 465.915 398.316 465.944 398.357C466.101 398.526 466.242 398.706 466.376 398.887C466.446 398.98 466.51 399.079 466.574 399.178C466.638 399.277 466.703 399.376 466.761 399.481C466.831 399.586 466.89 399.69 466.954 399.807L467.053 399.999C467.088 400.069 467.123 400.139 467.158 400.203C467.251 400.407 467.339 400.61 467.421 400.82C467.473 400.937 467.52 401.07 467.567 401.204L467.602 401.315C467.625 401.385 467.648 401.455 467.672 401.525C467.812 401.985 467.923 402.416 468.01 402.853C468.034 402.934 468.051 403.021 468.063 403.109L468.11 403.365C468.127 403.476 468.15 403.58 468.162 403.691C468.185 403.819 468.209 403.982 468.232 404.157C468.232 404.18 468.244 404.204 468.244 404.227C468.285 404.57 468.326 404.92 468.349 405.269C468.349 405.287 468.349 405.298 468.349 405.316C468.366 405.479 468.378 405.648 468.384 405.817L468.419 406.603C468.512 410.01 468.022 414.267 466.96 419.275C466.849 419.81 466.726 420.346 466.603 420.876C466.487 421.4 466.364 421.924 466.23 422.443C466.148 422.775 466.066 423.118 465.979 423.456C465.967 423.503 465.956 423.549 465.944 423.602C467.491 420.568 469.324 417.097 471.367 413.48C474.262 408.344 477.099 403.767 479.802 399.877V342.405H366.14Z" fill="#070600"/>
<path d="M469.534 328.603H423.383C422.396 328.603 421.596 329.401 421.596 330.385V338.981C421.596 339.965 422.396 340.763 423.383 340.763H469.534C470.52 340.763 471.32 339.965 471.32 338.981V330.385C471.32 329.401 470.52 328.603 469.534 328.603Z" fill="#070600"/>
<path d="M330.35 90.167C330.012 90.167 329.691 89.969 329.545 89.6429C329.352 89.2003 329.551 88.6878 329.994 88.4898C345.16 81.8627 360.157 67.7291 376.04 52.7686C396.804 33.2076 418.269 12.9768 440.574 10.4902C441.053 10.4378 441.491 10.7814 441.543 11.2589C441.596 11.7364 441.251 12.1674 440.773 12.2256C419.051 14.6482 397.803 34.6751 377.249 54.0382C361.254 69.1093 346.147 83.3419 330.706 90.0913C330.59 90.1437 330.473 90.167 330.356 90.167H330.35Z" fill="#070600"/>
<path d="M450.311 24.9091C443.148 24.8684 436.114 25.41 430.405 26.0389C433.487 17.9151 437.136 12.5051 440.673 11.3579C440.685 11.3579 440.691 11.3521 440.691 11.3579C441.304 11.2939 441.917 11.224 442.535 11.1599C446.131 11.585 448.828 16.7854 450.311 24.9091Z" fill="#070600"/>
<path d="M430.405 26.9124C430.137 26.9124 429.88 26.7901 429.71 26.5746C429.524 26.3359 429.477 26.0156 429.582 25.7302C431.888 19.6447 435.641 12.0684 440.399 10.5252C440.446 10.5077 440.492 10.496 440.539 10.4902C440.574 10.4844 440.615 10.4786 440.65 10.4786L442.436 10.2864C442.5 10.2806 442.565 10.2806 442.629 10.2864C446.569 10.7523 449.523 15.7546 451.163 24.7461C451.21 25.0023 451.14 25.2644 450.971 25.4624C450.801 25.6604 450.556 25.7768 450.299 25.7768C444.252 25.7419 437.579 26.1204 430.493 26.9008C430.458 26.9008 430.429 26.9008 430.393 26.9008L430.405 26.9124ZM440.854 12.2198C437.906 13.2447 434.62 17.8744 431.742 25.0198C437.953 24.3792 443.831 24.0473 449.249 24.0356C447.789 16.8029 445.361 12.4644 442.524 12.0393L440.854 12.2198Z" fill="#070600"/>
<path d="M440.691 12.2314C440.282 12.2314 439.92 11.9461 439.833 11.5384C439.739 11.1017 439.99 10.6649 440.416 10.5252C441.152 10.2806 441.893 10.2049 442.635 10.2864C443.078 10.3388 443.411 10.7115 443.411 11.1599C443.411 11.6083 443.073 11.9752 442.629 12.0218L440.784 12.2198C440.755 12.2198 440.72 12.2198 440.691 12.2198V12.2314Z" fill="#070600"/>
<path d="M444.398 86.2361C440.667 96.7125 436.009 103.188 431.695 102.682C431.094 102.612 430.522 102.408 429.973 102.082C426.908 100.242 424.679 94.5346 423.529 86.4516C426.196 85.7004 430.79 84.8851 437.241 85.4092C440.095 85.6421 442.46 85.9333 444.403 86.2361H444.398Z" fill="#070600"/>
<path d="M432.18 103.584C431.981 103.584 431.789 103.573 431.59 103.549C430.901 103.468 430.224 103.241 429.582 102.868C429.559 102.856 429.535 102.845 429.512 102.833C425.402 100.364 423.511 92.6303 422.653 86.5797C422.589 86.1488 422.863 85.7353 423.283 85.6188C426.062 84.8385 430.75 84.0116 437.305 84.5473C439.914 84.7628 442.343 85.0423 444.532 85.3801C444.789 85.4209 445.016 85.5723 445.151 85.7936C445.285 86.0149 445.308 86.2886 445.221 86.5331C441.286 97.5744 436.68 103.59 432.18 103.59V103.584ZM430.364 101.301C430.364 101.301 430.399 101.319 430.417 101.331C430.872 101.598 431.322 101.756 431.794 101.814C435.297 102.216 439.634 96.5553 443.207 86.9408C441.339 86.6787 439.313 86.4516 437.159 86.2769C431.421 85.811 427.2 86.4167 424.498 87.0922C425.648 94.5404 427.767 99.6942 430.364 101.301Z" fill="#070600"/>
<path d="M423.523 87.3251C423.353 87.3251 423.19 87.2785 423.044 87.1853C422.834 87.0456 422.688 86.8243 422.653 86.5797C421.398 77.8329 421.456 66.7042 422.816 55.2378C424.107 44.2897 426.512 33.8132 429.588 25.7302C429.705 25.4216 429.985 25.2061 430.312 25.1712C437.463 24.385 444.182 24.0007 450.317 24.0356C450.801 24.0356 451.193 24.4316 451.187 24.915C451.187 25.3983 450.79 25.771 450.305 25.7827C444.392 25.7535 437.924 26.1088 431.036 26.8484C428.099 34.7275 425.805 44.8545 424.556 55.4358C423.266 66.3315 423.161 76.9069 424.258 85.351C427.107 84.658 431.468 84.0582 437.305 84.5357C439.903 84.7453 442.331 85.0307 444.52 85.3684C444.946 85.4267 445.279 85.7935 445.279 86.2361C445.279 86.7661 444.789 87.1795 444.263 87.098C442.115 86.7661 439.728 86.4865 437.165 86.2769C430.878 85.7644 426.406 86.5448 423.762 87.2902C423.686 87.3135 423.604 87.3251 423.523 87.3251Z" fill="#070600"/>
<path d="M478.81 128.59C473.679 128.59 470.567 125.329 470.118 121.911C470.106 121.841 470.1 121.783 470.088 121.719C470.007 120.985 470.048 120.257 470.211 119.546C470.369 118.877 470.847 117.893 471.77 116.355C471.816 116.279 471.851 116.221 471.886 116.163C471.898 116.145 471.91 116.122 471.921 116.105C473.357 113.752 475.593 110.491 477.957 107.043C482.791 100.003 488.803 91.2385 489.93 87.2203C491.868 80.2904 490.543 76.342 490.531 76.3013C490.374 75.847 490.613 75.3462 491.068 75.189C491.524 75.0318 492.02 75.2647 492.183 75.7189C492.248 75.8995 493.725 80.1739 491.617 87.692C490.415 91.9839 484.565 100.509 479.405 108.028C477.041 111.475 474.805 114.736 473.398 117.048C473.398 117.048 473.381 117.071 473.375 117.083C473.334 117.147 473.299 117.211 473.258 117.269C472.283 118.9 471.992 119.622 471.916 119.942C471.799 120.455 471.77 120.985 471.828 121.526C471.828 121.555 471.828 121.573 471.84 121.602C471.846 121.631 471.851 121.666 471.851 121.695C472.219 124.409 474.799 127.158 479.609 126.802C479.615 126.802 479.621 126.802 479.627 126.802L479.814 126.785C485.721 126.255 501.424 111.784 509.223 102.449C511.838 99.3215 518.166 90.8367 520.495 79.5857C520.495 79.5741 520.495 79.5566 520.501 79.545C521.634 74.0825 521.645 68.7541 520.536 63.7051C520.244 62.3482 519.847 60.9564 519.363 59.5646C513.093 41.704 482.552 29.3874 463.877 26.6853C459.855 26.0971 455.29 25.7943 450.305 25.7768C449.821 25.7768 449.43 25.3808 449.435 24.8975C449.435 24.4141 449.827 24.0298 450.311 24.0298C455.378 24.0473 460.03 24.3617 464.128 24.9615C483.223 27.7219 514.506 40.4462 521.015 58.9939C521.523 60.4498 521.937 61.9115 522.247 63.3382C523.402 68.6085 523.396 74.1699 522.223 79.8653C522.223 79.8769 522.223 79.8944 522.217 79.906C519.812 91.5588 513.268 100.341 510.566 103.573C503.374 112.191 486.994 127.903 479.966 128.532L479.75 128.549C479.75 128.549 479.726 128.549 479.709 128.549C479.399 128.573 479.096 128.584 478.798 128.584L478.81 128.59Z" fill="#070600"/>
<path d="M537.313 126.575C534.902 126.575 532.637 126.261 530.909 125.783C524.074 123.891 517.582 120.682 512.691 118.102C512.264 117.875 512.101 117.351 512.329 116.92C512.556 116.495 513.082 116.332 513.514 116.559C518.33 119.098 524.71 122.248 531.382 124.1C537.64 125.836 547.891 124.834 550.033 118.487C550.179 118.061 550.278 117.648 550.331 117.211C550.395 116.734 550.839 116.396 551.311 116.46C551.79 116.524 552.129 116.961 552.064 117.438C551.994 117.98 551.866 118.521 551.685 119.046C549.759 124.753 543.121 126.575 537.313 126.575Z" fill="#070600"/>
<path d="M533.583 98.017C533.419 98.017 533.25 97.9704 533.104 97.8714C529.643 95.6003 525.872 92.6186 524.12 87.6978C521.92 81.5016 521.499 75.8936 521.377 70.7515C521.365 70.2681 521.75 69.8663 522.229 69.8547C522.725 69.8372 523.116 70.2274 523.128 70.7049C523.291 77.5359 524.056 82.2878 525.766 87.1038C527.343 91.5355 530.845 94.29 534.062 96.4039C534.464 96.6718 534.575 97.2134 534.313 97.6152C534.143 97.8714 533.863 98.0112 533.583 98.0112V98.017Z" fill="#070600"/>
<path d="M467.059 158.057C465.996 158.057 465.022 157.836 464.175 157.381C462.897 156.7 461.303 155.163 460.959 151.733C460.918 151.308 460.894 150.888 460.894 150.446C460.883 150.271 460.889 150.096 460.894 149.927C460.97 147.132 461.881 144.308 463.603 141.53C463.696 141.384 463.784 141.245 463.889 141.099C467.427 135.654 473.579 131.106 478.518 127.455L479.154 126.983C479.545 126.698 480.094 126.779 480.38 127.163C480.666 127.554 480.59 128.095 480.199 128.386L479.557 128.858C474.729 132.428 468.717 136.871 465.337 142.077C465.232 142.223 465.162 142.345 465.086 142.462C463.51 145.001 462.71 147.458 462.64 149.974C462.64 150.114 462.628 150.236 462.64 150.358C462.64 150.382 462.64 150.405 462.64 150.422C462.64 150.818 462.657 151.191 462.692 151.57C462.902 153.678 463.696 155.157 464.992 155.85C466.522 156.665 468.758 156.421 471.128 155.169C487.648 146.422 503.438 131.752 512.334 116.891C517.857 107.678 520.635 97.5919 520.834 86.0614C520.84 85.5839 521.231 85.2054 521.709 85.2054H521.727C522.211 85.2112 522.597 85.613 522.585 86.0963C522.381 97.9413 519.52 108.307 513.835 117.794C504.781 132.917 488.728 147.831 471.945 156.723C470.24 157.62 468.559 158.08 467.041 158.08L467.059 158.057Z" fill="#070600"/>
<path d="M386.046 106.234C385.643 106.234 385.281 105.954 385.194 105.541C385.095 105.069 385.392 104.603 385.865 104.504C406.705 100.038 426.307 100.975 430.026 101.208C430.51 101.237 430.878 101.651 430.843 102.134C430.808 102.618 430.393 102.984 429.915 102.949C426.237 102.717 406.851 101.791 386.233 106.211C386.169 106.222 386.11 106.228 386.046 106.228V106.234Z" fill="#070600"/>
<path d="M430.761 103.008C430.761 103.008 430.714 103.008 430.685 103.008C430.679 103.008 430.411 102.984 429.921 102.955C429.436 102.926 429.068 102.513 429.097 102.035C429.127 101.552 429.535 101.191 430.02 101.214C430.551 101.243 430.831 101.267 430.831 101.267C431.316 101.307 431.672 101.732 431.631 102.21C431.59 102.664 431.211 103.008 430.761 103.008Z" fill="#070600"/>
<path d="M451.946 88.9208C451.823 88.9208 451.7 88.8975 451.584 88.8392C451.566 88.8334 449.5 87.9191 444.287 87.098C443.861 87.0398 443.528 86.6729 443.528 86.2303C443.528 85.747 443.919 85.3568 444.403 85.3568C444.45 85.3568 444.497 85.3568 444.538 85.3684C450.054 86.2303 452.22 87.2087 452.307 87.2494C452.745 87.4532 452.938 87.9715 452.739 88.4083C452.593 88.7286 452.272 88.9149 451.946 88.9149V88.9208Z" fill="#070600"/>
<path d="M551.195 117.322C546.694 117.071 542.275 115.179 539.059 112.011C535.165 108.179 533.116 102.571 533.583 97.1435C536.373 98.9779 539.385 100.579 542.047 102.42C546.39 105.419 552.024 111.493 551.195 117.322Z" fill="#070600"/>
<path d="M551.195 116.448C546.355 116.145 541.72 113.915 538.58 110.211C535.439 106.508 534.085 101.82 534.459 97.1435L533.139 97.9005C537.202 100.556 541.639 102.67 545.118 106.117C548.042 109.018 550.88 112.989 550.319 117.322C550.173 118.434 551.93 118.422 552.07 117.322C552.666 112.704 549.747 108.348 546.671 105.192C543.028 101.465 538.341 99.205 534.027 96.3864C533.431 95.9963 532.76 96.5262 532.707 97.1435C532.054 105.366 536.794 113.362 544.417 116.606C546.577 117.526 548.854 118.05 551.195 118.195C552.321 118.265 552.315 116.518 551.195 116.448Z" fill="#070600"/>
<path d="M487.703 120.422C491.624 116.873 492.937 111.946 490.636 109.416C488.335 106.886 483.292 107.713 479.372 111.261C475.451 114.81 474.138 119.738 476.439 122.267C478.74 124.797 483.783 123.97 487.703 120.422Z" fill="#070600"/>
<path d="M480.152 124.001C478.565 124.001 477.169 123.501 476.212 122.452C473.807 119.808 475.132 114.69 479.166 111.038C481.104 109.285 483.375 108.121 485.552 107.765C487.782 107.399 489.656 107.911 490.841 109.21C493.246 111.854 491.921 116.972 487.887 120.624C485.453 122.831 482.575 124.001 480.146 124.001H480.152ZM486.912 108.226C486.509 108.226 486.089 108.26 485.651 108.33C483.579 108.668 481.413 109.78 479.563 111.463C475.768 114.899 474.461 119.651 476.65 122.056C478.839 124.461 483.707 123.623 487.502 120.187C491.296 116.751 492.604 111.999 490.415 109.594C489.597 108.691 488.377 108.226 486.912 108.226Z" fill="#070600"/>
<path d="M478.005 149.631C481.925 146.083 483.238 141.155 480.937 138.626C478.637 136.096 473.593 136.922 469.673 140.471C465.753 144.02 464.44 148.947 466.74 151.477C469.041 154.006 474.084 153.18 478.005 149.631Z" fill="#070600"/>
<path d="M470.45 153.218C468.822 153.218 467.45 152.682 466.522 151.657C464.117 149.013 465.442 143.894 469.476 140.243C473.509 136.592 478.745 135.771 481.151 138.414C483.556 141.058 482.23 146.177 478.197 149.828C476.259 151.581 473.988 152.746 471.811 153.101C471.344 153.177 470.888 153.218 470.456 153.218H470.45ZM477.204 137.43C474.934 137.43 472.196 138.56 469.867 140.674C466.072 144.11 464.765 148.862 466.954 151.267C467.999 152.414 469.686 152.862 471.717 152.531C473.789 152.193 475.955 151.08 477.806 149.398C481.6 145.962 482.908 141.21 480.719 138.805C479.872 137.879 478.635 137.43 477.204 137.43Z" fill="#070600"/>
<path d="M368.965 120.257C374.069 120.257 378.206 115.986 378.206 110.718C378.206 105.45 374.069 101.179 368.965 101.179C363.862 101.179 359.725 105.45 359.725 110.718C359.725 115.986 363.862 120.257 368.965 120.257Z" fill="#070600"/>
<path d="M129.184 285.719L127.544 285.108C127.69 284.718 142.284 245.875 163.316 202.147C182.755 161.737 211.826 108.773 239.963 85.9042C244.808 81.9617 249.554 78.9743 254.072 77.0176L254.772 78.619C250.4 80.5117 245.794 83.4176 241.072 87.261C219 105.197 192.655 145.187 164.892 202.904C143.889 246.562 129.324 285.335 129.178 285.719H129.184Z" fill="#070600"/>
<path d="M376.951 211.499C374.494 211.499 371.931 211.33 369.257 210.963C351.862 208.599 313.352 143.947 311.723 141.198C311.478 140.785 311.612 140.249 312.032 140.004C312.447 139.76 312.984 139.899 313.229 140.313C313.626 140.977 352.93 206.986 369.491 209.24C388.509 211.825 404.37 204.965 416.64 188.852C425.852 176.762 429.459 163.712 429.5 163.578C429.629 163.112 430.113 162.838 430.574 162.96C431.041 163.088 431.316 163.566 431.193 164.032C431.158 164.166 427.469 177.502 418.07 189.859C410.295 200.079 397.102 211.499 376.951 211.499Z" fill="#070600"/>
<path d="M380.471 163.95C380.243 163.95 380.016 163.863 379.847 163.688C379.508 163.345 379.514 162.791 379.864 162.454L404.312 138.671C404.656 138.333 405.211 138.339 405.549 138.688C405.888 139.032 405.882 139.585 405.532 139.923L381.084 163.706C380.915 163.869 380.693 163.956 380.471 163.956V163.95Z" fill="#070600"/>
<path d="M404.218 139.107C403.71 144.459 405.082 149.962 408.018 154.47C410.955 158.971 415.379 162.302 420.47 164.02C423.318 164.981 426.36 165.395 429.366 165.237C430.487 165.179 430.493 163.432 429.366 163.49C424.363 163.752 419.384 162.326 415.263 159.484C411.141 156.642 408.153 152.344 406.757 147.551C405.958 144.809 405.695 141.955 405.969 139.113C406.074 137.995 404.323 138.001 404.218 139.113V139.107Z" fill="#070600"/>
<path d="M405.053 140.552C405.222 140.616 404.889 140.47 405.035 140.546C405.088 140.575 405.14 140.598 405.193 140.627C405.24 140.651 405.281 140.68 405.321 140.709C405.502 140.82 405.205 140.598 405.327 140.709C405.403 140.779 405.479 140.843 405.549 140.919C405.572 140.942 405.619 141.018 405.648 141.035C405.572 140.93 405.549 140.907 405.59 140.959C405.607 140.983 405.619 141 405.637 141.023C405.695 141.105 405.748 141.192 405.8 141.285C405.823 141.332 405.847 141.379 405.87 141.425C405.888 141.454 405.899 141.489 405.911 141.518C405.858 141.396 405.847 141.367 405.87 141.431C405.929 141.641 405.999 141.844 406.039 142.06C406.074 142.246 406.022 141.844 406.039 142.037C406.039 142.089 406.045 142.141 406.051 142.194C406.051 142.299 406.051 142.404 406.051 142.508C406.051 142.567 406.039 142.631 406.034 142.689C406.034 142.776 406.08 142.468 406.034 142.66C406.01 142.77 405.987 142.875 405.952 142.98C405.934 143.027 405.917 143.079 405.899 143.126C405.847 143.277 405.993 142.951 405.905 143.102C405.858 143.19 405.812 143.283 405.753 143.37C405.73 143.411 405.683 143.452 405.666 143.498C405.742 143.318 405.736 143.411 405.672 143.481C405.59 143.574 405.502 143.656 405.403 143.731L406.898 144.349C406.816 143.306 406.74 142.264 406.658 141.227C406.623 140.773 406.279 140.33 405.783 140.354C405.339 140.371 404.872 140.738 404.907 141.227C404.989 142.27 405.065 143.312 405.146 144.349C405.175 144.704 405.345 145.001 405.683 145.146C406.022 145.292 406.36 145.193 406.641 144.966C407.633 144.156 407.919 142.811 407.721 141.606C407.522 140.4 406.676 139.323 405.502 138.88C405.07 138.717 404.522 139.061 404.422 139.492C404.312 139.987 404.574 140.394 405.035 140.569L405.053 140.552Z" fill="#070600"/>
<path d="M145.95 296.283L140.118 310.079C130.048 299.486 125.028 289.65 128.367 285.411C134.397 288.916 140.27 292.533 145.95 296.283Z" fill="#070600"/>
<path d="M140.118 310.952C139.879 310.952 139.651 310.853 139.482 310.679C128.641 299.276 124.117 289.388 127.678 284.869C127.947 284.525 128.431 284.432 128.805 284.653C135.022 288.264 140.947 291.933 146.428 295.549C146.779 295.782 146.913 296.231 146.749 296.615L140.918 310.411C140.801 310.684 140.556 310.877 140.27 310.929C140.217 310.941 140.165 310.941 140.112 310.941L140.118 310.952ZM128.653 286.593C126.744 290.506 131.087 299.043 139.832 308.501L144.858 296.615C139.791 293.284 134.345 289.918 128.653 286.593Z" fill="#070600"/>
<path d="M195.043 337.606C193.076 340.105 188.534 340.256 182.533 338.474L187.513 329.657C190.104 332.243 192.615 334.898 195.043 337.606Z" fill="#070600"/>
<path d="M189.515 340.541C187.472 340.541 185.049 340.134 182.282 339.307C182.025 339.231 181.821 339.045 181.722 338.794C181.623 338.55 181.64 338.27 181.768 338.037L186.748 329.221C186.882 328.982 187.121 328.819 187.39 328.784C187.664 328.749 187.933 328.836 188.126 329.034C190.665 331.567 193.21 334.252 195.691 337.018C195.977 337.333 195.989 337.804 195.726 338.142C194.471 339.738 192.364 340.541 189.509 340.541H189.515ZM183.841 337.938C188.587 339.202 192.078 339.074 193.846 337.589C191.827 335.353 189.766 333.175 187.705 331.096L183.841 337.938Z" fill="#070600"/>
<path d="M195.043 338.48C194.885 338.48 194.728 338.439 194.588 338.352C194.173 338.101 194.045 337.566 194.296 337.152L300.369 163.828C300.62 163.415 301.163 163.286 301.572 163.537C301.986 163.787 302.114 164.323 301.863 164.737L195.79 338.061C195.627 338.328 195.335 338.48 195.043 338.48Z" fill="#070600"/>
<path d="M246.337 74.7406C258.713 67.7291 273.522 68.3173 287.112 70.6234C301.572 73.0751 315.692 77.6465 330.45 78.1532C338.616 78.4327 346.812 77.3437 354.325 74.0243C355.352 73.5701 354.465 72.0676 353.444 72.516C339.696 78.5783 324.139 76.5575 309.89 73.6225C295.921 70.7457 281.975 66.7683 267.568 67.3564C259.857 67.6709 252.21 69.4005 245.456 73.2265C244.475 73.7797 245.356 75.2938 246.337 74.7348V74.7406Z" fill="#070600"/>
<path d="M309.195 171.311C300.988 163.729 294.076 154.813 288.799 144.972C283.061 134.256 279.523 122.545 275.565 111.108C272.098 101.08 268.496 90.6387 261.258 82.6139C256.699 77.565 250.879 74.199 244.347 72.3646C242.461 71.8347 240.611 71.5261 238.667 71.9104C236.723 72.2948 234.942 73.3022 233.576 74.6998C230.792 77.5417 229.905 81.8103 231.557 85.4558C232.07 86.5914 232.829 87.5755 233.641 88.5189C234.376 89.375 235.614 88.1346 234.878 87.2844C233.477 85.6596 232.461 83.8194 232.45 81.6298C232.444 79.8827 233.051 78.1765 234.09 76.7788C235.129 75.3812 236.723 74.2456 238.456 73.7623C240.19 73.2789 241.947 73.5177 243.699 74.001C249.904 75.7189 255.409 78.8345 259.781 83.5923C266.809 91.2327 270.306 101.301 273.651 110.922C277.509 122.016 280.924 133.371 286.254 143.877C291.105 153.433 297.497 162.227 305.092 169.803C306.026 170.735 306.983 171.649 307.952 172.546C308.781 173.309 310.018 172.074 309.189 171.311H309.195Z" fill="#070600"/>
<path d="M294.648 175.312C299.622 176.343 304.753 175.819 309.411 173.798C310.444 173.349 309.551 171.847 308.53 172.29C304.333 174.112 299.593 174.555 295.121 173.629C294.024 173.402 293.551 175.085 294.654 175.312H294.648Z" fill="#070600"/>
<path d="M310.17 172.959C314.869 166.355 317.59 158.47 318.022 150.387C318.08 149.264 316.329 149.269 316.27 150.387C315.856 158.173 313.182 165.721 308.658 172.074C308.004 172.994 309.522 173.868 310.17 172.953V172.959Z" fill="#070600"/>
<path d="M349.848 117.13C361.178 125.253 371.12 135.322 379.088 146.748C381.323 149.951 383.402 153.264 385.328 156.665C385.883 157.644 387.394 156.764 386.84 155.786C379.87 143.463 370.793 132.335 360.11 123.029C357.104 120.414 353.975 117.945 350.735 115.621C349.818 114.963 348.943 116.477 349.853 117.13H349.848Z" fill="#070600"/>
<path d="M91.3923 149.863C91.0479 149.863 90.7269 149.66 90.5868 149.328C90.4 148.885 90.6101 148.373 91.0537 148.186L240.295 85.7295C240.739 85.5431 241.253 85.7528 241.439 86.1954C241.626 86.638 241.416 87.1504 240.972 87.3368L91.7309 149.794C91.62 149.84 91.5033 149.863 91.3923 149.863Z" fill="#070600"/>
<path d="M98.5024 166.961C94.8656 168.662 89.9913 170.921 84.3932 173.495C85.2513 158.651 87.849 148.809 91.6784 148.495C91.7951 148.524 91.906 148.576 92.0228 148.635C94.2936 149.863 96.5293 156.904 98.5024 166.961Z" fill="#070600"/>
<path d="M84.3932 174.369C84.218 174.369 84.0487 174.316 83.9028 174.217C83.646 174.042 83.5059 173.751 83.5234 173.443C84.0663 164.003 85.8467 148.093 91.6083 147.621C91.7076 147.616 91.8009 147.621 91.8943 147.645C92.0987 147.697 92.2738 147.779 92.4197 147.848C93.3304 148.343 96.0331 149.805 99.3664 166.786C99.4423 167.182 99.2438 167.573 98.8818 167.747C95.0057 169.558 89.9972 171.882 84.7668 174.281C84.65 174.334 84.5274 174.363 84.399 174.363L84.3932 174.369ZM91.5791 149.392C89.3142 149.863 86.4305 156.06 85.3564 172.092C89.8221 170.036 94.0717 168.068 97.51 166.46C94.708 152.443 92.4548 149.863 91.6025 149.403C91.6025 149.403 91.5908 149.398 91.5791 149.392Z" fill="#070600"/>
<path d="M103.085 262.682L101.217 264.091C96.7862 264.458 91.8943 251.995 88.4619 233.483L104.918 225.207C105.753 242.992 105.356 258.093 103.085 262.682Z" fill="#070600"/>
<path d="M101.018 264.976C94.1535 264.976 89.3551 243.132 87.598 233.646C87.5279 233.261 87.7147 232.883 88.065 232.708L104.521 224.433C104.784 224.299 105.099 224.311 105.356 224.456C105.612 224.608 105.776 224.876 105.788 225.173C106.331 236.773 106.809 257.126 103.867 263.072C103.809 263.194 103.721 263.299 103.61 263.38L101.742 264.79C101.608 264.889 101.45 264.947 101.287 264.964C101.199 264.97 101.106 264.976 101.018 264.976ZM89.4426 233.966C93.202 253.888 97.9479 262.996 100.919 263.217L102.384 262.111C104.264 257.964 104.9 244.792 104.101 226.593L89.4426 233.966Z" fill="#070600"/>
<path d="M101.48 264.993C101.322 264.993 101.176 264.976 101.036 264.947C100.697 264.877 100.435 264.615 100.359 264.283C100.283 263.951 100.411 263.602 100.686 263.392L102.554 261.983C102.875 261.738 103.324 261.75 103.639 262.006C103.955 262.262 104.048 262.699 103.867 263.066C103.12 264.597 102.215 264.993 101.48 264.993Z" fill="#070600"/>
<path d="M88.4619 234.356C88.1408 234.356 87.8314 234.181 87.6797 233.873C87.4637 233.442 87.633 232.918 88.0708 232.702L104.019 224.683C103.067 204.965 100.674 183.04 97.8603 168.231C94.1535 169.96 89.5535 172.092 84.7668 174.293C84.3289 174.497 83.8094 174.305 83.6051 173.868C83.4008 173.431 83.5934 172.913 84.0312 172.709C89.2675 170.304 94.276 167.98 98.1346 166.175C98.3798 166.058 98.66 166.064 98.9052 166.187C99.1445 166.309 99.3196 166.536 99.3663 166.798C102.314 181.823 104.836 204.738 105.799 225.173C105.817 225.516 105.63 225.836 105.321 225.994L88.8647 234.269C88.7362 234.333 88.602 234.362 88.4736 234.362L88.4619 234.356Z" fill="#070600"/>
<path d="M103.085 263.555C102.822 263.555 102.559 263.433 102.384 263.211C102.092 262.827 102.168 262.28 102.554 261.989L153.422 223.594C153.807 223.303 154.356 223.379 154.647 223.763C154.939 224.148 154.863 224.695 154.478 224.986L103.61 263.38C103.453 263.497 103.266 263.555 103.085 263.555Z" fill="#070600"/>
<path d="M13.1465 380.776C11.7338 380.776 10.8932 380.712 10.8056 380.706C10.3503 380.671 9.99423 380.287 10.0001 379.832L11.1034 209.618C11.1267 207.329 12.481 205.25 14.5592 204.307L24.2085 199.939C35.5566 194.797 64.1079 181.852 84.0254 172.703C84.4632 172.499 84.9828 172.691 85.1871 173.134C85.3914 173.571 85.1988 174.089 84.7551 174.293C64.8317 183.442 36.2805 196.387 24.9266 201.529L15.2772 205.897C13.8178 206.555 12.8663 208.022 12.8488 209.63L11.7513 379.005C13.5551 379.064 18.1842 379.069 23.7882 377.969C32.562 376.239 44.4939 371.627 51.4989 359.503C60.3427 344.193 63.4424 325.033 65.9408 309.642C66.367 307.01 66.7464 304.366 67.0967 301.879L67.6687 297.791C68.0482 295.06 68.5152 291.84 69.0581 288.643C69.7702 284.403 70.5291 280.705 71.3872 277.351C73.8098 267.876 78.1529 259.741 82.7412 251.128C83.4825 249.736 84.2297 248.338 84.9652 246.935C85.1929 246.51 85.7183 246.341 86.1444 246.568C86.5706 246.789 86.7398 247.319 86.5122 247.744C85.7708 249.154 85.0236 250.551 84.2822 251.949C79.7407 260.469 75.4501 268.517 73.0743 277.782C72.2337 281.09 71.4806 284.735 70.7801 288.934C70.2431 292.113 69.7819 295.316 69.4025 298.036L68.8304 302.124C68.4743 304.616 68.0949 307.278 67.6687 309.922C65.1528 325.459 62.018 344.787 53.0166 360.376C45.6847 373.071 33.2567 377.882 24.1268 379.681C19.4568 380.601 15.5048 380.776 13.1406 380.776H13.1465Z" fill="#070600"/>
<path d="M23.9634 379.693C23.4847 379.693 23.0936 379.308 23.0877 378.831C22.7317 345.759 21.284 210.131 21.284 206.794C21.284 205.349 22.1129 203.224 23.8116 200.295C24.0568 199.875 24.588 199.736 25.0083 199.974C25.4286 200.219 25.5687 200.749 25.3293 201.168C23.4322 204.435 23.0352 206.031 23.0352 206.794C23.0352 210.066 24.4946 346.901 24.839 378.807C24.839 379.291 24.4537 379.687 23.975 379.693H23.9634Z" fill="#070600"/>
<path d="M73.3311 220.805C64.137 220.805 56.6534 213.677 56.6534 204.918C56.6534 196.16 64.137 189.026 73.3311 189.026C77.6333 189.026 81.7254 190.587 84.8427 193.423C88.1759 196.451 90.0089 200.533 90.0089 204.918C90.0089 208.564 88.7479 211.988 86.3662 214.818C83.1848 218.621 78.4331 220.805 73.3311 220.805ZM73.3311 190.773C65.1002 190.773 58.4046 197.121 58.4046 204.918C58.4046 212.716 65.1002 219.058 73.3311 219.058C77.9135 219.058 82.1749 217.107 85.0236 213.7C87.1426 211.185 88.2576 208.145 88.2576 204.918C88.2576 201.028 86.6289 197.406 83.6635 194.716C80.8673 192.171 77.1955 190.773 73.3311 190.773Z" fill="#070600"/>
<path d="M61.6678 247.832C61.3467 247.832 61.0373 247.657 60.8856 247.348C60.6696 246.917 60.8389 246.393 61.2767 246.178L88.0708 232.702C88.5028 232.487 89.0281 232.656 89.2441 233.087C89.4601 233.518 89.2908 234.042 88.853 234.257L62.0589 247.733C61.9305 247.797 61.7962 247.826 61.6678 247.826V247.832Z" fill="#070600"/>
<path d="M234.65 88.7227L232.502 84.9025L231.831 79.807L234.516 75.3113L238.684 72.3646L241.976 72.6325L248.363 74.4436L252.396 76.8545L254.072 77.862L239.56 87.0456L234.65 88.7227Z" fill="#070600"/>
<path d="M295.133 174.468L300.743 164.684L308.839 172.552L305.004 174.322L298.822 175.102L295.133 174.468Z" fill="#070600"/>
<path d="M91.4332 424.324L85.9109 438.096H46.5779L65.0944 435.342L79.6998 432.354L85.4497 429.262L91.4332 424.324Z" fill="#070600"/>
<path d="M407.108 145.298C410.4 142.06 413.698 138.822 416.991 135.584L421.935 130.727C423.289 129.394 424.702 127.583 426.512 126.849C429.331 125.702 431.829 128.678 433.446 130.594C434.637 132.009 435.688 133.715 436.4 135.491C437.813 138.997 438.175 142.8 437.994 146.55C437.941 147.674 439.693 147.674 439.745 146.55C440.037 140.54 438.817 134.472 434.97 129.708C433.23 127.554 431.047 125.131 428.129 124.869C426.115 124.689 424.416 125.911 423.021 127.216C421.246 128.876 419.542 130.623 417.808 132.323C413.827 136.236 409.845 140.15 405.864 144.063C405.059 144.855 406.296 146.09 407.102 145.298H407.108Z" fill="#070600"/>
<path d="M400.079 115.237C401.054 112.442 403.056 110.159 404.533 107.626L403.337 107.94C404.755 108.895 406.174 109.85 407.592 110.805L407.417 109.431C405.928 111.137 404.79 113.106 404.09 115.26C403.961 115.662 403.885 116.105 403.704 116.489C403.506 116.903 403.436 116.693 403.074 116.46C401.941 115.726 400.809 114.987 399.682 114.253C398.737 113.636 397.855 115.15 398.801 115.761C400.027 116.559 401.229 117.438 402.496 118.16C403.763 118.882 404.866 118.277 405.368 117.042C405.8 115.977 406.039 114.87 406.553 113.834C407.119 112.692 407.82 111.632 408.655 110.671C409.04 110.229 408.97 109.629 408.479 109.297C407.061 108.342 405.642 107.387 404.224 106.432C403.833 106.17 403.249 106.356 403.027 106.746C401.469 109.425 399.431 111.813 398.398 114.777C398.025 115.843 399.717 116.297 400.085 115.243L400.079 115.237Z" fill="#070600"/>
<path d="M407.411 110.66C412.98 115.691 418.59 120.676 424.206 125.655C425.046 126.401 426.29 125.166 425.443 124.421C419.828 119.442 414.218 114.457 408.649 109.425C407.814 108.674 406.571 109.903 407.411 110.66Z" fill="#070600"/>
<path d="M406.898 120.49C411.643 123.966 416.471 127.327 421.41 130.529C422.355 131.147 423.237 129.633 422.291 129.021C417.353 125.818 412.525 122.458 407.779 118.981C406.868 118.318 405.993 119.832 406.898 120.49Z" fill="#070600"/>
<path d="M423.955 147.918C424.025 147.86 424.001 147.878 423.943 147.918C423.978 147.889 424.019 147.86 424.06 147.837C424.136 147.784 424.217 147.732 424.299 147.68C424.393 147.627 424.486 147.575 424.579 147.528C424.62 147.505 424.667 147.487 424.708 147.464C424.725 147.458 424.865 147.4 424.766 147.435C424.667 147.47 424.807 147.423 424.824 147.412C424.871 147.394 424.912 147.383 424.959 147.365C425.046 147.336 425.14 147.307 425.233 147.284C425.327 147.26 425.42 147.237 425.507 147.22C425.554 147.208 425.601 147.202 425.648 147.196C425.776 147.167 425.437 147.214 425.659 147.196C425.846 147.179 426.039 147.167 426.225 147.173C426.319 147.173 426.412 147.179 426.512 147.185C426.558 147.185 426.605 147.196 426.652 147.196C426.582 147.196 426.529 147.179 426.628 147.196C426.827 147.231 427.019 147.272 427.212 147.336C427.3 147.365 427.387 147.4 427.481 147.429C427.603 147.47 427.352 147.365 427.469 147.429C427.521 147.458 427.574 147.482 427.626 147.505C428.035 147.709 428.596 147.627 428.823 147.19C429.033 146.794 428.946 146.212 428.508 145.997C426.611 145.053 424.34 145.333 422.717 146.678C422.361 146.969 422.39 147.616 422.717 147.913C423.091 148.256 423.581 148.227 423.955 147.913V147.918Z" fill="#070600"/>
<path d="M424.708 135.089C426.097 134.839 427.486 134.583 428.876 134.332C429.325 134.251 429.623 133.68 429.489 133.255C429.331 132.772 428.893 132.556 428.409 132.643C427.019 132.894 425.63 133.15 424.241 133.4C423.791 133.482 423.494 134.053 423.628 134.478C423.785 134.961 424.223 135.177 424.708 135.089Z" fill="#070600"/>
<path d="M424.661 141.524L428.636 141.122C429.092 141.076 429.535 140.755 429.512 140.249C429.494 139.812 429.127 139.329 428.636 139.375L424.661 139.777C424.206 139.824 423.762 140.144 423.785 140.651C423.803 141.087 424.171 141.571 424.661 141.524Z" fill="#070600"/>
<path d="M428.59 147.86C432.302 150.481 434.24 155.128 433.686 159.594C433.627 160.066 434.129 160.462 434.561 160.468C435.081 160.468 435.379 160.06 435.437 159.594C436.073 154.487 433.662 149.298 429.477 146.346C428.555 145.694 427.679 147.208 428.595 147.854L428.59 147.86Z" fill="#070600"/>
<path d="M426.366 153.608C426.652 154.854 427.095 156.065 427.679 157.207C428.21 158.255 428.864 159.321 429.734 160.124C430.604 160.928 431.643 161.44 432.804 161.382C433.902 161.33 434.947 160.829 435.513 159.862C436.079 158.896 434.567 158.01 434.001 158.983C433.867 159.216 433.651 159.402 433.441 159.49C433.085 159.641 432.857 159.658 432.454 159.629C431.789 159.577 431.059 159.024 430.557 158.459C429.267 157.003 428.485 155.006 428.053 153.136C427.948 152.676 427.416 152.402 426.973 152.525C426.5 152.653 426.255 153.136 426.36 153.602L426.366 153.608Z" fill="#070600"/>
<path d="M425.875 153.299C424.807 156.98 422.454 160.241 419.279 162.395C418.351 163.024 419.226 164.539 420.16 163.904C423.721 161.493 426.366 157.894 427.562 153.765C427.877 152.682 426.185 152.222 425.875 153.299Z" fill="#070600"/>
<path d="M424.229 160.672C426.617 161.429 428.724 162.826 430.37 164.702L431.222 163.24C428.234 162.582 425.367 161.505 422.694 160.02L422.484 161.615C423.021 161.528 423.692 161.388 424.212 161.627C424.41 161.72 424.754 162.023 424.644 162.267C424.556 162.448 424.194 162.483 424.031 162.448C423.581 162.361 423.231 161.941 422.986 161.592C422.717 161.208 422.221 161.027 421.789 161.277C421.404 161.499 421.205 162.081 421.474 162.471C422.075 163.327 422.875 164.096 423.966 164.195C424.93 164.282 425.945 163.77 426.296 162.838C426.646 161.906 426.138 160.841 425.332 160.27C424.363 159.589 423.12 159.752 422.022 159.932C421.264 160.054 421.199 161.184 421.812 161.528C424.609 163.088 427.626 164.242 430.755 164.929C431.625 165.121 432.186 164.131 431.608 163.467C429.763 161.371 427.352 159.827 424.69 158.989C423.616 158.645 423.155 160.334 424.223 160.672H424.229Z" fill="#070600"/>
<path d="M405.286 139.567C405.461 139.591 405.631 139.626 405.794 139.678C405.835 139.69 405.876 139.707 405.917 139.719C405.952 139.731 406.08 139.783 405.934 139.719C405.788 139.655 405.934 139.719 405.969 139.736C406.004 139.754 406.034 139.765 406.069 139.783C406.226 139.864 406.372 139.958 406.512 140.057C406.635 140.144 406.349 139.923 406.471 140.028C406.501 140.051 406.53 140.074 406.553 140.097C406.617 140.156 406.682 140.214 406.746 140.278C406.804 140.336 406.857 140.394 406.909 140.453C406.938 140.488 406.962 140.523 406.991 140.552C406.816 140.348 406.921 140.464 406.956 140.517C407.055 140.651 407.137 140.796 407.213 140.942C407.23 140.977 407.248 141.006 407.259 141.041C407.271 141.064 407.283 141.093 407.294 141.122L407.242 140.994C407.283 141.058 407.306 141.163 407.329 141.239C407.382 141.402 407.417 141.577 407.44 141.745L407.411 141.513C407.423 141.612 407.429 141.716 407.435 141.815C407.446 142.27 407.826 142.712 408.31 142.689C408.795 142.666 409.198 142.305 409.186 141.815C409.133 139.94 407.656 138.129 405.753 137.873C405.508 137.838 405.304 137.832 405.076 137.96C404.895 138.065 404.72 138.275 404.673 138.484C404.621 138.706 404.633 138.956 404.761 139.16C404.878 139.335 405.065 139.533 405.286 139.562V139.567Z" fill="#070600"/>
<path d="M425.192 158.989C425.455 159.158 425.712 159.332 425.969 159.513C426.091 159.6 426.208 159.688 426.325 159.775C426.371 159.81 426.371 159.81 426.325 159.775L426.395 159.827C426.465 159.88 426.535 159.938 426.605 159.996C427.078 160.381 427.527 160.788 427.953 161.219C428.38 161.65 428.788 162.104 429.162 162.582C429.173 162.599 429.302 162.762 429.255 162.704C429.208 162.646 429.337 162.815 429.349 162.826C429.436 162.943 429.524 163.065 429.611 163.188C429.798 163.455 429.979 163.729 430.148 164.003C430.388 164.393 430.942 164.579 431.345 164.317C431.748 164.055 431.917 163.537 431.66 163.123C430.242 160.852 428.327 158.925 426.068 157.481C425.683 157.236 425.087 157.387 424.871 157.795C424.644 158.226 424.772 158.727 425.186 158.989H425.192Z" fill="#070600"/>
<path d="M405.911 139.294C406.051 139.294 406.191 139.311 406.337 139.329L406.104 139.3C406.355 139.335 406.6 139.393 406.839 139.474C406.897 139.492 406.956 139.515 407.014 139.538C407.102 139.573 407.073 139.562 406.938 139.503C406.968 139.515 406.997 139.527 407.026 139.544C407.131 139.591 407.236 139.649 407.341 139.707C407.446 139.765 407.545 139.83 407.639 139.894C407.691 139.929 407.738 139.969 407.791 140.004C407.563 139.853 407.744 139.969 407.796 140.016C407.989 140.179 408.164 140.359 408.322 140.557C408.45 140.721 408.742 140.814 408.941 140.814C409.157 140.814 409.413 140.721 409.559 140.557C409.705 140.394 409.828 140.173 409.816 139.94C409.805 139.696 409.711 139.515 409.559 139.323C408.684 138.234 407.3 137.599 405.911 137.553C405.45 137.535 405.012 137.966 405.035 138.426C405.059 138.915 405.421 139.282 405.911 139.3V139.294Z" fill="#070600"/>
</svg>
