<svg width="655" height="366" viewBox="0 0 655 366" fill="none" xmlns="http://www.w3.org/2000/svg">
<path d="M142.42 281.769C138.451 307.905 131.917 324.949 124.536 324.949C123.556 324.949 122.588 324.646 121.645 324.064C115.153 320.073 109.557 302.829 106.144 278.336C117.192 279.313 131.73 280.641 142.42 281.769Z" fill="#070600"/>
<path d="M124.536 325.859C123.399 325.859 122.268 325.513 121.167 324.84C114.59 320.794 108.788 303.89 105.243 278.464C105.207 278.191 105.291 277.912 105.485 277.712C105.679 277.511 105.945 277.408 106.223 277.433C116.744 278.361 131.579 279.713 142.517 280.866C142.765 280.89 142.989 281.017 143.14 281.217C143.291 281.418 143.358 281.666 143.322 281.909C139.081 309.84 132.232 325.859 124.543 325.859H124.536ZM107.203 279.343C110.634 303.253 116.187 319.642 122.116 323.287C122.927 323.785 123.738 324.039 124.536 324.039C130.962 324.039 137.393 308.178 141.38 282.576C130.956 281.49 117.319 280.241 107.203 279.343Z" fill="#070600"/>
<path d="M139.026 145.539L109.92 146.031C113.798 129.83 118.922 119.98 124.536 119.98C130.151 119.98 135.16 129.63 139.026 145.539Z" fill="#070600"/>
<path d="M109.92 146.941C109.647 146.941 109.387 146.813 109.212 146.601C109.036 146.383 108.97 146.091 109.036 145.818C111.959 133.615 117.016 119.07 124.536 119.07C132.057 119.07 136.999 133.348 139.91 145.321C139.976 145.588 139.91 145.873 139.746 146.091C139.577 146.31 139.317 146.443 139.044 146.443L109.938 146.935H109.92V146.941ZM124.536 120.889C119.781 120.889 114.899 129.697 111.081 145.103L137.871 144.648C134.071 129.527 129.231 120.889 124.536 120.889Z" fill="#070600"/>
<path d="M142.42 282.679C142.39 282.679 142.354 282.679 142.323 282.679C131.367 281.521 116.557 280.174 106.066 279.246C105.642 279.21 105.304 278.888 105.249 278.464C103.973 269.341 103.029 259.4 102.436 248.907C102.406 248.403 102.793 247.973 103.289 247.948C103.809 247.936 104.221 248.306 104.245 248.804C104.82 258.975 105.727 268.619 106.943 277.499C117.397 278.427 131.796 279.737 142.517 280.872C143.013 280.926 143.376 281.375 143.322 281.872C143.273 282.34 142.88 282.685 142.42 282.685V282.679Z" fill="#070600"/>
<path d="M103.942 187.985C103.942 187.985 103.894 187.985 103.87 187.985C103.368 187.943 102.998 187.506 103.035 187.009C104.275 171.275 106.35 157.033 109.036 145.825C109.133 145.418 109.49 145.133 109.902 145.127L139.008 144.636C139.492 144.636 139.922 145.03 139.934 145.527C139.946 146.025 139.54 146.443 139.044 146.455L110.64 146.935C108.056 157.943 106.054 171.833 104.85 187.154C104.813 187.634 104.414 187.992 103.948 187.992L103.942 187.985Z" fill="#070600"/>
<path d="M124.53 120.889H30.2049C29.7027 120.889 29.2974 120.483 29.2974 119.98C29.2974 119.476 29.7027 119.07 30.2049 119.07H124.53C125.033 119.07 125.438 119.476 125.438 119.98C125.438 120.483 125.033 120.889 124.53 120.889Z" fill="#070600"/>
<path d="M124.536 324.974H41.7301C41.228 324.974 40.8226 324.567 40.8226 324.064C40.8226 323.56 41.228 323.154 41.7301 323.154H124.536C125.039 323.154 125.444 323.56 125.444 324.064C125.444 324.567 125.039 324.974 124.536 324.974Z" fill="#070600"/>
<path d="M21.874 355.325C21.6804 355.325 21.4868 355.264 21.3235 355.137C20.9242 354.834 20.8455 354.264 21.1541 353.863C41.6273 326.969 51.4283 303.575 56.0505 288.684C62.1731 268.935 62.0823 255.087 59.9588 248.713C59.0755 246.062 57.805 244.437 56.2925 244.012C44.4284 240.676 11.8734 272.495 11.5467 272.817C11.2079 273.15 10.6694 273.162 10.3125 272.853C9.95555 272.544 9.89505 272.004 10.1794 271.628C61.925 201.663 65.4885 174.617 63.0019 164.724C61.9311 160.448 59.62 158.799 58.3374 158.192C51.6037 155.014 26.3329 172.913 17.1671 180.076C16.7739 180.379 16.2112 180.319 15.9027 179.924C15.5941 179.536 15.6486 178.966 16.0358 178.651C16.2838 178.451 40.8166 158.143 64.1756 130.382C87.4742 102.693 107.24 40.2737 107.439 39.6489C107.59 39.1697 108.099 38.9029 108.577 39.0545C109.055 39.2061 109.321 39.7156 109.169 40.1948C108.97 40.8256 89.1016 103.591 65.5611 131.553C52.8682 146.631 39.8304 159.526 30.4892 168.218C40.8589 161.31 53.7999 154.025 59.1118 156.53C60.6848 157.27 63.5041 159.26 64.7625 164.264C67.7694 176.243 61.7254 203.416 17.2639 264.992C27.797 255.579 47.4292 239.615 56.7825 242.241C58.9 242.835 60.594 244.867 61.677 248.118C67.0252 264.143 58.4342 307.881 22.6 354.949C22.4246 355.186 22.1523 355.307 21.8801 355.307L21.874 355.325Z" fill="#070600"/>
<path d="M139.026 146.449C138.53 146.449 138.125 146.049 138.119 145.558C138.113 145.054 138.512 144.642 139.008 144.63L156.807 144.326C157.303 144.296 157.721 144.721 157.733 145.218C157.739 145.721 157.34 146.134 156.843 146.146L139.044 146.449H139.026Z" fill="#070600"/>
<path d="M231.349 298.85C231.295 298.85 231.234 298.85 231.18 298.831C210.537 294.919 161.877 285.676 155.906 284.39C154.175 284.02 149.481 283.425 142.323 282.673C141.827 282.618 141.464 282.17 141.519 281.672C141.573 281.175 142.021 280.823 142.517 280.866C149.838 281.636 154.472 282.224 156.293 282.618C162.24 283.898 210.882 293.136 231.519 297.048C232.009 297.139 232.335 297.618 232.245 298.11C232.16 298.546 231.779 298.85 231.355 298.85H231.349Z" fill="#070600"/>
<path d="M83.2331 249.762H60.9147C56.2138 249.762 52.3842 245.929 52.3842 241.21V194.712C52.3842 189.999 56.2078 186.16 60.9147 186.16H83.2331C83.7353 186.16 84.1406 186.566 84.1406 187.07C84.1406 187.573 83.7353 187.979 83.2331 187.979C79.5305 187.979 76.5176 191 76.5176 194.712V241.21C76.5176 244.922 79.5305 247.942 83.2331 247.942C83.7353 247.942 84.1406 248.349 84.1406 248.852C84.1406 249.356 83.7353 249.762 83.2331 249.762ZM60.9147 187.985C57.2121 187.985 54.1992 191.006 54.1992 194.718V241.216C54.1992 244.928 57.2121 247.948 60.9147 247.948H77.9757C75.9852 246.384 74.7026 243.945 74.7026 241.216V194.718C74.7026 191.989 75.9852 189.556 77.9757 187.985H60.9147Z" fill="#070600"/>
<path d="M300.017 249.762H83.2331C82.8943 249.762 82.5979 249.744 82.3196 249.713C82.2046 249.701 82.0715 249.689 81.9384 249.665C81.7932 249.647 81.648 249.622 81.5089 249.586C81.1035 249.513 80.7042 249.398 80.2928 249.24C80.1718 249.198 80.0448 249.149 79.9117 249.089C79.7786 249.04 79.6576 248.986 79.5305 248.913C79.4156 248.858 79.3006 248.798 79.1857 248.737C79.0526 248.676 78.9255 248.603 78.7924 248.512C78.5686 248.379 78.3447 248.234 78.139 248.07C78.0241 247.991 77.9091 247.9 77.7942 247.797C77.6853 247.712 77.5824 247.621 77.4796 247.524C77.3888 247.451 77.286 247.348 77.1892 247.239C77.0863 247.142 76.9895 247.039 76.9048 246.936C76.7233 246.741 76.5418 246.523 76.3845 246.305C76.3301 246.238 76.2696 246.147 76.2091 246.056C76.1909 246.032 76.1728 246.007 76.1546 245.977C76.0639 245.844 75.9913 245.722 75.9247 245.607C75.8763 245.534 75.7977 245.401 75.7311 245.274C75.6706 245.158 75.598 245.031 75.5436 244.898C75.5315 244.879 75.5254 244.861 75.5194 244.843C75.4649 244.728 75.4347 244.655 75.4044 244.582C75.3439 244.437 75.2834 244.291 75.229 244.139C75.1503 243.915 75.0777 243.69 75.0172 243.46C75.0051 243.436 74.993 243.387 74.9809 243.339C74.9446 243.199 74.9144 243.066 74.8841 242.92C74.8539 242.781 74.8236 242.611 74.8055 242.447C74.7873 242.368 74.7692 242.229 74.7631 242.095C74.745 241.98 74.7329 241.81 74.7268 241.64C74.7208 241.471 74.7147 241.343 74.7147 241.21V194.718C74.7147 194.585 74.7147 194.457 74.7268 194.33C74.7329 194.118 74.751 193.948 74.7692 193.778C74.7692 193.699 74.7873 193.566 74.8176 193.426C74.8297 193.311 74.8599 193.147 74.8962 192.977C74.9204 192.856 74.9446 192.723 74.987 192.583C74.9991 192.528 75.0172 192.474 75.0354 192.419C75.0838 192.231 75.1503 192.007 75.235 191.782C75.2834 191.655 75.3318 191.534 75.3863 191.406C75.4468 191.261 75.4952 191.146 75.5496 191.036C75.6767 190.763 75.8158 190.503 75.9671 190.266C76.0094 190.193 76.082 190.072 76.1667 189.951C76.1788 189.932 76.203 189.896 76.2333 189.86C76.2938 189.763 76.3603 189.672 76.4329 189.581C76.4874 189.502 76.5781 189.38 76.681 189.265C76.7657 189.156 76.8564 189.053 76.9472 188.956C77.0319 188.859 77.1226 188.762 77.2134 188.677C77.3102 188.568 77.4191 188.465 77.528 188.368C77.6127 188.289 77.7155 188.198 77.8244 188.113C77.9091 188.04 77.9999 187.967 78.0906 187.901C78.1209 187.876 78.1572 187.846 78.1935 187.828C78.2963 187.749 78.3931 187.676 78.4899 187.615C78.5928 187.543 78.6956 187.476 78.8045 187.415C78.9074 187.342 79.0102 187.288 79.101 187.245C79.1131 187.239 79.1252 187.233 79.1373 187.227C79.2825 187.142 79.4216 187.07 79.5789 186.997C79.6576 186.954 79.7846 186.894 79.9117 186.845C79.9843 186.815 80.0569 186.784 80.1355 186.76C80.2142 186.73 80.311 186.687 80.4078 186.657H80.4199C80.4199 186.657 80.4562 186.639 80.4743 186.633C80.5832 186.596 80.6558 186.572 80.7224 186.554C80.9583 186.475 81.2003 186.415 81.4363 186.366C81.4968 186.348 81.5573 186.336 81.6178 186.33C81.7025 186.305 81.7932 186.293 81.89 186.281C81.9203 186.281 81.9566 186.269 81.9989 186.263C82.0836 186.245 82.1744 186.233 82.2591 186.226H82.3196C82.6039 186.184 82.9004 186.172 83.2089 186.172H322.674C323.176 186.172 323.581 186.578 323.581 187.082C323.581 187.585 323.176 187.992 322.674 187.992H83.2392C82.9669 187.992 82.7431 188.004 82.5434 188.028L82.4587 188.04C82.4285 188.04 82.3982 188.04 82.3619 188.052C82.3317 188.058 82.3014 188.064 82.2712 188.07C82.2409 188.07 82.2107 188.082 82.1804 188.082C82.1502 188.082 82.1139 188.095 82.0836 188.095C82.011 188.119 81.9445 188.131 81.8719 188.137C81.8537 188.137 81.8356 188.143 81.8174 188.149C81.6299 188.186 81.4484 188.234 81.2608 188.295C81.2366 188.301 81.2185 188.307 81.1943 188.313C81.1701 188.319 81.1398 188.331 81.1096 188.343L81.0612 188.361C81.0309 188.374 81.0067 188.386 80.9765 188.392C80.9099 188.416 80.8434 188.44 80.7768 188.471C80.7647 188.471 80.7224 188.489 80.7103 188.495C80.6861 188.507 80.6256 188.531 80.6014 188.537C80.5227 188.568 80.4501 188.604 80.3715 188.641C80.2202 188.713 80.1234 188.768 80.0206 188.822C79.9903 188.841 79.954 188.859 79.9238 188.877L79.833 188.92C79.7967 188.95 79.7846 188.956 79.7423 188.98C79.6636 189.029 79.585 189.077 79.5063 189.132C79.4882 189.144 79.47 189.156 79.4458 189.168C79.3914 189.199 79.3369 189.247 79.2885 189.283C79.2764 189.296 79.2643 189.302 79.2462 189.314C79.2159 189.338 79.1857 189.362 79.1554 189.38C79.1554 189.38 79.1494 189.38 79.1433 189.387C79.0949 189.417 79.0526 189.453 79.0102 189.496C78.986 189.52 78.9618 189.538 78.9376 189.556C78.865 189.611 78.8045 189.666 78.738 189.732C78.6593 189.805 78.5988 189.854 78.5444 189.914C78.5202 189.939 78.502 189.963 78.4778 189.987C78.4113 190.048 78.3508 190.114 78.2903 190.181C78.2782 190.199 78.26 190.218 78.2419 190.23C78.1874 190.284 78.139 190.345 78.0906 190.406C78.0725 190.43 78.0543 190.454 78.0301 190.478C77.9757 190.539 77.9273 190.606 77.8849 190.666C77.8123 190.763 77.77 190.818 77.7337 190.879C77.7095 190.921 77.6792 190.964 77.6429 191.006C77.5945 191.079 77.5522 191.146 77.5159 191.206C77.3828 191.418 77.2799 191.607 77.1771 191.831C77.1287 191.928 77.0984 192.007 77.0682 192.08C77.0137 192.213 76.9714 192.31 76.9351 192.407C76.8746 192.583 76.8201 192.753 76.7717 192.935C76.7717 192.947 76.7536 193.002 76.7475 193.014C76.7415 193.05 76.7475 193.038 76.7294 193.074C76.7052 193.165 76.687 193.256 76.6689 193.353C76.6386 193.493 76.6205 193.602 76.6023 193.717C76.5842 193.833 76.5721 193.887 76.5721 193.948C76.5539 194.124 76.5418 194.245 76.5358 194.366C76.5297 194.518 76.5237 194.621 76.5237 194.724V241.216C76.5237 241.319 76.5237 241.422 76.5358 241.525C76.5418 241.695 76.5539 241.816 76.566 241.938C76.5721 242.053 76.5842 242.113 76.5902 242.168C76.6144 242.332 76.6326 242.447 76.6568 242.556C76.681 242.678 76.6991 242.769 76.7233 242.859C76.7354 242.896 76.7475 242.938 76.7475 242.981C76.808 243.181 76.8564 243.357 76.923 243.533C76.9653 243.654 77.0137 243.769 77.0621 243.879L77.1408 244.054C77.1408 244.054 77.1529 244.079 77.1589 244.091C77.171 244.115 77.1892 244.145 77.2013 244.176C77.2376 244.261 77.2799 244.339 77.3283 244.418C77.3767 244.515 77.4251 244.6 77.4796 244.679C77.5461 244.794 77.5885 244.861 77.6369 244.934C77.6732 244.976 77.7034 245.019 77.7276 245.061C77.7639 245.122 77.8002 245.17 77.8426 245.225C77.9757 245.407 78.1088 245.571 78.26 245.728C78.3387 245.819 78.3992 245.886 78.4657 245.947C78.4899 245.971 78.5141 245.995 78.5323 246.02C78.5807 246.08 78.6412 246.129 78.7017 246.183C78.7924 246.268 78.859 246.323 78.9316 246.377C78.9558 246.396 78.98 246.42 79.0042 246.438C79.0586 246.487 79.1131 246.535 79.1736 246.572C79.1978 246.584 79.2159 246.602 79.2401 246.62C79.3974 246.747 79.5668 246.857 79.7423 246.96C79.7665 246.972 79.7907 246.99 79.8149 247.008C79.8693 247.045 79.9177 247.075 79.9722 247.099C79.9964 247.111 80.0206 247.124 80.0448 247.136C80.1234 247.178 80.2021 247.227 80.2868 247.263C80.317 247.275 80.3473 247.293 80.3775 247.305C80.4441 247.342 80.5106 247.372 80.5832 247.396C80.6074 247.409 80.6316 247.415 80.6558 247.427C80.7405 247.469 80.8313 247.5 80.916 247.53C81.2487 247.657 81.5512 247.742 81.8598 247.797C81.8779 247.797 81.9021 247.803 81.9203 247.809C81.9989 247.827 82.0776 247.845 82.1623 247.851C82.1986 247.851 82.2349 247.857 82.2651 247.87C82.3498 247.888 82.4345 247.894 82.5192 247.906C82.737 247.93 82.9609 247.942 83.2029 247.942H300.017C300.519 247.942 300.924 248.349 300.924 248.852C300.924 249.356 300.519 249.762 300.017 249.762ZM77.5824 244.873C77.5824 244.873 77.5824 244.873 77.5764 244.867C77.5764 244.867 77.5764 244.867 77.5824 244.873ZM77.171 244.109C77.171 244.109 77.1952 244.17 77.2013 244.188C77.1892 244.158 77.1831 244.133 77.171 244.109ZM79.4277 189.095C79.4277 189.095 79.4156 189.114 79.4095 189.12C79.4095 189.114 79.4216 189.102 79.4277 189.095ZM80.438 186.639C80.438 186.639 80.4138 186.645 80.4017 186.651C80.4017 186.651 80.4259 186.645 80.438 186.639Z" fill="#070600"/>
<path d="M430.322 249.762H350.661C350.159 249.762 349.754 249.356 349.754 248.852C349.754 248.349 350.159 247.942 350.661 247.942H429.801C434.653 239.457 437.321 228.151 437.321 216.026C437.321 205.824 435.349 195.895 431.768 187.985H359.924C359.422 187.985 359.016 187.579 359.016 187.076C359.016 186.572 359.422 186.166 359.924 186.166H432.348C432.699 186.166 433.02 186.372 433.171 186.687C437.019 194.918 439.136 205.333 439.136 216.026C439.136 228.685 436.281 240.506 431.102 249.313C430.939 249.592 430.642 249.762 430.322 249.762Z" fill="#070600"/>
<path d="M497.858 226.816C498.808 224.815 499.255 222.571 499.14 220.351C499.031 218.319 498.451 216.311 497.471 214.534L512.777 221.546L497.858 226.816Z" fill="#070600"/>
<path d="M497.858 227.726C497.604 227.726 497.356 227.623 497.18 227.423C496.932 227.15 496.878 226.756 497.035 226.422C497.924 224.548 498.336 222.461 498.233 220.393C498.13 218.513 497.592 216.633 496.678 214.971C496.491 214.625 496.539 214.2 496.805 213.909C497.071 213.618 497.495 213.533 497.846 213.703L513.152 220.715C513.491 220.866 513.697 221.212 513.685 221.582C513.666 221.952 513.431 222.273 513.08 222.401L498.16 227.672C498.063 227.708 497.961 227.72 497.858 227.72V227.726ZM499.267 216.36C499.709 217.633 499.969 218.968 500.042 220.302C500.127 221.988 499.915 223.687 499.413 225.3L510.345 221.436L499.261 216.36H499.267Z" fill="#070600"/>
<path d="M435.488 249.762C435.222 249.762 434.962 249.647 434.787 249.428C434.545 249.131 434.514 248.719 434.708 248.391C437.775 243.169 440.068 236.63 441.333 229.485C442.101 225.142 442.494 220.618 442.494 216.026C442.494 215.256 442.482 214.485 442.464 213.727C442.186 204.016 440.189 194.93 436.698 187.464C436.535 187.118 436.608 186.706 436.874 186.439C437.14 186.166 437.551 186.093 437.896 186.251L497.852 213.709C498.027 213.788 498.172 213.927 498.269 214.097C499.322 216.002 499.933 218.149 500.054 220.308C500.175 222.68 499.703 225.07 498.687 227.211C498.584 227.429 498.396 227.599 498.166 227.678L435.797 249.713C435.7 249.75 435.597 249.762 435.494 249.762H435.488ZM439.306 188.895C442.301 196.137 444.013 204.647 444.273 213.673C444.291 214.455 444.303 215.237 444.303 216.02C444.303 220.715 443.904 225.355 443.117 229.795C441.98 236.224 440.032 242.18 437.436 247.19L497.192 226.076C497.973 224.293 498.336 222.334 498.233 220.387C498.136 218.604 497.646 216.821 496.817 215.225L439.312 188.889L439.306 188.895Z" fill="#070600"/>
<path d="M91.1344 187.985H83.2331C82.731 187.985 82.3256 187.579 82.3256 187.076C82.3256 186.572 82.731 186.166 83.2331 186.166H91.1344C91.6366 186.166 92.0419 186.572 92.0419 187.076C92.0419 187.579 91.6366 187.985 91.1344 187.985Z" fill="#070600"/>
<path d="M89.876 249.762H83.2331C82.731 249.762 82.3256 249.356 82.3256 248.852C82.3256 248.349 82.731 247.942 83.2331 247.942H89.876C90.3782 247.942 90.7835 248.349 90.7835 248.852C90.7835 249.356 90.3782 249.762 89.876 249.762Z" fill="#070600"/>
<path d="M443.396 216.032C443.396 228.921 440.365 240.567 435.494 248.852H430.328C435.198 240.561 438.229 228.921 438.229 216.032C438.229 205.035 436.027 194.949 432.354 187.076H437.521C441.194 194.943 443.396 205.035 443.396 216.032Z" fill="#070600"/>
<path d="M435.488 249.762H430.322C429.995 249.762 429.692 249.586 429.535 249.301C429.372 249.016 429.378 248.67 429.541 248.385C434.557 239.851 437.321 228.357 437.321 216.026C437.321 205.606 435.264 195.458 431.532 187.458C431.399 187.179 431.423 186.845 431.586 186.584C431.755 186.324 432.04 186.16 432.354 186.16H437.521C437.872 186.16 438.193 186.366 438.344 186.681C442.186 194.918 444.303 205.333 444.303 216.02C444.303 228.672 441.454 240.494 436.275 249.307C436.111 249.586 435.815 249.756 435.494 249.756L435.488 249.762ZM431.876 247.942H434.968C439.82 239.457 442.488 228.151 442.488 216.032C442.488 205.836 440.522 195.901 436.94 187.985H433.758C437.231 196.004 439.136 205.897 439.136 216.032C439.136 228.042 436.565 239.299 431.883 247.942H431.876Z" fill="#070600"/>
<path d="M430.322 249.762H399.642C399.14 249.762 398.735 249.356 398.735 248.852C398.735 248.349 399.14 247.942 399.642 247.942H430.322C430.824 247.942 431.229 248.349 431.229 248.852C431.229 249.356 430.824 249.762 430.322 249.762Z" fill="#070600"/>
<path d="M432.348 187.985H397.615C397.113 187.985 396.708 187.579 396.708 187.076C396.708 186.572 397.113 186.166 397.615 186.166H432.348C432.85 186.166 433.256 186.572 433.256 187.076C433.256 187.579 432.85 187.985 432.348 187.985Z" fill="#070600"/>
<path d="M75.5315 194.524H53.4611C52.9589 194.524 52.5536 194.118 52.5536 193.614C52.5536 193.111 52.9589 192.704 53.4611 192.704H75.5315C76.0336 192.704 76.439 193.111 76.439 193.614C76.439 194.118 76.0336 194.524 75.5315 194.524Z" fill="#070600"/>
<path d="M77.286 190.503H55.4697C54.9675 190.503 54.5622 190.096 54.5622 189.593C54.5622 189.089 54.9675 188.683 55.4697 188.683H77.286C77.7881 188.683 78.1935 189.089 78.1935 189.593C78.1935 190.096 77.7881 190.503 77.286 190.503Z" fill="#070600"/>
<path d="M75.5315 207.619H53.4611C52.9589 207.619 52.5536 207.213 52.5536 206.709C52.5536 206.206 52.9589 205.8 53.4611 205.8H75.5315C76.0336 205.8 76.439 206.206 76.439 206.709C76.439 207.213 76.0336 207.619 75.5315 207.619Z" fill="#070600"/>
<path d="M75.5315 220.715H53.4611C52.9589 220.715 52.5536 220.308 52.5536 219.805C52.5536 219.301 52.9589 218.895 53.4611 218.895H75.5315C76.0336 218.895 76.439 219.301 76.439 219.805C76.439 220.308 76.0336 220.715 75.5315 220.715Z" fill="#070600"/>
<path d="M75.5315 233.81H53.4611C52.9589 233.81 52.5536 233.403 52.5536 232.9C52.5536 232.397 52.9589 231.99 53.4611 231.99H75.5315C76.0336 231.99 76.439 232.397 76.439 232.9C76.439 233.403 76.0336 233.81 75.5315 233.81Z" fill="#070600"/>
<path d="M75.5315 244.364H53.4611C52.9589 244.364 52.5536 243.957 52.5536 243.454C52.5536 242.951 52.9589 242.544 53.4611 242.544H75.5315C76.0336 242.544 76.439 242.951 76.439 243.454C76.439 243.957 76.0336 244.364 75.5315 244.364Z" fill="#070600"/>
<path d="M77.5582 247.548H55.4878C54.9857 247.548 54.5803 247.142 54.5803 246.638C54.5803 246.135 54.9857 245.728 55.4878 245.728H77.5582C78.0604 245.728 78.4657 246.135 78.4657 246.638C78.4657 247.142 78.0604 247.548 77.5582 247.548Z" fill="#070600"/>
<path d="M471.77 199.255C459.416 199.255 449.367 189.18 449.367 176.795C449.367 164.409 459.416 154.334 471.77 154.334C484.124 154.334 494.173 164.409 494.173 176.795C494.173 189.18 484.124 199.255 471.77 199.255ZM471.77 156.154C460.42 156.154 451.182 165.416 451.182 176.795C451.182 188.173 460.42 197.435 471.77 197.435C483.12 197.435 492.358 188.173 492.358 176.795C492.358 165.416 483.12 156.154 471.77 156.154Z" fill="#070600"/>
<path d="M460.233 166.453C461.401 166.453 461.401 164.633 460.233 164.633C459.065 164.633 459.065 166.453 460.233 166.453Z" fill="#070600"/>
<path d="M464.909 163.578C466.077 163.578 466.077 161.758 464.909 161.758C463.742 161.758 463.742 163.578 464.909 163.578Z" fill="#070600"/>
<path d="M461.534 169.365C462.677 170.068 464.171 170.007 465.297 169.292C466.422 168.576 467.124 167.29 467.057 165.925C467.033 165.452 466.658 164.991 466.15 165.016C465.678 165.034 465.218 165.416 465.242 165.925C465.248 166.059 465.248 166.186 465.242 166.32C465.242 166.374 465.254 166.538 465.242 166.326C465.242 166.38 465.224 166.447 465.212 166.502C465.182 166.629 465.145 166.756 465.103 166.878C465.049 167.041 465.151 166.799 465.097 166.89C465.067 166.938 465.049 166.993 465.018 167.041C464.994 167.084 464.897 167.29 464.855 167.296C464.928 167.199 464.946 167.181 464.903 167.236C464.885 167.26 464.867 167.284 464.843 167.308C464.813 167.345 464.776 167.387 464.74 167.424C464.667 167.496 464.589 167.563 464.516 167.63C464.438 167.709 464.668 167.527 464.534 167.618C464.486 167.654 464.432 167.69 464.383 167.721C464.298 167.775 464.208 167.824 464.117 167.872C464.105 167.879 463.923 167.957 464.056 167.903C464.19 167.848 464.026 167.915 463.996 167.921C463.893 167.957 463.784 167.988 463.675 168.012C463.669 168.012 463.524 168.042 463.524 168.042C463.524 168.042 463.73 168.024 463.554 168.042C463.439 168.054 463.318 168.054 463.197 168.048C463.167 168.048 462.967 168.024 463.107 168.048C463.246 168.073 463.046 168.036 463.016 168.03C462.961 168.018 462.695 167.982 462.677 167.927C462.774 167.969 462.792 167.976 462.731 167.951C462.701 167.939 462.665 167.921 462.635 167.903C462.574 167.872 462.514 167.836 462.453 167.8C462.048 167.551 461.437 167.697 461.213 168.127C460.989 168.558 461.104 169.11 461.54 169.371L461.534 169.365Z" fill="#070600"/>
<path d="M488.904 172.403C490.198 176.346 489.926 180.743 487.984 184.425C486.266 187.682 483.362 190.278 479.926 191.594C478.849 192.007 479.315 193.772 480.41 193.347C484.288 191.855 487.597 189.035 489.551 185.341C491.717 181.241 492.104 176.316 490.658 171.912C490.295 170.802 488.541 171.281 488.91 172.397L488.904 172.403Z" fill="#070600"/>
<path d="M548.327 236.958C538.199 236.958 528.628 230.777 524.811 220.733C522.415 214.443 522.614 207.595 525.355 201.451C528.102 195.306 533.063 190.606 539.337 188.204C552.284 183.254 566.84 189.787 571.783 202.773C576.72 215.759 570.204 230.347 557.251 235.302C554.316 236.424 551.291 236.958 548.321 236.958H548.327ZM548.272 188.374C545.514 188.374 542.712 188.865 539.99 189.908C534.17 192.134 529.56 196.501 527.013 202.197C524.466 207.898 524.29 214.249 526.505 220.084C531.084 232.13 544.588 238.195 556.603 233.598C568.619 229 574.669 215.468 570.083 203.422C566.537 194.112 557.662 188.374 548.266 188.374H548.272Z" fill="#070600"/>
<path d="M555.49 195.962C556.658 195.962 556.658 194.142 555.49 194.142C554.322 194.142 554.322 195.962 555.49 195.962Z" fill="#070600"/>
<path d="M560.385 199.746C561.552 199.746 561.552 197.927 560.385 197.927C559.217 197.927 559.217 199.746 560.385 199.746Z" fill="#070600"/>
<path d="M552.132 197.884C551.975 198.733 552.078 199.552 552.441 200.341C552.725 200.959 553.203 201.463 553.742 201.869C554.232 202.239 554.825 202.5 555.436 202.597C556.307 202.737 557.124 202.597 557.922 202.239C558.358 202.045 558.491 201.378 558.249 200.996C557.958 200.541 557.474 200.462 557.009 200.668C557.184 200.589 556.948 200.686 556.924 200.699C556.863 200.723 556.797 200.741 556.73 200.759C556.664 200.777 556.603 200.796 556.537 200.808C556.506 200.808 556.252 200.844 556.458 200.826C556.325 200.838 556.192 200.85 556.059 200.844C556.016 200.844 555.853 200.856 555.817 200.832C555.883 200.875 555.956 200.856 555.817 200.832C555.702 200.808 555.587 200.784 555.472 200.747C555.417 200.729 555.369 200.717 555.321 200.699C555.169 200.644 555.29 200.65 555.327 200.705C555.284 200.644 555.079 200.583 555.006 200.541C554.97 200.523 554.734 200.335 554.71 200.347C554.74 200.335 554.855 200.468 554.71 200.347C554.667 200.31 554.625 200.274 554.589 200.238C554.504 200.159 554.419 200.068 554.341 199.983C554.238 199.868 554.335 199.922 554.341 199.989C554.341 199.959 554.244 199.856 554.226 199.831C554.165 199.74 554.111 199.649 554.062 199.552C554.044 199.522 554.002 199.395 553.978 199.376L554.02 199.473C554.008 199.437 553.99 199.401 553.978 199.358C553.929 199.219 553.899 199.073 553.869 198.934C553.899 199.061 553.869 198.982 553.869 198.897C553.869 198.83 553.863 198.764 553.863 198.697C553.863 198.618 553.863 198.539 553.869 198.454C553.881 198.254 553.838 198.594 553.881 198.382C553.965 197.915 553.754 197.381 553.246 197.259C552.798 197.156 552.223 197.393 552.126 197.896L552.132 197.884Z" fill="#070600"/>
<path d="M559.761 228.26C556.258 231.123 551.654 232.512 547.159 232.093C542.815 231.687 538.738 229.516 535.84 226.271C535.059 225.397 533.777 226.689 534.557 227.556C537.788 231.171 542.337 233.464 547.159 233.913C551.981 234.362 557.178 232.706 561.044 229.546C561.951 228.806 560.657 227.526 559.761 228.26Z" fill="#070600"/>
<path d="M571.22 292.954C564.916 292.954 558.908 290.68 554.141 286.464C548.956 281.879 545.865 275.546 545.429 268.632C544.999 261.717 547.274 255.045 551.848 249.847C561.286 239.117 577.669 238.086 588.372 247.548C599.074 257.01 600.103 273.435 590.665 284.165C586.091 289.363 579.775 292.463 572.878 292.899C572.321 292.936 571.771 292.954 571.22 292.954ZM571.268 242.896C564.595 242.896 557.958 245.656 553.209 251.054C548.956 255.888 546.839 262.093 547.238 268.522C547.643 274.952 550.517 280.841 555.339 285.105C560.161 289.369 566.338 291.492 572.763 291.092C579.176 290.686 585.05 287.804 589.304 282.97C598.082 272.993 597.126 257.72 587.174 248.919C582.606 244.879 576.925 242.896 571.268 242.896Z" fill="#070600"/>
<path d="M589.902 266.49C591.07 266.49 591.07 264.671 589.902 264.671C588.735 264.671 588.735 266.49 589.902 266.49Z" fill="#070600"/>
<path d="M588.801 272.786C589.969 272.786 589.969 270.967 588.801 270.967C587.634 270.967 587.634 272.786 588.801 272.786Z" fill="#070600"/>
<path d="M585.674 263.907C584.234 264.355 583.157 265.605 582.915 267.097C582.673 268.589 583.181 270.13 584.385 271.094C584.754 271.391 585.311 271.482 585.667 271.094C585.97 270.767 586.067 270.124 585.667 269.808C585.456 269.638 585.25 269.45 585.087 269.232C585.153 269.323 584.996 269.086 584.972 269.038C584.935 268.971 584.899 268.905 584.863 268.838C584.857 268.826 584.79 268.668 584.814 268.741C584.845 268.826 584.772 268.619 584.772 268.601C584.754 268.547 584.742 268.492 584.724 268.438C584.706 268.383 584.699 268.322 584.687 268.268C584.633 268.013 584.687 268.359 584.675 268.207C584.669 268.08 584.657 267.946 584.657 267.819C584.657 267.758 584.657 267.704 584.663 267.643C584.663 267.619 584.693 267.394 584.675 267.503C584.657 267.6 584.693 267.425 584.693 267.412C584.706 267.358 584.718 267.297 584.73 267.243C584.76 267.115 584.802 266.994 584.851 266.873C584.808 266.994 584.851 266.867 584.881 266.812C584.911 266.757 584.935 266.709 584.96 266.66C585.02 266.545 585.093 266.436 585.171 266.333C585.117 266.412 585.153 266.357 585.19 266.315C585.238 266.26 585.292 266.199 585.347 266.151C585.389 266.108 585.438 266.066 585.48 266.023C585.589 265.92 585.389 266.084 585.51 265.993C585.619 265.914 585.74 265.841 585.861 265.775C585.879 265.763 586.085 265.678 586 265.708C585.928 265.738 586.151 265.66 586.151 265.666C586.605 265.526 586.938 265.023 586.787 264.543C586.635 264.064 586.158 263.755 585.667 263.907H585.674Z" fill="#070600"/>
<path d="M561.909 285.518C557.922 283.813 554.625 280.756 552.689 276.862C550.487 272.423 550.341 267.158 552.06 262.542C552.471 261.444 550.717 260.971 550.311 262.057C548.448 267.067 548.702 272.756 551.019 277.572C553.058 281.806 556.688 285.251 560.996 287.089C562.06 287.544 562.986 285.973 561.909 285.518Z" fill="#070600"/>
<path d="M513.672 260.037C513.188 260.037 512.704 260.013 512.214 259.97C507.949 259.588 504.083 257.562 501.337 254.263C498.59 250.969 497.289 246.796 497.67 242.514C498.051 238.238 500.072 234.362 503.363 231.608C506.648 228.854 510.811 227.544 515.082 227.932C519.347 228.315 523.213 230.34 525.96 233.64C528.707 236.934 530.008 241.107 529.626 245.389C529.245 249.665 527.224 253.541 523.933 256.294C521.023 258.733 517.423 260.037 513.672 260.037ZM513.618 229.691C510.291 229.691 507.102 230.85 504.519 233.009C501.603 235.454 499.812 238.887 499.473 242.684C499.134 246.481 500.29 250.181 502.728 253.104C505.166 256.028 508.59 257.823 512.378 258.163C516.159 258.502 519.85 257.344 522.772 254.899C525.688 252.455 527.479 249.022 527.817 245.225C528.156 241.428 527.001 237.728 524.562 234.805C522.124 231.881 518.7 230.086 514.913 229.746C514.483 229.71 514.048 229.685 513.618 229.685V229.691Z" fill="#070600"/>
<path d="M506.261 236.248C507.429 236.248 507.429 234.429 506.261 234.429C505.094 234.429 505.094 236.248 506.261 236.248Z" fill="#070600"/>
<path d="M509.722 234.526C510.889 234.526 510.889 232.706 509.722 232.706C508.554 232.706 508.554 234.526 509.722 234.526Z" fill="#070600"/>
<path d="M506.848 238.359C507.695 238.99 508.863 238.953 509.764 238.486C510.666 238.019 511.252 237.018 511.289 235.975C511.307 235.502 510.859 235.041 510.381 235.065C509.873 235.09 509.492 235.466 509.474 235.975C509.474 236.048 509.468 236.115 509.456 236.188L509.486 235.945C509.468 236.06 509.45 236.169 509.413 236.279C509.395 236.333 509.377 236.4 509.353 236.454L509.401 236.333C509.389 236.363 509.371 236.394 509.353 236.43C509.329 236.479 509.298 236.521 509.274 236.564C509.226 236.636 509.141 236.697 509.31 236.527C509.238 236.6 509.183 236.679 509.105 236.746C509.081 236.77 508.941 236.879 509.074 236.776C509.208 236.673 509.044 236.794 509.02 236.812C508.941 236.861 508.863 236.903 508.778 236.946C508.627 237.025 508.99 236.873 508.826 236.928C508.784 236.94 508.742 236.958 508.699 236.97C508.597 237 508.494 237.025 508.385 237.037L508.627 237.006C508.457 237.025 508.282 237.031 508.112 237.006L508.354 237.037C508.288 237.025 508.215 237.012 508.149 236.994C508.088 236.976 508.01 236.934 507.949 236.928C508.082 236.988 508.106 236.994 508.022 236.952C507.992 236.934 507.961 236.921 507.931 236.903C507.871 236.867 507.816 236.83 507.756 236.788C507.58 236.655 507.259 236.642 507.054 236.697C506.848 236.752 506.612 236.915 506.509 237.116C506.4 237.328 506.34 237.583 506.419 237.819C506.497 238.056 506.636 238.213 506.836 238.365L506.848 238.359Z" fill="#070600"/>
<path d="M525.688 242.077C526.94 247.536 523.667 253.062 518.307 254.596C517.188 254.918 517.659 256.677 518.791 256.349C521.695 255.518 524.242 253.644 525.875 251.09C527.666 248.294 528.174 244.807 527.436 241.586C527.176 240.445 525.422 240.931 525.688 242.071V242.077Z" fill="#070600"/>
<path d="M426.565 186.973C426.087 186.973 425.609 186.948 425.125 186.906C416.316 186.117 409.788 178.287 410.58 169.456C410.962 165.179 412.982 161.304 416.274 158.55C419.559 155.796 423.721 154.492 427.992 154.874C432.258 155.256 436.124 157.282 438.87 160.582C441.617 163.875 442.918 168.048 442.537 172.331C441.792 180.677 434.774 186.979 426.571 186.979L426.565 186.973ZM426.528 156.627C423.201 156.627 420.012 157.786 417.429 159.945C414.513 162.389 412.722 165.822 412.383 169.619C412.045 173.416 413.2 177.116 415.638 180.04C418.076 182.963 421.501 184.759 425.288 185.098C433.092 185.802 440.026 179.997 440.728 172.167C441.066 168.37 439.911 164.67 437.473 161.746C435.035 158.823 431.61 157.027 427.823 156.688C427.393 156.651 426.958 156.627 426.528 156.627Z" fill="#070600"/>
<path d="M419.165 163.178C420.333 163.178 420.333 161.358 419.165 161.358C417.998 161.358 417.998 163.178 419.165 163.178Z" fill="#070600"/>
<path d="M422.626 161.461C423.794 161.461 423.794 159.642 422.626 159.642C421.458 159.642 421.458 161.461 422.626 161.461Z" fill="#070600"/>
<path d="M419.752 165.295C420.599 165.925 421.767 165.889 422.668 165.422C423.57 164.955 424.157 163.954 424.193 162.911C424.211 162.438 423.763 161.977 423.285 162.001C422.777 162.025 422.396 162.401 422.378 162.911C422.378 162.984 422.372 163.05 422.36 163.123L422.39 162.881C422.372 162.996 422.354 163.105 422.317 163.214C422.299 163.269 422.281 163.335 422.257 163.39L422.305 163.269C422.293 163.299 422.275 163.329 422.257 163.366C422.233 163.414 422.203 163.457 422.178 163.499C422.13 163.572 422.045 163.633 422.215 163.463C422.142 163.536 422.088 163.614 422.009 163.681C421.985 163.705 421.846 163.815 421.979 163.712C422.112 163.608 421.948 163.73 421.924 163.748C421.846 163.796 421.767 163.839 421.682 163.881C421.531 163.96 421.894 163.809 421.731 163.863C421.688 163.875 421.646 163.893 421.604 163.906C421.501 163.936 421.398 163.96 421.289 163.972L421.531 163.942C421.362 163.96 421.186 163.966 421.017 163.942L421.259 163.972C421.192 163.96 421.12 163.948 421.053 163.93C420.993 163.912 420.914 163.869 420.853 163.863C420.986 163.924 421.011 163.93 420.926 163.887C420.896 163.869 420.865 163.857 420.835 163.839C420.775 163.803 420.72 163.766 420.66 163.724C420.484 163.59 420.164 163.578 419.958 163.633C419.752 163.687 419.516 163.851 419.413 164.051C419.305 164.263 419.244 164.518 419.323 164.755C419.401 164.991 419.541 165.149 419.74 165.301L419.752 165.295Z" fill="#070600"/>
<path d="M438.598 169.013C439.85 174.472 436.577 179.997 431.217 181.532C430.098 181.853 430.57 183.612 431.701 183.285C434.605 182.454 437.152 180.58 438.786 178.026C440.576 175.23 441.085 171.742 440.346 168.521C440.086 167.381 438.332 167.866 438.598 169.007V169.013Z" fill="#070600"/>
<path d="M506.999 215.838C506.709 215.838 506.419 215.832 506.128 215.814C501.851 215.583 497.912 213.703 495.051 210.506C489.134 203.913 489.678 193.723 496.255 187.797C499.443 184.922 503.545 183.467 507.828 183.697C512.106 183.928 516.044 185.808 518.906 189.004C521.773 192.201 523.225 196.319 522.996 200.608C522.766 204.896 520.89 208.844 517.702 211.713C514.731 214.388 510.956 215.838 506.993 215.838H506.999ZM506.963 185.493C503.448 185.493 500.102 186.778 497.465 189.15C494.639 191.697 492.969 195.197 492.77 199C492.57 202.803 493.859 206.461 496.4 209.293C498.941 212.126 502.432 213.8 506.225 214C510.012 214.2 513.666 212.908 516.492 210.361C519.317 207.813 520.987 204.314 521.187 200.511C521.386 196.708 520.098 193.05 517.557 190.217C515.016 187.385 511.525 185.711 507.731 185.511C507.471 185.499 507.217 185.493 506.963 185.493Z" fill="#070600"/>
<path d="M507.429 189.314C508.596 189.314 508.596 187.494 507.429 187.494C506.261 187.494 506.261 189.314 507.429 189.314Z" fill="#070600"/>
<path d="M511.131 190.418C512.299 190.418 512.299 188.598 511.131 188.598C509.964 188.598 509.964 190.418 511.131 190.418Z" fill="#070600"/>
<path d="M505.795 191C505.989 192.019 506.836 192.826 507.816 193.099C508.796 193.372 509.909 193.074 510.654 192.334C510.992 192.001 511.017 191.382 510.654 191.048C510.291 190.715 509.728 190.691 509.371 191.048C509.341 191.079 509.304 191.115 509.268 191.146C509.244 191.164 509.141 191.249 509.256 191.164C509.377 191.073 509.244 191.17 509.214 191.188C509.183 191.206 509.153 191.23 509.117 191.249C509.074 191.273 509.038 191.291 508.996 191.315C508.972 191.328 508.851 191.388 508.978 191.328C509.117 191.267 508.966 191.328 508.929 191.34C508.893 191.352 508.857 191.358 508.82 191.37C508.778 191.382 508.736 191.388 508.699 191.394C508.591 191.418 508.905 191.376 508.79 191.382C508.718 191.382 508.639 191.394 508.566 191.394C508.524 191.394 508.482 191.394 508.439 191.394C508.361 191.388 508.27 191.346 508.506 191.406C508.433 191.388 508.361 191.376 508.288 191.358C508.24 191.346 508.107 191.328 508.076 191.285C508.088 191.297 508.27 191.376 508.155 191.315C508.119 191.297 508.082 191.279 508.046 191.255C507.992 191.224 507.919 191.152 507.858 191.133C507.883 191.139 508.016 191.267 507.925 191.182C507.895 191.152 507.865 191.127 507.834 191.097C507.792 191.061 507.719 190.939 507.677 190.921C507.707 190.933 507.786 191.079 507.719 190.97C507.695 190.927 507.671 190.891 507.647 190.848C507.629 190.818 507.616 190.782 507.598 190.751C507.544 190.654 507.665 190.945 507.616 190.788C507.592 190.697 507.562 190.612 507.55 190.521C507.459 190.054 506.872 189.744 506.431 189.884C505.929 190.048 505.705 190.503 505.795 191.006V191Z" fill="#070600"/>
<path d="M517.097 206.564C514.314 211.404 508.203 213.29 503.206 210.755C502.165 210.227 501.246 211.798 502.292 212.326C508.161 215.298 515.379 213.212 518.67 207.48C519.257 206.461 517.684 205.545 517.103 206.564H517.097Z" fill="#070600"/>
<path d="M610.394 242.732C609.456 242.732 608.518 242.696 607.575 242.617C598.59 241.877 590.435 237.674 584.603 230.783C578.771 223.893 575.969 215.134 576.707 206.127C577.445 197.12 581.638 188.944 588.511 183.097C602.698 171.026 624.037 172.785 636.076 187.015C648.116 201.245 646.361 222.631 632.168 234.702C626.015 239.936 618.374 242.738 610.394 242.738V242.732ZM610.315 176.898C603.013 176.898 595.674 179.391 589.685 184.486C583.181 190.017 579.212 197.757 578.516 206.279C577.821 214.801 580.471 223.086 585.988 229.607C591.506 236.127 599.226 240.106 607.726 240.803C616.226 241.501 624.49 238.844 630.994 233.312C637.498 227.781 641.467 220.041 642.162 211.519C642.858 202.997 640.208 194.712 634.691 188.192C628.38 180.737 619.378 176.898 610.315 176.898Z" fill="#070600"/>
<path d="M611.658 187.167C612.826 187.167 612.826 185.347 611.658 185.347C610.491 185.347 610.491 187.167 611.658 187.167Z" fill="#070600"/>
<path d="M616.159 187.628C617.327 187.628 617.327 185.808 616.159 185.808C614.992 185.808 614.992 187.628 616.159 187.628Z" fill="#070600"/>
<path d="M606.891 188.78C607.72 191.491 610.079 193.463 612.856 193.911C615.633 194.36 618.464 193.341 620.261 191.103C620.57 190.715 620.63 190.193 620.261 189.817C619.947 189.496 619.287 189.435 618.979 189.817C617.593 191.546 615.53 192.492 613.31 192.158C611.09 191.825 609.287 190.418 608.639 188.301C608.3 187.185 606.546 187.658 606.891 188.786V188.78Z" fill="#070600"/>
<path d="M632.736 224.888C627.8 233.027 618.265 237.583 608.845 236.127C606.05 235.696 603.352 234.78 600.871 233.41C599.849 232.845 598.929 234.416 599.958 234.98C604.658 237.577 610.152 238.687 615.494 238.031C620.467 237.425 625.126 235.344 628.949 232.112C631.067 230.322 632.87 228.181 634.31 225.81C634.921 224.809 633.347 223.893 632.742 224.894L632.736 224.888Z" fill="#070600"/>
<path d="M465.932 197.217C465.932 197.217 471.087 200.887 477.239 203.719C483.392 206.552 491.372 210.889 491.372 210.889L454.298 194.554L441.829 188.386C441.829 188.386 446.481 191.722 451.636 191.886C456.79 192.049 455.792 191.722 455.792 191.722L465.932 197.223V197.217Z" fill="#070600"/>
<path d="M492.364 211.386C492.364 211.386 493.236 211.695 494.3 212.011C495.704 212.423 497.446 212.836 498.015 212.55C499.013 212.053 501.01 213.551 501.01 213.551L507.326 214.716C507.326 214.716 505.662 216.384 507.822 218.216L509.982 220.047L501.506 217.882L492.364 211.38V211.386Z" fill="#070600"/>
<path d="M436.844 182.047C436.844 182.047 435.5 184.825 437.836 186.354L426.704 187.379L434.684 184.213L436.844 182.047Z" fill="#070600"/>
<path d="M491.838 151.393C499.261 155.038 502.752 165.016 499.031 172.476C498.511 173.519 500.078 174.441 500.598 173.392C503.835 166.908 502.341 158.744 497.537 153.437C496.188 151.945 494.554 150.707 492.752 149.822C491.705 149.306 490.785 150.877 491.838 151.393Z" fill="#070600"/>
<path d="M522.59 279.101C522.511 271.04 529.173 263.488 537.213 262.73C538.369 262.621 538.375 260.801 537.213 260.91C528.198 261.759 520.678 269.984 520.775 279.101C520.787 280.271 522.602 280.271 522.59 279.101Z" fill="#070600"/>
<path d="M520.073 221.285C533.014 221.345 545.955 219.198 558.207 215.037C570.458 210.876 582.056 204.744 592.323 196.847C593.291 196.101 594.113 195.306 594.446 194.081C594.73 193.044 594.615 191.94 594.186 190.964C593.756 189.987 593.042 189.205 592.123 188.738C590.901 188.113 589.648 188.234 588.329 188.386C582.116 189.095 575.963 191.127 571.668 195.895C567.947 200.019 565.817 205.933 567.929 211.337C569.962 216.542 575.038 219.962 580.319 221.236C587.458 222.959 594.882 221.109 601.881 219.617C609.262 218.04 616.65 216.463 624.031 214.892C625.9 214.491 627.769 214.091 629.645 213.697C630.788 213.454 630.304 211.701 629.161 211.944C622.173 213.436 615.179 214.928 608.192 216.42C604.761 217.154 601.331 217.894 597.901 218.616C594.47 219.338 591.028 219.975 587.525 220.084C581.916 220.26 576.054 218.853 572.097 214.607C570.367 212.751 569.163 210.367 568.945 207.813C568.727 205.26 569.393 202.706 570.621 200.462C573.404 195.391 578.395 192.353 583.883 191C585.432 190.618 587.011 190.351 588.602 190.181C589.673 190.066 590.762 189.902 591.681 190.6C593.121 191.704 593.121 193.839 591.772 194.991C589.527 196.92 586.956 198.576 584.488 200.201C582.019 201.827 579.333 203.446 576.671 204.92C571.365 207.844 565.842 210.361 560.155 212.429C548.75 216.578 536.711 218.986 524.575 219.404C523.074 219.453 521.574 219.477 520.073 219.471C518.906 219.471 518.906 221.285 520.073 221.291V221.285Z" fill="#070600"/>
<path d="M150.636 153.097C150.424 153.097 150.207 153.018 150.031 152.867C149.656 152.533 149.626 151.957 149.959 151.581L267.298 19.7118C267.758 19.1902 278.727 6.84092 287.003 11.8813C293.622 15.9088 294.844 22.0409 296.417 37.2531C296.465 37.7504 296.108 38.1993 295.606 38.2539C295.104 38.3024 294.663 37.9445 294.608 37.4411C293.102 22.878 291.97 17.0369 286.053 13.4341C279.06 9.17612 268.75 20.7975 268.648 20.9188L151.302 152.794C151.12 152.994 150.872 153.097 150.624 153.097H150.636Z" fill="#070600"/>
<path d="M214.917 127.21C214.706 127.21 214.488 127.131 214.312 126.979C213.937 126.646 213.907 126.069 214.24 125.693C217.271 122.291 288.413 42.342 288.588 42.1418C293.628 36.4767 302.316 31.9155 309.479 35.2939C317.15 38.9089 318.627 49.3415 319.812 57.73C320.103 59.7801 320.375 61.7089 320.714 63.3587C320.817 63.85 320.502 64.3292 320.006 64.4323C319.516 64.5354 319.032 64.22 318.935 63.7227C318.584 62.0183 318.306 60.0591 318.009 57.9787C316.884 50.0269 315.487 40.1341 308.699 36.9377C302.382 33.9535 294.542 38.175 289.931 43.3549C289.738 43.5672 216.327 126.069 215.583 126.906C215.401 127.107 215.153 127.21 214.905 127.21H214.917Z" fill="#070600"/>
<path d="M295.443 254.924C295.443 254.924 295.401 254.924 295.376 254.924C286.374 254.293 273.221 251.97 261.623 249.926C261.127 249.841 260.801 249.368 260.885 248.87C260.97 248.373 261.448 248.045 261.938 248.13C273.494 250.168 286.598 252.479 295.503 253.104C296.006 253.14 296.381 253.571 296.344 254.075C296.308 254.554 295.915 254.924 295.443 254.924Z" fill="#070600"/>
<path d="M266.718 187.985C266.53 187.985 266.336 187.925 266.173 187.803C265.774 187.5 265.695 186.93 265.992 186.53C276.21 172.913 291.008 154.995 311.233 131.759C311.56 131.383 312.135 131.34 312.516 131.674C312.891 132.001 312.933 132.578 312.601 132.96C292.406 156.166 277.632 174.047 267.444 187.628C267.268 187.864 266.99 187.992 266.718 187.992V187.985Z" fill="#070600"/>
<path d="M360.341 190.794C360.341 190.794 359.706 194.633 353.547 196.829C349.578 196.077 346.112 192.413 343.831 187.076C342.034 182.897 340.975 177.68 340.975 172.033C340.975 158.344 347.207 147.238 354.921 147.098C356.56 158.817 358.224 172.076 359.93 187.076C360.069 188.301 360.208 189.544 360.347 190.794H360.341Z" fill="#070600"/>
<path d="M353.547 197.739C353.493 197.739 353.426 197.739 353.372 197.72C349.233 196.938 345.446 193.19 342.99 187.434C341.072 182.975 340.062 177.65 340.062 172.033C340.062 157.689 346.578 146.34 354.896 146.188H354.914C355.368 146.188 355.749 146.522 355.816 146.971C357.455 158.695 359.143 172.155 360.831 186.973C360.971 188.198 361.11 189.441 361.249 190.691C361.255 190.776 361.255 190.86 361.243 190.939C361.212 191.115 360.444 195.337 353.856 197.684C353.759 197.72 353.656 197.739 353.553 197.739H353.547ZM354.134 148.069C347.304 148.948 341.877 159.405 341.877 172.033C341.877 177.407 342.839 182.484 344.66 186.718C346.826 191.795 350.032 195.118 353.481 195.889C358.321 194.087 359.276 191.309 359.428 190.745C359.295 189.544 359.162 188.355 359.028 187.179C357.383 172.731 355.743 159.581 354.14 148.069H354.134Z" fill="#070600"/>
<path d="M237.375 155.456C237.163 155.456 236.945 155.384 236.77 155.226C236.395 154.892 236.365 154.316 236.697 153.94C239.729 150.537 310.87 70.5827 311.046 70.3886C316.079 64.7295 324.767 60.1622 331.937 63.5407C338.029 66.4157 346.251 78.4981 355.816 146.971C355.888 147.468 355.538 147.929 355.042 147.996C354.545 148.063 354.086 147.717 354.019 147.22C346.753 95.1781 339.487 69.1148 331.168 65.1844C324.84 62.2063 317.005 66.4218 312.401 71.6017C312.044 72.002 238.797 154.316 238.059 155.147C237.877 155.347 237.629 155.45 237.381 155.45L237.375 155.456Z" fill="#070600"/>
<path d="M343.196 199.225C342.748 199.225 342.288 199.225 341.828 199.206C328.246 198.855 320.212 186.882 315.868 176.898C314.222 173.143 312.837 169.061 311.742 164.761C309.013 154.049 308.759 142.78 311.022 132.165C311.022 132.165 311.034 132.104 311.046 132.08C312.268 126.336 314.216 120.853 316.836 115.782C317.066 115.34 317.616 115.164 318.058 115.394C318.506 115.625 318.675 116.177 318.445 116.619C315.892 121.569 313.992 126.931 312.8 132.541C312.8 132.572 312.788 132.602 312.776 132.632C310.592 142.949 310.846 153.898 313.496 164.312C314.567 168.515 315.922 172.5 317.525 176.17C321.658 185.668 329.238 197.059 341.871 197.387C346.432 197.502 350.256 197.029 353.233 195.974C353.704 195.804 354.225 196.052 354.394 196.526C354.564 196.999 354.315 197.52 353.844 197.69C350.97 198.709 347.388 199.225 343.196 199.225Z" fill="#070600"/>
<path d="M303.992 187.512C294.535 187.512 286.386 178.347 283.712 164.712C283.615 164.221 283.936 163.742 284.426 163.645C284.91 163.548 285.394 163.869 285.491 164.361C287.953 176.922 295.564 185.693 303.992 185.693C308.39 185.693 312.546 183.43 315.995 179.154C316.309 178.766 316.878 178.699 317.271 179.021C317.659 179.336 317.719 179.912 317.404 180.301C313.647 184.953 308.886 187.512 303.986 187.512H303.992Z" fill="#070600"/>
<path d="M311.457 135.604C311.324 135.604 311.191 135.574 311.064 135.513C310.671 135.325 310.338 135.174 310.017 135.046C309.667 134.919 309.412 134.585 309.412 134.191C309.412 133.688 309.818 133.281 310.32 133.281C310.435 133.281 310.55 133.305 310.659 133.342C311.034 133.487 311.415 133.657 311.863 133.876C312.316 134.094 312.504 134.64 312.286 135.089C312.129 135.416 311.808 135.604 311.469 135.604H311.457Z" fill="#070600"/>
<path d="M355.604 240.075L331.186 283.443C326.298 278.166 324.652 265.065 330.303 254.378C331.374 252.346 332.614 250.502 333.975 248.852C340.564 240.828 349.851 237.443 355.604 240.075Z" fill="#070600"/>
<path d="M331.186 284.353C330.938 284.353 330.696 284.25 330.521 284.062C325.312 278.439 323.66 264.998 329.498 253.953C330.569 251.927 331.84 250.011 333.274 248.276C339.88 240.233 349.639 236.351 355.979 239.251C356.209 239.354 356.385 239.554 356.463 239.796C356.542 240.039 356.518 240.306 356.391 240.524L331.973 283.892C331.828 284.147 331.574 284.317 331.289 284.347C331.253 284.347 331.217 284.353 331.18 284.353H331.186ZM351.212 240.088C345.936 240.088 339.463 243.599 334.677 249.434C333.316 251.078 332.118 252.886 331.108 254.808C326.032 264.41 327.018 276.262 331.047 281.848L354.297 240.555C353.335 240.245 352.301 240.1 351.212 240.1V240.088Z" fill="#070600"/>
<path d="M277.069 274.746C276.863 274.746 276.694 274.649 276.5 274.491C275.732 273.866 276.404 272.95 276.845 272.35C277.069 272.046 277.45 271.919 277.789 272.004C279.537 270.275 283.9 265.635 294.759 253.413C296.671 251.26 298.783 248.876 301.106 246.244C325.747 218.313 346.983 228.466 354.969 234.131C357.014 235.581 357.625 238.335 356.391 240.53C356.143 240.967 355.592 241.119 355.156 240.876C354.721 240.627 354.564 240.075 354.812 239.639C355.592 238.256 355.211 236.533 353.922 235.623C346.336 230.243 326.135 220.636 302.467 247.457C300.144 250.09 298.032 252.473 296.121 254.626C289.332 262.263 284.329 267.789 281.244 271.052C278.569 273.878 277.674 274.752 277.069 274.752V274.746Z" fill="#070600"/>
<path d="M305.746 320.364C301.287 320.364 293.332 320.139 279.277 319.254C251.133 317.489 208.789 283.001 206.998 281.533C206.611 281.217 206.55 280.641 206.871 280.253C207.186 279.865 207.76 279.81 208.148 280.126C208.583 280.483 251.829 315.712 279.386 317.434C295.987 318.477 304.028 318.599 307.845 318.52C309.431 318.484 310.895 317.604 311.675 316.221L330.388 282.995C330.636 282.558 331.192 282.406 331.622 282.649C332.058 282.898 332.215 283.45 331.967 283.886L313.254 317.113C312.159 319.054 310.102 320.291 307.882 320.34C307.277 320.352 306.569 320.358 305.74 320.358L305.746 320.364Z" fill="#070600"/>
<path d="M91.3099 196.459C115.915 196.908 140.521 197.138 165.132 197.144C189.616 197.15 214.101 196.944 238.579 196.513C252.385 196.271 266.191 195.962 279.991 195.585C281.159 195.555 281.159 193.735 279.991 193.766C255.392 194.439 230.793 194.9 206.187 195.137C181.703 195.373 157.219 195.391 132.734 195.191C118.922 195.076 105.116 194.894 91.3038 194.645C90.1362 194.621 90.1362 196.441 91.3038 196.465L91.3099 196.459Z" fill="#070600"/>
<path d="M361.569 244.297C376.688 244.006 391.807 243.709 406.932 243.418C411.167 243.333 415.402 243.254 419.631 243.169C420.799 243.145 420.799 241.325 419.631 241.349C404.512 241.64 389.393 241.938 374.268 242.229C370.033 242.314 365.798 242.393 361.569 242.477C360.402 242.502 360.402 244.321 361.569 244.297Z" fill="#070600"/>
<path d="M262.059 202.075C271.067 202.245 280.076 202.409 289.084 202.579C290.252 202.603 290.252 200.784 289.084 200.759C280.076 200.589 271.067 200.426 262.059 200.256C260.891 200.232 260.891 202.051 262.059 202.075Z" fill="#070600"/>
<path d="M85.3083 242.793C86.4759 242.793 86.4759 240.973 85.3083 240.973C84.1406 240.973 84.1406 242.793 85.3083 242.793Z" fill="#070600"/>
<path d="M88.3151 243.375C90.4871 243.223 92.653 243.072 94.8249 242.92C95.315 242.884 95.7324 242.526 95.7324 242.01C95.7324 241.543 95.315 241.064 94.8249 241.101C92.653 241.252 90.4871 241.404 88.3151 241.555C87.8251 241.592 87.4076 241.95 87.4076 242.465C87.4076 242.932 87.8251 243.411 88.3151 243.375Z" fill="#070600"/>
<path d="M425.627 242.289C426.794 242.289 426.794 240.47 425.627 240.47C424.459 240.47 424.459 242.289 425.627 242.289Z" fill="#070600"/>
<path d="M429.136 242.793H431.138C431.368 242.793 431.616 242.69 431.78 242.526C431.943 242.362 432.058 242.107 432.046 241.883C432.034 241.659 431.961 241.404 431.78 241.24C431.598 241.076 431.386 240.973 431.138 240.973H429.136C428.906 240.973 428.658 241.076 428.495 241.24C428.331 241.404 428.216 241.659 428.228 241.883C428.24 242.107 428.313 242.362 428.495 242.526C428.676 242.69 428.888 242.793 429.136 242.793Z" fill="#070600"/>
<path d="M297.155 149.755C297.155 149.755 303.12 142.852 306.793 145C310.465 147.147 310.925 149.294 310.925 149.294L311.687 133.954L305.722 139.474L297.155 149.749V149.755Z" fill="#070600"/>
<path d="M340.201 203.137C345.361 199.504 352.428 199.122 357.921 202.251C358.938 202.834 359.851 201.263 358.835 200.68C352.815 197.247 344.962 197.569 339.281 201.566C338.331 202.233 339.239 203.81 340.195 203.137H340.201Z" fill="#070600"/>
<path d="M325.034 226.81C331.168 230.996 339.372 230.444 344.986 225.628C345.876 224.863 344.587 223.584 343.704 224.342C338.682 228.648 331.386 228.945 325.953 225.239C324.985 224.578 324.078 226.155 325.04 226.81H325.034Z" fill="#070600"/>
<path d="M278.049 252.316C278.049 252.316 287.336 255.482 287.148 258.272C286.961 261.062 284.359 266.278 284.359 266.278L294.759 254.36L278.043 252.309L278.049 252.316Z" fill="#070600"/>
<path d="M104.487 259.121C104.487 258.472 105.352 251.315 114.439 250.447C123.526 249.58 144.943 249.143 144.943 249.143L103.337 248.852L104.487 259.121Z" fill="#070600"/>
<path d="M57.932 189.441C64.3934 189.338 70.8548 189.235 77.3162 189.132C78.4839 189.114 78.4839 187.294 77.3162 187.312C70.8548 187.415 64.3934 187.518 57.932 187.622C56.7644 187.64 56.7644 189.459 57.932 189.441Z" fill="#070600"/>
<path d="M58.7488 248.221C65.1739 248.682 71.6171 248.852 78.0604 248.725C79.228 248.701 79.228 246.881 78.0604 246.905C71.6171 247.033 65.1739 246.863 58.7488 246.402C57.5811 246.317 57.5872 248.136 58.7488 248.221Z" fill="#070600"/>
<path d="M54.9433 245.71C55.0462 245.722 55.0401 245.722 54.9191 245.71C54.9675 245.716 55.0159 245.722 55.0643 245.735C55.149 245.747 55.2337 245.765 55.3184 245.777C55.4999 245.807 55.6814 245.85 55.8629 245.892C56.1957 245.971 56.5284 246.068 56.8551 246.183C57.0185 246.238 57.1818 246.299 57.3391 246.365C57.3875 246.384 57.4299 246.402 57.4783 246.42C57.3754 246.377 57.3694 246.377 57.4662 246.42C57.5327 246.45 57.5993 246.481 57.6658 246.511C57.9986 246.669 58.3253 246.844 58.6459 247.033C59.0513 247.275 59.6623 247.136 59.8862 246.705C60.11 246.274 59.9951 245.722 59.5595 245.462C58.1377 244.612 56.5708 244.109 54.9373 243.903C54.4654 243.842 54.0116 244.364 54.0298 244.813C54.054 245.358 54.4291 245.662 54.9373 245.722L54.9433 245.71Z" fill="#070600"/>
<path d="M57.9502 189.265C58.047 189.023 57.932 189.296 57.9139 189.338C57.8776 189.417 57.8352 189.49 57.7929 189.562C57.7082 189.714 57.6174 189.854 57.5206 189.993C57.4964 190.029 57.4722 190.06 57.448 190.096C57.3875 190.175 57.3996 190.163 57.4722 190.066C57.442 190.133 57.3573 190.205 57.3089 190.26C57.2121 190.369 57.1032 190.478 57.0003 190.581C56.9398 190.642 56.8733 190.697 56.8128 190.751C56.7765 190.788 56.5647 190.982 56.7462 190.812C56.6252 190.927 56.4619 191.018 56.3227 191.103C56.1836 191.188 56.0263 191.273 55.875 191.352C55.8206 191.376 55.5846 191.522 55.8024 191.388C55.7419 191.425 55.6572 191.443 55.5967 191.467C55.4455 191.522 55.2942 191.57 55.1369 191.606C55.0522 191.625 54.9736 191.643 54.8889 191.661C54.8284 191.673 54.5501 191.691 54.8163 191.679C54.7134 191.679 54.7316 191.691 54.8647 191.704C55.2216 191.879 55.3668 192.146 55.3003 192.492C55.2761 192.577 55.2398 192.644 55.1793 192.704C55.1309 192.759 55.0704 192.795 54.9978 192.814C55.0341 192.771 55.2035 192.759 55.2579 192.747C55.3305 192.729 55.4031 192.71 55.4757 192.686C56.353 192.383 56.9761 191.734 57.3089 190.879L55.9779 191.425C56.0565 191.473 56.1352 191.516 56.2138 191.564C56.2622 191.594 56.3106 191.625 56.353 191.661C56.3711 191.673 56.4921 191.77 56.3953 191.691C56.2985 191.613 56.4195 191.716 56.4377 191.728C56.474 191.758 56.5042 191.788 56.5405 191.819C56.6192 191.886 56.6918 191.958 56.7583 192.031C56.8188 192.098 56.8793 192.165 56.9398 192.237C56.964 192.268 57.0124 192.31 57.0245 192.346C57.0003 192.292 56.9398 192.231 57.0064 192.328C57.1213 192.498 57.2302 192.674 57.327 192.856L58.5673 191.613C58.7851 191.776 58.537 191.516 58.7004 191.734C58.6096 191.613 58.7427 191.867 58.7185 191.77C58.6943 191.673 58.7125 191.995 58.7246 191.819L58.7064 191.946C58.7306 191.855 58.7185 191.873 58.6701 192.007C58.8637 191.57 58.8093 191.006 58.3434 190.763C57.9502 190.557 57.3089 190.624 57.1032 191.091C56.7523 191.885 56.9519 192.668 57.6537 193.19C57.9623 193.42 58.5007 193.323 58.7548 193.05C59.0392 192.741 59.0876 192.322 58.894 191.946C58.4463 191.079 57.7324 190.351 56.8914 189.866C56.3409 189.55 55.7661 189.866 55.5604 190.412C55.5725 190.387 55.6512 190.23 55.5786 190.369C55.5665 190.399 55.5483 190.424 55.5362 190.454C55.5241 190.478 55.4152 190.612 55.4213 190.642C55.4213 190.624 55.5604 190.478 55.4455 190.606C55.4213 190.63 55.4031 190.654 55.3789 190.678C55.3547 190.703 55.3366 190.721 55.3124 190.745C55.3003 190.757 55.1672 190.897 55.264 190.8C55.3487 190.709 55.1914 190.848 55.149 190.873C55.0885 190.909 55.022 190.939 54.9554 190.976C54.8647 191.024 55.022 190.945 55.028 190.945C55.022 190.945 54.9252 190.982 54.907 190.982C54.8223 191.006 54.7316 191.024 54.6469 191.042C54.1326 191.176 53.6849 191.516 53.5458 192.049C53.3885 192.686 53.7878 193.372 54.4472 193.481C55.2035 193.608 56.0626 193.275 56.7402 192.959C57.3452 192.674 57.9078 192.262 58.3797 191.788C58.9666 191.2 59.3901 190.515 59.7107 189.75C59.8922 189.308 59.5111 188.731 59.0755 188.628C58.5491 188.507 58.1559 188.792 57.9562 189.265H57.9502Z" fill="#070600"/>
<path d="M56.1836 237.704C61.3805 237.655 66.5775 237.601 71.7744 237.552C72.9421 237.54 72.9421 235.72 71.7744 235.733C66.5775 235.781 61.3805 235.836 56.1836 235.884C55.0159 235.896 55.0159 237.716 56.1836 237.704Z" fill="#070600"/>
<path d="M72.2403 197.357H60.8421C59.6744 197.357 59.6744 199.176 60.8421 199.176H72.2403C73.4079 199.176 73.4079 197.357 72.2403 197.357Z" fill="#070600"/>
<path d="M72.0104 202.676C73.178 202.676 73.178 200.856 72.0104 200.856C70.8427 200.856 70.8427 202.676 72.0104 202.676Z" fill="#070600"/>
<path d="M316.321 48.3346C316.321 48.3346 317.852 60.5868 316.152 63.565C314.452 66.5431 309.703 72.5843 309.703 72.5843L316.83 66.628L320.478 64.3292L317.761 49.4385L316.321 48.3346Z" fill="#070600"/>
<path d="M303.12 187.427C303.12 187.427 307.622 186.402 314.579 190.096C321.537 193.79 330.751 195.228 330.751 195.228L325.427 190.715L321.742 186.815L303.114 187.427H303.12Z" fill="#070600"/>
<path d="M320.266 231.026C320.266 231.026 315.989 234.301 311.004 237.564C306.92 240.239 302.364 242.908 299.285 243.769C292.448 245.68 266.07 248.87 266.07 248.87H299.285L304.209 243.933L320.26 231.026H320.266Z" fill="#070600"/>
</svg>
