<svg width="402" height="472" viewBox="0 0 402 472" fill="none" xmlns="http://www.w3.org/2000/svg">
<g clip-path="url(#clip0_10085_30989)">
<path d="M87.954 324.414C66.1658 304.47 46.0802 284.229 31.4141 264.644C17.1987 245.634 8.85372 227.903 8.07198 209.507C7.18951 191.119 13.8943 172.704 26.3351 152.491C39.1692 131.661 57.346 109.69 77.2398 87.8632C97.2055 66.1033 117.469 46.0347 137.075 31.3844C156.105 17.1844 173.855 8.8484 192.272 8.0675C210.683 7.18599 229.114 13.8835 249.349 26.3109C270.202 39.1311 292.191 57.2883 314.047 77.1605C335.83 97.1047 355.92 117.346 370.587 136.931C384.802 155.941 393.147 173.671 393.929 192.068C394.811 210.46 388.106 228.871 375.666 249.083C362.831 269.914 344.655 291.885 324.761 313.711C304.795 335.471 284.532 355.54 264.926 370.19C245.896 384.39 228.146 392.726 209.729 393.507C191.317 394.389 172.886 387.691 152.652 375.264C131.799 362.444 109.805 344.286 87.954 324.414Z" fill="#99CC33"/>
<path d="M310.354 81.1896C331.115 100.195 350.122 119.636 363.973 138.627C377.402 157.057 385.272 174.409 386.039 192.418C386.902 210.417 380.629 228.411 368.927 247.977C356.846 268.141 339.676 289.221 320.718 310.018C301.692 330.757 282.23 349.743 263.219 363.579C244.768 376.993 227.397 384.855 209.369 385.621C191.351 386.484 173.337 380.217 153.75 368.528C133.564 356.46 112.466 339.309 91.642 320.371C70.8802 301.37 51.8737 281.924 38.0228 262.934C24.5941 244.503 16.7238 227.151 15.9565 209.142C15.098 191.143 21.3664 173.149 33.0686 153.583C45.1497 133.419 62.3193 112.344 81.2731 91.5425C100.299 70.8079 119.761 51.8219 138.772 37.9813C157.222 24.567 174.593 16.7053 192.622 15.9388C210.64 15.0812 228.654 21.338 248.241 33.0324C268.427 45.1004 289.525 62.2515 310.349 81.1896M317.739 73.1123C294.282 51.9944 271.285 32.5772 250.404 19.4313C229.383 6.1703 210.467 -0.824284 191.912 0.0763883C173.347 0.852499 155.141 9.52386 135.401 24.6341C115.79 39.6101 94.6443 61.0203 73.1918 84.1694C52.0511 107.601 32.613 130.573 19.4576 151.432C6.17746 172.431 -0.824687 191.325 0.0769594 209.861C0.85391 228.406 9.53465 246.592 24.6612 266.311C39.6535 285.901 61.0868 307.023 84.261 328.453C107.718 349.571 130.715 368.988 151.597 382.129C172.622 395.395 191.533 402.389 210.089 401.489C228.654 400.713 246.859 392.041 266.6 376.931C286.211 361.955 307.356 340.545 328.809 317.396C349.949 293.964 369.387 270.992 382.543 250.133C395.823 229.13 402.825 210.24 401.919 191.704C401.142 173.159 392.461 154.973 377.334 135.254C362.342 115.664 340.909 94.5415 317.735 73.1123H317.739Z" fill="#333366"/>
<path d="M317.279 306.913C278.268 348.009 244.327 378.172 209.053 378.991C173.85 381.358 137.314 354.376 94.7401 316.969C53.6001 277.996 23.3997 244.092 22.5796 208.855C20.2104 173.691 47.2214 137.199 84.6685 94.6758C123.689 53.585 157.635 23.4173 192.904 22.5981C228.107 20.2266 264.638 47.2085 307.207 84.6103C348.343 123.584 378.538 157.488 379.358 192.724C381.727 227.889 354.721 264.385 317.279 306.913Z" fill="#99CC33"/>
<path d="M317.279 306.913C278.268 348.009 244.327 378.172 209.053 378.991C173.85 381.358 137.314 354.376 94.7401 316.969C53.6001 277.996 23.3997 244.092 22.5796 208.855C20.2104 173.691 47.2214 137.199 84.6685 94.6758C123.689 53.585 157.635 23.4173 192.904 22.5981C228.107 20.2266 264.638 47.2085 307.207 84.6103C348.343 123.584 378.538 157.488 379.358 192.724C381.727 227.889 354.721 264.385 317.279 306.913Z" stroke="#333366" stroke-width="0.82" stroke-miterlimit="10"/>
<path d="M300.565 91.878C318.756 108.521 335.096 125.921 346.966 143.326C358.467 160.204 365.172 176.469 365.901 193.333C366.697 210.197 361.488 226.998 351.561 244.844C341.312 263.25 326.612 282.054 310.004 300.269C293.342 318.44 275.923 334.762 258.504 346.62C241.613 358.108 225.33 364.81 208.448 365.534C191.567 366.329 174.747 361.126 156.882 351.209C138.456 340.971 119.636 326.287 101.392 309.692C83.2011 293.049 66.8563 275.649 54.9863 258.244C43.4855 241.366 36.7759 225.106 36.0469 208.242C35.246 191.378 40.4592 174.582 50.3869 156.736C60.6359 138.33 75.3405 119.531 91.9538 101.316C108.615 83.1443 126.039 66.822 143.463 54.9648C160.359 43.4764 176.641 36.7741 193.523 36.0459C210.405 35.2458 227.225 40.4534 245.085 50.3656C263.506 60.6036 282.331 75.2874 300.565 91.8828M307.212 84.6103C264.643 47.2085 228.117 20.2266 192.909 22.5981C157.635 23.4173 123.689 53.585 84.6735 94.6758C47.2264 137.199 20.2105 173.691 22.5846 208.855C23.4047 244.087 53.605 277.996 94.745 316.969C137.319 354.376 173.855 381.358 209.057 378.991C244.332 378.177 278.273 348.009 317.284 306.918C354.726 264.395 381.732 227.899 379.363 192.734C378.543 157.498 348.347 123.588 307.212 84.6199V84.6103Z" fill="#333366"/>
<path d="M305.755 296.427C272.245 331.927 240.707 356.906 208.08 357.811C175.501 359.847 141.828 337.814 105.235 305.481C69.6915 272.003 44.6756 240.494 43.7691 207.902C41.726 175.358 63.7876 141.727 96.1605 105.182C129.68 69.6825 161.228 44.6984 193.855 43.793C226.434 41.7521 260.102 63.7802 296.686 96.1086C332.219 129.587 357.226 161.096 358.132 193.693C360.175 226.241 338.123 259.878 305.76 296.427H305.755Z" fill="#99CC33"/>
<path d="M305.755 296.427C272.245 331.927 240.707 356.906 208.08 357.811C175.501 359.847 141.828 337.814 105.235 305.481C69.6915 272.003 44.6756 240.494 43.7691 207.902C41.726 175.358 63.7876 141.727 96.1605 105.182C129.68 69.6825 161.228 44.6984 193.855 43.793C226.434 41.7521 260.102 63.7802 296.686 96.1086C332.219 129.587 357.226 161.096 358.132 193.693C360.175 226.241 338.123 259.878 305.76 296.427H305.755Z" stroke="#333366" stroke-width="1.63" stroke-miterlimit="10"/>
<path d="M290.772 102.571C306.594 117.039 320.541 132.48 330.631 148.271C340.406 163.568 346.084 178.611 346.76 194.205C347.489 209.794 343.202 225.292 334.847 241.409C326.224 258.042 313.73 274.681 299.28 290.519C284.796 306.324 269.339 320.261 253.536 330.345C238.222 340.114 223.163 345.781 207.557 346.461C191.95 347.19 176.435 342.902 160.302 334.556C143.65 325.938 126.994 313.458 111.133 299.018C95.3064 284.545 81.3548 269.104 71.2593 253.319C61.4803 238.022 55.8018 222.978 55.1208 207.389C54.387 191.8 58.6842 176.306 67.0388 160.19C75.6668 143.556 88.1652 126.923 102.615 111.084C117.104 95.2794 132.562 81.3477 148.369 71.2631C163.683 61.4946 178.747 55.8271 194.358 55.1468C209.964 54.4138 225.474 58.7016 241.608 67.0472C258.255 75.661 274.911 88.1459 290.767 102.576M296.68 96.1082C260.097 63.775 226.429 41.7469 193.85 43.7926C161.218 44.7028 129.674 69.6821 96.1505 105.182C63.7775 141.731 41.716 175.363 43.7639 207.902C44.6703 240.494 69.6814 271.998 105.229 305.481C141.823 337.814 175.495 359.852 208.075 357.811C240.706 356.905 272.24 331.926 305.75 296.426C338.113 259.877 360.165 226.241 358.122 193.692C357.216 161.096 332.214 129.586 296.676 96.1082H296.68Z" fill="#333366"/>
<path d="M294.23 285.934C265.708 316.322 236.874 336.803 207.149 337.742C177.462 339.481 146.882 321.683 115.718 293.992C85.2923 265.492 64.7847 236.685 63.8399 206.996C62.0941 177.341 79.916 146.804 107.637 115.683C136.168 85.2999 165.016 64.8144 194.742 63.8706C224.429 62.1267 254.998 79.915 286.153 107.606C316.569 136.102 337.068 164.913 338.008 194.607C339.753 224.267 321.941 254.808 294.23 285.939V285.934Z" fill="#99CC33"/>
<path d="M294.23 285.934C265.708 316.322 236.874 336.803 207.149 337.742C177.462 339.481 146.882 321.683 115.718 293.992C85.2923 265.492 64.7847 236.685 63.8399 206.996C62.0941 177.341 79.916 146.804 107.637 115.683C136.168 85.2999 165.016 64.8144 194.742 63.8706C224.429 62.1267 254.998 79.915 286.153 107.606C316.569 136.102 337.067 164.913 338.008 194.607C339.753 224.267 321.941 254.808 294.23 285.939V285.934Z" stroke="#333366" stroke-width="2.45" stroke-miterlimit="10"/>
<path d="M280.983 113.259C294.613 125.725 306.412 139.283 314.92 153.425C323.159 167.122 327.912 180.829 328.54 195.033C329.197 209.233 325.701 223.318 318.737 237.7C311.543 252.552 301.016 267.121 288.57 280.77C276.091 294.39 262.523 306.18 248.366 314.679C234.659 322.91 220.937 327.662 206.717 328.285C192.502 328.946 178.407 325.449 164.004 318.488C149.137 311.297 134.547 300.781 120.883 288.344C107.244 275.878 95.4455 262.32 86.9326 248.178C78.6931 234.481 73.9306 220.779 73.3072 206.574C72.6453 192.374 76.1464 178.294 83.115 163.912C90.3138 149.061 100.841 134.492 113.296 120.848C125.78 107.227 139.353 95.442 153.515 86.9383C167.227 78.7077 180.948 73.9552 195.169 73.3276C209.384 72.6665 223.479 76.159 237.877 83.12C252.744 90.311 267.324 100.822 280.983 113.259ZM286.153 107.606C254.998 79.9197 224.429 62.1267 194.742 63.8705C165.016 64.8143 136.173 85.2998 107.637 115.683C79.9112 146.809 62.0941 177.346 63.8399 206.996C64.7847 236.685 85.2923 265.492 115.718 293.992C146.882 321.683 177.462 339.481 207.149 337.742C236.874 336.803 265.708 316.322 294.23 285.934C321.941 254.808 339.753 224.262 338.008 194.602C337.063 164.909 316.565 136.097 286.153 107.601V107.606Z" fill="#333366"/>
<path d="M282.705 275.447C258.715 301.145 232.845 317.741 206.266 318.665C179.706 320.131 152.436 305.936 126.207 282.509C100.476 258.536 83.8579 232.689 82.9227 206.139C81.4503 179.612 95.6609 152.376 119.118 126.185C143.122 100.492 169.001 83.8965 195.585 82.9623C222.146 81.4868 249.411 95.6772 275.626 119.099C301.342 143.068 317.95 168.914 318.881 195.474C320.353 222.006 306.147 249.251 282.705 275.447Z" fill="#99CC33"/>
<path d="M282.705 275.447C258.715 301.145 232.845 317.741 206.266 318.665C179.706 320.131 152.436 305.936 126.207 282.509C100.476 258.536 83.8579 232.689 82.9227 206.139C81.4503 179.612 95.6609 152.376 119.118 126.185C143.122 100.492 169.001 83.8965 195.585 82.9623C222.146 81.4868 249.411 95.6772 275.626 119.099C301.342 143.068 317.95 168.914 318.881 195.474C320.353 222.006 306.147 249.251 282.705 275.447Z" stroke="#333366" stroke-width="3.27" stroke-miterlimit="10"/>
<path d="M271.194 123.948C282.796 134.555 292.666 146.307 299.759 158.777C306.622 170.85 310.564 183.119 311.126 195.825C311.715 208.535 308.895 221.106 303.15 233.749C297.217 246.813 288.45 259.403 277.851 271.016C267.233 282.615 255.473 292.469 242.994 299.555C230.913 306.411 218.635 310.354 205.911 310.914C193.192 311.503 180.603 308.682 167.946 302.942C154.867 297.011 142.264 288.254 130.633 277.661C119.022 267.049 109.152 255.302 102.054 242.832C95.1861 230.764 91.239 218.495 90.6778 205.789C90.0879 193.084 92.908 180.513 98.6536 167.875C104.591 154.815 113.358 142.225 123.962 130.612C134.585 119.018 146.35 109.159 158.838 102.073C170.924 95.2176 183.207 91.2747 195.926 90.7094C208.65 90.1201 221.234 92.9323 233.886 98.6717C246.96 104.598 259.564 113.356 271.185 123.943M275.626 119.105C249.411 95.6823 222.146 81.4919 195.585 82.9627C169.001 83.8969 143.122 100.492 119.118 126.19C95.6609 152.381 81.4503 179.617 82.9227 206.144C83.8579 232.695 100.476 258.541 126.202 282.509C152.431 305.936 179.701 320.132 206.261 318.666C232.845 317.736 258.71 301.146 282.705 275.448C306.147 249.252 320.353 222.011 318.881 195.475C317.95 168.919 301.342 143.068 275.626 119.1V119.105Z" fill="#333366"/>
<path d="M271.18 264.956C251.32 286.337 228.649 299.579 205.417 300.456C182.2 301.673 158.416 290.524 136.691 271.026C115.286 251.182 102.02 228.531 101.138 205.325C99.915 182.132 111.075 158.384 130.6 136.691C150.47 115.315 173.15 102.068 196.386 101.187C219.609 99.9651 243.382 111.104 265.094 130.602C286.489 150.446 299.745 173.097 300.622 196.308C301.845 219.505 290.69 243.263 271.18 264.956Z" fill="#99CC33"/>
<path d="M271.18 264.956C251.32 286.337 228.649 299.579 205.417 300.456C182.2 301.673 158.416 290.524 136.691 271.026C115.286 251.182 102.02 228.531 101.138 205.325C99.915 182.132 111.075 158.384 130.6 136.691C150.47 115.315 173.15 102.068 196.386 101.187C219.609 99.9651 243.382 111.104 265.094 130.602C286.489 150.446 299.745 173.097 300.622 196.308C301.845 219.505 290.69 243.263 271.18 264.956Z" stroke="#333366" stroke-width="4.08" stroke-miterlimit="10"/>
<path d="M261.406 134.641C271.127 143.523 279.252 153.522 285.074 164.301C290.704 174.73 293.927 185.467 294.421 196.586C294.934 207.706 292.695 218.691 288.028 229.585C283.203 240.848 276.014 251.541 267.137 261.262C258.25 270.978 248.241 279.098 237.45 284.914C227.014 290.539 216.266 293.758 205.134 294.252C194.003 294.759 183.01 292.527 172.1 287.861C160.824 283.041 150.119 275.855 140.384 266.982C130.657 258.1 122.528 248.102 116.701 237.322C111.066 226.893 107.843 216.157 107.349 205.042C106.836 193.922 109.075 182.942 113.742 172.048C118.567 160.789 125.761 150.096 134.643 140.376C143.535 130.665 153.549 122.544 164.344 116.723C174.785 111.094 185.533 107.875 196.669 107.381C207.801 106.869 218.793 109.106 229.699 113.763C240.97 118.582 251.67 125.764 261.401 134.636M265.099 130.602C243.387 111.104 219.613 99.9651 196.391 101.187C173.155 102.068 150.474 115.315 130.605 136.691C111.08 158.384 99.9199 182.132 101.143 205.325C102.025 228.531 115.286 251.177 136.696 271.026C158.417 290.524 182.2 301.673 205.422 300.456C228.659 299.579 251.324 286.337 271.185 264.956C290.7 243.263 301.85 219.505 300.627 196.308C299.75 173.097 286.493 150.446 265.099 130.602Z" fill="#333366"/>
<path d="M259.66 254.468C227.575 290.5 182.416 292.531 147.184 259.547C129.785 243.488 119.411 224.234 118.619 204.543C117.627 184.867 126.212 164.756 142.096 147.197C174.205 111.175 219.364 109.12 254.576 142.105C290.633 174.165 292.671 219.285 259.665 254.473L259.66 254.468Z" fill="#99CC33"/>
<path d="M259.66 254.468C227.575 290.5 182.416 292.531 147.184 259.547C129.785 243.488 119.411 224.234 118.619 204.543C117.627 184.867 126.212 164.756 142.096 147.197C174.205 111.175 219.364 109.12 254.576 142.105C290.633 174.165 292.671 219.285 259.665 254.473L259.66 254.468Z" stroke="#333366" stroke-width="4.9" stroke-miterlimit="10"/>
<path d="M251.617 145.329C259.574 152.597 266.125 160.899 270.806 169.968C275.328 178.735 277.909 187.866 278.331 197.319C278.762 206.771 277.021 216.094 273.309 225.24C269.468 234.697 263.693 243.555 256.427 251.512C249.152 259.465 240.845 266.009 231.766 270.685C222.99 275.208 213.853 277.78 204.391 278.202C194.928 278.633 185.595 276.894 176.445 273.181C166.977 269.344 158.11 263.571 150.139 256.308C142.177 249.04 135.621 240.738 130.936 231.669C126.408 222.902 123.828 213.77 123.406 204.323C122.974 194.871 124.715 185.552 128.432 176.412C132.274 166.959 138.053 158.101 145.324 150.144C152.604 142.191 160.915 135.647 169.994 130.971C178.776 126.448 187.912 123.876 197.374 123.449C206.837 123.013 216.17 124.752 225.321 128.465C234.783 132.303 243.651 138.071 251.612 145.334M254.571 142.1C219.359 109.115 174.2 111.17 142.091 147.192C109.056 182.376 111.104 227.477 147.184 259.542C182.421 292.531 227.575 290.495 259.66 254.463C292.666 219.275 290.628 174.155 254.571 142.095V142.1Z" fill="#333366"/>
<path d="M248.135 243.976C223.024 271.935 185.226 273.636 157.669 248.058C129.674 222.959 127.962 185.207 153.573 157.694C178.704 129.739 216.506 128.024 244.044 153.598C272.019 178.692 273.732 216.453 248.135 243.976Z" fill="#99CC33"/>
<path d="M248.135 243.976C223.024 271.935 185.226 273.636 157.669 248.058C129.674 222.959 127.962 185.207 153.573 157.694C178.704 129.739 216.506 128.024 244.044 153.598C272.019 178.692 273.732 216.453 248.135 243.976Z" stroke="#333366" stroke-width="5.72" stroke-miterlimit="10"/>
<path d="M241.829 156.022C254.298 167.433 262.063 182.204 262.754 198.032C263.492 213.861 257.104 229.268 245.713 241.763C234.289 254.224 219.513 261.98 203.667 262.67C187.821 263.408 172.397 257.017 159.889 245.639C147.41 234.222 139.645 219.462 138.955 203.633C138.211 187.804 144.609 172.402 156.004 159.912C167.433 147.451 182.219 139.695 198.065 139.005C213.911 138.262 229.33 144.648 241.833 156.027M244.044 153.598C216.506 128.024 178.704 129.739 153.573 157.694C127.962 185.207 129.674 222.959 157.669 248.058C185.226 273.636 223.024 271.931 248.135 243.976C273.732 216.458 272.019 178.692 244.044 153.598Z" fill="#333366"/>
<path d="M236.611 233.484C218.017 254.037 188.54 255.359 168.153 236.574C147.578 217.996 146.24 188.551 165.054 168.195C183.658 147.647 213.139 146.311 233.512 165.095C254.078 183.674 255.411 213.123 236.611 233.484Z" fill="#99CC33"/>
<path d="M236.611 233.484C218.017 254.037 188.54 255.359 168.153 236.574C147.578 217.996 146.24 188.551 165.054 168.195C183.658 147.647 213.139 146.311 233.512 165.095C254.078 183.674 255.411 213.123 236.611 233.484Z" stroke="#333366" stroke-width="6.53" stroke-miterlimit="10"/>
<path d="M232.04 166.715C241.378 175.252 247.047 186.553 247.589 198.727C248.15 210.9 243.531 222.667 234.999 232.013C226.458 241.346 215.144 247.009 202.957 247.545C190.775 248.106 178.992 243.483 169.635 234.965C160.287 226.427 154.618 215.126 154.076 202.957C153.515 190.789 158.139 179.022 166.676 169.68C175.227 160.348 186.541 154.685 198.722 154.144C210.909 153.583 222.683 158.197 232.035 166.719M233.517 165.095C213.144 146.311 183.663 147.647 165.059 168.195C146.245 188.551 147.583 217.996 168.158 236.574C188.545 255.364 218.021 254.032 236.615 233.484C255.416 213.123 254.082 183.674 233.517 165.095Z" fill="#333366"/>
<path d="M225.091 222.993C212.674 236.637 192.248 237.557 178.646 225.091C164.982 212.688 164.057 192.284 176.546 178.697C188.967 165.053 209.393 164.128 222.99 176.594C236.644 188.997 237.57 209.406 225.091 222.993Z" fill="#99CC33"/>
<path d="M225.091 222.993C212.674 236.637 192.248 237.557 178.646 225.091C164.982 212.688 164.057 192.284 176.546 178.697C188.967 165.053 209.393 164.128 222.99 176.594C236.644 188.997 237.57 209.406 225.091 222.993Z" stroke="#333366" stroke-width="7.35" stroke-miterlimit="10"/>
<path d="M222.251 177.403C235.416 189.361 236.313 209.157 224.285 222.255C212.314 235.411 192.502 236.302 179.385 224.282C166.215 212.319 165.318 192.533 177.351 179.435C189.327 166.279 209.139 165.383 222.251 177.403ZM222.99 176.594C209.393 164.128 188.962 165.053 176.545 178.697C164.061 192.284 164.987 212.688 178.646 225.091C192.247 237.562 212.678 236.637 225.09 222.993C237.57 209.406 236.644 188.997 222.99 176.594Z" fill="#333366"/>
<path d="M213.566 212.501C207.101 219.582 196.214 220.075 189.13 213.603C182.037 207.14 181.548 196.27 188.022 189.194C194.492 182.113 205.374 181.619 212.458 188.087C219.546 194.545 220.04 205.42 213.566 212.496V212.501Z" fill="#99CC33" stroke="#333366" stroke-width="6" stroke-miterlimit="10"/>
<path d="M191.763 219.879C189.312 265.123 180.742 292.814 171.653 327.763C167.116 345.053 162.488 363.982 158.239 384.635C153.961 405.087 150.057 427.263 146.292 446.379C148.786 446.81 151.28 447.318 153.774 447.878C154.479 443.868 155.189 439.801 155.903 435.705C185.538 432.188 213.45 436.414 245.07 437.051C246.034 440.649 246.984 444.261 247.905 447.878C250.37 447.375 252.859 446.882 255.386 446.379C246.533 407.774 235.943 373.199 230.121 338.638C223.431 303.665 221.503 268.707 209.911 219.879H191.758H191.763Z" fill="#99CC33"/>
<path d="M191.763 219.879C189.312 265.123 180.742 292.814 171.653 327.763C167.116 345.053 162.488 363.982 158.239 384.635C153.961 405.087 150.057 427.263 146.292 446.379C148.786 446.81 151.28 447.318 153.774 447.878C154.479 443.868 155.189 439.801 155.903 435.705C185.538 432.188 213.45 436.414 245.07 437.051C246.034 440.649 246.984 444.261 247.905 447.878C250.37 447.375 252.859 446.882 255.386 446.379C246.533 407.774 235.943 373.199 230.121 338.638C223.431 303.665 221.503 268.707 209.911 219.879H191.758H191.763Z" stroke="#99CC33" stroke-width="21" stroke-miterlimit="10"/>
<path d="M249.142 451.443C251.675 450.925 254.231 450.417 256.821 449.905C247.737 410.285 236.869 374.799 230.889 339.323C224.021 303.431 222.045 267.547 210.146 217.436C207.638 218.092 205.134 218.734 202.64 219.357C204.108 225.259 205.451 231.003 206.679 236.594C205.403 239.454 204.122 242.218 202.832 244.882C201.264 241.941 199.648 238.98 197.984 236.01C198.525 230.697 198.991 225.149 199.384 219.333C196.77 218.686 194.152 218.049 191.523 217.436C189.005 263.873 180.21 292.292 170.886 328.165C166.229 345.911 161.476 365.337 157.117 386.537C152.724 407.525 148.719 430.286 144.854 449.91C147.415 450.35 149.971 450.872 152.532 451.447C153.256 447.332 153.98 443.154 154.714 438.953C185.125 435.345 213.781 439.681 246.231 440.333C247.219 444.022 248.198 447.73 249.142 451.443ZM173.85 371.077C182.689 363.627 191.092 358.755 199.537 354.525C207.206 363.349 215.177 372.274 224.381 380.28C205.878 377.64 190.895 370.679 173.85 371.077ZM221.474 386.997C213.297 390.183 205.7 392.865 198.171 396.439C190.641 390.058 183.533 383.83 176.191 378.804C191.269 378.891 205.115 384.232 221.474 386.992V386.997ZM218.482 331.232C206.717 329.267 196.003 324.778 184.085 322.484C190.411 317.084 196.506 312.432 202.549 307.321C207.887 315.527 213.009 323.619 218.486 331.232H218.482ZM195.274 284.972C200.732 286.275 206.022 287.583 211.312 288.536C208.559 291.353 205.811 293.964 203.048 296.441C200.53 292.637 197.955 288.799 195.274 284.972ZM215.743 337.781C210.42 340.708 205.249 343.122 200.089 345.642C195.442 340.267 190.842 334.925 186.003 329.89C196.171 332.013 205.59 335.677 215.743 337.781ZM223.546 341.891C225.311 353.083 227.33 364.202 229.747 375.513C220.621 368.332 212.75 360.106 205.326 351.66C211.235 348.761 217.239 345.81 223.541 341.891H223.546ZM207.412 303.081C210.52 300.283 213.628 297.294 216.755 293.997C218.151 303.838 219.398 313.304 220.697 322.594C216.156 316.409 211.839 309.831 207.412 303.076V303.081ZM193.734 277.215C197.039 272.286 200.247 267.083 203.413 261.391C206.827 268.084 210.012 274.676 213.062 281.077C206.698 280.147 200.348 278.667 193.734 277.215ZM189.312 287.904C192.396 292.134 195.336 296.407 198.18 300.681C193.168 304.94 188.07 308.969 182.785 313.472C185.077 304.983 187.284 296.594 189.312 287.904ZM177.893 331.476C183.687 336.684 189.01 342.504 194.315 348.536C186.185 352.733 177.951 357.854 169.217 365.601C172.056 353.49 174.992 342.217 177.893 331.476ZM209.436 249.85C210.276 254.109 211.053 258.277 211.777 262.369C210.376 259.537 208.942 256.667 207.47 253.779C208.127 252.495 208.784 251.187 209.436 249.855V249.85ZM198.876 252.71C197.552 255.216 196.214 257.626 194.857 259.964C195.461 256.232 196.022 252.385 196.545 248.408C197.331 249.845 198.108 251.278 198.876 252.705V252.71ZM165.524 382.033C174.426 386.292 182.622 392.861 191.26 399.97C180.253 405.911 169.021 414.826 157.107 425.352C159.769 410.419 162.57 395.74 165.519 382.033H165.524ZM165.28 428.777C176.685 419.229 187.461 411.296 198.247 405.757C209.249 414.937 221.402 424.149 234.323 432.04C209.71 430.478 188.065 426.521 165.28 428.777ZM205.216 402.346C213.988 398.298 223.019 395.16 233.157 390.561C236.097 402.888 239.502 415.535 243.027 428.475C229.436 420.872 216.616 411.842 205.216 402.351V402.346Z" fill="#333366"/>
<path d="M200.957 218.183C191.403 218.183 183.634 210.422 183.634 200.879C183.634 191.335 191.403 183.574 200.957 183.574C210.511 183.574 218.28 191.335 218.28 200.879C218.28 210.422 210.511 218.183 200.957 218.183Z" fill="#99CC33"/>
<path d="M200.957 185.491C209.465 185.491 216.362 192.38 216.362 200.879C216.362 209.378 209.465 216.267 200.957 216.267C192.449 216.267 185.552 209.378 185.552 200.879C185.552 192.38 192.449 185.491 200.957 185.491ZM200.957 181.658C190.348 181.658 181.715 190.282 181.715 200.879C181.715 211.476 190.348 220.1 200.957 220.1C211.566 220.1 220.198 211.476 220.198 200.879C220.198 190.282 211.566 181.658 200.957 181.658Z" fill="#333366"/>
<path d="M129.348 469.116H273.899L267.53 450.671H134.475L129.348 469.116Z" fill="#333366"/>
<path d="M273.894 472H129.348C128.446 472 127.593 471.578 127.046 470.86C126.499 470.141 126.322 469.212 126.562 468.34L131.688 449.9C132.034 448.649 133.175 447.787 134.475 447.787H267.53C268.763 447.787 269.861 448.568 270.264 449.732L276.633 468.172C276.935 469.054 276.796 470.031 276.254 470.788C275.712 471.55 274.834 472 273.899 472H273.894ZM133.151 466.227H269.842L265.468 453.56H136.672L133.151 466.227Z" fill="#333366"/>
</g>
<defs>
<clipPath id="clip0_10085_30989">
<rect width="402" height="472" fill="white"/>
</clipPath>
</defs>
</svg>
