<?xml version="1.0" encoding="UTF-8"?>
<svg id="Layer_1" data-name="Layer 1" xmlns="http://www.w3.org/2000/svg" viewBox="0 0 720 467">
  <defs>
    <style>
      .cls-1 {
        stroke-miterlimit: 10;
      }

      .cls-1, .cls-2 {
        fill: #000;
      }

      .cls-1, .cls-3, .cls-4 {
        stroke: #000;
      }

      .cls-2 {
        stroke-width: 0px;
      }

      .cls-3, .cls-4 {
        fill: none;
        stroke-linecap: round;
        stroke-linejoin: round;
      }

      .cls-4 {
        stroke-width: 2px;
      }
    </style>
  </defs>
  <polygon class="cls-2" points="486.01 163.74 481.62 167.84 484.99 169.08 489.3 169.08 490.62 169.01 486.01 163.74"/>
  <polyline class="cls-4" points="73.63 454.29 309.37 454.29 677.19 454.29"/>
  <path class="cls-1" d="M556.71,165.37c-16.54,26.86-31.5,54.93-41.34,84.99-7.36,22.44-12.05,45.87-12.78,69.51-.08,7.78-.43,15.81,1.3,23.43.11.48-.18.97-.67,1.09-.48.11-.97-.17-1.09-.65-1.01-3.94-1.39-7.98-1.58-11.96-1.12-23.91,2.14-47.86,8.15-70.98,7.57-28.76,19.87-55.95,34.24-81.92l-38.87,37.69,1.48-4.61,47-49.65c.99-1.04,2.64-1.09,3.68-.1.89.84,1.05,2.15.47,3.17Z"/>
  <path class="cls-1" d="M505.56,211.95l-1.48,4.61-.45.44-4.27,4.14c-.84.8-2.08-.42-1.29-1.27l7.04-7.44.45-.48Z"/>
  <path class="cls-2" d="M469.11,320.43h-11.11c-1.01,0-1.94-.46-2.55-1.27-.61-.81-.81-1.83-.53-2.8l67.11-241.42c.63-2.27,2.78-3.79,5.12-3.61l17.43,1.27c1.52.11,2.88.89,3.73,2.15.86,1.27,1.08,2.83.62,4.28h0s-13.39,41.72-13.39,41.72c0,.02-.02.05-.03.07l-1.69,5.27s0,.03-.01.05l-6.58,20.52s-.02.05-.03.07l-2.89,9.01s0,.03-.01.05l-52.13,162.4c-.22.69-.67,1.29-1.28,1.69-.53.35-1.14.54-1.77.54ZM526.78,72.67c-1.59,0-3.02,1.07-3.45,2.63l-67.11,241.42c-.16.57-.05,1.16.31,1.63.35.47.89.73,1.47.73h11.11c.36,0,.71-.11,1.02-.32.36-.23.62-.58.74-.98l52.12-162.37s0-.03.01-.05l2.93-9.12s.02-.05.03-.08l6.55-20.41s0-.03.01-.05l1.73-5.37s.02-.05.03-.07l13.37-41.65c.34-1.06.18-2.2-.45-3.12-.62-.92-1.61-1.49-2.71-1.57l-17.44-1.27c-.09,0-.18,0-.27,0ZM548.3,78.83h0,0Z"/>
  <path class="cls-2" d="M548.04,74.94c-.8-1.17-2.06-1.91-3.48-2.01l-2.82-.21-74.1,246.56c-.05.14-.07.3-.07.47v.34h1.54c.56,0,1.1-.17,1.58-.49l.1-.07,72.19-223.06,5.63-17.54h0c.43-1.36.23-2.81-.57-3.99Z"/>
  <rect class="cls-2" x="481.79" y="339.87" width="52.07" height="13.27" rx="2.19" ry="2.19"/>
  <path class="cls-3" d="M503.77,11.31c-.64.07-1.27.14-1.91.21.64-.21,1.28-.28,1.91-.21Z"/>
  <path class="cls-3" d="M491.6,105.57s-.28-.02-.81-.05"/>
  <g>
    <path class="cls-2" d="M484.12,89.99c-.33,0-.62-.24-.67-.58-1.29-9.04-1.24-20.55.17-32.41,1.33-11.32,3.81-22.16,6.98-30.51.13-.35.52-.52.87-.39.35.13.52.52.39.87-3.13,8.25-5.58,18.98-6.9,30.2-1.39,11.75-1.45,23.13-.17,32.06.05.37-.2.71-.57.76-.03,0-.06,0-.1,0Z"/>
    <path class="cls-2" d="M541.27,132.74c-5.19,0-8.32-3.28-8.77-6.72,0,0,0,0,0,0-.01-.06-.02-.11-.03-.17-.08-.74-.04-1.47.12-2.18.15-.66.66-1.69,1.59-3.24.05-.09.09-.14.12-.2.01-.02.02-.04.04-.06,1.48-2.43,3.79-5.81,6.23-9.38,5-7.31,11.23-16.41,12.4-20.6,2.04-7.31.63-11.41.62-11.45-.13-.35.06-.74.41-.86.35-.13.74.06.86.41.07.18,1.57,4.54-.59,12.26-1.24,4.41-7.27,13.22-12.59,21-2.45,3.58-4.76,6.95-6.22,9.36h0s-.02.02-.02.03c-.03.06-.07.11-.11.17-.83,1.4-1.32,2.36-1.43,2.86-.13.56-.16,1.14-.09,1.72,0,.03,0,.07.02.11,0,.02,0,.05,0,.07.4,2.92,3.14,5.87,8.26,5.5l.22-.02c6.16-.56,22.47-15.6,30.55-25.3,2.71-3.26,9.28-12.09,11.7-23.8,0-.01,0-.03,0-.04,1.18-5.69,1.19-11.24.04-16.5-.3-1.42-.71-2.87-1.22-4.31-6.51-18.6-38.18-31.41-57.53-34.22-4.16-.61-8.89-.93-14.06-.95-.37,0-.67-.3-.67-.68,0-.37.3-.67.67-.67h0c5.23.02,10.02.34,14.25.96,19.68,2.85,51.92,15.98,58.61,35.11.52,1.5.95,3.01,1.27,4.47,1.19,5.43,1.18,11.17-.03,17.03,0,.01,0,.02,0,.04-2.47,12.02-9.21,21.08-11.99,24.42-7.21,8.66-24.37,25.14-31.47,25.78l-.22.02c-.32.02-.64.03-.95.03ZM585.24,82.36h0,0Z"/>
    <path class="cls-2" d="M601.75,130.66c-2.47,0-4.8-.32-6.58-.82-7.04-1.96-13.74-5.27-18.78-7.94-.33-.17-.45-.58-.28-.91.17-.33.58-.45.91-.28,4.98,2.64,11.59,5.91,18.51,7.83,6.56,1.82,17.3.75,19.56-5.97.15-.45.26-.9.32-1.36.05-.37.39-.63.76-.58.37.05.63.39.58.76-.07.55-.2,1.09-.38,1.62-1.95,5.8-8.7,7.65-14.62,7.65Z"/>
    <path class="cls-2" d="M597.88,101.07c-.13,0-.26-.04-.37-.11-3.54-2.33-7.41-5.39-9.19-10.43-2.26-6.39-2.69-12.18-2.82-17.48,0-.37.29-.68.66-.69.36-.02.68.29.69.66.17,7.1.96,12.05,2.74,17.06,1.65,4.66,5.31,7.54,8.67,9.75.31.2.4.62.19.93-.13.2-.34.3-.56.3Z"/>
    <path class="cls-2" d="M529.12,163.28c-1.06,0-2.03-.22-2.87-.67-1.27-.68-2.86-2.22-3.2-5.67-.04-.44-.06-.88-.06-1.34-.01-.14,0-.33,0-.51.08-2.85,1.01-5.73,2.77-8.57.09-.15.18-.29.28-.43,3.64-5.61,9.98-10.31,15.07-14.09l.66-.49c.3-.22.72-.16.94.14s.16.72-.14.94l-.66.49c-5.01,3.71-11.24,8.33-14.75,13.76-.1.15-.18.27-.26.4-1.63,2.63-2.49,5.29-2.56,7.9,0,.15-.01.28,0,.42,0,.46.02.86.06,1.26.23,2.26,1.09,3.86,2.5,4.62,1.65.88,4.04.63,6.56-.71,17.11-9.08,33.46-24.31,42.68-39.75,5.73-9.58,8.61-20.07,8.82-32.06,0-.37.32-.67.69-.66.37,0,.67.31.66.69-.21,12.23-3.16,22.93-9.01,32.72-9.34,15.63-25.89,31.06-43.21,40.25-1.73.91-3.43,1.38-4.96,1.38Z"/>
    <g>
      <path class="cls-2" d="M387.82,92.94c-.26,0-.51-.15-.62-.4-.15-.34,0-.74.35-.89,15.71-6.88,31.23-21.54,47.65-37.06,21.43-20.24,43.59-41.17,66.57-43.74.37-.03.7.23.75.6.04.37-.23.7-.6.75-22.53,2.52-44.52,23.29-65.79,43.38-16.52,15.6-32.12,30.34-48.04,37.31-.09.04-.18.06-.27.06Z"/>
      <path class="cls-2" d="M503.85,10.64c-.05,0-.1,0-.15,0l-1.86.2s-.06,0-.09,0c-.04,0-.08.01-.12.03-3.77,1.23-7.69,6.77-11.03,15.61-.08.22-.05.47.1.65.13.17.33.26.53.26.02,0,.05,0,.07,0,7.33-.81,14.23-1.2,20.5-1.17h0c.2,0,.39-.09.52-.24.13-.15.18-.36.15-.55-1.65-9.08-4.71-14.33-8.62-14.79Z"/>
      <path class="cls-2" d="M506.28,88.75c-.1-.17-.28-.29-.48-.32-2.25-.35-4.76-.64-7.45-.86-6.74-.55-11.56.3-14.41,1.1-.33.09-.53.41-.48.74.88,6.22,2.81,14.17,6.98,16.68.02.01.04.02.06.03.64.37,1.31.6,1.99.68.19.02.37.03.56.03,4.5,0,9.31-6.32,13.29-17.52.07-.19.05-.4-.06-.57Z"/>
      <path class="cls-2" d="M445.38,109.58c-.31,0-.59-.22-.66-.53-.08-.36.15-.72.52-.8,21.52-4.62,41.74-3.65,45.58-3.41.37.02.65.34.63.71-.02.37-.35.64-.71.63-3.81-.24-23.87-1.2-45.21,3.38-.05.01-.1.02-.14.02Z"/>
    </g>
    <path class="cls-2" d="M513.5,91.65c-.09,0-.19-.02-.28-.06-.02,0-2.17-.97-7.61-1.82-.33-.05-.58-.33-.58-.67,0-.37.3-.67.67-.67h0s.07,0,.1,0c5.67.89,7.88,1.89,7.97,1.93.34.16.49.56.33.89-.11.25-.36.39-.61.39Z"/>
    <path class="cls-2" d="M611.51,108.69c-3.77-3.88-8.64-6.24-13.12-9.17-.69-.45-1.47.16-1.52.87-.42,5.38,1.37,10.82,4.86,14.94,3.57,4.21,8.89,6.64,14.36,6.98.58.04.9-.35.96-.79.02-.07.04-.14.05-.22.61-4.8-2.39-9.32-5.58-12.61Z"/>
    <path class="cls-2" d="M553.73,112.87c-1.23-1.35-3.18-1.89-5.5-1.51-2.26.37-4.61,1.58-6.62,3.4-2.01,1.82-3.44,4.04-4.03,6.26-.6,2.27-.26,4.26.97,5.62.97,1.07,2.39,1.63,4.09,1.63.45,0,.92-.04,1.41-.12,2.26-.37,4.61-1.58,6.62-3.4,2.01-1.82,3.44-4.04,4.03-6.26.6-2.27.26-4.26-.97-5.62Z"/>
    <path class="cls-2" d="M543.71,143.13c-2.5-2.75-7.93-1.9-12.12,1.89s-5.55,9.12-3.06,11.88c.99,1.09,2.44,1.62,4.1,1.62,2.52,0,5.5-1.22,8.02-3.51,4.18-3.8,5.55-9.12,3.06-11.88Z"/>
  </g>
  <ellipse class="cls-1" cx="427.73" cy="114.46" rx="9.55" ry="9.88"/>
  <g>
    <path class="cls-2" d="M179.69,295.69l-1.26-.47c.15-.4,15.23-40.64,36.97-85.94,20.08-41.84,50.11-96.69,79.16-120.35,4.99-4.07,9.88-7.16,14.53-9.18l.54,1.24c-4.54,1.97-9.32,4.99-14.21,8.99-28.85,23.5-58.77,78.16-78.79,119.88-21.71,45.24-36.78,85.43-36.92,85.83Z"/>
    <g>
      <path class="cls-2" d="M197.23,306.72l-6.03,14.29c-10.41-10.97-15.6-21.17-12.15-25.56,6.23,3.63,12.3,7.38,18.17,11.26Z"/>
      <path class="cls-2" d="M191.2,321.69c-.18,0-.36-.08-.49-.21-11.12-11.72-15.79-21.85-12.19-26.44.21-.26.58-.33.87-.17,6.42,3.74,12.54,7.54,18.21,11.28.27.18.38.53.25.82l-6.03,14.29c-.09.21-.28.36-.5.4-.04,0-.08.01-.12.01ZM179.26,296.36c-2.29,4.09,2.3,13.3,11.72,23.44l5.41-12.82c-5.35-3.53-11.11-7.1-17.13-10.62Z"/>
    </g>
    <g>
      <path class="cls-2" d="M247.97,349.53c-2.03,2.59-6.73,2.75-12.93.9l5.15-9.13c2.68,2.68,5.27,5.43,7.78,8.24Z"/>
      <path class="cls-2" d="M242.26,352.35c-2.08,0-4.57-.42-7.41-1.27-.2-.06-.36-.2-.43-.39-.08-.19-.06-.4.04-.58l5.15-9.13c.1-.18.29-.31.5-.34.21-.03.42.04.57.19,2.62,2.62,5.25,5.4,7.81,8.26.22.24.23.61.03.87-1.25,1.6-3.37,2.4-6.24,2.4ZM236.05,350.02c5.29,1.45,9.15,1.28,11.02-.49-2.21-2.45-4.47-4.85-6.72-7.13l-4.29,7.62Z"/>
    </g>
    <path class="cls-2" d="M247.97,350.21c-.12,0-.24-.03-.35-.1-.32-.19-.42-.61-.22-.93l103.19-169.02,6.35-10.14c.2-.32.61-.41.93-.21.32.2.41.61.21.93l-6.35,10.13-103.19,169.02c-.13.21-.35.32-.58.32Z"/>
  </g>
  <path class="cls-3" d="M150.99,273.37l1.93-1.46c-.54,1.1-1.18,1.62-1.93,1.46Z"/>
  <g>
    <path class="cls-2" d="M140.84,154.79c-.26,0-.51-.16-.62-.41-.14-.34.02-.74.36-.88l154.25-64.71c.34-.15.74.02.88.36s-.02.74-.36.88l-154.25,64.71c-.09.04-.17.05-.26.05Z"/>
    <g>
      <path class="cls-2" d="M148.19,172.73c-3.76,1.76-8.8,4.1-14.58,6.77.89-15.38,3.57-25.58,7.53-25.9.12.03.24.08.36.14,2.35,1.27,4.66,8.57,6.7,18.99Z"/>
      <path class="cls-2" d="M133.6,180.18c-.13,0-.27-.04-.38-.12-.2-.13-.31-.36-.29-.6.56-9.71,2.36-26.06,8.15-26.53.07,0,.15,0,.22.02.19.05.35.13.49.2.91.49,3.63,1.97,7.06,19.46.06.3-.1.61-.38.74-4.05,1.9-9.24,4.3-14.59,6.77-.09.04-.19.06-.28.06ZM141.06,154.29c-2.57.41-5.62,6.96-6.72,24.13,4.78-2.2,9.37-4.33,13.08-6.07-2.83-14.24-5.13-17.4-6.26-18.01-.03-.01-.07-.03-.11-.05Z"/>
    </g>
    <g>
      <path class="cls-2" d="M152.92,271.91l-1.93,1.46c-4.58.38-9.64-12.53-13.18-31.71l17.01-8.57c.86,18.43.45,34.07-1.89,38.83Z"/>
      <path class="cls-2" d="M150.79,274.05c-7.12,0-12.23-24.64-13.65-32.27-.05-.29.09-.59.36-.72l17.01-8.57c.2-.1.45-.1.64.02.2.12.32.32.33.55.45,9.66,1.17,32.81-1.96,39.16-.05.09-.11.18-.2.24l-1.93,1.46c-.1.08-.22.12-.35.13-.09,0-.17.01-.26.01ZM138.57,242.03c3.96,21.16,8.93,30.59,12.19,30.67l1.63-1.23c2.02-4.35,2.67-17.89,1.81-37.32l-15.63,7.88ZM152.92,271.9h0,0Z"/>
    </g>
    <path class="cls-2" d="M152.92,272.58c-.2,0-.41-.09-.54-.27-.22-.3-.17-.72.13-.94l52.58-39.78c.3-.22.72-.17.94.13s.17.72-.13.94l-52.58,39.78c-.12.09-.26.14-.41.14Z"/>
  </g>
  <g>
    <path class="cls-2" d="M103.66,308.71c4.97-4.67,11.15-7.92,17.79-9.47,3.26-.76,6.62-1.09,9.97-.98,3.15.11,6.44.55,9.26,2.04,2.5,1.32,4.46,3.46,4.81,6.35.31,2.56-.7,5.35-3.33,6.2-1.68.54-3.51.33-5.22,0-1.85-.35-3.69-.78-5.52-1.23-3.59-.88-7.15-1.91-10.66-3.08-7.08-2.36-13.96-5.31-20.56-8.81-3.27-1.73-6.61-3.53-9.65-5.64-.87-.61-2.48-1.96-2.28-3.19.28-1.71,2.76-.38,3.51.11,2.75,1.79,5.33,3.96,7.84,6.07s5,4.36,7.38,6.67c4.82,4.69,9.3,9.74,13.37,15.1,8.08,10.64,14.63,22.45,19.26,34.99.56,1.51,1.09,3.04,1.59,4.57.4,1.23,2.36.7,1.95-.54-4.54-13.8-11.3-26.85-19.93-38.54-4.26-5.77-8.95-11.22-14.05-16.26-2.61-2.58-5.33-5.06-8.15-7.43-1.37-1.15-2.77-2.28-4.19-3.37s-2.78-2.23-4.28-3.15c-1.35-.83-3.15-1.52-4.68-.75-1.42.71-1.95,2.33-1.46,3.79.53,1.57,1.83,2.84,3.18,3.74,1.69,1.13,3.46,2.16,5.22,3.18,6.96,4.02,14.28,7.42,21.83,10.17,3.81,1.39,7.67,2.6,11.59,3.65,1.93.51,3.88.99,5.83,1.41,1.87.41,3.79.85,5.71.87,3.34.03,6.28-1.65,7.34-4.91.88-2.71.33-5.95-1.33-8.25-4.15-5.72-12.73-6.25-19.15-5.67-7.25.65-14.34,3.22-20.26,7.46-1.47,1.05-2.86,2.2-4.18,3.44-.95.89.48,2.32,1.43,1.43h0Z"/>
    <path class="cls-2" d="M137.81,242.33c-.25,0-.48-.14-.6-.37-.17-.33-.03-.74.3-.91l16.62-8.38c-.99-20.61-3.49-43.57-6.43-58.96-3.93,1.84-8.79,4.1-13.8,6.4-.34.16-.74,0-.89-.33-.16-.34,0-.74.33-.89,5.35-2.46,10.52-4.87,14.58-6.77.19-.09.41-.08.59,0s.32.27.36.47c3.04,15.55,5.65,39.28,6.64,60.44.01.27-.13.51-.37.63l-17.01,8.57c-.1.05-.2.07-.3.07Z"/>
    <path class="cls-2" d="M59.97,394.03c-1.45,0-2.31-.07-2.4-.07-.35-.03-.62-.32-.62-.68l1.14-176.35c.02-2.28,1.37-4.36,3.44-5.29l9.97-4.52c11.79-5.35,41.4-18.82,61.83-28.22.34-.16.74,0,.89.33.16.34,0,.74-.33.89-20.43,9.4-50.05,22.87-61.83,28.22l-9.97,4.53c-1.59.72-2.63,2.32-2.65,4.07l-1.14,175.71c1.69.07,6.66.13,12.72-1.07,9.12-1.8,21.51-6.6,28.8-19.24,9.16-15.9,12.37-35.77,14.95-51.74.44-2.73.83-5.47,1.2-8.05l.59-4.24c.39-2.82.87-6.15,1.43-9.47.73-4.39,1.52-8.21,2.4-11.68,2.5-9.79,6.98-18.21,11.72-27.12.77-1.44,1.54-2.89,2.3-4.34.17-.33.58-.46.91-.28.33.17.46.58.28.91-.76,1.46-1.53,2.91-2.3,4.35-4.7,8.84-9.14,17.19-11.6,26.82-.87,3.43-1.65,7.22-2.38,11.57-.56,3.31-1.03,6.63-1.43,9.44l-.59,4.24c-.36,2.58-.76,5.33-1.2,8.07-2.6,16.07-5.83,36.08-15.12,52.19-7.54,13.08-20.31,18.03-29.7,19.89-4.81.95-8.88,1.13-11.31,1.13Z"/>
    <path class="cls-2" d="M71.15,392.9c-.37,0-.67-.3-.67-.67-.36-33.06-1.86-174.82-1.86-178.24,0-1.45.84-3.62,2.58-6.62.19-.32.6-.43.92-.25.32.19.43.6.25.92-1.98,3.43-2.4,5.12-2.4,5.94,0,3.41,1.51,145.17,1.86,178.22,0,.37-.29.68-.67.68h0Z"/>
    <path class="cls-2" d="M122.17,228.29c-9.38,0-17.01-7.28-17.01-16.23s7.63-16.23,17.01-16.23c4.39,0,8.56,1.6,11.74,4.5,3.39,3.09,5.26,7.26,5.26,11.74,0,3.72-1.28,7.22-3.71,10.11-3.24,3.89-8.09,6.12-13.3,6.12ZM122.17,197.17c-8.63,0-15.66,6.68-15.66,14.89s7.02,14.88,15.66,14.88c4.8,0,9.27-2.05,12.26-5.63,2.22-2.65,3.4-5.85,3.4-9.25,0-4.09-1.71-7.91-4.82-10.74-2.93-2.67-6.78-4.14-10.83-4.14Z"/>
    <path class="cls-2" d="M110.12,256.29c-.25,0-.48-.14-.6-.37-.17-.33-.03-.74.3-.91l27.69-13.96c.33-.17.74-.03.91.3s.03.74-.3.91l-27.69,13.96c-.1.05-.2.07-.3.07Z"/>
  </g>
  <g>
    <polygon class="cls-2" points="351.42 180.51 357.51 170.38 365.59 178.53 361.62 180.36 355.24 181.17 351.42 180.51"/>
    <path class="cls-2" d="M300.91,77.06c13.01-7.39,28.59-6.66,42.85-4.18,14.92,2.59,29.5,7.29,44.74,7.83,8.37.3,16.78-.78,24.49-4.18.89-.39.12-1.7-.77-1.31-14.19,6.27-30.32,4.11-45.03,1.08-14.52-2.99-29-7.17-43.97-6.62-8.05.29-16.03,2.08-23.07,6.07-.85.48-.09,1.79.77,1.31h0Z"/>
    <path class="cls-2" d="M365.85,177.34c-3.88-3.58-7.62-7.33-10.98-11.4-3.12-3.79-5.86-7.88-8.26-12.17-6.14-11.01-10.16-23-14.2-34.89-3.78-11.13-7.38-22.92-14.99-32.13-4.73-5.73-10.91-9.66-18.03-11.74-1.93-.57-3.83-1-5.86-.69s-3.96,1.29-5.45,2.73c-3,2.9-3.99,7.43-2.22,11.25.52,1.13,1.28,2.11,2.09,3.05.64.74,1.71-.34,1.07-1.07-1.48-1.72-2.55-3.67-2.55-5.98,0-1.95.72-3.89,1.96-5.4,1.25-1.52,2.97-2.6,4.9-3.01,1.94-.42,3.79.04,5.65.58,6.8,1.99,12.67,5.72,17.22,11.18,7.42,8.89,10.92,20.39,14.58,31.17,3.91,11.5,7.78,23.08,13.5,33.85,4.57,8.62,10.54,16.18,17.53,22.95.97.94,1.95,1.87,2.95,2.78.72.66,1.79-.41,1.07-1.07h0Z"/>
    <path class="cls-2" d="M373.51,154.65c-.35,6.32-2.24,12.57-5.17,18.16-.71,1.35-1.48,2.67-2.32,3.94-.52.78-.89.99-1.76,1.32-.76.29-1.54.55-2.32.78-3.28.97-6.74,1.36-10.11.69-1.41-.28-2.02,1.89-.6,2.17,3.63.73,7.33.42,10.88-.57.93-.26,1.85-.56,2.75-.91.67-.26,1.59-.48,2.12-.96.57-.51,1.02-1.45,1.43-2.09.48-.76.94-1.53,1.38-2.32,3.42-6.19,5.58-13.15,5.98-20.22.08-1.45-2.17-1.44-2.25,0h0Z"/>
    <polygon class="cls-1" points="288.91 91.67 286.69 87.71 285.99 82.43 288.77 77.78 293.05 75.28 296.48 75 303.08 76.88 307.25 79.38 308.98 80.42 293.98 89.94 288.91 91.67"/>
  </g>
  <path class="cls-2" d="M140.22,440.35l-5.71,14.26h-40.65l18.4-2.74c.49-.07.98-.16,1.46-.26l10.4-2.13c2.64-.54,5.18-1.46,7.54-2.74h0c1.58-.85,3.07-1.86,4.45-3l4.1-3.39Z"/>
  <g>
    <path class="cls-2" d="M486.18,128.58c-5.8-5.16-11.6-10.32-17.36-15.53-.04-.04-.09-.07-.14-.1-.02-.02-.04-.04-.07-.06-1.47-.99-2.93-1.98-4.4-2.97-.45-.3-1.12-.09-1.38.36-1.62,2.78-3.72,5.27-4.79,8.34-.17.48.03.86.36,1.06.03.03.06.06.1.08,1.27.83,2.51,1.74,3.82,2.48,1.34.76,2.58.12,3.12-1.22.44-1.09.69-2.23,1.22-3.3.44-.89.96-1.73,1.55-2.51,5.48,4.96,11.01,9.88,16.53,14.79.97.86,2.4-.56,1.43-1.43ZM463.93,119.14c-.13.41-.21.86-.39,1.25,0,.01-.08.11-.11.18,0,0,0,0,0,0-.13-.08-.26-.16-.39-.24-.93-.6-1.85-1.21-2.78-1.81.93-2.26,2.46-4.22,3.76-6.28.87.59,1.74,1.17,2.61,1.76-1.18,1.55-2.1,3.28-2.71,5.15Z"/>
    <path class="cls-2" d="M482.9,133.34c-5.1-3.32-10.09-6.8-15-10.4-1.05-.77-2.06.98-1.02,1.75,4.91,3.6,9.9,7.08,15,10.4,1.09.71,2.11-1.04,1.02-1.75Z"/>
  </g>
  <g>
    <path class="cls-2" d="M495.55,133.87c-2.02-2.41-4.96-5.46-8.44-4.42-2.08.62-3.63,2.42-5.12,3.89-1.71,1.68-3.42,3.36-5.14,5.04-3.96,3.89-7.93,7.77-11.89,11.67-.7.69.38,1.76,1.07,1.07,3.22-3.18,6.46-6.34,9.69-9.51,1.67-1.64,3.35-3.28,5.02-4.93,1.51-1.48,2.97-3.06,4.57-4.44.78-.68,1.72-1.34,2.78-1.47,1.11-.14,2.17.34,3.08.93,1.16.77,2.09,1.82,3,2.86,1.32,1.52,2.41,3.21,3.22,5.06,1.64,3.75,2.04,7.91,1.84,11.95-.05.98,1.47.97,1.52,0,.3-6.37-1.03-12.75-5.2-17.72Z"/>
    <path class="cls-2" d="M490.14,137.86c-.14-.42-.51-.61-.93-.53-1.44.26-2.87.52-4.31.78-.39.07-.65.57-.53.93.14.42.51.61.93.53,1.44-.26,2.87-.52,4.31-.78.39-.07.65-.57.53-.93Z"/>
    <path class="cls-2" d="M489.41,144.3c-1.37.14-2.74.28-4.11.41-.39.04-.78.32-.76.76.02.38.34.8.76.76,1.37-.14,2.74-.28,4.11-.41.39-.04.78-.32.76-.76-.02-.38-.34-.8-.76-.76Z"/>
    <path class="cls-2" d="M490.2,151.5c-.11-.08-.21-.12-.32-.13-.98-.42-2.07-.6-3.13-.59-1.19.02-2.42.27-3.36,1.04-.32.26-.27.8,0,1.07.31.31.76.26,1.07,0,.01,0,0,0,.02-.01,0,0,0,0,.01,0,.05-.03.09-.06.14-.09.09-.05.18-.1.27-.14.02-.01.05-.02.07-.03.05-.02.09-.04.14-.05.1-.04.21-.07.32-.1.52-.14.83-.16,1.4-.17.26,0,.52.01.77.03.05,0,.11.01.16.02.02,0,.03,0,.05,0,0,0,.01,0,.03,0,.13.02.26.04.39.07.23.05.47.11.69.18.11.04.22.08.33.12,0,0,0,0,0,0,.06.03.12.05.17.08,3.82,2.7,5.85,7.45,5.36,12.07-.38.33-.92.46-1.44.41-.84-.08-1.53-.65-2.06-1.25-1.33-1.5-2.14-3.54-2.6-5.47,0-.08-.03-.16-.07-.23-.13-.34-.45-.46-.75-.41-.29.01-.57.17-.67.53-1.08,3.72-3.23,6.92-6.45,9.1-.8.55-.05,1.86.77,1.31,2.91-1.97,5.03-4.67,6.36-7.83.2.51.42,1.02.67,1.51.54,1.08,1.21,2.17,2.1,2.99.84.77,1.91,1.32,3.07,1.26,1.08-.05,2.11-.55,2.67-1.5.18-.3.12-.6-.05-.81.4-5.04-2.02-10.08-6.14-13Z"/>
  </g>
  <g>
    <path class="cls-2" d="M407.86,121.3c11.79,8.49,22.05,19.15,30.33,31.08,2.36,3.39,4.55,6.9,6.58,10.5.71,1.26,2.66.13,1.94-1.14-7.33-12.96-16.81-24.77-27.98-34.62-3.12-2.75-6.37-5.34-9.74-7.76-1.18-.85-2.3,1.1-1.14,1.94h0Z"/>
    <path class="cls-2" d="M491.88,169.4s-.01-.08-.02-.12c-.12-.49-.53-.96-.78-1.36-.39-.61-.79-1.22-1.22-1.81-.89-1.2-1.91-2.25-3.17-3.07-.76-.5-1.44.57-.92,1.19,1.26,1.51,2.53,3.02,3.79,4.53-4.6,0-9.28-1.05-13.28-3.34-4.66-2.67-7.94-7.28-9.51-12.38-.92-2.97-1.23-6.07-.93-9.16.06-.66-.87-1-1.29-.54-.79.86-1.67,1.65-2.51,2.46-2,1.95-4,3.9-5.99,5.84-4.59,4.47-9.17,8.94-13.76,13.42-1.06,1.04-2.13,2.07-3.19,3.11-.7.68.37,1.75,1.07,1.07,2.89-2.82,5.78-5.63,8.66-8.45,4.55-4.44,9.11-8.88,13.66-13.32.57-.55,1.15-1.1,1.73-1.65-.07,5.17,1.51,10.35,4.48,14.59,3.22,4.59,7.9,7.52,13.3,8.91,2.65.68,5.4,1,8.14.95-.5,1.65-1.1,3.28-1.72,4.88-1.83,4.68-4.06,9.22-6.66,13.52-3.4,5.63-7.47,10.88-12.32,15.34-5.46,5.03-11.92,8.95-19.04,11.12-3.98,1.22-8.11,1.89-12.26,2.05-2.3.09-4.6.03-6.89-.17-1.49-.13-3.02-.22-4.45-.68-2.03-.65-3.95-1.91-5.69-3.21-2.32-1.73-4.45-3.72-6.48-5.77-5.19-5.23-9.86-10.99-14.32-16.84-4.79-6.29-9.34-12.76-13.76-19.32-3.7-5.5-7.3-11.06-10.82-16.67-1.85-2.95-3.68-5.92-5.46-8.91-.08-.14-.16-.28-.25-.41-.5-.84-1.81-.08-1.31.77,1.33,2.25,2.7,4.48,4.08,6.71,3.38,5.45,6.84,10.85,10.38,16.2,4.49,6.77,9.12,13.45,13.98,19.96,4.68,6.26,9.54,12.43,14.94,18.1,2.18,2.28,4.45,4.49,6.91,6.47,1.91,1.53,3.94,2.98,6.2,3.94.97.41,1.95.71,2.99.85,2.42.33,4.85.52,7.29.54,4.45.05,8.92-.45,13.23-1.55,7.58-1.94,14.52-5.78,20.43-10.88,5.25-4.53,9.65-10,13.31-15.87,2.86-4.59,5.27-9.45,7.26-14.47.59-1.5,1.15-3.02,1.65-4.55.18-.55.44-1.15.53-1.73.01-.09.01-.19,0-.28Z"/>
  </g>
  <path class="cls-2" d="M470.06,144.73c-.01-.28-.12-.49-.3-.71-.92-1.15-2.38-1.82-3.85-1.87-.31-.01-.6.15-.8.4-.04.02-.08.03-.12.05-.21.12-.41.36-.46.6-.04.19-.45.71-.38.89-.12.12.18-.03.14.13-.13.55-.33,1.64.17,1.85,0,0,.49-.63.49-.63,0,0,.01,0,.02.01-.13.16-.21.36-.19.59.08,1.08.17,2.16.25,3.24.03.41.23.76.62.92.4.17.78.06,1.1-.21.74-.6,1.1-1.49,1.18-2.41.14.07.29.11.45.11.54-.02,1.03-.44,1.01-1.01,0-.33.58-.42.49-.73.19-.04.31-.21.44-.35.18-.19-.27-.61-.28-.88ZM465.5,145.86s.03.04.05.06c0,0,0,.01,0,.01-.1-.08-.09-.1-.06-.07ZM465.61,148.31c.09-.15.05-.06,0,0h0Z"/>
  <g>
    <g>
      <path class="cls-2" d="M231,358.28c-.07,0-.15-.01-.22-.04l-48.13-16.88c-.27-.09-.45-.35-.45-.64,0-.09.02-.18.05-.27l8.31-19.67s.01-.03.02-.05l6.03-14.29c.08-.18.23-.33.43-.38.19-.06.4-.03.57.08,16.79,11.08,30.87,22.41,43.07,34.67.21.21.26.54.11.81l-9.18,16.31c-.12.22-.35.34-.59.34ZM183.77,340.34l46.92,16.45,8.66-15.38c-11.88-11.88-25.57-22.91-41.82-33.68l-5.69,13.5s-.01.03-.02.05l-8.05,19.06Z"/>
      <path class="cls-2" d="M135.03,454.78c-.09,0-.18-.02-.26-.05-.34-.14-.5-.54-.36-.88l47.84-113.38c.14-.34.54-.5.88-.36.34.14.5.54.36.88l-47.84,113.38c-.11.26-.36.41-.62.41Z"/>
      <path class="cls-2" d="M197.41,417.93c-.11,0-.23-.03-.33-.09-.32-.18-.44-.59-.26-.92l33.59-59.65c.18-.32.59-.44.92-.26.32.18.44.59.26.92l-33.59,59.65c-.12.22-.35.34-.59.34Z"/>
      <path class="cls-2" d="M193.4,392.47c-6.65,0-12.07-5.71-12.07-12.74s5.41-12.74,12.07-12.74,12.07,5.71,12.07,12.74-5.41,12.74-12.07,12.74ZM193.4,368.34c-5.91,0-10.72,5.11-10.72,11.39s4.81,11.39,10.72,11.39,10.72-5.11,10.72-11.39-4.81-11.39-10.72-11.39Z"/>
      <path class="cls-2" d="M316.56,454.78s-.03,0-.05,0c-.37-.03-.65-.35-.62-.72.36-4.98.79-12.34.8-19.07v-.31c0-16.8-20.56-27.79-31.42-31.25-9.95-3.17-20.54-4.35-30.79-5.5-2.74-.31-5.57-.62-8.34-.97-.9-.12-1.79-.23-2.69-.35-1.91-.26-3.63-.52-5.28-.79-1.07-.18-2.19-.52-3.34-1-6.93-2.92-12.91-10.32-13.16-10.64-.23-.29-.19-.71.1-.95.29-.23.71-.19.95.1.06.07,6.02,7.46,12.63,10.24,1.05.44,2.07.75,3.04.91,1.63.27,3.34.53,5.23.79.89.12,1.78.24,2.67.35,2.76.35,5.59.66,8.32.97,10.31,1.15,20.97,2.35,31.05,5.55,15.59,4.96,32.36,17.26,32.36,32.54v.31c-.01,6.78-.44,14.16-.8,19.17-.03.35-.32.63-.67.63Z"/>
      <path class="cls-2" d="M203.59,436.84c-27.62,0-49.23-.39-52-1.54-2.81-1.17-4.41-4.76-4.76-10.68-.02-.37.26-.69.63-.71.38-.03.69.26.71.63.31,5.29,1.68,8.58,3.94,9.52,4.36,1.82,66.14,1.92,165.25.26h.01c.37,0,.67.29.67.66,0,.37-.29.68-.66.69-27.48.46-76.2,1.17-113.79,1.17Z"/>
      <path class="cls-2" d="M245.5,407.34c-4.97-4.58-8.66-10.44-10.68-16.89-1-3.17-1.6-6.46-1.74-9.78s.03-6.58,1.3-9.57c1.14-2.7,3.19-4.82,6.12-5.4,2.57-.51,5.43.42,6.41,3.03.6,1.59.5,3.35.33,5.01-.2,1.89-.52,3.78-.84,5.66-.64,3.72-1.43,7.4-2.37,11.05-1.9,7.36-4.41,14.57-7.52,21.51-.77,1.72-1.58,3.42-2.42,5.11s-1.56,3.4-2.62,4.88c-.54.76-1.93,2.42-3.03,1.85-1.34-.69-.06-2.94.44-3.77,6.86-11.33,15.75-21.54,25.68-30.26,9.98-8.76,21.24-16.06,33.33-21.55,1.46-.66,2.94-1.3,4.42-1.91,1.19-.49.67-2.44-.54-1.95-13.37,5.48-25.81,13.06-36.83,22.4-5.44,4.61-10.52,9.64-15.17,15.04-4.67,5.42-9.14,11.23-12.77,17.41-.78,1.32-1.47,3.03-1,4.57s2,2.38,3.52,2.06c1.59-.34,2.87-1.68,3.75-2.97,1.12-1.64,1.95-3.55,2.83-5.32,3.62-7.34,6.6-15,8.87-22.87,1.14-3.96,2.11-7.98,2.89-12.03.38-2,.73-4.01,1.02-6.03.27-1.86.59-3.76.49-5.65-.17-3.31-1.9-6.24-5.23-7.13-2.84-.76-6.04,0-8.31,1.85-5.53,4.49-5.32,13.32-4.3,19.67,1.14,7.14,4.25,13.92,8.83,19.5,1.14,1.39,2.38,2.69,3.7,3.91.96.88,2.39-.55,1.43-1.43h0Z"/>
    </g>
    <path class="cls-2" d="M316.5,454.94h0l-181.49-.06c-.37,0-.67-.3-.67-.67s.3-.67.67-.67h0l181.49.06c.37,0,.67.3.67.67s-.3.67-.67.67Z"/>
  </g>
  <g>
    <rect class="cls-4" x="423.6" y="352.64" width="119.16" height="100.9"/>
    <path class="cls-2" d="M542.92,352.14h7.87c.94,0,1.71.77,1.71,1.71v99.7h-9.58v-101.41h0Z"/>
  </g>
</svg>