<?xml version="1.0" encoding="UTF-8"?>
<svg id="Layer_1" data-name="Layer 1" xmlns="http://www.w3.org/2000/svg" viewBox="0 0 720 467">
  <defs>
    <style>
      .cls-1, .cls-2 {
        fill: #000;
      }

      .cls-1, .cls-3 {
        stroke-miterlimit: 10;
      }

      .cls-1, .cls-3, .cls-4, .cls-5 {
        stroke: #000;
      }

      .cls-2, .cls-6, .cls-7, .cls-8, .cls-9, .cls-10 {
        stroke-width: 0px;
      }

      .cls-6 {
        fill: #caa8f5;
      }

      .cls-7, .cls-3, .cls-5 {
        fill: #0e8c80;
      }

      .cls-8 {
        fill: #f45b69;
      }

      .cls-3, .cls-4, .cls-5 {
        stroke-width: 2px;
      }

      .cls-4 {
        fill: none;
      }

      .cls-4, .cls-5 {
        stroke-linecap: round;
        stroke-linejoin: round;
      }

      .cls-9 {
        fill: #dbff8f;
      }

      .cls-10 {
        fill: #070600;
      }
    </style>
  </defs>
  <g>
    <path class="cls-4" d="M547.09,287.76c-1.41,7.41-2.91,14.41-4.51,20.67"/>
    <g>
      <g>
        <path class="cls-3" d="M629.17,146.09c-1.27-.42-2.56-.8-3.86-1.14-6.97-1.89-14.31-2.89-21.88-2.89-10.31,0-20.19,1.86-29.3,5.28-31.8,11.87-54.45,42.53-54.45,78.47,0,24.55,10.57,46.65,27.41,61.96,4.88-25.73,8.55-56.51,10.08-79.05-1.18,39.91,11.58,67.87,23.65,68.97,11.64,1.06,28.02-22.4,35.47-57.15,8.25,45.37,16.79,53.66,22.46,54,9.77.59,17.69-21.92,38.24-70.55,1.38-3.26,2.74-6.47,4.09-9.62-9.25-22.83-28.28-40.66-51.9-48.28ZM611.36,163.39c-2.5,0-4.53-2.03-4.53-4.53s2.03-4.53,4.53-4.53,4.53,2.03,4.53,4.53-2.03,4.53-4.53,4.53Z"/>
        <path class="cls-3" d="M687.18,225.8c0,46.25-37.49,83.75-83.75,83.75-21.69,0-41.47-8.25-56.34-21.78,4.88-25.73,8.55-56.51,10.08-79.05-1.18,39.91,11.58,67.87,23.65,68.97,11.64,1.06,28.02-22.4,35.47-57.15,8.25,45.37,16.79,53.66,22.46,54,9.77.59,17.69-21.92,38.24-70.55,1.38-3.26,2.74-6.47,4.09-9.62.17.41.33.81.49,1.23,1.83,4.73,3.25,9.66,4.19,14.76.94,5,1.42,10.17,1.42,15.44Z"/>
      </g>
      <path class="cls-4" d="M681.08,194.36c13.36-31.29,24.97-56.98,33.35-75.12"/>
      <path class="cls-4" d="M536.67,204.77c12.01-23.38,31.3-38.97,60.3-44.14"/>
      <path class="cls-1" d="M666.01,230.9s10.3-16.05,14.84-19.38c3.44-2.52,5.75-.76,5.75-.76l-4.85-15.6-7.12,15.9-8.63,19.84Z"/>
      <path class="cls-1" d="M551.77,259.33s.12,20.98,4.4,27.08c7.27,10.35,21.14,18.05,21.14,18.05l-13.43-5.06-16.73-11.45,4.62-28.62Z"/>
    </g>
  </g>
  <g>
    <g>
      <g>
        <g>
          <g>
            <rect class="cls-7" x="133.02" y="66.59" width="122.81" height="212.92" rx="13.81" ry="13.81"/>
            <path class="cls-2" d="M242.03,280.23h-95.2c-8.01,0-14.53-6.52-14.53-14.53V80.39c0-8.01,6.52-14.53,14.53-14.53h95.2c8.01,0,14.53,6.52,14.53,14.53v185.31c0,8.01-6.52,14.53-14.53,14.53ZM146.83,67.31c-7.22,0-13.09,5.87-13.09,13.09v185.31c0,7.22,5.87,13.09,13.09,13.09h95.2c7.22,0,13.09-5.87,13.09-13.09V80.39c0-7.22-5.87-13.09-13.09-13.09h-95.2Z"/>
          </g>
          <path class="cls-2" d="M255.77,254.77h-121.69c-.4,0-.72-.32-.72-.72s.32-.72.72-.72h121.69c.4,0,.72.32.72.72s-.32.72-.72.72Z"/>
          <g>
            <circle class="cls-10" cx="193.89" cy="266.42" r="8.25"/>
            <path class="cls-2" d="M193.89,275.39c-4.95,0-8.97-4.02-8.97-8.97s4.02-8.97,8.97-8.97,8.97,4.02,8.97,8.97-4.02,8.97-8.97,8.97ZM193.89,258.89c-4.15,0-7.53,3.38-7.53,7.53s3.38,7.53,7.53,7.53,7.53-3.38,7.53-7.53-3.38-7.53-7.53-7.53Z"/>
          </g>
        </g>
        <g>
          <g>
            <rect class="cls-10" x="77.36" y="157.11" width="119.63" height="44.86" rx="22.43" ry="22.43"/>
            <path class="cls-2" d="M174.56,202.69h-74.77c-12.76,0-23.15-10.38-23.15-23.15s10.38-23.15,23.15-23.15h74.77c12.76,0,23.15,10.38,23.15,23.15s-10.39,23.15-23.15,23.15ZM99.79,157.83c-11.97,0-21.71,9.74-21.71,21.71s9.74,21.71,21.71,21.71h74.77c11.97,0,21.71-9.74,21.71-21.71s-9.74-21.71-21.71-21.71h-74.77Z"/>
          </g>
          <path class="cls-7" d="M176.88,172.78h-63.42c-.4,0-.72-.32-.72-.72s.32-.72.72-.72h63.42c.4,0,.72.32.72.72s-.32.72-.72.72Z"/>
          <path class="cls-7" d="M151.61,188.25h-38.67c-.4,0-.72-.32-.72-.72s.32-.72.72-.72h38.67c.4,0,.72.32.72.72s-.32.72-.72.72Z"/>
        </g>
      </g>
      <g>
        <g>
          <path class="cls-2" d="M194.39,103.31c-.79,0-1.44-.64-1.44-1.44v-14.56c0-.79.64-1.44,1.44-1.44s1.44.64,1.44,1.44v14.56c0,.79-.64,1.44-1.44,1.44Z"/>
          <path class="cls-2" d="M194.39,136.36c-.79,0-1.44-.64-1.44-1.44v-14.56c0-.79.64-1.44,1.44-1.44s1.44.64,1.44,1.44v14.56c0,.79-.64,1.44-1.44,1.44Z"/>
        </g>
        <g>
          <path class="cls-2" d="M216.63,112.56h-14.56c-.79,0-1.44-.64-1.44-1.44s.64-1.44,1.44-1.44h14.56c.79,0,1.44.64,1.44,1.44s-.64,1.44-1.44,1.44Z"/>
          <path class="cls-2" d="M183.57,112.56h-14.56c-.79,0-1.44-.64-1.44-1.44s.64-1.44,1.44-1.44h14.56c.79,0,1.44.64,1.44,1.44s-.64,1.44-1.44,1.44Z"/>
        </g>
        <g>
          <g>
            <line class="cls-7" x1="211.23" y1="127.95" x2="200.93" y2="117.66"/>
            <path class="cls-2" d="M211.23,129.39c-.37,0-.74-.14-1.02-.42l-10.3-10.3c-.56-.56-.56-1.47,0-2.04.56-.56,1.47-.56,2.04,0l10.3,10.3c.56.56.56,1.47,0,2.04-.28.28-.65.42-1.02.42Z"/>
          </g>
          <g>
            <line class="cls-7" x1="187.85" y1="104.58" x2="177.56" y2="94.28"/>
            <path class="cls-2" d="M187.85,106.02c-.37,0-.74-.14-1.02-.42l-10.29-10.3c-.56-.56-.56-1.47,0-2.04.56-.56,1.47-.56,2.04,0l10.29,10.3c.56.56.56,1.47,0,2.04-.28.28-.65.42-1.02.42Z"/>
          </g>
        </g>
        <g>
          <g>
            <line class="cls-7" x1="177.56" y1="127.95" x2="187.85" y2="117.66"/>
            <path class="cls-2" d="M177.56,129.39c-.37,0-.74-.14-1.02-.42-.56-.56-.56-1.47,0-2.04l10.29-10.3c.56-.56,1.47-.56,2.04,0s.56,1.47,0,2.04l-10.29,10.3c-.28.28-.65.42-1.02.42Z"/>
          </g>
          <g>
            <line class="cls-7" x1="200.93" y1="104.58" x2="211.23" y2="94.28"/>
            <path class="cls-2" d="M200.93,106.02c-.37,0-.74-.14-1.02-.42-.56-.56-.56-1.47,0-2.04l10.3-10.3c.56-.56,1.47-.56,2.04,0,.56.56.56,1.47,0,2.04l-10.3,10.3c-.28.28-.65.42-1.02.42Z"/>
          </g>
        </g>
      </g>
    </g>
    <path class="cls-2" d="M282.53,157.06c12.71-3.19,30.19-8.72,30.04-24.72-.05-5.39-2.39-11.32-7.61-13.63-5.68-2.52-11.68.4-14.99,5.26-3.91,5.74-3.63,12.95.52,18.47,4.12,5.48,10.92,8.58,17.62,9.3,9.75,1.04,19.32-2.48,28.34-5.71,8.38-3,16.76-6.02,25.02-9.35,18.45-7.43,36.44-16.49,51.4-29.79l-1.38-.57c.06,8.79-6.5,15.72-7.86,24.17-1.16,7.23,3.26,13.24,10.31,14.77,8.43,1.83,17.11-1.14,25.16-3.33,11.94-3.25,23.88-6.5,35.83-9.75,46.97-12.79,93.94-25.57,140.92-38.36,26.54-7.22,53.08-14.45,79.61-21.67,1-.27.58-1.84-.43-1.56-45.64,12.43-91.29,24.85-136.93,37.28-22.82,6.21-45.64,12.43-68.47,18.64-11.41,3.11-22.82,6.21-34.23,9.32-5.84,1.59-11.68,3.18-17.51,4.77-4.39,1.19-8.76,2.54-13.27,3.19-4.34.62-9.21.79-13.3-1.06-4.13-1.87-6.52-5.99-6.26-10.5s2.77-9.11,4.67-13.33c1.8-3.99,3.42-8.13,3.39-12.58,0-.73-.87-1.03-1.38-.57-11.79,10.47-25.56,18.34-39.89,24.79-7.31,3.29-14.78,6.23-22.29,9.02s-15.25,5.79-23.03,8.14-16.07,3.8-23.89,1.21c-6.43-2.14-13-7.29-13.83-14.47-.7-6.04,3.23-13.07,9.28-14.73,6.02-1.65,10.9,2.93,12.33,8.44,1.74,6.74-.72,13.37-5.9,17.86-6.22,5.4-14.61,7.53-22.41,9.49-1.01.25-.58,1.82.43,1.56h0Z"/>
    <g>
      <g>
        <polygon class="cls-10" points="135.62 345.34 107.33 276.39 107.18 276.01 68.93 182.78 34 276.39 31.13 284.07 25.09 300.26 8.27 345.34 45.88 333.88 45.88 414.35 98.01 414.35 98.01 333.88 135.62 345.34"/>
        <path class="cls-10" d="M137.7,344.76c-1.27-3.08-2.53-6.17-3.8-9.25-2.89-7.05-5.79-14.11-8.68-21.16-3.12-7.6-6.24-15.2-9.36-22.81-1.98-4.84-3.97-9.68-5.95-14.51-.63-1.52-1.25-3.05-1.88-4.57-1.99-4.84-3.98-9.69-5.96-14.53-2.99-7.28-5.97-14.56-8.96-21.84-3.21-7.81-6.41-15.63-9.62-23.44-2.68-6.54-5.37-13.08-8.05-19.63-1.41-3.45-2.83-6.89-4.24-10.34l-.19-.46c-.81-1.98-3.38-2.1-4.16,0-.89,2.39-1.79,4.78-2.68,7.18-2.22,5.96-4.44,11.91-6.67,17.87-2.87,7.69-5.74,15.37-8.6,23.06s-5.64,15.11-8.46,22.67c-2.12,5.67-4.23,11.34-6.35,17-.84,2.24-1.67,4.49-2.51,6.73-2.16,5.78-4.32,11.56-6.47,17.34-1.34,3.59-2.68,7.18-4.02,10.76-2.68,7.17-5.35,14.34-8.03,21.51-2.18,5.83-4.35,11.66-6.53,17.49-.12.32-.24.64-.36.95-.58,1.55,1.17,3.11,2.66,2.66,10.99-3.35,21.98-6.69,32.97-10.04,1.55-.47,3.1-.94,4.65-1.41-.91-.69-1.82-1.39-2.73-2.08v70.55c0,3.25-.13,6.53,0,9.78,0,.05,0,.09,0,.14,0,1.17.99,2.16,2.16,2.16h52.13c1.17,0,2.16-.99,2.16-2.16v-77.18c0-1.03.1-2.12,0-3.15,0-.04,0-.09,0-.14l-2.73,2.08c10.99,3.35,21.98,6.69,32.97,10.04,1.55.47,3.1.94,4.65,1.41,2.66.81,3.8-3.36,1.15-4.16-10.99-3.35-21.98-6.69-32.97-10.04-1.55-.47-3.1-.94-4.65-1.41-1.35-.41-2.73.71-2.73,2.08v77.18c0,1.03-.1,2.12,0,3.15,0,.04,0,.09,0,.14l2.16-2.16h-52.13l2.16,2.16v-70.55c0-3.25.13-6.53,0-9.78,0-.05,0-.09,0-.14,0-1.37-1.38-2.49-2.73-2.08-10.99,3.35-21.98,6.69-32.97,10.04-1.55.47-3.1.94-4.65,1.41.89.89,1.77,1.77,2.66,2.66,1.6-4.29,3.2-8.57,4.8-12.86,2.83-7.59,5.67-15.18,8.5-22.77,1.31-3.52,2.63-7.04,3.94-10.57,2.06-5.54,4.13-11.07,6.2-16.61,1.16-3.1,2.32-6.21,3.48-9.31,1.83-4.92,3.67-9.83,5.5-14.75l8.16-21.87c2.92-7.83,5.84-15.66,8.77-23.49l7.29-19.55,3.85-10.31c.06-.16.12-.32.18-.47h-4.16c.98,2.39,1.96,4.78,2.94,7.17,2.45,5.98,4.9,11.95,7.36,17.93,3.15,7.67,6.3,15.35,9.44,23.02s6.23,15.18,9.34,22.76c2.3,5.6,4.59,11.19,6.89,16.79.83,2.01,1.65,4.03,2.48,6.04,1.5,3.65,2.99,7.3,4.49,10.95,2.97,7.24,5.94,14.47,8.91,21.71,3.07,7.48,6.13,14.95,9.2,22.43,1.8,4.38,3.59,8.76,5.39,13.13.09.21.17.41.26.62.44,1.08,1.43,1.84,2.66,1.51,1.02-.28,1.95-1.57,1.51-2.66Z"/>
      </g>
      <g>
        <g>
          <polygon class="cls-7" points="133.78 347.11 105.49 278.16 105.33 277.78 67.08 184.55 32.16 278.16 29.28 285.84 23.24 302.03 6.42 347.11 44.03 335.65 44.03 416.12 96.16 416.12 96.16 335.65 133.78 347.11"/>
          <path class="cls-2" d="M134.82,346.82c-1.27-3.08-2.53-6.17-3.8-9.25-2.89-7.05-5.79-14.11-8.68-21.16-3.12-7.6-6.24-15.2-9.36-22.81-1.98-4.84-3.97-9.68-5.95-14.51-.63-1.52-1.25-3.05-1.88-4.57l-5.96-14.53c-2.99-7.28-5.97-14.56-8.96-21.84-3.21-7.81-6.41-15.63-9.62-23.44-2.68-6.54-5.37-13.08-8.05-19.63-1.41-3.45-2.83-6.89-4.24-10.34l-.19-.46c-.41-.99-1.69-1.05-2.08,0-.89,2.39-1.79,4.78-2.68,7.18-2.22,5.96-4.44,11.91-6.67,17.87-2.87,7.69-5.74,15.37-8.6,23.06l-8.46,22.67c-2.12,5.67-4.23,11.34-6.35,17-.84,2.24-1.67,4.49-2.51,6.73-2.16,5.78-4.32,11.56-6.47,17.34-1.34,3.59-2.68,7.18-4.02,10.76-2.68,7.17-5.35,14.34-8.03,21.51-2.18,5.83-4.35,11.66-6.53,17.49-.12.32-.24.64-.36.95-.29.78.59,1.55,1.33,1.33,10.99-3.35,21.98-6.69,32.97-10.04,1.55-.47,3.1-.94,4.65-1.41l-1.37-1.04v70.55c0,3.23-.24,6.56,0,9.78,0,.04,0,.09,0,.14,0,.58.49,1.08,1.08,1.08h52.13c.58,0,1.08-.49,1.08-1.08v-77.18c0-.99.18-2.17,0-3.15,0-.04,0-.09,0-.14l-1.37,1.04c10.99,3.35,21.98,6.69,32.97,10.04,1.55.47,3.1.94,4.65,1.41,1.33.41,1.9-1.68.57-2.08-10.99-3.35-21.98-6.69-32.97-10.04-1.55-.47-3.1-.94-4.65-1.41-.67-.21-1.37.36-1.37,1.04v77.18c0,.98-.19,2.18,0,3.15,0,.04,0,.09,0,.14l1.08-1.08h-52.13l1.08,1.08v-77.18c0-1.04.08-2.11,0-3.15,0-.04,0-.09,0-.14,0-.69-.69-1.25-1.37-1.04-10.99,3.35-21.98,6.69-32.97,10.04-1.55.47-3.1.94-4.65,1.41l1.33,1.33c1.6-4.29,3.2-8.57,4.8-12.86,2.83-7.59,5.67-15.18,8.5-22.77,1.31-3.52,2.63-7.04,3.94-10.57,2.06-5.54,4.13-11.07,6.2-16.61,1.16-3.1,2.32-6.21,3.48-9.31,1.83-4.92,3.67-9.83,5.5-14.75,2.72-7.29,5.44-14.58,8.16-21.87,2.92-7.83,5.84-15.66,8.77-23.49,2.43-6.52,4.86-13.03,7.29-19.55,1.28-3.44,2.56-6.87,3.85-10.31.06-.16.12-.32.18-.47h-2.08c.98,2.39,1.96,4.78,2.94,7.17,2.45,5.98,4.9,11.95,7.36,17.93,3.15,7.67,6.3,15.35,9.44,23.02s6.23,15.18,9.34,22.76c2.3,5.6,4.59,11.19,6.89,16.79.83,2.01,1.65,4.03,2.48,6.04,1.5,3.65,2.99,7.3,4.49,10.95,2.97,7.24,5.94,14.47,8.91,21.71s6.13,14.95,9.2,22.43c1.8,4.38,3.59,8.76,5.39,13.13.09.21.17.41.26.62.52,1.27,2.61.71,2.08-.57Z"/>
        </g>
        <path class="cls-2" d="M100.06,294.62c-.3,0-.57-.18-.68-.48l-22.27-62.28c-.13-.37.06-.79.44-.92.37-.13.79.06.92.44l22.27,62.28c.13.37-.06.79-.44.92-.08.03-.16.04-.24.04Z"/>
      </g>
    </g>
    <g>
      <g>
        <path class="cls-7" d="M74.21,416.58c-23.74,0-31.02,7.28-31.02,31.02,0-23.74-7.28-31.02-31.02-31.02,23.74,0,31.02-7.28,31.02-31.02,0,23.74,7.28,31.02,31.02,31.02Z"/>
        <path class="cls-2" d="M43.19,448.32c-.4,0-.72-.32-.72-.72,0-23.22-7.08-30.3-30.3-30.3-.4,0-.72-.32-.72-.72s.32-.72.72-.72c23.22,0,30.3-7.08,30.3-30.3,0-.4.32-.72.72-.72s.72.32.72.72c0,23.22,7.08,30.3,30.3,30.3.4,0,.72.32.72.72s-.32.72-.72.72c-23.22,0-30.3,7.08-30.3,30.3,0,.4-.32.72-.72.72ZM23.11,416.59c12.3,1.9,18.18,7.78,20.08,20.08,1.9-12.3,7.78-18.18,20.08-20.08-12.3-1.9-18.18-7.78-20.08-20.08-1.9,12.3-7.78,18.18-20.08,20.08Z"/>
      </g>
      <g>
        <path class="cls-7" d="M74.21,416.58c-23.74,0-31.02,7.28-31.02,31.02,0-23.74-7.28-31.02-31.02-31.02,23.74,0,31.02-7.28,31.02-31.02,0,23.74,7.28,31.02,31.02,31.02Z"/>
        <path class="cls-2" d="M43.19,448.32c-.4,0-.72-.32-.72-.72,0-23.22-7.08-30.3-30.3-30.3-.4,0-.72-.32-.72-.72s.32-.72.72-.72c23.22,0,30.3-7.08,30.3-30.3,0-.4.32-.72.72-.72s.72.32.72.72c0,23.22,7.08,30.3,30.3,30.3.4,0,.72.32.72.72s-.32.72-.72.72c-23.22,0-30.3,7.08-30.3,30.3,0,.4-.32.72-.72.72ZM23.11,416.59c12.3,1.9,18.18,7.78,20.08,20.08,1.9-12.3,7.78-18.18,20.08-20.08-12.3-1.9-18.18-7.78-20.08-20.08-1.9,12.3-7.78,18.18-20.08,20.08Z"/>
      </g>
    </g>
    <g>
      <g>
        <g>
          <g>
            <g>
              <path class="cls-7" d="M507.59,192.73v208.56c0,1.22-.98,2.2-2.2,2.2H236.1c-1.22,0-2.2-.98-2.2-2.2v-208.56c0-1.22.98-2.21,2.2-2.21h269.28c1.22,0,2.2.99,2.2,2.21Z"/>
              <path class="cls-2" d="M505.39,404.2H236.1c-1.61,0-2.92-1.31-2.92-2.92v-208.56c0-1.61,1.31-2.93,2.92-2.93h269.28c1.61,0,2.92,1.31,2.92,2.93v208.56c0,1.61-1.31,2.92-2.92,2.92ZM236.1,191.24c-.81,0-1.48.67-1.48,1.49v208.56c0,.81.66,1.48,1.48,1.48h269.28c.81,0,1.48-.66,1.48-1.48v-208.56c0-.82-.66-1.49-1.48-1.49H236.1Z"/>
            </g>
            <path class="cls-5" d="M513.37,184.48H228.12c-1.21,0-2.2.98-2.2,2.2v214.94c0,1.21.99,2.2,2.2,2.2h285.25c1.21,0,2.2-.99,2.2-2.2v-214.94c0-1.22-.99-2.2-2.2-2.2ZM507.59,401.29c0,1.22-.98,2.2-2.2,2.2H236.1c-1.22,0-2.2-.98-2.2-2.2v-208.56c0-1.22.98-2.21,2.2-2.21h269.28c1.22,0,2.2.99,2.2,2.21v208.56Z"/>
          </g>
          <path class="cls-2" d="M506.9,238.1H234.6c-.4,0-.72-.32-.72-.72s.32-.72.72-.72h272.3c.4,0,.72.32.72.72s-.32.72-.72.72Z"/>
        </g>
        <g>
          <g>
            <circle class="cls-6" cx="267.59" cy="215.64" r="9.48"/>
            <path class="cls-2" d="M267.59,225.84c-5.63,0-10.2-4.58-10.2-10.2s4.58-10.2,10.2-10.2,10.2,4.58,10.2,10.2-4.58,10.2-10.2,10.2ZM267.59,206.88c-4.83,0-8.76,3.93-8.76,8.76s3.93,8.76,8.76,8.76,8.76-3.93,8.76-8.76-3.93-8.76-8.76-8.76Z"/>
          </g>
          <g>
            <circle class="cls-9" cx="298.8" cy="215.64" r="9.48"/>
            <path class="cls-2" d="M298.8,225.84c-5.63,0-10.2-4.58-10.2-10.2s4.58-10.2,10.2-10.2,10.2,4.58,10.2,10.2-4.58,10.2-10.2,10.2ZM298.8,206.88c-4.83,0-8.76,3.93-8.76,8.76s3.93,8.76,8.76,8.76,8.76-3.93,8.76-8.76-3.93-8.76-8.76-8.76Z"/>
          </g>
          <g>
            <circle class="cls-8" cx="331.67" cy="215.64" r="9.48"/>
            <path class="cls-2" d="M331.67,225.84c-5.63,0-10.2-4.58-10.2-10.2s4.58-10.2,10.2-10.2,10.2,4.58,10.2,10.2-4.58,10.2-10.2,10.2ZM331.67,206.88c-4.83,0-8.76,3.93-8.76,8.76s3.93,8.76,8.76,8.76,8.76-3.93,8.76-8.76-3.93-8.76-8.76-8.76Z"/>
          </g>
        </g>
        <g>
          <g>
            <path class="cls-2" d="M390.83,271.77l-38.09,84.76c-.25.58-.82.95-1.46.95h-14.3c-1.17,0-1.94-1.2-1.46-2.25l38.09-84.77c.25-.57.82-.95,1.46-.95h14.3c1.17,0,1.94,1.2,1.46,2.26Z"/>
            <path class="cls-2" d="M351.28,357.84h-14.3c-.67,0-1.29-.34-1.65-.9-.36-.56-.41-1.25-.14-1.86l38.09-84.77c.31-.7,1.01-1.16,1.79-1.16h14.3c.67,0,1.29.33,1.65.89.36.56.41,1.26.14,1.87l-38.09,84.76c-.3.7-1,1.16-1.79,1.16ZM375.07,269.87c-.49,0-.93.29-1.13.73l-38.1,84.78c-.17.38-.14.82.08,1.17.23.36.62.57,1.04.57h14.3c.49,0,.94-.29,1.13-.73l38.1-84.77c.17-.39.14-.83-.09-1.19-.23-.36-.61-.57-1.04-.57h-14.3Z"/>
          </g>
          <g>
            <path class="cls-2" d="M338.44,299.27v5.53c0,.74-.34,1.44-.92,1.89l-65.67,52.18c-1.59,1.26-3.94.14-3.94-1.89v-22.28c0-.84.44-1.62,1.17-2.07l40.36-24.66c1.82-1.11,1.42-3.86-.65-4.41l-37.81-9.99c-1.05-.27-1.79-1.22-1.81-2.3l-.24-16.19c-.02-1.71,1.68-2.9,3.28-2.3l64.65,24.24c.95.36,1.57,1.26,1.57,2.27Z"/>
            <path class="cls-2" d="M270.35,359.76c-.41,0-.83-.09-1.22-.28-.97-.47-1.57-1.43-1.57-2.5v-22.28c0-.97.5-1.86,1.34-2.38l40.36-24.66c.72-.44,1.09-1.22.97-2.05-.12-.83-.7-1.49-1.52-1.7l-37.81-9.99c-1.2-.31-2.05-1.4-2.08-2.64l-.24-16.19c-.01-.92.43-1.79,1.19-2.32.75-.53,1.72-.65,2.58-.32l64.65,24.24c1.1.42,1.81,1.44,1.81,2.61v5.53c0,.84-.39,1.65-1.05,2.18l-65.67,52.18c-.51.4-1.12.61-1.73.61ZM271.36,272.97c-.41,0-.82.13-1.18.38-.57.4-.89,1.02-.88,1.72l.24,16.19c.02.92.65,1.73,1.54,1.96l37.81,10c1.1.29,1.88,1.17,2.04,2.3.16,1.12-.34,2.18-1.3,2.77l-40.36,24.66c-.62.38-.99,1.04-.99,1.77v22.28c0,.81.43,1.5,1.16,1.85.73.35,1.55.26,2.19-.24l65.67-52.18c.49-.39.78-.99.78-1.61v-5.53c0-.86-.53-1.62-1.34-1.93l-64.65-24.24c-.24-.09-.49-.14-.74-.14Z"/>
          </g>
          <g>
            <path class="cls-2" d="M469.07,334.7v22.28c0,2.03-2.34,3.15-3.94,1.89l-65.67-52.18c-.57-.46-.92-1.16-.92-1.89v-5.53c0-1.01.62-1.91,1.57-2.27l64.65-24.24c1.6-.6,3.3.59,3.28,2.3l-.24,16.19c-.02,1.08-.76,2.03-1.81,2.3l-37.81,9.99c-2.06.55-2.47,3.3-.65,4.41l40.36,24.66c.73.45,1.17,1.23,1.17,2.07Z"/>
            <path class="cls-2" d="M466.64,359.76c-.61,0-1.22-.21-1.73-.61l-65.67-52.18c-.66-.53-1.05-1.34-1.05-2.18v-5.53c0-1.16.71-2.18,1.8-2.61l64.65-24.24c.86-.33,1.83-.2,2.58.32.75.53,1.2,1.4,1.19,2.32l-.24,16.19c-.02,1.25-.88,2.33-2.08,2.64l-37.81,9.99c-.81.22-1.4.87-1.52,1.7-.12.83.25,1.62.97,2.05l40.36,24.66c.84.52,1.34,1.41,1.34,2.38v22.28c0,1.08-.6,2.03-1.57,2.5-.39.19-.81.28-1.22.28ZM465.63,272.97c-.25,0-.49.04-.74.14l-64.65,24.24c-.81.31-1.34,1.07-1.34,1.93v5.53c0,.62.29,1.22.78,1.61l65.67,52.18c.64.51,1.46.6,2.19.24.73-.35,1.16-1.05,1.16-1.85v-22.28c0-.72-.37-1.38-1-1.77l-40.36-24.66c-.97-.59-1.46-1.65-1.3-2.77.16-1.12.95-2,2.04-2.3l37.81-9.99c.89-.23,1.53-1.04,1.54-1.96l.24-16.19c0-.69-.31-1.32-.88-1.72-.35-.25-.76-.38-1.18-.38Z"/>
          </g>
        </g>
      </g>
      <g>
        <g>
          <rect class="cls-10" x="123.05" y="403.88" width="392.52" height="15.61"/>
          <path class="cls-2" d="M515.57,420.21H123.05c-.4,0-.72-.32-.72-.72v-15.61c0-.4.32-.72.72-.72h392.52c.4,0,.72.32.72.72v15.61c0,.4-.32.72-.72.72ZM123.77,418.77h391.08v-14.17H123.77v14.17Z"/>
        </g>
        <g>
          <rect class="cls-7" x="123.05" y="403.88" width="287.65" height="15.61"/>
          <path class="cls-2" d="M410.7,420.21H123.05c-.4,0-.72-.32-.72-.72v-15.61c0-.4.32-.72.72-.72h287.65c.4,0,.72.32.72.72v15.61c0,.4-.32.72-.72.72ZM123.77,418.77h286.21v-14.17H123.77v14.17Z"/>
        </g>
        <path class="cls-10" d="M147.51,398.25h346.74c3.33,0,6.04,2.71,6.04,6.04H141.47c0-3.33,2.71-6.04,6.04-6.04Z"/>
      </g>
    </g>
    <g>
      <g>
        <rect class="cls-10" x="491.74" y="309.81" width="189.98" height="71.24" rx="35.62" ry="35.62"/>
        <path class="cls-2" d="M646.1,381.77h-118.74c-20.04,0-36.34-16.3-36.34-36.34s16.3-36.34,36.34-36.34h118.74c20.04,0,36.34,16.3,36.34,36.34s-16.3,36.34-36.34,36.34ZM527.36,310.53c-19.25,0-34.9,15.66-34.9,34.9s15.66,34.9,34.9,34.9h118.74c19.24,0,34.9-15.66,34.9-34.9s-15.66-34.9-34.9-34.9h-118.74Z"/>
      </g>
      <g>
        <path class="cls-7" d="M660.66,334.28h-137.78c-.4,0-.72-.32-.72-.72s.32-.72.72-.72h137.78c.4,0,.72.32.72.72s-.32.72-.72.72Z"/>
        <path class="cls-7" d="M605.77,358.85h-84.01c-.4,0-.72-.32-.72-.72s.32-.72.72-.72h84.01c.4,0,.72.32.72.72s-.32.72-.72.72Z"/>
        <path class="cls-7" d="M605.77,347.94h-84.01c-.4,0-.72-.32-.72-.72s.32-.72.72-.72h84.01c.4,0,.72.32.72.72s-.32.72-.72.72Z"/>
      </g>
    </g>
  </g>
</svg>