<?xml version="1.0" encoding="UTF-8"?>
<svg id="Layer_1" data-name="Layer 1" xmlns="http://www.w3.org/2000/svg" viewBox="0 0 720 467">
  <defs>
    <style>
      .cls-1 {
        fill: #000;
      }

      .cls-1, .cls-2, .cls-3 {
        stroke-width: 0px;
      }

      .cls-4 {
        opacity: .11;
      }

      .cls-5 {
        opacity: .21;
      }

      .cls-2 {
        fill: #dbff8f;
      }

      .cls-3 {
        fill: #070600;
      }
    </style>
  </defs>
  <g>
    <rect class="cls-1" x="169.31" y="108.63" width="1.25" height="275.21"/>
    <g>
      <path class="cls-1" d="M165.11,141.41h-10.91c-.34,0-.62-.28-.62-.62s.28-.62.62-.62h10.91c.34,0,.62.28.62.62s-.28.62-.62.62Z"/>
      <path class="cls-1" d="M185.52,141.41h-10.91c-.34,0-.62-.28-.62-.62s.28-.62.62-.62h10.91c.34,0,.62.28.62.62s-.28.62-.62.62Z"/>
    </g>
    <g>
      <path class="cls-1" d="M165.11,367.31h-10.91c-.34,0-.62-.28-.62-.62s.28-.62.62-.62h10.91c.34,0,.62.28.62.62s-.28.62-.62.62Z"/>
      <path class="cls-1" d="M185.52,367.31h-10.91c-.34,0-.62-.28-.62-.62s.28-.62.62-.62h10.91c.34,0,.62.28.62.62s-.28.62-.62.62Z"/>
    </g>
    <g>
      <path class="cls-1" d="M165.11,339.07h-10.91c-.34,0-.62-.28-.62-.62s.28-.62.62-.62h10.91c.34,0,.62.28.62.62s-.28.62-.62.62Z"/>
      <path class="cls-1" d="M185.52,339.07h-10.91c-.34,0-.62-.28-.62-.62s.28-.62.62-.62h10.91c.34,0,.62.28.62.62s-.28.62-.62.62Z"/>
    </g>
    <g>
      <path class="cls-1" d="M165.11,310.83h-10.91c-.34,0-.62-.28-.62-.62s.28-.62.62-.62h10.91c.34,0,.62.28.62.62s-.28.62-.62.62Z"/>
      <path class="cls-1" d="M185.52,310.83h-10.91c-.34,0-.62-.28-.62-.62s.28-.62.62-.62h10.91c.34,0,.62.28.62.62s-.28.62-.62.62Z"/>
    </g>
    <g>
      <path class="cls-1" d="M165.11,282.6h-10.91c-.34,0-.62-.28-.62-.62s.28-.62.62-.62h10.91c.34,0,.62.28.62.62s-.28.62-.62.62Z"/>
      <path class="cls-1" d="M185.52,282.6h-10.91c-.34,0-.62-.28-.62-.62s.28-.62.62-.62h10.91c.34,0,.62.28.62.62s-.28.62-.62.62Z"/>
    </g>
    <g>
      <path class="cls-1" d="M165.11,254.36h-10.91c-.34,0-.62-.28-.62-.62s.28-.62.62-.62h10.91c.34,0,.62.28.62.62s-.28.62-.62.62Z"/>
      <path class="cls-1" d="M185.52,254.36h-10.91c-.34,0-.62-.28-.62-.62s.28-.62.62-.62h10.91c.34,0,.62.28.62.62s-.28.62-.62.62Z"/>
    </g>
    <g>
      <path class="cls-1" d="M165.11,226.12h-10.91c-.34,0-.62-.28-.62-.62s.28-.62.62-.62h10.91c.34,0,.62.28.62.62s-.28.62-.62.62Z"/>
      <path class="cls-1" d="M185.52,226.12h-10.91c-.34,0-.62-.28-.62-.62s.28-.62.62-.62h10.91c.34,0,.62.28.62.62s-.28.62-.62.62Z"/>
    </g>
    <g>
      <path class="cls-1" d="M165.11,197.88h-10.91c-.34,0-.62-.28-.62-.62s.28-.62.62-.62h10.91c.34,0,.62.28.62.62s-.28.62-.62.62Z"/>
      <path class="cls-1" d="M185.52,197.88h-10.91c-.34,0-.62-.28-.62-.62s.28-.62.62-.62h10.91c.34,0,.62.28.62.62s-.28.62-.62.62Z"/>
    </g>
    <g>
      <path class="cls-1" d="M165.11,169.65h-10.91c-.34,0-.62-.28-.62-.62s.28-.62.62-.62h10.91c.34,0,.62.28.62.62s-.28.62-.62.62Z"/>
      <path class="cls-1" d="M185.52,169.65h-10.91c-.34,0-.62-.28-.62-.62s.28-.62.62-.62h10.91c.34,0,.62.28.62.62s-.28.62-.62.62Z"/>
    </g>
  </g>
  <g>
    <rect class="cls-1" x="95.91" y="108.63" width="1.25" height="275.21"/>
    <g>
      <path class="cls-1" d="M91.71,141.41h-10.91c-.34,0-.62-.28-.62-.62s.28-.62.62-.62h10.91c.34,0,.62.28.62.62s-.28.62-.62.62Z"/>
      <path class="cls-1" d="M112.12,141.41h-10.91c-.34,0-.62-.28-.62-.62s.28-.62.62-.62h10.91c.34,0,.62.28.62.62s-.28.62-.62.62Z"/>
    </g>
    <g>
      <path class="cls-1" d="M91.71,367.31h-10.91c-.34,0-.62-.28-.62-.62s.28-.62.62-.62h10.91c.34,0,.62.28.62.62s-.28.62-.62.62Z"/>
      <path class="cls-1" d="M112.12,367.31h-10.91c-.34,0-.62-.28-.62-.62s.28-.62.62-.62h10.91c.34,0,.62.28.62.62s-.28.62-.62.62Z"/>
    </g>
    <g>
      <path class="cls-1" d="M91.71,339.07h-10.91c-.34,0-.62-.28-.62-.62s.28-.62.62-.62h10.91c.34,0,.62.28.62.62s-.28.62-.62.62Z"/>
      <path class="cls-1" d="M112.12,339.07h-10.91c-.34,0-.62-.28-.62-.62s.28-.62.62-.62h10.91c.34,0,.62.28.62.62s-.28.62-.62.62Z"/>
    </g>
    <g>
      <path class="cls-1" d="M91.71,310.83h-10.91c-.34,0-.62-.28-.62-.62s.28-.62.62-.62h10.91c.34,0,.62.28.62.62s-.28.62-.62.62Z"/>
      <path class="cls-1" d="M112.12,310.83h-10.91c-.34,0-.62-.28-.62-.62s.28-.62.62-.62h10.91c.34,0,.62.28.62.62s-.28.62-.62.62Z"/>
    </g>
    <g>
      <path class="cls-1" d="M91.71,282.6h-10.91c-.34,0-.62-.28-.62-.62s.28-.62.62-.62h10.91c.34,0,.62.28.62.62s-.28.62-.62.62Z"/>
      <path class="cls-1" d="M112.12,282.6h-10.91c-.34,0-.62-.28-.62-.62s.28-.62.62-.62h10.91c.34,0,.62.28.62.62s-.28.62-.62.62Z"/>
    </g>
    <g>
      <path class="cls-1" d="M91.71,254.36h-10.91c-.34,0-.62-.28-.62-.62s.28-.62.62-.62h10.91c.34,0,.62.28.62.62s-.28.62-.62.62Z"/>
      <path class="cls-1" d="M112.12,254.36h-10.91c-.34,0-.62-.28-.62-.62s.28-.62.62-.62h10.91c.34,0,.62.28.62.62s-.28.62-.62.62Z"/>
    </g>
    <g>
      <path class="cls-1" d="M91.71,226.12h-10.91c-.34,0-.62-.28-.62-.62s.28-.62.62-.62h10.91c.34,0,.62.28.62.62s-.28.62-.62.62Z"/>
      <path class="cls-1" d="M112.12,226.12h-10.91c-.34,0-.62-.28-.62-.62s.28-.62.62-.62h10.91c.34,0,.62.28.62.62s-.28.62-.62.62Z"/>
    </g>
    <g>
      <path class="cls-1" d="M91.71,197.88h-10.91c-.34,0-.62-.28-.62-.62s.28-.62.62-.62h10.91c.34,0,.62.28.62.62s-.28.62-.62.62Z"/>
      <path class="cls-1" d="M112.12,197.88h-10.91c-.34,0-.62-.28-.62-.62s.28-.62.62-.62h10.91c.34,0,.62.28.62.62s-.28.62-.62.62Z"/>
    </g>
    <g>
      <path class="cls-1" d="M91.71,169.65h-10.91c-.34,0-.62-.28-.62-.62s.28-.62.62-.62h10.91c.34,0,.62.28.62.62s-.28.62-.62.62Z"/>
      <path class="cls-1" d="M112.12,169.65h-10.91c-.34,0-.62-.28-.62-.62s.28-.62.62-.62h10.91c.34,0,.62.28.62.62s-.28.62-.62.62Z"/>
    </g>
  </g>
  <g>
    <rect class="cls-1" x="242.87" y="108.63" width="1.25" height="275.21"/>
    <g>
      <path class="cls-1" d="M238.67,141.41h-10.91c-.34,0-.62-.28-.62-.62s.28-.62.62-.62h10.91c.34,0,.62.28.62.62s-.28.62-.62.62Z"/>
      <path class="cls-1" d="M259.08,141.41h-10.91c-.34,0-.62-.28-.62-.62s.28-.62.62-.62h10.91c.34,0,.62.28.62.62s-.28.62-.62.62Z"/>
    </g>
    <g>
      <path class="cls-1" d="M238.67,367.31h-10.91c-.34,0-.62-.28-.62-.62s.28-.62.62-.62h10.91c.34,0,.62.28.62.62s-.28.62-.62.62Z"/>
      <path class="cls-1" d="M259.08,367.31h-10.91c-.34,0-.62-.28-.62-.62s.28-.62.62-.62h10.91c.34,0,.62.28.62.62s-.28.62-.62.62Z"/>
    </g>
    <g>
      <path class="cls-1" d="M238.67,339.07h-10.91c-.34,0-.62-.28-.62-.62s.28-.62.62-.62h10.91c.34,0,.62.28.62.62s-.28.62-.62.62Z"/>
      <path class="cls-1" d="M259.08,339.07h-10.91c-.34,0-.62-.28-.62-.62s.28-.62.62-.62h10.91c.34,0,.62.28.62.62s-.28.62-.62.62Z"/>
    </g>
    <g>
      <path class="cls-1" d="M238.67,310.83h-10.91c-.34,0-.62-.28-.62-.62s.28-.62.62-.62h10.91c.34,0,.62.28.62.62s-.28.62-.62.62Z"/>
      <path class="cls-1" d="M259.08,310.83h-10.91c-.34,0-.62-.28-.62-.62s.28-.62.62-.62h10.91c.34,0,.62.28.62.62s-.28.62-.62.62Z"/>
    </g>
    <g>
      <path class="cls-1" d="M238.67,282.6h-10.91c-.34,0-.62-.28-.62-.62s.28-.62.62-.62h10.91c.34,0,.62.28.62.62s-.28.62-.62.62Z"/>
      <path class="cls-1" d="M259.08,282.6h-10.91c-.34,0-.62-.28-.62-.62s.28-.62.62-.62h10.91c.34,0,.62.28.62.62s-.28.62-.62.62Z"/>
    </g>
    <g>
      <path class="cls-1" d="M238.67,254.36h-10.91c-.34,0-.62-.28-.62-.62s.28-.62.62-.62h10.91c.34,0,.62.28.62.62s-.28.62-.62.62Z"/>
      <path class="cls-1" d="M259.08,254.36h-10.91c-.34,0-.62-.28-.62-.62s.28-.62.62-.62h10.91c.34,0,.62.28.62.62s-.28.62-.62.62Z"/>
    </g>
    <g>
      <path class="cls-1" d="M238.67,226.12h-10.91c-.34,0-.62-.28-.62-.62s.28-.62.62-.62h10.91c.34,0,.62.28.62.62s-.28.62-.62.62Z"/>
      <path class="cls-1" d="M259.08,226.12h-10.91c-.34,0-.62-.28-.62-.62s.28-.62.62-.62h10.91c.34,0,.62.28.62.62s-.28.62-.62.62Z"/>
    </g>
    <g>
      <path class="cls-1" d="M238.67,197.88h-10.91c-.34,0-.62-.28-.62-.62s.28-.62.62-.62h10.91c.34,0,.62.28.62.62s-.28.62-.62.62Z"/>
      <path class="cls-1" d="M259.08,197.88h-10.91c-.34,0-.62-.28-.62-.62s.28-.62.62-.62h10.91c.34,0,.62.28.62.62s-.28.62-.62.62Z"/>
    </g>
    <g>
      <path class="cls-1" d="M238.67,169.65h-10.91c-.34,0-.62-.28-.62-.62s.28-.62.62-.62h10.91c.34,0,.62.28.62.62s-.28.62-.62.62Z"/>
      <path class="cls-1" d="M259.08,169.65h-10.91c-.34,0-.62-.28-.62-.62s.28-.62.62-.62h10.91c.34,0,.62.28.62.62s-.28.62-.62.62Z"/>
    </g>
  </g>
  <g>
    <rect class="cls-1" x="317.01" y="108.63" width="1.25" height="275.21"/>
    <g>
      <path class="cls-1" d="M312.81,141.41h-10.91c-.34,0-.62-.28-.62-.62s.28-.62.62-.62h10.91c.34,0,.62.28.62.62s-.28.62-.62.62Z"/>
      <path class="cls-1" d="M333.22,141.41h-10.91c-.34,0-.62-.28-.62-.62s.28-.62.62-.62h10.91c.34,0,.62.28.62.62s-.28.62-.62.62Z"/>
    </g>
    <g>
      <path class="cls-1" d="M312.81,367.31h-10.91c-.34,0-.62-.28-.62-.62s.28-.62.62-.62h10.91c.34,0,.62.28.62.62s-.28.62-.62.62Z"/>
      <path class="cls-1" d="M333.22,367.31h-10.91c-.34,0-.62-.28-.62-.62s.28-.62.62-.62h10.91c.34,0,.62.28.62.62s-.28.62-.62.62Z"/>
    </g>
    <g>
      <path class="cls-1" d="M312.81,339.07h-10.91c-.34,0-.62-.28-.62-.62s.28-.62.62-.62h10.91c.34,0,.62.28.62.62s-.28.62-.62.62Z"/>
      <path class="cls-1" d="M333.22,339.07h-10.91c-.34,0-.62-.28-.62-.62s.28-.62.62-.62h10.91c.34,0,.62.28.62.62s-.28.62-.62.62Z"/>
    </g>
    <g>
      <path class="cls-1" d="M312.81,310.83h-10.91c-.34,0-.62-.28-.62-.62s.28-.62.62-.62h10.91c.34,0,.62.28.62.62s-.28.62-.62.62Z"/>
      <path class="cls-1" d="M333.22,310.83h-10.91c-.34,0-.62-.28-.62-.62s.28-.62.62-.62h10.91c.34,0,.62.28.62.62s-.28.62-.62.62Z"/>
    </g>
    <g>
      <path class="cls-1" d="M312.81,282.6h-10.91c-.34,0-.62-.28-.62-.62s.28-.62.62-.62h10.91c.34,0,.62.28.62.62s-.28.62-.62.62Z"/>
      <path class="cls-1" d="M333.22,282.6h-10.91c-.34,0-.62-.28-.62-.62s.28-.62.62-.62h10.91c.34,0,.62.28.62.62s-.28.62-.62.62Z"/>
    </g>
    <g>
      <path class="cls-1" d="M312.81,254.36h-10.91c-.34,0-.62-.28-.62-.62s.28-.62.62-.62h10.91c.34,0,.62.28.62.62s-.28.62-.62.62Z"/>
      <path class="cls-1" d="M333.22,254.36h-10.91c-.34,0-.62-.28-.62-.62s.28-.62.62-.62h10.91c.34,0,.62.28.62.62s-.28.62-.62.62Z"/>
    </g>
    <g>
      <path class="cls-1" d="M312.81,226.12h-10.91c-.34,0-.62-.28-.62-.62s.28-.62.62-.62h10.91c.34,0,.62.28.62.62s-.28.62-.62.62Z"/>
      <path class="cls-1" d="M333.22,226.12h-10.91c-.34,0-.62-.28-.62-.62s.28-.62.62-.62h10.91c.34,0,.62.28.62.62s-.28.62-.62.62Z"/>
    </g>
    <g>
      <path class="cls-1" d="M312.81,197.88h-10.91c-.34,0-.62-.28-.62-.62s.28-.62.62-.62h10.91c.34,0,.62.28.62.62s-.28.62-.62.62Z"/>
      <path class="cls-1" d="M333.22,197.88h-10.91c-.34,0-.62-.28-.62-.62s.28-.62.62-.62h10.91c.34,0,.62.28.62.62s-.28.62-.62.62Z"/>
    </g>
    <g>
      <path class="cls-1" d="M312.81,169.65h-10.91c-.34,0-.62-.28-.62-.62s.28-.62.62-.62h10.91c.34,0,.62.28.62.62s-.28.62-.62.62Z"/>
      <path class="cls-1" d="M333.22,169.65h-10.91c-.34,0-.62-.28-.62-.62s.28-.62.62-.62h10.91c.34,0,.62.28.62.62s-.28.62-.62.62Z"/>
    </g>
  </g>
  <g>
    <rect class="cls-1" x="386.71" y="108.63" width="1.25" height="275.21"/>
    <g>
      <path class="cls-1" d="M382.51,141.41h-10.91c-.35,0-.62-.28-.62-.62s.28-.62.62-.62h10.91c.35,0,.62.28.62.62s-.28.62-.62.62Z"/>
      <path class="cls-1" d="M402.92,141.41h-10.91c-.35,0-.62-.28-.62-.62s.28-.62.62-.62h10.91c.35,0,.62.28.62.62s-.28.62-.62.62Z"/>
    </g>
    <g>
      <path class="cls-1" d="M382.51,367.31h-10.91c-.35,0-.62-.28-.62-.62s.28-.62.62-.62h10.91c.35,0,.62.28.62.62s-.28.62-.62.62Z"/>
      <path class="cls-1" d="M402.92,367.31h-10.91c-.35,0-.62-.28-.62-.62s.28-.62.62-.62h10.91c.35,0,.62.28.62.62s-.28.62-.62.62Z"/>
    </g>
    <g>
      <path class="cls-1" d="M382.51,339.07h-10.91c-.35,0-.62-.28-.62-.62s.28-.62.62-.62h10.91c.35,0,.62.28.62.62s-.28.62-.62.62Z"/>
      <path class="cls-1" d="M402.92,339.07h-10.91c-.35,0-.62-.28-.62-.62s.28-.62.62-.62h10.91c.35,0,.62.28.62.62s-.28.62-.62.62Z"/>
    </g>
    <g>
      <path class="cls-1" d="M382.51,310.83h-10.91c-.35,0-.62-.28-.62-.62s.28-.62.62-.62h10.91c.35,0,.62.28.62.62s-.28.62-.62.62Z"/>
      <path class="cls-1" d="M402.92,310.83h-10.91c-.35,0-.62-.28-.62-.62s.28-.62.62-.62h10.91c.35,0,.62.28.62.62s-.28.62-.62.62Z"/>
    </g>
    <g>
      <path class="cls-1" d="M382.51,282.6h-10.91c-.35,0-.62-.28-.62-.62s.28-.62.62-.62h10.91c.35,0,.62.28.62.62s-.28.62-.62.62Z"/>
      <path class="cls-1" d="M402.92,282.6h-10.91c-.35,0-.62-.28-.62-.62s.28-.62.62-.62h10.91c.35,0,.62.28.62.62s-.28.62-.62.62Z"/>
    </g>
    <g>
      <path class="cls-1" d="M382.51,254.36h-10.91c-.35,0-.62-.28-.62-.62s.28-.62.62-.62h10.91c.35,0,.62.28.62.62s-.28.62-.62.62Z"/>
      <path class="cls-1" d="M402.92,254.36h-10.91c-.35,0-.62-.28-.62-.62s.28-.62.62-.62h10.91c.35,0,.62.28.62.62s-.28.62-.62.62Z"/>
    </g>
    <g>
      <path class="cls-1" d="M382.51,226.12h-10.91c-.35,0-.62-.28-.62-.62s.28-.62.62-.62h10.91c.35,0,.62.28.62.62s-.28.62-.62.62Z"/>
      <path class="cls-1" d="M402.92,226.12h-10.91c-.35,0-.62-.28-.62-.62s.28-.62.62-.62h10.91c.35,0,.62.28.62.62s-.28.62-.62.62Z"/>
    </g>
    <g>
      <path class="cls-1" d="M382.51,197.88h-10.91c-.35,0-.62-.28-.62-.62s.28-.62.62-.62h10.91c.35,0,.62.28.62.62s-.28.62-.62.62Z"/>
      <path class="cls-1" d="M402.92,197.88h-10.91c-.35,0-.62-.28-.62-.62s.28-.62.62-.62h10.91c.35,0,.62.28.62.62s-.28.62-.62.62Z"/>
    </g>
    <g>
      <path class="cls-1" d="M382.51,169.65h-10.91c-.35,0-.62-.28-.62-.62s.28-.62.62-.62h10.91c.35,0,.62.28.62.62s-.28.62-.62.62Z"/>
      <path class="cls-1" d="M402.92,169.65h-10.91c-.35,0-.62-.28-.62-.62s.28-.62.62-.62h10.91c.35,0,.62.28.62.62s-.28.62-.62.62Z"/>
    </g>
  </g>
  <g>
    <rect class="cls-1" x="461.3" y="108.63" width="1.25" height="275.21"/>
    <g>
      <path class="cls-1" d="M457.1,141.41h-10.91c-.35,0-.62-.28-.62-.62s.28-.62.62-.62h10.91c.35,0,.62.28.62.62s-.28.62-.62.62Z"/>
      <path class="cls-1" d="M477.51,141.41h-10.91c-.35,0-.62-.28-.62-.62s.28-.62.62-.62h10.91c.35,0,.62.28.62.62s-.28.62-.62.62Z"/>
    </g>
    <g>
      <path class="cls-1" d="M457.1,367.31h-10.91c-.35,0-.62-.28-.62-.62s.28-.62.62-.62h10.91c.35,0,.62.28.62.62s-.28.62-.62.62Z"/>
      <path class="cls-1" d="M477.51,367.31h-10.91c-.35,0-.62-.28-.62-.62s.28-.62.62-.62h10.91c.35,0,.62.28.62.62s-.28.62-.62.62Z"/>
    </g>
    <g>
      <path class="cls-1" d="M457.1,339.07h-10.91c-.35,0-.62-.28-.62-.62s.28-.62.62-.62h10.91c.35,0,.62.28.62.62s-.28.62-.62.62Z"/>
      <path class="cls-1" d="M477.51,339.07h-10.91c-.35,0-.62-.28-.62-.62s.28-.62.62-.62h10.91c.35,0,.62.28.62.62s-.28.62-.62.62Z"/>
    </g>
    <g>
      <path class="cls-1" d="M457.1,310.83h-10.91c-.35,0-.62-.28-.62-.62s.28-.62.62-.62h10.91c.35,0,.62.28.62.62s-.28.62-.62.62Z"/>
      <path class="cls-1" d="M477.51,310.83h-10.91c-.35,0-.62-.28-.62-.62s.28-.62.62-.62h10.91c.35,0,.62.28.62.62s-.28.62-.62.62Z"/>
    </g>
    <g>
      <path class="cls-1" d="M457.1,282.6h-10.91c-.35,0-.62-.28-.62-.62s.28-.62.62-.62h10.91c.35,0,.62.28.62.62s-.28.62-.62.62Z"/>
      <path class="cls-1" d="M477.51,282.6h-10.91c-.35,0-.62-.28-.62-.62s.28-.62.62-.62h10.91c.35,0,.62.28.62.62s-.28.62-.62.62Z"/>
    </g>
    <g>
      <path class="cls-1" d="M457.1,254.36h-10.91c-.35,0-.62-.28-.62-.62s.28-.62.62-.62h10.91c.35,0,.62.28.62.62s-.28.62-.62.62Z"/>
      <path class="cls-1" d="M477.51,254.36h-10.91c-.35,0-.62-.28-.62-.62s.28-.62.62-.62h10.91c.35,0,.62.28.62.62s-.28.62-.62.62Z"/>
    </g>
    <g>
      <path class="cls-1" d="M457.1,226.12h-10.91c-.35,0-.62-.28-.62-.62s.28-.62.62-.62h10.91c.35,0,.62.28.62.62s-.28.62-.62.62Z"/>
      <path class="cls-1" d="M477.51,226.12h-10.91c-.35,0-.62-.28-.62-.62s.28-.62.62-.62h10.91c.35,0,.62.28.62.62s-.28.62-.62.62Z"/>
    </g>
    <g>
      <path class="cls-1" d="M457.1,197.88h-10.91c-.35,0-.62-.28-.62-.62s.28-.62.62-.62h10.91c.35,0,.62.28.62.62s-.28.62-.62.62Z"/>
      <path class="cls-1" d="M477.51,197.88h-10.91c-.35,0-.62-.28-.62-.62s.28-.62.62-.62h10.91c.35,0,.62.28.62.62s-.28.62-.62.62Z"/>
    </g>
    <g>
      <path class="cls-1" d="M457.1,169.65h-10.91c-.35,0-.62-.28-.62-.62s.28-.62.62-.62h10.91c.35,0,.62.28.62.62s-.28.62-.62.62Z"/>
      <path class="cls-1" d="M477.51,169.65h-10.91c-.35,0-.62-.28-.62-.62s.28-.62.62-.62h10.91c.35,0,.62.28.62.62s-.28.62-.62.62Z"/>
    </g>
  </g>
  <g>
    <g class="cls-5">
      <path class="cls-1" d="M119.18,79.13c0,9.11-7.39,16.5-16.51,16.5-6.17,0-11.55-3.39-14.38-8.41,2.39,1.35,5.15,2.12,8.09,2.12,9.11,0,16.5-7.39,16.5-16.5,0-2.95-.77-5.71-2.12-8.11,5.03,2.83,8.42,8.22,8.42,14.4Z"/>
      <path class="cls-1" d="M102.67,95.95c-6.06,0-11.67-3.28-14.66-8.56l-.55-.98.98.55c2.41,1.36,5.15,2.08,7.94,2.08,8.93,0,16.19-7.26,16.19-16.19,0-2.79-.72-5.54-2.08-7.95l-.55-.98.98.55c5.29,2.98,8.58,8.6,8.58,14.67,0,9.27-7.55,16.82-16.82,16.82ZM89.13,88.02c2.98,4.53,8.07,7.3,13.53,7.3,8.93,0,16.2-7.26,16.2-16.19,0-5.47-2.78-10.56-7.31-13.55,1.08,2.26,1.64,4.74,1.64,7.26,0,9.27-7.54,16.82-16.82,16.82-2.51,0-4.99-.56-7.24-1.64Z"/>
    </g>
    <path class="cls-1" d="M96.33,89.53c-2.89,0-5.74-.75-8.25-2.16-5.29-2.98-8.57-8.59-8.57-14.66,0-9.27,7.55-16.82,16.82-16.82,6.06,0,11.67,3.28,14.65,8.56,1.42,2.51,2.16,5.37,2.16,8.26,0,9.27-7.54,16.82-16.82,16.82ZM96.33,56.52c-8.93,0-16.2,7.27-16.2,16.2,0,5.84,3.16,11.25,8.26,14.12,2.41,1.36,5.16,2.08,7.94,2.08,8.93,0,16.19-7.26,16.19-16.19,0-2.79-.72-5.54-2.08-7.95-2.87-5.08-8.28-8.24-14.11-8.24Z"/>
    <g>
      <path class="cls-1" d="M102.72,72.9c0-.88-.41-1.68-1.1-2.2.12-.86-.16-1.71-.77-2.33-.62-.62-1.47-.9-2.33-.77-.52-.69-1.32-1.1-2.2-1.1s-1.67.41-2.2,1.1c-.86-.12-1.71.16-2.33.77-.62.62-.9,1.47-.77,2.33-.69.52-1.1,1.32-1.1,2.2s.41,1.67,1.1,2.19c-.12.86.16,1.71.77,2.33.62.62,1.47.9,2.33.77.52.69,1.32,1.1,2.2,1.1s1.68-.41,2.2-1.1c.86.12,1.71-.16,2.33-.77.62-.62.9-1.47.77-2.33.69-.52,1.1-1.32,1.1-2.2ZM95.42,73.28c.02-.13.03-.25.03-.38s0-.25-.03-.38c.11-.08.2-.16.29-.24.09-.09.17-.18.25-.29.26.04.49.04.75,0,.08.11.16.2.24.29.09.09.18.17.29.25-.02.13-.03.25-.03.38s.01.25.03.38c-.11.08-.2.16-.29.24-.09.09-.17.18-.24.29-.13-.02-.25-.03-.38-.03s-.25,0-.38.03c-.08-.11-.16-.2-.24-.29s-.18-.17-.29-.24Z"/>
      <path class="cls-1" d="M96.32,79.62c-.91,0-1.75-.39-2.33-1.08-.9.07-1.77-.24-2.42-.88-.64-.64-.96-1.51-.88-2.41-.69-.58-1.08-1.42-1.08-2.33s.39-1.75,1.08-2.33c-.08-.9.24-1.77.88-2.42s1.52-.96,2.42-.88c.58-.69,1.42-1.08,2.33-1.08s1.75.39,2.33,1.08c.9-.07,1.77.24,2.41.88.64.64.96,1.51.88,2.41.69.58,1.08,1.42,1.08,2.33s-.39,1.75-1.08,2.33c.08.9-.24,1.77-.88,2.41-.64.64-1.52.96-2.42.88-.58.69-1.42,1.08-2.33,1.08ZM94.27,77.87l.11.15c.47.62,1.17.98,1.95.98s1.48-.36,1.95-.98l.11-.15.18.03c.77.11,1.52-.14,2.07-.69.55-.55.8-1.3.69-2.07l-.03-.18.15-.11c.62-.47.98-1.17.98-1.95s-.36-1.48-.98-1.95l-.15-.11.03-.18c.11-.77-.14-1.52-.69-2.07-.54-.54-1.3-.79-2.07-.69l-.18.03-.11-.15c-.46-.62-1.17-.97-1.95-.97s-1.48.36-1.95.97l-.11.15-.18-.03c-.77-.11-1.52.14-2.07.69-.55.55-.8,1.3-.69,2.07l.03.18-.15.11c-.62.46-.97,1.17-.97,1.95s.36,1.48.97,1.94l.15.11-.03.18c-.11.77.14,1.52.69,2.07.55.55,1.3.8,2.07.69l.18-.03ZM96.84,74.15l-.19-.03c-.23-.04-.43-.04-.66,0l-.19.03-.11-.15c-.07-.09-.14-.18-.21-.25-.08-.07-.16-.15-.25-.21l-.15-.11.03-.19c.02-.11.03-.22.03-.33s0-.21-.03-.33l-.03-.19.15-.11c.09-.07.17-.14.25-.21.08-.08.15-.16.21-.25l.11-.15.19.03c.23.04.43.04.66,0l.19-.03.11.15c.07.09.14.17.21.25.08.08.16.15.25.21l.15.11-.03.19c-.02.11-.03.22-.03.33s0,.22.03.33l.03.19-.15.11c-.09.07-.17.14-.25.21-.07.07-.15.16-.21.25l-.11.15ZM96.32,73.47c.08,0,.16,0,.24.01.05-.06.11-.12.16-.18s.11-.11.18-.16c0-.08-.01-.16-.01-.24s0-.16.01-.24c-.06-.05-.12-.11-.18-.16s-.11-.11-.16-.18c-.16.01-.32.01-.48,0-.05.06-.11.12-.16.18-.06.05-.11.11-.17.16,0,.08.01.16.01.24s0,.16-.01.24c.06.05.12.1.18.16s.11.11.16.18c.08,0,.16-.01.24-.01Z"/>
    </g>
  </g>
  <g>
    <g class="cls-5">
      <path class="cls-1" d="M192.19,79.13c0,9.11-7.39,16.5-16.51,16.5-6.17,0-11.55-3.39-14.38-8.41,2.39,1.35,5.15,2.12,8.09,2.12,9.11,0,16.5-7.39,16.5-16.5,0-2.95-.77-5.71-2.12-8.11,5.03,2.83,8.42,8.22,8.42,14.4Z"/>
      <path class="cls-1" d="M175.68,95.95c-6.06,0-11.67-3.28-14.66-8.56l-.55-.98.98.55c2.41,1.36,5.15,2.08,7.94,2.08,8.93,0,16.19-7.26,16.19-16.19,0-2.79-.72-5.54-2.08-7.95l-.55-.98.98.55c5.29,2.98,8.58,8.6,8.58,14.67,0,9.27-7.55,16.82-16.82,16.82ZM162.15,88.02c2.98,4.53,8.07,7.3,13.53,7.3,8.93,0,16.2-7.26,16.2-16.19,0-5.47-2.78-10.56-7.31-13.55,1.08,2.26,1.64,4.74,1.64,7.26,0,9.27-7.54,16.82-16.82,16.82-2.51,0-4.99-.56-7.24-1.64Z"/>
    </g>
    <path class="cls-1" d="M169.34,89.53c-2.89,0-5.74-.75-8.25-2.16-5.29-2.98-8.57-8.59-8.57-14.66,0-9.27,7.55-16.82,16.82-16.82,6.06,0,11.67,3.28,14.65,8.56,1.42,2.51,2.16,5.37,2.16,8.26,0,9.27-7.54,16.82-16.82,16.82ZM169.34,56.52c-8.93,0-16.2,7.27-16.2,16.2,0,5.84,3.16,11.25,8.26,14.12,2.41,1.36,5.16,2.08,7.94,2.08,8.93,0,16.19-7.26,16.19-16.19,0-2.79-.72-5.54-2.08-7.95-2.87-5.08-8.28-8.24-14.11-8.24Z"/>
    <g>
      <path class="cls-1" d="M175.74,72.9c0-.88-.41-1.68-1.1-2.2.12-.86-.16-1.71-.77-2.33-.62-.62-1.47-.9-2.33-.77-.52-.69-1.32-1.1-2.2-1.1s-1.67.41-2.2,1.1c-.86-.12-1.71.16-2.33.77-.62.62-.9,1.47-.77,2.33-.69.52-1.1,1.32-1.1,2.2s.41,1.67,1.1,2.19c-.12.86.16,1.71.77,2.33.62.62,1.47.9,2.33.77.52.69,1.32,1.1,2.2,1.1s1.68-.41,2.2-1.1c.86.12,1.71-.16,2.33-.77.62-.62.9-1.47.77-2.33.69-.52,1.1-1.32,1.1-2.2ZM168.43,73.28c.02-.13.03-.25.03-.38s0-.25-.03-.38c.11-.08.2-.16.29-.24.09-.09.17-.18.25-.29.26.04.49.04.75,0,.08.11.16.2.24.29.09.09.18.17.29.25-.02.13-.03.25-.03.38s.01.25.03.38c-.11.08-.2.16-.29.24-.09.09-.17.18-.24.29-.13-.02-.25-.03-.38-.03s-.25,0-.38.03c-.08-.11-.16-.2-.24-.29s-.18-.17-.29-.24Z"/>
      <path class="cls-1" d="M169.34,79.62c-.91,0-1.75-.39-2.33-1.08-.9.07-1.77-.24-2.42-.88-.64-.64-.96-1.51-.88-2.41-.69-.58-1.08-1.42-1.08-2.33s.39-1.75,1.08-2.33c-.08-.9.24-1.77.88-2.42s1.52-.96,2.42-.88c.58-.69,1.42-1.08,2.33-1.08s1.75.39,2.33,1.08c.91-.07,1.77.24,2.41.88.64.64.96,1.51.88,2.41.69.58,1.08,1.42,1.08,2.33s-.39,1.75-1.08,2.33c.08.9-.24,1.77-.88,2.41-.64.64-1.52.96-2.42.88-.58.69-1.42,1.08-2.33,1.08ZM167.28,77.87l.11.15c.47.62,1.17.98,1.95.98s1.48-.36,1.95-.98l.11-.15.18.03c.77.11,1.52-.14,2.07-.69s.8-1.3.69-2.07l-.03-.18.15-.11c.62-.47.98-1.17.98-1.95s-.36-1.48-.98-1.95l-.15-.11.03-.18c.11-.77-.14-1.52-.69-2.07-.54-.54-1.3-.79-2.07-.69l-.18.03-.11-.15c-.46-.62-1.17-.97-1.95-.97s-1.48.36-1.95.97l-.11.15-.18-.03c-.77-.11-1.52.14-2.07.69-.55.55-.8,1.3-.69,2.07l.03.18-.15.11c-.62.46-.97,1.17-.97,1.95s.36,1.48.97,1.94l.15.11-.03.18c-.11.77.14,1.52.69,2.07.55.55,1.3.8,2.07.69l.18-.03ZM169.86,74.15l-.19-.03c-.23-.04-.43-.04-.66,0l-.19.03-.11-.15c-.07-.09-.14-.18-.21-.25-.08-.07-.16-.15-.25-.21l-.15-.11.03-.19c.02-.11.03-.22.03-.33s0-.21-.03-.33l-.03-.19.15-.11c.09-.07.17-.14.25-.21.08-.08.15-.16.21-.25l.11-.15.19.03c.23.04.43.04.66,0l.19-.03.11.15c.07.09.14.17.21.25s.16.15.25.21l.15.11-.03.19c-.02.11-.03.22-.03.33s0,.22.03.33l.03.19-.15.11c-.09.07-.17.14-.25.21-.07.07-.15.16-.21.25l-.11.15ZM169.34,73.47c.08,0,.16,0,.24.01.05-.06.11-.12.16-.18s.11-.11.18-.16c0-.08-.01-.16-.01-.24s0-.16.01-.24c-.06-.05-.12-.11-.18-.16s-.11-.11-.16-.18c-.16.01-.32.01-.48,0-.05.06-.11.12-.16.18-.06.05-.11.11-.17.16,0,.08.01.16.01.24s0,.16-.01.24c.06.05.12.1.18.16s.11.11.16.18c.08,0,.16-.01.24-.01Z"/>
    </g>
  </g>
  <g>
    <g class="cls-5">
      <path class="cls-1" d="M266.29,79.13c0,9.11-7.39,16.5-16.51,16.5-6.17,0-11.55-3.39-14.38-8.41,2.39,1.35,5.15,2.12,8.09,2.12,9.11,0,16.5-7.39,16.5-16.5,0-2.95-.77-5.71-2.12-8.11,5.03,2.83,8.42,8.22,8.42,14.4Z"/>
      <path class="cls-1" d="M249.78,95.95c-6.06,0-11.67-3.28-14.66-8.56l-.55-.98.98.55c2.41,1.36,5.15,2.08,7.94,2.08,8.93,0,16.19-7.26,16.19-16.19,0-2.79-.72-5.54-2.08-7.95l-.55-.98.98.55c5.29,2.98,8.58,8.6,8.58,14.67,0,9.27-7.55,16.82-16.82,16.82ZM236.25,88.02c2.98,4.53,8.07,7.3,13.53,7.3,8.93,0,16.2-7.26,16.2-16.19,0-5.47-2.78-10.56-7.31-13.55,1.08,2.26,1.64,4.74,1.64,7.26,0,9.27-7.54,16.82-16.82,16.82-2.51,0-4.99-.56-7.24-1.64Z"/>
    </g>
    <path class="cls-1" d="M243.44,89.53c-2.89,0-5.74-.75-8.25-2.16-5.29-2.98-8.57-8.59-8.57-14.66,0-9.27,7.55-16.82,16.82-16.82,6.06,0,11.67,3.28,14.65,8.56,1.42,2.51,2.16,5.37,2.16,8.26,0,9.27-7.54,16.82-16.82,16.82ZM243.44,56.52c-8.93,0-16.2,7.27-16.2,16.2,0,5.84,3.16,11.25,8.26,14.12,2.41,1.36,5.16,2.08,7.94,2.08,8.93,0,16.19-7.26,16.19-16.19,0-2.79-.72-5.54-2.08-7.95-2.87-5.08-8.28-8.24-14.11-8.24Z"/>
    <g>
      <path class="cls-1" d="M249.84,72.9c0-.88-.41-1.68-1.1-2.2.12-.86-.16-1.71-.77-2.33-.62-.62-1.47-.9-2.33-.77-.52-.69-1.32-1.1-2.2-1.1s-1.67.41-2.2,1.1c-.86-.12-1.71.16-2.33.77-.62.62-.9,1.47-.77,2.33-.69.52-1.1,1.32-1.1,2.2s.41,1.67,1.1,2.19c-.12.86.16,1.71.77,2.33.62.62,1.47.9,2.33.77.52.69,1.32,1.1,2.2,1.1s1.68-.41,2.2-1.1c.86.12,1.71-.16,2.33-.77.62-.62.9-1.47.77-2.33.69-.52,1.1-1.32,1.1-2.2ZM242.53,73.28c.02-.13.03-.25.03-.38s0-.25-.03-.38c.11-.08.2-.16.29-.24.09-.09.17-.18.25-.29.26.04.49.04.75,0,.08.11.16.2.24.29.09.09.18.17.29.25-.02.13-.03.25-.03.38s.01.25.03.38c-.11.08-.2.16-.29.24-.09.09-.17.18-.24.29-.13-.02-.25-.03-.38-.03s-.25,0-.38.03c-.08-.11-.16-.2-.24-.29s-.18-.17-.29-.24Z"/>
      <path class="cls-1" d="M243.44,79.62c-.91,0-1.75-.39-2.33-1.08-.9.07-1.77-.24-2.42-.88-.64-.64-.96-1.51-.88-2.41-.69-.58-1.08-1.42-1.08-2.33s.39-1.75,1.08-2.33c-.08-.9.24-1.77.88-2.42s1.51-.96,2.42-.88c.58-.69,1.42-1.08,2.33-1.08s1.75.39,2.33,1.08c.9-.07,1.77.24,2.41.88.64.64.96,1.51.88,2.41.69.58,1.08,1.42,1.08,2.33s-.39,1.75-1.08,2.33c.08.9-.24,1.77-.88,2.41-.64.64-1.52.96-2.42.88-.58.69-1.42,1.08-2.33,1.08ZM241.38,77.87l.11.15c.47.62,1.17.98,1.95.98s1.48-.36,1.95-.98l.11-.15.18.03c.77.11,1.52-.14,2.07-.69s.8-1.3.69-2.07l-.03-.18.15-.11c.62-.47.98-1.17.98-1.95s-.36-1.48-.98-1.95l-.15-.11.03-.18c.11-.77-.14-1.52-.69-2.07-.54-.55-1.3-.79-2.07-.69l-.18.03-.11-.15c-.46-.62-1.17-.97-1.95-.97s-1.48.36-1.95.98l-.11.15-.18-.03c-.77-.11-1.52.14-2.07.69-.55.55-.8,1.3-.69,2.07l.03.18-.15.11c-.62.46-.97,1.17-.97,1.95s.36,1.48.97,1.94l.15.11-.03.18c-.11.77.14,1.52.69,2.07s1.3.8,2.07.69l.18-.03ZM243.95,74.15l-.19-.03c-.23-.04-.43-.04-.66,0l-.19.03-.11-.15c-.07-.09-.14-.18-.21-.25-.08-.07-.16-.15-.25-.21l-.15-.11.03-.19c.02-.11.03-.22.03-.33s0-.21-.03-.33l-.03-.19.15-.11c.09-.07.17-.14.25-.21.08-.08.15-.16.21-.25l.11-.15.19.03c.23.04.43.04.66,0l.19-.03.11.15c.07.09.14.17.21.25.08.08.16.15.25.21l.15.11-.03.19c-.02.11-.03.22-.03.33s0,.22.03.33l.03.19-.15.11c-.09.07-.17.14-.25.21-.07.07-.15.16-.21.25l-.11.15ZM243.44,73.47c.08,0,.16,0,.24.01.05-.06.11-.12.16-.18s.11-.11.18-.16c0-.08-.01-.16-.01-.24s0-.16.01-.24c-.06-.05-.12-.11-.18-.16s-.11-.11-.16-.18c-.16.01-.32.01-.48,0-.05.06-.11.12-.16.18-.06.05-.11.11-.17.16,0,.08.01.16.01.24s0,.16-.01.24c.06.05.12.1.18.16s.11.11.16.18c.08,0,.16-.01.24-.01Z"/>
    </g>
  </g>
  <g>
    <g class="cls-5">
      <path class="cls-1" d="M339.3,79.13c0,9.11-7.39,16.5-16.51,16.5-6.17,0-11.55-3.39-14.38-8.41,2.39,1.35,5.15,2.12,8.09,2.12,9.11,0,16.5-7.39,16.5-16.5,0-2.95-.77-5.71-2.12-8.11,5.03,2.83,8.42,8.22,8.42,14.4Z"/>
      <path class="cls-1" d="M322.79,95.95c-6.06,0-11.67-3.28-14.66-8.56l-.55-.98.98.55c2.41,1.36,5.15,2.08,7.94,2.08,8.93,0,16.19-7.26,16.19-16.19,0-2.79-.72-5.54-2.08-7.95l-.55-.98.98.55c5.29,2.98,8.58,8.6,8.58,14.67,0,9.27-7.55,16.82-16.82,16.82ZM309.26,88.02c2.98,4.53,8.07,7.3,13.53,7.3,8.93,0,16.2-7.26,16.2-16.19,0-5.47-2.78-10.56-7.31-13.55,1.08,2.26,1.64,4.74,1.64,7.26,0,9.27-7.54,16.82-16.82,16.82-2.51,0-4.99-.56-7.24-1.64Z"/>
    </g>
    <path class="cls-1" d="M316.45,89.53c-2.89,0-5.74-.75-8.25-2.16-5.29-2.98-8.57-8.59-8.57-14.66,0-9.27,7.55-16.82,16.82-16.82,6.06,0,11.67,3.28,14.65,8.56,1.42,2.51,2.16,5.37,2.16,8.26,0,9.27-7.54,16.82-16.82,16.82ZM316.45,56.52c-8.93,0-16.2,7.27-16.2,16.2,0,5.84,3.16,11.25,8.26,14.12,2.41,1.36,5.16,2.08,7.94,2.08,8.93,0,16.19-7.26,16.19-16.19,0-2.79-.72-5.54-2.08-7.95-2.87-5.08-8.28-8.24-14.11-8.24Z"/>
    <g>
      <path class="cls-1" d="M322.85,72.9c0-.88-.41-1.68-1.1-2.2.12-.86-.16-1.71-.77-2.33-.62-.62-1.47-.9-2.33-.77-.52-.69-1.32-1.1-2.2-1.1s-1.67.41-2.2,1.1c-.86-.12-1.71.16-2.33.77-.62.62-.9,1.47-.77,2.33-.69.52-1.1,1.32-1.1,2.2s.41,1.67,1.1,2.19c-.12.86.16,1.71.77,2.33.62.62,1.47.9,2.33.77.52.69,1.32,1.1,2.2,1.1s1.68-.41,2.2-1.1c.86.12,1.71-.16,2.33-.77.62-.62.9-1.47.77-2.33.69-.52,1.1-1.32,1.1-2.2ZM315.54,73.28c.02-.13.03-.25.03-.38s0-.25-.03-.38c.11-.08.2-.16.29-.24.09-.09.17-.18.25-.29.26.04.49.04.75,0,.08.11.16.2.24.29.09.09.18.17.29.25-.02.13-.03.25-.03.38s.01.25.03.38c-.11.08-.2.16-.29.24-.09.09-.17.18-.24.29-.13-.02-.25-.03-.38-.03s-.25,0-.38.03c-.08-.11-.16-.2-.24-.29s-.18-.17-.29-.24Z"/>
      <path class="cls-1" d="M316.45,79.62c-.91,0-1.75-.39-2.33-1.08-.9.07-1.77-.24-2.42-.88-.64-.64-.96-1.51-.88-2.41-.69-.58-1.08-1.42-1.08-2.33s.39-1.75,1.08-2.33c-.08-.9.24-1.77.88-2.42.64-.64,1.52-.96,2.42-.88.58-.69,1.42-1.08,2.33-1.08s1.75.39,2.33,1.08c.9-.07,1.77.24,2.41.88.64.64.96,1.51.88,2.41.69.58,1.08,1.42,1.08,2.33s-.39,1.75-1.08,2.33c.08.9-.24,1.77-.88,2.41-.64.64-1.52.96-2.42.88-.58.69-1.42,1.08-2.33,1.08ZM314.39,77.87l.11.15c.47.62,1.17.98,1.95.98s1.48-.36,1.95-.98l.11-.15.18.03c.77.11,1.52-.14,2.07-.69.55-.55.8-1.3.69-2.07l-.03-.18.15-.11c.62-.47.98-1.17.98-1.95s-.36-1.48-.98-1.95l-.15-.11.03-.18c.11-.77-.14-1.52-.69-2.07-.54-.54-1.3-.79-2.07-.69l-.18.03-.11-.15c-.46-.62-1.17-.97-1.95-.97s-1.48.36-1.95.97l-.11.15-.18-.03c-.77-.11-1.52.14-2.07.69-.55.55-.8,1.3-.69,2.07l.03.18-.15.11c-.62.46-.97,1.17-.97,1.95s.36,1.48.97,1.94l.15.11-.03.18c-.11.77.14,1.52.69,2.07s1.3.8,2.07.69l.18-.03ZM316.96,74.15l-.19-.03c-.23-.04-.43-.04-.66,0l-.19.03-.11-.15c-.07-.09-.14-.18-.21-.25-.08-.07-.16-.15-.25-.21l-.15-.11.03-.19c.02-.11.03-.22.03-.33s0-.21-.03-.33l-.03-.19.15-.11c.09-.07.17-.14.25-.21.08-.08.15-.16.21-.25l.11-.15.19.03c.23.04.43.04.66,0l.19-.03.11.15c.07.09.14.17.21.25s.16.15.25.21l.15.11-.03.19c-.02.11-.03.22-.03.33s0,.22.03.33l.03.19-.15.11c-.09.07-.17.14-.25.21-.07.07-.15.16-.21.25l-.11.15ZM316.45,73.47c.08,0,.16,0,.24.01.05-.06.11-.12.16-.18.06-.06.11-.11.18-.16,0-.08-.01-.16-.01-.24s0-.16.01-.24c-.06-.05-.12-.11-.18-.16s-.11-.11-.16-.18c-.16.01-.32.01-.48,0-.05.06-.11.12-.16.18-.06.05-.11.11-.17.16,0,.08.01.16.01.24s0,.16-.01.24c.06.05.12.1.18.16s.11.11.16.18c.08,0,.16-.01.24-.01Z"/>
    </g>
  </g>
  <g>
    <g class="cls-5">
      <path class="cls-1" d="M409.99,79.13c0,9.11-7.39,16.5-16.51,16.5-6.17,0-11.55-3.39-14.38-8.41,2.39,1.35,5.15,2.12,8.09,2.12,9.11,0,16.5-7.39,16.5-16.5,0-2.95-.77-5.71-2.12-8.11,5.03,2.83,8.42,8.22,8.42,14.4Z"/>
      <path class="cls-1" d="M393.48,95.95c-6.06,0-11.67-3.28-14.66-8.56l-.55-.98.98.55c2.41,1.36,5.15,2.08,7.94,2.08,8.93,0,16.19-7.26,16.19-16.19,0-2.79-.72-5.54-2.08-7.95l-.55-.98.98.55c5.29,2.98,8.58,8.6,8.58,14.67,0,9.27-7.55,16.82-16.82,16.82ZM379.95,88.02c2.98,4.53,8.07,7.3,13.53,7.3,8.93,0,16.2-7.26,16.2-16.19,0-5.47-2.78-10.56-7.31-13.55,1.08,2.26,1.64,4.74,1.64,7.26,0,9.27-7.54,16.82-16.82,16.82-2.51,0-4.99-.56-7.24-1.64Z"/>
    </g>
    <path class="cls-1" d="M387.14,89.53c-2.89,0-5.74-.75-8.25-2.16-5.29-2.98-8.57-8.59-8.57-14.66,0-9.27,7.55-16.82,16.82-16.82,6.06,0,11.67,3.28,14.65,8.56,1.42,2.51,2.16,5.36,2.16,8.26,0,9.27-7.54,16.82-16.82,16.82ZM387.14,56.52c-8.93,0-16.2,7.27-16.2,16.2,0,5.84,3.16,11.25,8.26,14.12,2.41,1.36,5.16,2.08,7.94,2.08,8.93,0,16.19-7.26,16.19-16.19,0-2.79-.72-5.54-2.08-7.95-2.87-5.08-8.28-8.24-14.11-8.24Z"/>
    <g>
      <path class="cls-1" d="M393.54,72.9c0-.88-.41-1.68-1.1-2.2.12-.86-.16-1.71-.77-2.33-.62-.62-1.47-.9-2.33-.77-.52-.69-1.32-1.1-2.2-1.1s-1.67.41-2.2,1.1c-.86-.12-1.71.16-2.33.77-.62.62-.9,1.47-.77,2.33-.69.52-1.1,1.32-1.1,2.2s.41,1.67,1.1,2.19c-.12.86.16,1.71.77,2.33.62.62,1.47.9,2.33.77.52.69,1.32,1.1,2.2,1.1s1.68-.41,2.2-1.1c.86.12,1.71-.16,2.33-.77.62-.62.9-1.47.77-2.33.69-.52,1.1-1.32,1.1-2.2ZM386.23,73.28c.02-.13.03-.25.03-.38s0-.25-.03-.38c.11-.08.2-.16.29-.24.09-.09.17-.18.25-.29.26.04.49.04.75,0,.08.11.16.2.24.29.09.09.18.17.29.25-.02.13-.03.25-.03.38s.01.25.03.38c-.11.08-.2.16-.29.24-.09.09-.17.18-.24.29-.13-.02-.25-.03-.38-.03s-.25,0-.38.03c-.08-.11-.16-.2-.24-.29s-.18-.17-.29-.24Z"/>
      <path class="cls-1" d="M387.14,79.62c-.91,0-1.75-.39-2.33-1.08-.9.08-1.77-.24-2.41-.88-.64-.64-.96-1.51-.88-2.41-.69-.58-1.08-1.42-1.08-2.33s.39-1.75,1.08-2.33c-.08-.9.24-1.77.88-2.42s1.52-.96,2.41-.88c.58-.69,1.42-1.08,2.33-1.08s1.75.39,2.33,1.08c.9-.08,1.77.24,2.41.88.64.64.96,1.51.88,2.41.69.58,1.08,1.42,1.08,2.33s-.39,1.75-1.08,2.33c.08.9-.24,1.77-.88,2.41-.64.64-1.51.96-2.42.88-.58.69-1.42,1.08-2.33,1.08ZM385.08,77.87l.11.15c.46.62,1.17.98,1.95.98s1.48-.36,1.95-.98l.11-.15.18.03c.77.11,1.52-.14,2.07-.69.55-.55.8-1.3.69-2.07l-.03-.18.15-.11c.62-.47.97-1.17.97-1.95s-.36-1.48-.98-1.95l-.15-.11.03-.18c.11-.77-.14-1.52-.69-2.06-.55-.54-1.3-.8-2.07-.69l-.18.03-.11-.15c-.46-.62-1.17-.97-1.95-.97s-1.48.36-1.95.98l-.11.15-.18-.03c-.77-.11-1.52.14-2.07.69-.55.55-.8,1.3-.69,2.07l.03.18-.15.11c-.62.46-.97,1.17-.97,1.95s.35,1.48.97,1.94l.15.11-.03.18c-.11.77.14,1.52.69,2.07.55.55,1.3.79,2.07.69l.18-.03ZM387.65,74.15l-.19-.03c-.23-.04-.43-.04-.66,0l-.19.03-.11-.15c-.07-.09-.14-.18-.21-.25-.07-.07-.16-.15-.25-.21l-.15-.11.03-.19c.02-.11.03-.22.03-.33s0-.21-.03-.33l-.03-.19.15-.11c.09-.07.17-.14.25-.21.08-.08.15-.16.21-.25l.11-.15.19.03c.23.04.43.04.66,0l.19-.03.11.15c.07.09.14.17.21.25.08.08.16.15.25.22l.15.11-.03.19c-.02.11-.03.22-.03.33s0,.22.03.33l.03.19-.15.11c-.09.07-.17.14-.25.21-.07.07-.14.16-.21.25l-.11.16ZM387.14,73.47c.08,0,.16,0,.24.01.05-.06.1-.12.16-.18.06-.06.12-.11.18-.16,0-.08-.01-.16-.01-.24s0-.16.01-.24c-.06-.05-.12-.11-.18-.16-.06-.05-.11-.11-.16-.17-.16.01-.32.01-.48,0-.05.06-.11.12-.16.18s-.11.11-.17.16c0,.08.01.16.01.24s0,.16-.01.24c.06.05.12.11.18.16s.11.11.16.18c.08,0,.16-.01.24-.01Z"/>
    </g>
  </g>
  <g>
    <g class="cls-5">
      <path class="cls-1" d="M482.64,79.13c0,9.11-7.39,16.5-16.51,16.5-6.17,0-11.55-3.39-14.38-8.41,2.39,1.35,5.15,2.12,8.09,2.12,9.11,0,16.5-7.39,16.5-16.5,0-2.95-.77-5.71-2.12-8.11,5.03,2.83,8.42,8.22,8.42,14.4Z"/>
      <path class="cls-1" d="M466.13,95.95c-6.06,0-11.67-3.28-14.66-8.56l-.55-.98.98.55c2.41,1.36,5.15,2.08,7.94,2.08,8.93,0,16.19-7.26,16.19-16.19,0-2.79-.72-5.54-2.08-7.95l-.55-.98.98.55c5.29,2.98,8.58,8.6,8.58,14.67,0,9.27-7.55,16.82-16.82,16.82ZM452.6,88.02c2.98,4.53,8.07,7.3,13.53,7.3,8.93,0,16.2-7.26,16.2-16.19,0-5.47-2.78-10.56-7.31-13.55,1.08,2.25,1.64,4.74,1.64,7.26,0,9.27-7.54,16.82-16.82,16.82-2.51,0-4.99-.56-7.24-1.64Z"/>
    </g>
    <path class="cls-1" d="M459.79,89.53c-2.89,0-5.74-.75-8.25-2.16-5.29-2.98-8.57-8.59-8.57-14.66,0-9.27,7.55-16.82,16.82-16.82,6.06,0,11.67,3.28,14.65,8.56,1.42,2.51,2.16,5.37,2.16,8.26,0,9.27-7.54,16.82-16.82,16.82ZM459.79,56.52c-8.93,0-16.2,7.27-16.2,16.2,0,5.84,3.16,11.25,8.26,14.12,2.41,1.36,5.16,2.08,7.94,2.08,8.93,0,16.19-7.26,16.19-16.19,0-2.79-.72-5.54-2.08-7.95-2.87-5.08-8.27-8.24-14.11-8.24Z"/>
    <g>
      <path class="cls-1" d="M466.19,72.9c0-.88-.41-1.68-1.1-2.2.12-.86-.16-1.71-.77-2.33-.62-.62-1.47-.9-2.33-.77-.52-.69-1.32-1.1-2.2-1.1s-1.67.41-2.2,1.1c-.86-.12-1.71.16-2.33.77-.62.62-.9,1.47-.77,2.33-.69.52-1.1,1.32-1.1,2.2s.41,1.67,1.1,2.19c-.12.86.16,1.71.77,2.33.62.62,1.47.9,2.33.77.52.69,1.32,1.1,2.2,1.1s1.68-.41,2.2-1.1c.86.12,1.71-.16,2.33-.77.62-.62.9-1.47.77-2.33.69-.52,1.1-1.32,1.1-2.2ZM458.88,73.28c.02-.13.03-.25.03-.38s0-.25-.03-.38c.11-.08.2-.16.29-.24.09-.09.17-.18.25-.29.26.04.49.04.75,0,.08.11.16.2.24.29.09.09.18.17.29.25-.02.13-.03.25-.03.38s.01.25.03.38c-.11.08-.2.16-.29.24-.09.09-.17.18-.24.29-.13-.02-.25-.03-.38-.03s-.25,0-.38.03c-.08-.11-.16-.2-.24-.29s-.18-.17-.29-.24Z"/>
      <path class="cls-1" d="M459.79,79.62c-.91,0-1.75-.39-2.33-1.08-.9.07-1.77-.24-2.41-.88-.64-.64-.96-1.51-.88-2.41-.69-.58-1.08-1.42-1.08-2.33s.39-1.75,1.08-2.33c-.08-.9.24-1.77.88-2.42.64-.64,1.52-.96,2.42-.88.58-.69,1.42-1.08,2.33-1.08s1.75.39,2.33,1.08c.91-.08,1.77.24,2.41.88.64.64.96,1.51.88,2.41.69.58,1.08,1.42,1.08,2.33s-.39,1.75-1.08,2.33c.08.9-.24,1.77-.88,2.41-.64.64-1.52.96-2.42.88-.58.69-1.42,1.08-2.33,1.08ZM457.73,77.87l.11.15c.47.62,1.17.98,1.95.98s1.48-.36,1.95-.98l.11-.15.18.03c.77.11,1.52-.14,2.07-.69.55-.55.8-1.3.69-2.07l-.03-.18.15-.11c.62-.47.98-1.17.98-1.95s-.36-1.48-.98-1.95l-.15-.11.03-.18c.11-.77-.14-1.52-.69-2.07s-1.3-.8-2.07-.69l-.18.03-.11-.15c-.46-.62-1.17-.97-1.95-.97s-1.48.36-1.95.98l-.11.15-.18-.03c-.76-.11-1.52.14-2.07.69-.55.55-.8,1.3-.69,2.07l.03.18-.15.11c-.62.46-.97,1.17-.97,1.95s.35,1.48.97,1.94l.15.11-.03.18c-.11.77.14,1.52.69,2.06.55.55,1.3.8,2.07.69l.18-.03ZM460.3,74.15l-.19-.03c-.22-.04-.43-.04-.66,0l-.19.03-.11-.15c-.07-.09-.14-.18-.21-.25s-.16-.15-.25-.21l-.15-.11.03-.19c.02-.11.03-.22.03-.33s0-.21-.03-.33l-.03-.19.15-.11c.09-.07.17-.14.25-.21s.15-.16.21-.25l.11-.15.19.03c.23.04.43.04.66,0l.19-.03.11.15c.07.09.14.17.21.25s.16.15.25.21l.15.11-.03.19c-.02.11-.03.22-.03.33s0,.22.03.33l.03.19-.15.11c-.09.07-.17.14-.25.21-.07.07-.14.16-.21.25l-.11.15ZM459.79,73.47c.08,0,.16,0,.24.01.05-.06.1-.12.16-.18s.11-.11.18-.16c0-.08-.01-.16-.01-.24s0-.16.01-.24c-.06-.05-.12-.11-.18-.16s-.11-.11-.16-.18c-.16.01-.32.01-.48,0-.05.06-.11.12-.16.18s-.11.11-.18.16c0,.08.01.16.01.24s0,.16-.01.24c.06.05.12.1.18.16s.11.11.16.18c.08,0,.16-.01.24-.01Z"/>
    </g>
  </g>
  <path class="cls-1" d="M19.02,109.15c5.4,8.68,15.78,12.92,25.73,12.88,12.3-.04,23.95-5.65,34.41-11.63,10.02-5.74,19.4-12.62,27.91-20.43,8.56-7.86,16.63-16.74,22.93-26.54,3.21-4.99,5.74-10.56,6.03-16.56.1-2.05.32-5.06-1.33-6.63-1.06-1.01-2.69-1.25-4.04-.72-4.16,1.64-1.96,8.02-.03,10.54,3.05,3.99,8.2,5.75,13.08,5.82,6.48.09,12.62-2.62,18.54-4.94,6.23-2.44,12.47-4.86,18.74-7.22,12.69-4.78,25.5-9.29,38.53-13.06,25.94-7.51,53.09-12.11,80.15-9.8,3.45.29,6.89.71,10.31,1.23.88.14,1.27-1.22.37-1.35-24.64-3.77-49.77-1.46-73.96,4.08-24.48,5.61-48.05,14.46-71.4,23.56-5.6,2.19-11.26,4.83-17.24,5.79-5.18.83-11.14.05-15-3.8-1.9-1.89-3.49-5.09-2.95-7.85.33-1.69,2.45-2.46,3.8-1.36.89.72.91,1.98.99,3.03.12,1.73.04,3.48-.23,5.19-.46,2.9-1.45,5.7-2.73,8.34-2.51,5.14-6.03,9.77-9.6,14.21-3.37,4.2-6.96,8.22-10.75,12.04-7.71,7.78-16.25,14.73-25.43,20.7-9.49,6.17-19.89,12.01-30.96,14.68-10.1,2.44-21.58,1.55-29.84-5.35-1.9-1.59-3.52-3.45-4.83-5.55-.48-.77-1.69-.06-1.21.71h0Z"/>
  <g>
    <path class="cls-1" d="M383.59,450.78c16.98-10.3,33.72-20.98,50.2-32.05,3.84-2.58,7.74-5.1,11.57-7.7,3.13-2.13,6.39-4.49,8.52-7.68,1.97-2.95,2.7-6.76,1.01-10.01-1.2-2.29-3.71-3.96-6.35-3.59-5.2.73-8.68,7.27-10.28,11.67-1.48,4.07-2.71,8.52-3.3,12.81-.29,2.1-.44,4.22-.55,6.33-.12,2.28-.36,4.63-.07,6.91.97,7.64,8.03,13.09,15.51,9.83,4.08-1.78,7.67-5.08,11-7.96,3.48-3.01,6.79-6.21,9.94-9.57,14.54-15.51,25.57-33.94,35.62-52.57l-1.31-.35c-.18,9.21-.89,18.41-1.4,27.61-.24,4.4-.57,8.85-.5,13.27.05,3.21.66,6.49,2.05,9.4,1.32,2.76,3.58,5.3,6.65,6.08,3.61.91,7.31-.73,10.37-2.53,6.78-3.98,12.78-9.37,18.6-14.6,7.5-6.74,14.92-13.55,23.09-19.49l-1.06-.61c-.41,7.33-1.21,22.82,9.94,22.55,2.67-.06,5.22-1.07,7.63-2.13,2.82-1.25,5.61-2.61,8.28-4.16,4.88-2.84,9.29-6.41,13.8-9.79,22.71-17.02,45.5-33.95,68.26-50.91,12.79-9.53,25.57-19.07,38.32-28.64.71-.54.02-1.76-.71-1.21-21.6,16.21-43.26,32.32-64.92,48.45-10.87,8.09-21.73,16.19-32.58,24.31-9.32,6.97-18.33,14.72-28.91,19.72-2.97,1.4-6.27,3.09-9.65,2.97-2.86-.1-5.11-1.86-6.39-4.33-2.56-4.96-1.97-11.45-1.67-16.82.03-.5-.63-.92-1.06-.61-6.67,4.85-12.9,10.24-19.02,15.76-5.63,5.09-11.22,10.27-17.37,14.76-3.07,2.24-6.36,4.67-10.05,5.73-4.07,1.17-7.64-.47-9.75-4.06-3.74-6.34-2.42-14.62-2.05-21.6.51-9.7,1.29-19.4,1.48-29.11.01-.69-.98-.97-1.31-.35-8.13,15.08-16.88,29.95-27.64,43.33-5.23,6.5-10.94,12.63-17.23,18.11-5.5,4.8-14.64,13.52-21.61,6.06-3.04-3.25-3.17-7.41-2.99-11.59.19-4.49.53-8.91,1.72-13.26,1.57-5.74,3.14-11.92,7.71-16.09,2.08-1.9,4.86-2.78,7.19-.72,3.22,2.84,2.26,7.63.02,10.72-2.32,3.21-5.83,5.52-9.09,7.67-3.41,2.25-6.81,4.51-10.2,6.79-16.48,11.07-33.22,21.75-50.2,32.05-.77.47-.07,1.68.71,1.21h0Z"/>
    <g>
      <path class="cls-1" d="M563.16,379.54h-13.37c-8.68,0-15.74-7.48-15.74-16.68v-88.85c0-9.2,7.06-16.68,15.74-16.68h15.43c.17,0,.31.14.31.31s-.14.31-.31.31h-15.43c-8.34,0-15.12,7.2-15.12,16.06v88.85c0,8.85,6.78,16.06,15.12,16.06h13.37c.17,0,.31.14.31.31s-.14.31-.31.31Z"/>
      <path class="cls-1" d="M608.39,379.54h-13.37c-.17,0-.31-.14-.31-.31s.14-.31.31-.31h13.37c8.34,0,15.12-7.2,15.12-16.06v-88.85c0-8.85-6.78-16.06-15.12-16.06h-15.43c-.17,0-.31-.14-.31-.31s.14-.31.31-.31h15.43c8.68,0,15.74,7.48,15.74,16.68v88.85c0,9.2-7.06,16.68-15.74,16.68Z"/>
    </g>
    <g class="cls-4">
      <rect class="cls-1" x="552.57" y="57.08" width="56.2" height="40.66" rx="2.4" ry="2.4"/>
      <path class="cls-1" d="M606.37,98.05h-51.4c-1.5,0-2.71-1.22-2.71-2.71v-35.86c0-1.5,1.22-2.71,2.71-2.71h51.4c1.5,0,2.71,1.22,2.71,2.71v35.86c0,1.5-1.22,2.71-2.71,2.71ZM554.97,57.39c-1.15,0-2.09.94-2.09,2.09v35.86c0,1.15.94,2.09,2.09,2.09h51.4c1.15,0,2.09-.94,2.09-2.09v-35.86c0-1.15-.94-2.09-2.09-2.09h-51.4Z"/>
    </g>
    <g>
      <rect class="cls-2" x="548.9" y="51.57" width="56.2" height="40.66" rx="2.4" ry="2.4"/>
      <path class="cls-1" d="M602.7,92.54h-51.4c-1.5,0-2.71-1.22-2.71-2.71v-35.86c0-1.5,1.22-2.71,2.71-2.71h51.4c1.5,0,2.71,1.22,2.71,2.71v35.86c0,1.5-1.22,2.71-2.71,2.71ZM551.3,51.89c-1.15,0-2.09.94-2.09,2.09v35.86c0,1.15.94,2.09,2.09,2.09h51.4c1.15,0,2.09-.94,2.09-2.09v-35.86c0-1.15-.94-2.09-2.09-2.09h-51.4Z"/>
    </g>
    <path class="cls-1" d="M597.7,87.19h-41.39c-.17,0-.31-.14-.31-.31v-29.94c0-.17.14-.31.31-.31h41.39c.17,0,.31.14.31.31v29.94c0,.17-.14.31-.31.31ZM556.62,86.56h40.77v-29.32h-40.77v29.32Z"/>
    <path class="cls-1" d="M556.31,57.24c-.07,0-.14-.02-.19-.07l-6.26-4.99c-.13-.11-.16-.3-.05-.44s.3-.16.44-.05l6.26,4.99c.13.11.16.3.05.44-.06.08-.15.12-.24.12Z"/>
    <path class="cls-1" d="M550.04,91.69c-.1,0-.19-.05-.25-.13-.1-.14-.07-.33.07-.44l6.26-4.51c.14-.1.34-.07.44.07.1.14.07.33-.07.44l-6.26,4.51c-.05.04-.12.06-.18.06Z"/>
    <path class="cls-1" d="M604.34,91.88c-.06,0-.13-.02-.18-.06l-6.67-4.86c-.14-.1-.17-.3-.07-.44.1-.14.3-.17.44-.07l6.67,4.86c.14.1.17.3.07.44-.06.08-.16.13-.25.13Z"/>
    <path class="cls-1" d="M597.7,57.24c-.1,0-.2-.05-.26-.13-.1-.14-.06-.34.08-.43l6.64-4.62c.14-.1.34-.06.43.08.1.14.06.34-.08.43l-6.64,4.62c-.05.04-.12.06-.18.06Z"/>
    <g>
      <path class="cls-3" d="M552.98,44.73l-11.46-15.43c-.1-.13-.24-.22-.41-.25-.16-.02-.33.02-.46.12-.13.1-.22.25-.25.41s.02.33.12.46l11.46,15.43c.12.16.3.25.5.25.13,0,.26-.04.37-.12.13-.1.22-.25.25-.41s-.02-.33-.12-.46Z"/>
      <path class="cls-3" d="M524.09,36.64c-.14-.1-.3-.14-.47-.11-.16.03-.31.12-.41.25-.1.14-.14.3-.11.47.03.16.12.31.25.4l20.57,14.73c.11.08.23.12.36.12.2,0,.39-.1.51-.26.1-.14.14-.3.11-.47-.03-.16-.12-.31-.25-.4l-20.57-14.73ZM544.3,52.19h0s0,0,0,0Z"/>
      <path class="cls-3" d="M540.48,57.82l-16.59-4.21c-.16-.04-.33-.02-.47.06-.14.08-.25.23-.29.39-.04.16-.02.33.07.47.09.14.22.25.38.29l16.6,4.21c.05.01.1.02.16.02.29,0,.54-.19.6-.47.04-.16.02-.33-.07-.47-.09-.14-.22-.25-.38-.29Z"/>
    </g>
    <g>
      <path class="cls-1" d="M566.74,65.16c0-.98-1.23-1.2-1.74-.47-.75,1.05-1.35,2.19-1.84,3.38-.51-.88-1.03-1.77-1.54-2.65-.16-.27-.38-.41-.62-.44-.55-.31-1.44-.05-1.45.78-.04,3.9-.07,7.8-.11,11.69-.01,1.21,1.86,1.21,1.87,0,.03-2.89.06-5.79.08-8.68.39.67.77,1.34,1.16,2,.41.7,1.5.55,1.71-.22.18-.66.42-1.3.69-1.92.14,3.17.42,6.34.84,9.49.07.5.71.77,1.15.65.54-.14.72-.65.65-1.15-.56-4.12-.84-8.29-.87-12.45Z"/>
      <path class="cls-1" d="M574.01,65.33c.01,2.29.08,4.58.03,6.87-.03,1.53-.36,3.96-2.22,4.32-2.05.4-2.04-2.26-2.16-3.62-.21-2.28-.17-4.58.08-6.86.06-.5-.47-.94-.94-.94-.55,0-.88.43-.94.94-.24,2.12-.29,4.27-.12,6.4.08,1.02.18,2.06.38,3.06.16.81.5,1.62,1.15,2.16,1.36,1.14,3.34.93,4.66-.16,1.46-1.21,1.9-3.17,1.97-4.98.1-2.39,0-4.8-.02-7.19,0-1.2-1.88-1.21-1.87,0Z"/>
      <path class="cls-1" d="M584.47,66.63c1.2,0,1.21-1.88,0-1.87-2.52.02-5.05.03-7.57.05-1.2,0-1.21,1.88,0,1.87.61,0,1.23,0,1.84-.01-.08,3.09-.16,6.17-.23,9.26-.03,1.21,1.84,1.2,1.87,0,.08-3.09.16-6.18.23-9.27,1.29,0,2.57-.02,3.86-.03Z"/>
      <path class="cls-1" d="M591.33,74.78c-1.41.84-2.91,1.44-4.52,1.77-.63.13-2.99.68-3.15-.44-.08-.61.57-1.27.96-1.66.52-.54,1.09-1.06,1.68-1.52.73-.57,1.52-1.07,2.34-1.5.66-.22,1.3-.52,1.91-.88.87-.53.3-2.11-.72-1.71-.08.03-.15.07-.22.1,0,0,0,0,0,0-.01,0-.02.01-.03.02-.54.22-1.07.47-1.58.73-.54.18-1.1.3-1.67.34-.25.02-.85.13-1.16,0,.08,0,.09-.13.19-.27.15-.22.31-.44.48-.64,1.34-1.66,3.14-2.92,5.15-3.63,1.13-.4.64-2.21-.5-1.81-1.47.52-2.82,1.25-4.05,2.22-1.13.89-2.46,2.13-3,3.49-.29.72-.17,1.5.43,2.01.25.21.55.34.87.41-.05.04-.11.08-.16.12-1.33,1.12-3.24,2.85-2.68,4.81.53,1.84,2.67,2.02,4.25,1.8,2.17-.29,4.25-1.03,6.13-2.15,1.03-.62.09-2.24-.95-1.62Z"/>
    </g>
    <g class="cls-4">
      <rect class="cls-1" x="552.57" y="131.68" width="56.2" height="40.66" rx="2.4" ry="2.4"/>
      <path class="cls-1" d="M606.37,172.65h-51.4c-1.5,0-2.71-1.22-2.71-2.71v-35.86c0-1.5,1.22-2.71,2.71-2.71h51.4c1.5,0,2.71,1.22,2.71,2.71v35.86c0,1.5-1.22,2.71-2.71,2.71ZM554.97,131.99c-1.15,0-2.09.94-2.09,2.09v35.86c0,1.15.94,2.09,2.09,2.09h51.4c1.15,0,2.09-.94,2.09-2.09v-35.86c0-1.15-.94-2.09-2.09-2.09h-51.4Z"/>
    </g>
    <g>
      <rect class="cls-2" x="548.9" y="126.18" width="56.2" height="40.66" rx="2.4" ry="2.4"/>
      <path class="cls-1" d="M602.7,167.15h-51.4c-1.5,0-2.71-1.22-2.71-2.71v-35.86c0-1.5,1.22-2.71,2.71-2.71h51.4c1.5,0,2.71,1.22,2.71,2.71v35.86c0,1.5-1.22,2.71-2.71,2.71ZM551.3,126.49c-1.15,0-2.09.94-2.09,2.09v35.86c0,1.15.94,2.09,2.09,2.09h51.4c1.15,0,2.09-.94,2.09-2.09v-35.86c0-1.15-.94-2.09-2.09-2.09h-51.4Z"/>
    </g>
    <path class="cls-1" d="M597.7,161.79h-41.39c-.17,0-.31-.14-.31-.31v-29.94c0-.17.14-.31.31-.31h41.39c.17,0,.31.14.31.31v29.94c0,.17-.14.31-.31.31ZM556.62,161.17h40.77v-29.32h-40.77v29.32Z"/>
    <path class="cls-1" d="M556.31,131.85c-.07,0-.14-.02-.19-.07l-6.26-4.99c-.13-.11-.16-.3-.05-.44s.3-.16.44-.05l6.26,4.99c.13.11.16.3.05.44-.06.08-.15.12-.24.12Z"/>
    <path class="cls-1" d="M550.04,166.3c-.1,0-.19-.05-.25-.13-.1-.14-.07-.33.07-.44l6.26-4.51c.14-.1.34-.07.44.07.1.14.07.33-.07.44l-6.26,4.51c-.05.04-.12.06-.18.06Z"/>
    <path class="cls-1" d="M604.34,166.48c-.06,0-.13-.02-.18-.06l-6.77-4.81c-.14-.1-.17-.29-.07-.44.1-.14.3-.17.44-.07l6.77,4.81c.14.1.17.29.07.44-.06.09-.16.13-.25.13Z"/>
    <path class="cls-1" d="M597.7,131.85c-.1,0-.2-.05-.26-.13-.1-.14-.06-.34.08-.43l6.64-4.62c.14-.1.34-.06.43.08.1.14.06.34-.08.43l-6.64,4.62c-.05.04-.12.06-.18.06Z"/>
    <g>
      <path class="cls-1" d="M565.61,145.81c-1.4.02-2.8.04-4.19.06.01-1.33.02-2.65.04-3.98h6.47c1.21,0,1.21-1.87,0-1.87h-6.83c-.54-.36-1.49-.12-1.5.74-.04,4.69-.09,9.37-.13,14.06-.01,1.21,1.86,1.21,1.87,0,.02-2.36.04-4.72.06-7.07,1.4-.02,2.81-.04,4.21-.06.49,0,.96-.43.94-.94-.02-.5-.41-.94-.94-.94Z"/>
      <path class="cls-1" d="M573.17,147.39c.91-1.77,1.8-3.55,2.67-5.34.52-1.08-1.09-2.03-1.62-.95-.74,1.53-1.5,3.05-2.28,4.57-.63-.88-1.25-1.75-1.88-2.63-.29-.41-.82-.61-1.28-.34-.41.24-.63.87-.34,1.28.85,1.19,1.69,2.37,2.54,3.56-1.15,2.21-2.33,4.4-3.55,6.57-.59,1.05,1.03,2,1.62.95,1.08-1.92,2.12-3.86,3.15-5.81.97,1.36,1.94,2.73,2.92,4.09.29.41.82.61,1.28.34.41-.24.63-.87.34-1.28-1.19-1.67-2.38-3.34-3.57-5Z"/>
      <path class="cls-1" d="M588.03,152.16l-2.66.07s.01-.1.01-.15c-.05-3.47-.09-6.93-.14-10.4.02-.01.04-.03.06-.04,1-.66.07-2.28-.95-1.62-1.85,1.21-3.58,2.61-5.15,4.17-.77.77.2,1.96,1.13,1.47,1.09-.57,2.1-1.25,3.06-2.02.04,2.81.07,5.62.11,8.42,0,.07,0,.14.02.2l-2.53.07c-.51.01-.94.42-.94.94s.43.95.94.94c2.34-.07,4.69-.13,7.03-.2.51-.01.94-.42.94-.94s-.43-.95-.94-.94Z"/>
    </g>
    <g class="cls-4">
      <rect class="cls-1" x="552.57" y="188.65" width="56.2" height="40.66" rx="2.4" ry="2.4"/>
      <path class="cls-1" d="M606.37,229.61h-51.4c-1.5,0-2.71-1.22-2.71-2.71v-35.86c0-1.5,1.22-2.71,2.71-2.71h51.4c1.5,0,2.71,1.22,2.71,2.71v35.86c0,1.5-1.22,2.71-2.71,2.71ZM554.97,188.96c-1.15,0-2.09.94-2.09,2.09v35.86c0,1.15.94,2.09,2.09,2.09h51.4c1.15,0,2.09-.94,2.09-2.09v-35.86c0-1.15-.94-2.09-2.09-2.09h-51.4Z"/>
    </g>
    <g>
      <rect class="cls-2" x="548.9" y="183.14" width="56.2" height="40.66" rx="2.4" ry="2.4"/>
      <path class="cls-1" d="M602.7,224.11h-51.4c-1.5,0-2.71-1.22-2.71-2.71v-35.86c0-1.5,1.22-2.71,2.71-2.71h51.4c1.5,0,2.71,1.22,2.71,2.71v35.86c0,1.5-1.22,2.71-2.71,2.71ZM551.3,183.45c-1.15,0-2.09.94-2.09,2.09v35.86c0,1.15.94,2.09,2.09,2.09h51.4c1.15,0,2.09-.94,2.09-2.09v-35.86c0-1.15-.94-2.09-2.09-2.09h-51.4Z"/>
    </g>
    <path class="cls-1" d="M597.7,218.75h-41.39c-.17,0-.31-.14-.31-.31v-29.94c0-.17.14-.31.31-.31h41.39c.17,0,.31.14.31.31v29.94c0,.17-.14.31-.31.31ZM556.62,218.13h40.77v-29.32h-40.77v29.32Z"/>
    <path class="cls-1" d="M556.31,188.81c-.07,0-.14-.02-.19-.07l-6.26-4.99c-.13-.11-.16-.3-.05-.44s.3-.16.44-.05l6.26,4.99c.13.11.16.3.05.44-.06.08-.15.12-.24.12Z"/>
    <path class="cls-1" d="M550.04,223.26c-.1,0-.19-.05-.25-.13-.1-.14-.07-.33.07-.44l6.26-4.51c.14-.1.34-.07.44.07.1.14.07.33-.07.44l-6.26,4.51c-.05.04-.12.06-.18.06Z"/>
    <path class="cls-1" d="M604.34,223.44c-.06,0-.13-.02-.19-.06l-6.62-4.89c-.14-.1-.17-.3-.07-.44.1-.14.3-.17.44-.07l6.62,4.89c.14.1.17.3.07.44-.06.08-.16.13-.25.13Z"/>
    <path class="cls-1" d="M597.7,188.81c-.1,0-.2-.05-.26-.13-.1-.14-.06-.34.08-.43l6.64-4.62c.14-.1.34-.06.43.08.1.14.06.34-.08.43l-6.64,4.62c-.05.04-.12.06-.18.06Z"/>
    <path class="cls-1" d="M583.26,210.28c1.21,0,1.21-1.87,0-1.87s-1.21,1.87,0,1.87h0Z"/>
    <g>
      <path class="cls-1" d="M567.98,202.24c-1.4.02-2.8.04-4.19.06.01-1.33.02-2.65.04-3.98h6.47c1.21,0,1.21-1.87,0-1.87h-6.83c-.54-.36-1.49-.12-1.5.74l-.13,14.06c-.01,1.21,1.86,1.21,1.87,0,.02-2.36.04-4.72.06-7.07,1.4-.02,2.81-.04,4.21-.06.49,0,.96-.43.94-.94-.02-.5-.41-.94-.94-.94Z"/>
      <path class="cls-1" d="M575.54,203.81c.91-1.77,1.8-3.55,2.67-5.34.52-1.08-1.09-2.03-1.62-.95-.74,1.53-1.5,3.05-2.28,4.57-.63-.88-1.25-1.75-1.88-2.63-.29-.41-.82-.61-1.28-.34-.41.24-.63.87-.34,1.28.85,1.19,1.69,2.37,2.54,3.56-1.15,2.21-2.33,4.4-3.55,6.57-.59,1.05,1.03,2,1.62.95,1.08-1.92,2.12-3.86,3.15-5.81.97,1.36,1.94,2.73,2.92,4.09.29.41.82.61,1.28.34.41-.24.63-.87.34-1.28-1.19-1.67-2.38-3.34-3.57-5Z"/>
      <path class="cls-1" d="M590.4,208.58c-1.94.05-3.87.11-5.81.16.27-.43.54-.86.82-1.29,1.01-1.56,2.05-3.11,3.09-4.66.73-1.09,1.48-2.17,2.2-3.27.51-.79.92-1.76.67-2.71-.38-1.45-1.94-1.97-3.28-1.66-1.48.34-2.91,1.43-3.91,2.54-1.06,1.16-1.82,2.55-2.24,4.07-.32,1.16,1.49,1.66,1.81.5.61-2.22,2.28-4.41,4.51-5.2.35-.12,1.01-.28,1.26.11.23.36-.12.93-.3,1.23-.17.28-.37.55-.55.83-1.69,2.51-3.39,5.01-5.03,7.55-.54.84-1.37,1.81-1.62,2.79-.23.87.72,1.37,1.34,1.08.01,0,.02,0,.03,0,2.34-.07,4.69-.13,7.03-.2.51-.01.94-.42.94-.94s-.43-.95-.94-.94Z"/>
    </g>
    <g class="cls-4">
      <rect class="cls-1" x="552.57" y="271.83" width="56.2" height="40.66" rx="2.4" ry="2.4"/>
      <path class="cls-1" d="M606.37,312.8h-51.4c-1.5,0-2.71-1.22-2.71-2.71v-35.86c0-1.5,1.22-2.71,2.71-2.71h51.4c1.5,0,2.71,1.22,2.71,2.71v35.86c0,1.5-1.22,2.71-2.71,2.71ZM554.97,272.14c-1.15,0-2.09.94-2.09,2.09v35.86c0,1.15.94,2.09,2.09,2.09h51.4c1.15,0,2.09-.94,2.09-2.09v-35.86c0-1.15-.94-2.09-2.09-2.09h-51.4Z"/>
    </g>
    <g>
      <rect class="cls-2" x="548.9" y="266.33" width="56.2" height="40.66" rx="2.4" ry="2.4"/>
      <path class="cls-1" d="M602.7,307.29h-51.4c-1.5,0-2.71-1.22-2.71-2.71v-35.86c0-1.5,1.22-2.71,2.71-2.71h51.4c1.5,0,2.71,1.22,2.71,2.71v35.86c0,1.5-1.22,2.71-2.71,2.71ZM551.3,266.64c-1.15,0-2.09.94-2.09,2.09v35.86c0,1.15.94,2.09,2.09,2.09h51.4c1.15,0,2.09-.94,2.09-2.09v-35.86c0-1.15-.94-2.09-2.09-2.09h-51.4Z"/>
    </g>
    <path class="cls-1" d="M597.7,301.94h-41.39c-.17,0-.31-.14-.31-.31v-29.94c0-.17.14-.31.31-.31h41.39c.17,0,.31.14.31.31v29.94c0,.17-.14.31-.31.31ZM556.62,301.31h40.77v-29.32h-40.77v29.32Z"/>
    <path class="cls-1" d="M556.31,272c-.07,0-.14-.02-.19-.07l-6.26-4.99c-.13-.11-.16-.3-.05-.44.11-.14.3-.16.44-.05l6.26,4.99c.13.11.16.3.05.44-.06.08-.15.12-.24.12Z"/>
    <path class="cls-1" d="M550.04,306.44c-.1,0-.19-.05-.25-.13-.1-.14-.07-.33.07-.44l6.26-4.51c.14-.1.34-.07.44.07s.07.33-.07.44l-6.26,4.51c-.05.04-.12.06-.18.06Z"/>
    <path class="cls-1" d="M604.34,306.63c-.06,0-.13-.02-.18-.06l-6.78-4.8c-.14-.1-.17-.29-.07-.44.1-.14.3-.17.44-.07l6.78,4.8c.14.1.17.29.07.44-.06.09-.16.13-.25.13Z"/>
    <path class="cls-1" d="M597.7,272c-.1,0-.2-.05-.26-.13-.1-.14-.06-.34.08-.43l6.64-4.62c.14-.1.34-.06.43.08.1.14.06.34-.08.43l-6.64,4.62c-.05.04-.12.06-.18.06Z"/>
    <g>
      <path class="cls-1" d="M566.74,279.92c0-.98-1.23-1.2-1.74-.47-.75,1.05-1.35,2.19-1.84,3.38-.51-.88-1.03-1.77-1.54-2.65-.16-.27-.38-.41-.62-.44-.55-.31-1.44-.05-1.45.78-.04,3.9-.07,7.8-.11,11.69-.01,1.21,1.86,1.21,1.87,0,.03-2.89.06-5.79.08-8.68.39.67.77,1.34,1.16,2,.41.7,1.5.55,1.71-.22.18-.66.42-1.3.69-1.92.14,3.17.42,6.34.84,9.49.07.5.71.77,1.15.65.54-.14.72-.65.65-1.15-.56-4.12-.84-8.29-.87-12.45Z"/>
      <path class="cls-1" d="M586.22,290.11c-.52-3.37-.68-6.79-.5-10.19.06-1.2-1.81-1.2-1.87,0-.14,2.63-.06,5.26.21,7.87-1.23-1.43-2.46-2.86-3.68-4.29-.06-1.11-.11-2.21-.17-3.32-.06-1.2-1.94-1.21-1.87,0,.05.96.1,1.92.15,2.88-.26.36-.21.81.06,1.16.01.24.02.48.04.72-.14-.63-.36-1.25-.65-1.81-.8-1.56-2.16-3.05-3.74-3.83-1.47-.72-3.3-.8-4.53.4-2.44,1.75-2.18,5.93-1.49,8.56.4,1.53,1.22,3.01,2.62,3.83,1.48.86,3.32.79,4.84.06,1.88-.9,2.86-2.66,3.09-4.58.08,1.55.16,3.11.24,4.66.06,1.2,1.94,1.21,1.87,0-.1-1.89-.2-3.78-.29-5.67,1.33,1.55,2.65,3.09,3.98,4.64.33.38.99.34,1.32,0,.05-.05.09-.11.13-.17.23-.23.31-.57.26-.91ZM575.46,290.04c-.85.7-2.06.98-3.13.68-1.08-.31-1.8-1.26-2.16-2.28-.27-.76-.41-1.55-.49-2.35.87,1.11,2.04,1.97,3.19,2.79.98.7,1.92-.92.95-1.62-1.71-1.21-4.32-3.14-3.31-5.59.08-.18.16-.34.26-.47.17-.12.36-.23.59-.3.21-.06.37-.18.48-.32,1.43-.11,3.36,1.71,4.01,2.69,1.34,2.01,1.67,5.06-.39,6.76Z"/>
      <path class="cls-1" d="M595.06,292.25c-.15-.47-.65-.81-1.15-.65-.23.07-.47.15-.69.23.04-4.12.08-8.25.12-12.37,0-.46-.32-.78-.7-.88-.04-.75-.95-1.38-1.55-.66-.98,1.18-1.96,2.35-2.94,3.53-.66.8.15,1.99,1.13,1.47.76-.4,1.48-.87,2.16-1.39-.04,3.72-.07,7.43-.11,11.15-.95.51-1.84,1.12-2.66,1.84-.37.32-.36,1,0,1.32.39.36.93.34,1.32,0,.17-.15.34-.29.51-.42.02-.01.02-.01.03-.02.04-.03.07-.06.11-.08.09-.07.18-.13.27-.19.37-.26.76-.5,1.16-.73.39-.21.78-.41,1.19-.58,0,0,0,0,.01,0,.05-.02.1-.04.15-.06.1-.04.21-.08.31-.12.22-.08.44-.15.67-.22.47-.14.81-.66.65-1.15Z"/>
    </g>
    <g class="cls-4">
      <rect class="cls-1" x="552.57" y="326.65" width="56.2" height="40.66" rx="2.4" ry="2.4"/>
      <path class="cls-1" d="M606.37,367.62h-51.4c-1.5,0-2.71-1.22-2.71-2.71v-35.86c0-1.5,1.22-2.71,2.71-2.71h51.4c1.5,0,2.71,1.22,2.71,2.71v35.86c0,1.5-1.22,2.71-2.71,2.71ZM554.97,326.96c-1.15,0-2.09.94-2.09,2.09v35.86c0,1.15.94,2.09,2.09,2.09h51.4c1.15,0,2.09-.94,2.09-2.09v-35.86c0-1.15-.94-2.09-2.09-2.09h-51.4Z"/>
    </g>
    <g>
      <rect class="cls-2" x="548.9" y="321.15" width="56.2" height="40.66" rx="2.4" ry="2.4"/>
      <path class="cls-1" d="M602.7,362.12h-51.4c-1.5,0-2.71-1.22-2.71-2.71v-35.86c0-1.5,1.22-2.71,2.71-2.71h51.4c1.5,0,2.71,1.22,2.71,2.71v35.86c0,1.5-1.22,2.71-2.71,2.71ZM551.3,321.46c-1.15,0-2.09.94-2.09,2.09v35.86c0,1.15.94,2.09,2.09,2.09h51.4c1.15,0,2.09-.94,2.09-2.09v-35.86c0-1.15-.94-2.09-2.09-2.09h-51.4Z"/>
    </g>
    <path class="cls-1" d="M597.7,356.76h-41.39c-.17,0-.31-.14-.31-.31v-29.94c0-.17.14-.31.31-.31h41.39c.17,0,.31.14.31.31v29.94c0,.17-.14.31-.31.31ZM556.62,356.13h40.77v-29.32h-40.77v29.32Z"/>
    <path class="cls-1" d="M556.31,326.82c-.07,0-.14-.02-.19-.07l-6.26-4.99c-.13-.11-.16-.3-.05-.44s.3-.16.44-.05l6.26,4.99c.13.11.16.3.05.44-.06.08-.15.12-.24.12Z"/>
    <path class="cls-1" d="M550.04,361.27c-.1,0-.19-.05-.25-.13-.1-.14-.07-.33.07-.44l6.26-4.51c.14-.1.34-.07.44.07.1.14.07.33-.07.44l-6.26,4.51c-.05.04-.12.06-.18.06Z"/>
    <path class="cls-1" d="M604.34,361.45c-.06,0-.13-.02-.18-.06l-6.64-4.69c-.14-.1-.17-.29-.07-.43.1-.14.3-.17.43-.07l6.64,4.69c.14.1.17.29.07.43-.06.09-.16.13-.25.13Z"/>
    <path class="cls-1" d="M597.7,326.82c-.1,0-.2-.05-.26-.13-.1-.14-.06-.34.08-.43l6.64-4.62c.14-.1.34-.06.43.08.1.14.06.34-.08.43l-6.64,4.62c-.05.04-.12.06-.18.06Z"/>
    <g>
      <path class="cls-1" d="M566.74,335.13c0-.98-1.23-1.2-1.74-.47-.75,1.05-1.35,2.19-1.84,3.38-.51-.88-1.03-1.77-1.54-2.65-.16-.27-.38-.41-.62-.44-.55-.31-1.44-.05-1.45.78-.04,3.9-.07,7.8-.11,11.69-.01,1.21,1.86,1.21,1.87,0,.03-2.89.06-5.79.08-8.68.39.67.77,1.34,1.16,2,.41.7,1.5.55,1.71-.22.18-.66.42-1.3.69-1.92.14,3.17.42,6.34.84,9.49.07.5.71.77,1.15.65.54-.14.72-.65.65-1.15-.56-4.12-.84-8.29-.87-12.45Z"/>
      <path class="cls-1" d="M586.22,345.32c-.52-3.37-.68-6.79-.5-10.19.06-1.2-1.81-1.2-1.87,0-.14,2.63-.06,5.26.21,7.87-1.23-1.43-2.46-2.86-3.68-4.29-.06-1.11-.11-2.21-.17-3.32-.06-1.2-1.94-1.21-1.87,0,.05.96.1,1.92.15,2.88-.26.36-.21.81.06,1.16.01.24.02.48.04.72-.14-.63-.36-1.25-.65-1.81-.8-1.56-2.16-3.05-3.74-3.83-1.47-.72-3.3-.8-4.53.4-2.44,1.75-2.18,5.93-1.49,8.56.4,1.53,1.22,3.01,2.62,3.83,1.48.86,3.32.79,4.84.06,1.88-.9,2.86-2.66,3.09-4.58.08,1.55.16,3.11.24,4.66.06,1.2,1.94,1.21,1.87,0-.1-1.89-.2-3.78-.29-5.67,1.33,1.55,2.65,3.09,3.98,4.64.33.38.99.34,1.32,0,.05-.05.09-.11.13-.17.23-.23.31-.57.26-.91ZM575.46,345.25c-.85.7-2.06.98-3.13.68-1.08-.31-1.8-1.26-2.16-2.28-.27-.76-.41-1.55-.49-2.35.87,1.11,2.04,1.97,3.19,2.79.98.7,1.92-.92.95-1.62-1.71-1.21-4.32-3.14-3.31-5.59.08-.18.16-.34.26-.47.17-.12.36-.23.59-.3.21-.06.37-.18.48-.32,1.43-.11,3.36,1.71,4.01,2.69,1.34,2.01,1.67,5.06-.39,6.76Z"/>
      <path class="cls-1" d="M594.11,347.61c-1.37-.44-2.84-.57-4.26-.39,1.58-4.22,2.94-8.53,4.05-12.9.12-.45-.15-1.07-.65-1.15-1.8-.3-3.64.31-4.76,1.79-1.14,1.51-1.2,3.58-.3,5.22.58,1.06,2.19.11,1.62-.95-.96-1.77.14-3.93,1.98-4.26-1.18,4.45-2.59,8.83-4.25,13.12-.25.64.23,1.07.76,1.12.2.1.43.14.66.07,1.55-.43,3.09-.39,4.66.11.47.15,1.04-.17,1.15-.65.12-.51-.15-.99-.65-1.15Z"/>
    </g>
    <g class="cls-4">
      <rect class="cls-1" x="552.57" y="418.04" width="56.2" height="40.66" rx="2.4" ry="2.4"/>
      <path class="cls-1" d="M606.37,459.01h-51.4c-1.5,0-2.71-1.22-2.71-2.71v-35.86c0-1.5,1.22-2.71,2.71-2.71h51.4c1.5,0,2.71,1.22,2.71,2.71v35.86c0,1.5-1.22,2.71-2.71,2.71ZM554.97,418.35c-1.15,0-2.09.94-2.09,2.09v35.86c0,1.15.94,2.09,2.09,2.09h51.4c1.15,0,2.09-.94,2.09-2.09v-35.86c0-1.15-.94-2.09-2.09-2.09h-51.4Z"/>
    </g>
    <g>
      <rect class="cls-2" x="548.9" y="412.54" width="56.2" height="40.66" rx="2.4" ry="2.4"/>
      <path class="cls-1" d="M602.7,453.5h-51.4c-1.5,0-2.71-1.22-2.71-2.71v-35.86c0-1.5,1.22-2.71,2.71-2.71h51.4c1.5,0,2.71,1.22,2.71,2.71v35.86c0,1.5-1.22,2.71-2.71,2.71ZM551.3,412.85c-1.15,0-2.09.94-2.09,2.09v35.86c0,1.15.94,2.09,2.09,2.09h51.4c1.15,0,2.09-.94,2.09-2.09v-35.86c0-1.15-.94-2.09-2.09-2.09h-51.4Z"/>
    </g>
    <g>
      <rect class="cls-2" x="556.31" y="417.89" width="41.39" height="29.94"/>
      <path class="cls-1" d="M597.7,448.15h-41.39c-.17,0-.31-.14-.31-.31v-29.94c0-.17.14-.31.31-.31h41.39c.17,0,.31.14.31.31v29.94c0,.17-.14.31-.31.31ZM556.62,447.52h40.77v-29.32h-40.77v29.32Z"/>
    </g>
    <path class="cls-1" d="M556.31,418.21c-.07,0-.14-.02-.19-.07l-6.26-4.99c-.13-.11-.16-.3-.05-.44s.3-.16.44-.05l6.26,4.99c.13.11.16.3.05.44-.06.08-.15.12-.24.12Z"/>
    <path class="cls-1" d="M550.04,452.65c-.1,0-.19-.05-.25-.13-.1-.14-.07-.33.07-.44l6.26-4.51c.14-.1.34-.07.44.07.1.14.07.33-.07.44l-6.26,4.51c-.05.04-.12.06-.18.06Z"/>
    <path class="cls-1" d="M604.34,452.84c-.06,0-.13-.02-.18-.06l-6.64-4.69c-.14-.1-.17-.29-.07-.43.1-.14.3-.17.43-.07l6.64,4.69c.14.1.17.29.07.43-.06.09-.16.13-.25.13Z"/>
    <path class="cls-1" d="M597.7,418.21c-.1,0-.2-.05-.26-.13-.1-.14-.06-.34.08-.43l6.64-4.62c.14-.1.34-.06.43.08.1.14.06.34-.08.43l-6.64,4.62c-.05.04-.12.06-.18.06Z"/>
    <g>
      <path class="cls-1" d="M568.86,434.19c-.02-.36-.23-.7-.54-.85-.15-.11-.33-.17-.53-.17-.14,0-.27.04-.4.1-1.78.05-3.56.09-5.34.14-.49.01-.96.42-.94.94.02.5.41.95.94.94,1.26-.03,2.52-.06,3.78-.1-.55.84-1.51,1.3-2.5,1.32-1.11.02-2.13-.54-2.75-1.47-1.46-2.18-.52-4.98,1.56-6.39,1-.68,2.68-1.31,3.75-.41.39.32.94.38,1.32,0,.33-.33.39-1,0-1.32-3.12-2.61-7.53.37-8.8,3.52-1.33,3.3.63,7.53,4.35,7.92,1.56.16,3.16-.44,4.2-1.6.06,1.41.12,2.81.18,4.22.02.51.42.94.94.94.49,0,.96-.43.94-.94-.09-2.11-.18-4.22-.27-6.33.08-.13.12-.28.11-.44Z"/>
      <path class="cls-1" d="M576.79,432.38c.18-.16.31-.38.29-.66-.02-.46-.41-.99-.94-.94-.02,0-.05,0-.07,0-.6-1.34-1.21-2.69-1.81-4.03-.06-.14-.17-.24-.3-.32-.36-.59-1.46-.66-1.74.21-.5,1.59-1,3.19-1.5,4.78-.35.14-.63.43-.61.85,0,.18.07.37.18.53-.42,1.33-.84,2.66-1.26,4-.36,1.13,1.37,1.62,1.78.56.07-.11.11-.24.12-.37.41-1.3.82-2.6,1.23-3.9.92-.1,1.85-.2,2.77-.31.86,1.9,1.71,3.81,2.57,5.71.21.46.88.57,1.28.34.47-.28.54-.82.34-1.28-.78-1.72-1.55-3.45-2.32-5.17ZM572.77,431.15c.2-.62.39-1.24.59-1.86l.77,1.71c-.45.05-.9.1-1.36.15Z"/>
      <path class="cls-1" d="M579.57,427.38c.08,3.66.16,7.32.25,10.98.03,1.2,1.9,1.21,1.87,0-.08-3.66-.16-7.32-.25-10.98-.03-1.2-1.9-1.21-1.87,0Z"/>
      <path class="cls-1" d="M593.62,426.64c.05-.5-.47-.94-.94-.94-.55,0-.88.43-.94.94-.3,2.82-.37,5.65-.23,8.48-1.93-1.4-3.87-2.8-5.8-4.21v-2.5c0-1.2-1.87-1.21-1.87,0v2.81c-.01.09-.01.18,0,.27v6.92c0,1.21,1.87,1.21,1.87,0v-5.19c2.13,1.54,4.25,3.08,6.38,4.62.56.4,1.47-.13,1.41-.81-.29-3.46-.25-6.94.12-10.39Z"/>
    </g>
  </g>
  <g>
    <g>
      <g class="cls-5">
        <path class="cls-1" d="M118.3,163.5l8.98,9.98c.33.37.51.85.51,1.34v69.94c0,.42-.33.76-.75.76h-38.44c-.63,0-1.23-.25-1.68-.71l-9.86-9.97,39.3-.2c.99,0,1.79-.81,1.78-1.82l-.74-69.37.89.04Z"/>
      </g>
      <g>
        <path class="cls-1" d="M118.79,164.63v70.48l-41.72-.26-2.58-2.9-3.17-3.76,45.24-1.02.15-63.69h1.6c.29.29.47.71.47,1.15Z"/>
        <g>
          <rect class="cls-2" x="71.47" y="163.79" width="45.79" height="64.34"/>
          <path class="cls-1" d="M117.26,228.44h-45.79c-.17,0-.31-.14-.31-.31v-64.34c0-.17.14-.31.31-.31h45.79c.17,0,.31.14.31.31v64.34c0,.17-.14.31-.31.31ZM71.78,227.82h45.16v-63.72h-45.16v63.72Z"/>
        </g>
      </g>
    </g>
    <rect class="cls-1" x="71.42" y="196.45" width="45.7" height="1.25"/>
  </g>
  <g>
    <g>
      <g class="cls-5">
        <path class="cls-1" d="M192.65,241.16l8.98,9.98c.33.37.51.85.51,1.34v69.94c0,.42-.33.76-.75.76h-38.44c-.63,0-1.23-.25-1.68-.71l-9.86-9.97,39.3-.2c.99,0,1.79-.81,1.78-1.82l-.74-69.37.89.04Z"/>
      </g>
      <g>
        <path class="cls-1" d="M193.14,242.29v70.48l-41.72-.26-2.58-2.9-3.17-3.76,45.24-1.02.15-63.69h1.6c.29.29.47.71.47,1.15Z"/>
        <g>
          <rect class="cls-2" x="145.82" y="241.45" width="45.79" height="64.34"/>
          <path class="cls-1" d="M191.61,306.11h-45.79c-.17,0-.31-.14-.31-.31v-64.34c0-.17.14-.31.31-.31h45.79c.17,0,.31.14.31.31v64.34c0,.17-.14.31-.31.31ZM146.13,305.48h45.16v-63.72h-45.16v63.72Z"/>
        </g>
      </g>
    </g>
    <rect class="cls-1" x="145.77" y="274.12" width="45.7" height="1.25"/>
  </g>
  <g>
    <g>
      <g class="cls-5">
        <path class="cls-1" d="M265.58,166.12l8.98,9.98c.33.37.51.85.51,1.34v69.94c0,.42-.33.76-.75.76h-38.44c-.63,0-1.23-.25-1.68-.71l-9.86-9.97,39.3-.2c.99,0,1.79-.81,1.78-1.82l-.74-69.37.89.04Z"/>
      </g>
      <g>
        <path class="cls-1" d="M266.07,167.25v70.48l-41.72-.26-2.58-2.9-3.17-3.76,45.24-1.02.15-63.69h1.6c.29.29.47.71.47,1.15Z"/>
        <g>
          <rect class="cls-2" x="218.75" y="166.41" width="45.79" height="64.34"/>
          <path class="cls-1" d="M264.54,231.06h-45.79c-.17,0-.31-.14-.31-.31v-64.34c0-.17.14-.31.31-.31h45.79c.17,0,.31.14.31.31v64.34c0,.17-.14.31-.31.31ZM219.06,230.44h45.16v-63.72h-45.16v63.72Z"/>
        </g>
      </g>
    </g>
    <rect class="cls-1" x="218.7" y="199.08" width="45.7" height="1.25"/>
  </g>
  <g>
    <g>
      <g class="cls-5">
        <path class="cls-1" d="M339.93,235.52l8.98,9.98c.33.37.51.85.51,1.34v69.94c0,.42-.33.76-.75.76h-38.44c-.63,0-1.23-.25-1.68-.71l-9.86-9.97,39.3-.2c.99,0,1.79-.81,1.78-1.82l-.74-69.37.89.04Z"/>
      </g>
      <g>
        <path class="cls-1" d="M340.42,236.65v70.48l-41.72-.26-2.58-2.9-3.17-3.76,45.24-1.02.15-63.69h1.6c.29.29.47.71.47,1.15Z"/>
        <g>
          <rect class="cls-2" x="293.1" y="235.81" width="45.79" height="64.34"/>
          <path class="cls-1" d="M338.89,300.47h-45.79c-.17,0-.31-.14-.31-.31v-64.34c0-.17.14-.31.31-.31h45.79c.17,0,.31.14.31.31v64.34c0,.17-.14.31-.31.31ZM293.41,299.84h45.16v-63.72h-45.16v63.72Z"/>
        </g>
      </g>
    </g>
    <rect class="cls-1" x="293.05" y="268.48" width="45.7" height="1.25"/>
  </g>
  <g>
    <g>
      <g class="cls-5">
        <path class="cls-1" d="M410.97,190.96l8.98,9.98c.33.37.51.85.51,1.34v69.94c0,.42-.33.76-.75.76h-38.44c-.63,0-1.23-.25-1.68-.71l-9.86-9.97,39.3-.2c.99,0,1.79-.81,1.78-1.82l-.74-69.37.89.04Z"/>
      </g>
      <g>
        <path class="cls-1" d="M411.45,192.09v70.48l-41.72-.26-2.58-2.9-3.17-3.76,45.24-1.02.15-63.69h1.6c.29.29.47.71.47,1.15Z"/>
        <g>
          <rect class="cls-2" x="364.14" y="191.25" width="45.79" height="64.34"/>
          <path class="cls-1" d="M409.92,255.91h-45.79c-.17,0-.31-.14-.31-.31v-64.34c0-.17.14-.31.31-.31h45.79c.17,0,.31.14.31.31v64.34c0,.17-.14.31-.31.31ZM364.45,255.28h45.16v-63.72h-45.16v63.72Z"/>
        </g>
      </g>
    </g>
    <rect class="cls-1" x="364.09" y="223.92" width="45.7" height="1.25"/>
  </g>
  <g>
    <g>
      <g class="cls-5">
        <path class="cls-1" d="M484.85,228.23l8.98,9.98c.33.37.51.85.51,1.34v69.94c0,.42-.33.76-.75.76h-38.44c-.63,0-1.23-.25-1.68-.71l-9.86-9.97,39.3-.2c.99,0,1.79-.81,1.78-1.82l-.74-69.37.89.04Z"/>
      </g>
      <g>
        <path class="cls-1" d="M485.33,229.35v70.48l-41.72-.26-2.58-2.9-3.17-3.76,45.24-1.02.15-63.69h1.6c.29.29.47.71.47,1.15Z"/>
        <g>
          <rect class="cls-2" x="438.01" y="228.52" width="45.79" height="64.34"/>
          <path class="cls-1" d="M483.8,293.17h-45.79c-.17,0-.31-.14-.31-.31v-64.34c0-.17.14-.31.31-.31h45.79c.17,0,.31.14.31.31v64.34c0,.17-.14.31-.31.31ZM438.33,292.55h45.16v-63.72h-45.16v63.72Z"/>
        </g>
      </g>
    </g>
    <rect class="cls-1" x="437.96" y="261.18" width="45.7" height="1.25"/>
  </g>
</svg>