<?xml version="1.0" encoding="UTF-8"?>
<svg id="Layer_1" data-name="Layer 1" xmlns="http://www.w3.org/2000/svg" viewBox="0 0 720 467">
  <defs>
    <style>
      .cls-1 {
        stroke-width: 0px;
      }

      .cls-1, .cls-2 {
        fill: #000;
      }

      .cls-3 {
        stroke-width: 3px;
      }

      .cls-3, .cls-2, .cls-4 {
        stroke: #000;
        stroke-linecap: round;
        stroke-linejoin: round;
      }

      .cls-3, .cls-4 {
        fill: none;
      }
    </style>
  </defs>
  <line class="cls-3" x1="123.61" y1="444.61" x2="152.66" y2="444.61"/>
  <g>
    <path class="cls-2" d="M389.1,352.11c.94-.8,2.41-1.94,3.33-2.66.46-.35.53-1.02.15-1.46l-13.3-15.44c-.35-.41-.95-.47-1.38-.15h0c-.4.3-.52.85-.28,1.29l9.93,18.12c.31.56,1.05.7,1.54.29Z"/>
    <line class="cls-2" x1="378.47" y1="332.91" x2="373.78" y2="326.14"/>
  </g>
  <path class="cls-4" d="M207.85,262.56c-.09.16-.18.32-.28.47l-.85-.47h1.13Z"/>
  <path class="cls-4" d="M207.85,262.56c-.09.16-.18.32-.28.47l-.85-.47h1.13Z"/>
  <path class="cls-2" d="M185.08,286.22l-.39.68c-.67-.77-1.44-1.52-2.28-2.23l2.67,1.54Z"/>
  <path class="cls-2" d="M207.85,262.56c-.09.16-.18.32-.28.47l-.85-.47h1.13Z"/>
  <g>
    <g>
      <path class="cls-1" d="M219.86,446.34h-29.05c-.42,0-.77-.34-.77-.77s.34-.77.77-.77h29.05c.42,0,.77.34.77.77s-.34.77-.77.77Z"/>
      <g>
        <path class="cls-1" d="M209,445.88h-9.59c-.42,0-.77-.34-.77-.77v-138.46c0-.42.34-.77.77-.77h9.59c.42,0,.77.34.77.77v138.46c0,.42-.34.77-.77.77ZM200.18,444.34h8.05v-136.93h-8.05v136.93Z"/>
        <path class="cls-1" d="M209.66,307.53c.03-.21-.04-.42-.17-.58-.13-.16-.32-.26-.53-.28l-9.49-.79c-.21-.02-.43.05-.58.2-.16.15-.25.35-.25.56l-.07,25.54c0,.37.26.68.62.76.05,0,.1.02.15.02.3,0,.59-.18.71-.47,2.87-6.87,6.69-14.61,7.86-15.11.6-.2,1.07-.61,1.35-1.19.72-1.47.11-3.71-.1-4.39l.51-4.25Z"/>
      </g>
    </g>
    <path class="cls-1" d="M208.51,306.21h-10.31c-4.49,0-8.14-3.66-8.14-8.15v-9.51c0-.15.04-.3.13-.42l16.54-25.16c.07-.1.13-.2.19-.3.21-.35.68-.49,1.04-.3l8.31,4.56c.25.14.4.39.4.67v30.47c0,4.5-3.65,8.15-8.14,8.15ZM191.59,288.77v9.28c0,3.65,2.96,6.62,6.61,6.62h10.31c3.64,0,6.61-2.97,6.61-6.62v-30.01l-7.28-3.99-16.24,24.72Z"/>
    <g>
      <g>
        <path class="cls-1" d="M75.54,448.03c-3.83,0-7.43-.82-10.44-2.74-6.69-4.25-11-14.31-11.25-26.26-.25-11.99,3.75-27.79,15.76-36.15,10.73-7.47,26.42-8.27,37.32-1.9,8.11,4.74,12.15,12.54,15.12,20.34,3.57-17.99,1.71-38.36-4-55.29-1.78-5.26-4.68-12.33-8.28-18.88-.22.8-.48,1.58-.79,2.33-.68,1.66-6.98,16.27-18.79,16.81-6.66.31-13.46-3.26-16.18-8.49-2.49-4.8-1.89-11.5,1.62-17.93,3.54-6.49,9.21-11.16,14.13-11.63,7.25-.68,14.21,7.17,19.72,16.72,3.05-17.41-14-43.32-45.92-69.14-.17-.13-.19-.38-.06-.54.13-.17.37-.19.54-.06,32.66,26.42,49.83,53.05,46.01,70.76,3.73,6.66,6.76,14.01,8.72,19.81,5.27,15.6,7.09,33.81,5.01,49.94-.29,2.24-.68,4.61-1.19,7.06.57,1.55,1.1,3.1,1.62,4.61,3.29,9.53,6.13,17.76,14.26,19.87,6.6,1.72,13.42-1.28,16.96-4.8,5.59-5.56,4.95-13.99,4.14-24.65l-.11-1.41c-2.06-27.42-3.84-51.09,1.52-72.06,1.99-7.81,5.05-15.44,9.08-22.69.1-.19.34-.25.52-.15.19.1.25.34.15.52-4,7.19-7.03,14.76-9,22.51-5.32,20.85-3.55,44.46-1.5,71.81l.11,1.41c.83,10.87,1.48,19.45-4.36,25.26-3.69,3.66-10.8,6.79-17.69,5-8.53-2.22-11.57-11.04-14.79-20.37-.39-1.14-.79-2.29-1.21-3.46-2.76,12.05-8.72,25.73-21.35,34.69-7.2,5.11-16.89,9.15-25.39,9.15ZM90.13,377.46c-7.11,0-14.33,2.05-20.09,6.06-11.76,8.19-15.68,23.71-15.43,35.5.25,11.69,4.42,21.51,10.9,25.63,9.41,5.98,24.73.88,34.98-6.39,11.31-8.02,18.11-20.92,21.27-35.52-2.97-8.05-6.92-16.24-15.21-21.09-4.81-2.81-10.57-4.19-16.41-4.19ZM90.62,308.97c-.27,0-.53.01-.8.04-4.67.44-10.11,4.95-13.53,11.23-3.38,6.21-3.98,12.64-1.61,17.21,2.58,4.97,9.09,8.37,15.46,8.08,11.53-.53,17.85-15.69,18.12-16.33.4-.97.72-1.98.96-3.02-5.22-9.24-11.83-17.21-18.6-17.21Z"/>
        <g>
          <path class="cls-1" d="M63.72,258.91c1.17-1.12,3-2.73,4.15-3.73.57-.5.61-1.37.08-1.92l-18.58-19.12c-.49-.5-1.28-.54-1.81-.08h0c-.5.43-.61,1.16-.26,1.71l14.4,22.88c.45.71,1.43.84,2.03.26Z"/>
          <path class="cls-1" d="M62.81,259.66c-.07,0-.14,0-.21-.01-.51-.06-.96-.35-1.24-.79l-14.4-22.88c-.45-.71-.3-1.66.33-2.21.68-.59,1.71-.54,2.34.11l18.58,19.12c.33.34.5.79.48,1.26-.02.47-.23.9-.58,1.21-1.26,1.1-3,2.64-4.13,3.72h0c-.32.31-.74.47-1.17.47ZM63.72,258.91h0,0ZM48.4,234.13c-.22,0-.44.08-.61.23-.35.3-.43.82-.18,1.21l14.4,22.88c.15.24.4.4.68.44.28.03.55-.06.76-.25,1.14-1.09,2.89-2.64,4.16-3.74.2-.17.31-.41.32-.67.01-.26-.08-.51-.27-.7l-18.58-19.12c-.18-.19-.43-.29-.68-.29Z"/>
        </g>
        <g>
          <line class="cls-1" x1="48.32" y1="234.67" x2="41.66" y2="226.2"/>
          <path class="cls-1" d="M48.32,235.83c-.34,0-.68-.15-.91-.44l-6.66-8.47c-.39-.5-.31-1.23.19-1.62.5-.39,1.22-.31,1.62.19l6.66,8.47c.39.5.31,1.23-.19,1.62-.21.17-.46.25-.71.25Z"/>
        </g>
      </g>
      <g>
        <path class="cls-1" d="M258.01,227.51l-22.01-37.49s-.05-.07-.08-.1c-.01-.02-.02-.04-.04-.05-.04-.04-.08-.07-.12-.1-.01,0-.02-.02-.03-.03-.06-.03-.12-.06-.18-.08-.02,0-.04,0-.05,0-.04,0-.09-.02-.14-.02,0,0,0,0-.01,0,0,0,0,0,0,0h-43.84c-.26,0-.5.13-.64.35l-30.89,46.86c-.04.07-.07.14-.09.21,0,0,0,.01,0,.02,0,.02,0,.03,0,.05-.01.05-.02.11-.01.16,0,.03,0,.06,0,.08,0,.05.02.1.04.15,0,.03.02.05.03.08,0,.01,0,.02.01.03.02.04.05.07.08.11.01.02.02.03.04.05.05.06.11.11.18.14,0,0,0,0,.01,0l24.95,13.68c.35.19.79.08,1.01-.25l.88-1.33c3.21-4.88,9.78-6.23,14.66-3.03l1.96,1.29c4.56,3,6.09,9.1,3.5,13.88l-.05.09c-.07.12-.13.23-.2.35-.12.18-.15.4-.1.61s.19.38.38.49l20.49,11.24s.01,0,.02,0c.05.03.11.05.16.06.06.02.13.02.19.02,0,0,0,0,0,0,0,0,0,0,0,0h0c.09,0,.18-.02.27-.06.02,0,.04-.01.05-.02.08-.04.16-.09.22-.16,0,0,.01,0,.01,0,.01-.01.01-.03.02-.04.02-.03.05-.05.06-.08l29.28-46.38c.15-.24.16-.55.01-.8ZM191.91,191.17h42l-29.88,45.32h-41.99l29.88-45.32ZM204.53,247.02l-1.96-1.29c-5.59-3.67-13.11-2.11-16.78,3.47l-.49.74-21.7-11.9h40.42l21.78,34.12-17.17-9.42c2.84-5.46,1.06-12.33-4.1-15.72Z"/>
        <path class="cls-1" d="M193.32,194.67c-.37-.21-.84-.09-1.05.27l-12.18,20.62c-.22.37-.09.84.27,1.05.12.07.26.11.39.11.26,0,.52-.14.66-.38l12.18-20.62c.22-.37.09-.84-.27-1.05Z"/>
      </g>
      <path class="cls-1" d="M182.94,284.12l-7.33-4.26-10.69,18.52c-1.44,2.49-.58,5.7,1.92,7.14l1.45.84c.82.47,1.71.7,2.6.7,1.81,0,3.57-.94,4.54-2.62l10.21-17.67-2.71-2.65Z"/>
      <g>
        <path class="cls-1" d="M186.76,295.5c-.14,0-.29-.04-.42-.13-.35-.23-.45-.71-.22-1.06h0c1.51-2.3-.61-5.31-2.01-6.9l-2.24-2.19c-4.15-3.53-9.56-5.78-12.83-5.31-1.16.17-2.03.67-2.57,1.49-.23.35-.71.45-1.06.22-.35-.23-.45-.71-.22-1.06l20.6-31.36c3.67-5.58,11.2-7.14,16.78-3.47l1.96,1.29c5.22,3.43,6.98,10.42,3.99,15.92,0,0,0,.02-.01.02l-.28.47c-.09.14-.16.26-.24.38l-20.6,31.34c-.15.23-.39.35-.64.35ZM169.98,278.31c4.2,0,9.5,2.87,12.92,5.78l2.32,2.26c1.56,1.77,2.5,3.46,2.83,5.02l18.67-28.41c.07-.1.13-.2.19-.3l.28-.47c2.6-4.79,1.06-10.89-3.5-13.89l-1.96-1.29c-4.88-3.2-11.45-1.84-14.66,3.03l-.88,1.33-17.79,27.09c.14-.03.28-.05.42-.07.37-.05.76-.08,1.16-.08ZM207.85,262.56h0,0Z"/>
        <path class="cls-1" d="M180.92,298.4c-3.05,0-6.46-1.28-9.32-3.16-2.89-1.89-5.17-4.3-6.45-6.79-1.5-2.93-1.48-5.72.06-8.07.23-.35.71-.45,1.06-.22.35.23.45.71.22,1.06-2.66,4.06.97,9.48,5.94,12.74,2.62,1.71,5.4,2.74,7.85,2.89,1.83.11,4.31-.24,5.82-2.55.23-.35.71-.45,1.06-.22.35.23.45.71.22,1.06-1.52,2.32-3.87,3.26-6.48,3.26Z"/>
      </g>
      <g>
        <path class="cls-1" d="M240.81,220.38c-.14,0-.29-.04-.42-.13-.35-.23-.45-.71-.22-1.06l55.09-83.71c6.83-10.38,4.01-24.48-6.29-31.43-5.1-3.44-11.22-4.66-17.25-3.45-6.03,1.21-11.2,4.71-14.57,9.85l-51.85,79.12c-.23.36-.71.46-1.06.22-.35-.23-.45-.71-.22-1.06l51.85-79.12c3.6-5.49,9.12-9.22,15.55-10.52,6.43-1.29,12.97.01,18.41,3.68,11,7.42,14.01,22.47,6.72,33.55l-55.09,83.71c-.15.22-.39.35-.64.35Z"/>
        <path class="cls-1" d="M250.51,188.58c-.14,0-.29-.04-.42-.13-.36-.23-.45-.71-.22-1.06l41.18-62.94c.23-.36.71-.45,1.06-.22s.45.71.22,1.06l-41.18,62.94c-.15.23-.39.35-.64.35Z"/>
        <path class="cls-1" d="M288.01,112.92c-.28,0-.55-.16-.69-.42-2.16-4.33-8.51-6.28-8.57-6.3-.41-.12-.64-.55-.51-.96.12-.41.55-.63.96-.51.29.09,7.04,2.16,9.51,7.09.19.38.04.84-.34,1.03-.11.06-.23.08-.34.08Z"/>
      </g>
    </g>
  </g>
  <g>
    <g>
      <g>
        <path class="cls-1" d="M255.23,293.05c1.14,1.15,2.79,2.94,3.81,4.07.51.56,1.39.58,1.92.04l18.76-18.95c.49-.5.51-1.29.05-1.82h0c-.44-.49-1.17-.58-1.72-.22l-22.6,14.84c-.7.46-.81,1.44-.22,2.04Z"/>
        <path class="cls-1" d="M260.02,297.94s-.03,0-.04,0c-.47-.01-.91-.21-1.22-.56-1.12-1.24-2.7-2.95-3.8-4.06h0c-.36-.36-.54-.86-.48-1.37.05-.51.33-.97.76-1.25l22.6-14.84c.7-.46,1.65-.34,2.21.29.6.67.57,1.7-.06,2.34l-18.76,18.95c-.33.33-.76.51-1.22.51ZM255.5,292.78c1.11,1.12,2.69,2.84,3.82,4.09.17.19.41.3.67.31.25.03.51-.09.69-.28l18.76-18.95c.35-.35.36-.92.03-1.29-.31-.34-.83-.41-1.22-.16l-22.6,14.84c-.24.16-.39.41-.42.69-.03.28.07.55.27.75h0Z"/>
      </g>
      <g>
        <line class="cls-1" x1="279.17" y1="277.19" x2="287.51" y2="270.37"/>
        <path class="cls-1" d="M279.17,277.58c-.11,0-.22-.05-.3-.14-.13-.16-.11-.41.05-.54l8.34-6.82c.16-.14.41-.11.54.05.13.16.11.41-.05.54l-8.34,6.82c-.07.06-.16.09-.24.09Z"/>
      </g>
    </g>
    <g>
      <g>
        <path class="cls-1" d="M143.65,445.2h-9.59c-.42,0-.77-.34-.77-.77V178.56c0-.42.34-.77.77-.77h9.59c.42,0,.77.34.77.77v265.87c0,.42-.34.77-.77.77ZM134.83,443.66h8.05V179.33h-8.05v264.33Z"/>
        <path class="cls-1" d="M212.73,72.39s-.05,0-.07,0c-19.8-1.9-34.73-18.34-34.73-38.26,0-1.03.04-2.06.12-3.07,0-.05.01-.1.03-.15,4-13.85,16.88-23.53,31.32-23.53,9.05,0,17.47,3.62,23.69,10.2,6.22,6.57,9.36,15.19,8.85,24.26-.87,15.67-13.27,28.8-28.85,30.53h-.12c-.06.02-.11.03-.17.03-.02,0-.04,0-.06,0ZM179.57,31.25c-.07.94-.11,1.91-.11,2.87,0,19.09,14.29,34.87,33.26,36.72l.21-.02c14.82-1.64,26.64-14.15,27.47-29.08h0c.48-8.64-2.51-16.85-8.43-23.12-5.93-6.27-13.94-9.72-22.57-9.72-13.73,0-25.98,9.18-29.82,22.34Z"/>
        <g>
          <path class="cls-1" d="M106.08,159.02c-.67,0-1.34-.07-2-.22-9.03-1.97-14.27-6.86-16.04-14.96-.65-2.95.21-6.02,2.29-8.21l81.79-86.28c.15-.16.37-.23.57-.24.21,0,.42.1.56.26l23.45,26.11c.28.31.26.78-.04,1.07l-29.75,28.3c-.22.21-.55.27-.83.15-.28-.12-.47-.4-.46-.71.02-7.99-3.57-15.09-10.41-20.57l-24.39,24.17c5.61,6.6,7.69,14.91,5.86,23.49-.18.86-.41,1.77-.72,2.78-.04.13-.11.24-.21.33l-22.94,21.82c-1.85,1.76-4.26,2.72-6.71,2.72ZM172.66,51.01l-81.21,85.68c-1.73,1.83-2.44,4.38-1.9,6.83,1.62,7.45,6.49,11.96,14.87,13.79,2.6.57,5.34-.22,7.33-2.11l22.8-21.68c.26-.88.47-1.68.62-2.45,1.81-8.45-.26-16.3-5.98-22.7-.27-.31-.26-.77.03-1.06l25.39-25.16c.27-.27.7-.3,1.01-.06,7.06,5.44,11.01,12.48,11.49,20.46l27.96-26.6-22.4-24.93Z"/>
          <g>
            <line class="cls-1" x1="171.54" y1="61.25" x2="153.09" y2="78.57"/>
            <path class="cls-1" d="M153.09,79.34c-.2,0-.41-.08-.56-.24-.29-.31-.28-.8.03-1.09l18.46-17.33c.31-.29.8-.28,1.09.03.29.31.28.8-.03,1.09l-18.46,17.33c-.15.14-.34.21-.53.21Z"/>
          </g>
          <path class="cls-1" d="M97.34,138.47c-.2,0-.39-.08-.54-.23-.3-.3-.3-.79,0-1.09l27.49-27.49c.3-.3.79-.3,1.09,0s.3.79,0,1.09l-27.49,27.49c-.15.15-.35.23-.54.23Z"/>
        </g>
        <g>
          <path class="cls-1" d="M212.8,70.86c-19-1.82-33.34-17.61-33.34-36.73,0-.99.04-1.98.11-2.95.03-.39-.24-.75-.63-.82-.39-.07-.77.16-.88.54-.85,2.95-1.27,6-1.27,9.11,0,2.84-1.07,5.53-3.02,7.58l-1.67,1.75c-.28.29-.28.74-.02,1.04l23.45,26.11c.14.15.33.25.54.25.01,0,.02,0,.03,0,.2,0,.39-.08.53-.21l1.35-1.28c2.2-2.09,5.26-3.12,8.41-2.83,2.1.19,4.25.18,6.39-.04.39-.04.69-.37.69-.77s-.3-.72-.7-.76Z"/>
          <path class="cls-1" d="M212.73,72.39s-.05,0-.07,0c-19.8-1.9-34.73-18.34-34.73-38.26,0-1.03.04-2.06.12-3.07,0-.05.01-.1.03-.15,4-13.85,16.88-23.53,31.32-23.53,9.05,0,17.47,3.62,23.69,10.2,6.22,6.57,9.36,15.19,8.85,24.26-.87,15.67-13.27,28.8-28.85,30.53h-.12c-.06.02-.11.03-.17.03-.02,0-.04,0-.06,0ZM179.57,31.25c-.07.94-.11,1.91-.11,2.87,0,19.09,14.29,34.87,33.26,36.72l.21-.02c14.82-1.64,26.64-14.15,27.47-29.08h0c.48-8.64-2.51-16.85-8.43-23.12-5.93-6.27-13.94-9.72-22.57-9.72-13.73,0-25.98,9.18-29.82,22.34Z"/>
          <path class="cls-1" d="M230.67,51.09c-.21,0-.42-.08-.57-.25-.29-.31-.27-.8.05-1.09,8.51-7.8,3.79-18.62,3.59-19.08-.17-.39,0-.84.39-1.02.39-.17.84,0,1.02.38.05.12,5.39,12.28-3.95,20.84-.15.14-.33.2-.52.2Z"/>
          <path class="cls-1" d="M231.05,25.89c2.97,0,2.97-4.61,0-4.61s-2.97,4.61,0,4.61h0Z"/>
        </g>
        <path class="cls-1" d="M154.01,178.63h-30.3c-.42,0-.77-.34-.77-.77v-32.99c0-.21.09-.41.24-.56l11.36-10.8c.26-.88.47-1.68.62-2.45,1.81-8.45-.26-16.3-5.98-22.7-.27-.31-.26-.77.03-1.06l25.39-25.16c.27-.27.7-.3,1.01-.06,7.57,5.83,11.57,13.51,11.54,22.2-.01,7.85-4.88,18.14-12.48,26.52.08.12.12.26.12.41v46.64c0,.42-.34.77-.77.77ZM124.48,177.09h28.77v-45.1h-.02c-.31,0-.58-.18-.71-.47s-.06-.61.15-.83c7.84-8.26,12.92-18.63,12.94-26.4.02-7.99-3.57-15.09-10.41-20.57l-24.39,24.17c5.61,6.6,7.69,14.91,5.86,23.49-.18.86-.41,1.77-.72,2.78-.04.13-.11.24-.21.33l-11.26,10.71v31.89Z"/>
        <path class="cls-1" d="M134.14,202.67s6.04-13.41,8.17-14.11,1.44-4.71,1.44-4.71l-.1-5.28h-9.59l.08,24.11Z"/>
      </g>
      <path class="cls-1" d="M123.28,452.78c-1.76,0-3.58-.17-5.45-.56-15.22-3.2-24.68-19.84-25.87-33.87-.97-11.53,3.98-23.9,13.57-33.95,10.08-10.56,23.6-16.85,35.26-16.4,6.14.23,11.59,2.36,34.85,20.75,11.43-26.11,42.27-56.35,78.53-91.9l.96-.94c.3-.3.79-.29,1.09.01.3.3.29.79-.01,1.09l-.96.94c-36.36,35.66-67.23,65.92-78.37,91.78,17.61,13.99,26.93,22.66,33.14,28.43.44.41.86.8,1.28,1.19,2.74-2.26,5.63-4.78,8.7-7.46,13.13-11.43,29.46-25.65,52.66-37.37,11.52-5.82,46.58-23.52,59.82-10.76,9.7,9.36,3.38,31.23-1.32,41.48-6.33,13.82-17.94,24.74-33.57,31.58-30.19,13.22-60.81.68-69.48-3.48-7.36-3.53-11.04-6.59-16.87-11.97-9.71,7.91-17.67,12.57-25.63,10.03-10.68-3.41-12.47-9.7-13.33-12.72l-.05-.18c-2.53-8.86-1.33-18.27,2.8-28.29-.02-.02-.04-.03-.06-.05-23.13-18.31-28.4-20.42-34.22-20.64-11.22-.42-24.3,5.68-34.09,15.93-9.29,9.73-14.09,21.68-13.15,32.76,1.13,13.48,10.16,29.45,24.65,32.49,7.93,1.67,15.14-.93,19.79-3.39.37-.2.84-.06,1.04.32.2.37.06.84-.32,1.04-3.79,2.01-9.21,4.1-15.38,4.1ZM212.43,420.39c5.77,5.32,9.21,8.15,16.33,11.57,8.52,4.09,38.61,16.41,68.2,3.46,15.28-6.69,26.62-17.34,32.79-30.82,4.54-9.91,10.74-30.98,1.65-39.74-12.45-12-46.78,5.33-58.06,11.03-23.03,11.63-39.28,25.78-52.35,37.15-3.02,2.63-5.87,5.11-8.57,7.35ZM176.26,391.19c-3.86,9.55-4.96,18.49-2.56,26.88l.05.18c.79,2.77,2.42,8.52,12.32,11.68,7.23,2.31,14.77-2.1,24.02-9.62-.37-.34-.74-.69-1.12-1.04-6.15-5.72-15.36-14.29-32.71-28.08Z"/>
    </g>
  </g>
  <g>
    <path class="cls-1" d="M615.76,446.72h-29.05c-.64,0-1.15-.52-1.15-1.15s.52-1.15,1.15-1.15h29.05c.64,0,1.15.52,1.15,1.15s-.52,1.15-1.15,1.15Z"/>
    <g>
      <g>
        <path class="cls-1" d="M605.81,445.2h-9.59c-.42,0-.77-.34-.77-.77V178.56c0-.42.34-.77.77-.77h9.59c.42,0,.77.34.77.77v265.87c0,.42-.34.77-.77.77ZM596.99,443.66h8.05V179.33h-8.05v264.33Z"/>
        <path class="cls-1" d="M567.76,49.35l-1.67-1.75c-1.94-2.05-3.02-4.75-3.02-7.63,0-3.07-.43-6.12-1.27-9.06-.11-.38-.49-.62-.87-.54-.39.07-.66.42-.63.82.08.96.11,1.96.11,2.95,0,19.12-14.33,34.91-33.34,36.73-.39.04-.69.37-.69.76s.3.73.69.77c2.13.22,4.28.23,6.39.04,3.15-.29,6.22.75,8.41,2.83l1.35,1.28c.14.14.33.21.53.21.01,0,.02,0,.03,0,.21,0,.4-.1.54-.25l23.45-26.11c.27-.3.26-.75-.02-1.04Z"/>
        <path class="cls-1" d="M633.8,159.02c-2.45,0-4.86-.95-6.71-2.71l-22.94-21.82c-.1-.09-.17-.21-.21-.33-.31-1.01-.54-1.92-.72-2.78-1.83-8.57.25-16.88,5.86-23.48l-24.39-24.17c-6.84,5.48-10.44,12.57-10.41,20.57,0,.31-.18.59-.46.71-.28.12-.61.06-.83-.15l-29.75-28.3c-.3-.29-.32-.76-.04-1.07l23.45-26.11c.14-.16.35-.25.56-.26.23,0,.42.08.57.24l81.79,86.28c2.08,2.2,2.94,5.27,2.29,8.22-1.76,8.1-7.01,12.99-16.04,14.96-.66.15-1.33.22-2,.22ZM605.35,133.51l22.8,21.68c1.99,1.89,4.73,2.68,7.33,2.11,8.38-1.83,13.24-6.34,14.86-13.79.54-2.45-.17-5-1.9-6.83l-81.21-85.68-22.39,24.93,27.96,26.6c.48-7.97,4.43-15.02,11.49-20.46.3-.23.74-.21,1.01.06l25.39,25.16c.29.29.3.75.03,1.06-5.72,6.4-7.79,14.25-5.98,22.69.16.77.36,1.57.62,2.46Z"/>
        <path class="cls-1" d="M527.15,72.39s-.04,0-.06,0c-.06,0-.12-.01-.17-.02h-.1c-15.6-1.74-28-14.87-28.87-30.54h0c-.51-9.07,2.64-17.68,8.85-24.26,6.22-6.58,14.63-10.2,23.69-10.2,14.44,0,27.32,9.68,31.32,23.53.01.05.02.1.03.15.08,1,.12,2.04.12,3.07,0,19.92-14.93,36.37-34.73,38.26-.02,0-.05,0-.07,0ZM530.48,8.91c-8.63,0-16.64,3.45-22.57,9.72-5.92,6.26-8.92,14.47-8.43,23.12h0c.83,14.93,12.65,27.44,27.49,29.08l.19.02c18.96-1.86,33.26-17.63,33.26-36.72,0-.97-.04-1.93-.11-2.87-3.84-13.16-16.09-22.34-29.82-22.34Z"/>
        <path class="cls-1" d="M527.15,72.39s-.04,0-.06,0c-.06,0-.12-.01-.17-.02h-.1c-15.6-1.74-28-14.87-28.87-30.54h0c-.51-9.07,2.64-17.68,8.85-24.26,6.22-6.58,14.63-10.2,23.69-10.2,14.44,0,27.32,9.68,31.32,23.53.01.05.02.1.03.15.08,1,.12,2.04.12,3.07,0,19.92-14.93,36.37-34.73,38.26-.02,0-.05,0-.07,0ZM530.48,8.91c-8.63,0-16.64,3.45-22.57,9.72-5.92,6.26-8.92,14.47-8.43,23.12h0c.83,14.93,12.65,27.44,27.49,29.08l.19.02c18.96-1.86,33.26-17.63,33.26-36.72,0-.97-.04-1.93-.11-2.87-3.84-13.16-16.09-22.34-29.82-22.34Z"/>
        <g>
          <line class="cls-1" x1="568.34" y1="61.25" x2="586.79" y2="78.57"/>
          <path class="cls-1" d="M586.79,79.34c-.19,0-.38-.07-.53-.21l-18.46-17.33c-.31-.29-.32-.78-.03-1.09.29-.31.78-.32,1.09-.03l18.46,17.33c.31.29.32.78.03,1.09-.15.16-.36.24-.56.24Z"/>
        </g>
        <path class="cls-1" d="M642.54,138.47c-.2,0-.39-.08-.54-.23l-27.49-27.49c-.3-.3-.3-.79,0-1.09s.79-.3,1.09,0l27.49,27.49c.3.3.3.79,0,1.09-.15.15-.35.23-.54.23Z"/>
        <path class="cls-1" d="M509.21,51.09c-.19,0-.37-.07-.52-.2-9.34-8.56-4-20.72-3.95-20.84.17-.39.63-.56,1.02-.38.39.17.56.63.39,1.02-.21.46-4.93,11.28,3.58,19.08.31.29.33.77.05,1.09-.15.17-.36.25-.57.25Z"/>
        <path class="cls-1" d="M508.83,25.89c2.97,0,2.97-4.61,0-4.61s-2.97,4.61,0,4.61h0Z"/>
        <path class="cls-1" d="M616.17,178.63h-30.31c-.42,0-.77-.34-.77-.77v-46.64c0-.15.04-.29.12-.41-7.6-8.37-12.47-18.67-12.48-26.52-.02-8.69,3.97-16.37,11.54-22.2.3-.23.74-.21,1.01.06l25.39,25.16c.29.29.3.75.03,1.06-5.72,6.4-7.79,14.25-5.98,22.69.16.77.36,1.57.62,2.46l11.36,10.8c.15.15.24.35.24.56v32.99c0,.42-.34.77-.77.77ZM586.64,177.09h28.77v-31.89l-11.26-10.71c-.1-.09-.17-.21-.21-.33-.31-1.01-.54-1.92-.72-2.78-1.83-8.57.25-16.88,5.86-23.48l-24.39-24.17c-6.84,5.48-10.44,12.57-10.41,20.57.01,7.78,5.09,18.14,12.94,26.4.21.22.27.55.15.83-.12.28-.4.47-.71.47h-.02v45.1Z"/>
        <path class="cls-1" d="M606.34,178.01c-.16-.15-.38-.23-.59-.21l-9.49.79c-.21.02-.4.12-.53.28-.13.16-.19.37-.17.58l.51,4.25c-.21.68-.83,2.92-.1,4.39.29.58.75.99,1.35,1.19,1.13.43,4.49,7.27,6.96,13.36.12.29.4.48.71.48.05,0,.09,0,.14-.01.36-.06.62-.37.63-.73l.82-23.8c0-.22-.08-.43-.24-.58Z"/>
      </g>
      <path class="cls-1" d="M370.11,459.07c-11.54,0-22.31-5.43-30.34-13.06-5.94-.42-11.38-1.62-16.23-2.69-16.78-3.7-32.64-7.2-38.75-20.85-3.55-7.92-3.38-18.83.42-27.8,3.06-7.21,8.09-12.39,14.15-14.59,7.27-2.63,18.47-1.62,24.91,5.44,5.16,5.66,4.36,12,3.44,19.34-.83,6.6-1.77,14.08,1.43,22.79,2.17,5.92,6.11,11.85,11.26,16.86,5.79.35,12.04-.07,18.67-2.14,21.2-6.63,33.23-25.08,41.33-40.4,1.64-3.09,3.24-6.81,4.93-10.74.65-1.51,1.32-3.06,2.01-4.62-5.22-22.16-18.39-38.31-26.6-46.62-.3-.3-.3-.79,0-1.09.3-.3.79-.3,1.09,0,8.1,8.19,20.94,23.89,26.53,45.42,5.94-13.03,13.79-26.24,28.04-26.24.22,0,.44,0,.66,0,7.36.21,14.81,3.8,20.44,9.86,7.77,8.37,10.44,19.46,13.02,30.18,3,12.46,5.83,24.23,15.94,32.31,11.76,9.41,28.89-.39,38.05-7.07,15.61-11.38,29.07-25.89,38.91-41.96,8.87-14.5,19.03-35.24,4.79-48.01-16.71-14.98-24.69-27.01-23.71-35.75.47-4.23,3.03-7.66,7.59-10.19,3.5-1.94,7.59-1.88,11.56-1.82,4.04.06,8.22.13,11.95-1.86,5.3-2.83,9.08-7.1,10.11-11.42.78-3.25.08-6.46-2.07-9.54-1.35-1.93-3.18-3.68-4.96-5.37-3.55-3.37-7.22-6.86-7.62-12.19-1.16-15.47,19.08-27.22,30.74-29.45,5.13-.98,10.4-.99,15.5-.99,7.58,0,15.42-.02,22.79-3.29,12.44-5.53,21.39-15.95,23.35-27.2,1.3-7.42-.71-14.31-5.51-18.91-.31-.29-.32-.78-.02-1.09.29-.31.78-.32,1.09-.02,5.17,4.96,7.35,12.35,5.96,20.28-2.05,11.74-11.34,22.6-24.24,28.34-7.67,3.41-15.67,3.42-23.41,3.43-5.03,0-10.22.01-15.22.97-12.7,2.43-30.5,14.48-29.5,27.82.36,4.73,3.65,7.87,7.14,11.19,1.83,1.74,3.73,3.54,5.16,5.6,2.38,3.41,3.18,7.14,2.3,10.78-1.15,4.81-5.12,9.34-10.88,12.42-4.08,2.18-8.46,2.11-12.7,2.05-3.93-.06-7.64-.12-10.79,1.63-4.1,2.28-6.39,5.31-6.81,9.02-.92,8.22,6.88,19.81,23.2,34.43,15.1,13.53,4.66,34.99-4.5,49.96-9.95,16.25-23.54,30.91-39.31,42.4-9.52,6.93-27.36,17.07-39.92,7.03-10.52-8.42-13.55-20.99-16.48-33.15-2.53-10.53-5.16-21.42-12.65-29.5-5.35-5.76-12.4-9.18-19.36-9.37-14.35-.43-22.13,13.76-28.06,27.12.9,3.92,1.55,8.03,1.89,12.31.91,11.47,2.6,32.82-12.26,47.72-3.52,3.53-13.22,11.79-27.22,12.27-.42.01-.84.02-1.25.02ZM342.14,446.14c7.89,6.98,18.21,11.75,29.16,11.38,13.45-.46,22.79-8.42,26.18-11.82,14.36-14.4,12.71-35.29,11.82-46.51-.27-3.46-.76-6.81-1.41-10.03-.39.9-.78,1.79-1.16,2.68-1.71,3.96-3.32,7.7-4.98,10.85-8.25,15.59-20.5,34.35-42.23,41.15-6.14,1.92-11.96,2.48-17.38,2.3ZM307.46,380.28c-2.73,0-5.35.44-7.58,1.25-5.66,2.05-10.37,6.93-13.26,13.75-3.64,8.59-3.81,19.02-.43,26.57,5.8,12.94,21.28,16.36,37.68,19.98,4.29.95,9.05,2,14.2,2.5-4.71-4.89-8.32-10.52-10.38-16.14-3.32-9.06-2.36-16.74-1.51-23.51.91-7.25,1.63-12.98-3.05-18.11-4.02-4.42-10.07-6.28-15.67-6.28Z"/>
      <g>
        <path class="cls-1" d="M649.8,149.71l12.14,13.25c-1.23-1.88-8.18,2.66-6.96,4.54l-11.88-12.47,6.7-5.32Z"/>
        <path class="cls-1" d="M654.98,168.26c-.2,0-.41-.08-.56-.24l-11.88-12.47c-.15-.16-.23-.37-.21-.58.02-.22.12-.41.29-.55l6.7-5.32c.32-.25.77-.21,1.04.08l11.89,12.97c.12.1.23.23.32.37.22.34.14.78-.17,1.03-.32.24-.77.21-1.04-.09l-.14-.15c-.31-.16-1.56,0-3.28,1.13-1.87,1.22-2.48,2.39-2.33,2.62.22.33.14.78-.17,1.02-.14.11-.31.17-.48.17ZM644.24,155.1l10.18,10.69c.54-.97,1.61-1.92,2.69-2.62.86-.56,1.87-1.06,2.79-1.29l-10.19-11.12-5.48,4.35Z"/>
      </g>
      <path class="cls-1" d="M656.4,169c-.29,0-.6-.01-.91-.03-.42-.03-.74-.4-.71-.82.03-.42.41-.74.82-.71,3.53.26,5.45-1.04,6.04-4.1.08-.42.48-.69.9-.61.42.08.69.48.61.9-.49,2.49-2.07,5.37-6.75,5.37Z"/>
    </g>
  </g>
  <path class="cls-4" d="M455.82,169.1s0,.02-.02.04"/>
  <g>
    <path class="cls-1" d="M641.88,320.27l-14.43-22.42c-.37-.57-1.02-.85-1.66-.77l-4.29-8.5c-.1-.19-.33-.26-.52-.17-.19.1-.26.33-.17.52l4.26,8.43c-.65.44-.94,1.28-.65,2.02l9.59,25.28c.18.48.57.85,1.06,1.02.18.06.36.09.54.09.32,0,.63-.09.91-.26h0c1.31-.83,3.33-2,4.79-2.83.41-.23.7-.62.81-1.07.11-.46.03-.93-.22-1.33Z"/>
    <g>
      <g>
        <path class="cls-1" d="M489.52,462.57c-19.78,0-36.37-6.47-46.83-18.29-7.28-8.22-10.72-18.21-9.45-27.4,1.67-12.06,15.71-22.01,28.72-25.6,13.7-3.78,24.45.31,33.94,3.92,9.34,3.55,17.4,6.62,26.76,2.51,8.55-3.76,13.96-11.63,17.19-19.8-2.91.94-5.98,1.44-9.21,1.43-16.59-.08-35.96-13.27-37.25-32.08-.63-9.29,3.34-19.59,10.38-26.88,4.98-5.16,10.8-8.05,16.02-7.86,4.42.14,8.84,2.48,12.78,6.76,8.25,8.97,13.68,25.85,12.93,40.13-.23,4.32-1.14,10.05-3.08,15.89,17.88-7.9,29.09-32.63,32.93-46.85,5.88-21.76.29-45.11-16.61-69.4-.38-.54-.7-1.01-.96-1.39-.24-.35-.14-.83.21-1.07.35-.24.83-.14,1.07.21.25.37.57.83.94,1.37,3.06,4.4,9.43,13.56,14.03,25.96,5.71,15.42,6.66,30.47,2.81,44.72-4.01,14.84-15.92,40.85-35.09,48.39-3.3,8.91-9.06,17.75-18.47,21.88-9.93,4.36-18.67,1.04-27.92-2.49-9.72-3.7-19.77-7.53-32.99-3.88-12.52,3.46-26.03,12.92-27.61,24.33-1.21,8.75,2.1,18.28,9.08,26.17,10.42,11.77,27.15,18.08,47.11,17.76,32.04-.51,55.73-26.25,58.32-29.18,8.78-9.93,14.11-20.14,18.8-29.16,6.58-12.63,12.26-23.53,24.98-29.28,3.12-1.41,14.19-5.48,25.67,1.32,9.87,5.85,11.49,19.05,13.06,31.81,1.58,12.89,3.22,26.21,13.19,32.2,6.94,4.17,17.59,2.37,22.8-1.86,11.9-9.65,1.28-48.1-31.57-114.27-.19-.38-.03-.84.35-1.03.38-.19.84-.03,1.03.35,33.68,67.85,43.87,105.84,31.16,116.15-5.73,4.64-16.96,6.55-24.56,1.98-10.61-6.37-12.29-20.08-13.92-33.33-1.59-12.96-3.09-25.21-12.32-30.67-10.84-6.42-21.31-2.57-24.25-1.24-12.23,5.53-17.8,16.22-24.25,28.59-4.74,9.09-10.11,19.39-19.02,29.46-2.64,2.99-26.75,29.18-59.45,29.7-.49,0-.97.01-1.45.01ZM519.36,314.06c-4.67,0-9.93,2.68-14.48,7.4-6.74,6.99-10.56,16.84-9.95,25.71,1.19,17.45,19.84,30.57,35.72,30.65,3.5.02,6.79-.61,9.9-1.75,2.17-6.1,3.17-12.21,3.41-16.73.74-13.9-4.53-30.31-12.52-39.01-3.65-3.97-7.7-6.14-11.69-6.27-.13,0-.26,0-.38,0Z"/>
        <path class="cls-1" d="M562.74,252.63l-19.63-24.15c-.19-.23-.5-.33-.79-.26-5.47,1.42-8.83,4.31-9.97,8.59-.07.25,0,.52.17.71l20.81,23.36c.15.17.36.26.57.26.18,0,.36-.06.51-.19l8.25-7.26c.31-.27.35-.74.09-1.06Z"/>
      </g>
      <g>
        <g>
          <path class="cls-1" d="M549.48,229.81c-1.77-1.04-3.81-1.59-5.87-1.59-6.46,0-11.71,5.25-11.71,11.7,0,1.36.23,2.7.69,3.98,1.68,4.62,6.11,7.73,11.02,7.73,6.45,0,11.7-5.25,11.7-11.71,0-4.16-2.23-8.04-5.83-10.11ZM543.61,250.09c-4.27,0-8.12-2.7-9.57-6.71-.4-1.12-.6-2.28-.6-3.46,0-5.61,4.56-10.17,10.17-10.17,1.8,0,3.56.48,5.1,1.38,3.12,1.8,5.06,5.17,5.06,8.79,0,5.61-4.56,10.17-10.17,10.17Z"/>
          <path class="cls-1" d="M483.71,133.45c-.06-.38-.4-.69-.78-.65-16.92.45-29.21,11.02-37.57,32.31-.08.19-.07.4.01.59.08.19.24.33.43.41l9.74,3.71c.09.03.18.05.27.05.11,0,.22-.02.32-.07.19-.09.33-.24.4-.43,6.07-16.56,15.29-24.4,28.16-23.98.23,0,.46-.09.61-.27.15-.18.22-.41.17-.64-.64-3.45-1.17-7.01-1.68-10.44l-.09-.58Z"/>
        </g>
        <g>
          <path class="cls-1" d="M446.08,166.16c-.09,0-.18-.02-.27-.05-2.1-.8-4.19-1.6-6.29-2.4l-2.49-.95c-.81-.31-1.61-.61-2.42-.9-4.92-1.83-10.01-3.72-14.25-7.34-8.28-7.13-13.03-17.47-13.03-28.37,0-20.61,16.77-37.38,37.38-37.38,11.41,0,22.04,5.11,29.17,14.01,3.37,4.2,5.6,8.49,6.63,12.76,1.42,5.89,2.32,12,3.2,17.91.03.22-.03.44-.17.61-.14.17-.35.27-.57.27-16.24.43-28.07,10.68-36.18,31.34-.12.3-.41.49-.72.49ZM444.72,90.3c-19.76,0-35.84,16.08-35.84,35.84,0,10.46,4.55,20.37,12.5,27.2,4.02,3.44,8.76,5.2,13.78,7.06.81.3,1.62.6,2.43.91l2.49.95c1.86.71,3.72,1.42,5.58,2.13,8.21-20.46,20.13-30.8,36.42-31.57-.83-5.61-1.7-11.38-3.04-16.93-.98-4.05-3.11-8.14-6.34-12.16-6.84-8.54-17.03-13.44-27.97-13.44Z"/>
          <path class="cls-1" d="M533.31,244.41c-.19,0-.38-.07-.53-.21l-77.51-74.5c-.15-.14-.23-.34-.24-.55,0-.11.02-.21.06-.31,0,0,0,0,0,0,6.33-17.26,16.06-25.43,29.65-24.99.23,0,.45.12.59.3l64.65,85.59c.24.31.2.75-.08,1.02l-.28.27c-.25.24-.62.28-.92.11-1.54-.9-3.3-1.38-5.1-1.38-5.61,0-10.17,4.56-10.17,10.17,0,1.18.2,2.34.6,3.46.12.34,0,.71-.31.9-.13.08-.27.12-.42.12ZM456.7,168.93l75.28,72.36c-.05-.45-.08-.91-.08-1.37,0-6.45,5.25-11.7,11.71-11.7,1.29,0,2.57.22,3.79.63l-63.06-83.48c-.2,0-.4,0-.6,0-12.26,0-21.11,7.72-27.03,23.57Z"/>
          <path class="cls-1" d="M461.8,175.67c-.09,0-.18-.02-.27-.05-.4-.15-.6-.59-.45-.99,6.17-16.35,15.45-24.3,28.36-24.3.06,0,.13,0,.19,0,.42,0,.77.35.76.77,0,.42-.35.78-.77.76-12.28-.04-21.16,7.55-27.11,23.31-.12.31-.41.5-.72.5Z"/>
          <path class="cls-1" d="M437.78,153.88c-.07,0-.14,0-.21-.03-.25-.07-6.23-1.83-16.07-13.65-9.95-11.95-7.44-20.61-7.33-20.98.13-.4.55-.63.96-.51.41.12.63.55.51.96-.03.1-2.32,8.3,7.04,19.54,9.54,11.45,15.24,13.13,15.3,13.15.41.11.65.54.54.95-.09.34-.4.56-.74.56Z"/>
          <path class="cls-1" d="M417.85,114.25c2.97,0,2.97-4.61,0-4.61s-2.97,4.61,0,4.61h0Z"/>
        </g>
      </g>
    </g>
  </g>
  <g>
    <path class="cls-1" d="M373.41,317.85h-31.8c-.14,0-.28-.08-.34-.21-.07-.13-.05-.28.03-.4,4.44-6.11,6.89-14.33,6.89-23.13,0-15.79-8.23-29.45-19.14-31.77-.15-.03-.27-.15-.3-.3-.02-.11,0-.25.07-.34.07-.09.18-.16.29-.16h56.2c.12,0,.23.05.3.14s.1.21.08.32l-.05.21c-.03.14-.14.26-.28.29-10.68,2.77-18.44,16.06-18.44,31.6,0,8.75,2.42,16.93,6.81,23.03.06.09.09.2.06.31l-.02.11c-.04.18-.2.3-.38.3ZM342.36,317.08h30.41c-4.26-6.17-6.6-14.3-6.6-22.97,0-15.04,7.17-28.04,17.3-31.8h-51.79c10.01,3.76,17.29,16.86,17.29,31.8,0,8.68-2.34,16.8-6.6,22.97Z"/>
    <g>
      <path class="cls-1" d="M400.37,262.36h-87.57c-6.64,0-12.04-5.4-12.04-12.04v-13.56c0-.42.34-.77.77-.77h1.23c.12,0,.25.03.36.09,5.33,2.79,27.96,4.81,53.8,4.81s48.46-2.02,53.8-4.81c.11-.06.23-.09.36-.09h.58c.42,0,.77.34.77.77v13.56c0,6.64-5.4,12.04-12.04,12.04ZM302.3,237.53v12.79c0,5.79,4.71,10.51,10.51,10.51h87.57c5.79,0,10.51-4.71,10.51-10.51v-12.62c-6.41,2.8-28.28,4.73-53.96,4.73s-48.45-2.01-54.34-4.9h-.28Z"/>
      <path class="cls-1" d="M356.92,242.43c-26.48,0-48.89-2.05-54.51-4.99-.41-.21-1.64-.86-1.64-1.99,0-.97,0-3.26,16.9-5.15,10.49-1.18,24.43-1.82,39.25-1.82s28.75.65,39.25,1.82c16.91,1.9,16.91,4.18,16.91,5.15,0,1.13-1.24,1.77-1.64,1.99-5.62,2.94-28.03,4.99-54.51,4.99ZM302.3,235.46s.1.24.82.62c5.33,2.79,27.96,4.81,53.8,4.81s48.46-2.02,53.8-4.81c.66-.34.79-.58.81-.63-.07-.15-1.22-2.06-16.04-3.68-10.38-1.13-24.07-1.76-38.57-1.76s-28.2.62-38.57,1.76c-15.26,1.67-16.03,3.64-16.04,3.69h0ZM411.53,235.47h0,0Z"/>
    </g>
    <g>
      <g>
        <rect class="cls-1" x="347.45" y="418.76" width="19.55" height="23.27"/>
        <path class="cls-1" d="M367,442.8h-19.55c-.42,0-.77-.34-.77-.77v-23.27c0-.42.34-.77.77-.77h19.55c.42,0,.77.34.77.77v23.27c0,.42-.34.77-.77.77ZM348.22,441.27h18.01v-21.74h-18.01v21.74Z"/>
      </g>
      <path class="cls-1" d="M367,419.53h-19.55c-.42,0-.77-.34-.77-.77v-101.3c0-.42.34-.77.77-.77h19.55c.42,0,.77.34.77.77v101.3c0,.42-.34.77-.77.77ZM348.22,417.99h18.01v-99.76h-18.01v99.76Z"/>
      <path class="cls-1" d="M353.48,408.75c-.42,0-.77-.34-.77-.77v-55.22c0-.42.34-.77.77-.77s.77.34.77.77v55.22c0,.42-.34.77-.77.77Z"/>
      <g>
        <path class="cls-1" d="M366.88,317.68h-18.95c-.42,0-.77.34-.77.77v27.45c0,.42.34.76.75.77h.01c.41,0,.75-.33.77-.74,0-.09.43-9.52,8.19-15.43,7.69-5.84,9.74-6.37,9.79-6.39.35-.06.62-.35.64-.71l.33-4.9c.01-.21-.06-.42-.21-.58-.15-.16-.35-.24-.56-.24Z"/>
        <path class="cls-1" d="M329.29,261.21c-.25-.05-.52.02-.7.21-.18.18-.26.44-.21.7l11.28,55.51c.07.36.39.62.75.62h1.21c.25,0,.48-.12.62-.32,4.58-6.31,7.11-14.76,7.11-23.81,0-16.59-8.43-30.43-20.06-32.9Z"/>
        <path class="cls-1" d="M385.81,261.58c-.19-.18-.47-.26-.72-.19-11.18,2.91-19.3,16.66-19.3,32.72,0,8.99,2.5,17.4,7.03,23.7.15.2.38.32.62.32.05,0,.11,0,.16-.02.3-.06.53-.29.59-.59l11.84-55.22c.06-.26-.03-.53-.22-.72Z"/>
      </g>
    </g>
    <g>
      <path class="cls-1" d="M382.73,205.05c-.17-.15-.4-.21-.62-.17-16.17,2.72-45.74,2.08-56.5-1.23-.23-.07-.49-.03-.68.12-.2.15-.31.37-.31.62v31.4c0,.42.34.77.77.77h56.85c.42,0,.77-.34.77-.77v-30.14c0-.23-.1-.44-.27-.59Z"/>
      <path class="cls-1" d="M356.72,208.15c-12.63,0-25.14-1.05-31.56-3.03-.32-.1-.54-.4-.54-.73v-29.71c0-16.1,13.1-29.19,29.2-29.19,7.79,0,15.12,3.04,20.64,8.55,5.51,5.52,8.55,12.85,8.55,20.64v30.96c0,.38-.27.7-.64.76-7.05,1.19-16.38,1.75-25.64,1.75ZM326.15,203.81c11.04,3.12,39.29,3.73,55.32,1.17v-30.31c0-7.38-2.88-14.33-8.1-19.56-5.23-5.22-12.17-8.1-19.56-8.1-15.25,0-27.66,12.41-27.66,27.65v29.13ZM382.23,205.64h0,0Z"/>
      <path class="cls-1" d="M331.92,186.88c-.41,0-.75-.33-.77-.74,0-.1-.33-10.21-.33-15.71,0-5.86,5.93-10.54,6.18-10.74.33-.26.82-.2,1.08.13.26.33.2.82-.13,1.08-.06.04-5.59,4.42-5.59,9.52,0,5.48.32,15.56.33,15.66.01.42-.32.78-.74.79,0,0-.02,0-.03,0Z"/>
    </g>
    <path class="cls-1" d="M317.37,269.61c-.61,0-1.21-.14-1.78-.43-1.29-.67-2.09-1.98-2.09-3.43v-47.12c0-1.4.77-2.67,2.01-3.31,1.24-.64,2.72-.54,3.86.27l36.43,25.79,35.78-25.33c1-.71,2.29-.79,3.38-.23,1.09.56,1.76,1.67,1.76,2.89v46.86c0,1.3-.71,2.47-1.86,3.06-1.15.6-2.52.5-3.58-.25l-35.48-25.12-36.21,25.64c-.67.47-1.45.71-2.23.71ZM317.24,216.43c-.34,0-.69.08-1.01.25-.74.38-1.18,1.11-1.18,1.94v47.12c0,.89.47,1.66,1.26,2.07.79.41,1.69.34,2.41-.17l35.77-25.32-35.99-25.48c-.38-.27-.82-.41-1.26-.41ZM357.14,242.32l35.04,24.81c.59.42,1.34.47,1.98.14.65-.34,1.03-.97,1.03-1.7v-46.86c0-.66-.35-1.23-.93-1.53-.58-.3-1.25-.25-1.78.12l-35.34,25.02Z"/>
  </g>
</svg>