<?xml version="1.0" encoding="UTF-8"?>
<svg id="Layer_1" data-name="Layer 1" xmlns="http://www.w3.org/2000/svg" viewBox="0 0 720 467">
  <defs>
    <style>
      .cls-1 {
        fill: #000;
      }

      .cls-1, .cls-2, .cls-3 {
        stroke-width: 0px;
      }

      .cls-2 {
        fill: #caa8f5;
      }

      .cls-4 {
        fill: #070600;
      }

      .cls-4, .cls-5 {
        stroke: #000;
        stroke-linecap: round;
        stroke-linejoin: round;
        stroke-width: 2px;
      }

      .cls-3, .cls-5 {
        fill: none;
      }
    </style>
  </defs>
  <path class="cls-4" d="M227.84,266.81c0,66.6-11.79,120.6-26.33,120.6-.41,0-.82-.04-1.22-.13-13.97-2.92-25.11-55.73-25.11-120.47s11.79-120.6,26.32-120.6,26.33,54,26.33,120.6Z"/>
  <line class="cls-5" x1="202.29" y1="146.2" x2="201.51" y2="146.2"/>
  <line class="cls-5" x1="202.29" y1="387.27" x2="200.3" y2="387.27"/>
  <path class="cls-5" d="M23.19,217.62s-.03.02-.04.03c-.01.01-.03.02-.04.04"/>
  <path class="cls-5" d="M23.09,217.7s0,0,.02-.01c0-.01.02-.02.04-.04,0,0,.02-.01.04-.03"/>
  <path class="cls-1" d="M118.3,232.65s1.13-4.86,3.84-5.88,4.8-1.31,4.8-1.31l22.45.18s-3.83,2.95-4.18,4.98-.68,2.05-.68,2.05l-26.24-.02Z"/>
  <path class="cls-1" d="M119.28,292.24s-.5,1.58.58,2.58,5.33,3.17,5.33,3.17h24.17s-4.58-3.92-4.83-5.08-1.17-.83-1.17-.83l-24.09.17Z"/>
  <g>
    <g>
      <path class="cls-2" d="M200.3,387.27H53.58c27.96-51.35,27.34-91.29,16.79-94.24-14.82-4.16-54.04,34.29-54.04,34.29,78.98-106.51,65.46-131.45,56.64-135.61-10.02-4.71-47.62,24.22-49.78,25.9,1.88-1.56,29.96-24.95,57.05-57.07,3.55-4.21,7.01-9.06,10.37-14.34h110.9c-14.54,0-26.32,54-26.32,120.6s11.13,117.55,25.11,120.47Z"/>
      <path class="cls-1" d="M200.3,387.99H53.58c-.25,0-.49-.13-.62-.35s-.13-.49-.01-.71c21.51-39.5,27.04-75.19,21.33-88.71-1.05-2.49-2.47-4.04-4.1-4.5-14.25-3.99-52.95,33.73-53.34,34.11-.27.26-.69.27-.97.03-.28-.25-.33-.67-.1-.97,61.37-82.77,65.58-114.83,62.62-126.58-1.31-5.19-4.14-7.21-5.71-7.95-7.73-3.64-35.46,15.3-49.04,25.82-.31.24-.75.19-1-.12-.24-.31-.2-.75.1-1,3.03-2.51,30.35-25.44,56.96-56.99,3.35-3.98,6.82-8.78,10.32-14.27.13-.21.36-.33.6-.33h110.9c.4,0,.72.32.72.72s-.32.72-.72.72c-6.56,0-13.09,12.67-17.91,34.76-4.96,22.73-7.69,52.96-7.69,85.12,0,63.22,11.01,116.94,24.54,119.77.36.07.6.41.57.77s-.35.64-.71.64ZM54.78,386.56h142.29c-5.87-4.2-11.2-16.77-15.26-36.19-4.73-22.6-7.33-52.27-7.33-83.56,0-61.52,9.71-110.98,22.78-119.89h-106.24c-3.46,5.41-6.89,10.14-10.22,14.09-16.85,19.97-33.99,36.5-45.1,46.62,12.67-8.74,30.79-19.74,37.58-16.55,1.8.85,5.04,3.13,6.49,8.9,3.59,14.25-3.81,46.88-58.21,121.46,11.53-10.53,37.27-32.37,49-29.08,2.07.58,3.81,2.42,5.03,5.32,4.81,11.38,3.17,44.36-20.82,88.89Z"/>
    </g>
    <path class="cls-1" d="M29.32,425.2c-.15,0-.3-.05-.43-.15-.31-.24-.37-.69-.13-1,9.25-12.11,17.39-24.6,24.19-37.11.19-.35.62-.48.97-.29.35.19.48.62.29.97-6.84,12.58-15.02,25.13-24.31,37.3-.14.18-.35.28-.57.28Z"/>
    <path class="cls-1" d="M90.62,146.92c-.13,0-.26-.04-.38-.11-.33-.21-.43-.66-.22-.99,22.9-36,40.8-92.47,40.98-93.04.12-.38.52-.59.9-.47.38.12.59.52.47.9-.18.57-18.14,57.22-41.14,93.38-.14.21-.37.33-.61.33Z"/>
    <g>
      <g>
        <g>
          <path class="cls-2" d="M470.08,298.43h94.34c5.77-9.79,9.36-23.54,9.36-38.78,0-12.98-2.61-24.9-6.96-34.2H153.34c-.31,0-.62.01-.92.05-.11.01-.23.02-.34.05-.01,0-.04,0-.05,0-.04,0-.06,0-.1.01h0c-.09,0-.18.02-.26.05h-.01s-.02,0-.04,0c-.04,0-.08,0-.11.02-.27.05-.54.12-.8.21-.09.02-.18.06-.27.09-.01,0-.02,0-.04.01s-.03,0-.04.01c-.11.04-.21.08-.32.12-.06.02-.12.04-.18.07-.13.05-.26.11-.38.17-.16.07-.3.15-.45.24-.01,0-.02.01-.04.02l-.04.02c-.08.04-.16.08-.24.14-.13.07-.25.15-.37.24-.11.06-.21.14-.31.22-.01,0-.04.02-.05.04,0,0,0,0-.01.01-.01.01-.04.02-.05.04-.09.06-.19.14-.27.21-.11.09-.22.18-.33.28-.11.09-.21.19-.31.3-.11.1-.21.21-.3.32-.1.1-.19.21-.28.32-.1.11-.19.23-.27.34-.08.1-.15.2-.21.31,0,0-.01,0-.01.01-.01.01-.03.04-.04.06-.08.11-.15.23-.21.34-.16.26-.31.53-.44.81-.06.11-.11.24-.16.36-.06.14-.11.27-.16.41-.09.24-.16.47-.22.72-.01.04-.03.09-.04.13-.04.14-.07.29-.1.44-.04.16-.06.33-.09.49-.02.11-.04.23-.04.34-.02.17-.04.34-.04.52,0,.16-.01.31-.01.47v54.92c0,.16,0,.31.01.47,0,.17.02.34.04.52,0,.11.02.23.04.34.02.16.05.33.09.49.03.15.06.29.1.44,0,.04.02.09.04.13.06.24.14.48.22.72.06.16.12.32.19.47.04.1.09.19.13.29,0,.02.01.04.03.06.06.14.13.27.2.39.06.12.14.25.21.37.06.11.14.23.21.34.01.02.03.04.04.06,0,0,0,0,.01.01.06.11.14.21.21.31.16.23.35.45.55.67.09.11.19.21.3.32.09.11.2.21.31.3.11.1.21.19.33.28.11.1.22.19.34.27.23.18.47.34.72.49.12.09.24.16.37.21.13.07.26.14.39.2.13.07.26.13.39.18.14.06.27.11.42.16.42.16.84.28,1.28.36.14.04.29.06.44.08.14.03.28.04.42.06.3.04.61.05.92.05h316.74Z"/>
          <path class="cls-1" d="M564.42,299.15H153.38c-.39,0-.73-.02-1.04-.06-.16-.02-.3-.03-.44-.06-.17-.02-.35-.05-.51-.09-.42-.07-.88-.2-1.36-.38-.15-.05-.31-.11-.47-.19-.1-.04-.25-.1-.4-.18-.15-.07-.29-.14-.43-.22-.11-.05-.27-.14-.44-.26-.22-.12-.49-.31-.75-.51-.09-.06-.23-.16-.36-.29-.12-.09-.24-.2-.36-.3-.11-.09-.23-.21-.34-.33-.12-.11-.23-.23-.33-.35-.21-.23-.42-.47-.59-.72-.07-.08-.14-.18-.21-.29-.04-.04-.06-.08-.08-.11-.08-.12-.17-.25-.24-.39-.07-.1-.15-.25-.22-.39-.07-.13-.15-.27-.22-.43,0-.02-.02-.04-.03-.06h0c-.05-.1-.09-.2-.14-.31-.07-.16-.14-.33-.2-.5-.09-.26-.17-.51-.24-.78-.01-.03-.03-.08-.04-.14-.04-.16-.08-.31-.11-.47-.04-.17-.07-.35-.09-.53-.02-.11-.04-.25-.05-.39-.02-.15-.04-.34-.04-.53,0-.16-.02-.33-.02-.5v-54.92c0-.17,0-.33.02-.5,0-.19.02-.38.05-.57,0-.1.02-.24.05-.39.02-.15.05-.33.09-.51.03-.15.06-.3.1-.46.01-.06.03-.12.05-.19.06-.22.13-.48.23-.73.05-.14.11-.28.17-.43.06-.15.12-.29.18-.42.14-.31.3-.61.47-.87.05-.1.14-.23.23-.36.02-.04.05-.07.07-.1.07-.11.15-.21.23-.32.06-.1.17-.23.28-.36.1-.13.21-.25.32-.37.07-.08.18-.2.29-.31.11-.12.23-.24.35-.34.11-.1.23-.21.37-.31.06-.06.17-.14.28-.22.03-.03.07-.06.11-.08.13-.1.24-.19.37-.26.09-.07.21-.15.35-.22.11-.08.23-.14.33-.19,0,0,.02-.01.07-.04.13-.08.29-.16.47-.25.11-.06.26-.13.42-.19.03-.02.11-.05.21-.08.08-.03.2-.08.32-.12,0,0,.02,0,.03,0,0,0,0,0,0,0,.01,0,.03-.01.04-.02.15-.05.24-.08.32-.1.23-.08.51-.15.79-.21.07-.02.13-.03.2-.04.1-.03.21-.05.34-.06.01,0,.05-.01.1-.01.1-.02.21-.04.31-.05,0,0,.07,0,.07,0,.31-.04.65-.06,1-.06h413.48c.28,0,.53.16.65.41,4.53,9.67,7.03,21.93,7.03,34.5,0,14.89-3.36,28.79-9.46,39.14-.13.22-.36.35-.62.35ZM146.46,294.02s.06.07.08.11c.05.08.1.16.16.23.16.22.32.42.51.62.1.11.18.2.27.28.02.02.04.04.05.06.07.08.15.16.23.23.11.1.19.18.29.25.02.02.04.03.06.05.08.07.16.14.24.2.26.2.47.34.69.47.14.09.22.14.31.18.16.09.27.15.38.2.02.01.05.02.07.03.1.05.19.1.3.13.17.08.28.12.4.16.41.16.79.26,1.17.33.16.04.27.06.39.07.03,0,.05,0,.08.01.1.02.21.03.31.04.3.03.58.05.88.05h410.67c5.85-10.1,9.06-23.59,9.06-38.06,0-12.19-2.38-24.06-6.71-33.48H153.38c-.33,0-.61.02-.87.05h-.09c-.06.02-.11.02-.17.03-.03,0-.07.01-.1.02-.04,0-.08.01-.12.01-.04,0-.05.01-.09.01.02,0-.01,0-.03,0-.03,0-.06.02-.1.02-.04,0-.07.02-.11.02-.02,0-.04.01-.06.01-.23.04-.47.1-.71.18-.09.03-.14.04-.18.06l-.06.02s-.02,0-.03,0c-.02,0-.03.01-.05.02h-.02c-.09.04-.19.08-.28.11-.07.03-.1.03-.13.05-.16.07-.27.11-.37.16-.18.08-.3.15-.43.23-.01,0-.06.04-.08.04-.09.04-.12.05-.15.07-.02.02-.07.05-.1.07-.11.06-.21.12-.31.19-.12.08-.2.14-.27.19-.01,0-.03.02-.04.03-.03.02-.06.05-.1.07,0,0-.02.01-.02.02-.07.05-.13.1-.2.15-.15.11-.23.19-.32.27-.1.09-.18.16-.26.25-.02.02-.03.04-.05.06-.09.08-.17.17-.25.26-.11.11-.18.19-.25.28-.02.02-.03.04-.05.06-.08.08-.15.17-.21.26-.09.11-.14.19-.19.27-.02.04-.05.08-.09.11-.07.1-.13.19-.18.28-.16.25-.29.49-.41.76-.06.12-.1.23-.15.33-.06.14-.11.26-.15.38-.08.21-.14.43-.2.65,0,0-.02.08-.03.08-.05.19-.08.31-.1.44-.04.16-.06.31-.08.45-.02.12-.03.21-.04.3-.02.19-.04.35-.04.5,0,.15-.01.29-.01.44v54.92c0,.15,0,.29.01.43,0,.16.02.31.04.46,0,.13.02.21.04.3.03.18.05.33.08.47.03.14.05.26.09.38,0,.03.02.06.02.09.08.28.15.5.22.72.05.14.11.29.17.43.04.1.08.18.12.27,0,0,0,0,0,0,.01.02.02.05.03.07.05.11.11.22.17.32.06.12.12.23.19.33.08.13.14.23.2.32ZM146.44,293.99h0s.01.01.02.02c0-.01-.02-.03-.04-.04,0,0,.01.01.02.02ZM150.55,226.67s0,0,0,0c0,0,0,0,0,0ZM151.69,226.35s-.02,0-.03,0c0,0,.02,0,.03,0ZM151.71,226.35s0,0,0,0c.03,0,.06,0,.09-.01-.03,0-.06.01-.09.01ZM151.85,226.32h0,0ZM151.85,226.32s0,0,0,0c0,0,0,0,0,0ZM150.19,225.28s-.01,0-.02,0c0,0,.01,0,.02,0Z"/>
        </g>
        <g>
          <path class="cls-2" d="M153.38,298.43h-26.43c-4.98,0-9.02-4.04-9.02-9.02v-54.92c0-4.98,4.04-9.02,9.02-9.02h26.43c-4.98,0-9.02,4.04-9.02,9.02v54.92c0,4.98,4.04,9.02,9.02,9.02Z"/>
          <path class="cls-1" d="M153.38,299.15h-26.43c-5.37,0-9.74-4.37-9.74-9.74v-54.92c0-5.37,4.37-9.74,9.74-9.74h26.43c.4,0,.72.32.72.72s-.32.72-.72.72c-4.58,0-8.31,3.73-8.31,8.31v54.92c0,4.58,3.73,8.31,8.31,8.31.4,0,.72.32.72.72s-.32.72-.72.72ZM126.95,226.18c-4.58,0-8.31,3.73-8.31,8.31v54.92c0,4.58,3.73,8.31,8.31,8.31h21.35c-2.79-1.71-4.66-4.8-4.66-8.31v-54.92c0-3.51,1.87-6.59,4.66-8.31h-21.35Z"/>
        </g>
        <g>
          <g>
            <path class="cls-1" d="M644.4,272.4c1.13-2.36,1.66-5.02,1.52-7.64-.13-2.4-.82-4.77-1.98-6.87l18.13,8.28-17.67,6.23Z"/>
            <path class="cls-1" d="M644.4,273.12c-.2,0-.39-.08-.53-.24-.19-.22-.24-.53-.11-.79,1.08-2.27,1.58-4.79,1.45-7.29-.12-2.28-.78-4.55-1.89-6.56-.15-.27-.11-.61.1-.83.21-.23.54-.29.82-.16l18.13,8.28c.27.12.43.39.42.68s-.2.55-.48.64l-17.67,6.23c-.08.03-.16.04-.24.04ZM645.43,259.36c.69,1.71,1.1,3.53,1.2,5.36.11,2.19-.21,4.4-.96,6.47l14.48-5.1-14.72-6.73Z"/>
          </g>
          <g>
            <path class="cls-2" d="M644.4,272.4l-10.59,3.73-38.87,13.7-5.27,1.86-19.13,6.74c3.65-6.19,6.43-13.96,7.97-22.69.9-5.08,1.39-10.48,1.39-16.08,0-.92-.01-1.83-.04-2.74-.34-11.92-2.88-22.82-6.93-31.45l31.04,14.18,25.33,11.57,14.63,6.68c1.16,2.1,1.85,4.47,1.98,6.87.14,2.62-.39,5.27-1.52,7.64Z"/>
            <path class="cls-1" d="M570.54,299.15c-.21,0-.41-.09-.55-.26-.19-.23-.22-.56-.06-.82,3.66-6.21,6.38-13.97,7.89-22.45.92-5.15,1.38-10.52,1.38-15.96,0-.91-.01-1.82-.04-2.73-.33-11.52-2.7-22.3-6.86-31.17-.13-.27-.07-.59.14-.81.21-.21.54-.27.81-.15l71,32.44c.14.06.25.17.33.3,1.22,2.2,1.93,4.69,2.07,7.18.14,2.74-.41,5.5-1.59,7.98-.08.17-.23.3-.41.37l-73.86,26.03c-.08.03-.16.04-.24.04ZM574.37,226.9c3.75,8.69,5.89,19.01,6.21,29.99.02.92.04,1.84.04,2.77,0,5.53-.47,10.98-1.4,16.21-1.4,7.91-3.85,15.21-7.12,21.26l71.78-25.29c.99-2.2,1.45-4.62,1.33-7.03-.12-2.2-.73-4.39-1.78-6.36l-69.05-31.54ZM644.4,272.4h0,0Z"/>
          </g>
        </g>
        <path class="cls-1" d="M162.73,226.18h-9.35c-.4,0-.72-.32-.72-.72s.32-.72.72-.72h9.35c.4,0,.72.32.72.72s-.32.72-.72.72Z"/>
        <path class="cls-1" d="M161.25,299.15h-7.87c-.4,0-.72-.32-.72-.72s.32-.72.72-.72h7.87c.4,0,.72.32.72.72s-.32.72-.72.72Z"/>
        <g>
          <path class="cls-1" d="M579.9,259.66c0,15.23-3.59,28.98-9.36,38.77h-6.12c5.77-9.79,9.36-23.54,9.36-38.77,0-12.99-2.61-24.91-6.96-34.2h6.12c4.35,9.3,6.96,21.21,6.96,34.2Z"/>
          <path class="cls-1" d="M570.54,299.15h-6.12c-.26,0-.49-.14-.62-.36s-.13-.5,0-.72c5.97-10.13,9.26-23.77,9.26-38.41,0-12.36-2.45-24.4-6.89-33.9-.1-.22-.09-.48.04-.69.13-.21.36-.33.6-.33h6.12c.28,0,.53.16.65.41,4.53,9.68,7.03,21.93,7.03,34.5,0,14.89-3.36,28.78-9.46,39.14-.13.22-.36.35-.62.35ZM565.66,297.72h4.47c5.84-10.1,9.06-23.59,9.06-38.06,0-12.19-2.38-24.06-6.7-33.48h-4.55c4.24,9.51,6.56,21.35,6.56,33.48,0,14.37-3.13,27.83-8.84,38.06Z"/>
        </g>
        <path class="cls-1" d="M564.42,299.15h-36.33c-.4,0-.72-.32-.72-.72s.32-.72.72-.72h36.33c.4,0,.72.32.72.72s-.32.72-.72.72Z"/>
        <path class="cls-1" d="M144.26,233.9h-26.13c-.4,0-.72-.32-.72-.72s.32-.72.72-.72h26.13c.4,0,.72.32.72.72s-.32.72-.72.72Z"/>
        <path class="cls-1" d="M146.34,229.15h-25.83c-.4,0-.72-.32-.72-.72s.32-.72.72-.72h25.83c.4,0,.72.32.72.72s-.32.72-.72.72Z"/>
        <path class="cls-1" d="M144.26,249.37h-26.13c-.4,0-.72-.32-.72-.72s.32-.72.72-.72h26.13c.4,0,.72.32.72.72s-.32.72-.72.72Z"/>
        <path class="cls-1" d="M144.26,264.84h-26.13c-.4,0-.72-.32-.72-.72s.32-.72.72-.72h26.13c.4,0,.72.32.72.72s-.32.72-.72.72Z"/>
        <path class="cls-1" d="M144.26,280.31h-26.13c-.4,0-.72-.32-.72-.72s.32-.72.72-.72h26.13c.4,0,.72.32.72.72s-.32.72-.72.72Z"/>
        <path class="cls-1" d="M118.7,292.96c-.39,0-.71-.32-.72-.71,0-.4.32-.72.71-.72l25.56-.19c.38-.01.72.32.72.71,0,.4-.32.72-.71.72l-25.56.19h0Z"/>
        <path class="cls-1" d="M120.95,296.55c-.4,0-.72-.32-.72-.72,0-.4.32-.72.72-.72h26.05s0-.01,0-.01c.4,0,.72.32.72.72,0,.4-.32.72-.72.72h-26.05s0,.01,0,.01Z"/>
      </g>
      <path class="cls-1" d="M162.94,236.28c29.14.53,58.28.8,87.42.81,28.99,0,57.99-.24,86.98-.74,16.35-.28,32.7-.65,49.04-1.1,1.04-.03,1.04-1.64,0-1.61-29.13.8-58.26,1.34-87.4,1.62-28.99.28-57.99.3-86.99.06-16.35-.13-32.71-.35-49.06-.65-1.04-.02-1.04,1.59,0,1.61h0Z"/>
      <path class="cls-1" d="M482.99,292.48c17.91-.19,35.82-.38,53.73-.57,5.01-.05,10.03-.11,15.04-.16,1.04-.01,1.04-1.62,0-1.61-17.91.19-35.82.38-53.73.57-5.01.05-10.03.11-15.04.16-1.04.01-1.04,1.62,0,1.61h0Z"/>
      <path class="cls-1" d="M365.15,243.32c10.67-.08,21.34-.15,32.01-.23,1.04,0,1.04-1.62,0-1.61-10.67.08-21.34.15-32.01.23-1.04,0-1.04,1.62,0,1.61h0Z"/>
      <path class="cls-1" d="M159.39,291.56c2.57-.09,5.15-.19,7.72-.28,1.03-.04,1.04-1.65,0-1.61-2.57.09-5.15.19-7.72.28-1.03.04-1.04,1.65,0,1.61h0Z"/>
      <path class="cls-1" d="M559.64,291.51h2.37c.42,0,.83-.37.81-.81s-.35-.81-.81-.81h-2.37c-.42,0-.83.37-.81.81s.35.81.81.81h0Z"/>
      <path class="cls-1" d="M455.77,243.43c6.19-4.34,14.68-4.79,21.26-1.04.9.51,1.72-.88.81-1.39-7.05-4.01-16.24-3.62-22.89,1.04-.84.59-.04,1.99.81,1.39h0Z"/>
      <path class="cls-1" d="M439.87,272.16c7.16,4.87,16.74,4.26,23.3-1.36.79-.68-.36-1.81-1.14-1.14-6.03,5.16-14.81,5.55-21.35,1.1-.86-.59-1.67.81-.81,1.39h0Z"/>
      <path class="cls-1" d="M121.35,285c6.15-.06,12.31-.12,18.46-.18,1.04-.01,1.04-1.62,0-1.61-6.15.06-12.31.12-18.46.18-1.04.01-1.04,1.62,0,1.61h0Z"/>
      <path class="cls-1" d="M140.36,237.87h-13.5c-1.04,0-1.04,1.61,0,1.61h13.5c1.04,0,1.04-1.61,0-1.61h0Z"/>
      <path class="cls-1" d="M412.74,225.88s6.37-1.22,14.61,3.15,19.15,6.06,19.15,6.06l-6.3-5.33-4.36-4.61-23.09.73Z"/>
      <path class="cls-1" d="M420.44,288.11s8.58-6.87,2.68-3.01c-4.83,3.16-10.23,6.31-13.88,7.33-8.09,2.26-39.33,6.02-39.33,6.02h39.33l5.83-5.83,5.36-4.5Z"/>
    </g>
    <g>
      <g>
        <g>
          <circle class="cls-2" cx="613.5" cy="213.32" r="25.46"/>
          <path class="cls-1" d="M613.5,239.49c-14.43,0-26.17-11.74-26.17-26.17s11.74-26.17,26.17-26.17,26.17,11.74,26.17,26.17-11.74,26.17-26.17,26.17ZM613.5,188.58c-13.64,0-24.74,11.1-24.74,24.74s11.1,24.74,24.74,24.74,24.74-11.1,24.74-24.74-11.1-24.74-24.74-24.74Z"/>
        </g>
        <g>
          <path class="cls-1" d="M599.84,200.83c1.04,0,1.04-1.61,0-1.61s-1.04,1.61,0,1.61h0Z"/>
          <path class="cls-1" d="M605.38,197.44c1.04,0,1.04-1.61,0-1.61s-1.04,1.61,0,1.61h0Z"/>
          <path class="cls-1" d="M601.52,204.3c1.28.78,2.93.71,4.18-.09s2.03-2.23,1.95-3.74c-.02-.42-.36-.83-.81-.81-.42.02-.83.36-.81.81,0,.16,0,.31,0,.46,0,.02-.02.2,0,.08,0,.07-.02.14-.04.21-.03.15-.08.3-.13.45l-.03.08c.02-.05.02-.05,0,0-.03.06-.06.12-.09.18-.06.11-.13.21-.19.3.09-.13-.04.05-.05.06-.04.05-.08.09-.12.13-.08.09-.17.17-.26.25-.07.06.08-.06-.04.03-.06.04-.12.08-.18.12-.1.06-.21.12-.31.18,0,0-.19.09-.1.05s-.09.03-.11.04c-.12.04-.25.08-.38.11-.06.01-.12.02-.18.03.16-.04,0,0-.04,0-.14.01-.28.02-.42,0-.02,0-.22-.02-.14,0s-.12-.02-.14-.03c-.14-.03-.27-.07-.4-.12.11.04-.11-.05-.11-.05-.07-.04-.15-.08-.22-.12-.36-.22-.9-.09-1.1.29s-.1.87.29,1.1h0Z"/>
          <path class="cls-1" d="M634.05,208.05c1.55,4.72,1.22,9.99-1.12,14.41-2.07,3.91-5.57,7.01-9.7,8.59-.96.37-.54,1.93.43,1.55,4.53-1.73,8.39-5.04,10.67-9.34,2.53-4.78,2.97-10.52,1.28-15.65-.32-.98-1.88-.56-1.55.43h0Z"/>
        </g>
      </g>
      <g>
        <g>
          <circle class="cls-2" cx="612.68" cy="276.01" r="28.69"/>
          <path class="cls-1" d="M612.72,305.42c-11.85,0-23.04-7.22-27.51-18.93-2.8-7.34-2.57-15.33.64-22.5,3.21-7.17,9.02-12.66,16.36-15.46,15.15-5.78,32.18,1.85,37.96,17,2.8,7.34,2.57,15.33-.64,22.5-3.21,7.17-9.02,12.66-16.36,15.46-3.44,1.31-6.97,1.93-10.45,1.93ZM612.65,248.04c-3.31,0-6.67.59-9.94,1.84-6.98,2.66-12.51,7.88-15.56,14.71-3.05,6.82-3.27,14.42-.61,21.4,5.5,14.41,21.69,21.67,36.11,16.17h0c14.41-5.5,21.67-21.7,16.17-36.11-4.25-11.14-14.9-18.01-26.17-18.01Z"/>
        </g>
        <path class="cls-1" d="M621.2,257.09c1.04,0,1.04-1.61,0-1.61s-1.04,1.61,0,1.61h0Z"/>
        <path class="cls-1" d="M627,261.56c1.04,0,1.04-1.61,0-1.61s-1.04,1.61,0,1.61h0Z"/>
        <path class="cls-1" d="M617.48,259.7c-.32,1.72.4,3.36,1.78,4.4s3.14,1.12,4.68.43c.4-.18.49-.76.29-1.1-.24-.41-.7-.47-1.1-.29-.16.07-.63.2-.78.22s-.32.03-.47.02c-.1,0-.19,0-.29-.02.1,0-.03,0-.07-.01-.14-.03-.28-.06-.41-.1-.06-.02-.12-.04-.18-.06-.05-.02-.16-.06-.06-.02-.26-.11-.5-.26-.73-.42.09.07-.01-.01-.05-.04-.05-.04-.1-.08-.14-.13-.1-.1-.2-.2-.29-.3-.03-.04-.11-.13-.04-.05-.05-.06-.09-.12-.13-.19-.07-.11-.14-.22-.19-.33-.04-.07-.07-.14-.1-.21.05.12-.01-.04-.03-.08-.06-.16-.1-.33-.13-.5.02.09-.01-.09-.01-.12,0-.08,0-.16-.01-.24,0-.09,0-.19.01-.28,0-.13,0-.02.02-.16.08-.41-.11-.89-.56-.99-.4-.09-.91.12-.99.56h0Z"/>
        <path class="cls-1" d="M626.45,295.7c-4.2,3.42-9.71,5.11-15.11,4.61-5.22-.48-10.11-3.07-13.59-6.96-.69-.77-1.83.37-1.14,1.14,3.77,4.22,9.1,6.91,14.73,7.43,5.84.54,11.73-1.39,16.25-5.08.8-.66-.34-1.79-1.14-1.14h0Z"/>
      </g>
      <g>
        <g>
          <circle class="cls-2" cx="623.4" cy="340.32" r="29.57"/>
          <path class="cls-1" d="M623.38,370.59c-7.12,0-14.27-2.49-20.02-7.56h0c-6.07-5.35-9.69-12.75-10.2-20.82-.51-8.07,2.16-15.86,7.51-21.93,5.35-6.07,12.74-9.69,20.82-10.2,8.08-.51,15.86,2.16,21.93,7.51,12.53,11.05,13.73,30.22,2.68,42.75-5.98,6.78-14.34,10.24-22.73,10.24ZM604.31,361.96c11.93,10.52,30.2,9.38,40.73-2.56,10.52-11.93,9.38-30.2-2.56-40.73-5.78-5.1-13.2-7.63-20.89-7.16-7.69.48-14.74,3.93-19.83,9.71-5.1,5.78-7.64,13.2-7.16,20.89.48,7.69,3.93,14.74,9.71,19.83Z"/>
        </g>
        <path class="cls-1" d="M645.48,339.44c1.04,0,1.04-1.61,0-1.61s-1.04,1.61,0,1.61h0Z"/>
        <path class="cls-1" d="M644.18,346.87c1.04,0,1.04-1.61,0-1.61s-1.04,1.61,0,1.61h0Z"/>
        <path class="cls-1" d="M640.54,336.91c-1.62.5-2.81,1.91-3.08,3.58s.32,3.38,1.67,4.46c.34.27.81.33,1.14,0,.28-.28.34-.87,0-1.14-.92-.74-1.42-1.8-1.25-2.95.16-1.07.86-2.07,1.95-2.4.99-.31.57-1.86-.43-1.55h0Z"/>
        <path class="cls-1" d="M612.19,362.41c-4.76-2.03-8.71-5.68-11.02-10.32-2.64-5.3-2.83-11.6-.77-17.12.36-.97-1.19-1.39-1.55-.43-2.18,5.85-1.9,12.49.81,18.12,2.39,4.96,6.65,8.99,11.72,11.14.94.4,1.77-.99.81-1.39h0Z"/>
      </g>
      <g>
        <g>
          <circle class="cls-2" cx="663.1" cy="292.65" r="17.92"/>
          <path class="cls-1" d="M663.13,311.29c-.56,0-1.13-.03-1.69-.08-4.96-.44-9.45-2.79-12.64-6.61-3.19-3.82-4.71-8.66-4.26-13.61.44-4.96,2.79-9.45,6.61-12.64,3.82-3.19,8.66-4.71,13.61-4.26,4.96.44,9.45,2.79,12.64,6.61,3.19,3.82,4.71,8.66,4.26,13.61-.44,4.96-2.79,9.45-6.61,12.64-3.38,2.83-7.56,4.34-11.92,4.34ZM663.07,275.44c-4.02,0-7.88,1.39-11,4-3.53,2.95-5.69,7.09-6.1,11.67-.41,4.58.99,9.04,3.93,12.57,2.95,3.53,7.09,5.69,11.67,6.1,4.58.41,9.04-.99,12.57-3.93,3.53-2.95,5.69-7.09,6.1-11.67h0c.41-4.58-.99-9.04-3.93-12.57-2.95-3.53-7.09-5.69-11.67-6.1-.52-.05-1.05-.07-1.57-.07Z"/>
        </g>
        <path class="cls-1" d="M654.35,283.27c1.04,0,1.04-1.61,0-1.61s-1.04,1.61,0,1.61h0Z"/>
        <path class="cls-1" d="M658.45,281.24c1.04,0,1.04-1.61,0-1.61s-1.04,1.61,0,1.61h0Z"/>
        <path class="cls-1" d="M655.18,285.81c.93.68,2.19.66,3.19.15s1.63-1.6,1.67-2.73c.02-.42-.38-.83-.81-.81-.45.02-.79.35-.81.81,0,.05,0,.1,0,.16,0,.1.03-.15,0,0-.02.1-.04.2-.07.3-.02.05-.03.1-.05.15-.04.11.09-.16,0,0-.05.09-.1.18-.15.26s0,0,.03-.03c-.03.02-.06.07-.09.1-.06.07-.12.13-.19.19-.1.09-.01.05.02,0-.02.03-.08.06-.11.08-.08.05-.15.1-.23.14-.03.02-.09.03-.12.06.03-.03.15-.06.04-.02-.09.03-.17.06-.26.08-.04.01-.09.02-.13.03-.18.03.03,0,.03,0,0,0-.25.01-.27.01-.05,0-.09,0-.14,0-.02,0-.04,0-.06,0-.06,0-.04,0,.06,0,0,.01-.28-.07-.3-.08-.03,0-.1-.02-.12-.04.09.04.1.04.05.02-.02,0-.04-.02-.06-.03-.1-.05-.2-.11-.29-.18-.34-.25-.91-.07-1.1.29-.22.42-.07.83.29,1.1h0Z"/>
        <path class="cls-1" d="M677.62,290.36c1.52,6.59-2.44,13.26-8.93,15.12-1,.28-.57,1.84.43,1.55,3.37-.97,6.33-3.13,8.23-6.09,2.08-3.24,2.68-7.28,1.82-11.02-.23-1.01-1.79-.58-1.55.43h0Z"/>
      </g>
      <g>
        <g>
          <circle class="cls-2" cx="559.96" cy="206.34" r="17.92"/>
          <path class="cls-1" d="M559.97,224.98c-.55,0-1.11-.02-1.68-.07-4.96-.44-9.45-2.79-12.64-6.61-3.19-3.82-4.71-8.66-4.26-13.61.44-4.96,2.79-9.45,6.61-12.64,3.82-3.19,8.66-4.71,13.61-4.26,10.24.92,17.82,9.99,16.9,20.23h0c-.87,9.67-9.02,16.98-18.55,16.98ZM559.93,189.13c-4.02,0-7.88,1.39-11,4-3.53,2.95-5.69,7.09-6.1,11.67-.41,4.58.99,9.04,3.93,12.57,2.95,3.53,7.09,5.69,11.67,6.1,9.46.86,17.83-6.15,18.67-15.6l.71.06-.71-.06c.85-9.45-6.15-17.83-15.6-18.67-.52-.05-1.05-.07-1.57-.07Z"/>
        </g>
        <g>
          <path class="cls-1" d="M551.21,196.96c1.04,0,1.04-1.61,0-1.61s-1.04,1.61,0,1.61h0Z"/>
          <path class="cls-1" d="M555.31,194.93c1.04,0,1.04-1.61,0-1.61s-1.04,1.61,0,1.61h0Z"/>
          <path class="cls-1" d="M552.04,199.5c.93.68,2.19.66,3.19.15s1.63-1.6,1.67-2.73c.02-.42-.38-.83-.81-.81-.45.02-.79.35-.81.81,0,.05,0,.1,0,.16,0,.1.03-.15,0,0-.02.1-.04.2-.07.3-.02.05-.03.1-.05.15-.04.11.09-.16,0,0-.05.09-.1.18-.15.26s0,0,.03-.03c-.03.02-.06.07-.09.1-.06.07-.12.13-.19.19-.1.09-.01.05.02,0-.02.03-.08.06-.11.08-.08.05-.15.1-.23.14-.03.02-.09.03-.12.06.03-.03.15-.06.04-.02-.09.03-.17.06-.26.08-.04.01-.09.02-.13.03-.18.03.03,0,.03,0,0,0-.25.01-.27.01-.05,0-.09,0-.14,0-.02,0-.04,0-.06,0-.06,0-.04,0,.06,0,0,.01-.28-.07-.3-.08-.03,0-.1-.02-.12-.04.09.04.1.04.05.02-.02,0-.04-.02-.06-.03-.1-.05-.2-.11-.29-.18-.34-.25-.91-.07-1.1.29-.22.42-.07.83.29,1.1h0Z"/>
          <path class="cls-1" d="M574.48,204.05c1.52,6.59-2.44,13.26-8.93,15.12-1,.28-.57,1.84.43,1.55,3.37-.97,6.33-3.13,8.23-6.09,2.08-3.24,2.68-7.28,1.82-11.02-.23-1.01-1.79-.58-1.55.43h0Z"/>
        </g>
      </g>
      <g>
        <g>
          <circle class="cls-2" cx="655.2" cy="240.44" r="17.92"/>
          <path class="cls-1" d="M655.23,259.08c-.34,0-.67,0-1.01-.03-4.97-.26-9.54-2.45-12.87-6.15-6.87-7.64-6.25-19.45,1.4-26.32,3.7-3.33,8.49-5.01,13.45-4.75,4.97.26,9.54,2.45,12.87,6.15,3.33,3.7,5.02,8.48,4.75,13.45-.26,4.97-2.45,9.54-6.15,12.87-3.45,3.1-7.84,4.78-12.44,4.78ZM655.18,223.23c-4.25,0-8.3,1.55-11.48,4.41-7.05,6.34-7.63,17.25-1.29,24.3,6.35,7.05,17.25,7.63,24.3,1.29h0c3.42-3.07,5.43-7.29,5.68-11.88.24-4.59-1.31-9-4.39-12.42s-7.29-5.43-11.88-5.68c-.31-.02-.62-.02-.93-.02Z"/>
        </g>
        <path class="cls-1" d="M655.73,227.83c1.04,0,1.04-1.61,0-1.61s-1.04,1.61,0,1.61h0Z"/>
        <path class="cls-1" d="M660.12,229.14c1.04,0,1.04-1.61,0-1.61s-1.04,1.61,0,1.61h0Z"/>
        <path class="cls-1" d="M654.06,230.02c.21,1.12,1.13,1.99,2.2,2.29s2.29-.02,3.1-.83c.3-.3.32-.85,0-1.14s-.82-.32-1.14,0c-.04.04-.08.08-.12.11-.01.01-.12.1-.04.04.08-.07-.06.04-.08.05-.04.02-.07.05-.11.07-.05.03-.1.05-.14.08-.02,0-.15.06-.05.03.11-.04-.07.02-.09.03-.04.01-.08.02-.13.04-.05.01-.1.02-.14.03-.11.03.15,0,.04,0-.09,0-.18.01-.27.01-.05,0-.1,0-.15,0-.02,0-.04,0-.06,0-.06,0-.04,0,.07,0-.03-.03-.22-.05-.26-.06-.02,0-.25-.09-.25-.08,0-.01.15.07.03,0-.04-.02-.09-.04-.13-.07-.06-.03-.19-.09-.22-.14.02.04.1.09.02.02-.04-.03-.07-.06-.11-.1-.07-.06-.13-.13-.19-.21.04.06.05.07,0,0-.03-.05-.06-.09-.09-.14-.02-.04-.04-.08-.06-.12-.05-.08.04.12,0-.02-.03-.1-.06-.21-.08-.32-.08-.42-.6-.69-.99-.56-.44.14-.65.55-.56.99h0Z"/>
        <path class="cls-1" d="M667.42,248.62c-3.37,5.85-10.77,8.11-16.82,5.05-.92-.47-1.74.92-.81,1.39,6.82,3.45,15.2,1.01,19.02-5.63.52-.9-.87-1.71-1.39-.81h0Z"/>
      </g>
      <g>
        <g>
          <circle class="cls-2" cx="668.83" cy="392.96" r="38.89"/>
          <path class="cls-1" d="M668.86,432.55c-11.24,0-22.41-4.75-30.23-13.97-14.13-16.65-12.07-41.7,4.58-55.82,16.65-14.13,41.7-12.07,55.82,4.58,6.84,8.07,10.14,18.32,9.27,28.86-.87,10.54-5.79,20.12-13.85,26.96-7.43,6.3-16.53,9.38-25.59,9.38ZM668.8,354.8c-8.73,0-17.5,2.97-24.66,9.05-7.78,6.6-12.52,15.82-13.35,25.99-.83,10.16,2.34,20.04,8.93,27.82,13.62,16.05,37.75,18.04,53.8,4.42,7.78-6.6,12.52-15.82,13.35-25.99.83-10.16-2.34-20.04-8.93-27.82-7.54-8.89-18.31-13.46-29.14-13.46Z"/>
        </g>
        <path class="cls-1" d="M670.4,367.02c1.04,0,1.04-1.61,0-1.61s-1.04,1.61,0,1.61h0Z"/>
        <path class="cls-1" d="M675.72,367.56c1.04,0,1.04-1.61,0-1.61s-1.04,1.61,0,1.61h0Z"/>
        <path class="cls-1" d="M665.01,369.12c.95,3.12,3.68,5.36,6.88,5.87,3.25.52,6.44-.68,8.51-3.25.64-.8-.49-1.95-1.14-1.14-1.69,2.11-4.23,3.24-6.94,2.84s-4.96-2.15-5.75-4.75c-.3-.99-1.86-.57-1.55.43h0Z"/>
        <path class="cls-1" d="M695.59,411.98c-5.91,9.73-17.32,15.14-28.6,13.4-3.33-.52-6.55-1.61-9.51-3.24-.91-.5-1.72.89-.81,1.39,5.53,3.05,11.99,4.33,18.26,3.57,5.81-.71,11.27-3.15,15.74-6.92,2.49-2.1,4.62-4.61,6.31-7.39.54-.89-.85-1.7-1.39-.81h0Z"/>
      </g>
      <path class="cls-1" d="M595.57,369.87c8.93,4.38,13.09,16.34,8.62,25.27-.46.93.93,1.74,1.39.81,3.78-7.55,2.02-17.07-3.59-23.25-1.58-1.75-3.49-3.19-5.61-4.23-.93-.45-1.75.94-.81,1.39h0Z"/>
      <path class="cls-1" d="M673.42,334.16c-.1-9.68,7.92-18.7,17.59-19.61,1.02-.1,1.03-1.71,0-1.61-10.53.99-19.31,10.6-19.2,21.22.01,1.04,1.62,1.04,1.61,0h0Z"/>
      <path class="cls-1" d="M562.49,184.85c15.3.07,30.6-2.46,45.09-7.37s28.2-12.15,40.34-21.46c1.09-.84,2.02-1.73,2.39-3.11.32-1.15.2-2.39-.28-3.48s-1.3-2.01-2.35-2.53c-1.4-.71-2.84-.55-4.36-.38-7.29.83-14.51,3.22-19.54,8.79-4.34,4.81-6.83,11.69-4.36,17.98,2.38,6.06,8.33,10.03,14.48,11.51,8.4,2.02,17.15-.16,25.39-1.92,8.74-1.86,17.49-3.72,26.23-5.58,2.22-.47,4.43-.94,6.65-1.41,1.01-.22.58-1.77-.43-1.55-8.28,1.76-16.56,3.52-24.83,5.29-4.06.86-8.12,1.74-12.19,2.59-4.08.85-8.19,1.61-12.36,1.75-6.71.21-13.73-1.49-18.46-6.55-2.1-2.25-3.54-5.13-3.81-8.21-.26-3.08.55-6.13,2.02-8.82,3.33-6.05,9.3-9.69,15.87-11.3,1.86-.46,3.75-.77,5.66-.98,1.35-.15,2.69-.32,3.83.57,1.8,1.41,1.82,4.1.11,5.57-2.67,2.3-5.74,4.27-8.68,6.2s-6.1,3.84-9.26,5.57c-6.3,3.47-12.87,6.45-19.63,8.9-13.53,4.91-27.81,7.76-42.21,8.25-1.78.06-3.55.08-5.33.08-1.04,0-1.04,1.61,0,1.61h0Z"/>
    </g>
    <g>
      <g>
        <path class="cls-2" d="M480.56,229.33s-.75,4.54-8.05,7.13h0c-3.2,1.13-7.64,1.89-13.84,1.73-13.65-.36-22.85-11.13-28.64-23.21-.39-.83-.77-1.66-1.14-2.5-2.11-4.8-3.69-9.71-4.83-14.17-3.17-12.39-3.5-25.53-.84-38.02-9.46,10.83-21.17,24.42-32.37,38-7.57,9.17-14.92,18.33-21.16,26.64h-192.77c1.48-18.79,3.93-35.39,7.08-48.48l34.47-.58,21.07-.36L371.18,27.96s12.82-14.6,21.97-9.05c7.37,4.48,8.85,11.77,10.68,29.49,4.97-2.87,10.83-4.22,16.03-1.78,10.71,5.04,11.17,23.99,13.2,33.82,4.33-1.89,9.09-2.47,13.4-.45,7.42,3.5,14.92,20.26,22.98,67.3,1.55,9,3.11,19.1,4.69,30.43,1.94,13.84,3.91,29.5,5.93,47.22.16,1.45.33,2.92.49,4.39Z"/>
        <path class="cls-2" d="M430.02,214.99c-4.11,5.08-10.49,9.39-16.19,9.39-10.83,0-20.01-11.01-22.98-26.08,11.2-13.58,22.91-27.17,32.37-38-2.67,12.49-2.33,25.63.84,38.02,1.14,4.46,2.72,9.37,4.83,14.17.37.84.75,1.67,1.14,2.5Z"/>
      </g>
      <g>
        <g>
          <path class="cls-1" d="M232.21,184.44c-.17,0-.34-.06-.48-.18-.3-.26-.32-.72-.06-1.01L370.64,27.48c.54-.61,13.33-14.98,22.88-9.18,7.68,4.66,9.19,12.33,11.03,30.03.04.39-.24.75-.64.79-.39.04-.75-.25-.79-.64-1.82-17.56-3.19-24.61-10.35-28.95-8.53-5.18-20.94,8.77-21.07,8.91l-138.97,155.77c-.14.16-.34.24-.53.24Z"/>
          <path class="cls-1" d="M308.87,153.63l-1.07-.95s87.84-98.46,88.04-98.69c5.89-6.6,16.01-11.92,24.32-8.01,9,4.23,11.03,17.88,12.52,27.84.35,2.38.69,4.62,1.08,6.49.08.39-.17.77-.56.85-.39.07-.77-.17-.85-.56-.4-1.91-.73-4.17-1.09-6.57-1.52-10.18-3.41-22.85-11.71-26.76-7.65-3.6-17.1,1.45-22.64,7.66-.21.23-88.04,98.69-88.04,98.69Z"/>
          <path class="cls-1" d="M176.91,225.65c-.2,0-.39-.08-.53-.23s-.2-.34-.19-.54c1.47-18.57,3.92-35.37,7.1-48.59.08-.32.36-.54.68-.55l55.55-.94c.38-.03.72.31.73.7,0,.4-.31.72-.7.73l-54.99.93c-3.05,12.88-5.42,29.12-6.87,47.06h191.63c12.12-16.08,29.57-37.15,53.35-64.4.26-.3.71-.33,1.01-.07.3.26.33.71.07,1.01-23.9,27.38-41.39,48.51-53.5,64.6-.14.18-.35.29-.57.29h-192.77Z"/>
          <path class="cls-1" d="M460.25,238.93c-.53,0-1.07,0-1.61-.02-15.9-.41-25.32-14.44-30.42-26.14-1.94-4.42-3.57-9.22-4.87-14.28-3.22-12.59-3.51-25.84-.85-38.33v-.03c.97-4.55,2.33-8.96,4.02-13.12.15-.37.57-.54.93-.39.37.15.54.57.39.93-1.67,4.08-2.99,8.42-3.95,12.89,0,0,0,0,0,0-2.62,12.28-2.33,25.31.83,37.69,1.27,4.98,2.88,9.72,4.79,14.06,4.94,11.32,14,24.88,29.15,25.28,5.45.14,10.02-.43,13.58-1.69.02,0,.04-.01.05-.02,6.24-2.24,7.36-5.85,7.51-6.47-.16-1.44-.32-2.87-.48-4.28-1.99-17.49-3.99-33.37-5.93-47.2-1.56-11.13-3.13-21.36-4.69-30.41-.07-.39.19-.76.58-.83.4-.07.76.2.83.58,1.56,9.06,3.14,19.31,4.7,30.45,1.94,13.85,3.94,29.74,5.93,47.24.17,1.45.33,2.92.5,4.39,0,.07,0,.13,0,.2-.03.2-.91,4.98-8.51,7.69-.02,0-.04.01-.06.02-3.36,1.18-7.54,1.78-12.44,1.78Z"/>
          <path class="cls-1" d="M334.93,187.23c-.17,0-.34-.06-.48-.18-.3-.26-.32-.72-.06-1.01,3.59-4.02,87.84-98.46,88.04-98.69,5.88-6.59,16-11.91,24.32-8.01,8.84,4.17,16.05,25.08,23.38,67.83.07.39-.2.76-.58.83-.39.07-.76-.2-.83-.58-7.14-41.66-14.31-62.88-22.58-66.77-7.66-3.6-17.11,1.45-22.65,7.67-.35.39-87.16,97.7-88.04,98.69-.14.16-.34.24-.53.24Z"/>
          <path class="cls-1" d="M427.19,148c-.09,0-.18-.02-.27-.05-.37-.15-.54-.57-.39-.93.85-2.09,1.8-4.15,2.82-6.13.18-.35.61-.49.97-.31.35.18.49.61.31.97-1,1.94-1.93,3.96-2.77,6.01-.11.28-.38.45-.66.45Z"/>
          <path class="cls-1" d="M413.82,225.1c-10.86,0-20.6-10.97-23.69-26.69-.08-.39.18-.77.56-.84.39-.08.76.18.84.56,2.96,15.03,12.12,25.53,22.29,25.53,5.7,0,11.96-4.59,15.64-9.14.25-.31.7-.35,1.01-.11.31.25.36.7.11,1.01-3.61,4.46-10.17,9.67-16.76,9.67Z"/>
        </g>
        <g>
          <path class="cls-1" d="M480.55,229.33s-.75,4.54-8.05,7.13h0c-4.7-.89-8.81-5.22-11.51-11.52-2.13-4.94-3.38-11.1-3.38-17.77,0-16.17,7.38-29.29,16.51-29.45,1.94,13.84,3.91,29.5,5.93,47.22.16,1.45.33,2.92.49,4.39Z"/>
          <path class="cls-1" d="M472.51,237.18s-.1,0-.14-.01c-4.78-.9-9.17-5.26-12.03-11.94-2.25-5.22-3.44-11.46-3.44-18.05,0-16.74,7.56-30,17.22-30.17h.01c.36,0,.66.26.71.62,1.94,13.85,3.94,29.75,5.93,47.24.17,1.45.33,2.92.49,4.39,0,.07,0,.13,0,.2-.03.2-.91,4.98-8.51,7.69-.08.03-.16.04-.24.04ZM473.51,178.46c-8.43.75-15.18,13.4-15.18,28.7,0,6.4,1.15,12.44,3.32,17.49,2.64,6.15,6.56,10.17,10.8,11.06,6.13-2.24,7.23-5.8,7.38-6.42-.16-1.44-.32-2.87-.48-4.28-1.96-17.21-3.93-32.87-5.84-46.55Z"/>
        </g>
      </g>
      <g>
        <path class="cls-1" d="M405.5,180.85s7.07-8.15,11.41-5.62c4.35,2.54,4.89,5.07,4.89,5.07l.37-18.29-6.53,6.69-10.15,12.14Z"/>
        <path class="cls-1" d="M398.75,26.47s2.71,13.27,1.41,17.39c-1.31,4.12-7.24,13.37-7.24,13.37l9.35-7.74,2.01-1.31-3.62-18.9-1.91-2.81Z"/>
        <path class="cls-1" d="M427.7,56.32s2.3,19.21.29,22.72c-2.01,3.52-7.64,10.65-7.64,10.65l8.44-7.04,4.32-2.71-3.22-17.59-2.2-6.04Z"/>
      </g>
    </g>
    <g>
      <path class="cls-2" d="M475,289.13l-5.85,10.37-23.06,40.86-22.16,39.25c-1.12,1.97-3.18,3.21-5.45,3.26-4.46.09-13.98-.04-33.79-1.28-17.28-1.08-39.46-12.93-56.83-24.1-25.49-4.82-82.13-15.55-89.12-17.05-2.28-.49-8.36-1.23-16.2-2.05-12.66-1.33-29.88-2.9-42.96-4.06-1.48-10.58-2.62-22.3-3.32-34.83l187.64.21c14.59,2.56,29.54,5.17,39.86,5.89,2.26-2.54,4.76-5.36,7.52-8.47,28.83-32.59,53.65-20.3,62.36-14.14,1.97,1.39,2.55,4.05,1.37,6.15Z"/>
      <path class="cls-3" d="M377.98,334.19s-1.61,2.15,25.77-28.59"/>
      <path class="cls-3" d="M327.85,357.48c-16.16-10.4-28.15-20.21-28.15-20.21"/>
      <g>
        <path class="cls-1" d="M222.53,339.1s-.05,0-.08,0c-12.93-1.36-30.49-2.96-42.95-4.05-.33-.03-.6-.28-.65-.61-1.51-10.76-2.63-22.5-3.33-34.89-.01-.2.06-.39.19-.53.14-.14.32-.22.52-.22h0l187.64.21s.08,0,.12.01c13.7,2.41,29.23,5.14,39.79,5.88.39.03.69.37.66.76-.03.39-.37.7-.76.66-10.61-.74-26.15-3.48-39.87-5.89l-186.82-.21c.69,11.85,1.76,23.1,3.2,33.45,12.42,1.1,29.66,2.67,42.4,4.01.39.04.68.39.64.79-.04.37-.35.64-.71.64Z"/>
        <path class="cls-1" d="M327.85,358.2s-.09,0-.13-.01c-30.4-5.75-82.4-15.61-89.13-17.06-2.08-.45-7.51-1.13-16.12-2.04-.39-.04-.68-.39-.64-.79s.39-.68.79-.64c8.67.91,14.14,1.6,16.27,2.06,6.72,1.44,58.71,11.3,89.1,17.05.39.07.64.45.57.84-.07.34-.37.58-.7.58Z"/>
        <g>
          <path class="cls-1" d="M475,289.13l-5.85,10.37-23.06,40.86c-5.79-6.23-7.74-21.71-1.05-34.33,1.27-2.4,2.74-4.58,4.35-6.53,7.8-9.48,18.8-13.48,25.61-10.37Z"/>
          <path class="cls-1" d="M446.08,341.08c-.2,0-.39-.08-.52-.23-6.08-6.55-8-22.24-1.15-35.16,1.25-2.37,2.74-4.61,4.43-6.65,7.72-9.38,19.1-13.92,26.46-10.56.18.08.32.24.38.43.06.19.04.4-.06.57l-28.92,51.23c-.11.2-.31.33-.54.36-.03,0-.06,0-.08,0ZM469.81,288.79c-6.37,0-14.14,4.19-19.88,11.16-1.62,1.96-3.06,4.12-4.27,6.41-6.21,11.72-4.82,26.25.29,32.76l28.01-49.63c-1.28-.47-2.68-.69-4.16-.69Z"/>
        </g>
        <path class="cls-1" d="M377.89,334.98c-.14,0-.25-.09-.39-.2-.3-.24-.33-.71-.1-1.02.06-.08.13-.14.21-.19.62-.62,4.35-4.6,25.6-28.45,2.26-2.54,4.76-5.36,7.51-8.47,28.99-32.77,53.94-20.89,63.31-14.26,2.27,1.61,2.95,4.65,1.58,7.09-.19.34-.63.47-.98.27-.34-.19-.47-.63-.27-.98,1.01-1.79.51-4.03-1.16-5.21-9.06-6.41-33.19-17.87-61.41,14.04-2.75,3.11-5.25,5.93-7.52,8.47-10.28,11.54-17.67,19.79-21.97,24.53-2.07,2.28-3.13,3.44-3.73,3.98,0,.01-.02.03-.03.04h-.01c-.31.26-.5.36-.65.36Z"/>
        <path class="cls-1" d="M415.95,383.61c-5.28,0-14.69-.27-31.32-1.31-33.21-2.07-84.87-44.05-85.39-44.47-.31-.25-.35-.7-.1-1.01.25-.31.7-.35,1.01-.1.51.42,51.82,42.11,84.57,44.15,19.67,1.23,29.2,1.38,33.73,1.28,2-.04,3.86-1.15,4.84-2.9l22.16-39.25c.2-.34.63-.47.98-.27.34.19.47.63.27.98l-22.16,39.25c-1.23,2.18-3.55,3.57-6.06,3.63-.71.01-1.55.02-2.53.02Z"/>
        <path class="cls-1" d="M383.15,303.59s11,3.74,10.78,7.04c-.22,3.3-3.3,9.46-3.3,9.46l12.32-14.08-19.8-2.42Z"/>
        <polygon class="cls-1" points="225.46 300.02 177.39 315.19 176.45 299.78 225.46 300.02"/>
      </g>
    </g>
  </g>
</svg>