<?xml version="1.0" encoding="utf-8"?>
<!-- Generator: Adobe Illustrator 16.0.0, SVG Export Plug-In . SVG Version: 6.00 Build 0)  -->
<!DOCTYPE svg PUBLIC "-//W3C//DTD SVG 1.1//EN" "http://www.w3.org/Graphics/SVG/1.1/DTD/svg11.dtd">
<svg version="1.1" id="Layer_1" xmlns="http://www.w3.org/2000/svg" xmlns:xlink="http://www.w3.org/1999/xlink" x="0px" y="0px"
	 width="567px" height="209.173px" viewBox="53.798 55.966 567 209.173" style="enable-background:new 53.798 55.966 567 209.173;"
	 xml:space="preserve">
<style type="text/css">
<![CDATA[
	.st0{fill:#FFFFFF;}
	.st1{fill:#010101;}
]]>
</style>
<polygon class="st0" points="523.597,55.966 150.169,55.966 150.169,200.764 405.468,200.764 405.468,151.233 443.573,151.233 
	443.573,200.764 531.204,200.764 531.204,55.966 "/>
<path class="st1" d="M562.62,259.573V185.83h-12.008v73.743h-50.384V61.626h112.837v197.946L562.62,259.573L562.62,259.573z
	 M550.612,141.049h12.008V106.41h-12.008V141.049z M381.038,259.573V61.626h107.24V185.83h-62.396v73.743H381.038z M425.825,141.049
	h12.006V106.41h-12.006V141.049z M318.787,259.573V61.626h50.45v197.946L318.787,259.573L318.787,259.573z M256.395,259.573V185.83
	h-12.007v73.743h-50.467V61.626h50.446v73.738h12.007V61.626h50.406v90.167h-22.711v12.008h22.711v95.834L256.395,259.573z
	 M63.53,259.573V61.626h118.443v61.793h-68.037v12.007h68.037v50.403h-68.037v12.007h68.037v61.814L63.53,259.573z M562.7,259.573
	V185.83h-12.008v73.743h-50.464V61.626h112.837v197.946L562.7,259.573L562.7,259.573z M550.692,141.049H562.7V106.41h-12.008
	V141.049z M381.12,259.573V61.626h107.158V185.83h-62.396v73.743H381.12z M425.907,141.049h12.004V106.41h-12.004V141.049z
	 M318.787,259.573V61.626h50.45v197.946L318.787,259.573L318.787,259.573z M256.395,259.573V185.83h-12.007v73.743h-50.467V61.626
	h50.446v73.738h12.007V61.626h50.406v90.167h-22.711v12.008h22.711v95.834L256.395,259.573z M63.53,259.573V61.626h118.443v61.793
	h-68.037v12.007h68.037v50.403h-68.037v12.007h68.037v61.814L63.53,259.573z"/>
</svg>
