<svg width="26" height="25" viewBox="0 0 26 25" fill="none" xmlns="http://www.w3.org/2000/svg">
<path d="M24.8992 11.293L2.23601 0.627944C2.00783 0.519982 1.75365 0.479096 1.50312 0.510052C1.25259 0.541008 1.01601 0.64253 0.820965 0.802786C0.625919 0.963043 0.480436 1.17543 0.401472 1.4152C0.322507 1.65497 0.313314 1.91225 0.374964 2.15704L2.9599 12.4995L0.374964 22.8419C0.312737 23.0868 0.321529 23.3443 0.400309 23.5844C0.479089 23.8244 0.624602 24.0371 0.819825 24.1975C1.01505 24.3579 1.25191 24.4594 1.5027 24.4901C1.75349 24.5208 2.00785 24.4795 2.23601 24.371L24.8992 13.7059C25.1282 13.5983 25.3219 13.4277 25.4575 13.214C25.5932 13.0004 25.6652 12.7525 25.6652 12.4995C25.6652 12.2464 25.5932 11.9985 25.4575 11.7849C25.3219 11.5713 25.1282 11.4006 24.8992 11.293ZM3.64246 20.7609L4.76096 16.2855L12.3331 12.4995L4.76096 8.71337L3.64246 4.23806L21.1998 12.4995L3.64246 20.7609Z" fill="#F45B69"/>
</svg>
