<svg width="334" height="333" viewBox="0 0 334 333" fill="none" xmlns="http://www.w3.org/2000/svg">
    <path d="M237.323 100.406C223.902 117.504 228.012 101.98 203.626 149.068C177.567 199.399 174.279 261.276 190.157 315.768C190.472 316.846 192.222 325.166 193.531 325.166H13.756C8.55569 251.267 44.5567 200.831 46.6693 197.949C46.7362 197.863 46.7649 197.815 46.7649 197.815C62.1174 172.368 86.7426 154.115 113.853 142.847C134.702 134.173 157.11 130.433 178.8 124.527C189.755 121.55 206.666 118.783 217.048 114.136C234.752 106.207 231.76 106.608 237.323 100.406Z" fill="#070600" stroke="#EEF0F2" stroke-width="3" stroke-linecap="round" stroke-linejoin="round"/>
    <path d="M237.218 102.591C224.074 115.31 213.539 130.71 206.513 147.903C202.928 156.653 200.252 165.87 198.608 175.431C197.346 182.682 196.677 190.134 196.648 197.729V198.273C196.648 255.465 232.725 304.242 283.4 323.172C297.204 328.334 312.098 331.282 327.632 331.569H332.192V1.43115H1.4339V5.6676C6.61513 74.5671 64.2683 128.868 134.626 128.868C172.424 125.529 207.364 117.886 237.218 102.591Z" fill="#070600" stroke="#EEF0F2" stroke-width="3" stroke-miterlimit="10"/>
    <path d="M282.081 60.5791C280.666 63.5465 228.242 111.359 222.458 115.214L282.081 60.5791Z" fill="#070600"/>
    <path d="M282.176 60.6267C278.008 65.9509 272.923 70.4927 268.2 75.3112C256.117 87.095 243.833 98.6689 231.186 109.832C228.576 111.998 225.976 114.222 222.85 115.891L221.961 115.491C224.256 113.153 227.123 110.033 229.628 107.81C247.284 92.4287 265.237 76.3607 282.196 60.6172L282.176 60.6267Z" fill="#EEF0F2"/>
    <path d="M17.6276 14.875C16.6047 31.401 22.7993 48.2513 34.2898 60.1973C45.7802 72.1434 62.3946 79.0037 78.9803 78.6602" fill="#070600"/>
    <path d="M16.1937 14.8751C15.4194 28.0711 19.0711 41.4579 26.3363 52.4974C33.6493 63.6038 44.528 71.9622 57.0413 76.4563C64.058 78.9752 71.5239 80.2156 78.9803 80.0821C80.8253 80.0534 80.8253 77.191 78.9803 77.2196C66.1993 77.4486 53.5426 73.4221 43.1705 65.9987C32.7985 58.5754 25.323 47.8316 21.6044 35.7711C19.5204 29.0062 18.6505 21.9454 19.0711 14.8751C19.1763 13.0336 16.3084 13.0431 16.2033 14.8751H16.1937Z" fill="#EEF0F2"/>
    <path d="M256.318 282C262.799 300.234 281.106 313.631 300.483 314.308L256.318 282Z" fill="#070600"/>
    <path d="M254.932 282.382C260.237 297.105 272.693 308.698 287.568 313.468C291.745 314.814 296.095 315.568 300.483 315.739C302.328 315.816 302.328 312.953 300.483 312.877C285.876 312.304 271.871 304.394 263.449 292.534C261.06 289.166 259.1 285.502 257.704 281.619C257.083 279.901 254.311 280.636 254.942 282.382H254.932Z" fill="#EEF0F2"/>
    <path d="M20.8397 314.299C26.8908 282.096 34.9972 249.846 50.6939 221.078C66.3905 192.31 90.4422 167.054 121.071 155.279" fill="#070600"/>
    <path d="M22.2258 314.68C27.3114 287.64 33.7736 260.561 45.1685 235.4C55.1677 213.32 69.0959 192.863 87.6412 177.063C97.6978 168.494 109.112 161.424 121.463 156.653C123.164 155.995 122.428 153.228 120.698 153.896C98.2331 162.579 79.248 178.313 64.5838 197.214C48.3231 218.187 37.6165 242.794 30.141 268.108C25.6959 283.155 22.35 298.507 19.4535 313.917C19.1189 315.72 21.8816 316.493 22.2162 314.68H22.2258Z" fill="#EEF0F2"/>
    <path d="M315.243 315.93L310.75 315.901C310.157 315.901 309.459 315.844 309.144 315.339C308.608 314.499 309.708 313.554 310.654 313.249C313.111 312.457 315.835 312.486 318.273 313.344C317.642 314.289 316.323 314.699 315.271 314.279" fill="#070600"/>
    <path d="M315.243 314.499C313.77 314.499 312.308 314.48 310.836 314.47C310.702 314.47 310.578 314.47 310.444 314.47C310.386 314.47 310.32 314.47 310.262 314.46C310.444 314.489 310.444 314.489 310.281 314.46C310.042 314.289 310.434 314.651 310.195 314.432C310.31 314.537 310.396 314.604 310.434 314.766C310.453 314.823 310.444 315.3 310.434 314.995L310.377 315.128C310.463 314.995 310.453 314.995 310.358 315.128C310.444 315.033 310.539 314.938 310.635 314.861C310.444 315.014 310.731 314.813 310.788 314.775C310.817 314.756 311.189 314.594 310.922 314.689C311.065 314.632 311.209 314.594 311.352 314.546C311.667 314.451 311.992 314.375 312.317 314.308C312.929 314.184 313.369 314.136 314.067 314.127C315.443 314.098 316.552 314.279 317.9 314.737L317.04 312.638C317.212 312.399 316.973 312.695 316.944 312.733C316.772 312.924 317.021 312.705 316.896 312.781C316.81 312.838 316.715 312.886 316.629 312.943C316.839 312.8 316.6 312.953 316.504 312.982C316.466 312.991 316.132 313.058 316.323 313.029C316.514 313.001 316.179 313.029 316.141 313.029C316.007 313.029 315.797 312.934 316.027 313.029C315.912 312.982 315.788 312.962 315.663 312.924C314.956 312.667 314.057 313.211 313.895 313.926C313.713 314.737 314.143 315.415 314.899 315.691C316.629 316.321 318.493 315.539 319.516 314.098C320.089 313.296 319.458 312.275 318.655 311.999C316.982 311.426 315.166 311.178 313.398 311.312C311.629 311.445 309.641 311.741 308.408 313.02C307.767 313.688 307.394 314.613 307.652 315.539C307.911 316.464 308.8 317.123 309.746 317.275C310.606 317.418 311.486 317.371 312.356 317.371L315.233 317.39C315.979 317.39 316.705 316.731 316.667 315.959C316.629 315.186 316.036 314.537 315.233 314.527L315.243 314.499Z" fill="#EEF0F2"/>
</svg>
