<svg width="32" height="32" viewBox="0 0 32 32" fill="none" xmlns="http://www.w3.org/2000/svg">
<g clip-path="url(#clip0_7522_19090)">
<g clip-path="url(#clip1_7522_19090)">
<path d="M31.2552 17.7137C31.4346 17.7137 31.5828 17.8477 31.5789 18.01C31.4054 25.7626 24.4028 32 15.7894 32C7.1761 32 0.173507 25.7626 -4.6812e-05 18.01C-0.00394689 17.8477 0.144256 17.7137 0.32366 17.7137H31.2533H31.2552Z" fill="#CAA8F5"/>
<path d="M0.171631 13.1239H10.1461L0.479737 9.65415L0.881445 8.74042L1.37481 8.91682L0.897046 8.71043L1.36701 7.82316L1.84477 8.03131L1.38456 7.79318L1.92277 6.93765L2.38103 7.17579L1.94227 6.90943L2.54288 6.09095L10.7701 11.0442L3.6193 4.87382L4.37007 4.16295L4.75422 4.49281L4.39737 4.14001L5.20078 3.47676L5.55764 3.83132L5.22808 3.4556L6.08025 2.84527L6.40981 3.22099L6.11145 2.82586L7.00847 2.27022L12.5836 9.65063L8.51 1.50642L9.50062 1.10071L9.71903 1.53641L9.53377 1.08836L10.5536 0.746155L10.7369 1.1942L10.5887 0.735571L11.632 0.45863L11.7802 0.917259L11.6671 0.451574L12.7299 0.239899L14.8437 8.9715L14.4381 0.0405711L15.5243 0L15.5457 0.478033L15.5613 0L16.6475 0.0282234L16.6319 0.506257L16.6846 0.0299873L17.7668 0.127005L17.7142 0.603274L17.8039 0.132297L18.8745 0.296345L17.2189 9.10909L20.5417 0.689708L21.5655 1.02133L21.3881 1.47114L21.6006 1.03368L22.5971 1.42881L22.3845 1.86627L22.6302 1.44292L23.5916 1.89802L23.3459 2.32314L23.6248 1.91566L24.5491 2.43074L19.3639 10.0422L25.9317 3.36211L26.7448 4.01477L26.3938 4.37286L26.7702 4.0377L27.5307 4.74152L27.1543 5.07491L27.556 4.76622L28.26 5.5159L27.8583 5.8246L28.2834 5.54236L28.9269 6.33262L19.5297 12.5911L30.3212 8.57637L30.7366 9.48481L30.2451 9.66827L30.7483 9.51656L31.0915 10.4515L30.5884 10.6014L31.1012 10.4832L31.3703 11.4358L24.0733 13.1239H31.4503V16.0908H0.171631V13.1239Z" fill="#CAA8F5"/>
</g>
</g>
<defs>
<clipPath id="clip0_7522_19090">
<rect width="31.5789" height="32" fill="white"/>
</clipPath>
<clipPath id="clip1_7522_19090">
<rect width="31.5789" height="32" fill="white"/>
</clipPath>
</defs>
</svg>
