<svg width="119" height="121" viewBox="0 0 119 121" fill="none" xmlns="http://www.w3.org/2000/svg">
<g clip-path="url(#clip0_10116_5402)">
<path d="M60.4004 120.745H58.4339C42.4259 120.745 27.935 114.258 17.4471 103.773C7.37532 93.7048 0.989779 79.9399 0.5 64.6914L118.334 64.6988C117.333 95.8216 91.7757 120.745 60.4004 120.745Z" fill="#333366"/>
<path d="M88.5753 52.7085L115.532 39.5622L109.75 27.7116L82.9226 40.7918L101.299 17.2784L90.9063 9.16087L72.5304 32.6742L78.7355 3.48779L65.8318 0.745117L59.6267 29.9352L52.4053 0.980729L39.6084 4.16885L46.8262 33.1233L27.6401 10.2653L17.5352 18.74L36.7213 41.598L9.45566 29.464L4.09019 41.5096L29.2494 52.7085H0.333984V60.8335H118.198V52.7085H88.5753Z" fill="#333366"/>
</g>
<defs>
<clipPath id="clip0_10116_5402">
<rect width="118" height="120" fill="white" transform="translate(0.333984 0.745117)"/>
</clipPath>
</defs>
</svg>
