<svg width="35" height="32" viewBox="0 0 35 32" fill="none" xmlns="http://www.w3.org/2000/svg">
<path d="M15.2514 16.3952C16.9997 18.7489 18.6593 21.1702 20.1939 23.6527C20.9531 24.8988 21.6826 26.161 22.3464 27.4457C22.6783 28.0865 22.9938 28.7336 23.2699 29.3873C23.4079 29.7125 23.536 30.0409 23.6379 30.3597C23.6905 30.5174 23.7365 30.6752 23.7661 30.8169C23.7825 30.8877 23.7924 30.9521 23.799 31.0004V31.0423C23.799 31.0423 23.8022 31.0423 23.8055 31.0423C23.8055 31.0358 23.8055 31.0326 23.8055 31.0262V31.0165L23.8121 30.9972L23.8187 30.9779V30.9682L23.8285 30.9489C23.8384 30.9231 23.8482 30.907 23.868 30.8748C23.891 30.8362 23.914 30.8072 23.9534 30.7686C23.9961 30.7235 24.0454 30.6913 24.1046 30.6591C24.1637 30.6269 24.2327 30.6076 24.2853 30.5979C24.3149 30.5915 24.3412 30.5883 24.3708 30.5883C24.397 30.5883 24.4135 30.5883 24.4332 30.5883C24.4529 30.5883 24.4726 30.5915 24.4923 30.5947L24.5285 30.6012C24.5811 30.6173 24.5942 30.6237 24.6139 30.6334C24.6337 30.643 24.6304 30.6462 24.6172 30.6334C24.6041 30.6269 24.5844 30.6108 24.5646 30.5915C24.4759 30.5142 24.3642 30.3919 24.2623 30.2695C24.052 30.0151 23.8482 29.7254 23.6544 29.4324C23.2633 28.8399 22.8985 28.2153 22.5535 27.5777C21.8568 26.3059 21.2324 24.9857 20.6376 23.6495C20.0428 22.3133 19.494 20.9577 18.9682 19.5925C18.4457 18.2241 17.9494 16.846 17.4828 15.4582L16.7927 13.4072L16.5692 15.5484C16.3293 17.8538 16.0401 20.1528 15.6754 22.4388C15.4913 23.5819 15.2909 24.7217 15.051 25.8487C14.9294 26.4121 14.8012 26.9756 14.6533 27.5262C14.581 27.8031 14.5022 28.0768 14.4134 28.344C14.3707 28.4761 14.3247 28.6081 14.2754 28.7304C14.2524 28.7916 14.2261 28.8528 14.1998 28.9043C14.1867 28.9301 14.1735 28.9558 14.1637 28.9719C14.1538 28.9912 14.1407 29.0041 14.1571 28.988L14.1637 28.9816C14.1637 28.9816 14.1768 28.9687 14.1867 28.9655L14.1998 28.959L14.2196 28.9494C14.2393 28.9397 14.259 28.9333 14.2787 28.9268C14.2951 28.9236 14.3444 28.914 14.3773 28.914C14.4134 28.914 14.4463 28.9204 14.4824 28.9333C14.5186 28.9462 14.5515 28.9687 14.5646 28.9784C14.5843 28.9912 14.6007 29.0106 14.6139 29.0267C14.627 29.0395 14.6435 29.0685 14.6468 29.075C14.65 29.0814 14.6533 29.091 14.6533 29.0943V29.0846C14.6435 29.0556 14.6402 28.9912 14.6369 28.9333C14.6336 28.8077 14.6369 28.6692 14.65 28.534C14.6698 28.2571 14.7026 27.9738 14.7421 27.6936C14.8209 27.1269 14.9228 26.5602 15.0345 25.9968C15.2613 24.8666 15.5242 23.7397 15.8101 22.6159C16.3819 20.3717 17.0523 18.15 17.7654 15.9412L18.1532 14.7498L17.1706 15.5516C15.8528 16.627 14.489 17.6477 13.0529 18.5396C12.3332 18.9839 11.5938 19.3961 10.8347 19.7342C10.4535 19.9016 10.0657 20.0497 9.68125 20.1527C9.49064 20.201 9.29675 20.2397 9.11929 20.2526C9.07657 20.2526 9.03057 20.259 8.99113 20.2558H8.93198L8.8794 20.2493C8.81697 20.2429 8.76439 20.2204 8.77753 20.2236C8.7841 20.2236 8.79067 20.23 8.79067 20.2397C8.80053 20.2461 8.80382 20.2558 8.80711 20.2654C8.81368 20.2687 8.81039 20.2815 8.81367 20.2848C8.81367 20.2687 8.83996 20.2043 8.87282 20.1463C8.95169 20.0175 9.07657 19.8791 9.2146 19.7503C9.49393 19.4895 9.83569 19.2609 10.1873 19.0516C10.8939 18.633 11.6694 18.3046 12.4614 18.0244C14.0519 17.4674 15.7246 17.1229 17.4105 16.9039L18.2879 16.7912L17.6471 16.1923C17.3448 15.909 17.0424 15.6224 16.7467 15.3326C16.5988 15.1877 16.4542 15.0428 16.3129 14.8947C16.2406 14.8207 16.1716 14.7498 16.1059 14.6758C16.0401 14.6049 15.9711 14.5277 15.9251 14.4665C15.912 14.4504 15.9054 14.4375 15.9054 14.4375C15.9054 14.444 15.912 14.4375 15.9317 14.5019V14.5116C15.9317 14.5116 15.9415 14.5373 15.9415 14.5502C15.9448 14.5792 15.9481 14.6082 15.9448 14.6339C15.9448 14.6468 15.9448 14.6629 15.9383 14.6758C15.935 14.7048 15.9185 14.7563 15.8988 14.7981C15.8758 14.84 15.8462 14.8819 15.8101 14.9141C15.7772 14.9462 15.7312 14.9688 15.7148 14.9784C15.6688 15.0042 15.6096 15.0203 15.5538 15.0235C15.5406 15.0235 15.5275 15.0235 15.5143 15.0235H15.4848L15.465 15.0203C15.4387 15.0203 15.4092 15.0074 15.3895 15.001C15.3796 15.001 15.3599 14.9881 15.3566 14.9881C15.3566 14.9881 15.35 14.9881 15.35 14.9849L15.3599 14.9913C15.3599 14.9913 15.3862 15.0107 15.4026 15.0235C15.4683 15.075 15.5406 15.1394 15.6096 15.2071C15.7509 15.3391 15.8857 15.484 16.0171 15.6289C16.2735 15.9219 16.5133 16.2406 16.6514 16.5465L16.6612 16.5691L16.6744 16.5916C16.8584 16.891 17.049 17.1873 17.2593 17.4738C17.3645 17.6187 17.4729 17.7604 17.588 17.9021C17.6471 17.9729 17.7063 18.0437 17.7753 18.1178C17.8114 18.1564 17.8476 18.1919 17.9001 18.2402C17.9166 18.253 17.9264 18.2627 17.9527 18.282C17.9659 18.2917 17.9724 18.2981 17.9987 18.311L18.0316 18.3303C18.0546 18.3432 18.0809 18.3529 18.1039 18.3625L18.1269 18.369C18.1466 18.3754 18.163 18.3786 18.1828 18.3818C18.2222 18.3883 18.2616 18.3883 18.3011 18.385C18.3076 18.385 18.3668 18.3786 18.4128 18.3593C18.4588 18.3432 18.5048 18.3174 18.5442 18.2885C18.564 18.2724 18.5804 18.2563 18.5968 18.2402C18.6133 18.2208 18.6264 18.208 18.633 18.1951C18.6494 18.1693 18.6658 18.1436 18.679 18.1146C18.6921 18.0856 18.702 18.0566 18.7086 18.0244C18.7151 17.9954 18.7184 17.9536 18.7184 17.9536C18.7184 17.9343 18.7184 17.915 18.7184 17.8956C18.7184 17.8763 18.7151 17.857 18.7118 17.8377L18.7053 17.8151C18.7053 17.8151 18.6954 17.7862 18.6921 17.7701L18.6823 17.7443C18.6757 17.7282 18.6691 17.7121 18.6658 17.7057C18.6264 17.6252 18.6001 17.5865 18.5705 17.5414C18.541 17.4996 18.5147 17.4577 18.4884 17.4223C18.4325 17.345 18.3799 17.2742 18.3241 17.2034C18.2123 17.0617 18.1006 16.9265 17.9889 16.7912C17.7621 16.524 17.5321 16.2632 17.2988 16.0088L16.7105 16.7011C17.2955 17.0585 17.887 17.403 18.4917 17.7314C18.794 17.8956 19.0996 18.0534 19.4151 18.208C19.5728 18.2852 19.7306 18.3593 19.8982 18.4301C19.9803 18.4655 20.0658 18.501 20.1611 18.5364C20.2104 18.5525 20.2564 18.5718 20.3287 18.5911C20.3517 18.5976 20.3714 18.6008 20.3977 18.6072C20.4174 18.6104 20.4404 18.6137 20.4601 18.6137H20.4766C20.4766 18.6137 20.5061 18.6137 20.5193 18.6137C20.5489 18.6137 20.5784 18.6104 20.608 18.604H20.631C20.631 18.604 20.6737 18.5879 20.6967 18.5782C20.7526 18.5557 20.8118 18.5203 20.8578 18.4784C20.8808 18.4559 20.9005 18.4333 20.9202 18.4108C20.9366 18.3883 20.9531 18.3657 20.9662 18.3335C20.9958 18.2756 21.0122 18.1983 21.0122 18.1242C21.0122 18.0888 21.0089 18.0502 20.9991 18.018C20.9925 17.9826 20.9794 17.9536 20.9794 17.9536C20.9728 17.9375 20.9662 17.9214 20.9596 17.9085C20.9432 17.8795 20.9268 17.8473 20.9038 17.8216C20.8808 17.7926 20.8709 17.7829 20.8545 17.7668C20.8348 17.7475 20.8282 17.7411 20.8183 17.7346C20.746 17.6735 20.7033 17.6477 20.6606 17.6187C20.6179 17.5898 20.5751 17.5672 20.5357 17.5414C20.4568 17.4932 20.378 17.4481 20.2991 17.4062C20.1446 17.3225 19.9869 17.242 19.8325 17.1615C19.5235 17.007 19.2114 16.8588 18.8992 16.714C18.2748 16.4242 17.6471 16.1537 17.0194 15.8864L16.8485 16.8427C18.4259 16.7655 20.0033 16.5819 21.5577 16.2117C22.3333 16.0249 23.1056 15.7931 23.8581 15.4711C24.236 15.3069 24.6074 15.1233 24.9721 14.8786C25.1562 14.7531 25.3369 14.6178 25.5177 14.4118C25.6064 14.3055 25.705 14.1864 25.774 13.9674C25.7904 13.9191 25.8036 13.8483 25.8068 13.7774C25.8167 13.713 25.8036 13.6229 25.7871 13.5456C25.7707 13.4683 25.728 13.3846 25.6853 13.3138C25.6425 13.2526 25.5867 13.1882 25.5341 13.1431C25.4848 13.1045 25.4289 13.0659 25.3796 13.0369C25.3336 13.0143 25.2876 12.9918 25.2416 12.9725C25.1595 12.9467 25.074 12.921 25.005 12.9113C24.9689 12.9049 24.9327 12.8984 24.8966 12.8952L24.798 12.8855C24.729 12.8791 24.6731 12.8791 24.6107 12.8791C24.3675 12.8791 24.1506 12.9081 23.937 12.9403C23.5163 13.0111 23.1187 13.1174 22.7309 13.2397C21.9554 13.4844 21.2193 13.7839 20.4996 14.1123C19.0602 14.7724 17.6898 15.5387 16.3556 16.3533L17.2495 17.1808C18.3306 15.323 19.3691 13.4394 20.3287 11.5075C20.8085 10.5415 21.2685 9.56588 21.6958 8.56451C21.9094 8.06221 22.1131 7.55992 22.2971 7.03508C22.3892 6.77105 22.4779 6.50703 22.5535 6.22046C22.5929 6.07557 22.629 5.93068 22.6553 5.75036C22.6685 5.65699 22.6849 5.56683 22.6718 5.39296V5.36076L22.6619 5.31568C22.6553 5.28348 22.6553 5.26417 22.6389 5.21587C22.6323 5.19333 22.6258 5.17401 22.6192 5.15147L22.606 5.11927L22.583 5.07098C22.5666 5.03878 22.5502 5.00658 22.5305 4.9776C22.5239 4.96472 22.5042 4.93896 22.4877 4.91964C22.4713 4.8971 22.4516 4.87779 22.4319 4.85525C22.3661 4.78119 22.2216 4.68781 22.0868 4.65239C21.9652 4.61698 21.8075 4.6202 21.7385 4.63308C21.6958 4.63952 21.6465 4.65239 21.6103 4.66205C21.584 4.67171 21.5577 4.68137 21.5314 4.69103C21.5084 4.70069 21.4756 4.71679 21.4624 4.72645L21.4164 4.75221L21.3704 4.78119L21.3376 4.80373L21.2784 4.84881C21.2521 4.87134 21.2192 4.90354 21.1995 4.92286C21.1535 4.96794 21.1207 5.0098 21.0878 5.04522C21.0254 5.12249 20.9761 5.18689 20.9301 5.2545C20.838 5.38652 20.7592 5.51209 20.6836 5.63767C20.5357 5.8856 20.401 6.13353 20.2728 6.37823C20.0165 6.87087 19.7832 7.36351 19.5597 7.85614C19.1128 8.84464 18.702 9.84279 18.3076 10.8474C17.5255 12.8534 16.8157 14.8819 16.1486 16.92L17.8673 17.0134C17.6011 15.5677 17.3053 14.1252 16.9701 12.6859C16.6382 11.2499 16.2669 9.81703 15.843 8.39386C15.4157 6.97068 14.9425 5.56039 14.3674 4.16298C14.0782 3.46427 13.7628 2.76878 13.3848 2.07651C13.191 1.72877 12.9905 1.38425 12.7243 1.0204C12.5863 0.836873 12.445 0.656561 12.2051 0.440831C12.1426 0.386093 12.0736 0.328138 11.9816 0.266961C11.9422 0.237983 11.8765 0.202561 11.8239 0.173583C11.7943 0.157484 11.7549 0.138166 11.7187 0.125287C11.6826 0.109188 11.6497 0.0963054 11.6004 0.0769863C11.4394 0.019029 11.1436 -0.045365 10.8019 0.0447908C10.7164 0.0673297 10.6343 0.0963062 10.5554 0.138164C10.4765 0.176802 10.4009 0.225101 10.3418 0.270179C10.3122 0.292718 10.2826 0.318476 10.2531 0.344234L10.2103 0.382876L10.1775 0.418294C10.1347 0.466592 10.0953 0.514887 10.0592 0.566405C10.0066 0.646901 9.95072 0.746715 9.92443 0.811112C9.908 0.84653 9.89485 0.885169 9.8817 0.917367L9.85213 1.00752C9.81598 1.12666 9.80284 1.22004 9.78969 1.30697C9.76669 1.47762 9.76668 1.61608 9.76668 1.74487C9.77326 1.99924 9.79626 2.21819 9.82912 2.4307C9.89156 2.8525 9.98029 3.23888 10.0789 3.61882C10.2761 4.37548 10.516 5.09673 10.7723 5.80832C11.2882 7.22827 11.8765 8.59993 12.5041 9.94905C13.7562 12.6505 15.1627 15.2618 16.6317 17.8345C17.0227 18.5171 17.9034 18.7586 18.5968 18.3754C19.2935 17.9922 19.54 17.1293 19.1489 16.4499C19.1391 16.4338 19.1259 16.4113 19.1161 16.3952C18.3405 15.1716 17.5879 13.932 16.865 12.6795C16.142 11.427 15.4453 10.1648 14.7946 8.88006C14.1473 7.59856 13.536 6.30095 13.0102 4.98726C12.7473 4.33363 12.5074 3.67356 12.3135 3.02315C12.2182 2.70117 12.1328 2.37596 12.0802 2.07651C12.0539 1.9284 12.0342 1.78351 12.0276 1.67725C12.0243 1.62251 12.0276 1.58066 12.0276 1.571C12.0276 1.56778 12.0276 1.571 12.0178 1.6032C12.0178 1.61286 12.0112 1.6193 12.0079 1.62574C12.0046 1.63862 11.998 1.65471 11.9915 1.66759C11.9816 1.68691 11.952 1.75131 11.9225 1.78995C11.8995 1.82215 11.8765 1.85434 11.8469 1.88332L11.7976 1.93484C11.7779 1.95416 11.7582 1.97026 11.7352 1.98958C11.6924 2.01856 11.6398 2.0572 11.5807 2.08617C11.5215 2.11515 11.4624 2.13769 11.3999 2.15379C11.1469 2.22141 10.9465 2.16667 10.8742 2.14091L10.8183 2.11837C10.8183 2.11837 10.7854 2.10227 10.7789 2.09905C10.7657 2.09261 10.7427 2.07651 10.7394 2.07651C10.7263 2.06686 10.7263 2.06686 10.7361 2.0733C10.7723 2.09906 10.8676 2.20209 10.953 2.31156C11.1305 2.53373 11.3112 2.81708 11.4788 3.10687C11.8173 3.68966 12.1262 4.32075 12.4154 4.96472C12.9905 6.25588 13.4867 7.60178 13.9369 8.96377C14.3871 10.329 14.7881 11.7135 15.1528 13.1077C15.5143 14.5051 15.8364 15.9154 16.1289 17.3289L16.8387 20.7549L17.8476 17.4223C18.4621 15.3938 19.1128 13.3782 19.839 11.3915C20.2005 10.3998 20.5817 9.41455 20.9925 8.45182C21.1995 7.96884 21.4131 7.4923 21.6399 7.03186C21.7549 6.80325 21.8699 6.57464 21.9915 6.36213C22.0507 6.25588 22.1131 6.15284 22.1723 6.06591C22.2018 6.02083 22.2314 5.97897 22.2544 5.95321L22.2774 5.92746C22.2774 5.92746 22.2741 5.93067 22.2708 5.93389C22.2676 5.93711 22.2577 5.94355 22.2511 5.94677L22.215 5.96931L22.1887 5.98219C22.1887 5.98219 22.1558 5.99829 22.1427 6.00473C22.1263 6.01117 22.1065 6.01761 22.0901 6.02405C22.0638 6.03371 22.0244 6.04337 21.9882 6.04981C21.9357 6.05947 21.7943 6.06591 21.6892 6.03049C21.5709 6.00151 21.4427 5.91458 21.3868 5.85662C21.3704 5.84052 21.354 5.8212 21.3376 5.80188C21.3211 5.78256 21.308 5.76002 21.3014 5.75358C21.285 5.73104 21.2718 5.70528 21.2587 5.68274C21.2521 5.66987 21.2455 5.65699 21.2423 5.64411L21.2324 5.62157C21.2324 5.62157 21.2225 5.59581 21.2192 5.57971C21.2094 5.54429 21.2094 5.54429 21.2061 5.52819V5.49922C21.2028 5.45736 21.2061 5.50243 21.1962 5.53785C21.1864 5.62157 21.1601 5.73748 21.1338 5.85018C21.0779 6.07879 21.0024 6.3235 20.9202 6.56499C20.7592 7.05118 20.5719 7.53738 20.3747 8.02358C19.9803 8.99597 19.5465 9.95871 19.0898 10.9118C18.1795 12.8212 17.1837 14.7015 16.1453 16.5594L14.9392 18.7167L17.0391 17.3869C18.3274 16.5691 19.6484 15.806 21.0122 15.1523C21.6958 14.8271 22.3892 14.5309 23.0891 14.2991C23.4407 14.1831 23.7924 14.0866 24.1341 14.0222C24.3017 13.9932 24.4726 13.9706 24.6205 13.9674C24.6567 13.9674 24.6928 13.9674 24.7224 13.9674H24.7684L24.8045 13.9771C24.8341 13.9771 24.8374 13.9867 24.8505 13.9867C24.8505 13.9867 24.844 13.9867 24.844 13.9835C24.8374 13.9803 24.8177 13.9706 24.8111 13.9578C24.7947 13.9449 24.7684 13.9191 24.7552 13.8934C24.729 13.8644 24.7191 13.8257 24.7092 13.7935C24.6961 13.7613 24.7027 13.7195 24.6994 13.7034C24.6994 13.6809 24.7092 13.6583 24.706 13.6551C24.7224 13.6165 24.706 13.6583 24.6698 13.6969C24.6008 13.7807 24.4759 13.8837 24.3412 13.9771C24.0684 14.1671 23.7464 14.3313 23.4145 14.4794C22.7474 14.7724 22.0309 15.001 21.3014 15.1813C19.839 15.5451 18.3208 15.7383 16.796 15.8317L14.6106 15.9637L16.6251 16.788C17.2495 17.0456 17.8706 17.3064 18.4818 17.5833C18.7874 17.7218 19.093 17.8634 19.3888 18.0083C19.5367 18.0824 19.6846 18.1564 19.8259 18.2305C19.8982 18.2691 19.9672 18.3078 20.0329 18.3432L20.1249 18.3979C20.1512 18.414 20.1808 18.4366 20.1742 18.4301C20.1742 18.4301 20.1742 18.4301 20.1611 18.4172C20.1512 18.4076 20.1479 18.4044 20.1315 18.385C20.1151 18.3625 20.0986 18.3368 20.0855 18.311C20.0789 18.2981 20.0723 18.2852 20.0691 18.2724C20.0691 18.2724 20.0592 18.2466 20.0493 18.2112C20.0428 18.179 20.0362 18.1436 20.0362 18.1081C20.0362 18.0373 20.0526 17.9633 20.0822 17.9053C20.0986 17.8763 20.1118 17.8538 20.1282 17.8312C20.1446 17.8087 20.1644 17.7862 20.1874 17.7636C20.2301 17.7218 20.286 17.6863 20.3418 17.667C20.3615 17.6574 20.4075 17.6477 20.4043 17.6477H20.4207C20.4437 17.638 20.47 17.6348 20.493 17.6348C20.5061 17.6348 20.5193 17.6348 20.5291 17.6348H20.5357C20.5357 17.6348 20.5554 17.6348 20.5653 17.638C20.5719 17.638 20.5719 17.638 20.5719 17.638C20.562 17.638 20.5259 17.6252 20.4963 17.6155C20.4305 17.593 20.3583 17.564 20.286 17.5318C20.1381 17.4706 19.9902 17.403 19.8423 17.3322C19.5433 17.1905 19.2475 17.0392 18.9517 16.8846C18.3602 16.5723 17.7786 16.2406 17.2002 15.8993L14.4299 14.2508L16.6119 16.5916C16.842 16.8395 17.0687 17.0875 17.2889 17.3418C17.3973 17.4674 17.5058 17.5962 17.6077 17.7218C17.657 17.7862 17.7063 17.8473 17.7523 17.9117L17.8147 18.0019C17.8311 18.0276 17.8508 18.0631 17.8508 18.0566V18.047L17.841 18.0373C17.8377 18.0276 17.8344 18.018 17.8311 18.0083V17.9922C17.8246 17.9761 17.8213 17.96 17.8213 17.9407C17.8213 17.9246 17.8213 17.9053 17.8213 17.8892C17.8213 17.8892 17.8213 17.8506 17.8311 17.8216C17.8377 17.7926 17.8476 17.7636 17.8607 17.7346C17.8739 17.7057 17.887 17.6799 17.9067 17.6574C17.9133 17.6477 17.9264 17.6316 17.9429 17.6155C17.9593 17.5994 17.9757 17.5833 17.9954 17.5672C18.0316 17.5382 18.0776 17.5125 18.1236 17.4964C18.1663 17.4803 18.2255 17.4738 18.2321 17.4738C18.2682 17.4706 18.3043 17.4738 18.3405 17.4738C18.3602 17.4738 18.3766 17.4803 18.3931 17.4867L18.4128 17.4932C18.4325 17.4996 18.4522 17.5093 18.472 17.5189L18.4917 17.5286L18.5114 17.5414C18.5015 17.5318 18.4752 17.5093 18.4522 17.4835C18.4029 17.432 18.3504 17.374 18.3011 17.3128C18.1992 17.1905 18.1006 17.0617 18.002 16.9329C17.8081 16.6689 17.6241 16.3952 17.4466 16.1118L17.4729 16.1601C17.2593 15.7126 16.98 15.3681 16.6875 15.0332C16.5396 14.869 16.3852 14.7112 16.2209 14.5566C16.1387 14.4794 16.0533 14.4053 15.9547 14.328C15.9284 14.3087 15.9054 14.2894 15.8725 14.2669C15.8594 14.2572 15.8364 14.2443 15.8167 14.2314L15.7772 14.2089C15.7772 14.2089 15.7312 14.1864 15.7082 14.1767C15.6852 14.167 15.6458 14.1574 15.6162 14.1542H15.5932C15.5932 14.1542 15.5735 14.1477 15.5603 14.1477C15.5472 14.1477 15.5308 14.1477 15.5176 14.1477C15.4585 14.151 15.396 14.1671 15.3467 14.1928C15.327 14.2025 15.281 14.2282 15.2481 14.2604C15.212 14.2926 15.1791 14.3345 15.1561 14.3796C15.1331 14.4214 15.1167 14.4729 15.1134 14.5051C15.1134 14.5212 15.1101 14.5341 15.1101 14.5502C15.1101 14.5824 15.1101 14.6146 15.1134 14.6436C15.1134 14.6597 15.12 14.6758 15.1233 14.6887V14.7015C15.1397 14.737 15.1594 14.782 15.1627 14.7917C15.1693 14.8078 15.1824 14.8303 15.189 14.8368C15.2153 14.8819 15.2383 14.9108 15.258 14.9366C15.3402 15.0396 15.4125 15.1201 15.488 15.2006C15.5636 15.2811 15.6359 15.3584 15.7115 15.4357C15.8627 15.5902 16.0106 15.7383 16.165 15.8864C16.4673 16.1827 16.7762 16.4692 17.0819 16.7558L17.3185 16.0442C15.5866 16.2761 13.8613 16.6399 12.2018 17.2291C11.3737 17.5254 10.5587 17.8763 9.78641 18.3368C9.40192 18.5686 9.02728 18.8229 8.68223 19.1449C8.51134 19.3091 8.34374 19.483 8.19915 19.7213C8.13014 19.8469 8.06113 19.9757 8.03812 20.1721C8.03484 20.2204 8.03812 20.2783 8.03812 20.3298C8.04141 20.3846 8.06113 20.4458 8.07756 20.5037C8.10056 20.5617 8.13342 20.6164 8.16628 20.6679C8.20572 20.713 8.24844 20.7581 8.29116 20.7967C8.47519 20.9384 8.64279 20.9642 8.78739 20.9899L8.89583 21.0028C8.93198 21.0028 8.96484 21.0028 8.9977 21.0028C9.06671 21.0028 9.12915 21.0028 9.19488 20.9963C9.44792 20.977 9.67796 20.9255 9.90471 20.8676C10.3516 20.7452 10.769 20.581 11.1732 20.4007C11.9816 20.0368 12.744 19.6054 13.4834 19.1449C14.959 18.2176 16.3359 17.1744 17.6668 16.0796L17.072 15.69C16.3622 17.9117 15.7082 20.1527 15.1233 22.4131C14.8341 23.5433 14.5646 24.6799 14.3346 25.8293C14.2196 26.4025 14.1144 26.982 14.0289 27.5648C13.9862 27.8578 13.9501 28.1509 13.9271 28.4535C13.9172 28.6049 13.9074 28.7594 13.9106 28.9236C13.9106 29.0073 13.9139 29.091 13.9369 29.2037L13.9468 29.2488L13.9632 29.3036C13.9698 29.3229 13.9829 29.3486 13.9928 29.3712C14.0027 29.3937 14.0322 29.4356 14.0552 29.4646C14.075 29.4871 14.1012 29.5128 14.1275 29.5322C14.1473 29.5483 14.19 29.574 14.236 29.5901C14.282 29.6062 14.3247 29.6159 14.3707 29.6159C14.4134 29.6159 14.4693 29.6094 14.4956 29.603C14.5252 29.5933 14.5547 29.5837 14.581 29.5708C14.5975 29.5644 14.6073 29.5579 14.6139 29.5547L14.6369 29.5386C14.6369 29.5386 14.6665 29.5161 14.6796 29.5064L14.7059 29.4807C14.7749 29.413 14.8012 29.368 14.8308 29.3229C14.8571 29.2778 14.8801 29.2392 14.8998 29.2005C14.9392 29.1233 14.9721 29.0492 15.0017 28.9751C15.0608 28.8302 15.1134 28.6853 15.1594 28.5437C15.2547 28.2571 15.3369 27.9738 15.4157 27.6872C15.5702 27.1173 15.7082 26.5474 15.8331 25.9742C16.0861 24.8312 16.3063 23.6849 16.5068 22.5354C16.7072 21.3859 16.888 20.2332 17.0556 19.0805C17.2265 17.9278 17.3809 16.7719 17.5255 15.616L16.6119 15.7029C17.0556 17.11 17.5189 18.5106 18.0119 19.9048C18.5048 21.299 19.0273 22.6803 19.5827 24.0552C20.1414 25.4301 20.7395 26.7889 21.4066 28.1283C21.7418 28.798 22.0934 29.4613 22.491 30.1182C22.6915 30.4466 22.9018 30.7718 23.1483 31.097C23.2732 31.2612 23.4046 31.4254 23.5853 31.5993C23.6314 31.6444 23.6806 31.6895 23.7431 31.7378C23.8022 31.7861 23.8778 31.8376 23.9797 31.8923C24.0421 31.9213 24.098 31.9471 24.1966 31.9728C24.2196 31.9793 24.236 31.9825 24.2689 31.9889C24.2985 31.9921 24.3313 31.9986 24.3609 31.9986C24.3938 31.9986 24.42 32.0018 24.4595 31.9986C24.4989 31.9986 24.5416 31.9921 24.5811 31.9857C24.6567 31.9728 24.7487 31.9438 24.8275 31.902C24.9097 31.8601 24.9721 31.8086 25.0346 31.7506C25.0904 31.6959 25.1233 31.6476 25.1627 31.5897C25.1956 31.5381 25.212 31.4995 25.2318 31.4544L25.2449 31.4222L25.2548 31.3965L25.2712 31.3449L25.2843 31.2934L25.2942 31.2516L25.3073 31.1679L25.3139 31.1002C25.3205 31.0101 25.3205 30.936 25.3139 30.8684C25.3073 30.7332 25.2909 30.6173 25.2712 30.5078C25.2318 30.2888 25.1825 30.0924 25.1299 29.8992C25.0214 29.5128 24.8966 29.149 24.7651 28.7916C24.4989 28.0768 24.2064 27.3813 23.8975 26.6987C23.2764 25.3303 22.5995 24.0037 21.8896 22.69C21.1831 21.3763 20.4503 20.0787 19.6944 18.8004C19.3132 18.1597 18.9353 17.5189 18.5508 16.8846L17.3809 14.9817C17.0194 14.3924 16.2406 14.2025 15.6392 14.5566C15.0378 14.9108 14.8439 15.6739 15.2054 16.2632C15.2251 16.2954 15.2449 16.3243 15.2646 16.3533V16.3598L15.2514 16.3952Z" fill="#F45B69"/>
<path d="M17.2632 14.6861C14.7164 16.2445 12.1104 17.716 9.44855 19.0587C8.11434 19.7252 6.76698 20.3627 5.40319 20.9359C4.71965 21.2224 4.03283 21.4929 3.34272 21.7215C2.99766 21.8374 2.65261 21.9437 2.31741 22.0274C2.14981 22.0692 1.9855 22.1047 1.83433 22.1272C1.76204 22.1369 1.68974 22.1465 1.63716 22.1497H1.60429C1.60429 22.1497 1.59115 22.1497 1.58786 22.1497C1.58786 22.1497 1.58787 22.1497 1.59115 22.1497L1.60101 22.153C1.61087 22.153 1.61415 22.1562 1.6273 22.1626C1.64373 22.1691 1.66344 22.1755 1.67659 22.1852C1.69959 22.1948 1.73574 22.2141 1.75875 22.2367C1.78832 22.2592 1.83762 22.3011 1.8672 22.3429C1.94935 22.4395 1.99865 22.5909 1.99865 22.6971C1.99865 22.8066 1.97564 22.8645 1.96249 22.9032C1.95592 22.9193 1.94934 22.9322 1.94278 22.945C1.94278 22.9515 1.9362 22.9579 1.93291 22.9611C1.92306 22.9708 1.92963 22.9676 1.92635 22.9676L1.9395 22.9515C1.9395 22.9515 1.97236 22.9161 1.99208 22.8967C2.08738 22.8098 2.21882 22.71 2.35684 22.6166C2.63617 22.4266 2.94836 22.2463 3.26713 22.0725C3.90466 21.7279 4.57506 21.4092 5.25202 21.1097C6.61253 20.5108 8.00918 19.9796 9.42227 19.4805C12.2517 18.492 15.1436 17.6581 18.0618 16.9207L19.8134 16.4796L18.0618 16.0674C15.8107 15.5394 13.5728 14.9437 11.3677 14.2643C10.2668 13.923 9.17251 13.5527 8.10448 13.1406C7.56882 12.9345 7.03974 12.7156 6.52709 12.4773C6.27076 12.3582 6.01772 12.2326 5.77782 12.0974C5.65952 12.0298 5.54121 11.9589 5.43605 11.8881C5.38347 11.8527 5.33418 11.814 5.29475 11.7818C5.25531 11.7528 5.22245 11.7046 5.2356 11.7271C5.2356 11.7271 5.24217 11.7367 5.24546 11.7464C5.24546 11.7496 5.24545 11.7561 5.24874 11.7593C5.24874 11.7689 5.25531 11.7786 5.25531 11.785C5.25531 11.7947 5.25531 11.8011 5.25531 11.814C5.25531 11.8269 5.25531 11.843 5.25531 11.8559C5.25203 11.8816 5.24216 11.9171 5.22902 11.946C5.21259 11.975 5.19944 11.9943 5.17973 12.0169C5.16658 12.033 5.15343 12.0426 5.137 12.0523C5.12714 12.0587 5.12058 12.062 5.11401 12.0652C5.10415 12.0652 5.10744 12.0684 5.10415 12.0684C5.09429 12.0684 5.11072 12.0684 5.13043 12.0652C5.15015 12.0652 5.17644 12.0652 5.20273 12.0652C5.31446 12.0652 5.44591 12.0845 5.57736 12.1038C5.84355 12.1489 6.1163 12.2133 6.38906 12.2873C6.93458 12.4355 7.4801 12.6125 8.01905 12.8057C9.09693 13.1921 10.1617 13.63 11.2133 14.1001C13.3132 15.0468 15.3605 16.1061 17.3684 17.233L19.1594 18.2376L17.8482 16.6728C16.7539 15.3655 15.6793 14.0454 14.6343 12.7059C14.1117 12.0362 13.5991 11.36 13.0996 10.6742C12.8498 10.3329 12.6066 9.98837 12.37 9.64063C12.2517 9.46676 12.1367 9.29288 12.0283 9.11901C11.9757 9.03208 11.9231 8.94514 11.8738 8.86142C11.8508 8.81956 11.8278 8.77771 11.8081 8.73907L11.7851 8.68755C11.7851 8.68755 11.7752 8.6618 11.7785 8.67468C11.7785 8.68434 11.7785 8.68433 11.7851 8.70365C11.7851 8.73263 11.7917 8.73585 11.7785 8.81635C11.7752 8.83244 11.7719 8.84533 11.7621 8.86465C11.7489 8.89684 11.7292 8.93226 11.7062 8.96124C11.6799 8.99344 11.6569 9.01276 11.6241 9.03852C11.5912 9.06105 11.5485 9.08037 11.509 9.09325C11.4597 9.10613 11.4367 9.10613 11.4203 9.10935C11.4006 9.10935 11.3776 9.10935 11.3579 9.10935C11.3053 9.09969 11.3086 9.0997 11.2889 9.09648L11.2659 9.09003L11.2527 9.08359L11.2396 9.07716L11.2264 9.07072C11.2461 9.08682 11.279 9.1158 11.3119 9.14799C11.3776 9.21239 11.4466 9.28645 11.5123 9.36372C11.6471 9.51506 11.7818 9.67605 11.91 9.84026C12.1729 10.1655 12.4292 10.5035 12.6822 10.8416C13.1883 11.521 13.678 12.2133 14.1577 12.912C15.1173 14.3094 16.0473 15.7326 16.9445 17.1751L18.4036 19.5223L17.7398 16.8466C17.421 15.5684 17.1285 14.2836 16.8755 12.9925C16.7506 12.3485 16.6356 11.7013 16.5436 11.0574C16.4976 10.7354 16.4581 10.4134 16.4285 10.0946C16.4154 9.93685 16.4022 9.77908 16.399 9.62453C16.399 9.54725 16.399 9.47319 16.399 9.40558C16.399 9.37016 16.399 9.34118 16.4055 9.31542C16.4055 9.29288 16.4154 9.26391 16.4055 9.28645V9.29932C16.4055 9.29932 16.3924 9.31864 16.3891 9.32508C16.3825 9.33796 16.3694 9.3605 16.3595 9.3766C16.353 9.38304 16.3365 9.40558 16.3234 9.41846C16.3069 9.43456 16.3004 9.441 16.2741 9.46354C16.2182 9.5054 16.1591 9.53759 16.0605 9.55369C16.0375 9.55691 16.0145 9.55691 15.9915 9.55691C15.9718 9.55691 15.9553 9.55691 15.9356 9.55691C15.8995 9.55369 15.8567 9.54081 15.8304 9.53115C15.7319 9.49251 15.699 9.45388 15.6793 9.43778C15.6431 9.39592 15.6464 9.39914 15.6431 9.39592L15.653 9.41524C15.6727 9.4571 15.6957 9.52471 15.7187 9.59233C15.7614 9.73078 15.8009 9.88212 15.837 10.0367C15.906 10.3458 15.9652 10.6613 16.0178 10.9833C16.1229 11.6241 16.2018 12.2712 16.2708 12.9217C16.4022 14.2225 16.4811 15.533 16.5238 16.8466L16.606 19.3066L17.5459 17.0173C17.8219 16.3411 18.1144 15.6714 18.4331 15.0242C18.5942 14.7022 18.7618 14.3835 18.9392 14.0808C19.028 13.9295 19.12 13.7814 19.2153 13.6493C19.2613 13.5817 19.3106 13.5173 19.3566 13.4658C19.3664 13.4529 19.3796 13.4401 19.3894 13.4272C19.3993 13.4143 19.4092 13.4046 19.419 13.3982C19.4355 13.3789 19.4519 13.3724 19.4223 13.3918C19.4157 13.395 19.4125 13.3982 19.4059 13.4014L19.373 13.4175C19.373 13.4175 19.3402 13.4304 19.3237 13.4336C19.3204 13.4336 19.2941 13.4401 19.2777 13.4433C19.258 13.4465 19.2383 13.4497 19.2218 13.4497C19.2021 13.4497 19.1824 13.4497 19.166 13.4497C19.1364 13.4497 19.1035 13.4433 19.074 13.4368C19.0115 13.4207 18.9557 13.3918 18.9064 13.3596C18.8801 13.3435 18.8571 13.3209 18.8374 13.2984C18.8275 13.2887 18.8176 13.2758 18.8078 13.263L18.7881 13.2404C18.7651 13.2114 18.7486 13.1792 18.7355 13.1438L18.7223 13.1116L18.7158 13.0891C18.7158 13.0891 18.7092 13.0504 18.7092 13.0472C18.7092 13.0343 18.7092 13.0183 18.7092 13.0118C18.7092 13.0118 18.7092 13.0054 18.7092 13.0021C18.7092 13.0021 18.7092 13.0054 18.7092 13.0086C18.7092 13.0343 18.6862 13.1052 18.6632 13.1728C18.6139 13.3113 18.5449 13.4658 18.466 13.6171C18.3116 13.9198 18.1275 14.2193 17.9304 14.5123C17.5327 15.0983 17.0759 15.6553 16.5896 16.1834L14.5882 18.3535L17.283 17.0849C17.3816 17.0366 17.4834 16.9915 17.5886 16.9336C17.6412 16.9046 17.697 16.8756 17.7562 16.837L17.8055 16.8048C17.8055 16.8048 17.8383 16.7823 17.8581 16.7662C17.8778 16.7501 17.8942 16.7404 17.9238 16.7114L17.9632 16.676C17.9797 16.6599 18.0059 16.6309 18.0257 16.6052L18.0421 16.5858L18.0487 16.5762L18.0618 16.5536C18.0815 16.5214 18.1012 16.486 18.1144 16.4474C18.121 16.4281 18.1275 16.412 18.1341 16.3927C18.1341 16.3927 18.144 16.3572 18.1472 16.3379C18.1505 16.3154 18.1538 16.2896 18.1571 16.2671C18.1571 16.2188 18.1571 16.1705 18.1505 16.1222C18.1407 16.0739 18.1308 16.0352 18.1078 15.9837C18.0848 15.9354 18.0552 15.8871 18.0158 15.8421C17.9961 15.8195 17.9764 15.8002 17.9566 15.7809L17.9271 15.7551L17.9008 15.7358C17.8581 15.7068 17.8088 15.6811 17.7562 15.6617L17.7167 15.6489L17.6872 15.6424L17.651 15.636C17.628 15.6328 17.605 15.6295 17.5787 15.6263C17.5097 15.6199 17.4604 15.6263 17.4276 15.6263C17.3881 15.6295 17.3618 15.636 17.3323 15.6392C17.2271 15.6617 17.1482 15.6875 17.0595 15.7229C16.9708 15.7648 16.8853 15.8002 16.7539 15.9193C16.7407 15.9322 16.7177 15.958 16.7013 15.9773C16.6849 15.9998 16.6684 16.0159 16.6454 16.0513C16.6257 16.0835 16.6093 16.1125 16.5896 16.1544C16.5698 16.1995 16.5567 16.251 16.5468 16.2993C16.537 16.3508 16.5337 16.4152 16.5403 16.4732C16.5436 16.5343 16.56 16.5826 16.5764 16.6341C16.5863 16.6599 16.5961 16.6857 16.6093 16.7082C16.6191 16.7307 16.629 16.7436 16.6421 16.7629C16.6651 16.7984 16.6882 16.8306 16.7177 16.8595L16.8327 15.9773C16.33 16.2961 15.8502 16.6567 15.4098 17.0656C15.1896 17.2717 14.9793 17.4874 14.7788 17.7321C14.6803 17.8545 14.5817 17.98 14.4864 18.1378C14.4371 18.2183 14.3911 18.2956 14.3385 18.4405C14.3253 18.4856 14.3122 18.521 14.2991 18.595C14.2991 18.6143 14.2958 18.6208 14.2925 18.653C14.2925 18.6787 14.2925 18.7077 14.2925 18.7335V18.7753C14.2958 18.7979 14.3023 18.8236 14.3056 18.8462C14.3122 18.8687 14.3155 18.8945 14.3253 18.917L14.3385 18.9524L14.3451 18.9685L14.3582 18.9943C14.3911 19.0619 14.4404 19.1295 14.4929 19.1843C14.5488 19.239 14.6244 19.2905 14.7033 19.3227C14.746 19.342 14.7723 19.3485 14.7986 19.3549C14.8249 19.3614 14.8544 19.3678 14.884 19.371C14.9136 19.3742 14.9399 19.3775 14.9694 19.3775C14.9892 19.3775 15.0023 19.3775 15.0187 19.3775C15.0516 19.3775 15.0812 19.371 15.114 19.3646C15.1305 19.3614 15.1436 19.3581 15.1502 19.3549L15.1765 19.3485C15.2126 19.3388 15.2521 19.3227 15.2718 19.3163L15.3375 19.2841L15.3868 19.2583C15.4229 19.239 15.4427 19.2261 15.469 19.2068C15.515 19.1746 15.5577 19.1456 15.5938 19.1166C15.6661 19.0587 15.7319 19.0039 15.791 18.9492C15.9093 18.8397 16.0178 18.7335 16.1196 18.624C16.3267 18.4083 16.5173 18.1861 16.7013 17.9672C17.0694 17.5228 17.4144 17.072 17.7496 16.6148L16.5567 16.2735C16.6224 17.9639 16.8262 19.6608 17.2764 21.3255C17.5031 22.1562 17.7858 22.9805 18.19 23.7822C18.3937 24.1847 18.6238 24.5775 18.9327 24.9639C19.0937 25.1571 19.2646 25.3503 19.5275 25.537C19.6688 25.6304 19.8232 25.7302 20.0861 25.7914C20.1584 25.8043 20.2307 25.8139 20.3063 25.8171C20.395 25.8171 20.4805 25.8075 20.5725 25.7882C20.6645 25.7624 20.7598 25.7302 20.842 25.6819C20.8814 25.6594 20.9208 25.6304 20.9603 25.6046C20.9997 25.5757 21.0326 25.5467 21.0589 25.5177C21.0884 25.4887 21.1147 25.4597 21.141 25.4275C21.1673 25.3954 21.1936 25.3632 21.2067 25.3374C21.2396 25.2827 21.2757 25.2215 21.302 25.1667C21.3218 25.1184 21.3415 25.0669 21.3612 25.0154C21.3809 24.9639 21.3842 24.9252 21.3973 24.8802C21.4368 24.6999 21.4433 24.5582 21.4466 24.4133C21.4466 24.1364 21.4105 23.8949 21.3678 23.6599C21.279 23.1962 21.1476 22.768 20.9997 22.3526C20.7007 21.5251 20.3359 20.7459 19.9382 19.986C19.143 18.4695 18.2294 17.0431 17.2632 15.6553L16.4384 16.9819C19.4322 17.4133 22.4654 17.6613 25.5314 17.5937C27.0628 17.555 28.6041 17.4359 30.1519 17.1525C30.9274 17.0044 31.703 16.8241 32.4917 16.5311C32.8893 16.3798 33.287 16.2123 33.7142 15.9322C33.9278 15.7873 34.1545 15.6263 34.3944 15.314C34.5095 15.1562 34.6409 14.9469 34.7033 14.6346C34.7099 14.596 34.7165 14.5573 34.7231 14.5187C34.7263 14.4768 34.7296 14.435 34.7296 14.3931C34.7329 14.3094 34.7263 14.2193 34.7132 14.1323C34.7001 14.0454 34.6771 13.9584 34.6475 13.8779C34.6179 13.8007 34.585 13.717 34.5456 13.6526C34.3879 13.3757 34.1973 13.2114 34.0362 13.0923C33.8719 12.9732 33.7208 12.8991 33.5827 12.8412C33.3034 12.722 33.0635 12.6576 32.8302 12.6061C32.3668 12.5063 31.9429 12.4709 31.5255 12.4516C30.6941 12.4161 29.9021 12.4612 29.12 12.5321C27.559 12.6834 26.0441 12.9635 24.5488 13.3016C21.5649 13.981 18.6665 14.889 15.814 15.9032C15.0647 16.1705 14.677 16.9819 14.9464 17.716C15.2192 18.4501 16.0473 18.8301 16.7966 18.5661C16.8163 18.5596 16.8393 18.55 16.859 18.5403C18.2163 17.9865 19.5899 17.4649 20.9734 16.9883C22.3569 16.5118 23.7503 16.0707 25.1568 15.7036C26.56 15.3365 27.9797 15.0242 29.3862 14.8407C30.0862 14.7505 30.7894 14.6894 31.4533 14.6958C31.7819 14.699 32.1039 14.7215 32.3734 14.7698C32.5048 14.7924 32.6264 14.8246 32.6922 14.8503C32.725 14.8632 32.7447 14.8729 32.7283 14.8632C32.7185 14.8503 32.6626 14.8181 32.5969 14.699C32.5837 14.6733 32.5607 14.6346 32.5541 14.5992C32.5377 14.5606 32.5311 14.5187 32.5246 14.4768C32.5147 14.435 32.518 14.3899 32.518 14.3513C32.518 14.3319 32.518 14.3126 32.5246 14.2933C32.5246 14.2772 32.5279 14.2611 32.5311 14.245C32.5607 14.1162 32.6001 14.0711 32.6067 14.0615C32.6264 14.0454 32.5607 14.1194 32.4687 14.1838C32.2814 14.3191 31.9955 14.4607 31.6997 14.5799C31.0983 14.8246 30.4214 15.0081 29.7345 15.1595C28.3543 15.4557 26.9084 15.6102 25.4559 15.6907C22.5475 15.8453 19.5998 15.6682 16.675 15.314L14.7065 15.0757L15.8502 16.6374C16.8163 17.9607 17.7332 19.3195 18.5153 20.7298C18.9064 21.4349 19.2613 22.153 19.5439 22.8774C19.6819 23.2381 19.8002 23.6051 19.8758 23.9496C19.912 24.1203 19.9382 24.2909 19.9415 24.4262C19.9415 24.4906 19.9415 24.555 19.935 24.5775C19.935 24.5807 19.935 24.5968 19.935 24.5904C19.935 24.5904 19.935 24.5872 19.9382 24.5839C19.9382 24.5775 19.9481 24.5582 19.958 24.5485C19.9613 24.5485 19.9678 24.5357 19.9777 24.5228C19.9875 24.5099 19.9974 24.5002 20.0073 24.4906C20.0533 24.4455 20.1387 24.3908 20.2242 24.3747C20.2636 24.365 20.2964 24.3586 20.3326 24.365C20.3589 24.365 20.3753 24.365 20.3983 24.3714C20.4509 24.3843 20.4213 24.3811 20.3885 24.3586C20.3063 24.307 20.1913 24.1911 20.0828 24.0655C19.866 23.8047 19.6655 23.4828 19.488 23.1479C19.1331 22.4717 18.8571 21.7247 18.6369 20.9648C18.1965 19.4354 17.9698 17.8319 17.8778 16.2188L17.7726 14.3416L16.6849 15.8743C16.3694 16.3218 16.0441 16.7597 15.7089 17.1815C15.5413 17.3908 15.3671 17.5969 15.1929 17.7868C15.1042 17.8802 15.0187 17.9736 14.9333 18.0541C14.8906 18.096 14.8479 18.1314 14.8117 18.1603C14.792 18.1764 14.7788 18.1861 14.7657 18.1958C14.7657 18.1958 14.7526 18.2054 14.7591 18.2022C14.7591 18.2022 14.7723 18.1958 14.7788 18.1925C14.7788 18.1925 14.8051 18.1829 14.8249 18.1764L14.861 18.1668C14.884 18.1603 14.907 18.1571 14.93 18.1571H14.9662C14.9892 18.1571 15.0155 18.1571 15.0385 18.1571C15.0615 18.1571 15.0878 18.1636 15.1108 18.17C15.1338 18.1764 15.1535 18.1829 15.1929 18.199C15.2619 18.228 15.3309 18.273 15.3802 18.3246C15.4295 18.3696 15.4722 18.4308 15.5018 18.492L15.5183 18.5274L15.5281 18.5564C15.5347 18.5757 15.538 18.595 15.5445 18.6143C15.5478 18.6337 15.5511 18.653 15.5544 18.6723V18.7013C15.5544 18.7206 15.5544 18.7399 15.5544 18.756V18.7882C15.5445 18.8301 15.5413 18.8301 15.538 18.843C15.5314 18.8558 15.5511 18.8108 15.5741 18.7721C15.6234 18.6916 15.6924 18.5918 15.768 18.4984C15.9192 18.3085 16.0933 18.1217 16.2774 17.9414C16.6487 17.584 17.0628 17.2588 17.5031 16.969L17.6182 16.0868C17.6379 16.1061 17.6543 16.1286 17.6707 16.1544C17.6773 16.1673 17.6839 16.1769 17.6905 16.193C17.7003 16.2123 17.7102 16.2317 17.7167 16.251C17.7332 16.2928 17.7398 16.3283 17.7463 16.3766C17.7529 16.4216 17.7463 16.4731 17.7398 16.5118C17.7332 16.5504 17.7233 16.5858 17.7069 16.6213C17.6937 16.6502 17.6839 16.6696 17.6707 16.6889C17.6543 16.7114 17.6477 16.7211 17.6379 16.734C17.6313 16.7436 17.6149 16.7597 17.6083 16.7629C17.5524 16.8112 17.5557 16.7984 17.5623 16.7984C17.5689 16.7951 17.5886 16.7887 17.582 16.7887C17.5787 16.7887 17.5787 16.7887 17.5656 16.7887C17.559 16.7887 17.536 16.7919 17.49 16.7887C17.4736 16.7887 17.4538 16.7855 17.4374 16.7823L17.4111 16.7758L17.3881 16.7694L17.3553 16.7597C17.3093 16.7436 17.2665 16.7211 17.2304 16.6953L17.2074 16.6792L17.1778 16.6567C17.1581 16.6406 17.1384 16.6213 17.1219 16.6019C17.0858 16.5601 17.0562 16.515 17.0365 16.4699C17.0168 16.4216 17.0036 16.383 16.9938 16.3379C16.9839 16.2928 16.9839 16.2478 16.9839 16.2027C16.9839 16.1801 16.9872 16.1576 16.9938 16.1351C16.9938 16.1157 17.0069 16.0835 17.0069 16.0835C17.0102 16.0674 17.0168 16.0513 17.0234 16.0385C17.0365 16.0063 17.0496 15.9773 17.0694 15.9515L17.0956 15.9161C17.0956 15.9161 17.1252 15.8807 17.1318 15.8743C17.1351 15.871 17.1384 15.8678 17.1449 15.8614C17.1581 15.8517 17.1515 15.8549 17.1515 15.8549C17.1515 15.8549 17.1515 15.8549 17.1417 15.8614L17.1252 15.871C17.0989 15.8871 17.0628 15.9097 17.0266 15.929C16.9543 15.9709 16.8689 16.0127 16.7835 16.0546L17.4769 16.9561C17.9895 16.383 18.466 15.7777 18.8899 15.1273C19.1003 14.802 19.3007 14.4672 19.4815 14.1066C19.5702 13.9262 19.6523 13.7395 19.7279 13.5334C19.7641 13.4272 19.7969 13.3209 19.8199 13.1631C19.8199 13.1406 19.8265 13.1245 19.8265 13.0987V13.0215C19.8298 12.9893 19.8265 12.9506 19.8232 12.9152C19.8232 12.8991 19.8134 12.8637 19.8068 12.8379L19.7969 12.7961C19.7969 12.7961 19.7904 12.7735 19.7805 12.7478C19.7608 12.7027 19.7378 12.6608 19.7115 12.6222C19.7049 12.6125 19.7016 12.6061 19.6885 12.59C19.6786 12.5771 19.6655 12.5643 19.6523 12.5514C19.6261 12.5256 19.5998 12.4999 19.5702 12.4805C19.511 12.4387 19.4453 12.4097 19.3697 12.3904C19.3336 12.3807 19.2974 12.3743 19.2613 12.3711C19.235 12.3711 19.212 12.3711 19.1857 12.3711C19.1594 12.3711 19.1364 12.3743 19.1101 12.3775C19.0871 12.3807 19.0543 12.3872 19.0477 12.3904C19.0214 12.4 18.9918 12.4065 18.9655 12.4194L18.9261 12.4355L18.8998 12.4483L18.8538 12.4741C18.7453 12.5449 18.6928 12.5964 18.6435 12.6447C18.6172 12.6705 18.5975 12.693 18.5777 12.7156C18.5547 12.7381 18.5383 12.7607 18.5186 12.7832C18.4463 12.8734 18.3839 12.9571 18.3247 13.044C18.2064 13.2147 18.1045 13.3821 18.0092 13.5527C17.8153 13.8908 17.6412 14.2289 17.4769 14.5734C17.1482 15.256 16.8558 15.9483 16.5797 16.6438L17.5984 16.8145C17.5393 15.4847 17.444 14.1516 17.2961 12.8251C17.2205 12.1618 17.1318 11.4953 17.0135 10.832C16.9543 10.5003 16.8886 10.1655 16.8097 9.8306C16.767 9.66317 16.7243 9.49251 16.6684 9.31542C16.6389 9.22527 16.6093 9.13833 16.5567 9.02886C16.5436 8.99988 16.5271 8.9709 16.5074 8.93548C16.4811 8.89684 16.4647 8.86143 16.399 8.79381C16.3661 8.76161 16.3168 8.71009 16.1985 8.66179C16.1689 8.64891 16.1196 8.63604 16.0769 8.63282C16.0539 8.63282 16.0342 8.6296 16.0112 8.6296C15.9849 8.6296 15.9619 8.62959 15.9356 8.63603C15.8272 8.65213 15.7581 8.69077 15.6924 8.73907C15.6596 8.76483 15.6497 8.77449 15.63 8.79703C15.6136 8.81313 15.5938 8.83888 15.584 8.85176C15.5675 8.87752 15.5478 8.9065 15.538 8.92904C15.5281 8.94836 15.5215 8.96446 15.515 8.98378L15.5018 9.02564C15.4722 9.12867 15.469 9.18341 15.4624 9.24137C15.4591 9.2961 15.4558 9.34762 15.4525 9.39592C15.4525 9.49251 15.4525 9.58589 15.4558 9.67283C15.4624 9.84992 15.4788 10.0238 15.4952 10.1944C15.5314 10.5357 15.5774 10.8706 15.6267 11.2023C15.7286 11.8655 15.8534 12.5224 15.9882 13.176C16.2577 14.4833 16.5699 15.7777 16.905 17.0624L17.7003 16.734C16.7802 15.2947 15.8469 13.8651 14.8676 12.458C14.3779 11.7561 13.8817 11.0574 13.3625 10.3715C13.1029 10.027 12.84 9.68571 12.5672 9.35084C12.4292 9.18341 12.2912 9.01598 12.14 8.84855C12.0644 8.76483 11.9888 8.68111 11.9034 8.5974C11.8574 8.55554 11.8146 8.51046 11.7489 8.45894C11.7292 8.44284 11.7161 8.43318 11.6865 8.41386C11.6734 8.4042 11.6635 8.39777 11.6405 8.38489L11.6076 8.36879C11.6076 8.36879 11.5715 8.35269 11.5518 8.34625C11.5255 8.33981 11.5222 8.33337 11.463 8.32693C11.44 8.32693 11.4137 8.32371 11.3907 8.32693C11.371 8.32693 11.3447 8.32693 11.2921 8.34303C11.2494 8.35591 11.2034 8.37523 11.1673 8.40099C11.1278 8.42675 11.1048 8.4525 11.0785 8.4847C11.0522 8.5169 11.0325 8.55554 11.0161 8.59096C11.0062 8.6135 11.0029 8.6296 10.9997 8.64892C10.9799 8.74551 10.9898 8.76161 10.9931 8.80347C10.9964 8.83567 10.9997 8.84855 11.0062 8.87109C11.0227 8.93548 11.0391 8.9709 11.0522 9.00632C11.0654 9.04174 11.0818 9.07071 11.095 9.09969C11.1245 9.15765 11.1508 9.20917 11.1804 9.25747C11.2363 9.35728 11.2954 9.45388 11.3546 9.54725C11.4729 9.734 11.5912 9.91431 11.7128 10.0946C11.956 10.452 12.209 10.7998 12.462 11.1475C12.9714 11.8398 13.4939 12.5192 14.023 13.1921C15.0812 14.538 16.1722 15.8582 17.2764 17.1654L17.7595 16.6052C15.7286 15.4814 13.6582 14.4221 11.5288 13.4722C10.464 12.9989 9.38612 12.5482 8.28194 12.1521C7.72985 11.9557 7.17119 11.7722 6.5961 11.6144C6.30691 11.5371 6.01772 11.4663 5.7121 11.4148C5.55764 11.389 5.40319 11.3697 5.22245 11.3665C5.17644 11.3665 5.13043 11.3665 5.07785 11.3729C5.02527 11.3793 4.9694 11.3858 4.89053 11.4083C4.87082 11.4148 4.85439 11.4212 4.8281 11.4309C4.80181 11.4437 4.7788 11.4534 4.7558 11.4695C4.72622 11.4888 4.69994 11.5114 4.67036 11.5371C4.6375 11.5725 4.61121 11.6047 4.58821 11.6498C4.5652 11.6949 4.54877 11.7464 4.54548 11.7883C4.54548 11.8108 4.54219 11.8333 4.54219 11.8559C4.54219 11.8752 4.5422 11.8913 4.54877 11.9106C4.54877 11.9299 4.55535 11.946 4.55863 11.9654L4.57177 12.004C4.58163 12.0298 4.59149 12.0555 4.60134 12.0716C4.6835 12.2165 4.75581 12.2745 4.82482 12.3356C4.89383 12.3936 4.95955 12.4451 5.02527 12.4934C5.15672 12.5868 5.28818 12.6641 5.41963 12.7413C5.68253 12.8927 5.94871 13.0247 6.21489 13.1535C6.75055 13.4079 7.2895 13.6332 7.83502 13.849C8.92276 14.2772 10.0269 14.6572 11.1377 15.0178C13.3559 15.739 15.6004 16.3572 17.8548 16.94V16.0868C16.3792 16.4281 14.9103 16.7984 13.4446 17.1912C11.979 17.584 10.5199 18.0058 9.07393 18.4662C7.62469 18.9267 6.18531 19.4225 4.76566 19.9924C4.05583 20.2758 3.34929 20.5785 2.64932 20.923C2.2977 21.0969 1.95264 21.2804 1.60101 21.4993C1.42355 21.6088 1.24937 21.7279 1.05877 21.8857C1.00948 21.9276 0.960194 21.9726 0.9109 22.0242C0.884609 22.0499 0.855034 22.0821 0.828743 22.1111C0.799168 22.1497 0.772869 22.1787 0.740009 22.2302L0.694004 22.3075C0.677574 22.3397 0.65786 22.3784 0.644714 22.4138C0.611851 22.4943 0.578983 22.5973 0.578983 22.7551C0.578983 22.7744 0.578983 22.7905 0.578983 22.8098C0.578983 22.8323 0.585556 22.8549 0.588844 22.8742C0.595417 22.9193 0.608562 22.9611 0.621708 23.003C0.651283 23.0835 0.700577 23.1704 0.753155 23.2381C0.799164 23.2928 0.864895 23.3572 0.914188 23.3894C0.960194 23.4216 1.01276 23.4538 1.05877 23.4763C1.09821 23.4924 1.13436 23.5085 1.17379 23.5246C1.20994 23.5375 1.23624 23.5439 1.2691 23.5536L1.3151 23.5633L1.35125 23.5697L1.42684 23.5826C1.46956 23.589 1.51228 23.5922 1.55171 23.5955H1.66016C1.79818 23.5987 1.9132 23.589 2.02822 23.5794C2.25168 23.5536 2.45872 23.5182 2.65918 23.4795C3.0601 23.3958 3.44131 23.2992 3.81923 23.1897C4.57178 22.974 5.30132 22.7261 6.02429 22.4685C7.47024 21.9501 8.88333 21.3705 10.28 20.7652C13.0766 19.5545 15.8107 18.2344 18.5285 16.8756C19.1528 16.5633 19.3993 15.8131 19.0805 15.2013C18.7618 14.5895 17.9961 14.348 17.3717 14.6604C17.3388 14.6765 17.306 14.6958 17.2764 14.7119L17.2632 14.6861Z" fill="#F45B69"/>
<path d="M18.3347 17.8245C18.6863 16.4238 19.0773 15.0328 19.5177 13.658C19.9482 12.2799 20.4379 10.9243 20.9702 9.58808C21.4993 8.25184 22.1007 6.94458 22.7842 5.69528C23.126 5.07385 23.4941 4.4653 23.895 3.90504C24.0954 3.62813 24.309 3.36089 24.5325 3.1355C24.641 3.02602 24.756 2.91977 24.8546 2.84893C24.9039 2.81029 24.9499 2.78454 24.9762 2.77166C25.0024 2.75556 25.009 2.76522 24.9334 2.762C24.894 2.762 24.8381 2.7459 24.7856 2.71692C24.7593 2.70082 24.7363 2.68794 24.7165 2.6654C24.7001 2.65252 24.6837 2.62676 24.6738 2.62033C24.6377 2.56559 24.6541 2.56881 24.6607 2.60101C24.6771 2.66862 24.6837 2.81029 24.6672 2.95519C24.641 3.25141 24.5621 3.57984 24.4635 3.90504C24.2663 4.55867 23.9903 5.21552 23.6879 5.85949C23.0767 7.14743 22.3307 8.39029 21.5322 9.59774C20.727 10.8052 19.8595 11.974 18.9492 13.1106C18.0356 14.2472 17.0793 15.3516 16.0902 16.4303L15.1733 17.4316L16.5207 17.1773C18.4168 16.8199 20.3228 16.5108 22.2387 16.324C23.195 16.2306 24.1546 16.1662 25.1043 16.1566C25.5808 16.1533 26.054 16.163 26.5174 16.1984C26.7474 16.2177 26.9775 16.2435 27.1911 16.2854C27.2962 16.3047 27.4014 16.3304 27.4868 16.3594C27.5296 16.3723 27.569 16.3884 27.5986 16.4013C27.6249 16.4109 27.6413 16.4303 27.6117 16.4013C27.6084 16.3948 27.592 16.3787 27.5821 16.3594C27.5657 16.3369 27.5559 16.3111 27.546 16.2693C27.5263 16.192 27.546 16.0986 27.5723 16.06C27.6183 15.9795 27.6216 15.9988 27.6019 16.0085C27.5624 16.0342 27.4704 16.0761 27.3784 16.1051C27.1878 16.1694 26.9643 16.2177 26.7409 16.2564C26.2907 16.3337 25.8207 16.3787 25.3475 16.4077C24.4011 16.4625 23.4448 16.4496 22.4885 16.4077C20.5726 16.3111 18.66 16.0761 16.7605 15.7541L15.078 15.4707L16.3662 16.5687C17.2075 17.2835 18.0356 18.0176 18.8243 18.7743C19.2187 19.1543 19.6064 19.5406 19.9745 19.9367C20.1585 20.1363 20.336 20.3359 20.5003 20.5388C20.5824 20.6418 20.6613 20.7416 20.7336 20.8415C20.7698 20.8897 20.8026 20.9413 20.8289 20.9863L20.8486 21.0185L20.8618 21.0443C20.8618 21.0443 20.8683 21.0604 20.8716 21.0636V21.0701C20.8716 21.0701 20.8716 21.0668 20.8716 21.0636V21.0507C20.8716 21.0507 20.8618 21.0185 20.8618 21.0024V20.9606C20.8618 20.9348 20.8684 20.9091 20.8749 20.8865C20.8782 20.8737 20.8815 20.8608 20.8881 20.8511L20.8946 20.8318C20.8946 20.8318 20.9045 20.8093 20.9111 20.7996C20.9341 20.7577 20.9669 20.7159 21.0031 20.6837C21.0458 20.6483 21.0754 20.6289 21.1082 20.6128C21.1444 20.5967 21.1838 20.5839 21.22 20.5774L21.2594 20.571H21.2824C21.2824 20.571 21.312 20.571 21.3284 20.571L21.3744 20.5774C21.3744 20.5774 21.3941 20.5839 21.3974 20.5839L21.3777 20.5742C21.3613 20.5645 21.3416 20.5517 21.3186 20.5388C21.2298 20.4808 21.1312 20.4003 21.0327 20.3198C20.8388 20.1524 20.6449 19.9689 20.4576 19.7789C20.0829 19.3957 19.7215 18.99 19.3764 18.5715C18.683 17.7343 18.0356 16.8521 17.4244 15.9473L16.6225 14.7592L16.4976 16.1823C16.4714 16.4947 16.4385 16.8038 16.3958 17.1064C16.3761 17.2578 16.3531 17.4091 16.3235 17.5508C16.3103 17.6216 16.2939 17.6924 16.2775 17.7536C16.2709 17.7858 16.261 17.8116 16.2512 17.8373C16.2446 17.8567 16.2347 17.8824 16.238 17.8695V17.8599L16.2512 17.8438C16.2577 17.8341 16.261 17.8309 16.2676 17.8212C16.2808 17.8051 16.2972 17.789 16.3103 17.7762L16.33 17.7601C16.33 17.7601 16.3498 17.7472 16.3563 17.7407C16.3761 17.7279 16.3958 17.715 16.4155 17.7053C16.4418 17.6924 16.4911 17.6731 16.5305 17.6667C16.5732 17.6602 16.6127 17.6538 16.6652 17.657C16.7178 17.6602 16.7704 17.6731 16.8131 17.6924C16.846 17.7053 16.8789 17.7214 16.9117 17.744C16.9281 17.7536 16.9413 17.7665 16.9544 17.7762L16.9774 17.7955C16.9774 17.7955 17.0037 17.8245 17.0169 17.8406C17.053 17.8856 17.0629 17.9146 17.0695 17.9275C17.076 17.9468 17.076 17.95 17.0793 17.9565C17.0793 17.9629 17.0793 17.9661 17.0793 17.9565C17.076 17.9275 17.0727 17.8663 17.076 17.8084C17.0826 17.686 17.099 17.554 17.1286 17.4316C17.1845 17.1837 17.2995 16.9487 17.4178 16.8392L17.5624 16.7072L17.5722 16.5011C17.6018 15.9441 17.5953 15.3838 17.5427 14.8203C17.5164 14.5402 17.4802 14.2569 17.4244 13.9703C17.3948 13.8254 17.3619 13.6837 17.3159 13.526C17.2896 13.4455 17.2666 13.3714 17.2108 13.2555C17.2042 13.2426 17.1943 13.2233 17.1812 13.204L17.1648 13.1782L17.1385 13.1396C17.1385 13.1396 17.122 13.117 17.1056 13.0977C17.0859 13.0752 17.0662 13.0559 17.0432 13.0365C17.0333 13.0269 16.9709 12.9786 16.915 12.9528C16.9019 12.9464 16.8854 12.9399 16.8723 12.9335L16.8493 12.9238C16.8493 12.9238 16.8361 12.9206 16.8197 12.9142C16.7638 12.8981 16.7014 12.8916 16.6422 12.8949C16.5798 12.8949 16.5239 12.911 16.4779 12.9271C16.4286 12.9464 16.3793 12.9721 16.3366 13.0011C16.3169 13.0172 16.2939 13.0333 16.2775 13.0494L16.2512 13.0752C16.2347 13.0945 16.2183 13.1138 16.2052 13.1331C16.192 13.1525 16.1756 13.1782 16.169 13.1943L16.1526 13.2265C16.1427 13.249 16.1362 13.2716 16.1263 13.2909C16.1164 13.3231 16.1132 13.3456 16.1066 13.3714C16.1033 13.3939 16.1 13.41 16.0967 13.4294C16.0869 13.5002 16.0869 13.5453 16.0869 13.5936C16.0869 13.6387 16.0869 13.6805 16.0869 13.7224C16.0901 13.8029 16.0967 13.8769 16.1033 13.951C16.1164 14.0991 16.1362 14.2375 16.1592 14.3792C16.2019 14.6561 16.2512 14.9266 16.307 15.1971C16.4188 15.7348 16.5437 16.2628 16.6784 16.7909L17.6084 16.2886C16.7408 15.3806 15.8371 14.5048 14.8709 13.6837C14.3879 13.2748 13.8917 12.8755 13.3626 12.502C13.0964 12.3153 12.8269 12.135 12.5311 11.9643C12.3833 11.8806 12.2321 11.7969 12.0481 11.7228L11.9758 11.6939L11.8936 11.6649C11.8673 11.6552 11.8377 11.6456 11.8016 11.6391C11.7687 11.6295 11.7359 11.623 11.6866 11.6166L11.6176 11.6069C11.588 11.6069 11.5453 11.6069 11.5124 11.6069H11.4565C11.4565 11.6069 11.4335 11.6134 11.4171 11.6166L11.3678 11.6262C11.335 11.6359 11.3021 11.6456 11.2725 11.6584L11.2265 11.6778C11.2068 11.6874 11.1805 11.7035 11.1608 11.7164C11.0721 11.7776 10.9932 11.8645 10.9538 11.9514C10.9307 11.9965 10.9143 12.0448 10.9012 12.0931C10.8946 12.1157 10.8913 12.1446 10.888 12.164V12.2058C10.8847 12.2638 10.888 12.3282 10.9012 12.3765C10.9077 12.4087 10.9176 12.4409 10.9275 12.4698L10.9439 12.5149L10.957 12.5439L10.9866 12.6019C11.0096 12.6437 11.0228 12.663 11.0425 12.692C11.0786 12.75 11.1082 12.7854 11.1444 12.8305C11.2068 12.9077 11.2692 12.9786 11.3317 13.043C11.4565 13.1718 11.5781 13.2845 11.703 13.3972C11.9495 13.6161 12.2025 13.819 12.4556 14.0154C12.9649 14.405 13.4842 14.7688 14.0132 15.1198C15.0681 15.8185 16.1493 16.4657 17.2469 17.0839L17.5788 15.9376C15.5874 15.8571 13.5893 15.841 11.5847 15.9441C10.5824 15.9956 9.58011 16.0761 8.57451 16.2145C8.07172 16.2854 7.56564 16.3659 7.05298 16.4818C6.79666 16.5397 6.53704 16.6074 6.26429 16.7007C6.12626 16.749 5.98495 16.8005 5.81078 16.9004C5.76477 16.9261 5.71876 16.9551 5.6629 16.997C5.63332 17.0195 5.60703 17.0388 5.57088 17.0742C5.55445 17.0903 5.53802 17.1032 5.5183 17.1257C5.49858 17.1483 5.47887 17.1708 5.45915 17.1966C5.41643 17.2578 5.37042 17.3189 5.33427 17.4349C5.31784 17.4831 5.30142 17.554 5.29813 17.6248C5.29156 17.6924 5.29812 17.7697 5.31456 17.8438C5.33099 17.9178 5.35728 17.9758 5.38685 18.037C5.40329 18.0692 5.41644 18.0885 5.43287 18.111C5.4493 18.1336 5.46573 18.1529 5.48216 18.1754C5.50187 18.198 5.51502 18.2108 5.52816 18.2237L5.57088 18.2624C5.60375 18.2913 5.62675 18.3074 5.64975 18.3235C5.75162 18.3911 5.81407 18.4169 5.87979 18.4427L5.96524 18.4716L6.04081 18.4942C6.13611 18.5199 6.21827 18.5328 6.30043 18.5457C6.45817 18.5682 6.59947 18.5811 6.7375 18.5876C7.01354 18.6037 7.27973 18.6004 7.53934 18.594C8.05857 18.5811 8.56794 18.5425 9.07402 18.491C10.0829 18.3911 11.0753 18.243 12.0645 18.0788C14.0395 17.7407 15.9883 17.3157 17.9206 16.8456L17.1187 15.548C15.0813 17.7182 13.1523 19.9979 11.427 22.4482C10.5693 23.6749 9.76085 24.9468 9.05759 26.2991C8.70925 26.9785 8.38391 27.674 8.12101 28.4339C7.99285 28.817 7.87454 29.2066 7.80552 29.6671C7.77595 29.9021 7.74638 30.1436 7.79239 30.4849C7.82196 30.6556 7.8614 30.8681 8.03885 31.1418C8.07829 31.2062 8.14401 31.2802 8.20974 31.3446C8.28204 31.4122 8.3609 31.4766 8.45621 31.5314C8.64352 31.644 8.85055 31.6923 9.0313 31.7052C9.38621 31.7213 9.60311 31.6344 9.77399 31.5668C9.94159 31.4927 10.073 31.4154 10.1848 31.3382C10.4115 31.1836 10.5824 31.0291 10.7434 30.8777C11.0622 30.5718 11.3251 30.2595 11.5716 29.9472C12.0645 29.3193 12.4851 28.6753 12.8828 28.0249C13.6715 26.7209 14.3517 25.3814 14.9794 24.0291C16.2315 21.318 17.2929 18.5457 18.2394 15.7412C18.4595 15.0908 18.098 14.3857 17.4342 14.1699C16.7704 13.9542 16.0507 14.3084 15.8305 14.9588C15.8273 14.9684 15.824 14.9813 15.8207 14.991V14.9974C14.986 17.7633 14.0527 20.5034 12.9222 23.1436C12.3537 24.4606 11.7392 25.7582 11.0458 26.9849C10.6974 27.5967 10.3261 28.1924 9.92516 28.7365C9.7247 29.007 9.51766 29.2614 9.31063 29.4739C9.20876 29.5769 9.1036 29.6703 9.02473 29.7282C8.98529 29.7572 8.95571 29.7733 8.95571 29.7733C8.95571 29.7798 8.99187 29.7476 9.15947 29.754C9.2482 29.7572 9.35993 29.7894 9.46837 29.8506C9.52095 29.8828 9.56695 29.915 9.6031 29.9536C9.63925 29.9826 9.66883 30.0277 9.68526 30.0502C9.76084 30.1726 9.7477 30.2016 9.75099 30.1919C9.74441 30.1726 9.74113 30.047 9.75756 29.9182C9.78713 29.6542 9.86929 29.3386 9.96788 29.0263C10.1683 28.3952 10.4477 27.7545 10.7533 27.1234C11.3711 25.858 12.1138 24.628 12.9091 23.4302C14.5095 21.0346 16.3531 18.7743 18.3084 16.6138L20.1027 14.6336L17.5065 15.3162C15.6104 15.8153 13.7011 16.266 11.7852 16.6299C10.8256 16.8102 9.866 16.968 8.90642 17.0807C8.42663 17.1354 7.95013 17.1805 7.48348 17.203C7.25016 17.2127 7.02012 17.2159 6.80322 17.2095C6.69478 17.2062 6.58962 17.1966 6.50418 17.1837C6.46145 17.1773 6.42202 17.1708 6.39901 17.1644H6.38588V17.1612C6.39573 17.1644 6.4023 17.1644 6.45159 17.1998C6.46145 17.2062 6.47131 17.2159 6.49432 17.232C6.50418 17.2384 6.51075 17.2481 6.52061 17.2578L6.55019 17.29C6.57648 17.3222 6.59291 17.3447 6.6192 17.3898C6.64549 17.4381 6.66191 17.4799 6.67835 17.5411C6.69478 17.5991 6.69478 17.6635 6.69149 17.715C6.69149 17.7697 6.67507 17.8277 6.66521 17.8599C6.63563 17.9468 6.60934 17.9854 6.58305 18.0209C6.57319 18.0337 6.56333 18.0466 6.55347 18.0563L6.53375 18.0756C6.53375 18.0756 6.51733 18.0885 6.51076 18.0949C6.50418 18.0981 6.51075 18.0949 6.51732 18.0917C6.55676 18.0692 6.64548 18.0273 6.74079 17.9951C6.93139 17.9275 7.15156 17.8663 7.37503 17.8116C7.82524 17.7053 8.29518 17.6216 8.77168 17.5475C9.72141 17.4059 10.6909 17.3157 11.6636 17.2513C13.609 17.1257 15.5709 17.1161 17.5328 17.1708L20.0862 17.2449L17.8647 16.0278C16.7803 15.4321 15.7122 14.8139 14.6804 14.1474C14.1644 13.8157 13.6583 13.4712 13.1753 13.1106C12.9354 12.9303 12.6987 12.7435 12.4819 12.5568C12.3734 12.4634 12.2683 12.3668 12.1762 12.2702C12.1302 12.2219 12.0908 12.1768 12.0546 12.135C12.0448 12.1189 12.0218 12.0931 12.0185 12.0867C12.0185 12.0835 12.0086 12.0706 12.0119 12.077C12.0119 12.077 12.0119 12.0802 12.0119 12.0835C12.0119 12.0835 12.0119 12.0835 12.0119 12.0867C12.0119 12.0931 12.0185 12.0996 12.0185 12.106C12.0218 12.1189 12.0251 12.1318 12.0284 12.1446C12.0349 12.1768 12.0415 12.2219 12.0382 12.2573V12.2863C12.0382 12.2863 12.0316 12.325 12.0251 12.3411C12.0152 12.3797 12.0021 12.4215 11.9823 12.457C11.9462 12.5246 11.887 12.6019 11.8115 12.6502C11.795 12.663 11.772 12.6727 11.7556 12.6824C11.7457 12.6888 11.7359 12.692 11.7227 12.6985C11.6997 12.7081 11.6767 12.7146 11.6537 12.721C11.6406 12.721 11.6307 12.7274 11.6176 12.7274H11.5913C11.5913 12.7274 11.5748 12.7339 11.565 12.7339C11.5486 12.7339 11.5256 12.7339 11.5157 12.7339C11.5124 12.7339 11.5091 12.7339 11.5058 12.7339C11.4993 12.7339 11.4927 12.7339 11.5058 12.7339C11.5091 12.7339 11.5157 12.7339 11.5256 12.7403L11.5551 12.75L11.5946 12.7661C11.6997 12.8079 11.8246 12.8723 11.9462 12.9399C12.1927 13.0784 12.4424 13.2426 12.6889 13.41C13.1818 13.7513 13.6583 14.1281 14.125 14.5177C15.0583 15.3001 15.9456 16.1469 16.8 17.0259L18.2624 18.5296L17.73 16.5236C17.5953 16.0117 17.4671 15.4965 17.3554 14.9845C17.2995 14.727 17.2502 14.4726 17.2108 14.2214C17.191 14.0959 17.1713 13.9703 17.1615 13.8512C17.1549 13.79 17.1516 13.732 17.1483 13.6805C17.1483 13.6547 17.1483 13.629 17.1483 13.6064C17.1483 13.5871 17.1483 13.5678 17.1483 13.571V13.5775C17.1483 13.5775 17.1417 13.5936 17.1385 13.6097C17.1352 13.6225 17.1286 13.6386 17.122 13.6515L17.1122 13.6708C17.1122 13.6708 17.0925 13.7063 17.0826 13.7224C17.0695 13.7385 17.0563 13.7546 17.0432 13.7707L17.0202 13.7932C17.0202 13.7932 16.9873 13.8254 16.9676 13.8383C16.9281 13.8673 16.8854 13.8898 16.8394 13.9059C16.7967 13.922 16.7441 13.9349 16.6882 13.9381C16.6324 13.9413 16.5732 13.9349 16.5239 13.9188L16.4976 13.9091L16.4779 13.9027C16.4779 13.9027 16.4516 13.893 16.4385 13.8866C16.3892 13.864 16.3333 13.8222 16.33 13.8157C16.3136 13.8029 16.3005 13.7868 16.284 13.7707L16.2676 13.7513L16.2512 13.7288C16.2512 13.7288 16.2479 13.7191 16.2479 13.7224C16.2512 13.7288 16.2709 13.7803 16.2873 13.8254C16.3202 13.9252 16.3498 14.0443 16.3728 14.1635C16.4221 14.4018 16.4582 14.6529 16.4845 14.9073C16.5338 15.4128 16.5469 15.928 16.5239 16.4399L16.6784 16.0986C16.5042 16.2693 16.3859 16.456 16.3005 16.6395C16.2117 16.8263 16.1526 17.0098 16.1099 17.1966C16.0671 17.3833 16.0409 17.5669 16.0343 17.7633C16.0343 17.8631 16.0343 17.9629 16.0507 18.0917C16.0573 18.1271 16.0639 18.1625 16.077 18.2076C16.0869 18.2366 16.0901 18.2559 16.1066 18.2945C16.1197 18.3267 16.1394 18.3718 16.1855 18.433C16.2019 18.4523 16.215 18.4716 16.2347 18.4877L16.261 18.5135C16.261 18.5135 16.2939 18.5393 16.3103 18.5521C16.3432 18.5747 16.3826 18.5972 16.4188 18.6101C16.4681 18.6294 16.5272 18.6423 16.5831 18.6487C16.6422 18.652 16.6882 18.6487 16.7343 18.6391C16.7803 18.6294 16.8296 18.6133 16.8624 18.5972C16.8887 18.5843 16.9117 18.5715 16.9347 18.5554L16.9676 18.5296L16.984 18.5167L16.9939 18.5103C17.0169 18.4877 17.0399 18.4652 17.0596 18.4427C17.0727 18.4266 17.0826 18.4105 17.0957 18.3944L17.1122 18.3718L17.122 18.3557L17.1418 18.3203C17.1845 18.2398 17.2009 18.1851 17.2206 18.1303C17.237 18.0788 17.2502 18.0305 17.2633 17.9854C17.2863 17.8921 17.3061 17.8051 17.3225 17.7214C17.3554 17.5508 17.3784 17.3866 17.4014 17.2223C17.4441 16.8939 17.4737 16.5687 17.4999 16.2467L16.5732 16.4818C17.2075 17.4059 17.8779 18.3074 18.6041 19.1703C18.9689 19.6018 19.3468 20.0236 19.751 20.4325C19.9548 20.6354 20.1618 20.835 20.3918 21.0314C20.5069 21.128 20.6252 21.2246 20.7698 21.318C20.8059 21.3405 20.8453 21.3663 20.8881 21.392L20.9604 21.4307C20.9899 21.4436 21.0228 21.4597 21.0557 21.4725C21.0754 21.479 21.105 21.4886 21.128 21.4951C21.1575 21.5015 21.1674 21.508 21.2265 21.5144C21.2496 21.5144 21.2758 21.5144 21.2988 21.5144H21.335H21.3547L21.3876 21.508C21.4336 21.4983 21.4796 21.4822 21.5256 21.4629C21.5683 21.4436 21.6078 21.421 21.6538 21.3792C21.6965 21.3405 21.7359 21.2922 21.7622 21.2407C21.7688 21.2278 21.7754 21.215 21.7819 21.2021L21.7918 21.1763C21.7918 21.1763 21.8016 21.1441 21.8082 21.128C21.8246 21.0668 21.8312 20.9767 21.8279 20.9574C21.8279 20.9252 21.8214 20.8898 21.8148 20.8576C21.8082 20.8318 21.8049 20.8157 21.7984 20.7964L21.7786 20.7384L21.7622 20.6966C21.7491 20.6708 21.7392 20.6418 21.7261 20.6225L21.6932 20.5581L21.6603 20.5034C21.6143 20.4293 21.5716 20.3649 21.5256 20.3005C21.4369 20.1749 21.3449 20.059 21.2528 19.9463C21.0688 19.7209 20.8782 19.5084 20.6843 19.2991C20.2965 18.8838 19.8989 18.4845 19.4914 18.0981C18.6764 17.3222 17.8384 16.5816 16.984 15.8603L16.5929 16.6717C18.522 16.9937 20.4707 17.2288 22.4359 17.3222C23.4185 17.3672 24.4043 17.3769 25.4001 17.3157C25.8963 17.2835 26.3958 17.2384 26.9019 17.1483C27.1549 17.1032 27.408 17.0485 27.6774 16.9583C27.8122 16.91 27.9469 16.8617 28.1112 16.7587C28.154 16.7297 28.1967 16.7007 28.246 16.6556C28.292 16.6138 28.3511 16.5494 28.3971 16.4592C28.4464 16.3659 28.4793 16.2081 28.4464 16.0761C28.43 16.0052 28.407 15.9537 28.3774 15.9022C28.3511 15.8603 28.3183 15.8185 28.292 15.7895C28.177 15.6736 28.0882 15.6285 28.0061 15.5899C27.9239 15.5512 27.8483 15.5223 27.7793 15.4997C27.6347 15.4546 27.5033 15.4257 27.3685 15.3999C27.1056 15.3516 26.8493 15.3226 26.5963 15.3033C26.0902 15.2647 25.594 15.255 25.0977 15.2615C24.1086 15.2743 23.126 15.3452 22.15 15.4418C20.198 15.6382 18.2656 15.9344 16.3498 16.2918L16.777 17.0388C17.7891 15.9602 18.7717 14.8493 19.7149 13.7063C20.6613 12.5664 21.5683 11.3912 22.4162 10.1741C23.2673 8.95699 24.0626 7.69802 24.756 6.36501C25.101 5.69528 25.4165 5.00945 25.6696 4.27533C25.7911 3.90505 25.9029 3.5251 25.962 3.09686C25.9883 2.88113 26.0113 2.65574 25.962 2.36274C25.9325 2.21784 25.893 2.04397 25.7484 1.84112C25.7156 1.79282 25.663 1.73808 25.617 1.69301C25.5611 1.64471 25.502 1.59963 25.4329 1.56421C25.2982 1.48694 25.1503 1.45474 25.0189 1.44186C24.7593 1.42898 24.5818 1.49016 24.4372 1.54811C24.2926 1.60607 24.1776 1.67369 24.0757 1.74131C23.8687 1.87654 23.7044 2.01821 23.5499 2.16311C23.2443 2.45289 22.9847 2.74912 22.7382 3.05178C22.2486 3.66034 21.8246 4.29142 21.427 4.93217C20.6317 6.2169 19.9515 7.54347 19.3008 8.88293C18.0192 11.5683 16.9314 14.3277 15.9094 17.1032C15.6728 17.7504 16.0113 18.462 16.6718 18.697C17.3323 18.9289 18.0586 18.5972 18.2985 17.95C18.3149 17.9082 18.3281 17.8663 18.3379 17.8245H18.3347Z" fill="#F45B69"/>
<path d="M15.5046 17.5282C18.2684 18.5295 20.9565 19.7209 23.5066 21.1312C24.7751 21.846 26.0108 22.6155 27.1511 23.4817C27.7163 23.9196 28.2618 24.38 28.7351 24.8759C28.9717 25.1238 29.1886 25.3846 29.3594 25.6422C29.4449 25.771 29.5139 25.8998 29.5566 26.0125C29.5763 26.0672 29.5895 26.1155 29.5961 26.1477C29.6026 26.1799 29.5961 26.1896 29.6059 26.167C29.6125 26.1445 29.6486 26.0994 29.6716 26.093C29.6946 26.0833 29.6848 26.093 29.6486 26.0994C29.5796 26.1155 29.4416 26.1155 29.297 26.093C29.0045 26.0479 28.6792 25.9416 28.3637 25.8096C27.7262 25.5456 27.0985 25.1914 26.4971 24.8018C25.2944 24.0129 24.1606 23.0888 23.0926 22.0971C22.0246 21.1054 21.0157 20.0461 20.0594 18.9449C19.0998 17.8437 18.1895 16.6974 17.3219 15.5222L16.6975 14.6754L16.5069 15.7057C16.2046 17.3285 15.8398 18.9385 15.3403 20.5001C15.0906 21.2793 14.8047 22.0456 14.4596 22.7733C14.2854 23.1339 14.0948 23.4849 13.8812 23.8004C13.7728 23.955 13.6578 24.1063 13.5395 24.2254C13.4803 24.2834 13.4212 24.3349 13.3719 24.3671C13.362 24.3736 13.3456 24.3864 13.339 24.3897C13.3292 24.3897 13.3226 24.3961 13.316 24.4025C13.3094 24.4025 13.3029 24.4025 13.3292 24.4025C13.3489 24.4025 13.3949 24.4058 13.4277 24.4283C13.4442 24.438 13.454 24.4412 13.4639 24.4541C13.4705 24.4573 13.4737 24.4605 13.4737 24.4669C13.4737 24.4669 13.454 24.4122 13.4409 24.3542C13.4212 24.219 13.4244 24.0387 13.4442 23.8616C13.4902 23.4978 13.592 23.1178 13.7169 22.7443C13.9733 21.9973 14.3347 21.2696 14.7422 20.5677C15.5638 19.1638 16.5825 17.8598 17.7031 16.6491L18.597 15.6832L17.2726 15.8506C16.737 15.9182 16.2013 15.9794 15.669 16.0277C15.4028 16.0503 15.1366 16.0696 14.8737 16.0825C14.7422 16.0889 14.6141 16.0921 14.4892 16.0921C14.4268 16.0921 14.3643 16.0921 14.3084 16.0889C14.2559 16.0889 14.1934 16.0825 14.1803 16.0792H14.1869L14.2131 16.0889C14.2131 16.0889 14.2296 16.0953 14.2394 16.0986C14.2526 16.105 14.2887 16.1211 14.3084 16.1372L14.3249 16.1501L14.3512 16.1726C14.384 16.2016 14.4103 16.2338 14.4333 16.2724C14.4563 16.3143 14.4695 16.3336 14.4925 16.4109C14.5089 16.4785 14.5122 16.5558 14.4925 16.6234C14.4925 16.6395 14.4826 16.6588 14.4793 16.6685L14.4695 16.6942C14.4629 16.7103 14.4563 16.7296 14.4465 16.7457C14.4268 16.7812 14.4037 16.8134 14.3807 16.8391C14.3545 16.8681 14.3413 16.8778 14.3183 16.8971L14.2822 16.9228C14.2822 16.9228 14.2657 16.9325 14.2592 16.9357C14.2526 16.9389 14.2493 16.9389 14.246 16.9421C14.2624 16.9357 14.3216 16.9228 14.3709 16.9132C14.4826 16.8939 14.6042 16.8778 14.7291 16.8681C14.9788 16.8456 15.2385 16.8359 15.4981 16.8391C16.0173 16.8391 16.5365 16.881 17.0492 16.9582L17.4994 16.0953L17.5092 16.1082C17.5092 16.1082 17.5257 16.1275 17.5323 16.134C17.5323 16.134 17.5487 16.1565 17.5553 16.1694L17.5684 16.1919L17.575 16.2048C17.575 16.2048 17.5881 16.2273 17.5914 16.2402C17.6013 16.266 17.6111 16.2917 17.6144 16.3175V16.3368L17.6243 16.3722C17.6276 16.4109 17.6276 16.4527 17.6243 16.4946C17.6177 16.5364 17.6078 16.5783 17.5914 16.6137C17.5783 16.6491 17.5585 16.6846 17.5257 16.7264C17.4961 16.7651 17.46 16.8005 17.4205 16.8327C17.4008 16.8488 17.3778 16.8617 17.3581 16.8713C17.3384 16.881 17.3088 16.8939 17.3055 16.8971C17.2726 16.91 17.2332 16.9228 17.1971 16.926C17.1773 16.926 17.1609 16.9325 17.1412 16.9325H17.1149C17.0919 16.9325 17.0623 16.9325 17.0426 16.9293C17.0262 16.9293 16.9966 16.9196 16.9933 16.9196C16.9736 16.9132 16.967 16.9132 16.9637 16.9099C16.9539 16.9067 16.9703 16.91 16.9802 16.9196C17.0097 16.9325 17.0459 16.9518 17.0788 16.9743C17.1116 16.9937 17.1478 17.0162 17.1741 17.0323C17.1839 17.0387 17.2003 17.0516 17.1839 17.0387C17.1773 17.0323 17.1675 17.0259 17.1379 16.9937C17.1248 16.9776 17.1116 16.9615 17.0985 16.9421L17.082 16.9132C17.082 16.9132 17.0656 16.8842 17.059 16.8713C17.0525 16.8552 17.0459 16.8423 17.0426 16.8262L17.036 16.8037V16.7908L17.0262 16.7618C16.99 16.5558 17.0788 16.3433 17.2792 16.2273C17.2924 16.2209 17.3022 16.2145 17.3154 16.208L17.3417 16.1951L17.3647 16.1855C17.3647 16.1855 17.3975 16.1758 17.414 16.1726C17.4468 16.1662 17.483 16.1597 17.5125 16.1597C17.552 16.1597 17.6046 16.1629 17.6078 16.1629L17.6374 16.1694H17.6538L17.6243 16.1629L17.5684 16.1404L17.4468 16.0857L17.1905 15.9665L16.9506 16.9486C17.5914 16.9647 18.2355 16.9615 18.8829 16.9228C19.205 16.9035 19.5303 16.8778 19.8589 16.8359C20.0232 16.8166 20.1875 16.7908 20.3617 16.7586C20.4504 16.7425 20.5359 16.7232 20.641 16.6942C20.6673 16.6878 20.6969 16.6781 20.7298 16.6652C20.7659 16.6524 20.7988 16.6395 20.8744 16.5976C20.8974 16.5847 20.9171 16.5686 20.9401 16.5558C20.9828 16.5236 21.0354 16.4688 21.0715 16.4173C21.0715 16.4173 21.0913 16.3851 21.1011 16.369C21.111 16.3497 21.1208 16.3272 21.1307 16.3078C21.1471 16.266 21.157 16.2177 21.1636 16.1726C21.1668 16.1275 21.1668 16.0824 21.1636 16.0406C21.157 15.9955 21.1438 15.9504 21.1241 15.9054C21.1044 15.8603 21.0781 15.8184 21.0485 15.7798C21.0354 15.7605 21.019 15.7444 21.0025 15.7283L20.9828 15.7089C20.9565 15.6864 20.9269 15.6671 20.8974 15.6478C20.8809 15.6381 20.8678 15.6317 20.8514 15.622L20.8284 15.6124H20.8185L20.7824 15.593L20.7429 15.5802C20.7429 15.5802 20.7166 15.5737 20.7133 15.5705C20.687 15.5641 20.6542 15.5576 20.6345 15.5544C20.5523 15.5415 20.503 15.5415 20.4472 15.5383C20.3979 15.5383 20.3486 15.5383 20.3026 15.5383C20.2138 15.5383 20.1251 15.5447 20.0429 15.548C19.8753 15.5576 19.711 15.5737 19.55 15.5898C19.228 15.622 18.9092 15.6639 18.5937 15.7089C17.9628 15.7991 17.3351 15.9086 16.7107 16.0213L17.2661 16.8971C18.4195 15.4127 19.4514 13.8221 20.2204 12.0802C20.6016 11.2076 20.9204 10.2996 21.0945 9.33043C21.18 8.84423 21.2326 8.34515 21.1931 7.81066C21.1701 7.54019 21.1307 7.26329 20.9927 6.94774L20.9368 6.8286C20.9138 6.78675 20.8875 6.74489 20.8612 6.70303C20.8481 6.68371 20.8349 6.66117 20.8218 6.64185L20.7692 6.57746C20.7298 6.5356 20.7035 6.49374 20.6509 6.45188C20.6016 6.41002 20.5556 6.37139 20.4997 6.33275C20.4406 6.29733 20.3749 6.26191 20.3124 6.23293C20.2434 6.20718 20.1678 6.18786 20.0955 6.17176C20.0232 6.1621 19.9476 6.15887 19.8753 6.15887C19.5862 6.17175 19.3791 6.27801 19.2148 6.37783C19.0604 6.48086 18.9322 6.59678 18.8336 6.70625C18.6266 6.93164 18.4787 7.15703 18.3472 7.38564C18.0909 7.83964 17.9036 8.29686 17.7459 8.75729C17.4337 9.67495 17.2299 10.6023 17.0755 11.5296C16.921 12.4569 16.8159 13.3874 16.7468 14.3148C16.6745 15.2421 16.6318 16.1726 16.6154 17.0999L17.8937 16.6105C15.8661 14.4532 13.7202 12.3957 11.3837 10.5218C10.7987 10.0549 10.2006 9.60089 9.58611 9.16299C8.97159 8.72509 8.34392 8.30008 7.68996 7.90404C7.036 7.508 6.35902 7.13449 5.62291 6.81251C5.25156 6.65474 4.87035 6.50662 4.41685 6.39715C4.18681 6.34563 3.94692 6.29733 3.60844 6.30699C3.43755 6.31987 3.22723 6.33275 2.93804 6.47764C2.87231 6.50984 2.79016 6.5678 2.71787 6.62253C2.64228 6.68693 2.56998 6.75777 2.50754 6.8447C2.4451 6.93164 2.39582 7.0218 2.35967 7.11839C2.33995 7.16669 2.33009 7.20855 2.31695 7.25684C2.3038 7.30192 2.29394 7.35022 2.29065 7.38886C2.28408 7.43072 2.2808 7.46936 2.27751 7.51121C2.27751 7.55307 2.27751 7.58205 2.27751 7.62069C2.27751 7.69475 2.28737 7.7527 2.29723 7.81066C2.31695 7.92657 2.34652 8.01995 2.37609 8.10367C2.43853 8.26788 2.50755 8.39667 2.57327 8.50937C2.71129 8.73475 2.8526 8.91185 2.99391 9.07928C3.27981 9.4077 3.569 9.68783 3.86805 9.95186C4.46286 10.4767 5.07739 10.9339 5.70177 11.375C6.95383 12.2476 8.24861 13.0204 9.56311 13.7481C12.1987 15.1938 14.9065 16.4688 17.6571 17.6376C18.3012 17.9113 19.0472 17.6215 19.3265 16.9937C19.6059 16.3626 19.3101 15.6317 18.6693 15.358C18.6561 15.3515 18.643 15.3451 18.6266 15.3419H18.62C15.8891 14.3019 13.1878 13.1749 10.6081 11.8612C9.31993 11.2044 8.05472 10.5025 6.86182 9.72969C6.26701 9.34331 5.69192 8.93439 5.17269 8.49971C4.91308 8.28398 4.66989 8.05859 4.46943 7.83964C4.37084 7.73016 4.28212 7.62069 4.22625 7.53697C4.19996 7.49512 4.18353 7.46292 4.18024 7.45648C4.17367 7.45326 4.20325 7.48223 4.18353 7.64001C4.18024 7.65611 4.17695 7.68186 4.17038 7.7044C4.16381 7.73016 4.15725 7.74948 4.14738 7.77524C4.12767 7.82998 4.09809 7.87827 4.06523 7.92979C4.02579 7.97809 3.99293 8.01995 3.95021 8.05215C3.91735 8.08113 3.87134 8.10688 3.84505 8.12298C3.72017 8.18094 3.70045 8.16484 3.71031 8.16806C3.73989 8.16162 3.87134 8.16806 4.00279 8.20026C4.27226 8.255 4.59102 8.36125 4.89993 8.48361C5.52431 8.73475 6.15528 9.05674 6.7698 9.40771C8.00214 10.1129 9.19177 10.9339 10.3387 11.8097C12.6358 13.5645 14.7817 15.5351 16.8159 17.6054L18.1008 18.9127L18.0942 17.1128C18.0876 15.3097 18.1698 13.5033 18.4327 11.7389C18.5641 10.8599 18.7449 9.98728 19.0078 9.16622C19.1425 8.7573 19.297 8.35803 19.4909 8.01029C19.5862 7.83642 19.6946 7.67864 19.7965 7.56273C19.8491 7.50155 19.8984 7.46292 19.9345 7.43394C19.9674 7.41462 19.9772 7.41784 19.9246 7.42106C19.9082 7.42106 19.8951 7.42106 19.8786 7.41784C19.8622 7.41784 19.8458 7.4114 19.8293 7.40496C19.8162 7.40496 19.8031 7.39852 19.7965 7.38886C19.7899 7.38242 19.7833 7.38564 19.78 7.3792C19.7735 7.37598 19.7998 7.3953 19.8228 7.45326C19.8753 7.55951 19.9148 7.73982 19.9312 7.92335C19.9674 8.30008 19.9378 8.71865 19.8688 9.13723C19.734 9.97439 19.458 10.818 19.1162 11.6294C18.4294 13.2619 17.46 14.7977 16.3656 16.2338L15.4849 17.3897L16.9243 17.1128C17.5355 16.9937 18.1468 16.8842 18.758 16.7908C19.0636 16.7425 19.3693 16.7007 19.6683 16.6685C19.8195 16.6524 19.9674 16.6363 20.1152 16.6266C20.1875 16.6202 20.2598 16.6169 20.3256 16.6169H20.4176H20.4669C20.4669 16.6169 20.4504 16.6169 20.4472 16.6137H20.4307L20.4077 16.6008L20.3847 16.5912L20.3617 16.5815C20.3617 16.5815 20.3354 16.5686 20.3223 16.559C20.296 16.5429 20.273 16.5236 20.25 16.5042L20.2335 16.4881C20.2335 16.4881 20.204 16.4592 20.1908 16.4399C20.1613 16.4044 20.1382 16.3626 20.1185 16.3207C20.0988 16.2789 20.089 16.2338 20.0824 16.1919C20.0758 16.1501 20.0758 16.1114 20.0824 16.0663C20.0857 16.0213 20.0988 15.9794 20.112 15.9376C20.1185 15.9182 20.1284 15.8989 20.1382 15.8796C20.1448 15.8635 20.1645 15.8377 20.1645 15.8345C20.1908 15.7894 20.2368 15.7444 20.2763 15.7154C20.2894 15.7057 20.3026 15.6961 20.3157 15.6864C20.3551 15.6639 20.3551 15.6671 20.3519 15.6671L20.3288 15.6735C20.2828 15.6864 20.2171 15.7025 20.1514 15.7154C20.0167 15.7444 19.8688 15.7669 19.7242 15.7862C19.4284 15.8249 19.1261 15.8538 18.8237 15.8764C18.2158 15.9182 17.6013 15.9279 16.9867 15.9182L14.4991 15.8764L16.7436 16.9003L17.0196 17.0259L17.1642 17.0903L17.2463 17.1225C17.2759 17.1353 17.3055 17.145 17.3548 17.1611C17.3712 17.1643 17.3811 17.1708 17.4074 17.174H17.4271L17.4567 17.1836C17.4665 17.1836 17.5224 17.1933 17.5684 17.1901C17.598 17.1901 17.6374 17.1836 17.6703 17.1772C17.6867 17.174 17.7031 17.1675 17.7229 17.1611L17.7459 17.1514L17.7722 17.1386C17.7722 17.1386 17.7952 17.1257 17.8083 17.1192C18.012 17.0033 18.1041 16.7844 18.0646 16.5783L18.0581 16.5461V16.5332L18.0482 16.5107C18.0416 16.4946 18.0383 16.4785 18.0285 16.4624C18.0219 16.4463 18.0153 16.4302 18.0055 16.4173L17.9858 16.3851C17.9726 16.3658 17.9595 16.3465 17.943 16.3272C17.9036 16.2853 17.8839 16.2692 17.8707 16.2563C17.8149 16.2112 17.7919 16.1984 17.7623 16.1758C17.7064 16.1404 17.6571 16.1114 17.6078 16.0825C17.5585 16.0535 17.5092 16.0277 17.4468 15.9987C17.4139 15.9826 17.3877 15.9698 17.3318 15.9504C17.3154 15.944 17.2989 15.9376 17.2661 15.9311C17.2562 15.9311 17.2201 15.9215 17.1971 15.9182C17.1741 15.915 17.1412 15.9118 17.1149 15.9118H17.0886C17.0689 15.9118 17.0492 15.915 17.0295 15.9182C16.99 15.9247 16.9506 15.9343 16.9177 15.9504C16.9177 15.9504 16.8816 15.9633 16.8651 15.9762C16.8454 15.9891 16.8224 16.002 16.8027 16.0148C16.7633 16.0438 16.7238 16.0824 16.6943 16.1211C16.6647 16.1629 16.645 16.1984 16.6285 16.237C16.6121 16.2756 16.6022 16.3175 16.5957 16.3594C16.5891 16.4012 16.5891 16.4431 16.5957 16.4849C16.5957 16.5107 16.599 16.5139 16.6022 16.5203V16.5397C16.6121 16.5686 16.622 16.5944 16.6318 16.6202C16.6384 16.633 16.6417 16.6459 16.6483 16.6588L16.6581 16.6749L16.6745 16.7007C16.6844 16.7168 16.7008 16.7393 16.7041 16.7425C16.714 16.7554 16.7304 16.7779 16.737 16.7844L16.76 16.8101L17.2102 15.9472C16.645 15.8699 16.0764 15.8313 15.5046 15.8345C15.2187 15.8345 14.9328 15.8474 14.6404 15.8764C14.4925 15.8925 14.3479 15.9086 14.1901 15.9376C14.108 15.9537 14.0357 15.9665 13.9207 16.0052L13.8747 16.0213C13.8549 16.0309 13.8352 16.0374 13.8155 16.047L13.7695 16.0728C13.7695 16.0728 13.7465 16.0857 13.7103 16.1114C13.6808 16.134 13.6611 16.1501 13.6282 16.1855C13.6019 16.2177 13.5756 16.2531 13.5559 16.2885C13.546 16.3078 13.5362 16.3272 13.5296 16.3465L13.5198 16.3755C13.5198 16.3755 13.5099 16.4077 13.5066 16.4238C13.4902 16.4946 13.4935 16.5783 13.5066 16.6491C13.5263 16.7296 13.546 16.7554 13.5723 16.8005C13.5986 16.8423 13.6282 16.8778 13.6643 16.9099C13.6873 16.9293 13.6874 16.9293 13.6972 16.9357L13.7202 16.9518C13.7498 16.9711 13.7892 16.9937 13.8122 17.0033L13.8615 17.0226C13.901 17.0355 13.9141 17.0387 13.9371 17.0452L13.9667 17.0516H13.9897C14.1113 17.0774 14.1869 17.0774 14.269 17.0806C14.3479 17.0806 14.4235 17.0806 14.4958 17.0806C14.6436 17.0806 14.785 17.0742 14.9263 17.0645C15.2089 17.0484 15.4849 17.0259 15.761 17.0001C16.3131 16.9454 16.8586 16.8778 17.4008 16.8037L16.9703 16.0052C15.8234 17.2674 14.7652 18.6165 13.9042 20.1008C13.477 20.8446 13.0925 21.6174 12.8099 22.4481C12.6719 22.8635 12.5536 23.2917 12.4977 23.7554C12.4714 23.9872 12.4583 24.2287 12.501 24.5056C12.5306 24.6472 12.5634 24.7986 12.6752 24.9757C12.708 25.0207 12.7442 25.0658 12.7836 25.1109C12.8329 25.156 12.8855 25.1978 12.9447 25.2333C13.0104 25.2655 13.0794 25.2977 13.1451 25.3105C13.2108 25.3234 13.2897 25.3363 13.3489 25.3299C13.4803 25.3266 13.5789 25.2944 13.6676 25.259C13.7071 25.2397 13.7465 25.2204 13.7859 25.2011C13.8254 25.1817 13.8517 25.1592 13.8878 25.1399C14.016 25.0562 14.1113 24.966 14.2033 24.8759C14.3807 24.6955 14.5188 24.5088 14.6502 24.322C14.9033 23.9453 15.1103 23.5589 15.2976 23.1693C15.6657 22.3869 15.9581 21.5884 16.2145 20.7802C16.7238 19.1638 17.0919 17.5217 17.3909 15.8732L16.5727 16.0567C17.4567 17.2448 18.3834 18.404 19.3495 19.5309C20.3223 20.6546 21.3377 21.7462 22.4156 22.7797C23.5001 23.8069 24.6338 24.7986 25.8925 25.6583C26.5201 26.0897 27.1741 26.4922 27.9004 26.8206C28.2651 26.9816 28.643 27.1297 29.0867 27.2135C29.3102 27.2521 29.55 27.2843 29.8458 27.2392C29.9937 27.2135 30.1679 27.1652 30.342 27.0493C30.5162 26.9366 30.6707 26.7402 30.7364 26.5437C30.8054 26.3473 30.8087 26.1702 30.7922 26.0221C30.7758 25.874 30.743 25.7452 30.7068 25.6261C30.6279 25.3943 30.5261 25.1946 30.4176 25.0111C30.2007 24.644 29.951 24.3317 29.6946 24.0323C29.1787 23.4366 28.6168 22.9117 28.0384 22.4159C26.8816 21.421 25.6493 20.5419 24.3808 19.7177C23.7465 19.3087 23.1123 18.903 22.4649 18.5167C21.8175 18.1271 21.1636 17.7568 20.5063 17.3865C19.8491 17.0162 19.1885 16.6556 18.5214 16.3046C17.8576 15.9472 17.1872 15.6059 16.5168 15.2582C15.8957 14.9362 15.1267 15.1712 14.8014 15.7798C14.4728 16.3883 14.7127 17.1418 15.3338 17.4605C15.3831 17.4863 15.4291 17.5056 15.4784 17.5249H15.4882L15.5046 17.5282Z" fill="#F45B69"/>
</svg>
