<?xml version="1.0" encoding="UTF-8"?>
<svg id="FCO_BE_BA_SJJ_NG_WT" xmlns="http://www.w3.org/2000/svg" viewBox="0 0 712.16 583.88">
  <defs>
    <style>
      .cls-1 {
        fill: #fff;
      }
    </style>
  </defs>
  <g>
    <path class="cls-1" d="M124.32,415.29c-5.77,0-12-.9-16.2-2.7v-48c4.12-1.8,9.75-2.7,15.45-2.7,12.6,0,19.65,4.95,19.65,12.97,0,7.42-5.77,11.17-11.47,12.08v.15c6.22,1.12,13.8,5.25,13.8,13.27,0,10.42-9,14.92-21.22,14.92ZM123.42,365.72c-3.3,0-6.38.45-8.78,1.35v18.52h4.73c12.82,0,17.25-3.52,17.25-10.27,0-6.22-4.12-9.6-13.2-9.6ZM119.29,388.89h-4.65v20.92c2.4.9,5.92,1.43,9.3,1.43,8.17,0,14.7-3,14.7-10.72s-5.85-11.62-19.35-11.62Z"/>
    <path class="cls-1" d="M172.77,377.79c-1.65-.38-3.67-.6-5.62-.6-2.78,0-5.48.37-7.12,1.28v35.92h-6.45v-38.62c4.65-1.8,9.3-2.7,17.55-2.7,1.2,0,2.4.07,3.3.15l-1.65,4.57Z"/>
    <path class="cls-1" d="M183.04,366.24c-2.25,0-4.05-1.58-4.05-3.6s1.8-3.67,4.05-3.67,4.05,1.65,4.05,3.67-1.8,3.6-4.05,3.6ZM179.82,414.39v-40.42h6.45v40.42h-6.45Z"/>
    <path class="cls-1" d="M211.77,415.14c-8.62,0-11.55-5.33-11.55-10.42v-27h-6.52v-3.75h6.52v-9.37l6.37-1.95v11.33h9.15v3.75h-9.15v27.22c0,3.08,2.4,6,6.97,6,.67,0,1.42-.07,2.17-.22v3.82c-.97.37-2.47.6-3.97.6Z"/>
    <path class="cls-1" d="M226.24,366.24c-2.25,0-4.05-1.58-4.05-3.6s1.8-3.67,4.05-3.67,4.05,1.65,4.05,3.67-1.8,3.6-4.05,3.6ZM223.02,414.39v-40.42h6.45v40.42h-6.45Z"/>
    <path class="cls-1" d="M249.64,415.29c-4.35,0-8.92-.9-12.67-2.7l1.87-3.9c2.92,1.5,6.75,2.25,10.27,2.25,6.22,0,9.82-2.85,9.82-7.42,0-9.9-21-6.45-21-19.2,0-6.75,6.08-11.25,14.47-11.25,4.35,0,8.4.82,11.85,2.7l-1.87,3.68c-2.55-1.35-5.92-2.25-9.15-2.25-5.33,0-8.85,2.55-8.85,6.9,0,9.45,21.15,6.15,21.15,19.2,0,7.12-6.37,12-15.9,12Z"/>
    <path class="cls-1" d="M300.64,414.39v-26.4c0-7.12-3.75-11.02-10.95-11.02-3.52,0-7.12.75-10.12,2.1v35.32h-6.45v-58.87h6.45v20.02c3.15-1.5,7.2-2.47,11.1-2.47,10.42,0,16.35,4.95,16.35,14.92v26.4h-6.37Z"/>
    <path class="cls-1" d="M337.54,414.39v-51.6h28.27v4.2h-21.52v18.6h19.42v4.2h-19.42v20.32h21.52v4.27h-28.27Z"/>
    <path class="cls-1" d="M424.36,414.39v-27.22c0-6.6-3.67-10.12-10.35-10.12-4.05,0-7.28,1.65-9.83,4.2v33.15h-6.37v-29.17c0-5.1-3.82-8.17-10.87-8.17-3.45,0-6.6.45-9.3,1.5v35.85h-6.37v-38.47c4.5-1.8,9.9-2.85,15.52-2.85,6.75,0,11.55,1.95,14.62,5.1,3.6-3.15,7.87-5.1,13.35-5.1,9.9,0,15.97,5.03,15.97,14.1v27.22h-6.37Z"/>
    <path class="cls-1" d="M452.97,415.29c-5.03,0-10.28-.9-13.95-2.7v-57.07h6.37v19.42c2.85-1.2,6.52-1.87,10.05-1.87,11.62,0,18.97,7.87,18.97,20.47s-7.42,21.75-21.45,21.75ZM454.17,376.89c-3.3,0-6.22.53-8.77,1.65v31.5c2.4.9,5.02,1.27,7.65,1.27,10.2,0,14.92-7.35,14.92-17.62s-4.8-16.8-13.8-16.8Z"/>
    <path class="cls-1" d="M496.56,415.29c-10.65,0-18.07-3.52-18.07-11.85,0-11.02,12.3-14.02,27.22-15.3v-2.47c0-6.22-3.98-8.55-10.8-8.55-4.12,0-8.55.9-12,2.4l-1.57-3.75c4.12-1.8,9.07-2.7,14.02-2.7,10.05,0,16.5,3.82,16.5,13.12v26.4c-3.83,1.72-9.45,2.7-15.3,2.7ZM505.71,391.37c-12.67,1.35-21,3.22-21,11.92,0,5.7,4.72,8.25,11.92,8.25,3.3,0,6.67-.52,9.08-1.5v-18.67Z"/>
    <path class="cls-1" d="M529.57,415.29c-4.35,0-8.92-.9-12.67-2.7l1.87-3.9c2.92,1.5,6.75,2.25,10.27,2.25,6.22,0,9.82-2.85,9.82-7.42,0-9.9-21-6.45-21-19.2,0-6.75,6.08-11.25,14.47-11.25,4.35,0,8.4.82,11.85,2.7l-1.87,3.68c-2.55-1.35-5.92-2.25-9.15-2.25-5.33,0-8.85,2.55-8.85,6.9,0,9.45,21.15,6.15,21.15,19.2,0,7.12-6.37,12-15.9,12Z"/>
    <path class="cls-1" d="M560.96,415.29c-4.35,0-8.92-.9-12.67-2.7l1.87-3.9c2.92,1.5,6.75,2.25,10.27,2.25,6.22,0,9.82-2.85,9.82-7.42,0-9.9-21-6.45-21-19.2,0-6.75,6.08-11.25,14.47-11.25,4.35,0,8.4.82,11.85,2.7l-1.88,3.68c-2.55-1.35-5.92-2.25-9.15-2.25-5.33,0-8.85,2.55-8.85,6.9,0,9.45,21.15,6.15,21.15,19.2,0,7.12-6.37,12-15.9,12Z"/>
    <path class="cls-1" d="M595.32,430.52h-7.12l7.87-16.12-16.2-40.42h7.05l10.57,29.77c.98,2.7,1.28,4.57,1.5,5.47h.15c.3-1.05.67-2.78,1.65-5.47l10.87-29.77h6l-22.35,56.55Z"/>
    <path class="cls-1" d="M117.72,490.29c-5.25,0-10.35-.9-14.47-2.7l1.87-4.28c3.75,1.5,7.95,2.33,12,2.33,7.65,0,12.52-3.6,12.52-9.75,0-13.05-25.12-8.7-25.12-25.12,0-8.47,6.75-13.87,17.47-13.87,4.95,0,9.45.9,13.05,2.7l-1.8,3.97c-3-1.58-6.6-2.25-10.72-2.25-6.97,0-11.17,3.75-11.17,9.08,0,12.67,25.35,7.87,25.35,25.05,0,9.22-7.35,14.85-18.97,14.85Z"/>
    <path class="cls-1" d="M160.99,490.29c-10.65,0-18.08-3.53-18.08-11.85,0-11.02,12.3-14.02,27.22-15.3v-2.47c0-6.22-3.98-8.55-10.8-8.55-4.12,0-8.55.9-12,2.4l-1.57-3.75c4.12-1.8,9.07-2.7,14.02-2.7,10.05,0,16.5,3.83,16.5,13.12v26.4c-3.83,1.72-9.45,2.7-15.3,2.7ZM170.14,466.37c-12.67,1.35-21,3.23-21,11.92,0,5.7,4.72,8.25,11.92,8.25,3.3,0,6.67-.53,9.08-1.5v-18.67Z"/>
    <path class="cls-1" d="M204.79,452.79c-1.65-.38-3.67-.6-5.62-.6-2.78,0-5.48.37-7.12,1.27v35.92h-6.45v-38.62c4.65-1.8,9.3-2.7,17.55-2.7,1.2,0,2.4.08,3.3.15l-1.65,4.57Z"/>
    <path class="cls-1" d="M226.02,490.29c-10.65,0-18.07-3.53-18.07-11.85,0-11.02,12.3-14.02,27.22-15.3v-2.47c0-6.22-3.98-8.55-10.8-8.55-4.12,0-8.55.9-12,2.4l-1.57-3.75c4.12-1.8,9.07-2.7,14.02-2.7,10.05,0,16.5,3.83,16.5,13.12v26.4c-3.83,1.72-9.45,2.7-15.3,2.7ZM235.17,466.37c-12.67,1.35-21,3.23-21,11.92,0,5.7,4.72,8.25,11.92,8.25,3.3,0,6.67-.53,9.08-1.5v-18.67Z"/>
    <path class="cls-1" d="M240.87,505.97v-4.35c6.15-2.47,9.6-9.08,9.6-17.17v-35.47h6.37v35.17c0,11.25-6.22,19.42-15.97,21.82ZM253.62,441.24c-2.25,0-4.05-1.58-4.05-3.6s1.8-3.6,4.05-3.6,4.05,1.58,4.05,3.6-1.8,3.6-4.05,3.6Z"/>
    <path class="cls-1" d="M270.64,471.69c.75,9.45,6.75,14.25,15.52,14.25,4.27,0,8.7-.9,12-2.4l1.72,3.97c-3.9,1.88-9,2.78-14.25,2.78-12.45,0-21.3-6.75-21.3-21.22s8.25-21,19.27-21,18,6.3,18,19.72l-30.97,3.9ZM283.32,451.89c-7.12,0-12.97,5.17-12.97,16.12v.22l24.9-3.15c0-9.22-4.8-13.2-11.92-13.2Z"/>
    <path class="cls-1" d="M325.32,489.39h-6.08l-16.05-40.42h7.12l10.65,29.7c.9,2.62,1.2,4.12,1.5,5.33h.15c.23-1.05.83-3.45,1.5-5.33l10.5-29.7h6.37l-15.67,40.42Z"/>
    <path class="cls-1" d="M361.32,490.29c-12.3,0-18.9-9.15-18.9-21.15s6.6-21.07,18.9-21.07,18.9,9.07,18.9,21.07-6.6,21.15-18.9,21.15ZM361.32,452.04c-8.77,0-12.37,7.8-12.37,17.02s3.6,17.02,12.37,17.02,12.37-7.8,12.37-17.02-3.6-17.02-12.37-17.02Z"/>
  </g>
  <g>
    <g>
      <path class="cls-1" d="M334.09,221.79l-.62-.07-1.65-4.47c.77-.99,1.19-2.58-.03-3.38-1.61-.63-6.15-5.82-7.49-2.46-.58.21-4.17.41-4.45,1.08-1.73-2.73-3.18-5.63-4.26-8.86.7-3.74,10.61-8.41,10.61-8.41,0,0-2.82-4.05-3.94-6.33-.5,1.11-.95.64-2.04,1.13,5.51-9.78,6.68-22.65-.61-31.89-.75-1.6-.4-3.72-1.14-5.29-1.26-1.67-2.14-4.95-4.37-5.3-.01,2.9-.31,5.75,1.09,8.44,1.5,1.87-2.04,3.47-3.14,1.98,2.11-.24,2.47-.66,1.74-1.86-9.09-2.04-14.18,4.35-22.86,5.35-.76,0-1.45.26-1.88.96-5.34,7.2,6.65,2.29,7.7,7.06-2,1.65-2.28.56-4.16.09-2.7.1-5.32.95-1.95,3.23-2.06,3.23-1.96,4.37-6.14,4.65,1.81,2.56,1.42,6.27,1.9,9.17-2.98.56-5.01,2-5.07,5.18-1.34.3-2.79-.4-3.74,1.05-1.88-1.55-4.03-1.84-6.28-1.87-1.09-.81-3.75-2.73-6.6-4.2.57-2.11,1.1-4.09,1.61-5.95.84-.53,3.84-2.44,4.62-2.94-.4-.81-1.99-4.01-2.42-4.88,5.36-18.44,7.1-19.47,9.81-19.87l.15-.51-9.92-3.17-.17.65c2.5,1.82,3.32,4.84,2.18,8.37-2.65-1.14-4.16-3.65-3.87-5.89-.05-.02-.66-.19-.66-.19l-3.32,11.01s.48.14.53.16c1.3-1.88,3.58-2.94,6.2-2.51-3.07,9.76-16.87,6.72-14.4-1.57,1.76-3.42,5.1-1.23,3.49,2.35,7.74-2.71,3.18-13.86-3.45-7.21,2.19-4.49,3.43-8.01.68-12.35-3.57,2.29-4.48,6.44-3.79,11.97-4.37-10-12,.3-5.8,5.51-1.13-7.42,8.03-2.52,1.83,3.46-5.91,4.18-13.17-.62-13.38-8,3.41.3,6.02,2.33,6.37,4.86.06,0,.63.02.63.02l.42-12.59s-.71-.03-.77-.04c-.53,2.55-3.3,4.71-6.81,4.78.24-3.88,2.46-6.91,5.35-7.4v-.72h-14.53v.72c2.88.5,5.11,3.52,5.35,7.4-3.51-.06-6.27-2.23-6.81-4.78-.06,0-.77.04-.77.04l.42,12.59s.57-.02.63-.02c.35-2.53,2.96-4.56,6.37-4.86-.21,7.37-7.48,12.18-13.38,8-6.19-5.98,2.96-10.88,1.83-3.46,6.2-5.22-1.44-15.5-5.8-5.51.68-5.53-.23-9.67-3.79-11.97-2.75,4.34-1.51,7.86.68,12.35-6.63-6.65-11.18,4.51-3.45,7.21-1.61-3.58,1.73-5.77,3.49-2.35,2.47,8.29-11.34,11.32-14.4,1.57,2.63-.44,4.9.62,6.2,2.51.05-.02.53-.16.53-.16l-3.32-11.01s-.6.17-.66.19c.29,2.24-1.22,4.75-3.87,5.89-1.14-3.54-.33-6.55,2.18-8.37l-.17-.65-9.92,3.17.15.51c2.71.4,4.45,1.43,9.81,19.87-.44.89-2.01,4.05-2.42,4.88.76.49,3.8,2.42,4.62,2.94.46,1.69.95,3.49,1.46,5.4.02,0,.04-.02.06-.03-.02.07-.04.09-.06.03-13.34,6.24-10.32,10.47-20.58,9.26-.92,2.12-1.78,4.23-3.87,5.67-.39-3.25-1.84-5.78-3.75-8.08-.95-1.1-2.25.12-3.66.23-2.78,6.07-4.71.59-9.62,3.76.19,2.83.62,5.65,2.18,8.26-3.65-.26-6.66-1.24-9.08-2.96-10.91,12.19-22.3,23.89-31.63,37.3-4.98,6.58-18.31,2.75-14.79-6.32,1.61-6.62,11.18-5.21,10.57,1.36,4.73-5.26,1.69-10.49-5.54-9.32,6.63-2.87,10.61,2.56,16.59-4.9-4.57.11-8.44-1.34-12.99-.28,5.76-3.45,13.67,1.67,18.59-7.85-4.29.46-8.16,2.25-12.6,2.91,26.62-25.38,1.01-26.63,4.26-37.61-2.08,1.77-3.28,3.53-2.32,5.9-5.96-2.49-14.8-1.76-17.22-9-.58,10.32,3.95,9.58,11.74,11.7-3.6-.43-7.14-.46-10.51-1.7.69,4.63,4.2,5.61,8.33,5.17-4.04,2.24-3.12,8,.99,9.98-2.62-14.93,19.73-9.81,9.52,3.9-4.74,7.06-11.59,12.31-17.36,18.48-1.09-1.88-2.22-3.76-4.74-3.5,4.39,5.07-.57,10.57-1.73,15.8-1.7,6.46,4.01,11.96,10.13,12.71-2.44,2.89-2.63,5.46-.75,7.82,1.84-9.49,15.6-7.35,16.9-17.62.23-1.21.81-2.15,2.16-2.71-6.2,7.01,8.71,21.85-5.3,23.59-2,.06-2.5,2.16-1.38,3.66-5.79-.29-7.39,1.91-8.27,7.37,2.55-.66,4.93-1.27,7.32-1.89-2.52,6.61-8.24-.38-7.3,11.36,2.34-1.12,4.54-2.31,6.68-3.63,2.07,6.59-10.49,3.74-1.06,14.27.6-1.96,3.12-5.99,4.4-6.88-1.16,3.31-.89,7.14,2.83,8.63.17-.88.33-1.66.48-2.45.17,0,.14,0,.31,0,.53,2.19.61,5.25,2.73,6.51.7.28,1.08.67,1.31,1.4.39,1.22,1.52,1.55,2.63,1.69,1.39.29,1.74-1.29,2.76-1.92.29,1.74,2.34,2.02,3.35,3.49.77-8.56-10.58-5.45-7.98-11.11,1.01,3.45,4.23,2.69,6.48,4.11.87,1.43,3,2.62,4.09.63,1.06.79,2.01,1.51,2.95,2.21-2.22-10.17-7.49-3.88-10.81-9.22,2.31.11,4.78,3.53,7.28,1.19,1.34,1.38,2.38,3.01,3.39,4.64.41-3.25-.8-5.73-3.36-7.54-2.89-1.77-6.8,1.37-9.27-2.16-3.37-4.16-3.28-10-1.52-14.82,1.61-3.71,6.1-5.09,8.17-8.6-.58,3.1-.29,8.49,3.22,9.49-.85-5.75,3.24-10.94,4.07-16.5,1.07-1.41,1.12-2.5.15-4.02-1.74-2.86-2.22-6.3-4.15-9.12-2.99-4.19-6.67-4.3-.58-8.72-3.7,5.74-.68,3.65,2.51,9.06.59-1.82,3.31-4.2-.09-4.19-5.37-2.64,6.99-9.49,9.78-9.66,2.75-.21,6.62.09,8.7-2.63-1.31-2.48-2.57-2.83-.35-5.41-1.5-.88-2.83-1.92-3.09-3.9-1.43.5-2.69.94-4.18,1.45,1.35-1.53,5.33-4.62,5.76-1.2.09,1.92,2,2.27,3.49,2.75-1.08,1.57-2.88,3.16-1.24,5,1.15,1.2,1.86,3.48,3.63,3.77.48-1.79.94-3.5,1.41-5.26,3.91,4.1-3.93,6.39,6.81,10.07-.39-2.22-.74-4.36-.45-6.65,5.18,4.33-2.23,7.04,9.7,8.45-1.33-1.58-1.64-3.32-2.12-5.09,1.99.33,3.6,2.23,4.88,3.66,1.23,1.87,2.13,2.89,4.94,1.07.13.33.16.77.39.96,1.26.96.75,2.12.73,3.4h.34c1.66-1.67,1.78-3.59,1.26-5.69-1.15-3.95-5.97-.81-7.66-4.84,2.28,1.55,4.54,2.46,7.04,1.16,1.4,1.32,1.98,2.28,2.66,4.15,1.14-4.25-.17-8.6-4.66-7.32-1.4.5-1.97.38-3.38-.83,2.09.72,3.46-.35,4.8-1.3.29.37.46.8.65.81,1.26.07,2.08.84,2.86,1.77.42-3.64-3.2-6.58-6.84-5.66-.91,4.46-4.65,1.94-7.62,1.34-4.61-2.7-7.03-7.87-11.11-11.24.41-5.01-3.76-8.99-8.77-8.7,4.51-1.97,9.87,1.91,10.22,6.62.17,1.93,1.34,3.14,2.56,4.58,15.25-30.67,64.49-38.69,92.76-19.23h0c2.41,2.21,5.03,4.01,7.52,6.33.97-2.93.4-6.41,4.77-4.64l.82-.56c-.89-2.48.96-5.28,3.56-5.46v1.93c-1.14.18-2.02,1.29-1.84,2.47.87-.18,1.66.96,1.19,1.71.82.46,1.97.27,2.6-.39.73.04,1.45.11,2.18.18-1,2.36-4.45,3.17-6.39,1.44h0c.37.52-1.3,5.73-1.37,6.35-.2.76-.91,1.26-1.66,1.23.31.51.57.93.85,1.39,1.24-.69,2.97-.65,2.81-2.4.24-.99-.41-5.57,1.02-5.16.58,1.74-.51,3.75.78,5.46,4.08-1.01,2.29-4.7,7.24-5.67,1.97-.18,6.11-1.13,7.17.83-4.32-1.16-9.9.03-10.85,4.97-4.5,1.06-8.27,4.27-13.06,4.27-3.8.21-4.83,4.77-4.99,7.91-.63,3.59-.83,7.32-2.43,10.65-.79,1.27-.13,2.74.3,3.92,1.46.77,2.5,5.82,2.71,7.63,0,3.29,5.64,4.4,7.94,6.45.64-4.13-7.18-2.96-6.08-8.73,1.39,3.82,4.43,4.61,7.76,6.48-1.04-3.86-1.36-10.29-6.75-9.49-2.08-2.89.96-3.06-.02-6.5,1.55.48,2.28,1.02,2.69,1.98-.48-.15-.9-.29-1.56-.5.18,2.44,2.3,3.02,3.93,4.7-.27-4-.63-6.53-4.36-8.49-2.11-1.93.32-6.38.18-9.05-.07-.79,4.98-3.3,5.76-3.08,3.74.49,7.67-.11,11.29.84,3.61,1.14.51-6.71,6.35-2.58-4.23-1.25-1.65,3.37-4.71,3.61-2.13.02-3.95-.18-6.17-.26,7.68,17.09,24.7,12.08,29.39,27.32,3.92-3.46,1.25-3.4.16-7.02,8.85,5.9-8.24,12.74-1.82,23.07-.4-1.16,3.61-6,4.07-6.99.73-1.09,1.97-1.16,2.78-.37l1.28-2.65c-2.38-1.31,1.93-6.89,2.24-8.48.45-.96,1.46-1.41,2.26-1.01l1.19-3.31c-2.25-.61-.56-6.07-.74-7.59-3.16-2.86-5.76-6.45-8.21-9.76l1.52-.26c-.17.75.1,1.56.73,2,1.09.43,5.25,4.45,6.55,3.49l.65,1.77c-1.05.28-1.24,1.76-1.25,2.76.56.47,1.16.91,1.71,1.41.08-.36.02-1.98.34-2.22.49.65,1.39.65,1.94.13.51.27-.13,3.79-.07,4.24.61.66,1.19,1.35,1.74,2.07-.23-1.62,1.76-7.82-1-8.12ZM289.5,164.16c.58-.06,1.06-.11,1.7-.18-1.12-.81-.02-1.93.9-1.14,2.21,1.72-2.22,4.52-2.6,1.32ZM200.83,180.31l-4.67-2.97,2.46-4.97,6.73,2.4-4.52,5.54ZM216.07,176.45c-7.3,1.48-8.85-6.56-1.52-7.89,7.3-1.48,8.85,6.56,1.52,7.89ZM232.56,175.83l-7.19-5.07,7.2-5.08,7.19,5.07-7.2,5.08ZM255.48,173.59c-.86,5.14-12.38,2.92-11.27-2.17.86-5.14,12.38-2.92,11.27,2.17ZM259.8,174.77l6.73-2.4,2.46,4.97-4.67,2.97-4.52-5.54ZM315.21,151.17c1.32,1.47,1.9,3.06,1.9,4.86-1.27-.44-1.83-1.83-1.9-4.86ZM309.16,160.69c-1.78,1.22-3.38,3.02-5.19.58-.42.08-.77.15-1.2.24,2.69-4.17,2.47-3.45,6.39-.82ZM294.29,175.79c1.19.42,2.31,1.05,3.51-.14-1.15,0-1.5-.81-1.84-1.58-.56-3.93,5.86-2.54,8.24-2.26,6.02,3.66,16.26,1.33,12.7-7.38,2.78,1.72,1.83,6.49-.29,8.35-5.56,3.01-10.83.75-16.39,6.63-.85-2.69-4.04-2.54-5.19.42-1.06.07-1.33.05-2.34.12-.18-1.56,1.08-2.69,1.59-4.16ZM315.28,201.58c-.25.31-.76.96-.76.96-4.63-5.28-20.24-11.34-26.99-10.36,0,0,.08-.78.13-1.2l-.05.02,2.56-1.63-2.19-1.82c.02-.25-1.4-9.14-1.4-9.14l3.87-.11s-1.38,1.62-1.44,2.9c.22.15.4.37.53.64.77-.33,1.6-1.93,1.6-1.93l.37,5.25s-1.07-1.51-1.86-1.79c-.06.19-.14.37-.28.52,1.12,3.49,6.21,3.69,6.21.71-.17-1.55-1.89-1.3-1.79.34-2.79-2.22.98-5.75,2.53-2.19-.2-2.05-.02-3.21,1.57-4.22,1.05,1.33.9,2.58-.23,4.56,3.42-3.18,4.73,2.21,1.51,3,1.57-2.84-2.95-1.94-1.29,1.02,1.52,2.32,5.19,1.98,6.49-.54-.09-.15-.16-.31-.19-.48-1.28-.25-3.2.85-3.2.85l1.78-4.84s.74,2.07,1.82,2.72c.19-.18.44-.31.71-.37.2-1.27-1.08-3.27-1.08-3.27l5.94,2.29s-2.35.6-3.1,1.66c.15.22.24.48.25.74,1.24.25,3.24-.77,3.24-.77l-2.13,4.71s-.62-2.07-1.72-2.75c-.14.1-.31.17-.48.22-.85,2.73,1.63,5.39,4.33,4.72,3.28-1,.68-4.73-.21-1.6-1.77-2.74,3-5.75,3.23-1.17.58-2.2,1.36-3.21,3.06-3.47.44,1.79-.25,2.75-1.85,4.11,3.68-1.55,3.84,3.55.29,3.28,1.24-1.14.15-2.45-1.06-1.44-2.12,2.22,1.85,5.39,4.96,3.81,0-.2.05-.39.14-.56-.77-.54-2.6-.6-2.6-.6l3.81-2.82s-.45,1.71-.09,2.6c.28-.05.57-.01.83.09.82-.82.86-3.04.86-3.04l2.84,3.54s-7.14,3.29-8.4,4.24l-1.98-.2.98,2.79h-.06ZM330.63,216.07c-.9-.08-1.64.7-1.34,1.67-.09-.01-.18-.04-.26-.09l-4.18-2.85c-.27-.18-.35-.56-.21-.86.79-.03,1.64-.44,1.53-1.39.32.41,4.82,2.8,4.45,3.53Z"/>
      <path class="cls-1" d="M280.23,195.78c-.32-.38-.4-.92-.12-1.33-.5-.1-1.35,4.6-1.52,4.87.34.33.64.65.92.98.44.13,1.19.38,1.34-.26,0,0,1.07-4.15,1.07-4.15-.5.45-1.3.49-1.7-.11Z"/>
    </g>
    <path class="cls-1" d="M217.4,313.3c-11.8-4.67-20.39,6.76-10.75,8.69-10.57.46-8.53-14.42-12.9-13.54,3.83,4.12,3.82,11.8,7.35,13.92,7.11,3.02,14.5,3.51,22.11,3.16-3.83-3.4-4.77-7.69-5.81-12.24Z"/>
    <path class="cls-1" d="M253.45,321.83c9.62-1.91,1.1-13.36-10.75-8.69-1.05,4.55-1.98,8.83-5.81,12.24,7.61.35,15-.14,22.11-3.16,3.53-2.12,3.52-9.8,7.35-13.92-4.36-.88-2.32,14-12.9,13.54Z"/>
    <path class="cls-1" d="M330.83,229.52c-.02.23.07.44.21.58.54-.46,1.38-.26,1.77.28.62-.18.41-2.09.54-2.54-.7-.76-1.44-1.48-2.21-2.16l-.31,3.83Z"/>
    <path class="cls-1" d="M327.86,243.68c.06-.55,3.04-5.46,2.26-5.89-.54.11-1.16-.19-1.38-.7-.73-.3-2.61,5.06-2.94,5.39.95-.58,2.15.39,1.83,1.48.09-.07.18-.16.24-.28Z"/>
    <path class="cls-1" d="M361.61,221c-2.47.75-3.49,2.81-4.42,5.14-6.21-9.68-18.01-16.36-19.81-28.21,1.39-9.47,13.94-7.31,11.39,2.56,6.51-3.5,3.36-10.01-2.77-11.16,6.66.53,10.3,6.16,14.86-3.2-3.94,1.43-9.94.42-12.01.11,8.3-1.12,12.81-1.05,12.55-11.35-2.82,6.17-10.65,6.29-16.33,8.28.37-2.74-.49-4.42-2.7-5.3,2.25,15.05-26.29,10.15,5.07,42.62-3.85-2.12-8.32-1.41-12.05-3.77,2.9,7.82,7.8,6.47,14.22,9.19-6.89-.04-9.02,6.68-3.92,9.9-1.33-5.19,5.8-8.76,9.36-4.7,8.14,10.46-6.76,24.98-19.98-1.22.09,1.45-.92,2.75-2.32,2.31l-1.49,4.15c3.02,1.12-1.62,6.96-1.94,8.65-.53,1.12-1.7,1.46-2.58.85l-1.46,3.04c1.83,1.68-3.09,6.44-3.65,7.92-.57.85-1.59,1.14-2.32.69l-.53,1.1c.11.14.18.23.2.22,3.34,3.96,4.87,7,3.97,11.2,2.71-2.32,3.92-8.77,1.75-12.28,2.45,2.56,6.02,4.39,7.42,7.66,1.41,5.94.33,11.84-3.71,16.53-1.71,1.72-1.26,2.63-1.47,4.74-1.14,3.35-5.15,3.63-6.66,6.47-1.06,2.49-2.81,4.52-3.57,7.13,4.55-.71,3.77-7.06,8.08-8.35-1.75,2.66-3.44,5.08-4.63,8.17,3.59-.93,10.38-1.91,9.25-6.98-.85-2.34,1.42-3.88,1.3-6.12,2.85-1.02,2.19-2.17,3.55-4.39.63,1.34.66,2.48.58,3.94-.35-.73-.57-1.18-.82-1.71-2.01,2.73-.33,5.39-.61,8.32,9.92-8.89-3.26-8.83,7.04-28.53,2.37-3.92-6.74-3.48-7.42-12.35-.64-3.83,2.73-6.97,3.44-10.63,3.97,7.06,17.83,6.82,15.94,15.84,2.79-2.11,2.67-5.96,1.57-8.85,14.3-5.15,3.02-18.3,7.62-27.63Z"/>
    <path class="cls-1" d="M319.04,254.89c.32.13.6.36.71.7.23.03.49-.08.64-.32.11-.34,3.63-4.96,3.23-5.28-.39-.13-.75-.39-.87-.81-.33-.32-.82-.48-1.15.02-.13.59-4.06,5.02-3.05,5.58.17,0,.33.03.48.11Z"/>
    <path class="cls-1" d="M316.98,255.8c.06.1.12.2.18.3l.06-.13-.24-.18Z"/>
    <path class="cls-1" d="M178.58,275.84c1.43.26,3.02.54,4.41-.09-2.16-3.68-4.28-7.29-6.49-11.05-3.84,4.73-10.51,1.84-14.7-1.06-3.41-2.52,3.96-6.43,1.59-14.81,3.28,5.29-2.68,9.86,6.53,12.83-2.66-3.96-2.3-9.06-3.3-13.6-.12-.78-.5-1.56.13-2.34.31-1.08.38-2.55-1.09-2.71-10.29-5.9-8.21-3.04-18.23-4.41-2.45,4.34,2.77,8.21,1.94,12.46-.73,2.08,2.42,1.99,2.38,4.02.7,3.16.36,7.6-3.25,8.82-1.79,1.08-.36,3.37,1.21,3.91-3.19,5.75-.74,6.67,4.13,9.55.03-2.22.07-4.16.99-6.04,6.73,4.47-3.3,5.22,10.04,10.63-1.35-2.23-1.32-4.66-1.52-6.9,1.26.3,2.49.59,3.74.88,1.44,6.17,4.78,6.71,10.67,6.17-2.1-2.09-2.7-4.82-4.23-6.99,1.77.6,3.54-.62,5.06.75Z"/>
    <path class="cls-1" d="M298.73,241.45c-1.83.29-2.24,1.06-1.91,2.84-2.03,4.39-2.09,9.73-5.56,13.44,7.47-2.11,5.82-4.94,7.64-10.62-.37,7.71.03,7.61,2.82,12.88-5.76,4.05-15.18.65-18.34,8.52.88,1.01,2.01-.02,3.18.26-.75.91-1.06,1.98-2.26,2.77.26-.76.42-1.23.58-1.7-2.16-.72-3.93,4.21-5.54,5.8,15.39-3.1-1.86-7.61,28.48-11.15,5.36-2.52-5.07-6.48,5.46-13.14.94-3.64,1.5-7.39,3.48-10.68.47-1.08-.27-2.6-1.26-3.36-4.61,3.25-6.8-1.99-16.77,4.14Z"/>
    <path class="cls-1" d="M143.32,178.18c.07-1.02.13-2,.2-3.09-1.16-.2-2.22-.39-3.41-.59,1.4-1.05,3.09-1.31,4.46-.78-1.18,4.97.93,8.47,6.24,8.74,1.62-2.42,3.08-2.78,4.66-1.08-7.02-.72-1.81,6.69,1.77,4.18.95-1.38,3.98-2.59,3.1-4.53-5.57-4.07-5.18,1.93-6.21-8.11-.23-.02-.49-.04-.71-.06-.52,1.91-2.39,3.38-3.93,1.58-.53-.6-1-1.16-1.87-1.31,3.81-3.04,8.34,1.35,8.06-5.8,4.25,5.32,4.62-.59,8.82-.68-.19,4.21-1.06,3.89-4.69,3.65,1.18.91,5.71,5.42,3.07,5.85-1.1-2.83-2.95-5.57-6.09-6.14-2.53,2.53-1.29,5.36-.89,8.27,2.25-.76,4.17-2.22,6.54-2.03.79,2.32-2.94,3.61-.82,5.91,3.62.59,7.55.61,6.4-4.52-1.18-.7-2.35-1.19-3.57.11.06-1.99,2.01-2.33,3.53-1.96,3.34-3.56,2.23-8.26-1.36-11.12.95-1.39,1.95-2.36,3.68-2.7-.58,1.2-1.8,1.65-2.08,2.74.8.98,1.54,1.9,2.28,2.8,1.93-.85,2.43-3.87,1.06-6.95-2.38.61-6.55,2.59-6.55,2.59-2.04-.78-1.17.23-.87,1.22-6.54,1.2-12.95,2.92-18.15,7.25-.93.68-1.36.27-1.66-1.05-.62-.95-.9.69-.99,1.09,0,0-3.93.96-5.64,2.42,1.21,2,2.91,5.14,5.63,4.09Z"/>
    <path class="cls-1" d="M168.97,176.2c.6,2.96-.24,5.43-2.18,7.75,2.91,5.2,7.83,9.14,10.01,14.77,4.86-9.07-.33-12.12-7.01-17.09,4.29,1.54,8.61,3.01,10.99,7.09.51-7.78-2.94-11.66-10.49-12.87.02-.11.05-.21.07-.32,3.15-.15,6.28-.14,9.22,1.78-.78-2.41-2.73-5.98-5.59-5.67,1.02-2.14,1.01-3.56-.02-4.85-.48,1.5-1.43,2.43-2.98,2.48.33,2.7-.56,4.93-2.03,6.92Z"/>
    <path class="cls-1" d="M144.94,193.93c.9,2.17,2.23,4.7,4.45,5.6-1.14-4.29,1.75-8.02,3.1-11.9.03,8.93-5.05,13.78,7.2,17.06-3.26-5.26-1.1-11.64-3.17-17.04-1.97-1.13-4.19-1.41-5.52-3.06-.37-.78-1.04-1.06-1.74-1.22-2.3-.5-4.43-1.26-5.58-3.18-1.68.53-2.7.46-4.25-.18-.14,1.91,1.49,3.82,3.63,3.09-1.71,2.5-.76,4.74-.14,7.32,1.23-2.57,3.1-4.12,5.2-5.43-1.61,2.74-4.47,5.5-3.17,8.94Z"/>
    <path class="cls-1" d="M194.15,285.16c1.66-1.54-.6-2.44-1.48-3.63-14.79-13.76-20.3-31.64-19-51.51-.36-.18-.8-.4-1.54-.77-2.48,21.06,5.65,42.32,22.02,55.9Z"/>
    <path class="cls-1" d="M326.16,170.69c-1.4,2.71,2.65,3.83,2.7,6.4-1.07-.85-1.99-1.58-3.01-2.39-1.29,5.02,4.64,6.63,6.46,10.58,2.38-7.31,1.09-11.75-6.15-14.59Z"/>
    <path class="cls-1" d="M163.71,192.27c-3.92.24-3.35-4.68-4.49-7.44-.71.8-1.3,1.47-1.94,2.19.81,2.73,1.62,5.48,2.48,8.39.65-.47,1.2-.86,1.78-1.27,2.73,1.93,5.23.6,6.14-2.41.81.2,1.55.55,2.13-.04-1.28-2.65-2.51-5.2-3.77-7.8-.79.16-1.52-.95-2.46-.07.88,2.44,4.11,7.31.13,8.45Z"/>
    <path class="cls-1" d="M325.41,158.43c-.02.11-.04.22-.06.33-1.23-.07-2.46-.13-3.75-.2,1.37,4.43,6.52,2.29,9.76,4.31-1.86-3.55-3.2-7.02-7.52-7.71.46-2.11-.11-4.1-1.42-4.89.02,1.85-.75,3.2-2.44,3.9-.83,3.67,2.99,3.49,5.43,4.26Z"/>
    <path class="cls-1" d="M324.29,183.94l-.3.06c-.89,3.91,1.84,7.34,3.54,10.68,2.95-5.26,2.84-11.22-1.89-15.38-1.45,2.79.57,5.45,1.28,8.09-.1.04-.2.08-.29.12-.78-1.19-1.55-2.38-2.33-3.57Z"/>
    <path class="cls-1" d="M323.2,161.87c1.69,4.02,4.39,3.06,6.15,5.69-1.48-.49-2.77-.91-4.05-1.33-.08,4.28,5.3,4.73,8.28,6.37-.48-6.93-3.84-9.56-10.38-10.73Z"/>
    <path class="cls-1" d="M307.67,154.61c1.84,0,4.49,1.18,6.01.11.04-5.84-7.09-5.07-11.14-5.19,1.21,2.19,2.75,4.35,5.13,5.08Z"/>
    <path class="cls-1" d="M287.41,237.9c-1.52-.12-2.95-.23-4.61-.37.06.82.11,1.43.16,2.08.92.23,1.71.42,2.55.63.25,4.81-2.4,4.9-5.98,2.88-1.07,6.11,8.77,5.49,7.88-5.23Z"/>
    <path class="cls-1" d="M284.01,218.42c-5.43,6.65-5.47,7.61,2.8,10.47-.08-.75-.13-1.24-.19-1.81-1.61-.48-3.21-1.08-4.65-2.05,1.04-1.29,2.02-2.49,3.02-3.74-.29-.85-.6-1.73-.99-2.86Z"/>
    <path class="cls-1" d="M258.72,194.21c.91-.07,1.71-.13,2.5-.2.87-3.24-.97-3.6-3.19-5.34-.9,2.69-3.27,4-4.62,6.27,2.18-.15,3.43-.85,4.68-2.55.22.64.42,1.23.63,1.82Z"/>
    <path class="cls-1" d="M271.21,208.92c.78-2.14,4.86-7.39,2.66-9.05-1.01.6-3.14.34-2.94,1.95-.01,2.34,0,4.68,0,7.01.09.03.19.06.28.08Z"/>
    <path class="cls-1" d="M311.85,149.12c.08-.12.17-.24.25-.35-2.3-3.28-3.28-3.95-7.34-3.97.07,3.97,4.18,3.97,7.08,4.32Z"/>
    <path class="cls-1" d="M301.49,139.3c-.16,2.8,2.19,4.42,6.08,4.21-1.01-2.83-3.02-4.36-6.08-4.21Z"/>
    <path class="cls-1" d="M292.37,168.42c-3.17-1.48-5.75.4-8.94-.3.9,4.42,6.17,1.2,8.94.3Z"/>
    <path class="cls-1" d="M298.41,134.83c.82,2.82,1.92,3.42,4.83,3.01-.92-2.32-2.42-3.25-4.83-3.01Z"/>
    <path class="cls-1" d="M299.97,133.37c-1.12-2.41-1.71-2.71-4.08-2.46.98,2.38,2.39,3.27,4.08,2.46Z"/>
    <path class="cls-1" d="M285.46,211.6c.75,1.29,1.51,2.58,2.23,3.83,2.92,0,.44-2.44-.23-3.48-.38-.41-1.2-.41-1.82-.59-.06.08-.13.16-.19.25Z"/>
    <path class="cls-1" d="M277.05,214.97c1.49-.86,3.03-1.52,4.37-2.59-.32-.45-.55-.78-.89-1.27-1.28,1.26-4.3,1.66-3.48,3.86Z"/>
    <path class="cls-1" d="M296.44,129.47c.42-1.53-1.76-3.56-3.32-2.94.21,1.69,1.98,3.17,3.32,2.94Z"/>
    <path class="cls-1" d="M263.03,214.32s0,0,0,0v.02s0,0,0-.01Z"/>
    <path class="cls-1" d="M149.98,155.6c.81-.75-.41-1.99-1.19-1.22-.81.76.4,2,1.19,1.22Z"/>
    <path class="cls-1" d="M151.04,157.84c.81-.75-.41-1.99-1.19-1.22-.81.76.4,2,1.19,1.22Z"/>
    <path class="cls-1" d="M145.47,147.78h0s-1.93.15-1.93.15l1.01,2.53,1.36-1.58c.08.05.16.08.25.11,0,.02.2,3.36.2,3.38h0c.34,2.96,4.85,1.14,3.05-1.23,0,0-2.17-2.58-2.17-2.58.05-.08.08-.16.11-.25l2.07.22-1.01-2.53-1.5,1.22c-.08-.05-.16-.08-.25-.11l-.17-2.44c-.62.25-1.86.74-2.48.99l1.55,1.9c-.04.08-.08.16-.1.24Z"/>
    <path class="cls-1" d="M139.95,160.99c1.25.03,1.27-1.92.03-1.92-1.23-.03-1.27,1.92-.03,1.92Z"/>
    <path class="cls-1" d="M139.75,163.49c1.25.03,1.27-1.92.03-1.92-1.23-.03-1.27,1.92-.03,1.92Z"/>
    <path class="cls-1" d="M143.75,154.94c1.25.03,1.27-1.92.03-1.92-1.23-.03-1.27,1.92-.03,1.92Z"/>
    <path class="cls-1" d="M140.74,158.71c1.25.03,1.27-1.92.03-1.92-1.23-.03-1.27,1.92-.03,1.92Z"/>
    <path class="cls-1" d="M152.39,161.1c-.07-.96.63-2.85.63-2.85-.97.39-2.95,1.18-3.93,1.56,0,0,1.81.89,2.42,1.64-.83.3-1.63.43-2.78-.09l1.53,3.04c.33-1.34,1.02-2.14,1.55-2.25,1.65,2.54-2.46,5.34-4.24,3.16-.52-.91.09-1.89,1.15-1.14-.16-1.88-1.79-1.88-2.29-.48.04-1.93-.45-3.1-2.47-3.67-.53,1.93.12,3.09,2.05,3.92-1.1-.14-2.29.94-.79,2.29.01-1.22,1.03-1.35,1.58-.53.87,2.25-1.77,3.12-3.94.83.48-.18,1-.1,1.69.05l-2.07-2.61c.11.92.04,1.58-.15,2-.44-.52-.59-.97-.78-1.97l-1.58,1.39c1.51.94,3.2,2.44,5.28,5.4,2.75-2.7,13.84-7.34,18.12-7.21-.52-3.58-.32-5.83.12-7.55l-2.1.08c.55.86.76,1.28.79,1.97-.42-.18-.93-.61-1.48-1.35l.29,3.32c.39-.59.72-1,1.19-1.2,0,3.15-2.53,4.34-3.44,2.1-.16-.98.66-1.58,1.51-.7.16-2.01-1.45-1.98-2.15-1.12.83-1.93.5-3.22-1.2-4.25-1.08,1.81-.63,2.99.73,4.37-1.32-.68-2.51.44-1.33,1.92.25-1.27,1.37-.98,1.62.04.2,2.8-4.71,3.59-5.25.61.45-.28,1.5-.18,2.67.57l-.98-3.26c-.47,1.17-1.15,1.62-1.96,1.97Z"/>
    <path class="cls-1" d="M204.34,264.18c1.48.86,3.14,1.81,4.65,2.68-3.71,4.5,2.94,6.45,2.58,2.05,2.48,1.06,12.25,4.07,8.33-1.77-12.81.42-19.34-13.02-12.26-23.3,4.31,1.97,19.45-5.4,18.19,2.1.79.84,1.02.91,2.82.9,4.38-10.07-10.7-7.06-16.12-5.88-4.83,1.43-9.27-5.63-13.53-1.77-1.7,1.5-.59,4.84,1.71,4.95,2.04.06,2.62-2.75.81-3.63,3.97-1.34,2.06,5.04.62,6.68-4.56-2.36-5.31,4.99-.8,3.06.2,1.31.26,2.61-.06,3.87-4.93-1.06-3.62,6.01.08,3.16,1.06,1.01,1.56,2.58,1.68,4.09-4.94.71-.99,7.04,1.3,2.8Z"/>
    <path class="cls-1" d="M218.65,271.86c-.21-.08-.42-.14-.69-.22-.34.93-.87,2.62-.05,3.21,0,0,4.15,1.78,4.15,1.78l5.33-3.96,1.44-21.39-1.57.12c-.42.05-3.33,24.71-4.84,23.27.3-1.63,3.85-23.26,3.85-23.26,0,0-1.06-.15-1.57-.22-.09.5-.2,1.14-.2,1.14l-5.88-7.73-.77.37,6.3,8.29-.41,1.47c-.58-.37-6.66-8.82-7.27-9.6l-1.24-.09,8.19,10.69-.44,1.43-9.18-12.07-1.18-.02,9.94,13.11-.52,1.89-10.92-14.85-1.45.04,12.08,15.94-.44,1.47-13.33-17.42-.23,1.34s12.41,16.32,13.17,17.39c-.64,2.01-.15,2.18.72,3.84.48,1.86-.81,4.75-3.01,4.07Z"/>
    <path class="cls-1" d="M219.9,265.07l-12.76-16.92s-.25.8-.35,1.15c.95,1.24,12.23,16.2,12.23,16.2l.89-.44Z"/>
    <path class="cls-1" d="M207.11,253.86c2.95,3.73,5.84,7.54,8.71,11.32.43.05,1.22.22,1.22.22l-10.41-13.82s-.18,1.41.47,2.27Z"/>
    <path class="cls-1" d="M229.36,247.57c-1.41-.12-2.91-.4-4.29-.53-2.69,2.34.33,3.67,2.34,3.49,1.72.45,4.02-1.82,1.95-2.96Z"/>
    <path class="cls-1" d="M228.92,307.93c-.42,1.91,2.59,2.52,2.95.6.42-1.91-2.59-2.52-2.95-.6Z"/>
    <path class="cls-1" d="M231.63,296.46c.52-2.37-3.21-3.13-3.66-.75-.52,2.37,3.21,3.13,3.66.75Z"/>
    <path class="cls-1" d="M218.9,290.14c.52-2.37-3.21-3.13-3.66-.75-.52,2.37,3.21,3.13,3.66.75Z"/>
    <path class="cls-1" d="M239.39,313.32c-1.51,8.54-5.59,12.39-9.21,12.39s-7.7-3.86-9.21-12.39c.46.42.91.99,1.42,1.67l.79,1.04,1.11-.69c.48-.3.94-.53,1.37-.7-.49.99-.65,2.15-.42,3.37.48,2.56,2.51,4.36,4.95,4.37,2.42-.01,4.45-1.81,4.93-4.37.23-1.21.06-2.38-.42-3.37.43.17.89.41,1.37.7l1.11.69.79-1.04c.52-.68.96-1.24,1.42-1.67M241.16,311c-2.12.22-3.22,1.65-4.34,3.12-1-.62-2.3-1.24-3.53-1.24-.66,0-1.29.18-1.84.63,3.89,1.54,2.5,7.41-1.28,7.43-3.78-.02-5.18-5.89-1.28-7.43-.55-.45-1.18-.63-1.84-.63-1.22,0-2.53.62-3.53,1.24-1.12-1.47-2.22-2.9-4.34-3.12,1.16,10.77,6.08,16.16,10.99,16.16s9.83-5.39,10.99-16.16h0Z"/>
    <path class="cls-1" d="M206.03,282.77c1.62-1.95-4.08-4.51-4.92-5.61-.67-.41-1.52-.31-1.97.28-1.63,1.86,3.98,4.47,4.75,5.5.69.54,1.65.46,2.14-.17Z"/>
    <path class="cls-1" d="M205.3,286.93c6.3.03,5.48-9.97-.73-8.91,2.88,1.56,5.38,5.68.9,6.88-1.69.35-3.41-1.47-4.66-2.37.04,2.44,2.04,4.41,4.48,4.41Z"/>
    <path class="cls-1" d="M196.34,288.59c1.39,2.64,9.5,9.81,11.7,6.42-3.96-2.01-10.67-6.95-8.1-13.22-5.82-3.57-.68-9.27,3.86-4.43,4.83-2.99,10.2-.85,14.95,2.46,1.71-3.7-6.59-6.25-8.53-7.35-2.44-.82-10.15.92-12.73,1.04-1.75.22-3.02,1.79-2.86,3.55.39,1.88.33,10.03,1.71,11.53Z"/>
    <path class="cls-1" d="M267.78,147.4l3.58,1.15c-5.67-11.94-16.05-20.91-28.55-24.13-.31.83-.58,1.72-.84,2.67,10.98,2.76,20.24,10.23,25.8,20.31Z"/>
    <path class="cls-1" d="M193.78,148.55l3.58-1.15c5.56-10.08,14.82-17.55,25.8-20.31-.25-.95-.53-1.84-.84-2.67-12.5,3.22-22.88,12.18-28.55,24.13Z"/>
    <path class="cls-1" d="M259.58,129.22c2.56.04,2.56-3.99,0-3.95-2.56-.04-2.56,3.99,0,3.95Z"/>
    <path class="cls-1" d="M250.52,124.06c2.56.04,2.56-3.99,0-3.95-2.56-.04-2.56,3.99,0,3.95Z"/>
    <path class="cls-1" d="M245.61,122.28c2.56.04,2.56-3.99,0-3.95-2.56-.04-2.56,3.99,0,3.95Z"/>
    <path class="cls-1" d="M255.19,126.39c2.56.04,2.56-3.99,0-3.95-2.56-.04-2.56,3.99,0,3.95Z"/>
    <path class="cls-1" d="M263.63,132.51c2.56.04,2.56-3.99,0-3.95-2.56-.04-2.56,3.99,0,3.95Z"/>
    <path class="cls-1" d="M273.88,147.36c-.04,2.56,3.99,2.56,3.95,0,.04-2.56-3.99-2.56-3.95,0Z"/>
    <path class="cls-1" d="M271.49,142.71c-.04,2.56,3.99,2.56,3.95,0,.04-2.56-3.99-2.56-3.95,0Z"/>
    <path class="cls-1" d="M267.32,136.21c2.56.04,2.56-3.99,0-3.95-2.56-.04-2.56,3.99,0,3.95Z"/>
    <path class="cls-1" d="M268.63,138.31c-.04,2.56,3.99,2.56,3.95,0,.04-2.56-3.99-2.56-3.95,0Z"/>
    <path class="cls-1" d="M205.57,129.22c2.56.04,2.56-3.99,0-3.95-2.56-.04-2.56,3.99,0,3.95Z"/>
    <path class="cls-1" d="M201.52,132.51c2.56.04,2.56-3.99,0-3.95-2.56-.04-2.56,3.99,0,3.95Z"/>
    <path class="cls-1" d="M189.3,149.33c2.56.04,2.56-3.99,0-3.95-2.56-.04-2.56,3.99,0,3.95Z"/>
    <path class="cls-1" d="M209.96,126.39c2.56.04,2.56-3.99,0-3.95-2.56-.04-2.56,3.99,0,3.95Z"/>
    <path class="cls-1" d="M194.54,140.29c2.56.04,2.56-3.99,0-3.95-2.56-.04-2.56,3.99,0,3.95Z"/>
    <path class="cls-1" d="M191.68,144.69c2.56.04,2.56-3.99,0-3.95-2.56-.04-2.56,3.99,0,3.95Z"/>
    <path class="cls-1" d="M219.54,122.28c2.56.04,2.56-3.99,0-3.95-2.56-.04-2.56,3.99,0,3.95Z"/>
    <path class="cls-1" d="M197.83,136.21c2.56.04,2.56-3.99,0-3.95-2.56-.04-2.56,3.99,0,3.95Z"/>
    <path class="cls-1" d="M214.63,124.06c2.56.04,2.56-3.99,0-3.95-2.56-.04-2.56,3.99,0,3.95Z"/>
    <path class="cls-1" d="M235.97,142.41h2.63c0-8.33,1.21-15.55,3.38-20.32.73-1.54-1.7-2.67-2.4-1.09-3.14,6.88-3.62,16.35-3.62,21.41Z"/>
    <path class="cls-1" d="M226.54,142.41h2.63c0-5.06-.48-14.53-3.62-21.41-.7-1.57-3.13-.45-2.4,1.09,2.18,4.77,3.38,11.98,3.38,20.32Z"/>
    <path class="cls-1" d="M232.57,142.38c2.78.04,2.78-4.32,0-4.28-2.78-.04-2.78,4.32,0,4.28Z"/>
    <path class="cls-1" d="M232.57,137.02c2.78.04,2.78-4.32,0-4.28-2.78-.04-2.78,4.32,0,4.28Z"/>
    <path class="cls-1" d="M232.57,131.65c2.78.04,2.78-4.32,0-4.28-2.78-.04-2.78,4.32,0,4.28Z"/>
    <path class="cls-1" d="M231.06,126.42c.9-.48,2.12-.48,3.03,0,3.07-4.73-6.1-4.72-3.03,0Z"/>
    <path class="cls-1" d="M234.28,121.92c2.38-4.44-5.79-4.43-3.4,0,.99-.61,2.41-.61,3.4,0Z"/>
    <path class="cls-1" d="M231.28,103.9c-.35,2.74-1.78,4.85-3.56,5.18v.7h3.47c-.16.12-.31.27-.43.43-6.19,1.38-6.83,10.83-.91,13.05-2.31-2.23-.54-6.52,2.72-6.41,3.26-.11,5.03,4.18,2.72,6.41,5.92-2.22,5.28-11.67-.91-13.05-.13-.16-.27-.31-.43-.43h3.47v-.7c-1.78-.33-3.21-2.44-3.56-5.18,2.74.35,4.85,1.78,5.18,3.56h.7v-9.71h-.7c-.33,1.78-2.44,3.21-5.18,3.56.35-2.74,1.78-4.85,3.56-5.18v-.7h-9.71v.7c1.78.33,3.21,2.44,3.56,5.18-2.74-.35-4.85-1.78-5.18-3.56h-.7v9.71h.7c.33-1.78,2.44-3.21,5.18-3.56Z"/>
    <path class="cls-1" d="M316.96,255.79h.01c-.22-.37-.43-.75-.62-1.11.05.45.26.85.61,1.11Z"/>
    <path class="cls-1" d="M315.33,259.91c-2.74-1.72-4.26,5.88-5.28,7.18-.49,1.12-.05,2.31.95,2.67l-2.02,4.2c-1.09-.18-2.03.65-2.03,1.91.41,1.63-1.22,8.75,1.67,8.83v1.97c-6.97,1.25-5.93,12.23,1.24,12.06,7.12.18,8.23-10.71,1.32-12.04v-1.9c1.09.18,2.03-.65,2.03-1.91-.38-1.59,1.1-8.43-1.45-8.79l1.54-3.2c2.62,1.42,4.15-5.99,5.14-7.25.46-1.04.1-2.22-.81-2.6l1.17-2.43c-.33-.43-1-1.43-1.64-2.5l-1.83,3.8ZM314.03,292.63c-1.7,9.77-14.26.09-5.26-4.04.41.94,1.84.99,2.26.02,1.73.51,3,2.11,3,4.01ZM311.17,282.61c.18-1.4-1.63-2.17-2.36-.98.19-.53-.5-5.86.49-5.85.42.3.96.35,1.4.04.3.05.54.35.54.71v5.74c0,.12-.03.23-.07.33ZM316.47,263.25c-.3.34-2.25,5.89-2.9,5.67-.27-.45-.87-.73-1.38-.58-.3-.15-.41-.56-.25-.91.37-.38,2.18-6.05,3.03-5.66.22.53.88.87,1.44.73.15.19.19.49.07.76Z"/>
    <path class="cls-1" d="M175.62,247.6l.61,2.37,10.89-1.35-.53-2.15c-.55-.12-7.34,1.13-7.34,1.13,0,0,6.45-7.53,6.29-8.42l-10.99,1.24.23,1.89c.53-.07,6.46-.9,6.46-.9,0,0-5.37,6.06-5.63,6.18Z"/>
    <path class="cls-1" d="M179.5,261.58c5.26,5.04,13.55-3.04,8.1-8.22-5.27-5.1-13.69,3.03-8.1,8.22ZM180.11,255.95c2.31-4.19,10-1.69,6.82,3.08-2.39,4.06-9.95,1.77-6.82-3.08Z"/>
    <path class="cls-1" d="M186.81,273.47l1.84,2.54c1.95-2.4,5.98-5.31,8.87-6.42l-1.84-2.54c-.71,1.17-2.28,2.31-3.5,3.16l-2.82-3.9c1.19-.9,2.76-2.03,4.1-2.34l-1.84-2.54c-1.95,2.4-5.98,5.31-8.87,6.42l1.84,2.54c.71-1.16,2.26-2.3,3.48-3.14l2.82,3.9c-1.19.89-2.75,2.01-4.08,2.32Z"/>
    <path class="cls-1" d="M185.77,235.47l.15-2.33c-3.11.58-8.13.58-11.23-.03l-.15,2.33c3.11-.58,8.13-.58,11.23.03Z"/>
    <path class="cls-1" d="M264.84,282.53c6.66-2.91,5.18-9.54-2.35-6.51-3.15-.89.83-4.1,2.92-3.4l.05-.04-1.58-1.87c-2.37,1.03-6.14,4.22-4.13,6.92,1.39,1.78,4.2-.12,6.04-.1,3.05.55-.23,3.72-2.12,3.54l-.03.04"/>
    <path class="cls-1" d="M283.11,259.39l1.89-6.42c-.96.07-9.61-2.45-10.38-3.02l-1.8,6.1,1.8,1.53.03-.02c-.14-1.41.05-2.98.57-4.73l3.28.96c-.33.95-.9,3.13-1.36,3.7l1.64.24,1.05-3.55,3.14.91c-.37,1.18-.89,2.1-1.56,2.77l1.68,1.54Z"/>
    <path class="cls-1" d="M278.74,267.93l1.02-1.99-8.54-5.72-.94,1.79c.32.42,5.89,3.7,5.89,3.7,0,0-9.18,1.2-9.61,1.91l8.54,5.86,1-1.44c-.42-.28-5.12-3.33-5.12-3.33,0,0,7.52-.86,7.77-.78Z"/>
    <path class="cls-1" d="M255.16,288.86l5.94-3.43c-.76-.58-5.39-8.14-5.55-9.07l-5.64,3.26.25,2.31h.04c.89-1.11,2.15-2.13,3.77-3.07l1.76,2.87c-.92.48-2.88,1.68-3.62,1.8l1.04,1.26,3.29-1.9,1.68,2.75c-1.11.61-2.15.94-3.11.99l.15,2.23Z"/>
    <path class="cls-1" d="M188.89,213.79c-1.77-1.4-4.06,1.1-5.85,1.51-3.09.18-.65-3.67,1.22-3.94l.02-.05-1.49-1.09c-2.8,1.42-4.92,7.49-.4,7.62.96.05,3.41-1.65,4.21-1.84,2.13-.4,1.45,2.45.18,3.13.63-.03,1.29-.11,1.9.05,1.18-1.66,1.94-4.08.21-5.39Z"/>
    <path class="cls-1" d="M191.09,210.53c-4.96-.32-5.99-8.89,0-7.59v-2.08c-7.77-.46-7.65,11.86,0,11.6v-1.93Z"/>
    <path class="cls-1" d="M203.4,195.37s3.4,0,3.42,0c-1.29-2.05-2.33-3.73-2.33-3.73,1.18-.69,3.71-1.71,4.84-1.63l-2.69-2.05-8.27,4.94.95,3.18.05.02c.67-1.31,1.68-2.37,2.78-2.99.25.46.7,1.27,1.26,2.27Z"/>
    <path class="cls-1" d="M227.54,193.93l.02.05c-1.64,1.33-3.75.78-5.52-.16-5.14,2.89-10.7-3.88-6.57-8.22,4.35-5.18,12.97.7,8.8,6.41,1.36,1.04,2.45,1.68,3.27,1.92ZM221.24,192.28c4.14-1.61.55-8.01-3.12-6.5-4.1,1.57-.57,8.02,3.12,6.5Z"/>
    <path class="cls-1" d="M229.09,189.34c-.04-1.77.21-4.9-.54-6.43h3.67c-.59,1.65-1.65,9.24,1.48,8.85,1.23.02,2.47-.84,2.44-2.13-.05-1.81.24-5.15-.54-6.72h3.67c-.86,2.85-.86,7.85,0,10.71h-3.12c.07-.22.1-.57.1-1.06-3.18,2.26-7.47,1.13-7.17-3.22Z"/>
    <path class="cls-1" d="M244.66,194.63c.65-2.64,1.57-7.13,3.04-9.36l-2.85-.96c.03,2.83-1.49,7.25-2.44,9.95q1.1.14,2.26.37Z"/>
    <g>
      <path class="cls-1" d="M262.08,230.31h1.83v-28.98h-26.78v28.98h24.96ZM251.86,229.45h-.01s0,0,.01,0ZM249.16,229.45h-.01s0,0,.01,0h0ZM262.99,214.57s0,0,0,0h0s0,0,0,0ZM251.82,202.2h0s0,0,0,0h0ZM238.03,217.11h0s0,0,0,0c0,.01,0,.28,0,.29.05-.54.92-.15.49.23l.14.13c.88.1,1.01-1.22.12-1.27v-.03l1.07-.46v-.32l-1.07-.47v-.03c.9-.05.77-1.37-.12-1.27l-.14.14c.44.37-.44.77-.49.22,0,.04,0,.3,0,.33h-.01v-11.52h.91v-.86h9.92c.55.09.08.85-.27.45l-.14.13c-.11.87,1.37.93,1.36.06h0l.52,1.06h.34l.51-1.05c0,.87,1.47.81,1.36-.06l-.14-.13c-.35.4-.82-.36-.27-.45,0,0,9.94,0,9.94,0v.86h.92c-.1-.2.36,14.13-.48,10.96l-.14-.14c-.88-.1-1,1.23-.11,1.27v.03l-1.07.47v.32l1.07.46v.03c-.89.05-.77,1.38.11,1.27l.14-.13c.84-3.26.38,11.39.48,10.98h-.92v.86h-9.92c-.57-.08-.12-.86.26-.46l.14-.13c.11-.85-1.32-.94-1.36-.09h-.02l-.5-1.02h-.34l-.5,1.02h-.02c-.03-.84-1.45-.76-1.35.09l.14.13c.37-.4.83.38.25.46,0,0-9.91,0-9.91,0v-.86h-.91v-11.49Z"/>
      <path class="cls-1" d="M267.86,231.43c.01-.6-.66-1.04-1.23-.84v.13c-1.06,4.78-.54-14.89-.64-14.17l.97.4v-2.29l-.97.4v-14.5c.14-.73,1.27-.11.65.36v.13c1.34.42,1.72-1.71.3-1.74l.89-1.54-.21-.2s-1.59.88-1.61.87c-.02-1.33-2.27-1-1.84.28h.14c.47-.58,1.17.45.39.61,0,0-13.37,0-13.37,0l.41-.9h-2.43l.42.9h-13.36c-.8-.11-.13-1.2.37-.61h.14c.44-1.28-1.82-1.61-1.83-.28-.02.02-1.6-.87-1.62-.87l-.21.2.89,1.54c-1.43.02-1.04,2.16.3,1.74v-.13c1.04-4.77.55,14.8.64,14.13l-.95-.39v2.29l.95-.39c-.09-.34.41,18.82-.64,14.16v-.13c-1.34-.42-1.73,1.71-.3,1.73l-.9,1.54.21.2s1.6-.88,1.62-.87c.01,1.33,2.28,1,1.84-.28h-.14c-.21.31-.76.15-.75-.23,0-.19.16-.35.36-.38h13.39l-.42.91h2.43l-.42-.91h13.36c.2.03.36.19.36.38.01.37-.54.54-.75.23h-.14c-.42,1.29,1.83,1.61,1.84.28.01-.01,1.59.87,1.61.87l.22-.2-.89-1.54c.51,0,.93-.4.93-.89ZM251.67,200.22h13.39v31.22h-29.09v-15.71h0s0,0,0,0v-15.51h15.7Z"/>
      <path class="cls-1" d="M262.97,217.39v.02s0-.01,0-.02Z"/>
      <path class="cls-1" d="M262.97,214.22v.02s0-.01,0-.02Z"/>
      <path class="cls-1" d="M238.07,217.41v-.02s-.01,0,0,.02Z"/>
      <path class="cls-1" d="M238.07,214.24v-.02s-.01,0,0,.02Z"/>
    </g>
    <path class="cls-1" d="M141.36,162.51l.65-.53c.25-2.67,1.51-5.06,3.55-6.52-.14-.19-.28-.37-.42-.53-2.32,1.69-3.68,4.49-3.78,7.59Z"/>
    <path class="cls-1" d="M147.64,158.74l.62-.21c-.41-1.14-1.3-3.24-2.6-4.55-.29-.3-.77.14-.48.43.9.91,1.77,2.44,2.45,4.32Z"/>
    <path class="cls-1" d="M142.04,156.63c1.25.03,1.27-1.92.03-1.92-1.23-.03-1.27,1.92-.03,1.92Z"/>
    <path class="cls-1" d="M160.29,152.5c-.85.92-2.26-.44-1.39-1.33.84-.9,2.26.44,1.39,1.33Z"/>
    <path class="cls-1" d="M162.22,154.11c-.85.92-2.26-.44-1.39-1.33.84-.9,2.26.44,1.39,1.33Z"/>
    <path class="cls-1" d="M153.31,150.98c-.85.92-2.26-.44-1.39-1.33.84-.9,2.26.44,1.39,1.33Z"/>
    <path class="cls-1" d="M158.11,151.48c-.85.92-2.26-.44-1.39-1.33.84-.9,2.26.44,1.39,1.33Z"/>
    <path class="cls-1" d="M160.39,154.57l-.83.09c-2.08-1.69-4.67-2.46-7.15-2.03-.04-.23-.07-.46-.09-.67,2.83-.47,5.78.52,8.06,2.61Z"/>
    <path class="cls-1" d="M153.14,156.42l-.58.3c-.53-1.09-1.4-3.2-1.43-5.04,0-.42.64-.45.64-.04.02,1.28.5,2.97,1.37,4.78Z"/>
    <path class="cls-1" d="M155.72,150.94c-.85.92-2.26-.44-1.39-1.33.84-.9,2.26.44,1.39,1.33Z"/>
    <path class="cls-1" d="M258.85,253.92c2.78-.05,9.22-3.1,4.54-5.63-2.62-.44-5.23.84-7.76,1.43-10.16,4.04-4.2-.9-10.51-.36,2.13,5.38,7.5,2.6,11.53,1.35.12.59-.62.73-.52,1.33,1.35-.28,2.65-.55,3.92-.81.55-2.64,5.37-2.67,3.17-.02-5.56,2.42-12.12,1.97-17.94,3.63-3.89,10.19-10.65,3.26-10.59,6.17-1.52.14-1.5,1.61.06,1.48.03,2.97,7.53-.47,8.92-1.38.33-.72.64-1.37.96-2.05,2.28,1.11,3.88-2.17,5.86-2.75,1.97-.39,4.53-2.32,6.21-.54,1.87,2.06,4.66-1.09,6.31,1-.62,1.61.2.9.47,1.91-.03.9,1.48.89,1.51-.02,0-.4.04-.65.43-.81.83-1.27-.94-2.67-1.56-3.72-1.37-1.32-3.64,1.19-5.02-.2Z"/>
    <path class="cls-1" d="M233.74,249.43c.45.15.28.69.49.96,2.39.16,4.79-.47,7.2-.77,1.8,0,1.74-1.59,3.06-1.81,3.19.17,5.17-2.65,8.17-3.1,2.41-.68,5.65-1.57,7.78.12.52.57,1.26.68,2.03.54,1.02-.18,2.23-.4,2.76.78-.17.18-.34.36-.58.6.1.22.22.48.34.73.5-.03.57.37.77.69.27.44.9.45,1.01,0,.13-.57.71-.28.89-.77.1-1.47-.23-3.3-1.7-4.03-.72-.68-3.58.71-3.66-.7,2.13.48,6.22-2.3,3.41-4.09-4.75-1.11-9.98,1.19-14.8,1.73-1.9.42-.95-2.67-5.14-1.84,2.7,5.63,8.52,1.64,13.04,1.6.03.51-.86.48-.64,1.11,1.31-.41,3.55.29,4.3-1.02.41-1.6,3.78-1.22,2.79.63-2.53,1.62-6.29.88-9.26,1.21-3.63.31-7.6.39-11,1.66-.67,2.11-1.61,4.28-4.04,4.78-1.7-1.65-4.17.3-5.99-1.37-.6.12-.71.48-.95.93-.9.34-1.2.85-.28,1.45Z"/>
    <path class="cls-1" d="M260.51,264.24c-4.75-.61-4.04,2.66-6.38,1.89.42-.52,1.59-.81,1.21-1.6-3.48,1.52-7.15,2.61-10.62,4.18-1.77,1.87-1.18,5.61-5.17,5.95-.14,1.95-2.87,3.26-4.55,2.39-.68.63-.39.8-.28,1.39-.57.52-1.36,1.72-.12,1.71.39-.08.69-.66,1.09-.48-.03.25-.06.5-.09.79.33,0,.77.11.88-.04.55-.69,1.33-.12,1.95-.66,2.05-1.38,4.97-2.64,4.81-5.5,3.61-1.59,5.71-7.43,10.42-5.37,2.32,1.26,2.96-2.51,5.05-2.59.59,1.38.87,1.26,1.62.81,1.31,1,1.09-.58,1.6-1.32.06-.72-.67-1.56-1.41-1.55Z"/>
    <path class="cls-1" d="M239.01,241.35c-.76,2.16.02,5.03,2.03,6.22,2.3-1.03,3.77-4.03,2.97-6.55.55-.46,1.23-.69,1.02-1.46-.36-.87-1.72-.22-2.08-1.24-.86-1.18-2.01-.22-2.71.58-.53.06-1.05-.2-1.54.05-.5.92.89,1.47.3,2.41Z"/>
    <path class="cls-1" d="M238.42,271.62c2.24,5.35,5.6-1.46,4.76-4.36,1.54-1.27,1.11-2.02-.75-2.15-.66-1.41-2.08-1.55-3.06-.36-.35.43-.86.28-1.31.32-.95.45-.43,1.49.41,1.72-.46,1.62-.69,3.24-.06,4.82Z"/>
    <path class="cls-1" d="M244.57,251.76c-.43-.25-.98-.26-1.46-.23-.79-2.08-2.23-1.29-3.39-.05-1.73-.69-1.47.87-.56,1.71-.86,2.12-.27,5.26,1.98,6.16,2.37-.99,3.03-3.87,2.88-6.19.74-.12,1.34-.95.55-1.41Z"/>
    <path class="cls-1" d="M261.59,258.76c-4.25-1.43-10.94,7.83-13.77,5.1-.69-1.49-2.8-1.33-4.13-.92,1.6,1.15,2.47,3.68,4.89,2.86,2.74-.53,4.89-2.74,7.25-3.76.06.79-.75,1.14-1.08,1.89,1.62-.51,3.08-.97,4.28-2-.2-4.48,6.2-1.34.06,1.42,1.09.02,1.85.52,2.59-.38,1.41-1.26,1.48-3.08-.09-4.21Z"/>
    <path class="cls-1" d="M251.93,269.12c-1.25.31-2.5.42-3.27,1.7.31.42.61.82.93,1.25-.59,1.55-2.13,1.29-3.57,1.35.13.49.21.75.3,1.08-.61.32-.85.86-.72,1.63.16.05.35.12.54.18.4-.5,1.13-1.01,1.3-.07,2.62-.85,4.95-2.44,6.2-4.89-.74-.57-1.38-1.25-1.7-2.24Z"/>
    <path class="cls-1" d="M248.48,259.91c-.55,0-.68.71-.29,1.04.37.42.74-.04,1.17.09.01.24.03.43.04.62,2.28.13,5.74-1.9,6.95-3.74-.49-.75-.94-1.46-1.42-2.2-1.24.4-2.65.37-3.39,1.49.45.47.83.89,1.26,1.35-.84.46-1.8,1.25-2.71.5-.37-.34-1.41-.18-1.15.47.04.1-.02.23-.04.35-.16.02-.29.04-.41.05Z"/>
    <path class="cls-1" d="M238.77,273.81c-.85-1.65-2.17-3.16-2.8-4.89.76-1.06.42-2.41-.99-1.55-.35-.71-.88-.85-1.54-.67-.19.46-.29.9.21,1.25.03.02,0,.14-.01.21-.16.05-.31.1-.46.15-.35.91.55,1.43.87,2.14.98,1.56,2.44,5.32,4.71,3.35Z"/>
    <path class="cls-1" d="M238.77,246.61c-.12-2.28-2.76-3.75-1.97-6.04.21-.43.14-.93-.3-1.27q-.77.2-1.35-.16c-.99-.49-1.13.6-1.04,1.3-.19.09-.38.17-.65.3.69,1.96,2.74,6.87,5.3,5.88Z"/>
    <path class="cls-1" d="M233.68,254.37c.97,1.48,1.24,3.83,2.89,4.69.75,0,1.92.69,2.36-.21-.48-1.77-2.66-2.78-2.35-4.79.11-.47-.07-.93-.46-1.35-.84.25-2.61-1.66-1.96.61-.52.18-.83.55-.47,1.05Z"/>
    <path class="cls-1" d="M195.94,208.69c.36.02.73-.4,1.1-.02-.03.19-.07.38-.1.59,2.32,1.01,4.87-.13,7.17-.76.91-.28,1.43-1.2,2.43-1.18,2.38.17,3.73-1.82,5.77-2.4,2.52-.48,5.08-.88,7.66-.83,2.96,4.04,3.49.61,6.15,1.98-.08.39-.15.77-.23,1.19.27.09.48.17.69.24-.26,1,1.23,1.59,1.43.31.03-.15-.04-.35.18-.37,1.58-.86-.85-5.03-2.52-3.94-.85.4-1.98.8-2.65-.22,1.47-.6,3.29-.45,4.29-1.83.75-.91.68-2.74-.75-3.22-3.71-1.03-7.63.85-11.38,1.17-7.04,1.91-2.02-1.51-7.6-1.48,2,5.72,8,2.04,12.17,1.62-.3.67-.98.93-1.26,1.53,1.47-.28,3.41.27,4.51-.87.57-1.57,4.29-1.75,3.42.38-3.51,3.43-14.52.21-19.42,2.42-.73,2.23-2.03,3.72-4.17,4.33-1.75-1.08-2.54.15-4.29-.33-.49-.54-.98-1.14-1.74-.55,0,.23,0,.49.01.8-.83-.24-1.76.91-.87,1.43Z"/>
    <path class="cls-1" d="M202.03,199.97c-1.3,2.38-.92,4.52.63,6.52,2.89.1,4.06-3.84,3.59-6.23.3-.21.58-.4.88-.61-.08-.31-.15-.57-.23-.86-.52-.02-1-.04-1.45-.06-1.05-1.34-1.68-1.37-2.92-.16q-.85-.32-1.42.43c.21.44.48.76.93.97Z"/>
    <path class="cls-1" d="M216.12,205.08c-.13.67.48.95.59,1.47-.77.5-1.61.53-2.43.64-.43-.44-.61-1.21-1.37-.99-.43.1-.19.56-.51.74q-.84-.07-.97.78c.26.15.52.31.78.46-.63,2.98,7.51-.12,8.71-1.01-.39-.67-.9-1.13-1.06-1.9-.34-1.31-2.75-.24-3.75-.19Z"/>
    <path class="cls-1" d="M200.91,205.45c-.09-1.04-.35-2.27-1.17-2.99-.92-.95-1.22-2.26-.28-3.28-.47-.45-1.1-.08-1.56-.72-.59-.68-.94.1-1.08.82-1.66.24-.7.78-.33,1.67.55,1.53,2.51,5.19,4.43,4.51Z"/>
    <path class="cls-1" d="M225.47,216.59c-.86.4-1.99.81-2.67-.22,1.48-.6,3.32-.45,4.33-1.84.76-.92.69-2.76-.75-3.25-3.74-1.04-7.69.86-11.47,1.18-7.09,1.92-2.03-1.52-7.66-1.49,2.01,5.76,8.06,2.06,12.26,1.64-.3.68-.99.94-1.27,1.54,1.48-.29,3.44.27,4.55-.88.57-1.59,4.33-1.77,3.44.38-3.54,3.46-14.64.22-19.58,2.44-.74,2.25-2.05,3.75-4.2,4.36-1.5-.93-2.3-.18-3.58-.22.05.42.18.82.28,1.24.11.42.15.85.18,1.28,1.49-.16,2.99-.73,4.4-1.12.92-.28,1.44-1.21,2.45-1.19,2.4.17,3.76-1.84,5.82-2.42,2.54-.48,5.12-.89,7.72-.84,2.98,4.07,3.52.61,6.2,1.99-.08.39-.15.78-.23,1.2.27.09.49.17.7.24-.26,1.01,1.24,1.6,1.44.32.03-.15-.04-.35.18-.38,1.59-.87-.85-5.07-2.54-3.97Z"/>
    <path class="cls-1" d="M201.64,213.03c-1.31,2.4-.93,4.56.63,6.57,2.91.1,4.1-3.87,3.62-6.28.3-.21.59-.41.89-.62-.09-.32-.16-.58-.24-.87-.53-.02-1.01-.04-1.46-.06-1.06-1.35-1.69-1.38-2.95-.16q-.86-.32-1.43.43c.21.44.49.76.94.98Z"/>
    <path class="cls-1" d="M215.85,218.18c-.13.67.48.96.59,1.48-.78.51-1.62.53-2.45.64-.44-.44-.61-1.22-1.38-1-.43.1-.19.56-.51.74q-.84-.07-.97.78c.26.15.53.32.78.47-.64,3.01,7.57-.12,8.78-1.01-.4-.67-.91-1.14-1.06-1.92-.34-1.32-2.77-.24-3.78-.19Z"/>
    <path class="cls-1" d="M200.51,218.55c-.09-1.05-.35-2.28-1.18-3.02-.93-.96-1.23-2.28-.28-3.31-.48-.45-1.11-.08-1.57-.72-.6-.68-.95.1-1.09.82-1.67.24-.71.79-.33,1.68.56,1.54,2.53,5.24,4.46,4.55Z"/>
    <path class="cls-1" d="M225.76,228.85c-.86.4-1.99.8-2.66-.22,1.48-.6,3.31-.45,4.32-1.84.75-.92.69-2.76-.75-3.24-3.73-1.04-7.68.85-11.46,1.18-7.08,1.92-2.03-1.52-7.65-1.49,2.01,5.76,8.05,2.06,12.25,1.64-.3.68-.99.93-1.27,1.54,1.48-.29,3.44.27,4.54-.87.57-1.58,4.32-1.76,3.44.38-3.54,3.45-14.62.22-19.55,2.44-.74,2.25-2.04,3.75-4.2,4.36-1.76-1.09-2.56.15-4.32-.33-.17-.19-.34-.39-.53-.54-.05-.02-.1-.05-.13-.1-.07-.04-.14-.08-.21-.11,0,.03.02.05.02.08.03,1.03-.22,2.04-.62,2.98,2.29.91,4.81-.2,7.07-.81.92-.28,1.44-1.21,2.45-1.19,2.39.17,3.76-1.84,5.81-2.41,2.54-.48,5.12-.89,7.71-.84,2.98,4.06,3.52.61,6.19,1.99-.08.39-.15.78-.23,1.2.27.09.49.17.7.24-.26,1.01,1.24,1.6,1.44.32.03-.15-.04-.35.18-.38,1.59-.87-.85-5.07-2.54-3.97Z"/>
    <path class="cls-1" d="M201.96,225.29c-1.31,2.4-.93,4.55.63,6.56,2.91.1,4.09-3.86,3.62-6.27.3-.21.59-.41.89-.61-.09-.32-.16-.58-.23-.87-.53-.02-1.01-.04-1.46-.06-1.05-1.35-1.69-1.38-2.94-.16q-.86-.32-1.43.43c.21.44.49.76.93.98Z"/>
    <path class="cls-1" d="M216.15,230.44c-.13.67.48.96.59,1.48-.78.51-1.62.53-2.45.64-.44-.44-.61-1.22-1.38-.99-.43.1-.19.56-.51.74q-.84-.07-.97.78c.26.15.53.31.78.47-.64,3,7.56-.12,8.77-1.01-.4-.67-.91-1.14-1.06-1.92-.34-1.32-2.77-.24-3.77-.19Z"/>
    <path class="cls-1" d="M199.65,227.8c-.18-.18-.33-.37-.46-.58-.05.54.23,1.16.13,1.69-.08.41-.19,1.03-.31,1.43.67.66,1.07.73,1.81.47-.09-1.05-.35-2.28-1.18-3.01Z"/>
    <path class="cls-1" d="M242.17,206.67c.64.4,1.12,2.27,1.5,2.54.73.96,2.25,3.51,3.74,2.99v-.04c.44-.18.86-1.46.89-1.65-.01-.05-.26-.28-.54-.5-1.4-1.22-2.25-2.42-2.28-3.53-.06-.36.8-.85.73-1.2-.03-1.28-1.09.16-1.5-.05-.23-.37-1.02-1.41-1.5-.9-.3.14.07.89-.17,1.07-.11.14-.18.17-.51.16-1.13-.02-1.28.68-.36,1.11Z"/>
    <path class="cls-1" d="M248.16,215.26c.37-.37,1.5-1.47,1.63-1.71.11-.25.15-.26.95-.33,2.18-.31,3.29-1.2,3.9-3.55.3-.7-.09-2.23-.53-2.56-.17-.12-.25-.35-.14-.43.4-.06,1.25-.39,1.4-.87-.23-.45-.8-.11-1.57-.36-.57-.26-2.07-.73-2.68-.39-.43.53-2.98.58-2.52,1.34.1.28.28.93.28.93l1.16.14.02.84s-.83.18-1.11.24c-.69,1.01,1.66,1.09,2.27.3.42-.49,1.07-.56,1.05-.02-.32.67-1.44,1.01-2.09,1.33-.98.16-1.24,2.09-2,2.73-2.14.39-2.9.34-5.01-1.37-.77-.89-1.38-.22-.8.48-.38.12-2.34-.98-1.45.91l.14.18c-.97,1.39.47.92,1.28,1.35,1.72.69,3.61,1.2,5.83.83Z"/>
    <path class="cls-1" d="M255,213.92l.91,1.88s1.95.87,2.21,1.13c1.09.8.91,3.01-.08,2.76-1.62-.66-2.58-2.94-3.7-4.35-.3-.23-1.07-2.54-1.58-1.95-6.66,1.49,1.21,3.2,0,5.67-.23.35-.98,2.08-.67,2.34.56.69,1.82,1.19,2.48,2.06,1.09,1.06.11,2.28-1.23,1.29-.76-.57-1.67.25-.89,1.02.05.15-.46.36-.56.43-.79,1.09.52,1.03,1.21.49.39-.19,0,.96.64.77,1.21-.27,3.1-.88,3.43-2.78.76-1.74-.99-1.46-1.43-2.99-.44-.62-.47-2.93.48-2.08.88,1.11,2.06,1.75,3.14.76,1-.94.09-3.22-.42-4.23-.97-2.01-2.08-3.94-2-6.34,1.35-1.6,2.92,1.25,3.87-3.2-3.15.22-6.26,2.33-4.7,5.87.96,2,.75,1.85-1.13,1.47Z"/>
    <path class="cls-1" d="M249.93,217.7c-1.67-.08-2.94-.22-2.48,1.76.09.48.27,1.92.55,2.25.12.19.1.39-.05.52-.67.38-3.22-.66-2.92-1.52,0-.72-.72-.89-.93-.37-.12.23-.3.22-.55-.06-.47-.67-1.12.24-.86.74.1.2-.02.42-.26.46-.7.29-.66,1.24.31,1.28,2.12.98,3.98,2,6.45,1.65h-.04c2.69-.2,1.3-.71,1.19-2.58-.46-2.02,2.98-3.34-.41-4.13Z"/>
    <path class="cls-1" d="M252.46,246.5c-.18-.16-.61.02-.67.13.02.92-.95.65-1.24,1.27.19.38.46.68.87.64.52-.05.47.59.94.63,2.22-1.01,4.86-.77,6.74-2.5-.71-.6-.88-1.42-1.03-2.29-1.28.1-2.53-.09-3.63.52-.11.59.29.9.58,1.4-.91.39-1.72.58-2.57.2Z"/>
    <path class="cls-1" d="M287.98,221.55c-.88-1.87-2.9-12.37-5.84-10.1,13.41,25.04,4.47,57.97-18.81,73.83-6.83,4.12-15.3,10.97-23.38,6.4,5.21-20.31,30.2-11.74,35.64-50.47-.67-.33-.92-.53-1.53-.64-.78,5.41-2.14,10.61-4.17,15.61,2.17-5.76.79-23.81,1.2-24.8-.22-.3-.46-.41-1.2-1.32.14,2.18-.01,2.97.01,5.85h-37.92v-39.55h37.22v22.31c-.02.12.14,1.18.22,1.57.53-.81.57-.78.93-1.05v-23.99h-78.06l-.07,20.22h1.15v-19.06h37.45v39.55h-36.12c-.11.11.02-.62-.1-.52,0-.11-.25.62-.25.52h-1.01c-.02-1.84.02-2.98.02-3.03l-1.15-.05c-.84,2.97,1.63,27.79,5.71,32.14-8.15-7.9-10.72-21.93-9.19-32.5,0,0-.76-.59-1.59-1.35-2.56,14.88,3.07,29.57,13.5,40.22.91.97,1.91-.07,3.02-.35-.22-.24-.71-.62-1.05-1.09.41.43.78.8,1.05,1.09l-.58-1.6c-8.19-6.26-9.54-24.14-9.71-32.33h37.45s-.02,49.6-.05,49.71c-7.97-.39-13.36-9.03-21.04-9.13,11.05,6.55,31.25,22.33,44.01,15.42.1.12.08.1.18.22-1.34,1.68-6.07,4.86-8.18,4.05-3.47-2.09-8.83,1.72-6.37,5.6.32.45.51.86.14,1.46-13.8-1.3-26.21-9.54-37.84-16.6-.11.12-.09.1-.21.22,4.46,6.02,20.38,13.5,20.38,13.5v8.95s1.01.68,1.68,1.13v-9.68c4.18,1.43,12.64,4.09,12.64,4.09l.03,6.04,1.61-1.03-.08-4.52,2.26-.62c1.42-.39,2.33-1.76,2.16-3.22-.67-.34-1.14-1.02-.93-1.97.33-1.76,2.46-1.8,3.33-.74,1.73.77,3.43-1.31,5.13-1.8,2.4-1.45,5.37-2.74,6.48-5.51.21-.68.59-1.11,1.16-1.44,4.85-2.75,9.54-5.79,13.49-9.76,16.9-14.29,22.8-38.84,17.17-59.86ZM231.98,237.07h37.91c3.1,28.98-13.89,38.68-37.91,48.78v-48.78ZM232.66,288.83c2.69-2.39,4.54-3.22,8-4.04-.95,2.14-1.86,4.18-2.82,6.34-1.73-.77-3.43-1.53-5.17-2.3Z"/>
    <g>
      <path class="cls-1" d="M148.06,304.76c-.87-.53-1.94-.69-3.21-.49.27,1.92.97,5.48,1.53,7.34,3.57-.51,4.64-4.97,1.69-6.85Z"/>
      <path class="cls-1" d="M196.79,291.59h0c-21.46.03-42.85,9.2-64.32,9.2-2.58,0-5.15-.13-7.73-.43,6.65,5.25,6.19,15.79,15.86,15.79.42,0,.86-.02,1.32-.06,13.15-1.41,26.22-5.11,39.16-7.17,2.23-.33,12.94-2.96,19.21-2.96,2.26,0,3.94.34,4.45,1.25.68,1.24-3.58,4.83-3.61,4.97,0,.04.01.06.06.06.41,0,2.78-1.36,4.54-2.53,7-5.03-7.67-18.12-8.93-18.12ZM151.6,309.4c-1.17,2.77-4.66,3.41-7.39,3.89.13-.86-1.53-8.89-2.04-9.62,4.72-2.02,11.47-.07,9.43,5.73ZM154.37,311.09c.14-2.78-.79-7.16-2.05-9.64l2.74-.58c-.14,2.78.79,7.16,2.05,9.64l-2.74.58ZM164.9,308.81l-5.62,1.24c.11-.85-1.7-8.73-2.17-9.45l5.92-1.31-.48,1.98c-.82-.23-1.78-.24-2.88-.02l.66,2.86,3.28-.72.53,1.39c-.65-.11-2.63.38-3.53.54l.69,2.99c1.61-.36,2.95-.89,4-1.61l.03.02-.42,2.08ZM170.67,307.92c-4.1.09-4.69-5.76-5.65-8.64l1.99-.37c.95,2.51.68,8.4,4.9,7.62,3.05-1.37.58-6.21.26-8.54l1.96-.28c.75,3.88,2.5,10.62-3.46,10.22ZM186.95,305.01l-5.61,1.29c.11-.85-1.78-8.71-2.26-9.42l5.91-1.36-.47,1.99c-.82-.22-1.78-.22-2.88,0l.68,2.85,3.27-.75.54,1.39c-.65-.1-2.62.41-3.52.57l.71,2.98c1.61-.37,2.94-.92,3.98-1.65l.03.02-.4,2.08ZM192.86,295.44l1.61,8.16-1.87.34-1.65-8.12c-1.15.21-1.8.21-3.37.89l-.06-1.83,8.1-1.05.56,1.55c-.74-.27-3.32.06-3.32.06Z"/>
    </g>
    <g>
      <path class="cls-1" d="M296.24,300.65c-.46,1.79-1.16,5.16-1.39,7,4.21.89,5.52-6.16,1.39-7Z"/>
      <path class="cls-1" d="M312.74,303.51c-3.22-.79-4.27,5.92-1.59,6.99,3.29.78,4.28-5.88,1.59-6.99Z"/>
      <path class="cls-1" d="M304.32,302.26l-.98,3.56c2.74.51,3.92-3.11.98-3.56Z"/>
      <path class="cls-1" d="M278.51,297.16c-3.36-.92-4.65,6.02-1.83,7.19,3.43.91,4.67-5.99,1.83-7.19Z"/>
      <path class="cls-1" d="M326.55,300.75c-2.69,0-5.24-.04-6.49-.15-14.15-1.38-28.16-5.42-42.28-7.66-4.07-.64-7.4-1.24-10.29-1.25-6,0-10.07,2.6-14.9,12.89-2.06,3.91,4.84,7.64,6.35,7.81-5.66-4.84-3.69-6.27.78-6.27,6.18,0,17.12,2.74,19.26,3,12.94,2.06,26.01,5.76,39.16,7.17.46.04.9.06,1.32.06,9.67,0,9.21-10.54,15.85-15.79-1.18.11-5.1.19-8.77.19ZM273.32,295.08c-.32.3-1.47,8.33-1.39,9.11l-2.16-.42c.39-.7.9-6.29.9-6.29l-3.71,5.76-2.18-6.49s-.88,4.66-.92,6.16l-2.12-.29c.68-1.1,2.01-9.36,2.01-9.36l2.19.41c.06.44,1.72,6.04,1.72,6.04,0,0,2.92-4.9,3.09-5.15l2.58.48v.03ZM281.26,302.18c-1.94,6.59-9.54,2.99-7.28-2.88,1.92-6.39,9.53-3.01,7.28,2.88ZM288.75,307.95c-.67-.14-4.25-7.45-4.25-7.45,0,0-.88,5.68-1.1,6.08l-1.63-.23,1.86-8.92,1.81.24c.01.23,2.86,6.26,2.86,6.26,0,0,.95-4.88,1.04-5.32l1.38.39-1.97,8.96ZM297.21,308.73c-1.28.45-3.11-.06-4.45-.32l1.79-9.18c5.96-.39,8.43,7.32,2.65,9.5ZM307.78,304.5c-.27,1.04-1.03,1.76-2.3,2.15.55,1.81.88,2.41,1.81,4.37v.04s-1.46-.22-1.46-.22c-.3-.18-2.11-2.72-2.65-4.1-.32,1.13-.64,2.58-.51,3.61l-2.45-.38c.45-.71,2.37-8.22,2.29-9.01,2.12.27,5.93.65,5.26,3.54ZM312.49,311.77c-5.46,1.02-5.45-8.19-1.07-9.48,5.48-1.15,5.5,8.22,1.07,9.48ZM318.18,306.38c-.21,1.63-.97,4.95-.68,6.5l-2.14-.31c.94-2.41,1.58-6.47,1.43-9.05l2.14.31c-.35.72-.6,1.57-.76,2.55ZM323.22,305.98s-1.25,7.07-1.17,7.67l-2.12-.38s1.31-6.2,1.63-7.55c-.75-.16-1.64-.08-2.47.24l-.02-.03.85-1.78,5.77,1.04.4,1.96c-.48-.47-2.04-1.01-2.87-1.17Z"/>
    </g>
  </g>
</svg>