<svg width="719" height="514" viewBox="0 0 719 514" fill="none" xmlns="http://www.w3.org/2000/svg">
<g clip-path="url(#clip0_7432_3759)">
<g clip-path="url(#clip1_7432_3759)">
<path d="M552.078 31.8588L457.819 511.819H435.357L527.888 58.7468C528.452 55.9737 526.338 53.3792 523.51 53.3792L261.63 53.3506H152.194C149.573 53.3435 147.516 55.5949 147.745 58.2108L161.1 206.988L162.343 220.818L167.657 280.004L172.456 333.523L180.384 421.849L182.597 446.528L188.461 511.819H167.542L160.929 437.623L151.659 333.609L148.216 294.949L140.889 212.727L140.774 211.469L130.219 93.0393L124.719 31.3228C124.448 28.2923 126.833 25.6836 129.876 25.6836H547C550.257 25.6836 552.706 28.664 552.078 31.8588Z" fill="#EEF0F2" stroke="#070600" stroke-width="3" stroke-linecap="round" stroke-linejoin="round"/>
<path d="M281.449 281.055C292.142 281.055 300.811 268.14 300.811 252.209C300.811 236.277 292.142 223.363 281.449 223.363C270.756 223.363 262.087 236.277 262.087 252.209C262.087 268.14 270.756 281.055 281.449 281.055Z" fill="#070600" stroke="#070600" stroke-miterlimit="10"/>
<path d="M435.357 511.819L247.86 479.649L248.382 463.525L261.63 53.3508" stroke="#070600" stroke-width="3" stroke-linecap="round" stroke-linejoin="round"/>
<path d="M435.357 511.819H188.461L182.533 446.514L248.382 463.525L247.86 479.649L435.357 511.819Z" fill="#070600" stroke="#070600" stroke-miterlimit="10"/>
<path d="M277.928 281.055C288.621 281.055 297.29 268.14 297.29 252.209C297.29 236.277 288.621 223.363 277.928 223.363C267.235 223.363 258.566 236.277 258.566 252.209C258.566 268.14 267.235 281.055 277.928 281.055Z" fill="#F945B0" stroke="#070600" stroke-miterlimit="10"/>
<path d="M275.728 288.989L273.086 334.345" stroke="#070600" stroke-width="5" stroke-linecap="round" stroke-linejoin="round"/>
<path d="M272.857 230.438C268.958 233.068 266.265 237.135 265.044 241.652C263.623 246.905 264.237 252.516 265.958 257.619C266.394 258.92 268.465 258.363 268.022 257.047C266.451 252.387 265.808 247.313 267.036 242.488C268.079 238.422 270.429 234.655 273.936 232.282C275.071 231.517 274 229.659 272.857 230.431V230.438Z" fill="#070600"/>
<path d="M277.921 70.9116C300.768 71.1546 323.615 71.4047 346.469 71.6478C369.323 71.8908 392.163 72.1409 415.017 72.3839C427.873 72.5197 440.721 72.6627 453.576 72.7985C454.955 72.8128 454.955 70.6686 453.576 70.6543C430.729 70.4113 407.882 70.1611 385.028 69.9181C362.174 69.6751 339.334 69.425 316.48 69.1819C303.625 69.0461 290.776 68.9032 277.921 68.7674C276.542 68.7531 276.542 70.8973 277.921 70.9116Z" fill="#070600"/>
<path d="M469.931 74.042C476.409 73.7418 482.894 74.1635 489.272 75.3428C490.622 75.593 491.2 73.5274 489.843 73.2773C483.28 72.0694 476.602 71.5977 469.931 71.905C468.56 71.9693 468.553 74.1135 469.931 74.0492V74.042Z" fill="#070600"/>
<path d="M276.821 288.202C278.278 288.238 279.735 288.274 281.192 288.31L280.156 286.952C277.592 299.231 275.942 311.695 275.264 324.217C275.071 327.82 274.957 331.422 274.914 335.031L276.271 333.995C275.457 333.68 274.635 333.359 273.821 333.044C272.536 332.544 271.979 334.617 273.25 335.11C274.064 335.424 274.885 335.746 275.7 336.06C276.364 336.318 277.049 335.667 277.057 335.024C277.192 322.616 278.249 310.223 280.263 297.973C280.842 294.471 281.492 290.983 282.22 287.509C282.363 286.823 281.913 286.173 281.185 286.151C279.728 286.115 278.271 286.08 276.814 286.044C275.435 286.008 275.435 288.152 276.814 288.188L276.821 288.202Z" fill="#070600"/>
<path d="M128.412 31.9446C134.618 52.2643 139.196 66.3301 143.196 91.1167C147.652 118.755 150.673 151.911 151.109 179.9C151.252 189.213 150.695 198.826 146.302 207.131C145.481 208.689 144.253 210.026 142.717 210.876C134.025 215.708 128.89 198.905 128.398 193.43C127.712 185.811 126.084 175.011 127.869 167.621C137.318 187.59 141.146 212.706 144.795 234.398C148.773 258.041 150.823 282.013 150.902 305.985C150.923 311.76 148.231 319.879 142.003 317.27C139.91 316.391 138.289 314.661 137.361 312.596C126.526 288.503 121.156 266.489 116.713 240.887C120.299 256.526 123.355 272.293 125.884 288.138C126.155 289.853 126.312 291.762 126.241 293.613C126.019 299.209 119.363 302.147 115.064 298.566C111.307 295.435 107.922 291.847 105.029 287.902C111.278 300.446 121.256 310.652 129.726 321.809C150.459 349.118 162.357 383.032 163.236 417.318L167.392 500.49C167.714 506.987 162.543 512.433 156.037 512.433H106.579C84.3747 510.968 62.6204 503.606 43.9871 491.47C30.7889 482.872 12.4698 461.716 22.1043 444.677C23.6898 441.875 25.9609 439.531 28.582 437.673C56.6069 417.875 93.7663 411.836 126.655 421.477C103.901 409.777 81.7036 396.991 60.1779 383.161C47.6438 375.113 34.7883 366.1 28.2678 352.692C26.5823 349.233 25.3539 345.316 26.2109 341.564C27.6179 335.389 34.0099 331.829 39.9234 329.571C52.7003 324.703 66.7413 322.273 80.1253 325.039C93.5092 327.805 106.108 336.318 111.65 348.825C102.865 332.53 94.0806 316.241 85.3032 299.945C70.8265 273.086 56.0927 245.476 52.0432 215.229C51.1362 208.468 50.8505 201.277 53.8644 195.166C56.8854 189.056 64.1916 184.596 70.6122 186.89C73.7761 188.019 76.2258 190.535 78.4826 193.029C87.4457 202.928 95.359 213.778 102.051 225.328C94.6091 205.58 87.1601 185.825 79.7182 166.077C75.683 155.378 71.6192 144.521 70.5694 133.143C70.5622 133.028 70.5479 132.914 70.5408 132.8C69.391 119.477 87.41 114.174 93.7878 125.931C104.279 145.271 113.542 165.27 121.513 185.782C104.779 142.405 87.9957 98.893 76.6757 53.7938C73.8332 42.4725 71.0622 29.6646 73.8689 18.0718C77.2114 4.26329 93.9377 -2.57664 106.736 4.12034C109.157 5.38541 111.235 7.22225 112.978 9.33069C127.526 26.9272 135.475 47.3541 138.76 69.6392" fill="#EA8BF3"/>
<path d="M127.383 32.2305C131.618 46.1033 135.918 59.9547 138.953 74.1563C142.524 90.838 144.774 107.82 146.552 124.78C148.331 141.741 149.53 158.644 149.945 175.626C150.145 183.91 150.309 192.386 147.888 200.405C146.774 204.108 145.074 209.397 140.839 210.505C138.496 211.119 136.532 209.711 135.089 207.982C131.854 204.101 130.019 198.404 129.462 193.43C128.526 185.16 127.048 176.141 128.89 167.907L126.933 168.164C133.275 181.708 136.804 196.396 139.625 211.019C142.631 226.614 145.267 242.353 147.052 258.141C148.002 266.582 148.709 275.044 149.173 283.521C149.409 287.845 149.58 292.169 149.688 296.5C149.78 300.203 150.066 304.026 149.752 307.722C149.53 310.323 148.838 313.554 146.931 315.483C144.124 318.314 140.182 315.519 138.61 312.732C136.646 309.251 135.304 305.263 133.847 301.546C132.411 297.908 131.069 294.235 129.819 290.525C124.312 274.265 120.684 257.483 117.742 240.594L115.678 241.166C118.877 255.182 121.677 269.284 124.041 283.464C124.841 288.26 127.562 297.837 120.277 298.988C117.028 299.502 114.735 296.979 112.592 294.928C110.164 292.598 107.95 290.061 105.943 287.359C105.129 286.273 103.458 287.187 104.094 288.438C109.571 299.259 117.627 308.343 125.169 317.728C132.99 327.469 139.796 337.933 145.31 349.154C155.801 370.524 161.179 393.632 162.15 417.36C163.043 439.06 164.314 460.744 165.4 482.436C165.635 487.168 165.871 491.899 166.107 496.631C166.3 500.547 166.685 504.357 163.929 507.659C160.45 511.826 155.487 511.361 150.68 511.361H132.047C120.941 511.361 109.636 512.026 98.5943 510.582C85.8531 508.917 73.3333 505.3 61.6491 499.968C51.7004 495.43 41.9874 489.884 34.2598 482.05C27.3821 475.075 20.7045 465.705 20.4688 455.527C20.3402 450.081 22.3828 444.863 26.2466 441.011C30.3246 436.944 35.9596 433.978 41.0089 431.298C61.6705 420.348 85.7602 416.045 108.95 418.911C114.842 419.64 120.656 420.87 126.355 422.521C127.498 422.85 128.276 421.127 127.183 420.562C112.642 413.079 98.3229 405.16 84.2604 396.805C71.105 388.986 57.4139 381.231 45.5155 371.561C40.1662 367.215 35.2097 362.269 31.5316 356.401C27.4536 349.897 24.454 341.7 31.046 335.767C36.2096 331.122 43.8729 329.035 50.4363 327.355C58.2995 325.34 66.5056 324.432 74.6045 325.275C89.6668 326.855 104.272 335.267 110.714 349.376L112.564 348.296C104.658 333.63 96.7516 318.971 88.8527 304.305C81.5822 290.811 74.1974 277.346 67.8911 263.366C61.6848 249.607 56.5426 235.27 53.9072 220.368C52.6574 213.306 51.4647 205.594 53.643 198.597C55.5999 192.308 61.8562 186.075 68.9767 187.555C72.9262 188.369 75.7544 191.614 78.3183 194.473C81.1537 197.632 83.8819 200.899 86.503 204.244C91.8666 211.105 96.7302 218.352 101.115 225.885C101.708 226.9 103.515 226.229 103.072 225.056C97.8729 211.262 92.6736 197.468 87.4743 183.674C82.5678 170.651 76.8614 157.636 73.5332 144.085C72.2691 138.946 70.1694 132.135 72.5048 127.01C74.0546 123.608 77.3827 121.292 81.0251 120.671C84.8889 120.006 88.8598 121.335 91.4095 124.344C93.3878 126.682 94.6376 129.783 96.0517 132.471C97.7087 135.623 99.3299 138.789 100.923 141.969C108.114 156.357 114.628 171.08 120.47 186.068C120.963 187.34 123.034 186.79 122.534 185.496C107.736 147.137 92.9021 108.692 81.825 69.0532C79.1468 59.4616 76.3686 49.7699 74.7617 39.9353C73.3404 31.2156 72.412 20.3089 77.3756 12.4898C81.1394 6.55756 87.9742 2.95535 94.9233 2.61943C98.58 2.44074 102.287 3.13403 105.586 4.74216C109.978 6.87919 112.907 10.7744 115.749 14.6054C127.783 30.8582 134.725 50.0057 137.711 69.9109C137.918 71.2688 139.982 70.6899 139.775 69.3391C136.975 50.699 130.733 32.6165 120.063 16.9854C115.292 9.99539 110.193 3.02682 101.508 1.05418C94.9162 -0.439601 87.7314 0.875494 82.125 4.66354C66.5199 15.1986 71.6121 37.9054 75.4116 53.1934C80.6966 74.4637 87.2457 95.398 94.4162 116.104C102.558 139.618 111.514 162.847 120.47 186.061L122.534 185.489C116.92 171.08 110.7 156.914 103.851 143.049C102.201 139.711 100.515 136.395 98.8014 133.093C97.0873 129.791 95.6518 126.324 93.4378 123.458C91.1167 120.449 87.6457 118.605 83.8533 118.369C75.9401 117.876 69.1053 124.216 69.4124 132.199C69.6838 139.196 71.6906 146.258 73.8332 152.876C76.2329 160.288 79.1182 167.535 81.8607 174.818C88.2385 191.75 94.6233 208.675 101.001 225.607L102.958 224.778C98.8299 217.695 94.2805 210.869 89.2955 204.358C86.9315 201.277 84.4818 198.261 81.9393 195.324C79.5396 192.558 77.1328 189.57 74.0832 187.49C69.0338 184.038 62.8418 184.824 58.0996 188.427C52.786 192.465 50.6648 198.89 50.3791 205.366C50.0292 213.078 51.6504 221.025 53.4002 228.494C55.2714 236.478 57.8067 244.29 60.7778 251.93C66.6413 267.011 74.1189 281.391 81.7607 295.628C91.3809 313.554 101.065 331.443 110.714 349.354C111.378 350.591 113.128 349.504 112.564 348.275C106.915 335.896 94.8947 327.434 81.8536 324.317C73.9332 322.423 65.67 322.423 57.6496 323.66C49.6292 324.896 41.7588 327.019 34.7669 330.678C29.239 333.573 24.4183 338.348 24.8825 345.052C25.3681 352.127 30.1389 358.924 34.6312 364.113C44.9798 376.056 59.4922 384.176 72.7905 392.352C90.1739 403.044 107.964 413.058 126.105 422.392L126.933 420.434C103.801 413.744 78.7397 414.53 56.007 422.442C50.4863 424.365 45.1084 426.695 39.9448 429.432C34.7812 432.17 29.5176 435.036 25.3253 438.924C17.8048 445.899 16.8835 456.356 20.4902 465.54C28.5963 486.16 50.1863 498.36 69.8766 505.651C81.4394 509.932 94.1877 513.134 106.579 513.498C110.257 513.605 113.957 513.498 117.642 513.498C130.019 513.498 142.396 513.498 154.773 513.498C161.4 513.498 167.442 509.682 168.357 502.67C168.706 500.004 168.285 497.124 168.157 494.458C166.928 469.807 165.693 445.156 164.464 420.498C164.193 415.116 164.021 409.734 163.45 404.367C162.129 391.952 159.422 379.687 155.38 367.873C151.337 356.066 145.995 344.694 139.439 334.081C132.783 323.303 124.512 313.875 116.756 303.912C112.692 298.695 108.943 293.255 105.95 287.345L104.101 288.424C106.393 291.504 108.907 294.399 111.714 297.022C113.649 298.83 115.578 300.732 118.306 301.103C123.52 301.825 127.283 297.594 127.326 292.662C127.362 288.731 126.426 284.757 125.776 280.905C124.998 276.288 124.169 271.685 123.298 267.082C121.613 258.212 119.763 249.378 117.749 240.58C117.435 239.215 115.449 239.808 115.685 241.152C118.556 257.598 122.07 273.951 127.34 289.818C129.954 297.68 132.79 305.67 136.439 313.118C138.61 317.549 144.588 321.173 148.631 316.784C152.673 312.396 152.016 305.02 151.916 299.474C151.744 290.154 151.28 280.834 150.516 271.542C149.081 254.046 146.388 236.735 143.36 219.46C140.232 201.613 136.525 183.567 128.805 167.064C128.412 166.227 127.041 166.456 126.848 167.321C125.091 175.154 126.341 183.381 127.133 191.257C127.64 196.274 128.74 201.084 131.069 205.602C132.99 209.332 136.446 213.749 141.21 212.606C148.466 210.869 150.545 200.327 151.452 194.159C152.709 185.589 152.202 176.791 151.873 168.164C151.516 158.751 150.923 149.353 150.145 139.968C148.623 121.614 146.488 103.267 143.288 85.1273C140.075 66.909 134.861 49.2982 129.462 31.6301C129.062 30.315 126.991 30.8725 127.398 32.2019L127.383 32.2305Z" fill="#070600"/>
<path d="M477.98 31.5015C471.774 51.8211 467.196 65.8869 463.196 90.6736C458.74 118.312 455.719 151.468 455.283 179.457C455.14 188.77 455.697 198.383 460.09 206.688C460.911 208.246 462.139 209.583 463.675 210.433C472.367 215.265 477.502 198.461 477.995 192.987C478.68 185.368 480.309 174.568 478.523 167.178C469.074 187.147 465.246 212.263 461.597 233.955C457.619 257.598 455.569 281.57 455.49 305.542C455.469 311.317 458.161 319.436 464.389 316.827C466.482 315.948 468.103 314.218 469.031 312.153C479.866 288.059 485.236 266.046 489.679 240.444C486.094 256.083 483.037 271.849 480.509 287.695C480.237 289.41 480.08 291.319 480.151 293.17C480.373 298.766 487.029 301.704 491.329 298.123C495.085 294.992 498.47 291.404 501.363 287.459C495.114 300.002 485.136 310.209 476.666 321.366C455.933 348.675 444.035 382.589 443.156 416.874L439 500.047C438.678 506.544 443.849 511.99 450.355 511.99H499.813C522.017 510.525 543.772 503.163 562.405 491.027C575.603 482.429 593.922 461.273 584.288 444.234C582.702 441.432 580.431 439.088 577.81 437.23C549.785 417.432 512.626 411.392 479.737 421.034C502.491 409.334 524.688 396.548 546.214 382.718C558.748 374.67 571.604 365.657 578.124 352.249C579.81 348.79 581.038 344.873 580.181 341.121C578.774 334.945 572.382 331.386 566.469 329.128C553.692 324.26 539.651 321.83 526.267 324.596C512.883 327.362 500.284 335.875 494.742 348.382C503.527 332.086 512.311 315.798 521.089 299.502C535.566 272.643 550.299 245.033 554.349 214.786C555.256 208.024 555.542 200.834 552.528 194.723C549.507 188.612 542.2 184.153 535.78 186.447C532.616 187.576 530.166 190.092 527.909 192.586C518.946 202.485 511.033 213.335 504.341 224.885C511.783 205.137 519.232 185.382 526.674 165.634C530.709 154.935 534.773 144.078 535.823 132.699C535.83 132.585 535.844 132.471 535.851 132.356C537.001 119.034 518.982 113.731 512.604 125.488C502.113 144.828 492.85 164.826 484.879 185.339C501.613 141.962 518.396 98.4498 529.716 53.3507C532.559 42.0294 535.33 29.2215 532.523 17.6287C529.181 3.82017 512.454 -3.01975 499.656 3.67723C497.235 4.94229 495.157 6.77914 493.414 8.88758C478.866 26.4841 470.917 46.911 467.632 69.1961" fill="#EA8BF3"/>
<path d="M476.945 31.2227C472.252 46.5822 467.567 61.913 464.439 77.6799C460.84 95.8053 458.583 114.238 456.876 132.628C456.012 141.941 455.326 151.268 454.855 160.602C454.398 169.615 453.826 178.771 454.355 187.791C454.605 192.086 455.19 196.396 456.433 200.527C457.483 204.008 458.876 208.06 461.782 210.433C465.796 213.706 470.303 212.291 473.267 208.482C476.523 204.286 478.416 198.533 479.037 193.294C480.051 184.724 481.473 175.426 479.559 166.899C479.366 166.041 477.995 165.806 477.602 166.642C470.803 181.165 467.139 196.903 464.203 212.599C461.011 229.673 458.204 246.863 456.512 264.159C455.605 273.436 454.99 282.749 454.669 292.069C454.512 296.643 454.326 301.253 454.419 305.835C454.476 308.443 454.912 311.102 455.976 313.504C458.061 318.228 462.704 319.879 466.967 316.534C469.803 314.311 470.931 310.58 472.281 307.378C473.902 303.533 475.431 299.652 476.859 295.736C483.337 277.91 487.465 259.392 490.721 240.737C490.957 239.401 488.965 238.801 488.657 240.166C486.651 248.964 484.794 257.798 483.108 266.668C482.265 271.099 481.466 275.545 480.708 279.99C480.023 284.007 479.037 288.152 479.073 292.241C479.116 297.172 482.88 301.403 488.093 300.681C490.821 300.303 492.75 298.409 494.685 296.6C497.492 293.977 500.006 291.083 502.299 288.002L500.449 286.923C494.45 298.773 485.351 308.479 477.259 318.878C469.496 328.856 462.868 339.677 457.561 351.155C447.927 371.997 443.035 394.246 442.092 417.139C441.128 440.389 439.771 463.625 438.607 486.867L438.014 498.782C437.736 504.428 440.05 509.753 445.527 512.076C449.27 513.663 454.033 513.069 458.011 513.069H496.842C504.155 513.069 511.462 511.976 518.604 510.439C531.159 507.73 543.322 503.178 554.57 496.988C563.89 491.863 572.261 485.66 578.831 477.204C584.531 469.864 589.316 460.48 587.773 450.91C585.93 439.467 575.125 433.513 565.733 428.625C544.65 417.661 520.182 413.379 496.628 416.431C490.821 417.182 485.094 418.383 479.466 420.012L480.294 421.97C496.421 413.665 512.269 404.838 527.802 395.468C535.344 390.916 542.836 386.277 550.192 381.431C556.406 377.336 562.526 372.976 567.883 367.78C576.653 359.26 588.68 342.693 575.51 332.687C569.768 328.327 562.069 326.14 555.163 324.496C546.928 322.538 538.365 321.78 529.945 322.902C514.854 324.918 500.292 333.673 493.828 347.846C493.264 349.076 495.014 350.162 495.678 348.925C504.298 332.93 512.926 316.934 521.546 300.932C529.231 286.673 536.923 272.378 543.207 257.433C549.407 242.689 554.513 226.972 555.856 210.948C556.427 204.158 555.884 196.61 551.456 191.085C548.043 186.826 542.386 183.831 536.844 185.032C532.987 185.868 530.031 188.698 527.452 191.514C524.388 194.859 521.46 198.347 518.661 201.914C513.069 209.032 507.991 216.523 503.434 224.342L505.391 225.171C511.119 209.968 516.854 194.759 522.582 179.557C527.967 165.27 534.559 150.782 536.587 135.53C537.173 131.098 537.18 126.839 534.301 123.151C532.037 120.249 528.588 118.419 524.946 118.005C521.303 117.59 517.411 118.705 514.59 121.235C512.897 122.75 511.833 124.68 510.769 126.66C508.776 130.362 506.834 134.093 504.927 137.846C497.128 153.226 490.114 168.993 483.851 185.06L485.915 185.632C501.827 144.4 517.775 103.046 529.052 60.2549C531.695 50.2201 534.487 39.971 534.751 29.5288C534.951 21.4953 533.694 13.0472 527.795 7.14361C523.124 2.46216 516.475 -0.103705 509.883 0.0177986C506.469 0.0821239 503.098 0.861175 500.013 2.31207C495.949 4.22753 493.128 7.4438 490.421 10.9317C477.345 27.7849 469.76 47.9116 466.603 68.9102C466.403 70.261 468.467 70.84 468.667 69.482C471.317 51.8568 477.009 34.7606 486.758 19.7514C491.571 12.3468 496.835 4.37048 506.069 2.56222C512.947 1.21139 520.453 3.26265 525.617 8.02273C532.095 13.9907 532.994 23.0391 532.537 31.3943C531.987 41.479 529.202 51.3851 526.617 61.0983C521.31 81.0462 514.983 100.708 508.141 120.17C500.477 141.962 492.164 163.511 483.851 185.06C483.351 186.347 485.422 186.904 485.915 185.632C491.171 172.152 496.963 158.887 503.313 145.886C506.362 139.632 509.54 133.443 512.84 127.325C514.947 123.422 517.868 120.42 522.524 120.092C526.245 119.834 530.102 121.385 532.466 124.301C535.801 128.411 534.816 133.736 533.937 138.546C531.423 152.347 525.595 165.477 520.668 178.535C514.875 193.894 509.09 209.261 503.298 224.62C502.863 225.778 504.655 226.471 505.255 225.449C509.076 218.888 513.254 212.549 517.818 206.481C520.132 203.4 522.553 200.398 525.053 197.468C527.552 194.538 529.852 191.607 532.809 189.356C538.844 184.767 546.521 187.54 550.521 193.444C554.813 199.777 554.192 208.225 553.185 215.429C548.957 245.469 534.351 272.643 520.153 298.988C511.369 315.283 502.584 331.572 493.807 347.868L495.657 348.947C501.149 336.911 512.754 328.82 525.445 325.897C533.323 324.082 541.586 324.182 549.528 325.547C556.841 326.812 564.619 328.863 571.154 332.465C573.925 333.995 576.603 335.989 578.146 338.819C580.245 342.679 579.281 347.131 577.567 350.934C574.66 357.381 570.032 362.927 564.862 367.673C553.827 377.807 540.279 385.412 527.517 393.131C511.719 402.687 495.592 411.686 479.18 420.141C478.095 420.698 478.844 422.435 480.009 422.099C502.67 415.545 527.117 416.303 549.407 423.972C555.02 425.901 560.477 428.274 565.712 431.069C570.947 433.863 576.382 436.744 580.395 440.875C588.302 449.023 586.509 460.601 581.331 469.664C576.153 478.727 568.818 485.738 560.355 491.084C549.649 497.853 537.965 503.049 525.774 506.465C517.111 508.895 507.748 510.939 498.713 510.939H484.215C473.067 510.939 461.918 511.04 450.77 510.939C444.278 510.882 439.821 505.901 440.092 499.497C440.228 496.266 440.414 493.036 440.578 489.805C441.756 466.241 442.935 442.676 444.106 419.112C444.399 413.186 444.642 407.276 445.363 401.379C446.856 389.179 449.763 377.143 453.919 365.586C458.076 354.014 463.539 342.915 470.16 332.558C476.78 322.202 484.937 313.139 492.364 303.419C496.078 298.559 499.499 293.491 502.27 288.024C502.906 286.766 501.234 285.851 500.42 286.944C498.406 289.646 496.199 292.176 493.771 294.513C491.736 296.472 489.572 298.873 486.508 298.609C478.787 297.958 481.515 287.909 482.33 283.056C484.694 268.876 487.493 254.767 490.693 240.759L488.629 240.187C486.015 255.182 482.88 270.098 478.337 284.636C476.009 292.076 473.338 299.402 470.303 306.578C468.803 310.116 467.439 315.04 463.211 316.127C460.197 316.899 458.433 314.233 457.547 311.745C456.483 308.772 456.533 305.692 456.569 302.583C456.612 298.423 456.712 294.256 456.876 290.096C457.204 281.613 457.776 273.136 458.597 264.681C460.168 248.414 462.804 232.282 465.71 216.208C468.696 199.705 472.295 183.016 479.444 167.75L477.487 167.492C479.137 174.861 477.959 182.702 477.202 190.113C476.695 195.102 475.731 199.877 473.359 204.358C472.295 206.381 470.888 208.646 468.781 209.711C465.796 211.226 462.747 209.068 461.204 206.495C456.776 199.119 456.305 189.599 456.34 181.229C456.412 164.405 457.59 147.544 459.19 130.798C460.833 113.638 462.968 96.47 466.253 79.5453C469.539 62.6206 474.195 47.5828 479.009 31.8088C479.416 30.4866 477.345 29.9219 476.945 31.237V31.2227Z" fill="#070600"/>
<path d="M80.5181 275.652C81.1751 278.525 82.5964 281.17 84.1176 283.7C87.2815 288.96 90.9453 293.92 95.0447 298.487" fill="#EA8BF3"/>
<path d="M79.4825 275.938C80.5538 280.405 83.1748 284.422 85.7031 288.195C88.2313 291.969 91.1738 295.764 94.2877 299.245C95.209 300.274 96.7231 298.752 95.8018 297.73C92.8093 294.385 90.0454 290.847 87.5528 287.116C85.0603 283.385 82.5821 279.661 81.5536 275.373C81.2322 274.029 79.1682 274.601 79.4896 275.945L79.4825 275.938Z" fill="#070600"/>
<path d="M65.9199 167.7C55.3142 149.353 46.8581 129.784 40.7946 109.471C40.0447 106.962 39.3305 104.439 38.6592 101.909C38.145 99.9795 37.3094 97.1707 39.1948 95.6912C40.4661 94.6977 42.3159 94.7335 43.7728 95.2195C45.6583 95.8484 46.8938 97.5066 47.7294 99.2362C48.715 101.273 49.1578 103.539 49.6578 105.726C50.3148 108.628 50.9647 111.529 51.6218 114.431C52.8788 120.006 54.1357 125.581 55.3927 131.149C58.2495 143.807 61.1063 156.464 63.9559 169.122C64.2558 170.466 66.327 169.901 66.0199 168.55C63.3488 156.707 60.6777 144.864 58.0067 133.021C56.6711 127.096 55.3356 121.178 54 115.253C53.3287 112.294 52.6645 109.328 51.9932 106.369C51.4432 103.939 50.9719 101.459 50.022 99.1505C49.1864 97.1278 47.9508 95.1408 46.0582 93.9472C44.4584 92.9323 42.4658 92.5607 40.6018 92.8537C38.7378 93.1468 37.1665 94.2045 36.4095 95.8913C35.3168 98.3071 36.1881 101.009 36.8451 103.425C39.7591 114.167 43.33 124.73 47.5366 135.037C51.7361 145.329 56.5497 155.371 61.9633 165.077C62.6561 166.313 63.356 167.55 64.0702 168.779C64.7843 170.008 66.6127 168.893 65.9199 167.7Z" fill="#070600"/>
<path d="M72.0049 303.933C61.9348 299.817 50.9362 298.073 40.0876 298.702C29.239 299.331 18.4976 302.168 9.12025 307.479C5.17077 309.708 0.914184 313.068 0.128572 317.828C-0.592762 322.209 1.87834 326.069 5.54929 328.277C9.62733 330.721 14.3838 330.922 18.8475 329.506C24.1397 327.827 28.632 324.425 33.2742 321.487C43.0587 315.298 53.8073 310.68 65.0272 307.829C66.4128 307.479 67.8054 307.15 69.2052 306.857C70.6051 306.564 69.9837 304.498 68.6339 304.791C57.921 307.085 47.5438 310.952 37.9451 316.241C33.2528 318.821 28.9319 321.98 24.304 324.661C20.2259 327.019 15.4194 329.078 10.6272 328.005C7.00624 327.198 3.19246 324.803 2.29257 320.965C1.22129 316.398 5.00651 312.646 8.47748 310.373C12.6555 307.643 17.4477 305.699 22.1757 304.184C26.9036 302.668 32.1387 301.561 37.2523 301.067C47.5438 300.074 58.021 301.239 67.7983 304.627C69.0267 305.048 70.2337 305.513 71.4407 306.006C72.7191 306.528 73.269 304.455 72.012 303.941L72.0049 303.933Z" fill="#070600"/>
<path d="M543.357 299.073C549.228 287.731 555.791 276.745 563.019 266.21C570.247 255.668 578.131 245.555 586.637 236.013C588.28 234.169 590.458 231.725 593.201 232.025C595.515 232.275 597.129 234.519 597.657 236.621C598.364 239.422 597.129 242.339 595.701 244.697C594.272 247.056 592.451 249.321 590.63 251.466C583.452 259.921 574.803 266.932 566.354 274.051C557.905 281.17 549.678 288.388 543.15 297.251C542.329 298.366 541.543 299.509 540.779 300.667C540.022 301.825 541.879 302.904 542.629 301.747C548.9 292.134 557.47 284.379 566.154 277.003C574.896 269.577 583.966 262.401 591.508 253.71C593.415 251.508 595.279 249.221 596.893 246.791C598.507 244.361 599.979 241.345 599.986 238.236C600.007 233.019 595.122 228.137 589.88 230.517C587.166 231.753 585.216 234.348 583.302 236.535C581.117 239.044 578.967 241.581 576.86 244.161C572.696 249.257 568.69 254.489 564.847 259.842C557.127 270.613 550.092 281.884 543.814 293.563C543.029 295.028 542.25 296.5 541.486 297.98C540.851 299.202 542.7 300.289 543.336 299.059L543.357 299.073Z" fill="#070600"/>
<path d="M540.586 169.022C544.707 160.166 549.485 151.625 554.884 143.485C559.398 136.695 564.555 129.955 571.375 125.324C575.075 122.808 579.26 121.007 583.724 120.478L582.688 119.692C584.138 123.558 582.195 127.375 579.86 130.441C577.253 133.872 573.961 136.816 570.897 139.825C564.326 146.294 557.598 152.597 550.728 158.744C546.821 162.232 542.872 165.67 538.879 169.05C537.822 169.944 539.351 171.452 540.394 170.566C547.693 164.39 554.835 158.037 561.819 151.504C565.312 148.238 568.761 144.928 572.168 141.584C575.575 138.239 578.853 135.273 581.617 131.649C584.381 128.025 586.416 123.572 584.752 119.127C584.602 118.727 584.209 118.284 583.716 118.341C575.303 119.334 568.197 124.173 562.476 130.212C556.17 136.866 551.192 144.821 546.621 152.733C543.765 157.686 541.136 162.761 538.722 167.943C538.144 169.186 539.994 170.273 540.572 169.022H540.586Z" fill="#070600"/>
<path d="M45.3512 434.621C36.2739 443.805 35.9668 458.086 40.6733 469.485C43.2229 475.653 47.1439 480.971 52.1718 485.345C57.6425 490.105 63.9917 493.679 70.6479 496.495C78.3112 499.733 86.3387 501.998 94.3877 504.057C95.7232 504.4 96.2946 502.334 94.959 501.991C81.4322 498.532 67.4769 494.486 56.207 485.888C51.0791 481.972 46.7725 477.169 43.88 471.387C41.1732 465.983 39.6591 459.901 39.7877 453.84C39.9305 447.265 42.2016 440.853 46.8725 436.136C47.8438 435.157 46.3297 433.635 45.3584 434.621H45.3512Z" fill="#070600"/>
<path d="M42.5659 342.786C52.6217 336.539 65.3629 335.338 76.5257 339.148C79.661 340.22 82.6321 341.707 85.3817 343.551L84.8889 342.907C85.1174 344.08 84.6818 345.187 83.8248 345.981C82.8106 346.917 84.3318 348.432 85.3388 347.496C86.603 346.324 87.2672 344.601 87.0458 342.886C86.9172 341.864 86.2387 341.535 85.4245 341.021C84.6104 340.506 83.8462 340.07 83.0391 339.641C79.9538 338.004 76.6543 336.775 73.2618 335.982C66.4056 334.374 59.1494 334.452 52.336 336.26C48.5151 337.275 44.8441 338.848 41.4874 340.935C40.3162 341.664 41.3946 343.515 42.5659 342.786Z" fill="#070600"/>
<path d="M90.7524 11.8109C79.3325 28.7999 80.8109 50.449 85.4246 69.4249C86.8601 75.3357 88.5884 81.175 90.3096 87.0072C90.7024 88.3294 92.7664 87.7648 92.3736 86.4354C86.7172 67.3236 80.7752 46.9039 86.2173 27.0274C87.5886 22.0029 89.6954 17.2214 92.6022 12.8973C93.3735 11.7466 91.5166 10.6745 90.7524 11.818V11.8109Z" fill="#070600"/>
<path d="M478.98 345.28C470.581 352.735 464.618 362.513 460.654 372.955C456.219 384.619 454.39 397.084 453.569 409.484C453.069 417.032 452.948 424.601 452.826 432.17C452.805 433.549 454.948 433.549 454.969 432.17C455.183 419.076 455.376 405.896 457.569 392.953C459.461 381.767 462.896 370.746 468.789 360.997C471.981 355.715 475.873 350.905 480.494 346.803C481.53 345.888 480.009 344.373 478.98 345.288V345.28Z" fill="#070600"/>
<path d="M573.632 449.001C570.354 462.159 561.569 473.681 549.949 480.607C546.65 482.572 543.15 484.144 539.486 485.295C538.172 485.703 538.737 487.775 540.058 487.361C553.506 483.151 564.969 473.316 571.439 460.816C573.289 457.249 574.725 453.468 575.696 449.566C576.032 448.229 573.961 447.658 573.632 448.994V449.001Z" fill="#070600"/>
</g>
</g>
<defs>
<clipPath id="clip0_7432_3759">
<rect width="719" height="513.545" fill="white" transform="translate(0 0.0107422)"/>
</clipPath>
<clipPath id="clip1_7432_3759">
<rect width="600" height="513.545" fill="white" transform="translate(0 0.0107422)"/>
</clipPath>
</defs>
</svg>
