<?xml version="1.0" encoding="UTF-8"?>
<svg id="Layer_1" data-name="Layer 1" xmlns="http://www.w3.org/2000/svg" version="1.1" viewBox="0 0 631 463">
  <defs>
    <style>
      .cls-1 {
        fill: #000;
      }

      .cls-1, .cls-2, .cls-3, .cls-4 {
        stroke-width: 0px;
      }

      .cls-5, .cls-6 {
        stroke: #070600;
        stroke-miterlimit: 10;
      }

      .cls-5, .cls-3 {
        fill: #ea8bf3;
      }

      .cls-2 {
        fill: #eef0f2;
      }

      .cls-6 {
        fill: none;
        stroke-width: .5px;
      }

      .cls-4 {
        fill: #070600;
      }
    </style>
  </defs>
  <g>
    <g>
      <path class="cls-3" d="M404.29,256.08c-.37,2.77-.78,5.51-1.23,8.22-1.5,9.23-3.37,18.15-5.51,27.01-3.3,13.59-7.27,26.92-12,40.19-4.74,13.26-10.25,26.44-17.03,39.64-3.4,6.6-7.12,13.2-11.34,19.82-4.22,6.61-8.93,13.24-14.45,19.83-5.54,6.58-11.89,13.16-19.65,19.43-.96.77-2.01,1.55-3.03,2.32-1.03.76-2.02,1.53-3.11,2.27l-3.32,2.22-1.68,1.09-1.84,1.09c-1.24.73-2.48,1.43-3.72,2.12-1.28.7-2.71,1.39-4.08,2.05-2.74,1.38-5.59,2.5-8.45,3.6-11.47,4.28-23.8,6.15-36.01,5.55-.98-.06-1.96-.15-2.94-.24-.54-.05-1.09-.1-1.63-.16-1.52-.17-3.04-.29-4.55-.58-3.02-.53-6.03-1.03-8.98-1.87-1.48-.39-2.96-.8-4.43-1.22-1.45-.46-2.89-.98-4.35-1.49l-2.15-.79c-.71-.27-1.48-.54-2.08-.82l-3.82-1.69c-9.99-4.62-18.09-10.11-25.21-15.77-6.61-5.31-12.41-10.79-17.54-16.31-.35-.39-.72-.78-1.07-1.17-2.2-2.37-4.19-4.74-6-7.07l-.08.07-23.09-29.82,9.43-2.26c.13-.22.29-.43.47-.6.09-.1.2-.18.3-.25l4.24-2.93,54.89-38.03,1.14-2.63,9.3-3.24,25.22,31.4c.2.17.39.33.59.48,2.53,2.04,4.81,3.42,6.05,3.97.14.07.28.13.41.21.09.07.06,0,.08,0,0,0,0,0,.02,0,0,0,0,.04.02.05.02-.02.04-.03.05-.02,0,.08.06-.03.06.04,0,.05.03-.02.04,0,0,0,.02.03.03.03.09-.06.2,0,.29-.06,0-.05.06.02.06-.05.02-.02,0,.04.07,0,.09-.07.19-.13.29-.19.06-.02.11-.05.17-.07l.25-.2c.18-.12.35-.23.54-.34l1.28-.96c1.85-1.51,4.19-3.79,6.6-6.67,4.86-5.77,9.89-13.73,14.38-22.49,4.51-8.78,8.61-18.43,12.18-28.45,2.17-6.1,4.17-12.34,5.97-18.64,1.16-4.05,2.24-8.12,3.23-12.19l96.73-13.43Z"/>
      <path class="cls-4" d="M262.28,453.08c-1.48,0-2.97-.04-4.45-.11-.99-.06-1.98-.15-2.96-.24-.54-.05-1.09-.1-1.63-.16l-.99-.1c-1.18-.12-2.4-.25-3.61-.48l-.67-.12c-2.75-.48-5.6-.98-8.35-1.76-1.47-.39-2.96-.8-4.43-1.22-1.24-.39-2.49-.83-3.69-1.26l-3.38-1.24c-.54-.2-1.11-.41-1.58-.63l-3.81-1.69c-8.79-4.06-16.83-9.09-25.31-15.83-6.25-5.02-12.16-10.52-17.59-16.36l-1.07-1.18c-1.98-2.14-3.91-4.4-5.74-6.72l-.09.07-23.82-30.76,9.95-2.39c.14-.2.29-.38.46-.53.09-.1.22-.19.33-.28l59.04-40.89,1.17-2.69,9.8-3.41,25.42,31.65c.13.1.32.26.52.41,2.58,2.08,4.82,3.4,5.95,3.9.12.06.24.11.35.17l.44-.03c.06-.04.13-.08.21-.13l.16-.07.2-.15c.21-.14.39-.26.59-.38l1.25-.93c2.02-1.65,4.34-3.99,6.52-6.59,4.74-5.63,9.69-13.37,14.32-22.4,4.41-8.57,8.5-18.13,12.15-28.39,2.17-6.1,4.17-12.36,5.96-18.61,1.17-4.06,2.25-8.15,3.23-12.17l.08-.31,97.65-13.56-.08.61c-.37,2.73-.78,5.5-1.23,8.23-1.4,8.63-3.21,17.48-5.52,27.05-3.36,13.83-7.29,26.99-12.01,40.23-5.13,14.36-10.71,27.35-17.05,39.69-3.65,7.1-7.37,13.6-11.36,19.86-4.66,7.3-9.4,13.8-14.48,19.88-6.32,7.51-12.77,13.89-19.72,19.49-.69.55-1.42,1.11-2.16,1.66l-1.7,1.28c-.75.56-1.5,1.12-2.3,1.67l-5.01,3.31-1.86,1.1c-1.24.73-2.48,1.44-3.74,2.13-1.31.71-2.79,1.43-4.1,2.06-2.81,1.41-5.73,2.56-8.49,3.62-10.03,3.75-20.92,5.69-31.75,5.69ZM173.17,402.68l.29.37c1.9,2.43,3.91,4.8,5.98,7.04l1.07,1.18c5.39,5.8,11.27,11.27,17.48,16.26,8.42,6.69,16.39,11.68,25.11,15.71l3.81,1.69c.44.21.99.41,1.52.61l3.37,1.23c1.2.42,2.43.86,3.65,1.24,1.46.42,2.93.82,4.41,1.21,2.71.77,5.53,1.26,8.26,1.74l.68.12c1.17.22,2.37.35,3.53.47l.99.1c.53.05,1.08.11,1.62.16.98.09,1.96.19,2.93.24,12.15.6,24.53-1.31,35.82-5.52,2.73-1.05,5.63-2.18,8.41-3.58,1.3-.63,2.77-1.34,4.06-2.04,1.24-.69,2.48-1.39,3.71-2.12l1.84-1.09,4.98-3.29c.79-.54,1.52-1.09,2.26-1.64l1.7-1.28c.73-.55,1.45-1.1,2.14-1.64,6.9-5.57,13.3-11.9,19.59-19.36,5.06-6.04,9.78-12.51,14.41-19.78,3.97-6.24,7.68-12.71,11.32-19.78,6.32-12.31,11.88-25.26,17-39.58,4.71-13.21,8.63-26.34,11.99-40.14,2.31-9.54,4.11-18.37,5.5-26.98.42-2.52.8-5.08,1.14-7.6l-95.81,13.3c-.96,3.93-2.02,7.93-3.16,11.9-1.79,6.27-3.8,12.55-5.98,18.66-3.67,10.3-7.77,19.89-12.2,28.5-4.67,9.09-9.66,16.9-14.44,22.58-2.22,2.64-4.58,5.03-6.66,6.73l-1.3.97c-.22.13-.39.24-.55.35l-.36.25c-.09.04-.13.05-.17.07,0,0-.07.05-.14.11l-.38.3-.11-.12s-.03,0-.04,0l-.07.09-.14-.04-.13.14-.25-.25s-.07-.03-.1-.05h-.01s-.03-.03-.04-.03c-.1-.06-.22-.12-.34-.17-1.17-.52-3.49-1.89-6.15-4.02-.2-.16-.4-.32-.6-.49l-25.07-31.2-8.8,3.06-1.12,2.56-.11.08-59.13,40.96c-.08.06-.16.12-.22.18-.18.16-.31.32-.42.52l-.1.17-8.92,2.14,22.37,28.88.08-.06ZM262.98,359.42h0s0,0,0,0Z"/>
    </g>
    <path class="cls-4" d="M298.57,300.97s17.32-15.56,33.57-20.34c22.83-6.71,70.79-15.54,70.79-15.54l-.19-.96-93.24,16.5-5.37,1.15-5.56,19.19Z"/>
    <g>
      <path class="cls-6" d="M159.79,372.64"/>
      <g>
        <path class="cls-4" d="M259.41,435.27c-5.28,0-10.51-.54-15.64-1.62-13.4-2.77-27.23-10.65-41.1-23.43-11.9-10.91-21.59-23.68-30.97-36.03-2.18-2.88-4.24-5.59-6.34-8.29l.37-.29c2.1,2.7,4.16,5.42,6.34,8.29,9.36,12.33,19.04,25.08,30.91,35.97,13.81,12.73,27.56,20.57,40.88,23.32,9.31,1.96,18.93,2.13,28.6.52,44.1-7.32,70.91-51.08,82.97-76.51,14.08-29.79,24.09-63.09,28.95-96.31l.46.07c-4.86,33.26-14.89,66.61-28.99,96.44-12.1,25.51-39.01,69.42-83.32,76.77-4.39.73-8.78,1.1-13.12,1.1Z"/>
        <path class="cls-4" d="M257.27,415.94c-2.78,0-5.56-.18-8.33-.53-10.71-1.36-22.63-8.29-35.42-20.6-10.13-9.74-18.75-21.15-26.36-31.22-2.04-2.7-3.97-5.25-5.85-7.67l.37-.29c1.88,2.42,3.81,4.98,5.86,7.68,7.6,10.05,16.21,21.45,26.31,31.16,12.72,12.24,24.55,19.13,35.16,20.48,7.65.97,15.39.59,23.01-1.14,35.3-7.92,57.02-43.99,66.82-64.78,12.4-26.48,21.46-56.02,26.2-85.45l.46.07c-4.75,29.46-13.82,59.05-26.24,85.57-7.63,16.19-16.64,29.84-26.78,40.56-12.27,12.98-25.85,21.22-40.36,24.47-4.91,1.11-9.88,1.67-14.84,1.67Z"/>
        <path class="cls-4" d="M254.72,397.17c-.19,0-.39,0-.58,0-10.27-.12-21.85-9.73-29.75-17.77-8.34-8.48-15.77-18.41-21.74-26.38-1.91-2.56-3.72-4.97-5.36-7.08l.37-.29c1.64,2.11,3.45,4.52,5.37,7.08,5.96,7.97,13.39,17.88,21.7,26.34,11.24,11.44,21.42,17.54,29.43,17.63,5.65.09,11.52-.87,17.42-2.79,25.18-8.09,41.46-33.32,50.68-53.05,10.72-23.17,18.83-48.97,23.46-74.59l.46.08c-4.64,25.66-12.76,51.5-23.49,74.7-9.26,19.82-25.62,45.16-50.96,53.3-5.74,1.87-11.45,2.82-16.98,2.82Z"/>
        <path class="cls-4" d="M257.43,379.13c-5.51,0-12.96-5.09-22.19-15.16-6.59-7.2-12.78-15.6-17.29-21.74-1.83-2.49-3.42-4.64-4.71-6.29l.37-.29c1.3,1.65,2.89,3.81,4.72,6.3,4.51,6.13,10.69,14.51,17.26,21.7,10.23,11.17,18.19,16.15,23.66,14.8,4.14-1.02,8.12-2.52,11.84-4.44,16.95-8.79,28.14-27.33,34.55-41.33,9.13-19.96,16.1-41.41,20.71-63.73l.46.09c-4.62,22.36-11.59,43.84-20.74,63.83-6.44,14.07-17.69,32.7-34.76,41.55-3.75,1.95-7.77,3.46-11.95,4.48-.61.15-1.26.23-1.93.23Z"/>
      </g>
    </g>
  </g>
  <g>
    <g>
      <path class="cls-4" d="M126.79,430.5v15.46c0,3.27-2.65,5.93-5.93,5.93H40.68c-3.27,0-5.93-2.65-5.93-5.93v-15.46h92.04Z"/>
      <path class="cls-4" d="M120.87,452.12H40.68c-3.4,0-6.16-2.76-6.16-6.16v-15.69h92.5v15.69c0,3.4-2.76,6.16-6.16,6.16ZM34.99,430.73v15.23c0,3.14,2.55,5.69,5.69,5.69h80.18c3.14,0,5.69-2.55,5.69-5.69v-15.23H34.99Z"/>
    </g>
    <g>
      <path class="cls-2" d="M229.69,323.31l-77.56,53.26-25.34-36.2v89.22c0,3.86-3.13,6.99-6.99,6.99H41.74c-3.86,0-6.99-3.13-6.99-6.99v-14.36c.68-173.09,53.23-178.92,89.63-178.58,48.41.46,105.3,86.65,105.3,86.65Z"/>
      <path class="cls-4" d="M119.81,437.04H41.74c-4.11,0-7.45-3.34-7.45-7.45v-14.36c.33-84.05,12.67-136.93,37.72-161.65,16.57-16.35,35.74-17.56,52.38-17.39,25.17.24,52.58,23.87,71.14,43.65,20.07,21.39,34.4,43,34.54,43.22l.25.38-.38.26-77.94,53.53-24.76-35.37v87.74c0,4.11-3.34,7.45-7.45,7.45ZM122.05,237.1c-15.9,0-33.83,1.79-49.38,17.14-24.87,24.54-37.12,77.2-37.44,160.99v14.36c0,3.6,2.93,6.52,6.52,6.52h78.06c3.6,0,6.52-2.93,6.52-6.52v-90.7l25.92,37.03,76.8-52.74c-4.2-6.22-58.68-85.63-104.66-86.07-.77,0-1.55-.01-2.34-.01Z"/>
    </g>
    <g>
      <path class="cls-1" d="M178.42,275.56c-.24.37-2.07-1.03-4.22-2.88-9.75-8.8-20.25-15.91-31.03-20.27-5.39-2.16-10.84-3.78-16.42-4.58-5.56-.85-11.26-.91-17-.08-5.73.83-11.42,2.68-16.53,5.31-5.12,2.63-9.69,5.99-13.79,9.85-8.15,7.74-14.6,17.71-19.4,29.36-4.82,11.62-8.01,24.69-10.1,37.95-.54,3.22-1.03,6.98-1.32,9.31l-.41,3.36-.34,3.16c-.44,4.2-.8,8.36-1.1,12.49-1.17,16.51-1.41,32.59-1.17,48.56.03,1.73-.28,3.15-.69,3.16-.41,0-.77-1.41-.8-3.14-.24-16,0-32.12,1.18-48.69.3-4.14.66-8.31,1.1-12.54l.35-3.17.4-3.37c.3-2.35.79-6.19,1.35-9.47,2.14-13.5,5.39-26.79,10.31-38.58,4.92-11.82,11.51-21.9,19.84-29.7,4.18-3.9,8.82-7.27,14.03-9.91,5.19-2.65,10.97-4.52,16.77-5.38,5.81-.85,11.6-.82,17.24,0,5.65.77,11.2,2.38,16.68,4.54,10.96,4.38,21.66,11.57,31.58,20.51,2.2,1.87,3.69,3.88,3.47,4.22Z"/>
      <path class="cls-2" d="M44.91,410.6c-1.05,0-1.15-2.9-1.16-3.48-.27-17.84.12-33.78,1.18-48.72.3-4.21.67-8.43,1.1-12.55l.75-6.55c.25-1.98.77-6.09,1.35-9.48,2.36-14.88,5.84-27.89,10.34-38.66,5.06-12.14,11.76-22.17,19.92-29.82,4.37-4.08,9.12-7.44,14.11-9.97,5.27-2.69,11.11-4.56,16.88-5.41,5.75-.84,11.59-.84,17.34,0,5.33.73,10.81,2.22,16.76,4.56,10.55,4.21,21.21,11.13,31.69,20.57,1.32,1.12,4.05,3.86,3.53,4.66h0c-.08.12-.2.19-.34.22-.36.05-1.03-.13-4.4-3.01-10.26-9.26-20.66-16.06-30.93-20.22-5.79-2.32-11.14-3.81-16.34-4.56-5.64-.86-11.33-.89-16.9-.08-5.61.81-11.29,2.63-16.42,5.27-4.85,2.5-9.46,5.79-13.71,9.79-7.92,7.52-14.41,17.36-19.32,29.24-4.39,10.58-7.78,23.32-10.08,37.87-.56,3.33-1.07,7.26-1.32,9.3l-.75,6.51c-.43,4.11-.8,8.31-1.1,12.48-1.06,14.89-1.44,30.76-1.17,48.53,0,.58,0,3.49-1.03,3.51ZM118.03,246.01c-2.85,0-5.7.21-8.54.62-5.7.84-11.46,2.69-16.67,5.35-4.93,2.5-9.62,5.82-13.95,9.86-8.09,7.58-14.73,17.54-19.75,29.58-4.48,10.72-7.94,23.68-10.29,38.5-.58,3.38-1.1,7.49-1.35,9.46l-.75,6.54c-.43,4.11-.8,8.32-1.1,12.52-1.06,14.93-1.45,30.84-1.18,48.66.02,1.45.27,2.38.44,2.7.16-.33.37-1.26.35-2.71-.27-17.79.11-33.68,1.17-48.59.3-4.18.67-8.39,1.1-12.5l.75-6.52c.25-2.05.76-5.98,1.32-9.32,2.31-14.61,5.71-27.4,10.12-38.03,4.94-11.97,11.49-21.89,19.48-29.48,4.29-4.05,8.96-7.38,13.87-9.91,5.21-2.67,10.96-4.52,16.64-5.34,5.64-.81,11.39-.79,17.1.08,5.26.75,10.65,2.26,16.5,4.6,10.35,4.19,20.82,11.03,31.13,20.34,2.07,1.78,3.05,2.46,3.5,2.71-.38-.66-1.49-2.05-3.22-3.52-10.43-9.39-21.02-16.27-31.49-20.45-5.89-2.32-11.32-3.8-16.6-4.52-2.86-.42-5.73-.63-8.61-.63Z"/>
    </g>
    <g>
      <path class="cls-1" d="M56.87,323.05c-.55,2.79-1.05,5.6-1.49,8.43-.23,1.41-.46,2.83-.65,4.24l-.51,3.84-.38,3.11-.32,2.84c-.2,1.89-.39,3.77-.56,5.65-.69,7.5-1.14,14.9-1.44,22.25-.59,14.69-.56,29.15-.13,43.56.06,1.72-.23,3.12-.64,3.14-.41,0-.79-1.38-.85-3.09-.43-14.45-.46-28.94.13-43.68.3-7.36.75-14.79,1.44-22.32.18-1.88.36-3.77.57-5.67l.33-2.85.38-3.15.51-3.9c.2-1.44.44-2.89.66-4.33.46-2.88.97-5.74,1.53-8.59.53-2.73,1.36-4.76,1.73-4.6.39.18.2,2.43-.31,5.1Z"/>
      <path class="cls-2" d="M50.77,420.47c-1.05,0-1.19-2.86-1.21-3.43-.46-15.58-.42-29.88.13-43.7.32-7.92.79-15.23,1.44-22.34.18-1.88.36-3.77.57-5.67l.71-6,.51-3.9c.16-1.1.33-2.19.5-3.29l.16-1.05c.45-2.81.96-5.71,1.53-8.61.4-2.08,1.14-4.48,1.79-4.83.14-.07.29-.08.42-.02.22.1.87.4-.1,5.49h0c-.58,2.97-1.07,5.72-1.49,8.42-.23,1.42-.46,2.83-.65,4.24l-.89,6.95-.32,2.84c-.2,1.89-.39,3.76-.56,5.64-.65,7.1-1.12,14.37-1.44,22.23-.55,13.76-.59,28-.13,43.54.02.57.06,3.45-.98,3.5ZM57.03,318.55c-.32.59-.84,2.02-1.24,4.07-.57,2.89-1.08,5.78-1.53,8.58l-.16,1.05c-.17,1.09-.34,2.18-.5,3.27l-.89,7.04-.32,2.85c-.21,1.89-.39,3.78-.57,5.66-.65,7.1-1.12,14.4-1.44,22.3-.55,13.81-.59,28.08-.13,43.65.05,1.5.33,2.43.51,2.7.1-.24.33-1.2.28-2.73-.46-15.56-.42-29.82.13-43.59.32-7.88.79-15.16,1.44-22.27.17-1.88.35-3.76.56-5.66l.7-5.95.51-3.85c.2-1.42.42-2.84.65-4.26.42-2.7.91-5.47,1.49-8.44.45-2.37.55-3.81.5-4.43Z"/>
    </g>
    <g>
      <path class="cls-1" d="M136.06,334.15c-.13.46-.51.59-.87.32-1.37-1.09-2.86-2.07-4.51-2.66-1.64-.61-3.54-.7-5.1.16-1.56.84-2.65,2.32-3.46,3.85-.81,1.56-1.38,3.23-1.83,4.92-.46,1.69-.79,3.42-1.06,5.15l-.19,1.3-.36,2.9c-.33,2.79-.61,5.62-.87,8.48-1,11.46-1.42,23.35-1.48,35.35,0,1.55-.34,2.81-.74,2.81s-.74-1.27-.74-2.82c.07-12.03.48-23.95,1.49-35.47.25-2.88.53-5.72.87-8.53l.37-2.99.2-1.45c.31-1.93.68-3.84,1.19-5.73.5-1.89,1.15-3.75,2.05-5.48.9-1.71,2.11-3.37,3.85-4.3.87-.46,1.83-.72,2.82-.71.98-.02,1.95.2,2.87.52,1.84.67,3.49,1.77,5.03,2.97.4.32.6.96.47,1.41Z"/>
      <path class="cls-2" d="M115.59,397.08c-1.06,0-1.09-2.85-1.09-3.17.07-13.22.56-24.84,1.49-35.5.28-3.2.56-6,.87-8.54l.58-4.45c.35-2.23.73-4.06,1.2-5.78.57-2.16,1.25-3.98,2.08-5.55,1.14-2.16,2.45-3.62,4-4.45.95-.5,2.01-.75,2.99-.75.9-.03,1.87.16,2.98.54,1.63.59,3.21,1.52,5.13,3.02.51.4.77,1.18.6,1.78h0c-.1.34-.3.58-.58.67-.27.09-.57.03-.83-.17-1.6-1.27-3-2.1-4.41-2.61-1.73-.65-3.48-.6-4.81.14-1.28.69-2.37,1.9-3.32,3.71-.71,1.37-1.28,2.91-1.81,4.85-.41,1.53-.75,3.2-1.05,5.11l-.19,1.3-.36,2.9c-.32,2.75-.61,5.6-.86,8.47-.93,10.75-1.42,22.3-1.48,35.32,0,.53-.07,3.16-1.09,3.16ZM127.65,329.6c-.89,0-1.79.23-2.62.67-1.42.76-2.64,2.12-3.71,4.15-.8,1.53-1.46,3.3-2.02,5.41-.46,1.69-.83,3.5-1.18,5.7l-.2,1.45-.37,2.98c-.3,2.53-.59,5.32-.86,8.51-.93,10.64-1.42,22.23-1.49,35.44,0,1.31.23,2.14.39,2.41.16-.27.39-1.09.4-2.4.06-13.04.55-24.61,1.48-35.37.25-2.87.54-5.73.87-8.49l.55-4.22c.3-1.94.65-3.64,1.07-5.19.54-1.99,1.13-3.58,1.86-4.99,1.02-1.94,2.2-3.25,3.61-4,1.51-.83,3.48-.89,5.39-.18,1.48.54,2.95,1.4,4.6,2.72.06.05.13.07.18.06.05-.02.1-.09.13-.2h0c.09-.32-.08-.81-.36-1.04-1.86-1.45-3.38-2.35-4.93-2.91-1.02-.35-1.91-.52-2.74-.5-.02,0-.03,0-.05,0Z"/>
    </g>
    <g>
      <path class="cls-1" d="M198.72,303.99c-.32.25-1.5-.69-2.64-2.09l-1.36-1.68-1.59-1.92-1.6-1.9-2.09-2.39c-1.4-1.62-2.8-3.23-4.25-4.78-1.44-1.56-2.89-3.14-4.38-4.64-5.9-6.09-12.12-11.73-18.6-16.56-1.61-1.22-3.26-2.33-4.9-3.46-1.67-1.03-3.3-2.16-4.99-3.1-3.35-1.97-6.75-3.64-10.18-5.08-6.87-2.88-13.89-4.65-21.14-5.11-2.36-.16-4.35-.45-4.41-.85-.07-.42,1.84-.81,4.24-.67,7.35.44,14.49,2.18,21.48,5.06,3.49,1.43,6.95,3.11,10.37,5.11,1.71.94,3.39,2.08,5.08,3.12,1.67,1.15,3.34,2.28,4.99,3.51,6.6,4.9,12.95,10.63,18.96,16.83,1.52,1.52,2.98,3.13,4.45,4.72,1.49,1.57,2.91,3.22,4.34,4.87l2.12,2.43,1.62,1.93,1.61,1.94,1.37,1.68c1.14,1.41,1.82,2.77,1.49,3.03Z"/>
      <path class="cls-2" d="M198.6,304.37c-.88,0-2.32-1.68-2.79-2.26l-2.95-3.59-1.6-1.9-2.08-2.39c-1.34-1.55-2.78-3.21-4.25-4.78l-.3-.32c-1.32-1.43-2.69-2.92-4.07-4.31-6.24-6.44-12.48-11.99-18.56-16.53-1.28-.97-2.61-1.88-3.89-2.77l-1-.69c-.55-.34-1.12-.7-1.68-1.07-1.07-.69-2.18-1.4-3.28-2.01-3.2-1.88-6.52-3.54-10.15-5.07-6.99-2.93-14.06-4.64-21.03-5.08-4.6-.31-4.68-.83-4.73-1.14-.03-.15.02-.3.13-.43.5-.57,2.64-.75,4.48-.65,7.19.43,14.45,2.14,21.6,5.09,3.72,1.53,7.12,3.2,10.41,5.13,1.16.64,2.32,1.38,3.45,2.09.55.35,1.09.69,1.64,1.03l1.1.76c1.29.88,2.62,1.8,3.91,2.77,6.26,4.64,12.65,10.32,19,16.87,1.28,1.28,2.54,2.65,3.76,3.98l.69.75c1.49,1.58,2.94,3.25,4.35,4.88l2.12,2.43,4.61,5.56c.85,1.05,1.73,2.42,1.65,3.12-.02.21-.13.34-.21.4-.1.08-.21.11-.34.11ZM117.13,250.39c.46.16,1.6.38,3.89.53,7.04.45,14.19,2.18,21.25,5.14,3.66,1.54,7.01,3.21,10.23,5.1,1.12.62,2.23,1.34,3.31,2.03.56.36,1.12.72,1.69,1.07l1.01.7c1.29.89,2.62,1.81,3.91,2.78,6.11,4.55,12.38,10.14,18.64,16.6,1.39,1.4,2.76,2.89,4.09,4.32l.29.32c1.47,1.57,2.92,3.23,4.26,4.79l3.69,4.29,2.95,3.6c.96,1.17,1.75,1.79,2.1,1.96-.09-.37-.52-1.27-1.48-2.46l-4.59-5.54-2.12-2.42c-1.4-1.62-2.85-3.29-4.33-4.86l-.69-.75c-1.22-1.32-2.47-2.69-3.75-3.96-6.33-6.53-12.7-12.18-18.92-16.8-1.28-.96-2.61-1.87-3.89-2.75l-1.09-.75c-.53-.33-1.08-.68-1.63-1.03-1.12-.71-2.27-1.44-3.42-2.07-3.27-1.92-6.65-3.58-10.34-5.09-7.08-2.92-14.27-4.62-21.37-5.04-1.8-.1-3.14.1-3.68.29Z"/>
    </g>
  </g>
  <g>
    <path class="cls-1" d="M227.03,319.81c.89,1.28,1.77,2.56,2.66,3.84l-77.38,53.52-.18-.25c-.8-1.17-1.6-2.33-2.41-3.48-.47-.67-.3-1.59.38-2.06h0s10.29-7,10.29-7l56.22-39.4.83-.59.47-.32.11-.07,6.95-4.55.04-.03c.67-.44,1.56-.27,2.02.39Z"/>
    <polygon class="cls-1" points="217.43 324.38 216.61 324.97 216.61 324.92 217.43 324.38"/>
  </g>
  <g>
    <path class="cls-3" d="M309.88,184.38c-.29-.82-.56-1.64-.82-2.47-.31-.74-.6-1.47-.88-2.22-.14-.32-.29-.64-.42-.95l2.76,7.88c-.24-.92-.37-1.37-.63-2.23ZM247.49,193.23c-.21-.95.1-2.98.43-4.65-.04.14-.08.28-.12.42-.04.27-.07.54-.12.8-.05.27-.11.53-.17.8l-.06.74c-.03.24-.07.48-.11.73,0,.23,0,.44,0,.66s-.03.41-.06.61c.02.05.06.03.06.06-.11.2.04.39.15.53.08,0,.07.08.13.1.06.02.09.04.15.06h0s.02,0,.03,0c.02,0,.04,0,.06,0s.04,0,.06,0h-.04s.04,0,.06,0h.22c-.31-.16-.56-.43-.66-.88Z"/>
    <path class="cls-4" d="M249.22,194.41l-1.29-.06s-.07,0-.13-.02h-.07s-.2-.07-.2-.07c-.06-.02-.1-.06-.13-.09h-.04l-.08-.09s0,0,0,0l-.47-.23h.31c-.06-.11-.1-.25-.07-.4,0,0,0,0,0-.01l-.02-.06v-.06c.03-.2.05-.38.06-.59,0-.14,0-.28,0-.42v-.23c.05-.28.08-.52.11-.76l.06-.73.07-.31c.04-.17.08-.34.1-.51.05-.26.08-.52.12-.79l.07-.24c.02-.07.04-.14.06-.21l.49.11c-.45,2.29-.59,3.82-.43,4.54.08.33.25.56.54.72l.95.52ZM310.27,186.7l-2.76-7.88.47-.18c.09.2.18.42.28.63l.14.32c.25.67.52,1.35.89,2.23.29.91.56,1.71.82,2.48h0c.26.88.39,1.33.64,2.25l-.48.15Z"/>
  </g>
  <g>
    <g>
      <path class="cls-5" d="M596.54,302.76c-.4-9.35-1.55-18.3-3.14-26.91l-.3-1.62c-.1-.56-.18-1.05-.33-1.68l-.8-3.58-.83-3.57-.43-1.79-.52-1.82c-.71-2.44-1.42-4.86-2.19-7.28-.87-2.47-1.79-4.92-2.71-7.37-3.95-9.84-9.31-19.79-16.32-28.96-6.96-9.18-15.55-17.44-24.84-24.01-9.28-6.61-19.15-11.57-28.79-15.2-9.67-3.64-19.14-6.03-28.26-7.67-9.11-1.6-17.89-2.44-26.39-2.87-8.51-.42-16.76-.43-24.75-.11-8.01.32-15.84.86-23.48,1.62-3.49.34-6.95.72-10.39,1.14-1.06-4.89-2.36-9.49-3.9-14.51l-2.12-6.33c-.83-2.13-1.67-4.26-2.52-6.4-1.83-4.27-3.84-8.55-6.23-12.83-4.72-8.53-10.71-16.97-18.03-24.58-7.3-7.61-15.89-14.31-25.03-19.51-9.15-5.2-18.75-8.91-28.1-11.4-9.38-2.49-18.53-3.81-27.3-4.36-1.1-.07-2.2-.15-3.29-.2l-3.23-.08c-1.07-.02-2.15-.06-3.21-.06l-3.17.04-1.58.03h-.78s-.4.02-.4.02l-.47.02-3.78.24c-2.52.18-5.04.33-7.55.74l-3.77.56c-1.26.2-2.51.37-3.75.66-2.49.54-4.98,1.1-7.45,1.7-2.45.71-4.88,1.45-7.31,2.22-2.42.78-4.76,1.76-7.12,2.67-9.36,3.85-18.13,8.86-26.06,14.73-7.94,5.87-15.05,12.59-21.29,19.93-6.21,7.36-11.57,15.36-16.02,23.91-4.44,8.56-8,17.7-10.43,27.42l-.89,3.65-.72,3.75-.66,3.76c-.18,1.28-.33,2.58-.47,3.86l-.42,3.88c-.09,1.31-.15,2.64-.21,3.97l-.15,4.02c0,1.49.06,3.04.11,4.57.15,4.17.54,8.32,1.18,12.44,1.25,7.97,3.43,15.77,6.54,23.14.61,1.39,1.14,2.81,1.84,4.15.68,1.35,1.37,2.7,2.08,4.04,1.37,2.7,3.03,5.22,4.68,7.74,3.32,5.05,7.31,9.56,11.38,13.99l1.82,1.72c.04.12.21.07.29.16l.23.2.47.43.93.84,1.89,1.67.95.82c.33.26.68.49,1.01.74,1.36.99,2.74,1.95,4.11,2.89,1.42.89,2.87,1.74,4.32,2.59,5.86,3.26,12.1,5.91,18.65,7.69,3.24,1,6.6,1.65,9.94,2.31,3.35.61,6.76,1.03,10.16,1.41.83.1,1.77.17,2.66.22l2.57.17,1.89.11c.62.04,1.2.04,1.8.06,2.36.06,4.82.15,7.04.09.57,0,1.13,0,1.68-.02,8.46-.13,16.23-.75,23.67-1.54,7.92-.85,15.5-1.91,22.83-3.07.98-.16,1.95-.31,2.91-.47,13.63-2.21,26.63-4.68,39.36-7.09,13.61-2.59,26.87-5.1,39.87-7.29,6.58-1.11,13.09-2.12,19.5-3.02,6.24-.88,12.37-1.62,18.4-2.22,12.2-1.16,24.03-1.74,34.64-1.18,5.31.27,10.32.78,14.84,1.56,4.49.81,8.46,1.89,11.74,3.13,3.29,1.25,5.84,2.63,7.82,4.04,1.99,1.42,3.47,2.87,4.88,4.69,1.39,1.83,2.7,4.12,3.92,7.11.27.79.57,1.57.88,2.36.25.88.49,1.78.77,2.66l.21.66c.07.23.1.49.16.74l.33,1.48.35,1.47c.06.21.11.58.17.88l.16.93c1.91,9.98,2.22,19.16,1.22,26.7-.48,3.79-1.34,7.14-2.47,10.12-1.14,2.99-2.47,5.67-4.23,8.13-.21.3-.43.61-.64.92l-.71.9c-.43.62-1.01,1.16-1.48,1.78-1.1,1.13-2.17,2.31-3.46,3.39-.59.58-1.32,1.07-1.95,1.64-.73.5-1.38,1.07-2.15,1.56l-.85.59-.07.05c-.38.2-.85.31-1.27.17-.13-.06-.06-.2-.02-.29l.1-.31,8.9-32.03,1.23-4.48-69.71-27.02-5.81-2.35-7.1-.13-2.18,4.63-6.74,14.85c-.76,1.74-1.52,3.57-2.24,5.46-.37,1.01-.75,2.02-1.12,3.05l-11.43,32.3-6.86,19.41-3.44,9.7-1.71,4.85c-.28.81-.6,1.62-.84,2.42l-.66,2.36-.66,2.36c-.1.39-.24.8-.31,1.17l-.11,1.07-.45,4.29-.44,4.3-.11,1.07c.02.32.06.61.09.91l.2,1.81.8,7.21.09.9c.02.15.04.31.06.45l.12.35.47,1.41.95,2.83,1.88,5.67,2.35,4.51c.36.74.99,1.69,1.64,2.71.69,1.05,1.47,2.14,2.32,3.19,1.68,2.11,3.43,4.08,5.29,5.82,3.7,3.47,7.65,6.36,11.99,8.75,4.32,2.41,9.01,4.36,14,5.9,5.01,1.53,10.3,2.66,15.86,3.38,5.57.71,11.35,1.05,17.29,1.03,11.89-.05,24.41-1.53,37.05-4.5l4.74-1.18c1.58-.41,3.16-.91,4.75-1.36l2.37-.7,2.37-.79c1.57-.54,3.16-1.04,4.73-1.61,3.13-1.23,6.28-2.36,9.37-3.79l2.33-1.01c.77-.33,1.55-.68,2.31-1.07l4.58-2.26c1.54-.74,3-1.64,4.51-2.45,1.49-.84,3-1.64,4.45-2.55,1.47-.88,2.92-1.8,4.37-2.72l.54-.35.46-.3.88-.61,1.59-1.09c2.11-1.41,4.16-3.03,6.22-4.56,2.02-1.65,4.06-3.23,6.01-5,3.97-3.42,7.72-7.21,11.32-11.15,1.75-2.04,3.55-4.02,5.19-6.17l2.48-3.19,2.35-3.3c6.22-8.86,11.19-18.62,14.92-28.57,3.73-9.96,6.16-20.14,7.47-30.07,1.34-9.93,1.64-19.63,1.23-28.96ZM287.01,190.7c-6.32,1.01-12.45,1.85-18.27,2.48-5.81.62-11.33,1.01-16.04,1.03-1.24.04-2.24-.04-3.33-.05-.27,0-.56,0-.8-.02l-.41-.03h0c-.31-.17-.56-.44-.66-.88-.21-.95.1-2.98.43-4.65.02-.07.03-.12.05-.19.03-.08.05-.16.07-.24.57-2.26,1.5-4.73,2.75-7.13,1.25-2.41,2.8-4.75,4.55-6.83,1.76-2.07,3.71-3.87,5.72-5.34,2.01-1.48,4.06-2.63,6.12-3.48.52-.16,1.01-.45,1.55-.6.53-.13,1.04-.3,1.55-.49.54-.08,1.07-.2,1.59-.34.25-.1.54-.09.81-.13.27-.04.54-.07.81-.12.53-.15,1.11-.1,1.68-.16.28-.02.56-.05.84-.08h.11s.19,0,.19,0h.37s.74,0,.74,0l1.47-.03c.48,0,.94.03,1.41.03l1.41.03,1.34.09c3.56.22,6.68.73,9.25,1.41,2.58.68,4.58,1.51,6.18,2.41,1.58.93,2.83,1.92,4.09,3.22,1.25,1.29,2.5,2.98,3.77,5.26.49.85.97,1.83,1.44,2.88l2.76,7.88,91.36-15.51c-9.59,1.76-107.05,18.37-114.86,19.59Z"/>
      <g>
        <path class="cls-4" d="M495.03,358.75l-.24-.4c25.41-15.09,30.99-46.02,25.26-69.97l.45-.11c3.18,13.27,2.68,27.37-1.4,39.71-4.43,13.41-12.76,24.05-24.07,30.77Z"/>
        <path class="cls-4" d="M481.07,380.26c-12.97,0-26-5-34.2-16.99-8.02-16.33.3-35.58,7.64-52.57,2.88-6.66,5.59-12.94,7.27-18.77l.45.13c-1.68,5.86-4.4,12.16-7.29,18.83-7.3,16.9-15.57,36.04-7.67,52.15,13.17,19.25,39.03,20.25,56.67,11.4,21.76-12.62,35.47-37.11,36.67-65.48,1.23-29.21-11.18-56.55-32.39-71.37l.27-.38c21.34,14.91,33.82,42.41,32.59,71.77-1.2,28.54-15,53.16-36.91,65.87-6.87,3.45-14.97,5.41-23.1,5.41Z"/>
        <path class="cls-4" d="M471.66,402c-13.44,0-25.66-3.06-34.74-8.75-13.01-8.15-18.79-21.1-16.7-37.44,5.72-20.46,14.16-43.92,25.08-69.77l.43.18c-10.92,25.83-19.35,49.27-25.06,69.68-2.05,16.12,3.65,28.91,16.49,36.95,19.66,12.32,55.13,11.24,75.9-2.31,45.24-25.9,54.4-83.17,40.06-123.92l.44-.15c7.81,22.18,8.38,46.93,1.62,69.7-7.12,23.94-21.98,43.39-41.87,54.77-9.74,6.36-23.51,10.36-37.76,10.97-1.31.06-2.6.08-3.89.08Z"/>
        <path class="cls-4" d="M535.78,236.13c-6.68-7.83-14.58-14.28-23.46-19.18l.23-.41c8.93,4.92,16.86,11.41,23.59,19.28l-.35.3Z"/>
        <path class="cls-4" d="M459.99,424.37c-16.21,0-30.66-3.37-41.51-9.79-16.17-9.58-23.66-25.57-21.64-46.25,7.23-25.91,17.38-53.91,31.97-88.16l.43.18c-14.58,34.23-24.73,62.21-31.95,88.06-1.99,20.45,5.41,36.28,21.42,45.76,29.17,17.27,77.95,9.89,103.49-7.54,36.2-20.55,57.56-62.5,55.75-109.47-1.74-45.18-25.32-83.83-61.54-100.86l.2-.42c18.75,8.81,34.36,23.31,45.16,41.93,10.07,17.36,15.82,37.87,16.65,59.33.85,22.13-3.56,43.88-12.75,62.88-9.8,20.25-24.74,36.51-43.23,47-13.01,8.88-31.63,15-51.08,16.8-3.87.36-7.67.53-11.38.53Z"/>
        <path class="cls-4" d="M465.73,359.11s-.09-.01-.13-.04c-4.23-3-.38-14.26-.21-14.74l13.81-43.93c.04-.12.17-.19.29-.15.12.04.19.17.15.29l-13.81,43.94c-.04.12-3.91,11.41.04,14.21.1.07.13.22.06.32-.05.06-.12.1-.19.1Z"/>
      </g>
      <g>
        <path class="cls-4" d="M253.87,268.41c-1.48,0-3.01-.03-4.49-.06h-.45c-.35-.01-.7-.02-1.07-.04,0,0,0,0-.8-.04-.37-.02-.74-.04-.79-.04-.01,0-.02,0-1.1-.06-.51-.03-1.01-.06-1.07-.06-.93-.05-1.67-.11-2.27-.17l-.47-.05c-2.66-.29-5.41-.58-8.08-1.05-3.25-.58-5.92-1.16-8.38-1.83-4.91-1.34-9.54-3.07-13.77-5.14-.62-.3-1.33-.65-2.01-1.01-1.2-.64-2.4-1.32-3.67-2.08l-.2-.13c-1.09-.71-2.21-1.44-3.3-2.2-.1-.07-.2-.14-.31-.21-.19-.13-.38-.26-.56-.39h0c-.07-.05-.18-.14-.4-.33-.17-.14-.35-.29-.39-.32h0c-.07-.05-.19-.15-.46-.38-.19-.16-.37-.31-.41-.35h0c-.06-.04-.17-.13-.39-.32-.15-.13-.31-.26-.35-.29h0c-.07-.05-.18-.15-.43-.36-.16-.14-.33-.28-.37-.31h0s-.1-.08-.21-.18c-.08-.07-.17-.15-.19-.17h0s-.07-.05-.12-.1l-.11-.09c-.06,0-.19-.02-.26-.14-.02-.02-.05-.04-.08-.07l-1.46-1.3c-1.53-1.63-2.85-3.12-4.03-4.55-2.12-2.56-3.83-4.91-5.24-7.19-1.4-2.25-2.64-4.28-3.72-6.49-.33-.67-.65-1.34-.98-2.02l-.66-1.36c-.42-.85-.77-1.75-1.11-2.61-.11-.29-.23-.58-.34-.86-.14-.34-.27-.68-.4-1.02l-.04-.1c-.11-.28-.21-.57-.32-.85-.15-.41-.3-.83-.44-1.24-1.79-5.12-3.08-10.53-3.84-16.07-.47-3.38-.74-6.86-.81-10.33-.03-1.53-.04-2.74-.03-3.79v-.06c.02-.17.06-.97.09-1.61.06-1.19.07-1.54.09-1.67h0s.04-.7.04-.7c.05-.86.11-1.73.18-2.59l.02-.08s.09-.81.17-1.5c.14-1.19.18-1.53.2-1.65h0c.15-1.08.29-2.17.46-3.25l.03-.08s.15-.84.27-1.48c.3-1.62.31-1.63.34-1.68,0-.04.17-.85.3-1.5.32-1.59.33-1.6.36-1.65,0-.04.21-.83.37-1.46.29-1.13.37-1.44.4-1.54,1.6-6.01,3.79-11.97,6.48-17.71.83-1.77,1.73-3.55,2.66-5.29,3.84-7.13,8.48-13.87,13.78-20.01,5.24-6.1,11.14-11.58,17.54-16.29,6.94-5.11,14.14-9.18,21.41-12.09l.52-.21c1.73-.69,3.51-1.41,5.32-1.99,1.38-.45,2.81-.89,4.38-1.36.53-.16,1.07-.32,1.61-.47,1.57-.39,3.17-.75,4.72-1.11l1.38-.32c.94-.21,1.9-.37,2.83-.52l.25-.04s0,0,1.82-.28c.64-.1,1.21-.18,1.26-.19,1.88-.31,3.77-.47,5.61-.63l.77-.06s.2-.02,1.22-.09c.8-.05,1.88-.13,1.97-.14.01,0,.07,0,.15,0,.1,0,.24-.01.26-.01h0s.1,0,.18,0h.16s0,0,.37-.02c.15,0,.3,0,.34-.01t.94-.03c.21,0,.38,0,.41-.01.01,0,.02,0,1.16-.02.67,0,1.41-.02,1.46-.02.59,0,1.17,0,1.76,0,.33,0,.66,0,.99,0h0c.12,0,.5,0,2,.03.39,0,.7,0,.73.01.64.02,1.27.06,1.9.09l.93.05c.98.05,1.96.12,2.95.19l1.49.12c.28.02.57.05.82.08l.52.05c.68.07,1.41.14,2.05.22l.46.06c1.5.19,3.19.4,4.66.65,1.51.24,3.11.53,4.9.89l.52.11c1.55.33,3.3.7,4.83,1.11l.77.2c1.21.32,2.57.68,3.74,1.05,6.92,2.06,13.48,4.77,19.5,8.05,3.27,1.77,6.54,3.82,9.71,6.08,4.25,3.03,8.24,6.39,11.85,10,1.83,1.82,3.57,3.7,5.17,5.59,3.94,4.62,7.47,9.66,10.5,14.97,1.9,3.33,3.58,6.75,5.16,10.47.58,1.37,1.13,2.78,1.67,4.14l.42,1.07h0c.06.14.22.62.9,2.63.39,1.14.83,2.43.86,2.52,1.5,4.75,2.48,8.29,3.29,11.86l.72,2.73-.45.12-.72-2.74c-.81-3.57-1.78-7.1-3.27-11.81h0c-.06-.15-.22-.64-.87-2.53-.38-1.12-.81-2.39-.88-2.58l-.44-1.1c-.53-1.36-1.09-2.76-1.67-4.13-1.56-3.7-3.24-7.11-5.13-10.42-3.02-5.29-6.53-10.3-10.45-14.89-1.59-1.87-3.32-3.74-5.14-5.56-3.6-3.59-7.57-6.94-11.79-9.95-3.16-2.25-6.42-4.29-9.67-6.05-5.99-3.27-12.52-5.97-19.41-8.02-1.16-.37-2.52-.72-3.72-1.04l-.78-.21c-1.52-.4-3.27-.78-4.81-1.1l-.52-.11c-1.77-.36-3.37-.65-4.88-.88-1.46-.25-3.15-.46-4.64-.64l-.46-.06c-.64-.08-1.37-.15-2.04-.22l-.52-.05c-.26-.03-.54-.05-.82-.08l-1.48-.12c-.98-.07-1.96-.14-2.93-.19l-.93-.05c-.63-.04-1.25-.07-1.88-.09,0,0-.32,0-.73-.01-.7-.02-1.87-.05-1.97-.03-.35,0-.68,0-1.01,0-.58,0-1.17-.02-1.74,0,0,0,0,0-1.47.02-.57,0-1.1.01-1.14.02t0,0s-.2,0-.43.01c-.36,0-.82.02-.89.03,0,0-.03,0-.38.02-.15,0-.3,0-.34.01,0,0-.1,0-.19,0h-.16s-.14.01-.27.02h-.12s-.11.02-1.99.15c-.62.04-1.15.08-1.2.08l-.77.07c-1.83.15-3.71.31-5.57.62t-1.27.19c-.82.12-1.74.26-1.81.28l-.26.04c-.92.15-1.88.3-2.8.51l-1.38.32c-1.55.35-3.15.72-4.7,1.1-.53.15-1.06.31-1.59.47-1.57.47-3,.92-4.37,1.36-1.8.58-3.57,1.29-5.29,1.98l-.52.21c-7.24,2.9-14.41,6.94-21.31,12.03-6.37,4.69-12.25,10.15-17.46,16.22-5.28,6.12-9.9,12.83-13.73,19.93-.93,1.73-1.82,3.51-2.65,5.27-2.68,5.72-4.86,11.65-6.45,17.64l-.03.06s-.21.83-.37,1.47c-.39,1.53-.4,1.54-.43,1.59,0,.04-.17.85-.3,1.5-.32,1.58-.33,1.59-.36,1.64,0,.04-.16.87-.28,1.53-.21,1.12-.27,1.44-.3,1.55-.17,1.07-.31,2.15-.46,3.23l-.02.08s-.1.88-.18,1.57c-.13,1.11-.17,1.45-.19,1.57-.07.85-.13,1.72-.18,2.58l-.05.75c-.01.17-.05.97-.08,1.61-.05,1.15-.07,1.52-.09,1.66,0,1.05,0,2.26.03,3.78.07,3.46.34,6.92.8,10.28.76,5.51,2.04,10.89,3.82,15.98.14.42.29.83.44,1.24.1.28.21.56.31.84l.04.1c.13.34.26.68.39,1.01.12.29.23.58.35.86.34.86.69,1.74,1.1,2.58l.66,1.36c.32.67.65,1.34.98,2.01,1.07,2.19,2.31,4.22,3.7,6.45,1.4,2.25,3.1,4.59,5.2,7.14,1.17,1.42,2.48,2.89,3.99,4.5l.02.02,1.35,1.2s.05.04.09.08l.04.03h.08l.03.09c.07.02.14.04.21.1.02.02.05.04.08.07l.09.08s.11.09.23.19c.07.07.15.13.17.15.06.05.17.14.41.34.17.15.34.29.38.32h0c.06.04.17.13.39.32.15.13.31.26.35.29h0c.07.05.19.15.46.38.19.16.37.31.41.35h0c.07.05.19.14.44.35.13.11.26.22.33.27l.06.04c.17.13.36.26.54.38.11.07.21.14.31.21,1.08.75,2.2,1.48,3.29,2.19l.2.13c1.26.75,2.45,1.42,3.64,2.06.67.36,1.37.7,1.99,1.01,4.2,2.06,8.81,3.77,13.69,5.11,2.45.67,5.1,1.25,8.34,1.82,2.65.47,5.39.76,8.04,1.05l.47.05c.59.06,1.32.12,2.23.17,0,0-.01,0,1.08.06.51.03,1.01.06,1.07.06,0,0,.03,0,.81.04.37.02.74.04.79.04.37.02.72.03,1.06.03h.46c1.95.05,4.01.09,5.9.06h.59c.28-.01.56-.02.83-.02,6.14-.11,12.27-.52,19.87-1.32,5.95-.64,12.35-1.5,19.57-2.64l.46-.07c.68-.11,1.36-.22,2.04-.33,12.38-2.06,24.02-4.21,33.77-6.03,10.66-2.01,22.74-4.28,34.2-6.2,5.89-.99,11.52-1.86,16.73-2.6.82-.12,2.49-.38,4.94-.79l.08.46c-2.46.41-4.13.67-4.95.79-5.21.73-10.83,1.61-16.72,2.6-11.46,1.93-23.54,4.2-34.19,6.2-9.76,1.83-21.4,3.97-33.78,6.04-.68.11-1.36.22-2.04.33l-.46.07c-7.22,1.14-13.63,2-19.59,2.64-7.62.8-13.76,1.21-19.91,1.32-.28,0-.56,0-.84.01h-.59c-.47.02-.95.02-1.44.02Z"/>
        <path class="cls-4" d="M414.88,243.95l-.08-.46c10.9-1.81,16.78-2.74,18.53-2.92.02,0,.05,0,.08,0h.06c.13-.02.24-.03.34-.04l.29-.03.04.46-.28.03c-.11.01-.22.02-.34.03-.02,0-.05,0-.08,0h-.06c-2.29.24-11.66,1.78-18.51,2.92Z"/>
        <path class="cls-6" d="M405.94,173.01"/>
        <path class="cls-4" d="M255.58,249.8c-1,0-2.01-.01-2.99-.03h-.37c-.29,0-.57,0-.87-.02,0,0-.09,0-.65-.03-.29-.01-.57-.03-.63-.03h0s-.19,0-.93-.04c-.39-.02-.78-.05-.83-.04-.78-.04-1.36-.07-1.85-.12l-.22-.02c-2.21-.21-4.5-.42-6.71-.78-2.64-.42-4.8-.85-6.8-1.35-3.93-.98-7.71-2.27-11.21-3.84l-.16-.07c-.5-.22-1-.45-1.49-.69-.98-.48-1.97-.99-3.01-1.56-.9-.54-1.91-1.14-2.88-1.76l-.24-.15c-.15-.09-.3-.19-.45-.29-.06-.03-.16-.11-.37-.27-.11-.09-.22-.17-.27-.21-.06-.03-.16-.1-.41-.31-.12-.1-.25-.2-.31-.24-.06-.02-.14-.09-.36-.26-.1-.08-.21-.16-.26-.2-.06-.03-.15-.1-.39-.29-.12-.09-.23-.19-.28-.22-.05-.02-.1-.07-.22-.16-.05-.04-.1-.08-.12-.1-.03-.02-.07-.05-.12-.08l-.1-.08s-.14,0-.21-.11c-.02-.01-.04-.03-.06-.05l-.07-.06-1.15-.93c-1.19-1.23-2.24-2.42-3.2-3.64-1.56-1.99-2.84-3.89-3.94-5.81-.96-1.68-1.94-3.41-2.75-5.22-.26-.58-.52-1.17-.78-1.75l-.42-.96c-.31-.69-.56-1.41-.82-2.11l-.24-.68c-.1-.27-.2-.55-.29-.82l-.09-.27c-.06-.16-.11-.33-.17-.49l-.32-.99c-1.28-4.09-2.17-8.4-2.65-12.81-.3-2.69-.44-5.45-.43-8.2,0-1.24.02-2.17.05-3.01l.02-.09s.04-.69.08-1.21c.06-1.02.08-1.28.1-1.38l.04-.49c.06-.7.12-1.41.2-2.11l.02-.08s.09-.68.16-1.19c.13-1,.17-1.23.19-1.32.14-.87.28-1.74.44-2.6l.03-.07c.02-.06.15-.68.25-1.18.24-1.18.27-1.3.31-1.37.02-.06.16-.68.27-1.17.26-1.18.3-1.31.34-1.37.02-.06.19-.65.32-1.13.26-.94.33-1.2.37-1.3,1.42-4.85,3.3-9.65,5.58-14.27.71-1.43,1.47-2.86,2.25-4.26,3.16-5.6,7.04-11,11.52-16.07,4.26-4.81,8.88-9.06,13.75-12.62,5.43-3.97,11.05-7.14,16.72-9.42l.4-.16c1.35-.54,2.74-1.11,4.15-1.57,1.14-.37,2.27-.73,3.41-1.08.42-.12.83-.25,1.25-.37,1.22-.31,2.44-.59,3.66-.88l1.09-.26c.75-.18,1.52-.31,2.26-.43l.14-.02s0,0,1.48-.24c.46-.07.86-.13.91-.14,1.46-.25,2.94-.41,4.36-.56l.82-.09s.35-.03,1.09-.09c.6-.05,1.43-.11,1.52-.12h0s.1,0,.19-.02c.06,0,.13,0,.15,0h0s.08,0,.16,0h.12s.16-.02.32-.03c.13,0,.27-.02.31-.02.02,0,.03-.02.87-.05.13,0,.23,0,.26,0,.03,0,.13,0,1-.02.5,0,1.01-.02,1.07-.02.77-.02,1.51,0,2.26-.02.11-.01.43-.01,1.67,0,.3,0,.54.01.57,0,.5.01.98.04,1.47.06.3.01.59.03.89.04.8.03,1.61.08,2.42.12l.84.06c.14.01.31.03.48.04.21.02.42.03.59.05.23.02.5.05.79.07.46.04.95.09,1.33.13.39.05.84.1,1.32.15.97.11,2.07.23,2.89.37,1.39.2,2.75.44,4.02.67.43.09.92.19,1.42.29.98.19,2.1.41,2.95.64.39.1.84.21,1.32.33.85.21,1.72.42,2.4.63,5.63,1.54,11.07,3.64,16.14,6.22,2.74,1.39,5.46,2.99,8.1,4.74,3.58,2.38,6.93,5.03,9.96,7.87,1.57,1.47,3.04,2.96,4.37,4.44,3.43,3.8,6.43,7.85,8.9,12.04,1.42,2.41,2.76,5.05,4.07,8.08.47,1.08.92,2.19,1.35,3.26l.31.77c.05.11.18.49.72,2.03.29.82.64,1.84.69,1.94,1.21,3.69,2,6.43,2.66,9.18l1.12,5.57-.46.09-1.12-5.57c-.65-2.73-1.44-5.45-2.63-9.09-.05-.11-.18-.48-.7-1.97-.29-.84-.66-1.89-.7-1.99l-.32-.78c-.43-1.07-.88-2.17-1.35-3.25-1.31-3.01-2.63-5.64-4.05-8.03-2.46-4.17-5.44-8.19-8.85-11.96-1.32-1.46-2.78-2.95-4.34-4.41-3.01-2.82-6.34-5.45-9.9-7.82-2.62-1.74-5.33-3.33-8.05-4.71-5.04-2.57-10.44-4.65-16.06-6.19-.67-.21-1.54-.42-2.38-.63-.48-.12-.94-.23-1.33-.33-.84-.22-1.94-.44-2.92-.63-.51-.1-1-.2-1.43-.29-1.26-.23-2.62-.47-4-.67-.82-.14-1.91-.26-2.87-.36-.48-.05-.94-.1-1.33-.15-.37-.05-.85-.09-1.31-.13-.29-.03-.56-.05-.79-.07-.16-.02-.37-.03-.58-.05-.17-.01-.35-.03-.49-.04l-.82-.06c-.8-.04-1.61-.09-2.41-.12-.3-.01-.6-.03-.89-.04-.48-.02-.96-.05-1.44-.06-.01,0-.26,0-.58,0-.52,0-1.5-.02-1.61,0-.84.01-1.54,0-2.29.02,0,0-.12,0-1.09.02-.46,0-.91.01-.97.02-.01,0-.13,0-.28.01-.23,0-.71.02-.78.04-.04.01-.11.02-.38.03-.12,0-.24.01-.28.02,0,0-.09,0-.18.01h-.12s-.08.01-.17.02c-.06,0-.13,0-.15,0-.05.01-.44.04-1.56.13-.52.04-1,.07-1.06.08l-.83.09c-1.42.15-2.88.3-4.32.55,0,0-.05,0-.93.15-.58.09-1.38.22-1.46.23l-.16.03c-.74.12-1.5.25-2.23.43l-1.09.26c-1.22.29-2.44.57-3.65.88-.41.12-.82.24-1.24.37-1.14.35-2.27.7-3.4,1.07-1.4.46-2.78,1.02-4.12,1.56l-.4.16c-5.63,2.27-11.22,5.42-16.62,9.36-4.84,3.54-9.45,7.77-13.68,12.55-4.46,5.04-8.32,10.42-11.46,15.99-.78,1.39-1.54,2.82-2.24,4.24-2.28,4.6-4.14,9.38-5.56,14.2l-.03.06c-.02.06-.21.73-.34,1.21-.29,1.07-.33,1.19-.37,1.25-.02.07-.17.74-.28,1.23-.25,1.12-.28,1.24-.32,1.3-.02.06-.16.74-.26,1.23-.19.91-.24,1.16-.28,1.26-.16.86-.3,1.73-.44,2.59l-.02.07s-.09.7-.16,1.22c-.12.94-.16,1.19-.18,1.28-.07.69-.13,1.38-.19,2.07l-.07.59s-.05.75-.08,1.26c-.06.95-.08,1.21-.1,1.31-.03.83-.04,1.75-.05,2.98-.01,2.74.13,5.48.42,8.15.47,4.38,1.36,8.67,2.63,12.72l.32.99c.05.16.11.32.16.49l.09.27c.09.27.19.54.29.81l.25.68c.25.69.5,1.4.8,2.08l.42.96c.26.58.52,1.17.78,1.75.8,1.79,1.78,3.51,2.73,5.18,1.09,1.9,2.36,3.79,3.9,5.76.95,1.21,1.98,2.39,3.16,3.61h0l1.1.89s.05.04.09.07l.03.02h.07s.02.06.02.06c.05.01.11.03.16.07.03.02.05.04.09.07l.06.05s.1.07.19.15c.05.04.09.07.12.1.06.03.15.1.37.28.11.09.23.18.28.22.06.03.15.1.37.27.1.08.2.16.25.19.07.03.16.11.42.31.13.1.25.2.3.24.06.03.15.1.38.27.1.08.2.16.26.2h0l.06.04c.15.1.3.19.45.29l.25.16c.96.61,1.97,1.21,2.86,1.74,1.03.56,2.01,1.07,2.98,1.55.48.24.98.46,1.48.68l.16.07c3.48,1.55,7.23,2.83,11.13,3.81,1.99.5,4.14.92,6.76,1.34,2.2.35,4.48.57,6.68.77l.22.02c.49.05,1.06.08,1.81.12.01,0,.17,0,.85.04.4.02.81.04.89.04h.02s.17,0,.65.03c.29.01.57.03.63.03h0c.31.01.59.02.87.02h.37c1.58.03,3.24.05,4.78.01l1.16-.02c4.96-.11,9.92-.45,16.09-1.11,4.75-.51,10.09-1.23,16.31-2.21l.44-.07c.55-.09,1.1-.18,1.65-.27,4.25-.7,8.61-1.45,13.32-2.28l.08.46c-4.72.83-9.08,1.58-13.33,2.28-.55.09-1.1.18-1.65.27l-.44.07c-6.23.98-11.57,1.7-16.33,2.21-6.19.65-11.16.99-16.13,1.11l-1.16.02c-.59.01-1.19.02-1.8.02Z"/>
        <path class="cls-4" d="M359.11,234.52l-.07-.46c1.56-.24,3.11-.47,4.64-.69,1.65-.24,11.67-1.83,24.36-3.85,22.4-3.57,53.09-8.45,55.74-8.73l.05.46c-2.64.28-33.31,5.16-55.71,8.73-12.69,2.02-22.71,3.62-24.37,3.85-1.53.22-3.08.45-4.64.69Z"/>
        <path class="cls-6" d="M454.16,201.43"/>
        <path class="cls-4" d="M256.75,231.19c-.32,0-.64,0-.96,0h-.28c-.23,0-.44,0-.67,0-.03,0-.26,0-.5-.01-.22,0-.44-.02-.48-.01-.06,0-.27,0-.72-.02-.29-.01-.57-.03-.64-.02-.5-.01-.99-.03-1.44-.07-1.65-.12-3.51-.25-5.3-.49-1.98-.26-3.68-.55-5.22-.87-2.96-.63-5.87-1.48-8.65-2.53l-.22-.08c-.36-.14-.72-.27-1.08-.42-.77-.32-1.54-.66-2.35-1.05-.76-.39-1.51-.78-2.25-1.18l-.2-.11c-.11-.06-.22-.12-.33-.18-.06-.02-.14-.08-.3-.19-.08-.05-.15-.11-.2-.13-.07-.02-.15-.08-.35-.21-.09-.06-.17-.13-.22-.15-.07-.02-.15-.07-.31-.18-.07-.05-.14-.1-.18-.12-.07-.02-.15-.07-.34-.21-.07-.05-.15-.1-.19-.13-.06-.02-.11-.06-.21-.13-.03-.02-.05-.04-.07-.05-.04-.02-.07-.04-.12-.07h-.07v-.05s-.1,0-.17-.07c-.02-.01-.03-.02-.05-.04h0l-.97-.68c-.88-.86-1.68-1.78-2.37-2.74-1.01-1.41-1.9-2.9-2.64-4.44l-.08-.17c-.59-1.21-1.2-2.46-1.69-3.77-.22-.58-.43-1.15-.64-1.73l-.12-.31c-.19-.52-.36-1.07-.51-1.59l-.15-.5c-.05-.16-.1-.33-.14-.49l-.1-.37c-.03-.11-.06-.22-.09-.33-.04-.16-.08-.32-.12-.48l-.07-.26c-.77-3.01-1.26-6.22-1.46-9.55-.12-2.03-.14-4.07-.05-6.07.03-.74.07-1.5.13-2.23l.02-.08c.01-.06.06-.54.09-.89.06-.69.09-.92.12-1.02l.02-.2c.07-.57.14-1.14.23-1.71l.02-.07c.02-.06.09-.52.14-.85.11-.69.15-.9.18-1,.14-.66.27-1.32.42-1.98l.02-.06c.03-.07.14-.55.23-.89.18-.74.23-.96.29-1.05.03-.07.15-.54.24-.89.19-.73.25-.96.3-1.05.03-.07.17-.53.28-.86.22-.72.29-.94.35-1.03,1.21-3.64,2.79-7.29,4.67-10.79.59-1.09,1.21-2.17,1.84-3.23,2.5-4.1,5.61-8.18,9.25-12.12,3.27-3.54,6.53-6.47,9.97-8.95,3.92-2.82,7.96-5.09,12.02-6.75l.15-.06c1.01-.41,2.06-.84,3.12-1.2.81-.27,1.63-.53,2.44-.79l.9-.27c.85-.22,1.7-.43,2.55-.64l.84-.21c.55-.14,1.11-.24,1.66-.34h.06s.12-.04,1.02-.19c.33-.05.63-.1.68-.11,1-.18,2-.32,2.97-.45l1.01-.14c.08-.01.42-.04.82-.08.45-.04,1.13-.1,1.22-.12.02,0,.09,0,.16-.02h.11s.06-.02.13-.02h.09s.16-.03.29-.04c.12-.01.24-.02.28-.03.04-.02.14-.03.68-.06.1,0,.18,0,.2-.01.05,0,.22,0,.76-.02.35,0,.71-.01.77-.02.34-.01.67-.02.99-.03.27,0,.53-.01.8-.02.05-.02.34-.03,1.3-.03.22,0,.39,0,.44,0,.36,0,.7.02,1.05.03.28,0,.56.02.84.02.4,0,.81.02,1.22.03l.68.02c.09,0,.2,0,.26,0,.05,0,.12,0,.2.01.08,0,.16,0,.21.01.09,0,.24.02.38.02.17,0,.34.02.45.03.17.02.43.04.69.06.35.03.73.05.96.08.32.04.78.08,1.27.12.76.07,1.54.13,2.03.22.94.11,1.9.26,2.82.41l.32.05c.35.08.83.15,1.34.24.76.13,1.54.25,2.06.39.29.08.73.17,1.19.27.65.14,1.32.28,1.74.41,4.41,1.05,8.71,2.53,12.77,4.38,2.19,1,4.37,2.14,6.48,3.4,2.91,1.74,5.63,3.67,8.06,5.73,1.33,1.13,2.5,2.2,3.57,3.28,2.95,2.98,5.34,5.96,7.31,9.12,1,1.6,1.92,3.36,2.99,5.7.35.77.68,1.55,1.02,2.33l.21.5c.05.1.16.37.55,1.44.2.56.46,1.25.5,1.34.93,2.64,1.53,4.57,2.04,6.5l1.52,7.9-.46.09-1.52-7.88c-.5-1.9-1.1-3.81-2-6.39-.05-.1-.15-.37-.53-1.4-.21-.57-.47-1.29-.52-1.38l-.23-.54c-.33-.77-.66-1.55-1.01-2.32-1.06-2.32-1.97-4.06-2.96-5.64-1.95-3.13-4.32-6.08-7.25-9.04-1.06-1.07-2.21-2.13-3.54-3.26-2.41-2.05-5.1-3.96-8-5.69-2.09-1.25-4.26-2.38-6.43-3.38-4.04-1.84-8.31-3.31-12.7-4.36-.41-.13-1.07-.27-1.71-.4-.47-.1-.92-.19-1.22-.27-.49-.13-1.26-.26-2.01-.38-.52-.09-1-.17-1.35-.24l-.31-.05c-.96-.15-1.88-.29-2.82-.41-.49-.08-1.29-.15-2-.21-.5-.04-.97-.08-1.29-.12-.23-.03-.59-.06-.94-.08-.27-.02-.53-.04-.71-.06-.1-.01-.27-.02-.43-.03-.15,0-.3-.02-.4-.03-.05,0-.12,0-.2-.01-.08,0-.16,0-.21-.01h-.11c-.05,0-.1,0-.13,0l-.67-.02c-.4-.01-.81-.02-1.21-.03-.28,0-.56-.01-.84-.02-.34-.01-.68-.02-1.02-.03-.03,0-.22,0-.45,0-.37,0-1.13,0-1.24.02-.31.02-.58.02-.85.03-.32,0-.65.02-.97.03-.03,0-.22,0-.8.02-.33,0-.66.01-.72.02-.02,0-.12,0-.23.01-.17,0-.52.03-.58.04-.06.02-.21.03-.36.05-.11.01-.21.02-.25.03-.01,0-.08,0-.15.01h-.09s-.07.01-.14.02h-.11c-.1.03-.56.07-1.27.13-.38.03-.71.06-.79.07l-1.02.14c-.96.13-1.95.27-2.93.45-.02,0-.12.02-.7.12-.37.06-.92.15-.99.17l-.09.02c-.54.1-1.09.2-1.63.33l-.84.21c-.85.21-1.7.42-2.54.64l-.89.26c-.81.25-1.62.52-2.43.79-1.04.35-2.08.78-3.09,1.19l-.15.06c-4.03,1.64-8.04,3.9-11.93,6.7-3.41,2.46-6.65,5.37-9.9,8.89-3.62,3.92-6.71,7.97-9.2,12.05-.63,1.04-1.25,2.12-1.83,3.2-1.87,3.48-3.43,7.1-4.66,10.77-.06.13-.21.61-.32.96-.21.68-.27.88-.32.96-.03.07-.16.57-.25.92-.18.7-.24.92-.29,1-.03.07-.15.57-.24.93-.15.62-.21.86-.25.97-.15.65-.29,1.31-.42,1.97l-.02.06c-.02.06-.09.54-.15.9-.1.64-.14.85-.17.94-.08.56-.15,1.12-.22,1.68l-.05.29c-.01.06-.06.55-.09.91-.06.66-.08.88-.11.98-.05.72-.09,1.46-.13,2.19-.09,1.98-.08,4.01.05,6.02.2,3.3.69,6.48,1.45,9.46l.07.26c.04.16.08.32.12.49.03.11.06.21.09.32l.1.36c.05.16.09.32.14.49l.15.5c.16.52.32,1.06.5,1.57l.12.31c.21.58.43,1.15.64,1.73.49,1.29,1.09,2.53,1.68,3.73l.08.17c.74,1.51,1.61,2.98,2.6,4.37.65.92,1.41,1.79,2.25,2.61h0l.07.07.84.58s.05.03.08.06h.06l.03.05s.07.02.1.04c.03.01.05.03.08.06h0c.06.03.11.06.2.13.03.02.06.05.09.06.07.02.14.08.3.19.08.06.16.11.2.14.07.02.15.07.31.19.07.05.13.09.18.12.07.02.15.08.35.22.08.06.17.12.21.15.07.02.15.07.33.2.07.05.14.1.18.13h.01l.05.03c.11.07.22.13.34.19l.21.11c.73.4,1.48.79,2.23,1.17.8.38,1.56.72,2.32,1.04.35.14.71.28,1.07.41l.22.08c2.76,1.05,5.64,1.89,8.58,2.51,1.52.32,3.22.6,5.18.86,1.78.24,3.64.37,5.27.49.44.03.93.05,1.4.07.03,0,.35,0,.66.02.3.01.6.02.67.02.04,0,.28,0,.52.01.21,0,.43.02.48.01.24,0,.46,0,.68,0h.29c1.27,0,2.5,0,3.66-.03l.89-.03c3.78-.12,7.57-.39,12.32-.89,3.55-.38,7.82-.96,13.05-1.77l.28-.04c.46-.07.92-.15,1.39-.22,7.88-1.29,15.85-2.7,22.61-3.92,7.61-1.38,15.48-2.8,22.86-4.04,4.1-.68,7.75-1.26,11.17-1.76,1.12-.17,10.63-1.63,23.78-3.66,31.02-4.78,82.92-12.78,85.15-13.03h0s.49-.05.49-.05l.05.46-.4.04-.11-.22.03.23c-2.22.25-54.13,8.25-85.14,13.03-13.16,2.03-22.66,3.49-23.78,3.66-3.42.5-7.07,1.07-11.16,1.76-7.37,1.23-15.24,2.65-22.85,4.03-6.76,1.22-14.73,2.63-22.62,3.92-.46.08-.93.15-1.39.22l-.28.04c-5.24.82-9.52,1.4-13.07,1.78-4.75.5-8.56.78-12.35.89l-.89.03c-.87.03-1.78.03-2.71.03Z"/>
        <path class="cls-6" d="M333.13,201.67"/>
        <path class="cls-4" d="M257.48,212.62c-.1,0-.23,0-.35,0-.19,0-.38,0-.44,0-.35,0-.69,0-1.01-.01-1.18-.04-2.45-.09-3.68-.19-1.35-.11-2.54-.24-3.63-.39-1.99-.28-3.97-.68-6.08-1.23l-.3-.08c-.22-.05-.43-.11-.64-.17-.54-.16-1.1-.33-1.69-.53-.55-.2-1.09-.4-1.62-.6l-.14-.06c-.08-.03-.16-.06-.23-.09-.06-.01-.13-.05-.24-.1-.05-.03-.1-.05-.13-.06-.06,0-.13-.04-.27-.11-.05-.03-.11-.06-.14-.07-.05,0-.12-.03-.24-.1-.04-.02-.09-.05-.12-.06-.05,0-.13-.04-.26-.11-.05-.03-.1-.05-.13-.06-.04,0-.1-.03-.16-.07-.06-.02-.1-.04-.14-.07-.03,0-.07-.02-.11-.03h-.02s-.02-.02-.03-.02l-.79-.4c-.63-.54-1.13-1.14-1.55-1.86-.51-.87-.96-1.9-1.35-3.07l-.05-.16c-.27-.81-.54-1.64-.75-2.52-.11-.46-.22-.92-.32-1.38-.08-.36-.15-.73-.21-1.09l-.15-.91c0-.07-.02-.14-.03-.21-.01-.12-.03-.24-.04-.36l-.02-.13c-.26-1.97-.35-4.08-.27-6.28.05-1.35.16-2.67.33-3.94.06-.48.13-.97.21-1.45l.02-.06c.02-.06.07-.36.1-.56.07-.42.1-.61.14-.71.08-.4.16-.8.25-1.2.05-.11.11-.4.15-.6.09-.4.13-.59.18-.68.12-.42.25-.87.4-1.33.06-.12.15-.42.22-.64.12-.38.19-.62.26-.74.04-.07.14-.38.21-.6.12-.38.2-.62.27-.73.04-.07.15-.36.23-.58.14-.37.23-.6.3-.71,1.04-2.5,2.31-5,3.78-7.37.45-.73.94-1.47,1.44-2.19,1.87-2.69,4.16-5.37,6.99-8.17,2.21-2.2,4.18-3.87,6.18-5.27,2.4-1.68,4.87-3.05,7.33-4.08l.07-.03c.62-.26,1.26-.52,1.9-.75.49-.17.98-.34,1.47-.5l.54-.17,2.04-.57c.34-.1.69-.17,1.03-.25.03-.01.19-.05.64-.13.18-.03.34-.06.38-.07.4-.08.79-.15,1.17-.23.53-.1,1.07-.21,1.6-.32.11-.02.33-.04.57-.07.35-.04.78-.09.91-.11.02,0,.07,0,.12-.02h.07s.05-.02.1-.02c.11-.02.21-.04.31-.05.1-.02.21-.03.27-.05.06-.03.22-.04.52-.07h.12c.06-.02.28-.03.5-.03.21,0,.43-.01.48-.02l.54-.04c.25-.02.51-.03.76-.05.12-.04.52-.05,1-.06.12,0,.21,0,.27,0,.23,0,.45,0,.67,0,.24,0,.49,0,.73,0h.53c.28,0,.55,0,.83-.02h.2s.09,0,.14,0c.07,0,.13,0,.16,0,.05,0,.17,0,.29.01.13,0,.26,0,.32.01.09,0,.3.02.52.03.27.01.56.03.67.04.17.02.57.04,1,.06.57.03,1.15.05,1.39.1.51.04,1.03.1,1.55.16.24.03.48.06.72.08.2.04.62.09,1.03.14.56.06,1.14.13,1.39.2.15.04.55.1.93.16.52.08,1,.16,1.21.22,3.2.57,6.37,1.43,9.4,2.54,1.65.6,3.28,1.3,4.85,2.06,2.25,1.09,4.32,2.3,6.17,3.6,1.05.74,1.95,1.44,2.77,2.13,2.41,2.07,4.23,4.04,5.72,6.19.77,1.11,1.39,2.29,1.91,3.31.24.47.47.94.69,1.41l.11.23s.11.22.36.83c.12.29.28.69.32.76.46,1.13.97,2.42,1.42,3.81l2.56,10.85-.45.11-2.55-10.83c-.44-1.35-.94-2.62-1.37-3.69-.06-.09-.15-.3-.36-.83-.12-.3-.29-.7-.33-.77l-.13-.27c-.23-.47-.45-.94-.69-1.4-.52-1.01-1.13-2.17-1.88-3.26-1.47-2.12-3.26-4.06-5.64-6.1-.8-.68-1.69-1.37-2.73-2.1-1.82-1.29-3.88-2.48-6.1-3.56-1.56-.75-3.18-1.44-4.81-2.04-3.01-1.1-6.16-1.95-9.35-2.53-.2-.06-.72-.14-1.17-.21-.43-.07-.8-.13-.98-.17-.22-.06-.81-.12-1.32-.18-.44-.05-.86-.1-1.05-.14-.22-.02-.46-.05-.7-.08-.52-.06-1.03-.12-1.55-.16-.23-.04-.83-.07-1.35-.09-.46-.02-.85-.04-1.04-.06-.11-.01-.38-.03-.64-.04-.23-.01-.45-.02-.55-.03-.05,0-.17,0-.28-.01-.13,0-.27,0-.32-.01-.02,0-.08,0-.13,0-.07,0-.13,0-.16,0h-.05c-.05,0-.1,0-.12,0-.25,0-.53,0-.81.01h-.53c-.25,0-.5,0-.74,0-.22,0-.44,0-.65,0-.04,0-.15,0-.27,0-.26,0-.81.02-.93.05-.3.03-.56.04-.82.06l-.52.03s-.28.02-.52.02c-.2,0-.4.01-.46.02h-.13c-.1.02-.36.04-.42.06-.1.03-.22.05-.34.07-.09.01-.17.03-.23.04-.01,0-.06,0-.11.02-.07,0-.12.02-.17.02h-.07c-.14.04-.48.08-.95.13-.23.03-.44.05-.54.06-.52.11-1.06.21-1.59.32-.38.07-.76.15-1.15.22-.02,0-.2.04-.4.08-.24.04-.53.1-.59.12-.37.08-.7.16-1.04.25l-2.57.73c-.48.16-.97.33-1.45.5-.63.22-1.26.49-1.88.74l-.07.03c-2.43,1.02-4.87,2.37-7.24,4.03-1.98,1.38-3.92,3.04-6.12,5.22-2.81,2.79-5.08,5.44-6.93,8.11-.49.72-.97,1.45-1.42,2.17-1.45,2.36-2.72,4.83-3.77,7.34-.07.11-.18.43-.27.66-.13.34-.21.56-.27.66-.05.07-.15.4-.23.63-.12.36-.19.58-.25.69-.04.08-.14.4-.22.64-.11.36-.18.58-.24.69-.13.41-.26.87-.39,1.32-.04.1-.11.41-.16.61-.08.38-.13.56-.17.65-.07.34-.15.74-.23,1.14l-.03.1c-.03.06-.07.38-.11.58-.06.36-.09.54-.12.65-.07.46-.14.94-.2,1.41-.17,1.25-.28,2.56-.33,3.9-.08,2.18,0,4.26.27,6.2l.02.12c.02.13.03.25.05.38,0,.06.02.12.03.19l.15.89c.06.36.13.72.21,1.07.11.46.21.92.32,1.37.21.85.48,1.68.74,2.48l.05.16c.37,1.13.81,2.14,1.31,2.98.38.65.85,1.21,1.42,1.71l.7.35.11.03.09.05s.07.03.14.07c.01,0,.03.02.04.02.07.01.14.05.25.11.05.03.1.05.13.06.05-.02.12.03.25.1.04.02.09.05.11.06.05,0,.13.04.28.12.05.03.11.06.14.07.05,0,.12.03.25.1.05.03.1.05.13.06.13.05.21.08.29.11l.15.06c.53.21,1.06.4,1.6.6.58.2,1.13.37,1.67.52.21.06.42.11.63.17l.3.08c2.09.54,4.06.94,6.03,1.22,1.08.15,2.26.28,3.6.39,1.22.1,2.48.15,3.66.18.31,0,.65.01.98.01.06,0,.26,0,.47,0,.2,0,.39,0,.47,0,.06,0,.22,0,.37,0,.14,0,.28,0,.33,0,.18,0,.34,0,.5,0h.18c.88-.02,1.73-.04,2.53-.08l.63-.03c2.59-.12,5.3-.33,8.54-.68,2.35-.25,5.56-.69,9.8-1.34l1.26-.2c5.73-.91,11.82-1.96,17.03-2.86l.98-.17c5.43-.95,11.04-1.92,16.2-2.78,3.17-.52,5.91-.96,8.39-1.34,3.13-.48,5.79-.86,7.89-1.13l.06.46c-2.1.27-4.75.64-7.88,1.13-2.48.38-5.22.81-8.38,1.34-5.17.86-10.78,1.83-16.2,2.78l-.98.17c-5.21.9-11.31,1.95-17.04,2.86l-1.26.2c-4.25.65-7.46,1.09-9.82,1.35-3.25.34-5.97.56-8.57.68l-.63.03c-.81.04-1.66.05-2.49.07h-.23c-.16,0-.33.01-.49.01-.04,0-.2,0-.35,0-.14,0-.28,0-.33,0-.03,0-.09,0-.16,0Z"/>
        <path class="cls-4" d="M397.93,193.54l-.06-.46,44.84-5.79c12.07-1.56,20.04-2.59,20.09-2.59l.06.46c-.07,0-8.03,1.04-20.08,2.59l-44.84,5.79Z"/>
      </g>
      <path class="cls-4" d="M486.72,353.32c3.29-6.18,10.14-15.77,10.14-15.77-.08,1.19-12.72,13.17-12.6,10.71.04-.95-6.66,26.03-6.66,26.03l9.13-20.96Z"/>
    </g>
    <path class="cls-4" d="M366.31,176.97l-55.8,9.64-2.76-7.88-.42-1.19c.31.33,5.78,6.13,16.19,4.81,12.98-1.65,40.25-5.07,42.78-5.39Z"/>
    <path class="cls-4" d="M248.16,194.12c.26.15.54.21.79.24-2.83,0-13.5-.05-16.01-.05,0,0,11.37-1.53,13.11-3.42,1.41-1.52,2.13-3.74,2.36-4.55-.09.41-.27,1.17-.45,2.06-.02.07-.03.12-.05.19-.33,1.67-.64,3.7-.43,4.65.1.45.35.72.66.88h0Z"/>
  </g>
  <path class="cls-4" d="M249.64,194.36s-.3.04-.67,0h.67Z"/>
  <polygon class="cls-4" points="477.72 374.4 477.23 374.28 484.03 348.48 484.52 348.6 477.72 374.4"/>
  <g>
    <polygon class="cls-2" points="411.83 282.03 517.95 76.42 541.62 84.83 494.56 311.33 411.83 282.03"/>
    <path class="cls-4" d="M504.11,265.8l-9.49,45.68-82.88-29.34,19.76-38.27c4.38,3.34,7.83,7.85,9.9,13.05,4.96-3.59,11.03-5.7,17.6-5.7,13.01,0,24.11,8.27,28.39,19.9,4.79-3.28,10.53-5.25,16.72-5.31Z"/>
    <path class="cls-4" d="M494.91,311.95l-.5-.18-83.24-29.48.24-.47,106.31-205.97,24.43,8.69-.08.4-47.16,227.02ZM412.49,281.77l81.73,28.95,46.86-225.58-22.9-8.14-105.69,204.77Z"/>
    <g>
      <path class="cls-1" d="M511.58,88.78l41.11-77.81c.79-1.41,4.09-.02,3.76,1.56l-17.08,83.13c-3.85-13.66-17.42-17.38-27.79-6.87Z"/>
      <path class="cls-4" d="M539.37,96.12c-.21,0-.39-.14-.45-.34-1.8-6.38-5.84-10.82-11.09-12.17-5.32-1.37-11.12.63-15.92,5.5-.16.16-.42.18-.61.05-.19-.14-.24-.39-.14-.59l41.11-77.81c.46-.82,1.54-1.07,2.75-.61,1.07.4,2.12,1.34,1.88,2.48l-17.08,83.13c-.04.21-.23.36-.44.37h-.02ZM524.49,82.26c1.2,0,2.4.15,3.58.45,5.1,1.31,9.11,5.32,11.21,11.11l16.72-81.39c.12-.57-.58-1.15-1.29-1.42-.62-.23-1.35-.26-1.6.18l-39.86,75.44c3.51-2.87,7.42-4.38,11.25-4.38Z"/>
    </g>
    <polygon class="cls-4" points="448.65 229.85 448.23 229.65 514.12 91.7 514.54 91.9 448.65 229.85"/>
  </g>
</svg>