<?xml version="1.0" encoding="UTF-8"?>
<svg id="Layer_1" data-name="Layer 1" xmlns="http://www.w3.org/2000/svg" viewBox="0 0 692 505">
  <defs>
    <style>
      .cls-1 {
        fill: #000;
      }

      .cls-1, .cls-2, .cls-3, .cls-4, .cls-5, .cls-6 {
        stroke-width: 0px;
      }

      .cls-2 {
        fill: #ea8bf3;
      }

      .cls-3 {
        fill: #eef0f2;
      }

      .cls-4 {
        fill: #f45b69;
      }

      .cls-5 {
        fill: #fff;
      }

      .cls-6 {
        fill: #070600;
      }
    </style>
  </defs>
  <g>
    <g>
      <path class="cls-5" d="M116.76,269.24c1.86-1.99,3.87-3.66,5.96-5.02l44.63,2.15,1.09,1.01c-1.79-1.67-5.26-.84-7.76,1.83l-42.6,45.68c-2.5,2.68-3.07,6.19-1.28,7.86l-1.09-1.01-5.55-41.62c1.22-3.71,3.44-7.5,6.6-10.89Z"/>
      <path class="cls-1" d="M167.57,265.86l-44.63-2.16c-.11,0-.23.03-.35.11-2.21,1.43-4.27,3.17-6.12,5.16-3.14,3.37-5.49,7.24-6.79,11.19-.03.08-.04.16-.03.23l5.54,41.62c.01.08.04.14.09.19l1.09,1.01c.16.15.48.08.71-.17s.28-.57.12-.72c-1.62-1.51-1.1-4.71,1.16-7.14l42.6-45.68c2.27-2.43,5.43-3.18,7.05-1.67.16.15.48.08.71-.17s.28-.57.12-.72l-1.09-1.01c-.05-.05-.12-.07-.2-.08ZM110.68,279.98c1.24-3.69,3.44-7.31,6.38-10.46,1.7-1.83,3.59-3.43,5.61-4.76l40.7,1.97c-1.04.5-2.08,1.25-2.99,2.23l-42.6,45.68c-.94,1.01-1.63,2.13-2.05,3.23l-5.05-37.88ZM122.71,264.22h0s0,0,0,0Z"/>
    </g>
    <g>
      <path class="cls-1" d="M109.97,263.67c.13-.03.27-.05.4-.05l12.35.6c-2.08,1.35-4.1,3.02-5.96,5.02-3.16,3.39-5.39,7.18-6.6,10.89l-1.9-14.22c-.01-.06-.01-.13-.02-.2.01-.07,0-.14.03-.21.13-.81.9-1.64,1.7-1.83Z"/>
      <path class="cls-1" d="M122.93,263.7l-12.36-.6c-.16,0-.34.01-.53.06-.52.12-1.05.45-1.48.92-.44.47-.72,1.02-.79,1.48-.03.09-.03.17-.04.27,0,.03,0,.08,0,.11,0,.08,0,.16.02.22l1.9,14.22c.03.21.21.31.45.25.23-.07.46-.29.54-.53,1.23-3.74,3.45-7.4,6.42-10.59,1.75-1.88,3.7-3.52,5.79-4.88.21-.13.36-.36.38-.57.01-.12-.02-.22-.09-.29-.05-.05-.12-.07-.2-.08ZM108.77,265.64s0-.06,0-.11c0-.06.02-.15.02-.15.04-.26.18-.52.39-.75.21-.23.47-.39.72-.45t0,0c.1-.02.19-.03.26-.03l11.15.54c-1.72,1.24-3.35,2.68-4.84,4.27-2.61,2.79-4.66,5.93-6.03,9.17l-1.67-12.5Z"/>
    </g>
    <g>
      <g>
        <path class="cls-4" d="M118.07,314.9l42.6-45.68c2.5-2.68,5.97-3.5,7.76-1.83l125.28,116.86c2.05,1.92,1.39,5.96-1.47,9.03l-41.27,44.24c-2.87,3.07-6.85,4.01-8.91,2.1l-125.29-116.86c-1.79-1.67-1.22-5.18,1.28-7.86Z"/>
        <path class="cls-6" d="M244.81,440.87c-1.15,0-2.16-.36-2.91-1.06l-125.29-116.86c-.93-.86-1.3-2.21-1.04-3.77.25-1.53,1.07-3.11,2.31-4.44l42.6-45.68c2.59-2.77,6.23-3.6,8.12-1.85l125.29,116.86c1.06.98,1.48,2.51,1.18,4.3-.29,1.75-1.23,3.56-2.65,5.08l-41.27,44.24c-1.42,1.52-3.15,2.58-4.88,2.99-.51.12-1,.18-1.47.18ZM166.05,266.78c-1.64,0-3.62.93-5.19,2.62l-42.6,45.68c-1.17,1.26-1.95,2.74-2.18,4.18-.23,1.4.09,2.58.89,3.33l125.29,116.86c.93.87,2.32,1.14,3.92.76,1.63-.38,3.28-1.4,4.63-2.85l41.27-44.24c1.35-1.45,2.25-3.16,2.52-4.82.26-1.62-.1-2.99-1.03-3.86l-125.29-116.86c-.58-.54-1.35-.8-2.22-.8Z"/>
      </g>
      <path class="cls-1" d="M160.38,268.95l-42.6,45.68c-2.72,2.92-3.35,6.77-1.4,8.58l125.29,116.86c2.21,2.06,6.53,1.05,9.62-2.27l41.27-44.24c3.09-3.31,3.81-7.69,1.59-9.75l-125.28-116.86c-1.95-1.82-5.75-.92-8.47,2ZM117.2,322.32c-1.62-1.51-1.1-4.71,1.16-7.14l42.6-45.68c2.27-2.43,5.43-3.18,7.05-1.67l125.28,116.86c1.89,1.76,1.28,5.49-1.36,8.31l-41.27,44.24c-2.63,2.82-6.31,3.69-8.19,1.93l-125.28-116.86Z"/>
    </g>
    <path class="cls-1" d="M321.42,409.26l.48.45c1.94,1.81,1.31,5.67-1.42,8.59l-.66.71c-.23.25-.55.32-.71.17s-.11-.48.12-.72c2.63-2.82,3.24-6.55,1.36-8.3-.16-.15-.11-.48.12-.72.23-.25.55-.32.71-.17Z"/>
    <path class="cls-1" d="M278.67,462.52c.16.15.11.48-.12.72l-.67.72c-2.72,2.92-6.52,3.81-8.46,2l-.48-.45c-.16-.15-.11-.48.12-.72s.55-.32.71-.17c1.88,1.76,5.55.89,8.19-1.94.23-.25.55-.32.71-.17Z"/>
    <g>
      <path class="cls-5" d="M293.72,384.26l27.28,25.45c2.05,1.91,1.38,5.95-1.48,9.03l-41.27,44.24c-2.87,3.07-6.85,4.01-8.9,2.1l-27.28-25.45c2.05,1.92,6.04.97,8.91-2.1l41.27-44.24c2.87-3.07,3.53-7.11,1.47-9.03Z"/>
      <path class="cls-1" d="M293.43,383.98c-.23.25-.28.57-.12.72,1.89,1.76,1.28,5.49-1.36,8.31l-41.27,44.24c-2.63,2.82-6.31,3.69-8.19,1.93-.16-.15-.48-.08-.71.17s-.28.57-.12.72l27.28,25.45c2.21,2.06,6.52,1.04,9.61-2.27l41.27-44.24c3.09-3.31,3.81-7.69,1.6-9.75l-27.28-25.45c-.16-.15-.48-.08-.71.17ZM244.59,441.14c2.13.01,4.67-1.17,6.69-3.34l41.27-44.24c2.02-2.16,3.02-4.78,2.86-6.9l25.18,23.49c1.88,1.76,1.27,5.48-1.36,8.3l-41.27,44.24c-2.63,2.82-6.31,3.69-8.19,1.94l-25.18-23.49Z"/>
    </g>
    <path class="cls-1" d="M256.48,442.38l18.09,16.87c.16.15.11.48-.12.72-.23.25-.55.32-.71.17l-18.09-16.87c-.16-.15-.11-.48.12-.72.23-.25.55-.32.71-.17Z"/>
    <path class="cls-1" d="M297.58,401.51l15.23,14.21c.16.15.11.48-.12.72s-.55.32-.71.17l-15.23-14.21c-.16-.15-.11-.48.12-.72.23-.25.55-.32.71-.17Z"/>
    <path class="cls-1" d="M270.37,449.11l8.25,7.69c.16.15.11.48-.12.72s-.55.32-.71.17l-8.25-7.69c-.16-.15-.11-.48.12-.72s.55-.32.71-.17Z"/>
    <path class="cls-1" d="M256.48,437.93l6.03,5.62c.16.15.11.48-.12.72-.23.25-.55.32-.71.17l-6.03-5.62c-.16-.15-.11-.48.12-.72s.55-.32.71-.17Z"/>
    <g>
      <path class="cls-1" d="M120.84,312.21l131.9,123.03c.16.15.11.48-.12.72s-.55.32-.71.17l-131.9-123.03c-.16-.15-.11-.48.12-.72.23-.25.55-.32.71-.17Z"/>
      <path class="cls-1" d="M158.57,271.77l131.9,123.03c.16.15.11.48-.12.72s-.55.32-.71.17l-131.9-123.03c-.16-.15-.11-.48.12-.72.23-.25.55-.32.71-.17Z"/>
      <path class="cls-1" d="M147.65,283.47l131.9,123.03c.16.15.11.48-.12.72s-.55.32-.71.17l-131.9-123.03c-.16-.15-.11-.48.12-.72.23-.25.55-.32.71-.17Z"/>
      <path class="cls-1" d="M135.19,296.84l131.9,123.03c.16.15.11.48-.12.72s-.55.32-.71.17l-131.9-123.03c-.16-.15-.11-.48.12-.72.23-.25.55-.32.71-.17Z"/>
    </g>
    <path class="cls-1" d="M153.44,270.12c.1.1.13.28.04.47-.12.29-.43.51-.68.49l-28.73-1.8c-.25-.01-.36-.26-.24-.55.12-.29.43-.51.68-.49l28.73,1.8c.08,0,.15.03.19.08Z"/>
  </g>
  <g>
    <path class="cls-4" d="M420.83,196.31l-44.79-36.72c-2.11-3.07-4.19-6.16-6.25-9.26-1.53-2.32-3.09-4.74-3.51-7.49-.68-4.51,1.88-8.91,4.99-12.26,7.82-8.45,19.83-11.75,31.19-10.32-7.46-5.69-14.24-12.28-20.11-19.58-7.13-8.87-13.19-20.36-9.92-31.26,2.13-7.13,10.19-11.93,17.13-11.65-6.54-4.51-12.03-10.43-15.09-17.7-4.38-10.44-2.64-23.84,5.96-31.21,8.6-7.37,23.95-5.95,29.43,3.96,3.25,5.87,2.69,13,2.52,19.71,12.82-9.56,33.31.41,37.57,15.82,4.26,15.41-4.36,32.09-16.97,41.93,21.99,3.86,44.01,18.53,56.66,36.86l-59.06,68.21c-2.43,2.96-6.79,3.39-9.76.97Z"/>
    <path class="cls-6" d="M425.21,198.38c-1.71,0-3.36-.59-4.7-1.69l-44.84-36.77-.04-.06c-2.11-3.08-4.22-6.2-6.26-9.27-1.47-2.23-3.14-4.76-3.58-7.69-.77-5.09,2.36-9.7,5.12-12.67,7.15-7.72,18.21-11.64,29.86-10.66-6.97-5.48-13.29-11.73-18.81-18.59-6.49-8.07-13.49-20.12-10.01-31.72,2.15-7.17,9.68-11.57,16.07-11.99-6.5-4.76-11.33-10.63-14.01-17.03-4.75-11.32-2.19-24.68,6.1-31.79,4.52-3.87,11.25-5.56,17.57-4.42,5.59,1.01,10.19,4.12,12.63,8.52,3.02,5.45,2.82,11.89,2.64,18.12l-.02.84c5.36-3.56,12.34-4.24,19.33-1.85,8.78,3.01,15.92,10.28,18.2,18.52,4.45,16.12-4.85,32.42-16.28,41.77,21.37,4.1,43.21,18.48,55.9,36.87l.22.32-59.31,68.5c-1.25,1.53-3.03,2.48-5.01,2.67-.25.02-.5.04-.75.04ZM376.41,159.24l44.73,36.68c2.74,2.25,6.8,1.85,9.05-.9l58.81-67.93c-12.79-18.34-34.77-32.59-56.11-36.34l-1.11-.19.89-.69c11.56-9.03,21.24-25.33,16.79-41.41-2.19-7.93-9.08-14.93-17.56-17.84-7.04-2.41-14.05-1.58-19.24,2.28l-.82.61.08-2.87c.18-6.09.37-12.39-2.51-17.61-2.29-4.14-6.64-7.07-11.93-8.02-6.03-1.09-12.44.52-16.74,4.2-7.96,6.83-10.41,19.71-5.83,30.64,2.78,6.63,7.94,12.68,14.91,17.49l1.42.98-1.73-.07c-6.29-.29-14.44,3.99-16.63,11.29-3.35,11.18,3.5,22.92,9.83,30.81,5.83,7.25,12.57,13.81,20.03,19.5l1.48,1.13-1.84-.23c-11.97-1.51-23.47,2.28-30.76,10.16-2.61,2.81-5.57,7.15-4.86,11.84.41,2.71,2.01,5.14,3.43,7.29,2.02,3.04,4.11,6.14,6.21,9.2Z"/>
  </g>
  <g>
    <g>
      <path class="cls-5" d="M349.52,71.84c1.77,2.08,3.19,4.27,4.29,6.5l-7.31,44.08-1.13.96c1.86-1.58,1.45-5.13-.92-7.92l-40.44-47.61c-2.37-2.79-5.8-3.77-7.66-2.18l1.13-.96,41.98-.69c3.54,1.64,7.05,4.29,10.05,7.82Z"/>
      <path class="cls-1" d="M347.01,122.69l7.31-44.08c.02-.11,0-.23-.07-.36-1.17-2.36-2.65-4.61-4.41-6.68-2.98-3.51-6.55-6.29-10.33-8.04-.08-.04-.16-.05-.23-.05l-41.98.69c-.08,0-.15.03-.2.07l-1.13.96c-.17.15-.13.47.08.73.22.26.53.35.7.2,1.69-1.43,4.81-.55,6.96,1.98l40.44,47.61c2.15,2.53,2.53,5.76.84,7.19-.17.15-.13.47.08.73s.53.35.7.2l1.13-.96c.05-.05.09-.11.1-.19ZM339.56,64.55c3.53,1.65,6.86,4.26,9.65,7.55,1.62,1.9,2.99,3.96,4.08,6.13l-6.66,40.2c-.37-1.1-1-2.21-1.87-3.23l-40.44-47.61c-.89-1.05-1.92-1.86-2.97-2.41l38.21-.63ZM353.82,78.33h0s0,0,0,0Z"/>
    </g>
    <g>
      <path class="cls-1" d="M355.84,65.73c.02.13.02.27,0,.4l-2.02,12.2c-1.1-2.23-2.53-4.42-4.29-6.5-3-3.54-6.51-6.18-10.05-7.82l14.35-.24c.06,0,.13,0,.2,0,.07.02.14.03.2.05.79.22,1.53,1.08,1.62,1.9Z"/>
      <path class="cls-1" d="M354.31,78.61l2.02-12.2c.02-.16.03-.34,0-.53-.06-.53-.32-1.09-.74-1.58-.42-.49-.93-.83-1.38-.95-.09-.04-.16-.05-.26-.07-.03,0-.08-.02-.11-.02-.08,0-.16-.01-.22,0l-14.35.24c-.21,0-.34.18-.3.42.04.24.23.49.46.6,3.57,1.65,6.95,4.28,9.77,7.6,1.66,1.96,3.07,4.09,4.18,6.32.11.22.32.4.53.44.12.02.22,0,.3-.06.05-.04.09-.11.1-.19ZM354.03,64.31s.07,0,.11,0c.06.02.15.04.15.04.25.07.5.24.7.47.2.24.33.51.36.76h0c.01.1.01.2,0,.27l-1.83,11.01c-1.04-1.86-2.27-3.63-3.69-5.3-2.47-2.91-5.35-5.32-8.41-7.05l12.61-.21Z"/>
    </g>
    <g>
      <g>
        <path class="cls-4" d="M304.02,67.85l40.44,47.61c2.37,2.79,2.79,6.34.92,7.92l-130.58,110.92c-2.14,1.82-6.08.69-8.8-2.51l-39.17-46.11c-2.72-3.2-3.19-7.27-1.05-9.09l130.58-110.92c1.86-1.58,5.29-.61,7.66,2.18Z"/>
        <path class="cls-6" d="M212.26,235.4c-2.1,0-4.57-1.24-6.45-3.46l-39.17-46.11c-1.35-1.59-2.2-3.43-2.41-5.2-.21-1.8.28-3.31,1.38-4.25l130.58-110.92c.97-.82,2.34-1.03,3.87-.6,1.49.42,2.96,1.42,4.14,2.81l40.44,47.61c1.18,1.39,1.93,3,2.11,4.55.18,1.58-.25,2.91-1.21,3.73l-130.58,110.92c-.74.62-1.67.92-2.7.92ZM298.58,65.16c-.8,0-1.51.24-2.05.7l-130.58,110.92c-.97.82-1.4,2.17-1.21,3.81.19,1.67,1.01,3.42,2.29,4.93l39.17,46.11c2.63,3.09,6.42,4.2,8.45,2.48l130.58-110.92c.83-.71,1.2-1.88,1.04-3.29-.17-1.45-.88-2.97-1.99-4.28l-40.44-47.61c-1.12-1.31-2.5-2.26-3.9-2.65-.47-.13-.93-.2-1.35-.2Z"/>
      </g>
      <path class="cls-1" d="M344.76,115.19l-40.44-47.61c-2.58-3.04-6.33-4.11-8.36-2.39l-130.58,110.91c-2.31,1.96-1.8,6.36,1.14,9.82l39.17,46.11c2.93,3.45,7.2,4.67,9.5,2.71l130.58-110.91c2.03-1.72,1.58-5.6-1.01-8.65ZM296.75,66.13c1.69-1.43,4.81-.55,6.96,1.98l40.44,47.61c2.15,2.53,2.53,5.76.84,7.19l-130.58,110.91c-1.97,1.67-5.6.63-8.1-2.31l-39.17-46.11c-2.5-2.94-2.93-6.69-.97-8.36l130.58-110.91Z"/>
    </g>
    <path class="cls-1" d="M186.76,258.91l-.5.43c-2.03,1.72-5.78.64-8.36-2.4l-.63-.74c-.22-.26-.26-.58-.08-.73.17-.15.49-.06.7.2,2.5,2.94,6.13,3.98,8.09,2.31.17-.15.49-.06.7.2.22.26.26.58.08.73Z"/>
    <path class="cls-1" d="M138.8,210.28c-.17.15-.49.06-.7-.2l-.64-.75c-2.58-3.04-3.03-6.91-1.01-8.63l.5-.43c.17-.15.49-.06.7.2.22.26.26.58.08.73-1.96,1.67-1.52,5.41.98,8.36.22.26.26.58.08.73Z"/>
    <g>
      <path class="cls-3" d="M214.8,234.29l-28.43,24.15c-2.13,1.81-6.07.69-8.79-2.52l-39.17-46.11c-2.72-3.2-3.19-7.27-1.06-9.08l28.43-24.15c-2.14,1.82-1.67,5.89,1.05,9.09l39.17,46.11c2.72,3.2,6.66,4.33,8.8,2.51Z"/>
      <path class="cls-6" d="M215.11,234.03c-.22-.26-.53-.35-.7-.2-1.97,1.67-5.6.63-8.1-2.31l-39.17-46.11c-2.5-2.94-2.93-6.69-.97-8.36.17-.15.13-.47-.08-.73s-.53-.35-.7-.2l-28.43,24.15c-2.3,1.96-1.79,6.36,1.14,9.81l39.17,46.11c2.93,3.45,7.19,4.67,9.5,2.72l28.43-24.15c.17-.15.13-.47-.08-.73ZM163.98,178.9c-.26,2.12.62,4.78,2.54,7.03l39.17,46.11c1.91,2.25,4.39,3.55,6.53,3.64l-26.24,22.29c-1.96,1.67-5.59.63-8.09-2.31l-39.17-46.11c-2.5-2.94-2.94-6.69-.98-8.36l26.24-22.29Z"/>
    </g>
    <path class="cls-1" d="M161.37,190.57l-18.85,16.01c-.17.15-.49.06-.7-.2s-.26-.58-.08-.73l18.85-16.01c.17-.15.49-.06.7.2.22.26.26.58.08.73Z"/>
    <path class="cls-1" d="M197.22,236.12l-15.87,13.48c-.17.15-.49.06-.7-.2s-.26-.58-.08-.73l15.87-13.48c.17-.15.49-.06.7.2s.26.58.08.73Z"/>
    <path class="cls-1" d="M153.08,203.59l-8.6,7.3c-.17.15-.49.06-.7-.2s-.26-.58-.08-.73l8.6-7.3c.17-.15.49-.06.7.2.22.26.26.58.08.73Z"/>
    <path class="cls-1" d="M165.8,191.08l-6.28,5.34c-.17.15-.49.06-.7-.2-.22-.26-.26-.58-.08-.73l6.28-5.34c.17-.15.49-.06.7.2s.26.58.08.73Z"/>
    <path class="cls-1" d="M344.41,108.17c-.11.09-.29.1-.48-.01-.27-.15-.46-.48-.41-.73l5.12-28.33c.04-.25.3-.33.58-.17.27.15.46.48.41.73l-5.12,28.33c-.01.08-.05.14-.1.18Z"/>
    <polygon class="cls-1" points="173.97 193.18 173.65 192.8 311.59 76.96 311.91 77.34 173.97 193.18"/>
    <polygon class="cls-1" points="185.36 206.8 185.03 206.41 322.97 90.57 323.29 90.96 185.36 206.8"/>
    <polygon class="cls-1" points="198.97 223.31 198.65 222.93 336.59 107.09 336.91 107.47 198.97 223.31"/>
  </g>
  <g>
    <polygon class="cls-4" points="303.43 53.94 361.16 3.55 359.31 41.21 429.33 6.78 397.76 57.7 473.51 73.26 393.6 88.58 363.57 136.18 364.77 78.48 327.65 106.6 337.86 67.84 311.94 75.5 328.51 50.64 303.43 53.94"/>
    <path class="cls-1" d="M363.03,137.97l1.22-58.47-37.46,28.38,10.36-39.3-26.4,7.8,16.73-25.09-25.63,3.37L361.72,2.4l-1.87,37.99L430.68,5.56l-32.12,51.8,77.51,15.92-82.17,15.76-30.87,48.94ZM365.29,77.46l-1.19,56.94,29.18-46.26,77.65-14.89-73.99-15.19,31.04-50.05-69.23,34.04,1.84-37.34-55.59,48.53,24.53-3.23-16.42,24.63,25.45-7.52-10.07,38.22,36.79-27.87Z"/>
  </g>
  <g>
    <g>
      <circle class="cls-2" cx="375.78" cy="231.1" r="96.89"/>
      <path class="cls-6" d="M375.78,328.49c-53.7,0-97.39-43.69-97.39-97.39s43.69-97.39,97.39-97.39,97.39,43.69,97.39,97.39-43.69,97.39-97.39,97.39ZM375.78,134.7c-53.15,0-96.39,43.24-96.39,96.39s43.24,96.39,96.39,96.39,96.39-43.24,96.39-96.39-43.24-96.39-96.39-96.39Z"/>
    </g>
    <g>
      <ellipse class="cls-1" cx="394.64" cy="154.11" rx="1.1" ry="1.06" transform="translate(93.33 451.94) rotate(-66)"/>
      <ellipse class="cls-1" cx="400.19" cy="156.59" rx="1.1" ry="1.06" transform="translate(94.36 458.48) rotate(-66)"/>
      <path class="cls-1" d="M396.84,167.13c-3.34,0-6.63-1.64-8.6-4.35-2.08-2.87-2.35-6.42-.76-10,.11-.25.41-.37.66-.25.25.11.37.41.25.66-1.44,3.24-1.21,6.44.66,9.01,1.97,2.71,5.4,4.24,8.74,3.89,3.16-.33,5.69-2.3,7.13-5.54.11-.25.41-.36.66-.25.25.11.37.41.25.66-1.59,3.58-4.42,5.76-7.94,6.13-.35.04-.7.05-1.05.05Z"/>
    </g>
  </g>
  <g>
    <rect class="cls-4" x="475.06" y="122.39" width="66.04" height="117.46" rx="26.12" ry="26.12" transform="translate(20.74 412.31) rotate(-45)"/>
    <path class="cls-6" d="M526.26,235.67c-6.82,0-13.63-2.59-18.82-7.78l-46.12-46.12c-10.38-10.38-10.38-27.26,0-37.64l9.76-9.76c5.03-5.03,11.71-7.8,18.82-7.8s13.79,2.77,18.82,7.8l46.12,46.12c5.03,5.03,7.8,11.71,7.8,18.82s-2.77,13.79-7.8,18.82l-9.76,9.76c-5.19,5.19-12,7.78-18.82,7.78ZM489.9,127.56c-6.84,0-13.27,2.67-18.11,7.5l-9.76,9.76c-9.99,9.99-9.99,26.24,0,36.23l46.12,46.12c9.99,9.99,26.24,9.99,36.23,0l9.76-9.76c4.84-4.84,7.5-11.27,7.5-18.11s-2.67-13.27-7.5-18.11l-46.12-46.12c-4.84-4.84-11.27-7.5-18.11-7.5Z"/>
  </g>
  <g>
    <g>
      <path class="cls-5" d="M565.92,240.58c2.55.95,4.87,2.17,6.92,3.58l15.1,42.06-.52,1.39c.86-2.29-1.23-5.18-4.67-6.47l-58.51-21.87c-3.43-1.28-6.9-.46-7.75,1.83l.52-1.39,36.32-21.06c3.89-.3,8.24.31,12.59,1.93Z"/>
      <path class="cls-1" d="M588.5,286.22l-15.1-42.06c-.04-.1-.12-.2-.23-.28-.19-.13-.39-.26-.58-.39-.24-.16-.48-.31-.73-.46h-.01c-.45-.28-.91-.55-1.37-.8-.47-.26-.95-.51-1.43-.74-.37-.18-.73-.35-1.11-.52-.18-.08-.36-.16-.54-.23-.44-.19-.89-.37-1.34-.54-1.79-.67-3.6-1.18-5.41-1.52-.28-.06-.56-.11-.84-.14-1.08-.19-2.15-.31-3.21-.36-.3-.02-.59-.03-.88-.03-.15-.01-.29-.01-.44-.01-.29,0-.58.01-.86.01-.08,0-.16.01-.24.01h-.01c-.36,0-.7.03-1.05.06-.08,0-.16.03-.22.06l-3,1.74-33.33,19.32c-.06.04-.11.09-.13.16l-.52,1.39c-.08.21.11.48.42.59h.01c.32.12.63.05.71-.16.77-2.08,3.93-2.82,7.04-1.66l2.47.92,1.15.43,18.54,6.93,1.15.43,2.9,1.08,11.27,4.21,1.81.68,1.14.42,13.85,5.18,1.14.42,3.09,1.16c3.11,1.17,5.01,3.8,4.24,5.88-.08.21.11.47.42.59h.01c.32.12.63.04.71-.17l.52-1.39c.02-.06.02-.14-.01-.21ZM583.87,281.18c-.31-.15-.64-.29-.98-.42l-20.87-7.8-11.27-4.21-26.37-9.85c-.45-.17-.91-.31-1.36-.41-.15-.03-.3-.06-.45-.09-.6-.11-1.18-.16-1.74-.16h-.22l29.92-17.34,3.13-1.82c.58-.04,1.17-.06,1.77-.06h.01c3.37,0,6.9.66,10.34,1.94.6.22,1.19.47,1.77.73.3.12.58.26.87.4.86.41,1.69.86,2.5,1.34.48.28.95.58,1.41.89v.02s13.77,38.33,13.77,38.33c-.04-.04-.09-.08-.13-.11-.51-.44-1.09-.84-1.74-1.19-.12-.07-.23-.13-.36-.19Z"/>
    </g>
    <g>
      <path class="cls-1" d="M568.47,232.17c.08.11.15.23.19.35l4.18,11.64c-2.05-1.41-4.36-2.63-6.92-3.58-4.35-1.62-8.7-2.23-12.59-1.93l12.41-7.2c.05-.03.11-.06.18-.09.07-.02.13-.05.2-.05.8-.19,1.86.2,2.34.87Z"/>
      <path class="cls-1" d="M569.22,232.52c-.05-.15-.14-.31-.25-.47-.32-.43-.82-.79-1.42-1.01-.6-.22-1.21-.28-1.67-.16-.09.01-.17.03-.26.06-.04.01-.08.03-.11.04-.07.04-.15.07-.2.1l-11.43,6.63-.98.57c-.18.11-.21.32-.06.51.03.03.06.07.1.09.16.14.39.22.6.21.04,0,.08-.01.12-.01.58-.04,1.17-.06,1.77-.06h.01c3.37,0,6.9.66,10.34,1.94.6.22,1.19.47,1.77.73.3.12.58.26.87.4.86.41,1.69.86,2.5,1.34.49.29.96.6,1.42.91.05.04.11.07.16.11.15.09.32.15.49.15.06,0,.13-.01.19-.03.11-.03.19-.11.22-.19.03-.07.03-.14,0-.22l-4.18-11.64ZM559.81,238.54c-1.08-.19-2.15-.31-3.21-.36-.3-.02-.59-.03-.88-.03-.15-.01-.29-.01-.44-.01l10.91-6.33s.05-.03.09-.04c.06-.02.15-.04.15-.04.25-.06.55-.04.84.07.29.11.54.28.69.49.06.08.11.17.13.24l3.77,10.5h-.01c-.45-.28-.91-.55-1.37-.8-.47-.26-.95-.51-1.43-.74-.37-.18-.73-.35-1.11-.52-.18-.08-.36-.16-.54-.23-.44-.19-.89-.37-1.34-.54-1.79-.67-3.6-1.18-5.41-1.52-.28-.06-.56-.11-.84-.14Z"/>
    </g>
    <g>
      <g>
        <path class="cls-4" d="M524.24,259.28l58.51,21.87c3.43,1.28,5.52,4.18,4.67,6.47l-59.98,160.49c-.98,2.63-4.97,3.57-8.91,2.1l-56.67-21.18c-3.93-1.47-6.33-4.79-5.35-7.42l59.98-160.49c.86-2.29,4.32-3.11,7.75-1.83Z"/>
        <path class="cls-6" d="M522.22,451.13c-1.2,0-2.49-.23-3.77-.71l-56.67-21.18c-1.95-.73-3.59-1.92-4.63-3.37-1.06-1.47-1.37-3.03-.86-4.38l59.98-160.49c.9-2.41,4.53-3.3,8.08-1.97l58.51,21.87c1.71.64,3.15,1.68,4.06,2.94.93,1.29,1.2,2.66.76,3.84l-59.98,160.49c-.7,1.88-2.86,2.95-5.46,2.95ZM521.01,258.92c-2.05,0-3.75.82-4.29,2.27l-59.98,160.49c-.45,1.19-.16,2.58.8,3.91.98,1.36,2.54,2.49,4.4,3.19l56.67,21.18c3.8,1.42,7.65.54,8.58-1.95l59.98-160.49c.38-1.03.14-2.23-.69-3.38-.85-1.18-2.21-2.17-3.83-2.77l-58.51-21.87c-1.07-.4-2.15-.59-3.14-.59Z"/>
      </g>
      <path class="cls-1" d="M587.02,283.65h0c-.3-.39-.65-.75-1.04-1.09-.51-.44-1.09-.84-1.74-1.19-.12-.07-.23-.13-.36-.19-.31-.15-.64-.29-.98-.42l-20.87-7.8-11.27-4.21-26.37-9.85c-.45-.17-.91-.31-1.36-.41-.15-.03-.3-.06-.45-.09-.6-.11-1.18-.16-1.74-.16s-1.08.06-1.57.17h-.01c-1.61.33-2.85,1.19-3.33,2.48l-12.47,33.37-1.15,3.08-32.31,86.45v.03s-.58,1.51-.58,1.51l-.47,1.26-13,34.79c-.26.69-.3,1.41-.15,2.14h0c.05.33.15.65.28.97.01.02.01.03.02.05.04.09.08.18.13.27.04.1.09.2.15.3.05.1.11.2.18.3.1.18.23.36.36.54.05.06.1.13.15.2.09.11.18.21.27.32.53.6,1.18,1.17,1.93,1.67.17.11.34.22.52.33.02,0,.03,0,.04.02.2.12.4.23.6.33.21.11.42.21.64.3.21.1.43.19.66.27l56.67,21.18c1.89.71,3.79.9,5.41.64.15-.02.29-.05.44-.08.15-.03.3-.06.44-.11.42-.11.81-.26,1.18-.44.31-.16.6-.34.86-.55.59-.46,1.03-1.04,1.29-1.72l6.88-18.4.59-1.59,3.1-8.29,2.12-5.67,10-26.77,1.77-4.71,35.52-95.06c.49-1.32.08-2.83-.97-4.17ZM533.73,429.54l-6.86,18.34c-.9,2.42-4.58,3.29-8.2,1.93l-2.18-.81-1.14-.43-13.84-5.17-1.14-.43-15.98-5.97-1.14-.43-18.56-6.93-1.14-.43-1.55-.58c-3.62-1.35-5.82-4.41-4.92-6.83l13.19-35.29.4-1.07,32-85.62.07-.19.78-2.1,1.32-3.51,12.22-32.7c.77-2.08,3.93-2.82,7.04-1.66l2.47.92,1.15.43,18.54,6.93,1.15.43,2.9,1.08,11.27,4.21,1.81.68,1.14.42,13.85,5.18,1.14.42,3.09,1.16c3.11,1.17,5.01,3.8,4.24,5.88l-35.48,94.94-1.59,4.25-10.62,28.41-1.99,5.33-2.89,7.72-.55,1.49Z"/>
    </g>
    <path class="cls-1" d="M514.95,483.26l-.23.62c-.93,2.49-4.73,3.38-8.47,1.98l-.91-.34c-.32-.12-.51-.38-.43-.59s.4-.28.71-.17c3.62,1.35,7.29.49,8.19-1.92.08-.21.4-.28.71-.17.32.12.51.38.43.59Z"/>
    <path class="cls-1" d="M449.38,464.16c-.08.21-.4.28-.71.17l-.92-.35c-3.74-1.4-6.02-4.56-5.09-7.05l.23-.62c.08-.21.4-.28.71-.17s.51.38.43.59c-.9,2.41,1.31,5.47,4.92,6.82.32.12.51.38.43.59Z"/>
    <g>
      <path class="cls-6" d="M527.44,448.1l-13.06,34.95c-.98,2.62-4.97,3.56-8.9,2.09l-56.67-21.18c-3.93-1.47-6.33-4.79-5.35-7.42l13.06-34.95c-.98,2.63,1.41,5.95,5.35,7.42l56.67,21.18c3.93,1.47,7.92.53,8.91-2.1Z"/>
      <path class="cls-6" d="M527.58,447.72c-.31-.12-.63-.05-.71.16-.9,2.42-4.58,3.29-8.2,1.93l-2.18-.81-1.14-.43-13.84-5.17-1.14-.43-15.98-5.97-1.14-.43-18.56-6.93-1.14-.43-1.55-.58c-3.62-1.35-5.82-4.41-4.92-6.83.08-.21-.11-.47-.43-.59-.31-.12-.63-.04-.71.17l-4.96,13.27-.03.08-.72,1.93-1.07,2.87-6.28,16.79c-1.06,2.83,1.54,6.43,5.78,8.01l.15.05,56.52,21.13c4.25,1.59,8.56.58,9.62-2.25l5.23-13.99.13-.37.54-1.44.87-2.32,6.29-16.83c.08-.21-.11-.47-.43-.59ZM519.05,468.81l-.13.34-5.11,13.68c-.9,2.41-4.58,3.27-8.19,1.92l-.15-.05-56.53-21.13c-3.61-1.35-5.82-4.41-4.92-6.82l6.52-17.45,1.04-2.78.61-1.63.05-.15,3.83-10.25s.01.03.02.05c.04.09.08.18.13.27.04.1.09.2.15.3.05.1.11.2.18.3.1.18.23.36.36.54.05.06.1.13.15.2.09.11.18.21.27.32.53.6,1.18,1.17,1.93,1.67.17.11.34.22.52.33.02,0,.03,0,.04.02.2.12.4.23.6.33.21.11.42.21.64.3.21.1.43.19.66.27l56.67,21.18c1.89.71,3.79.9,5.41.64.15-.02.29-.05.44-.08.15-.03.3-.06.44-.11.42-.11.82-.27,1.18-.45h0s-5.54,14.84-5.54,14.84l-.81,2.16-.46,1.24Z"/>
    </g>
    <path class="cls-1" d="M459.48,435.95l-8.66,23.17c-.08.21-.4.28-.71.17s-.51-.38-.43-.59l8.66-23.17c.08-.21.4-.28.71-.17.32.12.51.38.43.59Z"/>
    <path class="cls-1" d="M512.98,458.26l-7.29,19.51c-.08.21-.4.28-.71.17s-.51-.38-.43-.59l7.29-19.51c.08-.21.4-.28.71-.17s.51.38.43.59Z"/>
    <path class="cls-1" d="M458.59,451.37l-3.95,10.57c-.08.21-.4.28-.71.17-.32-.12-.51-.38-.43-.59l3.95-10.57c.08-.21.4-.28.71-.17s.51.38.43.59Z"/>
    <path class="cls-1" d="M463.6,434.25l-2.89,7.72c-.08.21-.4.28-.71.17s-.51-.38-.43-.59l2.89-7.72c.08-.21.4-.28.71-.17s.51.38.43.59Z"/>
    <g>
      <path class="cls-1" d="M527.79,260.81l-63.14,168.96c-.08.21-.4.28-.71.17s-.51-.38-.43-.59l63.14-168.96c.08-.21.4-.28.71-.17s.51.38.43.59Z"/>
      <path class="cls-1" d="M579.59,280.17l-63.14,168.96c-.08.21-.4.28-.71.17s-.51-.38-.43-.59l63.14-168.96c.08-.21.4-.28.71-.17s.51.38.43.59Z"/>
      <path class="cls-1" d="M564.61,274.57l-63.14,168.96c-.08.21-.4.28-.71.17s-.51-.38-.43-.59l63.14-168.96c.08-.21.4-.28.71-.17s.51.38.43.59Z"/>
      <path class="cls-1" d="M547.48,268.17l-63.14,168.96c-.08.21-.4.28-.71.17-.32-.12-.51-.38-.43-.59l63.14-168.96c.08-.21.4-.28.71-.17s.51.38.43.59Z"/>
    </g>
    <path class="cls-1" d="M579.16,274.8c-.05.13-.21.22-.42.22-.31,0-.64-.2-.72-.44l-9.34-27.23c-.08-.24.1-.43.42-.43.31,0,.64.2.72.44l9.34,27.23c.03.08.02.15,0,.21Z"/>
  </g>
  <path class="cls-1" d="M466.84,426.44c-.12,0-.22-.08-.24-.2-.03-.13.06-.27.19-.3,6.3-1.39,10.42-2.24,11.18-2.39.14-.02.27.06.29.19.03.13-.05.27-.19.3-.04,0-4.13.95-11.19,2.39-.02,0-.03,0-.05,0Z"/>
  <g>
    <g>
      <path class="cls-4" d="M231.68,416.85c-14.15-13.16-28.57-27.77-36.4-45.71-2.12-4.85-3.74-10.08-3.31-15.35,1.18-14.25,27.01-27.05,37.63-15.24-6.27-6.97-11.71-14.7-16.13-22.97-5.37-10.04-9.19-22.45-3.96-32.56,3.42-6.61,12.22-9.84,18.99-8.27-5.59-5.64-9.89-12.48-11.54-20.19-2.37-11.07,1.82-23.91,11.64-29.57,9.82-5.64,24.64-1.41,28.19,9.35,2.1,6.37.23,13.27-1.17,19.83,14.37-7.01,32.66,6.58,33.99,22.51,1.33,15.94-10.23,30.73-24.45,38.06,20.89,7.87,38.09,24.65,47.11,45.01,0,0,3.47-37.15,36.89-32.41,33.43,4.75,57.56,67.02,22.98,80.78-13.79,5.49-29,5.3-41.88-2.61-1.67-1.02-3.33-3.49-1.71-4.59,1.03-.7,2.39.05,3.4.79,27.9,20.4-3.98,52.16-23.85,63.51-34.74,19.83-75.36,17.13-111.46,2.52-30.66-12.41-71.6-28.55-84.55-61.82-7.71-19.81-.13-46.67,22.92-50.89,8.84-1.62,18.01.16,26.42,3.34,28.32,10.72,48.08,35.85,70.25,56.48Z"/>
      <path class="cls-6" d="M252.89,481.89c-18.11,0-37.18-3.89-56.44-11.68l-1.41-.57c-29.79-12.06-70.59-28.57-83.41-61.53-4.6-11.81-3.81-25.67,2.05-36.17,4.68-8.38,12.03-13.71,21.25-15.4,7.95-1.45,16.93-.33,26.68,3.36,18.05,6.83,32.78,19.63,46.62,33.16-5.29-6.65-9.97-13.86-13.41-21.72-1.67-3.83-3.84-9.62-3.35-15.59.71-8.58,9.74-15.98,18.3-18.87,6.16-2.08,11.93-1.91,16.29.33-4.99-6.03-9.36-12.53-13.03-19.4-4.88-9.13-9.52-22.27-3.96-33.02,3.44-6.65,11.66-9.56,18.01-8.8-5.5-5.89-9.16-12.54-10.61-19.33-2.57-12,2.43-24.66,11.88-30.11,5.16-2.96,12.09-3.38,18.08-1.09,5.31,2.03,9.25,5.94,10.83,10.72,1.96,5.92.57,12.21-.77,18.3l-.18.82c5.93-2.51,12.91-1.88,19.34,1.77,8.07,4.58,13.74,13.05,14.45,21.57,1.39,16.67-10.77,30.96-23.74,38.03,19.87,7.8,36.38,23.48,45.65,43.32.78-4.71,3.76-17.95,13.52-25.66,6.3-4.97,14.27-6.81,23.7-5.47,20.77,2.95,37.41,27.47,39.92,48.53,1.92,16.09-4.21,28.19-16.83,33.21-10.76,4.28-21.59,4.97-31.46,2.15,1.9,3.52,2.74,7.34,2.51,11.44-1,17.8-21.49,35.75-35.02,43.47-16.6,9.48-35.45,14.23-55.46,14.23ZM141.89,356.92c-2.34,0-4.6.2-6.79.6-8.91,1.63-16.02,6.78-20.55,14.9-5.72,10.25-6.49,23.78-2,35.32,12.67,32.56,53.24,48.98,82.86,60.96l1.41.57c40.24,16.3,79.68,15.41,111.03-2.49,12.83-7.32,33.54-25.38,34.51-42.66.24-4.26-.74-8.21-2.91-11.81-3.28-1.06-6.44-2.52-9.46-4.37-1.24-.76-2.57-2.33-2.61-3.74-.02-.7.29-1.29.88-1.69,1.5-1.02,3.36.35,3.97.8,3.4,2.48,6.02,5.21,7.87,8.16,9.93,3.11,20.92,2.53,31.83-1.81,12.16-4.84,18.07-16.56,16.2-32.16-2.47-20.69-18.76-44.77-39.07-47.66-9.15-1.3-16.86.47-22.93,5.26-11.63,9.18-13.38,26.52-13.39,26.69-.02.23-.19.41-.42.45-.23.04-.45-.08-.54-.29-9.17-20.67-26.24-36.98-46.83-44.75-.18-.07-.31-.24-.32-.44s.09-.38.27-.47c13.03-6.73,25.56-20.95,24.18-37.58-.68-8.2-6.16-16.36-13.94-20.79-6.47-3.68-13.52-4.16-19.33-1.32-.17.08-.38.06-.53-.06-.15-.12-.22-.31-.18-.5l.39-1.8c1.31-5.96,2.66-12.11.8-17.77-1.48-4.5-5.21-8.17-10.24-10.1-5.72-2.19-12.32-1.8-17.23,1.02-9.09,5.23-13.89,17.44-11.4,29.03,1.5,7.03,5.45,13.93,11.41,19.95.16.16.19.4.08.59-.11.19-.34.29-.55.24-6.14-1.41-14.93,1.25-18.43,8.02-5.37,10.37-.81,23.18,3.95,32.09,4.39,8.21,9.79,15.9,16.07,22.87.18.21.17.52-.04.71-.2.18-.52.17-.71-.04-4.11-4.57-11.27-5.71-19.14-3.06-8.25,2.78-16.95,9.86-17.62,18-.36,4.37.68,9.17,3.27,15.11,5.45,12.47,14.1,23.3,23.29,32.88,4.23,4.23,8.56,8.53,12.92,12.6.03.02.05.05.08.07h0s0,0,0,0c.2.19.21.5.03.71-.19.2-.5.21-.71.03h0s-.04-.04-.07-.06c-4.26-3.96-8.67-8.17-12.97-12.65-.7-.7-1.4-1.4-2.09-2.09-16.36-16.41-33.28-33.37-54.95-41.57-6.89-2.61-13.37-3.92-19.36-3.92ZM329.49,403.16c-.25,0-.47.06-.65.19-.31.21-.45.48-.44.84.02.9.98,2.2,2.13,2.91,2.57,1.58,5.26,2.87,8.04,3.86-1.73-2.45-4.03-4.73-6.91-6.83-.88-.64-1.6-.96-2.17-.96Z"/>
    </g>
    <path class="cls-6" d="M276.43,294.83c-.09,0-.17-.02-.25-.07-.24-.14-.32-.45-.18-.68,9.14-15.63,2.71-23.99-4.29-28.25-.24-.14-.31-.45-.17-.69.14-.24.45-.31.69-.17,7.39,4.49,14.19,13.27,4.63,29.61-.09.16-.26.25-.43.25Z"/>
    <path class="cls-6" d="M377.46,396.89c-.1,0-.2-.03-.29-.09-.22-.16-.28-.47-.12-.7,14.3-20.12-4.73-39.99-4.92-40.19-.19-.2-.19-.51,0-.71.2-.19.52-.19.71,0,.2.2,19.81,20.66,5.02,41.47-.1.14-.25.21-.41.21Z"/>
  </g>
  <g>
    <circle class="cls-4" cx="135.26" cy="240.49" r="22.02"/>
    <path class="cls-6" d="M135.26,262.77c-12.28,0-22.27-9.99-22.27-22.27s9.99-22.27,22.27-22.27,22.27,9.99,22.27,22.27-9.99,22.27-22.27,22.27ZM135.26,218.72c-12.01,0-21.77,9.77-21.77,21.77s9.77,21.77,21.77,21.77,21.77-9.77,21.77-21.77-9.77-21.77-21.77-21.77Z"/>
  </g>
  <g>
    <rect class="cls-4" x="114.18" y="416.36" width="201.31" height="84.57" rx="19.69" ry="19.69"/>
    <path class="cls-6" d="M295.8,501.43h-161.94c-11.13,0-20.19-9.06-20.19-20.19v-45.2c0-11.13,9.06-20.19,20.19-20.19h161.94c11.13,0,20.19,9.06,20.19,20.19v45.2c0,11.13-9.06,20.19-20.19,20.19ZM133.86,416.86c-10.58,0-19.19,8.61-19.19,19.19v45.2c0,10.58,8.61,19.19,19.19,19.19h161.94c10.58,0,19.19-8.61,19.19-19.19v-45.2c0-10.58-8.61-19.19-19.19-19.19h-161.94Z"/>
  </g>
  <g>
    <polygon class="cls-4" points="416.55 243.57 448.24 326.79 407.93 309.61 417.28 399.81 374.47 344.89 327.01 421.21 342.48 327.92 302.67 276.02 365.1 300.56 349.38 248.76 387.53 275.5 389.62 244.16 410.04 272.24 416.55 243.57"/>
    <path class="cls-1" d="M326.11,423.61l15.85-95.56-40.77-53.16,63.14,24.82-15.84-52.19,38.61,27.06,2.12-31.84,20.59,28.3,6.63-29.21,32.71,85.87-40.61-17.31,9.44,91.1-43.44-55.74-48.41,77.85ZM304.17,277.14l38.84,50.65-.04.21-15.06,90.8,46.51-74.79,42.17,54.12-9.25-89.32,40.01,17.06-30.69-80.58-6.38,28.13-20.26-27.85-2.05,30.86-37.69-26.42,15.59,51.4-.96-.38-60.75-23.88Z"/>
  </g>
  <g>
    <rect class="cls-4" x="315.76" y="416.36" width="90.12" height="84.57" rx="13.17" ry="13.17"/>
    <path class="cls-6" d="M392.71,501.43h-63.78c-7.54,0-13.67-6.13-13.67-13.67v-58.23c0-7.54,6.13-13.67,13.67-13.67h63.78c7.54,0,13.67,6.13,13.67,13.67v58.23c0,7.54-6.13,13.67-13.67,13.67ZM328.93,416.86c-6.99,0-12.67,5.68-12.67,12.67v58.23c0,6.99,5.68,12.67,12.67,12.67h63.78c6.99,0,12.67-5.68,12.67-12.67v-58.23c0-6.99-5.68-12.67-12.67-12.67h-63.78Z"/>
  </g>
  <path class="cls-6" d="M200.79,297.86s7.75,19.64,13.63,26.46c5.88,6.82,13.63,15.1,13.63,15.1,0,0-19.38-30.07-19.38-33.01s-.67-2.67-.67-2.67l-7.22-5.88Z"/>
  <path class="cls-6" d="M150.67,353.99s14.43,1.6,21.65,6.95c7.22,5.35,30.34,27.4,30.34,27.4,0,0-28.87-24.59-38.62-26.73-9.76-2.14-10.56-3.61-10.56-3.61l-2.81-4.01Z"/>
  <path class="cls-6" d="M523.45,290.79s-13.58,5.43-12.37,7.24,8.15,4.53,8.15,4.53l-27.16-4.53,31.38-7.24Z"/>
  <path class="cls-6" d="M487.39,372.1s15.25.59,19.72,1.35,7.5,1.18,7.5,1.18c0,0-6.49-3.46.25-5.31,6.74-1.85,11.29-3.96,11.29-3.96l-26.72,5.9-12.05.84Z"/>
  <g>
    <g>
      <path class="cls-4" d="M542.96,500.93h-132.49c-5.19-.98-15.34-4.31-8.74-10.6,4.75-4.53,13.65-6.09,19.75-7.54,11.2-2.69,22.73-4.38,34.19-5.55.89-.1,1.77-.19,2.66-.27-2.8.03-5.47.02-8-.02-48.52-.84-49.63-14.69-49.63-14.69,0-15.59,29.21-21.54,49.53-23.79.23-.03.44-.05.67-.07h.01c.22-.03.45-.05.67-.07,2.37-.25,4.59-.45,6.62-.61.44-.03.87-.07,1.29-.1.36-.02.7-.05,1.04-.07.43-.03.84-.06,1.23-.08.47-.03.9-.06,1.33-.08h.01c3.88-.23,6.27-.27,6.27-.27,0,0-2.34.04-6.16-.05-.41-.01-.84-.02-1.28-.04-2.71-.07-6.02-.22-9.69-.48-.21-.01-.42-.03-.63-.04-.21-.02-.42-.03-.63-.05-.51-.04-1.02-.08-1.54-.13-20.84-1.73-50.33-7.21-48.74-24.35,1.85-19.72,40.37-24.69,59.69-25.94h.02c4.43-.29,7.85-.38,9.57-.41.25-.01.47-.01.65-.01.15-.01.28-.01.37-.01h-.37c-.18,0-.39,0-.64,0-3.03-.04-11.37-.3-21.18-1.86-19.69-3.13-45.28-11.47-45.65-33.68-.41-24.27,30.35-33.08,50.65-36.25,9.96-1.56,17.4-1.76,17.4-1.76-15.36.17-27.91-1.23-37.97-3.82-.01,0-.01,0-.01,0-63.45-16.27-28.04-79.41,25.71-91.21,24.59-5.38,54.73-.04,74.67,11.26,6.85,3.88,12.49,8.47,16.29,13.56.11.15.22.29.32.43.11.15.21.3.31.45,4.78,6.86,6.22,14.59,2.84,22.75-.75,1.8-1.63,3.5-2.62,5.1-.07.12-.14.24-.22.35-.07.12-.14.23-.22.35-1.71,2.64-3.73,5.01-5.98,7.16h-.01c-.63.61-1.28,1.19-1.95,1.75-7.41,6.29-16.87,10.35-25.99,12.97-.48.15-.97.28-1.45.41-3.47.95-6.88,1.69-10.09,2.28-.24.04-.47.08-.7.12s-.46.08-.69.12c-5.11.87-9.65,1.34-13.04,1.59,3.12.27,7.25.73,11.89,1.49.2.03.4.06.61.09.2.04.41.07.61.1,2.14.37,4.37.8,6.66,1.3.64.14,1.28.29,1.93.44.4.09.8.19,1.2.29,4.79,1.17,9.72,2.69,14.4,4.62,1.46.61,2.89,1.25,4.28,1.95.37.18.74.36,1.1.55,5.61,2.91,10.56,6.57,14.03,11.18.31.39.59.79.86,1.19,2.85,4.21,4.51,9.16,4.41,14.99-.22,13.06-8.9,21.39-19.99,26.71h-.01c-.51.24-1.04.49-1.56.72h-.01c-6.51,2.91-13.72,4.84-20.49,6.11-.47.09-.94.18-1.4.26-9.47,1.69-17.88,2.13-21.98,2.24-.5.02-.94.02-1.31.03-.52.01-.89.01-1.11.01.22,0,.59.01,1.1.01.36.01.79.02,1.29.03,3.86.11,11.62.44,20.56,1.56.41.05.81.1,1.22.15t.02.01h0c5.48.72,11.36,1.73,17.02,3.17.36.09.71.18,1.07.28h.03s.06.02.09.03c4.98,1.31,9.75,2.96,13.89,5.03.37.18.73.37,1.09.56,3.06,1.63,5.74,3.49,7.86,5.64.15.16.31.32.46.49.16.17.31.34.46.51,2.32,2.67,3.8,5.75,4.13,9.3.75,8.14-5.32,13.69-14.13,17.47-.25.11-.51.22-.77.33-.26.1-.51.2-.77.31-3.46,1.35-7.27,2.47-11.22,3.37-.48.11-.94.22-1.42.32h0c-5.57,1.21-11.35,2.02-16.73,2.57-.45.05-.9.1-1.35.14-7.78.75-14.61.95-18.59,1-.47.01-.91.01-1.3.01-1.52,0-2.37,0-2.37,0,.78,0,1.57.03,2.35.05.43.02.85.03,1.28.05,5.29.2,10.59.62,15.86,1.24.6.08,1.2.15,1.8.24.42.04.83.09,1.24.16,1.53.19,3.05.41,4.56.65.02,0,.04,0,.06.01,1.26.19,2.52.4,3.77.62,1.63.29,3.85.73,6.41,1.33.39.09.79.18,1.2.28,2.78.67,5.89,1.51,9.03,2.5.19.06.39.12.58.18.2.07.39.13.58.19,15.57,5.1,31.19,14.01,11.93,25.72-7.92,4.82-16.37,7.76-25.1,9.51-.23.04-.47.09-.7.14-.23.04-.47.08-.7.13-3.48.64-7,1.1-10.55,1.43-.44.04-.88.07-1.33.11-6.27.51-12.63.6-18.98.51,5.4.08,10.81.29,16.2.63.77.04,1.53.09,2.29.15h.01s.06,0,.08,0c.4.02.79.05,1.18.09,3.23.22,6.46.5,9.68.82h.02c.21.02.42.04.63.06.21.02.42.04.63.06,13.02,1.22,29.13,2.33,39.57,10.69,2.24,1.8,4.34,4.08,4.82,6.93,1.32,8.23-10.24,11.18-21.61,12.23Z"/>
      <path class="cls-6" d="M542.99,501.43h-132.51c-2.41-.45-10.07-2.19-11.25-6.17-.49-1.67.23-3.45,2.17-5.29,4.29-4.09,11.73-5.78,17.71-7.14.79-.18,1.55-.35,2.27-.52,8.42-2.02,17.64-3.62,28.03-4.87-47.51-1-49.15-14.55-49.19-15.13,0-15.54,27.17-21.8,49.97-24.33.23-.03.44-.05.68-.07.18-.02.38-.04.58-.06,1.81-.19,3.6-.36,5.38-.51-1.51-.08-3.07-.17-4.62-.28l-1.27-.09c-.51-.04-1.02-.08-1.54-.13-16.47-1.37-37.82-5.03-45.92-14.68-2.52-3-3.62-6.44-3.27-10.21,1.83-19.54,37.88-24.9,59.62-26.36-3.27-.28-7.05-.7-11.09-1.34-20.81-3.31-45.7-11.92-46.07-34.17-.42-24.97,31.82-33.75,51.07-36.75,2.43-.38,4.71-.68,6.78-.92-10.3-.42-19.46-1.65-27.33-3.67h-.44v-.12c-22.17-5.79-34.22-17.98-33.93-34.36.42-24.24,27.91-50.67,60.02-57.72,23.76-5.2,53.91-.65,75.02,11.31,7.15,4.05,12.68,8.66,16.44,13.7l.33.44c.1.14.2.28.29.43,5.23,7.5,6.2,15.32,2.91,23.25-.74,1.79-1.64,3.53-2.66,5.17-.08.14-.16.26-.24.38-.05.09-.12.2-.21.33-1.65,2.54-3.69,4.98-6.05,7.24-.64.61-1.31,1.21-1.98,1.77-6.55,5.56-15.36,9.96-26.17,13.07-.44.14-.9.26-1.35.38l-.1.03c-3.14.86-6.55,1.63-10.13,2.29l-1.39.24c-2.61.45-5.32.83-8.01,1.12,2.04.24,4.36.56,6.86.97l.6.09c.2.04.37.06.54.09,2.35.4,4.6.84,6.77,1.32.49.11.98.22,1.47.33l.47.11c.4.09.8.19,1.21.29,5.22,1.28,10.09,2.84,14.47,4.64,1.63.68,3.04,1.32,4.31,1.97.37.18.74.36,1.11.55,6.18,3.2,10.96,7.01,14.2,11.32.31.39.6.8.87,1.21,3.08,4.55,4.59,9.69,4.5,15.28-.2,11.66-7.02,20.79-20.27,27.15l-.11.05c-.49.23-.98.46-1.47.68l-.11.04c-5.81,2.59-12.71,4.64-20.5,6.1-.47.09-.94.18-1.41.26-4.9.88-9.51,1.42-13.39,1.75,3.58.24,7.63.61,11.92,1.14l1.41.19c6.25.82,11.92,1.88,16.93,3.16.34.08.67.17,1.02.26l.22.06c5.35,1.41,10.06,3.11,13.95,5.05.37.18.73.37,1.1.57,3.26,1.74,5.94,3.66,7.98,5.73l.17.18c.1.11.21.22.31.33.14.15.28.31.42.47,2.54,2.92,3.97,6.14,4.29,9.63.69,7.52-4.16,13.57-14.43,17.98-.25.11-.51.22-.77.33-.27.1-.52.2-.77.31-3.36,1.31-7.16,2.45-11.3,3.4l-.4.09c-.34.08-.68.16-1.03.23h-.1c-4.88,1.08-10.53,1.95-16.69,2.58h-.11c-.42.06-.83.1-1.25.14-3.3.32-6.44.54-9.29.69,2.18.19,4.36.41,6.54.66l.61.08c.4.05.81.1,1.21.16.41.04.83.09,1.25.16,1.44.18,2.93.39,4.55.65h.07c1.26.2,2.52.41,3.77.63,1.4.25,3.65.68,6.44,1.34l.22.05c.32.07.65.15.99.23,3.11.75,6.16,1.6,9.06,2.51l.58.18c.18.06.34.11.5.16,9.31,3.05,20.47,8.06,21.25,14.79.45,3.91-2.62,7.9-9.12,11.85-7.43,4.52-15.7,7.66-25.26,9.57-.24.04-.47.09-.69.14l-.12.02c-.19.03-.39.07-.58.11-3.36.62-6.82,1.09-10.61,1.44l-1.33.11c-.76.06-1.53.12-2.31.17.57.03,1.14.07,1.71.12h.02s.18,0,.18,0c.38.02.78.05,1.18.09,3.04.21,6.21.47,9.68.82l3.19.3c12.42,1.15,27.87,2.57,37.92,10.62,2.94,2.36,4.58,4.73,5,7.24.35,2.16-.13,4.1-1.42,5.76-2.86,3.68-9.8,6.05-20.64,7.05h-.02ZM458.33,476.47l.05,1c-.89.08-1.76.17-2.65.27-12.95,1.32-24.11,3.13-34.13,5.54-.73.17-1.49.35-2.28.53-5.86,1.33-13.15,2.99-17.24,6.89-1.64,1.56-2.28,3-1.9,4.28.81,2.74,6.1,4.65,10.38,5.46h132.37c10.54-.98,17.24-3.23,19.92-6.68,1.13-1.45,1.53-3.08,1.22-4.98-.38-2.25-1.9-4.42-4.64-6.62-9.82-7.86-25.1-9.27-37.39-10.4l-3.18-.3c-3.48-.34-6.64-.61-9.69-.82-.39-.04-.77-.07-1.16-.09h-.07c-.8-.06-1.56-.11-2.33-.15-5.36-.34-10.8-.55-16.18-.63v-1c7.39.11,13.4-.06,18.95-.51l1.32-.11c3.76-.35,7.19-.81,10.5-1.42.19-.04.4-.08.61-.11.31-.07.56-.12.79-.16,9.44-1.89,17.59-4.98,24.93-9.44,6.14-3.74,9.05-7.4,8.65-10.89-.72-6.21-11.53-11-20.48-13.93-.25-.08-.41-.13-.59-.19l-.56-.17c-2.88-.91-5.9-1.75-9-2.49-.33-.08-.66-.16-.98-.23l-.22-.05c-2.77-.65-5-1.08-6.39-1.33-1.25-.22-2.5-.43-3.76-.62l-.1-.02c-1.64-.25-3.1-.46-4.51-.64-.42-.07-.82-.12-1.23-.16-.42-.06-.82-.11-1.21-.16l-.61-.08c-5.3-.62-10.62-1.04-15.81-1.24l-1.42-.05c-.73-.02-1.47-.04-2.2-.05v-1h.02c.06,0,.9,0,2.36,0,.38.05.83,0,1.29,0,4.32-.05,11.03-.27,18.55-1,.41-.04.82-.08,1.23-.13h.11c6.13-.64,11.74-1.5,16.68-2.57h.11c.25-.07.58-.15.92-.23l.4-.09c4.1-.93,7.85-2.06,11.15-3.35.25-.11.51-.21.77-.31.24-.1.5-.21.75-.32,9.83-4.22,14.48-9.93,13.83-16.97-.3-3.27-1.65-6.31-4.01-9.02-.17-.19-.3-.34-.45-.5-.1-.12-.2-.21-.29-.31l-.17-.18c-1.96-1.98-4.56-3.85-7.73-5.54-.35-.19-.71-.37-1.07-.55-3.83-1.91-8.47-3.59-13.8-5l-.13-.03c-.36-.1-.7-.19-1.06-.28-5.03-1.28-10.73-2.34-16.96-3.16l-.64-.08-.61-.08c-8.31-1.04-15.74-1.42-20.51-1.56l-1.29-.03c-.32,0-.56,0-.76,0h-.32v-1c.22,0,.58,0,1.1,0h.47c.25-.01.53-.02.83-.03,4.14-.11,12.48-.55,21.91-2.23.46-.08.93-.17,1.39-.26,7.76-1.46,14.62-3.5,20.38-6.08l.11-.04c.48-.21.97-.45,1.44-.67l.11-.05c12.82-6.18,19.42-15,19.61-26.22.09-5.38-1.36-10.33-4.32-14.7-.26-.39-.54-.78-.84-1.16-3.16-4.2-7.82-7.91-13.87-11.05-.36-.19-.72-.37-1.09-.54-1.26-.64-2.65-1.27-4.25-1.94-4.33-1.78-9.15-3.33-14.33-4.6-.4-.1-.8-.2-1.19-.29l-.47-.11c-.49-.11-.97-.22-1.46-.33-2.16-.47-4.39-.91-6.64-1.29-.25-.04-.44-.07-.62-.1l-.59-.09c-4.92-.8-9.16-1.25-11.86-1.49v-1c2.98-.22,7.64-.67,13-1.58l1.39-.24c3.54-.65,6.92-1.41,10.04-2.27l.11-.03c.44-.12.89-.24,1.33-.38,10.68-3.07,19.37-7.4,25.82-12.87.66-.56,1.31-1.13,1.93-1.72,2.32-2.21,4.3-4.59,5.91-7.08.08-.12.14-.22.21-.33.09-.13.15-.23.21-.33,1.01-1.63,1.88-3.32,2.6-5.06,3.15-7.6,2.21-15.1-2.79-22.27-.12-.18-.21-.31-.3-.44l-.32-.43c-3.67-4.92-9.1-9.44-16.13-13.42-20.92-11.85-50.78-16.35-74.32-11.21-31.69,6.96-58.82,32.95-59.24,56.77-.28,15.97,11.63,27.85,33.54,33.47l.38.1c10.37,2.62,22.97,3.86,37.47,3.71l.02,1c-.07,0-7.53.22-17.34,1.75-18.93,2.96-50.64,11.53-50.23,35.75.36,21.55,24.79,29.95,45.23,33.19,9.75,1.55,18.01,1.81,21.11,1.85.25,0,.46,0,.63,0h.37v1c-.09,0-.21,0-.34,0-.21,0-.42,0-.66.01-1.68.03-5.13.12-9.56.41-17.21,1.11-57.4,5.82-59.24,25.49-.32,3.49.7,6.68,3.04,9.47,7.88,9.4,28.95,12.98,45.24,14.33.52.05,1.03.09,1.54.13l1.25.09c3.35.24,6.7.4,9.68.48.43.02.84.03,1.23.04,3.81.09,6.17.05,6.19.05h0l.02,1h0c-.07,0-2.47.04-6.25.27-.36.02-.7.04-1.07.06l-.27.02c-.34.02-.69.04-1.06.07l-.65.04c-.19.01-.38.03-.57.04l-1.28.1c-2.21.17-4.43.38-6.6.61h-.1c-.18.03-.37.04-.55.07-.26.02-.46.04-.68.07-18.34,2.03-49.09,7.76-49.09,23.29.01.09,1.87,13.37,49.14,14.19,2.66.04,5.35.05,7.99.02Z"/>
    </g>
    <path class="cls-6" d="M406.13,272.2c-.28,0-.5-.22-.5-.5,0-23.63,27.04-36.9,27.31-37.03.25-.12.55-.01.67.23.12.25.02.55-.23.67-.27.13-26.74,13.13-26.74,36.13,0,.28-.22.5-.5.5Z"/>
    <path class="cls-6" d="M461.72,431.7h0c-26.76-.37-43.58-14.49-43.75-14.63-.21-.18-.23-.5-.05-.71.18-.21.5-.23.71-.05.16.14,16.73,14.03,43.11,14.39.28,0,.5.23.49.51,0,.27-.23.49-.5.49Z"/>
    <path class="cls-6" d="M542.79,328.49c-.21,0-.4-.13-.47-.34-3.55-10.24-15.47-14.33-15.59-14.38-.26-.09-.4-.37-.32-.63.09-.26.37-.4.63-.32.51.17,12.51,4.28,16.22,15,.09.26-.05.54-.31.64-.05.02-.11.03-.16.03Z"/>
  </g>
  <path class="cls-6" d="M512.84,422.67s-7.84,1.7-6.52,2.55c1.32.85,4.72,1.13,4.72,1.13l-19.84-1.89,21.64-1.8Z"/>
  <path class="cls-6" d="M362.21,364.98s9.13-15.61,12.43-14.81,10.05,7.54,10.05,7.54l-10.23-12.82-12.26,20.09Z"/>
  <polygon class="cls-6" points="409.69 321.07 414.59 312.34 407.93 309.61 409.69 321.07"/>
  <path class="cls-6" d="M324.52,304.94s7.01,11.37,5.82,11.37l4.89,2.78-10.71-14.15Z"/>
  <path class="cls-6" d="M358.25,297.66s3.7.26,4.1-2.12c.4-2.38.4-3.44.4-3.44l2.36,8.45-6.85-2.9Z"/>
  <path class="cls-6" d="M382.98,271.61s0,1.06,2.38.53c2.38-.53,2.78-3.57,2.78-3.57l-.61,6.94-4.55-3.89Z"/>
  <path class="cls-6" d="M315.84,74.58s16.77-4.09,18.62-3.9c1.85.19,1.75,3.41,1.75,3.41l1.65-6.25-22.02,6.74Z"/>
  <path class="cls-6" d="M344.69,93.59s3.8-2.53,4.48-1.46c.68,1.07,1.36,7.31,1.36,7.31l1.75-11.02-7.6,5.17Z"/>
  <path class="cls-6" d="M373.77,128.11s-3.09,2.43-2.23,4.01c.85,1.58,5.98,1.97,5.98,1.97l-9.52.39,5.78-6.37Z"/>
  <path class="cls-6" d="M446.61,164.4s.83,3.81,3.69,3.16,3.99-3.22,3.99-3.22l.06,2.38-2.92,3.58-4.83-5.9Z"/>
  <path class="cls-6" d="M387.25,105.78s2.3-12.05,7.05-14.51c4.75-2.46,47.96-10.33,47.96-10.33l1.15-1.64-50.25,9.43-8.36,14.26,2.46,2.79Z"/>
  <path class="cls-6" d="M372.25,26.65s-.28,5.26,2.21,5.53,4.01-.69,4.01-.69l-5.67,3.04-.55-7.89Z"/>
  <path class="cls-6" d="M410.43,37.58s5.95-7.89,8.99-8.3c3.04-.42,4.01-.42,4.01-.42l-8.85,2.21-4.15,6.5Z"/>
  <path class="cls-6" d="M401.03,52.52s-1.8,2.63-.28,4.15c1.52,1.52,4.43,2.49,4.43,2.49l-7.42-1.46,3.27-5.18Z"/>
  <path class="cls-6" d="M468.88,204.79s.3,7.52-1.73,9.02c-2.03,1.5-11.2,3.83-11.2,3.83l15.64-2.48-2.71-10.37Z"/>
  <path class="cls-6" d="M485.24,121.46s2.45,5.18,1.08,5.77,3.33-.1,3.33-.1l-4.4-5.67Z"/>
</svg>