<svg width="600" height="515" viewBox="0 0 600 515" fill="none" xmlns="http://www.w3.org/2000/svg">
<g clip-path="url(#clip0_10094_8625)">
<path d="M552.079 32.5356L457.82 512.495H435.358L527.889 59.4236C528.453 56.6504 526.339 54.056 523.511 54.056L261.631 54.0274H152.195C149.574 54.0202 147.517 56.2716 147.746 58.8875L161.101 207.665L162.344 221.495L167.658 280.681L172.457 334.2L180.384 422.526L182.598 447.205L188.462 512.495H167.543L160.93 438.3L151.66 334.286L148.217 295.626L140.89 213.404L140.775 212.146L130.22 93.7161L124.72 31.9995C124.449 28.9691 126.834 26.3604 129.877 26.3604H547.001C550.257 26.3604 552.707 29.3408 552.079 32.5356Z" fill="#EEF0F2" stroke="#333366" stroke-width="3" stroke-linecap="round" stroke-linejoin="round"/>
<path d="M281.45 281.732C292.143 281.732 300.811 268.817 300.811 252.885C300.811 236.954 292.143 224.039 281.45 224.039C270.756 224.039 262.088 236.954 262.088 252.885C262.088 268.817 270.756 281.732 281.45 281.732Z" fill="#333366" stroke="#333366" stroke-miterlimit="10"/>
<path d="M435.358 512.495L247.861 480.325L248.383 464.201L261.631 54.0273" stroke="#333366" stroke-width="3" stroke-linecap="round" stroke-linejoin="round"/>
<path d="M435.357 512.495H188.461L182.533 447.19L248.382 464.201L247.86 480.325L435.357 512.495Z" fill="#333366" stroke="#333366" stroke-miterlimit="10"/>
<path d="M277.928 281.732C288.621 281.732 297.29 268.817 297.29 252.885C297.29 236.954 288.621 224.039 277.928 224.039C267.235 224.039 258.566 236.954 258.566 252.885C258.566 268.817 267.235 281.732 277.928 281.732Z" fill="#F945B0" stroke="#333366" stroke-miterlimit="10"/>
<path d="M275.728 289.665L273.086 335.022" stroke="#333366" stroke-width="5" stroke-linecap="round" stroke-linejoin="round"/>
<path d="M272.857 231.115C268.957 233.745 266.265 237.812 265.043 242.329C263.622 247.582 264.236 253.193 265.958 258.296C266.393 259.597 268.464 259.039 268.022 257.724C266.45 253.064 265.808 247.99 267.036 243.165C268.079 239.098 270.428 235.332 273.935 232.959C275.071 232.194 273.999 230.336 272.857 231.108V231.115Z" fill="#333366"/>
<path d="M277.921 71.5886C300.768 71.8316 323.615 72.0817 346.469 72.3248C369.323 72.5678 392.163 72.8179 415.017 73.0609C427.872 73.1967 440.721 73.3397 453.576 73.4755C454.954 73.4898 454.954 71.3456 453.576 71.3313C430.729 71.0883 407.882 70.8381 385.028 70.5951C362.174 70.3521 339.334 70.102 316.48 69.8589C303.624 69.7232 290.776 69.5802 277.921 69.4444C276.542 69.4301 276.542 71.5743 277.921 71.5886Z" fill="#333366"/>
<path d="M469.932 74.7185C476.409 74.4183 482.894 74.84 489.272 76.0193C490.622 76.2695 491.2 74.2039 489.843 73.9538C483.28 72.7459 476.602 72.2742 469.932 72.5815C468.56 72.6458 468.553 74.79 469.932 74.7257V74.7185Z" fill="#333366"/>
<path d="M276.821 288.88C278.278 288.915 279.735 288.951 281.192 288.987L280.156 287.629C277.592 299.908 275.942 312.373 275.264 324.895C275.071 328.497 274.957 332.099 274.914 335.708L276.271 334.672C275.457 334.358 274.635 334.036 273.821 333.721C272.535 333.221 271.978 335.294 273.25 335.787C274.064 336.102 274.885 336.423 275.699 336.738C276.364 336.995 277.049 336.345 277.056 335.701C277.192 323.294 278.249 310.9 280.263 298.65C280.842 295.148 281.491 291.66 282.22 288.186C282.363 287.5 281.913 286.85 281.184 286.828C279.727 286.793 278.27 286.757 276.813 286.721C275.435 286.685 275.435 288.83 276.813 288.865L276.821 288.88Z" fill="#333366"/>
<path d="M128.412 32.6219C134.619 52.9415 139.197 67.0073 143.196 91.794C147.653 119.432 150.674 152.589 151.109 180.577C151.252 189.89 150.695 199.503 146.303 207.808C145.481 209.366 144.253 210.703 142.717 211.553C134.026 216.385 128.891 199.582 128.398 194.107C127.712 186.488 126.084 175.688 127.869 168.298C137.318 188.268 141.146 213.383 144.796 235.075C148.774 258.718 150.824 282.69 150.902 306.662C150.924 312.437 148.231 320.556 142.003 317.947C139.911 317.068 138.29 315.339 137.361 313.273C126.527 289.18 121.156 267.166 116.714 241.565C120.299 257.203 123.356 272.97 125.884 288.815C126.155 290.531 126.312 292.439 126.241 294.29C126.02 299.886 119.363 302.824 115.064 299.243C111.307 296.113 107.922 292.525 105.03 288.579C111.279 301.123 121.256 311.329 129.726 322.486C150.459 349.796 162.358 383.709 163.236 417.995L167.393 501.167C167.714 507.664 162.543 513.11 156.037 513.11H106.579C84.3751 511.645 62.6208 504.284 43.9876 492.148C30.7893 483.549 12.4703 462.394 22.1047 445.354C23.6902 442.553 25.9614 440.208 28.5824 438.35C56.6073 418.552 93.7668 412.513 126.655 422.154C103.901 410.454 81.7041 397.668 60.1783 383.838C47.6442 375.79 34.7888 366.778 28.2682 353.369C26.5827 349.91 25.3543 345.993 26.2113 342.241C27.6183 336.066 34.0103 332.506 39.9238 330.248C52.7007 325.381 66.7417 322.951 80.1257 325.717C93.5097 328.483 106.108 336.995 111.65 349.503C102.866 333.207 94.081 316.918 85.3036 300.622C70.8269 273.763 56.0931 246.153 52.0437 215.906C51.1366 209.145 50.851 201.955 53.8648 195.844C56.8859 189.733 64.1921 185.273 70.6127 187.567C73.7765 188.696 76.2262 191.212 78.4831 193.707C87.4462 203.606 95.3594 214.455 102.051 226.005C94.6095 206.257 87.1605 186.502 79.7186 166.754C75.6834 156.055 71.6197 145.198 70.5698 133.82C70.5627 133.705 70.5484 133.591 70.5412 133.477C69.3914 120.154 87.4105 114.851 93.7882 126.608C104.28 145.949 113.543 165.947 121.513 186.459C104.78 143.083 87.9961 99.5702 76.6761 54.471C73.8337 43.1498 71.0626 30.3419 73.8694 18.749C77.2118 4.94053 93.9382 -1.89939 106.736 4.79759C109.158 6.06265 111.236 7.8995 112.979 10.0079C127.527 27.6045 135.476 48.0313 138.761 70.3165" fill="#66CCCC"/>
<path d="M127.383 32.9075C131.618 46.7803 135.918 60.6317 138.953 74.8333C142.524 91.515 144.774 108.497 146.552 125.457C148.331 142.418 149.53 159.321 149.945 176.303C150.145 184.587 150.309 193.063 147.888 201.082C146.774 204.785 145.074 210.074 140.839 211.182C138.496 211.796 136.532 210.388 135.089 208.659C131.854 204.778 130.019 199.081 129.462 194.107C128.526 185.837 127.048 176.818 128.89 168.584L126.933 168.841C133.275 182.385 136.803 197.073 139.625 211.696C142.631 227.291 145.267 243.03 147.052 258.818C148.002 267.259 148.709 275.721 149.173 284.198C149.409 288.522 149.58 292.846 149.688 297.177C149.78 300.88 150.066 304.703 149.752 308.399C149.53 311 148.838 314.231 146.931 316.16C144.124 318.991 140.182 316.196 138.61 313.409C136.646 309.928 135.304 305.94 133.847 302.223C132.411 298.585 131.069 294.912 129.819 291.202C124.312 274.942 120.684 258.16 117.742 241.271L115.678 241.843C118.877 255.859 121.677 269.961 124.041 284.141C124.841 288.937 127.562 298.514 120.277 299.665C117.027 300.179 114.735 297.656 112.592 295.605C110.164 293.275 107.95 290.738 105.943 288.036C105.129 286.95 103.458 287.864 104.093 289.115C109.571 299.936 117.627 309.02 125.169 318.405C132.99 328.146 139.796 338.61 145.31 349.831C155.801 371.201 161.179 394.309 162.15 418.037C163.043 439.737 164.314 461.421 165.4 483.113C165.635 487.845 165.871 492.576 166.107 497.308C166.3 501.224 166.685 505.034 163.928 508.336C160.45 512.503 155.487 512.038 150.68 512.038H132.047C120.941 512.038 109.636 512.703 98.5942 511.259C85.853 509.594 73.3332 505.977 61.649 500.645C51.7003 496.107 41.9873 490.561 34.2598 482.727C27.3821 475.752 20.7044 466.382 20.4687 456.204C20.3402 450.758 22.3827 445.54 26.2465 441.688C30.3246 437.621 35.9595 434.655 41.0089 431.975C61.6705 421.025 85.7602 416.722 108.95 419.588C114.842 420.317 120.656 421.547 126.355 423.198C127.498 423.527 128.276 421.804 127.183 421.239C112.642 413.756 98.3228 405.837 84.2604 397.482C71.1049 389.663 57.4139 381.908 45.5154 372.238C40.1661 367.892 35.2096 362.946 31.5315 357.078C27.4535 350.574 24.4539 342.377 31.0459 336.444C36.2095 331.799 43.8728 329.712 50.4362 328.032C58.2995 326.017 66.5055 325.109 74.6045 325.952C89.6668 327.532 104.272 335.944 110.714 350.053L112.564 348.973C104.658 334.307 96.7516 319.648 88.8526 304.982C81.5821 291.488 74.1974 278.023 67.8911 264.043C61.6847 250.284 56.5426 235.947 53.9072 221.045C52.6574 213.983 51.4646 206.271 53.6429 199.274C55.5998 192.985 61.8561 186.752 68.9766 188.232C72.9261 189.046 75.7543 192.291 78.3183 195.15C81.1536 198.309 83.8818 201.576 86.5029 204.921C91.8665 211.782 96.7301 219.029 101.115 226.562C101.708 227.577 103.515 226.906 103.072 225.733C97.8729 211.939 92.6735 198.145 87.4742 184.351C82.5677 171.328 76.8613 158.313 73.5332 144.762C72.2691 139.623 70.1693 132.812 72.5047 127.687C74.0545 124.285 77.3827 121.969 81.0251 121.348C84.8888 120.683 88.8597 122.012 91.4094 125.021C93.3877 127.359 94.6376 130.46 96.0517 133.148C97.7086 136.3 99.3298 139.466 100.922 142.646C108.114 157.034 114.628 171.757 120.47 186.745C120.963 188.017 123.034 187.467 122.534 186.173C107.736 147.814 92.9021 109.369 81.825 69.7302C79.1467 60.1386 76.3685 50.4469 74.7616 40.6123C73.3404 31.8926 72.4119 20.9859 77.3755 13.1668C81.1393 7.23456 87.9742 3.63235 94.9232 3.29643C98.5799 3.11775 102.287 3.81103 105.586 5.41916C109.978 7.55619 112.907 11.4514 115.749 15.2824C127.783 31.5352 134.725 50.6827 137.711 70.5879C137.918 71.9458 139.982 71.3669 139.775 70.0161C136.975 51.376 130.733 33.2935 120.063 17.6624C115.292 10.6724 110.193 3.70382 101.508 1.73118C94.9161 0.237401 87.7313 1.5525 82.1249 5.34054C66.5198 15.8756 71.612 38.5824 75.4115 53.8704C80.6965 75.1407 87.2457 96.075 94.4162 116.781C102.558 140.295 111.514 163.524 120.47 186.738L122.534 186.166C116.92 171.757 110.7 157.591 103.851 143.726C102.201 140.388 100.515 137.072 98.8013 133.77C97.0872 130.468 95.6517 127.001 93.4377 124.135C91.1166 121.126 87.6456 119.282 83.8533 119.046C75.94 118.553 69.1052 124.893 69.4123 132.876C69.6837 139.873 71.6906 146.935 73.8331 153.553C76.2328 160.965 79.1182 168.212 81.8607 175.495C88.2384 192.427 94.6233 209.352 101.001 226.284L102.958 225.455C98.8299 218.372 94.2805 211.546 89.2954 205.035C86.9314 201.954 84.4818 198.938 81.9392 196.001C79.5395 193.235 77.1327 190.247 74.0831 188.167C69.0338 184.715 62.8417 185.501 58.0995 189.104C52.7859 193.142 50.6648 199.567 50.3791 206.043C50.0291 213.755 51.6503 221.702 53.4001 229.171C55.2713 237.155 57.8067 244.967 60.7777 252.607C66.6412 267.688 74.1188 282.068 81.7607 296.305C91.3809 314.231 101.065 332.12 110.714 350.031C111.378 351.268 113.128 350.181 112.564 348.952C106.915 336.573 94.8947 328.111 81.8535 324.994C73.9331 323.1 65.6699 323.1 57.6496 324.337C49.6292 325.573 41.7588 327.696 34.7668 331.355C29.239 334.25 24.4182 339.025 24.8824 345.729C25.3681 352.804 30.1389 359.601 34.6311 364.79C44.9798 376.733 59.4922 384.853 72.7904 393.029C90.1739 403.721 107.964 413.735 126.105 423.069L126.933 421.111C103.801 414.421 78.7397 415.207 56.0069 423.119C50.4862 425.042 45.1083 427.372 39.9447 430.109C34.7811 432.847 29.5175 435.713 25.3252 439.601C17.8048 446.576 16.8835 457.033 20.4901 466.217C28.5962 486.837 50.1862 499.037 69.8765 506.328C81.4393 510.609 94.1876 513.811 106.579 514.175C110.257 514.282 113.956 514.175 117.642 514.175C130.019 514.175 142.396 514.175 154.773 514.175C161.4 514.175 167.442 510.359 168.356 503.347C168.706 500.681 168.285 497.801 168.157 495.135C166.928 470.484 165.693 445.833 164.464 421.175C164.193 415.793 164.021 410.411 163.45 405.044C162.129 392.629 159.422 380.364 155.38 368.55C151.337 356.743 145.995 345.371 139.439 334.758C132.783 323.98 124.512 314.552 116.756 304.589C112.692 299.372 108.943 293.932 105.95 288.022L104.101 289.101C106.393 292.181 108.907 295.076 111.714 297.699C113.649 299.507 115.578 301.409 118.306 301.78C123.519 302.502 127.283 298.271 127.326 293.339C127.362 289.408 126.426 285.434 125.776 281.582C124.998 276.965 124.169 272.362 123.298 267.759C121.613 258.889 119.763 250.055 117.749 241.257C117.435 239.892 115.449 240.485 115.685 241.829C118.556 258.275 122.07 274.628 127.34 290.495C129.954 298.357 132.79 306.347 136.439 313.795C138.61 318.226 144.588 321.85 148.63 317.461C152.673 313.073 152.016 305.697 151.916 300.151C151.744 290.831 151.28 281.511 150.516 272.219C149.08 254.723 146.388 237.412 143.36 220.137C140.232 202.29 136.525 184.244 128.805 167.741C128.412 166.904 127.04 167.133 126.848 167.998C125.091 175.831 126.341 184.058 127.133 191.934C127.64 196.951 128.74 201.761 131.069 206.279C132.99 210.009 136.446 214.426 141.21 213.283C148.466 211.546 150.545 201.004 151.452 194.836C152.709 186.266 152.201 177.468 151.873 168.841C151.516 159.428 150.923 150.03 150.145 140.645C148.623 122.291 146.488 103.944 143.288 85.8044C140.074 67.586 134.861 49.9752 129.462 32.3071C129.062 30.992 126.99 31.5495 127.398 32.8789L127.383 32.9075Z" fill="#333366"/>
<path d="M477.981 32.1785C471.775 52.4981 467.197 66.5639 463.197 91.3506C458.741 118.989 455.72 152.145 455.284 180.134C455.141 189.447 455.698 199.06 460.091 207.365C460.912 208.923 462.14 210.26 463.676 211.11C472.368 215.942 477.503 199.138 477.995 193.664C478.681 186.045 480.309 175.245 478.524 167.855C469.075 187.824 465.247 212.94 461.598 234.632C457.62 258.275 455.57 282.247 455.491 306.219C455.47 311.994 458.162 320.113 464.39 317.504C466.483 316.625 468.104 314.895 469.032 312.83C479.867 288.736 485.237 266.723 489.68 241.121C486.094 256.76 483.038 272.526 480.509 288.372C480.238 290.087 480.081 291.996 480.152 293.847C480.374 299.443 487.03 302.381 491.329 298.8C495.086 295.669 498.471 292.081 501.364 288.136C495.115 300.679 485.137 310.886 476.667 322.043C455.934 349.352 444.036 383.266 443.157 417.551L439.001 500.724C438.679 507.221 443.85 512.667 450.356 512.667H499.814C522.018 511.202 543.773 503.84 562.406 491.704C575.604 483.106 593.923 461.95 584.289 444.911C582.703 442.109 580.432 439.765 577.811 437.907C549.786 418.109 512.627 412.069 479.738 421.711C502.492 410.011 524.689 397.225 546.215 383.395C558.749 375.347 571.605 366.334 578.125 352.926C579.811 349.467 581.039 345.55 580.182 341.798C578.775 335.622 572.383 332.063 566.47 329.805C553.693 324.937 539.652 322.507 526.268 325.273C512.884 328.039 500.285 336.552 494.743 349.059C503.528 332.763 512.312 316.475 521.09 300.179C535.566 273.32 550.3 245.71 554.35 215.463C555.257 208.701 555.542 201.511 552.529 195.4C549.508 189.289 542.201 184.83 535.781 187.124C532.617 188.253 530.167 190.769 527.91 193.263C518.947 203.162 511.034 214.012 504.342 225.562C511.784 205.814 519.233 186.059 526.675 166.311C530.71 155.612 534.774 144.755 535.824 133.376C535.831 133.262 535.845 133.148 535.852 133.033C537.002 119.711 518.983 114.408 512.605 126.165C502.114 145.505 492.851 165.503 484.88 186.016C501.614 142.639 518.397 99.1268 529.717 54.0277C532.56 42.7064 535.331 29.8985 532.524 18.3057C529.182 4.49717 512.455 -2.34275 499.657 4.35423C497.236 5.61929 495.157 7.45614 493.415 9.56458C478.867 27.1611 470.918 47.588 467.633 69.8731" fill="#66CCCC"/>
<path d="M476.945 31.8995C472.253 47.2589 467.568 62.5898 464.44 78.3566C460.84 96.4821 458.583 114.915 456.876 133.305C456.012 142.618 455.327 151.945 454.855 161.279C454.398 170.292 453.827 179.447 454.355 188.467C454.605 192.763 455.191 197.073 456.434 201.204C457.483 204.684 458.876 208.737 461.783 211.11C465.797 214.383 470.303 212.968 473.267 209.159C476.524 204.963 478.416 199.21 479.038 193.971C480.052 185.401 481.473 176.103 479.559 167.576C479.366 166.718 477.995 166.482 477.602 167.319C470.803 181.842 467.139 197.58 464.204 213.275C461.012 230.35 458.205 247.539 456.512 264.836C455.605 274.113 454.991 283.426 454.67 292.746C454.512 297.32 454.327 301.93 454.42 306.511C454.477 309.12 454.912 311.779 455.976 314.18C458.062 318.905 462.704 320.556 466.968 317.211C469.803 314.988 470.932 311.257 472.282 308.055C473.903 304.21 475.431 300.329 476.859 296.412C483.337 278.587 487.465 260.069 490.722 241.414C490.958 240.078 488.965 239.477 488.658 240.842C486.651 249.641 484.794 258.475 483.109 267.344C482.266 271.776 481.466 276.221 480.709 280.667C480.023 284.684 479.038 288.829 479.073 292.917C479.116 297.849 482.88 302.08 488.094 301.358C490.822 300.979 492.75 299.085 494.686 297.277C497.492 294.654 500.006 291.759 502.299 288.679L500.449 287.6C494.45 299.45 485.351 309.156 477.259 319.555C469.496 329.533 462.868 340.354 457.562 351.832C447.928 372.674 443.035 394.923 442.093 417.816C441.128 441.066 439.771 464.301 438.607 487.544L438.015 499.459C437.736 505.105 440.05 510.43 445.528 512.753C449.27 514.339 454.034 513.746 458.012 513.746H496.843C504.156 513.746 511.462 512.653 518.604 511.116C531.16 508.407 543.322 503.854 554.571 497.665C563.891 492.54 572.261 486.336 578.832 477.881C584.531 470.541 589.316 461.157 587.773 451.586C585.931 440.144 575.125 434.19 565.734 429.301C544.651 418.337 520.182 414.056 496.628 417.108C490.822 417.858 485.094 419.059 479.466 420.689L480.295 422.647C496.421 414.342 512.269 405.515 527.803 396.145C535.345 391.592 542.837 386.954 550.193 382.108C556.406 378.013 562.527 373.653 567.883 368.457C576.654 359.937 588.681 343.37 575.511 333.364C569.769 329.004 562.07 326.817 555.164 325.173C546.929 323.215 538.366 322.457 529.945 323.579C514.854 325.595 500.292 334.35 493.829 348.523C493.264 349.752 495.014 350.839 495.678 349.602C504.299 333.607 512.926 317.611 521.546 301.608C529.231 287.35 536.923 273.055 543.208 258.11C549.407 243.365 554.514 227.649 555.856 211.624C556.428 204.835 555.885 197.287 551.457 191.762C548.043 187.502 542.387 184.508 536.844 185.708C532.988 186.545 530.031 189.375 527.453 192.191C524.389 195.536 521.461 199.024 518.661 202.59C513.069 209.709 507.991 217.199 503.435 225.018L505.391 225.847C511.119 210.645 516.854 195.436 522.582 180.234C527.967 165.946 534.559 151.459 536.587 136.207C537.173 131.775 537.18 127.515 534.302 123.827C532.038 120.926 528.588 119.096 524.946 118.681C521.304 118.267 517.411 119.382 514.59 121.912C512.898 123.427 511.833 125.357 510.769 127.337C508.777 131.039 506.834 134.77 504.927 138.522C497.128 153.903 490.115 169.67 483.851 185.737L485.915 186.309C501.828 145.076 517.776 103.722 529.053 60.9316C531.695 50.8969 534.488 40.6477 534.752 30.2056C534.952 22.1721 533.695 13.724 527.796 7.82037C523.125 3.13892 516.476 0.573053 509.884 0.694556C506.47 0.758882 503.099 1.53793 500.014 2.98883C495.95 4.90429 493.129 8.12056 490.422 11.6084C477.345 28.4616 469.76 48.5883 466.604 69.587C466.404 70.9378 468.468 71.5167 468.668 70.1587C471.317 52.5336 477.009 35.4374 486.758 20.4281C491.572 13.0236 496.835 5.04724 506.07 3.23898C512.948 1.88815 520.454 3.93941 525.617 8.69948C532.095 14.6674 532.995 23.7159 532.538 32.071C531.988 42.1558 529.203 52.0619 526.617 61.775C521.311 81.723 514.983 101.385 508.141 120.847C500.478 142.639 492.165 164.188 483.851 185.737C483.351 187.024 485.423 187.581 485.915 186.309C491.172 172.829 496.964 159.564 503.313 146.563C506.363 140.309 509.541 134.12 512.84 128.001C514.947 124.099 517.868 121.097 522.525 120.768C526.246 120.511 530.102 122.062 532.466 124.978C535.802 129.088 534.816 134.413 533.938 139.223C531.424 153.024 525.596 166.154 520.668 179.212C514.876 194.571 509.091 209.938 503.299 225.297C502.863 226.455 504.656 227.148 505.256 226.126C509.077 219.565 513.255 213.225 517.818 207.157C520.132 204.077 522.553 201.075 525.053 198.145C527.553 195.214 529.853 192.284 532.809 190.033C538.844 185.444 546.522 188.217 550.521 194.121C554.814 200.453 554.192 208.901 553.185 216.106C548.957 246.146 534.352 273.32 520.154 299.664C511.369 315.96 502.585 332.249 493.807 348.544L495.657 349.624C501.149 337.588 512.755 329.497 525.446 326.574C533.323 324.758 541.587 324.858 549.529 326.224C556.842 327.489 564.619 329.54 571.154 333.142C573.925 334.672 576.604 336.666 578.146 339.496C580.246 343.355 579.282 347.808 577.568 351.611C574.661 358.057 570.033 363.604 564.862 368.349C553.828 378.484 540.28 386.089 527.517 393.808C511.719 403.364 495.593 412.362 479.181 420.817C478.095 421.375 478.845 423.112 480.009 422.776C502.67 416.222 527.117 416.979 549.407 424.648C555.021 426.578 560.477 428.951 565.712 431.746C570.947 434.54 576.382 437.421 580.396 441.552C588.302 449.7 586.509 461.278 581.331 470.341C576.154 479.404 568.819 486.415 560.356 491.761C549.65 498.53 537.966 503.726 525.774 507.142C517.111 509.572 507.748 511.616 498.714 511.616H484.216C473.067 511.616 461.919 511.716 450.77 511.616C444.278 511.559 439.821 506.577 440.093 500.173C440.229 496.943 440.414 493.712 440.579 490.482C441.757 466.917 442.935 443.353 444.107 419.788C444.399 413.863 444.642 407.952 445.364 402.056C446.856 389.856 449.763 377.82 453.92 366.262C458.076 354.691 463.54 343.591 470.16 333.235C476.781 322.879 484.937 313.816 492.365 304.096C496.078 299.235 499.499 294.168 502.27 288.7C502.906 287.443 501.235 286.528 500.421 287.621C498.407 290.323 496.2 292.853 493.772 295.19C491.736 297.148 489.572 299.55 486.508 299.286C478.788 298.635 481.516 288.586 482.33 283.733C484.694 269.553 487.494 255.444 490.693 241.436L488.629 240.864C486.015 255.859 482.88 270.775 478.338 285.313C476.01 292.753 473.339 300.079 470.303 307.255C468.803 310.793 467.439 315.717 463.211 316.803C460.197 317.575 458.433 314.909 457.548 312.422C456.484 309.449 456.534 306.368 456.569 303.259C456.612 299.1 456.712 294.933 456.876 290.773C457.205 282.289 457.776 273.813 458.598 265.357C460.169 249.09 462.804 232.959 465.711 216.885C468.696 200.382 472.296 183.693 479.445 168.426L477.488 168.169C479.138 175.538 477.959 183.378 477.202 190.79C476.695 195.779 475.731 200.553 473.36 205.035C472.296 207.057 470.889 209.323 468.782 210.388C465.797 211.903 462.747 209.745 461.204 207.172C456.776 199.796 456.305 190.276 456.341 181.906C456.412 165.081 457.591 148.221 459.19 131.475C460.833 114.314 462.968 97.1468 466.254 80.2221C469.539 63.2974 474.196 48.2596 479.009 32.4856C479.416 31.1633 477.345 30.5987 476.945 31.9138V31.8995Z" fill="#333366"/>
<path d="M80.5176 276.328C81.1746 279.201 82.5959 281.846 84.1171 284.376C87.281 289.636 90.9448 294.596 95.0442 299.164" fill="#66CCCC"/>
<path d="M79.4818 276.614C80.5531 281.081 83.1742 285.098 85.7024 288.872C88.2307 292.645 91.1731 296.441 94.287 299.921C95.2083 300.95 96.7224 299.428 95.8011 298.406C92.8086 295.061 90.0447 291.523 87.5522 287.792C85.0596 284.061 82.5814 280.338 81.553 276.049C81.2316 274.706 79.1676 275.278 79.4889 276.621L79.4818 276.614Z" fill="#333366"/>
<path d="M65.9202 168.377C55.3144 150.03 46.8584 130.461 40.7949 110.148C40.045 107.639 39.3308 105.116 38.6594 102.586C38.1452 100.657 37.3096 97.8477 39.1951 96.3682C40.4663 95.3747 42.3161 95.4105 43.7731 95.8965C45.6585 96.5254 46.8941 98.1836 47.7297 99.9132C48.7153 101.95 49.1581 104.216 49.658 106.403C50.3151 109.305 50.965 112.206 51.622 115.108C52.879 120.683 54.136 126.258 55.393 131.826C58.2497 144.484 61.1065 157.141 63.9561 169.799C64.2561 171.143 66.3272 170.578 66.0201 169.227C63.3491 157.384 60.678 145.541 58.0069 133.698C56.6714 127.773 55.3358 121.855 54.0003 115.93C53.3289 112.971 52.6647 110.005 51.9934 107.046C51.4435 104.616 50.9721 102.136 50.0222 99.8275C49.1866 97.8048 47.9511 95.8178 46.0585 94.6242C44.4587 93.6093 42.4661 93.2377 40.602 93.5307C38.738 93.8238 37.1668 94.8815 36.4097 96.5683C35.317 98.9841 36.1883 101.686 36.8454 104.102C39.7593 114.844 43.3303 125.407 47.5368 135.714C51.7363 146.006 56.55 156.048 61.9635 165.754C62.6563 166.99 63.3562 168.227 64.0704 169.456C64.7846 170.685 66.6129 169.57 65.9202 168.377Z" fill="#333366"/>
<path d="M72.0055 304.611C61.9354 300.494 50.9368 298.75 40.0882 299.379C29.2397 300.008 18.4982 302.845 9.12086 308.156C5.17138 310.386 0.914794 313.745 0.129183 318.505C-0.592152 322.886 1.87895 326.746 5.5499 328.954C9.62794 331.399 14.3845 331.599 18.8482 330.184C24.1403 328.504 28.6326 325.102 33.2748 322.164C43.0593 315.975 53.8079 311.358 65.0278 308.506C66.4134 308.156 67.806 307.827 69.2058 307.534C70.6057 307.241 69.9843 305.175 68.6345 305.468C57.9216 307.763 47.5444 311.629 37.9457 316.918C33.2534 319.498 28.9326 322.658 24.3046 325.338C20.2266 327.696 15.42 329.755 10.6278 328.683C7.00685 327.875 3.19307 325.481 2.29318 321.643C1.2219 317.076 5.00712 313.323 8.47809 311.05C12.6561 308.32 17.4483 306.376 22.1763 304.861C26.9042 303.346 32.1393 302.238 37.2529 301.745C47.5444 300.751 58.0216 301.916 67.7989 305.304C69.0273 305.726 70.2343 306.19 71.4413 306.683C72.7197 307.205 73.2696 305.132 72.0126 304.618L72.0055 304.611Z" fill="#333366"/>
<path d="M543.358 299.75C549.228 288.408 555.792 277.422 563.019 266.887C570.247 256.345 578.132 246.232 586.638 236.69C588.28 234.846 590.459 232.402 593.201 232.702C595.515 232.952 597.129 235.196 597.658 237.298C598.365 240.099 597.129 243.016 595.701 245.374C594.273 247.733 592.451 249.998 590.63 252.143C583.453 260.598 574.804 267.609 566.355 274.728C557.906 281.847 549.678 289.065 543.151 297.928C542.329 299.043 541.544 300.186 540.78 301.344C540.022 302.502 541.879 303.581 542.629 302.424C548.9 292.811 557.47 285.056 566.155 277.68C574.896 270.254 583.967 263.078 591.509 254.387C593.415 252.185 595.28 249.898 596.894 247.468C598.508 245.038 599.979 242.022 599.986 238.913C600.008 233.696 595.122 228.814 589.88 231.194C587.166 232.43 585.217 235.025 583.303 237.212C581.117 239.721 578.967 242.258 576.861 244.838C572.697 249.934 568.69 255.166 564.848 260.519C557.127 271.29 550.093 282.561 543.815 294.24C543.029 295.705 542.251 297.177 541.487 298.657C540.851 299.879 542.701 300.966 543.336 299.736L543.358 299.75Z" fill="#333366"/>
<path d="M540.587 169.699C544.708 160.843 549.486 152.302 554.885 144.162C559.399 137.372 564.555 130.632 571.376 126.001C575.075 123.485 579.261 121.684 583.724 121.155L582.689 120.369C584.139 124.235 582.196 128.052 579.861 131.118C577.254 134.549 573.961 137.493 570.897 140.502C564.327 146.971 557.599 153.275 550.729 159.421C546.822 162.909 542.873 166.347 538.88 169.727C537.823 170.621 539.352 172.129 540.394 171.243C547.693 165.067 554.835 158.714 561.82 152.181C565.312 148.915 568.762 145.605 572.169 142.261C575.575 138.916 578.854 135.95 581.617 132.326C584.381 128.702 586.417 124.249 584.753 119.804C584.603 119.404 584.21 118.961 583.717 119.018C575.304 120.011 568.198 124.85 562.477 130.889C556.171 137.543 551.193 145.498 546.622 153.41C543.765 158.363 541.137 163.438 538.723 168.62C538.145 169.863 539.994 170.95 540.573 169.699H540.587Z" fill="#333366"/>
<path d="M45.3517 435.298C36.2743 444.482 35.9672 458.763 40.6738 470.162C43.2234 476.33 47.1444 481.648 52.1723 486.022C57.643 490.782 63.9921 494.356 70.6484 497.172C78.3117 500.41 86.3392 502.675 94.3882 504.734C95.7237 505.077 96.2951 503.011 94.9595 502.668C81.4327 499.209 67.4774 495.163 56.2074 486.565C51.0795 482.649 46.773 477.846 43.8805 472.064C41.1737 466.66 39.6596 460.578 39.7882 454.517C39.931 447.942 42.2021 441.531 46.873 436.813C47.8443 435.834 46.3302 434.312 45.3589 435.298H45.3517Z" fill="#333366"/>
<path d="M42.5659 343.463C52.6218 337.216 65.3629 336.016 76.5258 339.825C79.6611 340.897 82.6321 342.384 85.3818 344.228L84.889 343.585C85.1175 344.757 84.6818 345.865 83.8248 346.658C82.8107 347.594 84.3319 349.109 85.3389 348.173C86.603 347.001 87.2672 345.279 87.0458 343.563C86.9173 342.541 86.2388 342.212 85.4246 341.698C84.6104 341.183 83.8462 340.747 83.0392 340.318C79.9539 338.682 76.6543 337.452 73.2619 336.659C66.4057 335.051 59.1495 335.129 52.3361 336.938C48.5151 337.953 44.8442 339.525 41.4875 341.612C40.3162 342.341 41.3947 344.192 42.5659 343.463Z" fill="#333366"/>
<path d="M90.7518 12.4874C79.3318 29.4764 80.8102 51.1255 85.4239 70.1014C86.8594 76.0122 88.5877 81.8515 90.309 87.6837C90.7018 89.0059 92.7658 88.4413 92.373 87.1119C86.7166 68.0001 80.7745 47.5804 86.2166 27.7039C87.5879 22.6794 89.6947 17.8979 92.6015 13.5738C93.3728 12.4231 91.5159 11.351 90.7518 12.4946V12.4874Z" fill="#333366"/>
<path d="M478.98 345.957C470.581 353.411 464.618 363.189 460.654 373.631C456.219 385.295 454.39 397.76 453.569 410.161C453.069 417.708 452.948 425.277 452.826 432.846C452.805 434.225 454.947 434.225 454.969 432.846C455.183 419.752 455.376 406.573 457.569 393.629C459.461 382.444 462.896 371.422 468.789 361.674C471.981 356.392 475.873 351.582 480.494 347.479C481.53 346.564 480.008 345.049 478.98 345.964V345.957Z" fill="#333366"/>
<path d="M573.633 449.678C570.355 462.836 561.57 474.358 549.95 481.284C546.651 483.249 543.151 484.821 539.487 485.972C538.173 486.38 538.737 488.452 540.059 488.038C553.507 483.828 564.97 473.993 571.44 461.493C573.29 457.926 574.726 454.145 575.697 450.243C576.033 448.906 573.961 448.335 573.633 449.671V449.678Z" fill="#333366"/>
</g>
<defs>
<clipPath id="clip0_10094_8625">
<rect width="600" height="513.545" fill="white" transform="translate(0 0.6875)"/>
</clipPath>
</defs>
</svg>
