<svg width="688" height="516" viewBox="0 0 688 516" fill="none" xmlns="http://www.w3.org/2000/svg">
<g clip-path="url(#clip0_7432_3467)">
<path d="M380.215 345.845C433.726 345.845 477.105 302.466 477.105 248.955C477.105 195.445 433.726 152.065 380.215 152.065C326.704 152.065 283.325 195.445 283.325 248.955C283.325 302.466 326.704 345.845 380.215 345.845Z" fill="#FF463F" stroke="#070600" stroke-miterlimit="10"/>
<path d="M380.215 346.355C326.515 346.355 282.825 302.665 282.825 248.965C282.825 195.265 326.515 151.575 380.215 151.575C433.915 151.575 477.605 195.265 477.605 248.965C477.605 302.665 433.915 346.355 380.215 346.355ZM380.215 152.565C327.065 152.565 283.825 195.805 283.825 248.955C283.825 302.105 327.065 345.345 380.215 345.345C433.365 345.345 476.605 302.105 476.605 248.955C476.605 195.805 433.365 152.565 380.215 152.565Z" fill="#FF463F" stroke="#070600" stroke-miterlimit="10"/>
<path d="M352.335 89.6955C354.105 91.7755 355.525 93.9655 356.625 96.1955L349.315 140.275L348.185 141.235C350.045 139.655 349.635 136.105 347.265 133.315L306.825 85.7055C304.455 82.9155 301.025 81.9355 299.165 83.5255L300.295 82.5655L342.275 81.8755C345.815 83.5155 349.325 86.1655 352.325 89.6955H352.335Z" fill="#F45B69" stroke="#070600" stroke-miterlimit="10"/>
<path d="M349.815 140.555L357.125 96.4755C357.145 96.3655 357.125 96.2455 357.055 96.1155C355.885 93.7555 354.405 91.5055 352.645 89.4355C349.665 85.9255 346.095 83.1455 342.315 81.3955C342.235 81.3555 342.155 81.3455 342.085 81.3455L300.105 82.0355C300.025 82.0355 299.955 82.0655 299.905 82.1055L298.775 83.0655C298.605 83.2155 298.645 83.5355 298.855 83.7955C299.075 84.0555 299.385 84.1455 299.555 83.9955C301.245 82.5655 304.365 83.4455 306.515 85.9755L346.955 133.585C349.105 136.115 349.485 139.345 347.795 140.775C347.625 140.925 347.665 141.245 347.875 141.505C348.085 141.765 348.405 141.855 348.575 141.705L349.705 140.745C349.755 140.695 349.795 140.635 349.805 140.555H349.815ZM342.375 82.4155C345.905 84.0655 349.235 86.6755 352.025 89.9655C353.645 91.8655 355.015 93.9255 356.105 96.0955L349.445 136.295C349.075 135.195 348.445 134.085 347.575 133.065L307.135 85.4555C306.245 84.4055 305.215 83.5955 304.165 83.0455L342.375 82.4155Z" fill="#F45B69" stroke="#070600" stroke-miterlimit="10"/>
<path d="M358.655 83.5955C358.675 83.7255 358.675 83.8655 358.655 83.9955L356.635 96.1955C355.535 93.9655 354.105 91.7755 352.345 89.6955C349.345 86.1555 345.835 83.5155 342.295 81.8755L356.645 81.6355C356.705 81.6355 356.775 81.6355 356.845 81.6355C356.915 81.6555 356.985 81.6655 357.045 81.6855C357.835 81.9055 358.575 82.7655 358.665 83.5855L358.655 83.5955Z" fill="#F45B69" stroke="#070600" stroke-miterlimit="10"/>
<path d="M357.125 96.4655L359.145 84.2655C359.165 84.1055 359.175 83.9255 359.145 83.7355C359.085 83.2055 358.825 82.6455 358.405 82.1555C357.985 81.6655 357.475 81.3255 357.025 81.2055C356.935 81.1655 356.865 81.1555 356.765 81.1355C356.735 81.1355 356.685 81.1155 356.655 81.1155C356.575 81.1155 356.495 81.1055 356.435 81.1155L342.085 81.3555C341.875 81.3555 341.745 81.5355 341.785 81.7755C341.825 82.0155 342.015 82.2655 342.245 82.3755C345.815 84.0255 349.195 86.6555 352.015 89.9755C353.675 91.9355 355.085 94.0655 356.195 96.2955C356.305 96.5155 356.515 96.6955 356.725 96.7355C356.845 96.7555 356.945 96.7355 357.025 96.6755C357.075 96.6355 357.115 96.5655 357.125 96.4855V96.4655ZM356.845 82.1755C356.845 82.1755 356.915 82.1755 356.955 82.1755C357.015 82.1955 357.105 82.2155 357.105 82.2155C357.355 82.2855 357.605 82.4555 357.805 82.6855C358.005 82.9255 358.135 83.1955 358.165 83.4455C358.175 83.5455 358.175 83.6455 358.165 83.7155L356.335 94.7255C355.295 92.8655 354.065 91.0955 352.645 89.4255C350.175 86.5155 347.295 84.1055 344.235 82.3755L356.845 82.1655V82.1755Z" fill="#F45B69" stroke="#070600" stroke-miterlimit="10"/>
<path d="M306.825 85.7154L347.265 133.325C349.635 136.115 350.055 139.665 348.185 141.245L217.605 252.165C215.465 253.985 211.525 252.855 208.805 249.655L169.635 203.545C166.915 200.345 166.445 196.275 168.585 194.455L299.165 83.5354C301.025 81.9554 304.455 82.9254 306.825 85.7154Z" fill="#F45B69" stroke="#070600" stroke-miterlimit="10"/>
<path d="M347.575 133.055L307.135 85.4455C304.555 82.4055 300.805 81.3355 298.775 83.0555L168.195 193.965C165.885 195.925 166.395 200.325 169.335 203.785L208.505 249.895C211.435 253.345 215.705 254.565 218.005 252.605L348.585 141.695C350.615 139.975 350.165 136.095 347.575 133.045V133.055ZM299.565 83.9955C301.255 82.5655 304.375 83.4455 306.525 85.9755L346.965 133.585C349.115 136.115 349.495 139.345 347.805 140.775L217.225 251.685C215.255 253.355 211.625 252.315 209.125 249.375L169.955 203.265C167.455 200.325 167.025 196.575 168.985 194.905L299.565 83.9955Z" fill="#F45B69" stroke="#070600" stroke-miterlimit="10"/>
<path d="M189.575 276.776L189.075 277.206C187.045 278.926 183.295 277.846 180.715 274.806L180.085 274.066C179.865 273.806 179.825 273.486 180.005 273.336C180.175 273.186 180.495 273.276 180.705 273.536C183.205 276.476 186.835 277.516 188.795 275.846C188.965 275.696 189.285 275.786 189.495 276.046C189.715 276.306 189.755 276.626 189.575 276.776Z" fill="#F45B69" stroke="#070600" stroke-miterlimit="10"/>
<path d="M141.605 228.146C141.435 228.296 141.115 228.206 140.905 227.946L140.265 227.196C137.685 224.156 137.235 220.286 139.255 218.566L139.755 218.136C139.925 217.986 140.245 218.076 140.455 218.336C140.675 218.596 140.715 218.916 140.535 219.066C138.575 220.736 139.015 224.476 141.515 227.426C141.735 227.686 141.775 228.006 141.595 228.156L141.605 228.146Z" fill="#F45B69" stroke="#070600" stroke-miterlimit="10"/>
<path d="M217.605 252.156L189.175 276.306C187.045 278.116 183.105 276.996 180.385 273.786L141.215 227.676C138.495 224.476 138.025 220.406 140.155 218.596L168.585 194.446C166.445 196.266 166.915 200.336 169.635 203.536L208.805 249.646C211.525 252.846 215.465 253.976 217.605 252.156Z" fill="#F45B69" stroke="#070600" stroke-miterlimit="10"/>
<path d="M217.915 251.895C217.695 251.635 217.385 251.545 217.215 251.695C215.245 253.365 211.615 252.325 209.115 249.385L169.945 203.275C167.445 200.335 167.015 196.585 168.975 194.915C169.145 194.765 169.105 194.445 168.895 194.185C168.685 193.925 168.365 193.835 168.195 193.985L139.765 218.135C137.465 220.095 137.975 224.495 140.905 227.945L180.075 274.055C183.005 277.505 187.265 278.725 189.575 276.775L218.005 252.625C218.175 252.475 218.135 252.155 217.925 251.895H217.915ZM166.795 196.765C166.535 198.885 167.415 201.545 169.335 203.795L208.505 249.905C210.415 252.155 212.895 253.455 215.035 253.545L188.795 275.835C186.835 277.505 183.205 276.465 180.705 273.525L141.535 227.415C139.035 224.475 138.595 220.725 140.555 219.055L166.795 196.765Z" fill="#F45B69" stroke="#070600" stroke-miterlimit="10"/>
<path d="M164.185 208.435L145.335 224.445C145.165 224.595 144.845 224.505 144.635 224.245C144.425 223.985 144.375 223.665 144.555 223.515L163.405 207.505C163.575 207.355 163.895 207.445 164.105 207.705C164.325 207.965 164.365 208.285 164.185 208.435Z" fill="#F45B69" stroke="#070600" stroke-miterlimit="10"/>
<path d="M200.035 253.986L184.165 267.466C183.995 267.616 183.675 267.526 183.465 267.266C183.255 267.006 183.205 266.686 183.385 266.536L199.255 253.056C199.425 252.906 199.745 252.996 199.955 253.256C200.165 253.516 200.215 253.836 200.035 253.986Z" fill="#F45B69" stroke="#070600" stroke-miterlimit="10"/>
<path d="M155.895 221.455L147.295 228.755C147.125 228.905 146.805 228.815 146.595 228.555C146.385 228.295 146.335 227.975 146.515 227.825L155.115 220.525C155.285 220.375 155.605 220.465 155.815 220.725C156.035 220.985 156.075 221.305 155.895 221.455Z" fill="#F45B69" stroke="#070600" stroke-miterlimit="10"/>
<path d="M168.605 208.945L162.325 214.285C162.155 214.435 161.835 214.345 161.625 214.085C161.405 213.825 161.365 213.505 161.545 213.355L167.825 208.015C167.995 207.865 168.315 207.955 168.525 208.215C168.735 208.475 168.785 208.795 168.605 208.945Z" fill="#F45B69" stroke="#070600" stroke-miterlimit="10"/>
<path d="M309.175 88.7756L171.695 205.546C171.525 205.696 171.205 205.606 170.995 205.346C170.785 205.086 170.735 204.766 170.915 204.616L308.395 87.8456C308.565 87.6956 308.885 87.7856 309.095 88.0456C309.315 88.3056 309.355 88.6256 309.175 88.7756Z" fill="#F45B69" stroke="#070600" stroke-miterlimit="10"/>
<path d="M344.985 130.925L207.505 247.695C207.335 247.845 207.015 247.755 206.805 247.495C206.595 247.235 206.545 246.915 206.725 246.765L344.205 129.995C344.375 129.845 344.695 129.935 344.905 130.195C345.125 130.455 345.165 130.775 344.985 130.925Z" fill="#F45B69" stroke="#070600" stroke-miterlimit="10"/>
<path d="M334.625 118.736L197.145 235.506C196.975 235.656 196.655 235.566 196.445 235.306C196.225 235.046 196.185 234.726 196.365 234.576L333.845 117.806C334.015 117.656 334.335 117.746 334.545 118.006C334.765 118.266 334.805 118.586 334.625 118.736Z" fill="#F45B69" stroke="#070600" stroke-miterlimit="10"/>
<path d="M322.785 104.806L185.305 221.576C185.135 221.726 184.815 221.636 184.605 221.376C184.395 221.116 184.345 220.796 184.525 220.646L322.005 103.876C322.175 103.726 322.495 103.816 322.705 104.076C322.915 104.336 322.965 104.656 322.785 104.806Z" fill="#F45B69" stroke="#070600" stroke-miterlimit="10"/>
<path d="M347.215 126.025C347.105 126.115 346.925 126.125 346.735 126.015C346.465 125.865 346.275 125.535 346.325 125.285L351.445 96.9554C351.485 96.7054 351.745 96.6254 352.025 96.7854C352.295 96.9354 352.485 97.2654 352.435 97.5154L347.315 125.845C347.305 125.925 347.265 125.985 347.215 126.025Z" fill="#F45B69" stroke="#070600" stroke-miterlimit="10"/>
<path d="M125.185 287.776C127.045 285.786 129.055 284.116 131.145 282.756L175.775 284.906L176.865 285.916C175.075 284.246 171.605 285.076 169.105 287.746L126.505 333.426C124.005 336.106 123.435 339.616 125.225 341.286L124.135 340.276L118.585 298.656C119.805 294.946 122.025 291.156 125.185 287.766V287.776Z" fill="#F45B69" stroke="#070600" stroke-miterlimit="10"/>
<path d="M175.995 284.396L131.365 282.236C131.255 282.236 131.135 282.266 131.015 282.346C128.805 283.776 126.745 285.516 124.895 287.506C121.755 290.876 119.405 294.746 118.105 298.696C118.075 298.776 118.065 298.856 118.075 298.926L123.615 340.546C123.625 340.626 123.655 340.686 123.705 340.736L124.795 341.746C124.955 341.896 125.275 341.826 125.505 341.576C125.735 341.326 125.785 341.006 125.625 340.856C124.005 339.346 124.525 336.146 126.785 333.716L169.385 288.036C171.655 285.606 174.815 284.856 176.435 286.366C176.595 286.516 176.915 286.446 177.145 286.196C177.375 285.946 177.425 285.626 177.265 285.476L176.175 284.466C176.125 284.416 176.055 284.396 175.975 284.386L175.995 284.396ZM119.105 298.516C120.345 294.826 122.545 291.206 125.485 288.056C127.185 286.226 129.075 284.626 131.095 283.296L171.795 285.266C170.755 285.766 169.715 286.516 168.805 287.496L126.205 333.176C125.265 334.186 124.575 335.306 124.155 336.406L119.105 298.526V298.516Z" fill="#F45B69" stroke="#070600" stroke-miterlimit="10"/>
<path d="M118.395 282.206C118.525 282.176 118.665 282.156 118.795 282.156L131.145 282.756C129.065 284.106 127.045 285.776 125.185 287.776C122.025 291.166 119.795 294.955 118.585 298.665L116.685 284.446C116.675 284.386 116.675 284.316 116.665 284.246C116.675 284.176 116.665 284.106 116.695 284.036C116.825 283.226 117.595 282.396 118.395 282.206Z" fill="#F45B69" stroke="#070600" stroke-miterlimit="10"/>
<path d="M131.365 282.236L119.005 281.635C118.845 281.635 118.665 281.646 118.475 281.696C117.955 281.816 117.425 282.146 116.995 282.616C116.555 283.086 116.275 283.636 116.205 284.096C116.175 284.186 116.175 284.266 116.165 284.366C116.165 284.396 116.165 284.446 116.165 284.476C116.165 284.556 116.165 284.636 116.185 284.696L118.085 298.915C118.115 299.125 118.295 299.225 118.535 299.165C118.765 299.095 118.995 298.875 119.075 298.635C120.305 294.895 122.525 291.236 125.495 288.046C127.245 286.166 129.195 284.525 131.285 283.165C131.495 283.035 131.645 282.806 131.665 282.596C131.675 282.476 131.645 282.376 131.575 282.306C131.525 282.256 131.455 282.236 131.375 282.226L131.365 282.236ZM117.195 284.176C117.195 284.176 117.195 284.116 117.195 284.066C117.195 284.006 117.215 283.915 117.215 283.915C117.255 283.655 117.395 283.395 117.605 283.165C117.815 282.935 118.075 282.776 118.325 282.716C118.425 282.696 118.515 282.686 118.585 282.686L129.735 283.226C128.015 284.466 126.385 285.906 124.895 287.496C122.285 290.286 120.235 293.425 118.865 296.665L117.195 284.165V284.176Z" fill="#F45B69" stroke="#070600" stroke-miterlimit="10"/>
<path d="M126.495 333.446L169.095 287.766C171.595 285.086 175.065 284.266 176.855 285.936L302.135 402.796C304.185 404.715 303.525 408.756 300.665 411.826L259.395 456.066C256.525 459.136 252.545 460.076 250.485 458.165L125.195 341.306C123.405 339.636 123.975 336.126 126.475 333.446H126.495Z" fill="#F45B69" stroke="#070600" stroke-miterlimit="10"/>
<path d="M168.805 287.486L126.205 333.166C123.485 336.086 122.855 339.936 124.805 341.746L250.095 458.606C252.305 460.666 256.625 459.656 259.715 456.336L300.985 412.096C304.075 408.786 304.795 404.406 302.575 402.346L177.295 285.486C175.345 283.666 171.545 284.566 168.825 287.486H168.805ZM125.625 340.856C124.005 339.346 124.525 336.146 126.785 333.716L169.385 288.036C171.655 285.606 174.815 284.856 176.435 286.366L301.715 403.226C303.605 404.986 302.995 408.716 300.355 411.536L259.085 455.776C256.455 458.596 252.775 459.466 250.895 457.706L125.615 340.846L125.625 340.856Z" fill="#F45B69" stroke="#070600" stroke-miterlimit="10"/>
<path d="M329.845 427.796L330.325 428.246C332.265 430.056 331.635 433.916 328.905 436.836L328.245 437.546C328.015 437.796 327.695 437.866 327.535 437.716C327.375 437.566 327.425 437.236 327.655 436.996C330.285 434.176 330.895 430.446 329.015 428.696C328.855 428.546 328.905 428.216 329.135 427.976C329.365 427.726 329.685 427.656 329.845 427.806V427.796Z" fill="#F45B69" stroke="#070600" stroke-miterlimit="10"/>
<path d="M287.095 481.066C287.255 481.216 287.205 481.546 286.975 481.786L286.305 482.506C283.585 485.426 279.785 486.316 277.845 484.506L277.365 484.056C277.205 483.906 277.255 483.576 277.485 483.336C277.715 483.096 278.035 483.016 278.195 483.166C280.075 484.926 283.745 484.056 286.385 481.226C286.615 480.976 286.935 480.906 287.095 481.056V481.066Z" fill="#F45B69" stroke="#070600" stroke-miterlimit="10"/>
<path d="M302.145 402.795L329.425 428.245C331.475 430.155 330.805 434.195 327.945 437.275L286.675 481.515C283.805 484.585 279.825 485.525 277.775 483.615L250.495 458.165C252.545 460.085 256.535 459.135 259.405 456.065L300.675 411.825C303.545 408.755 304.205 404.715 302.145 402.795Z" fill="#F45B69" stroke="#070600" stroke-miterlimit="10"/>
<path d="M301.855 402.515C301.625 402.765 301.575 403.085 301.735 403.235C303.625 404.995 303.015 408.725 300.375 411.545L259.105 455.785C256.475 458.605 252.795 459.475 250.915 457.715C250.755 457.565 250.435 457.635 250.205 457.885C249.975 458.135 249.925 458.455 250.085 458.605L277.365 484.055C279.575 486.115 283.885 485.095 286.975 481.785L328.245 437.545C331.335 434.235 332.055 429.855 329.845 427.795L302.565 402.345C302.405 402.195 302.085 402.265 301.855 402.515ZM253.015 459.675C255.145 459.685 257.685 458.505 259.705 456.335L300.975 412.095C302.995 409.935 303.995 407.315 303.835 405.195L329.015 428.685C330.895 430.445 330.285 434.165 327.655 436.985L286.385 481.225C283.755 484.045 280.075 484.915 278.195 483.165L253.015 459.675Z" fill="#F45B69" stroke="#070600" stroke-miterlimit="10"/>
<path d="M264.905 460.916L282.995 477.786C283.155 477.936 283.105 478.266 282.875 478.506C282.645 478.756 282.325 478.826 282.165 478.676L264.075 461.806C263.915 461.656 263.965 461.326 264.195 461.086C264.425 460.836 264.745 460.766 264.905 460.916Z" fill="#F45B69" stroke="#070600" stroke-miterlimit="10"/>
<path d="M306.005 420.046L321.235 434.256C321.395 434.406 321.345 434.736 321.115 434.976C320.885 435.216 320.565 435.296 320.405 435.146L305.175 420.936C305.015 420.786 305.065 420.456 305.295 420.216C305.525 419.966 305.845 419.896 306.005 420.046Z" fill="#F45B69" stroke="#070600" stroke-miterlimit="10"/>
<path d="M278.805 467.656L287.055 475.346C287.215 475.496 287.165 475.826 286.935 476.066C286.705 476.306 286.385 476.386 286.225 476.236L277.975 468.546C277.815 468.396 277.865 468.066 278.095 467.826C278.325 467.586 278.645 467.506 278.805 467.656Z" fill="#F45B69" stroke="#070600" stroke-miterlimit="10"/>
<path d="M264.905 456.466L270.935 462.086C271.095 462.236 271.045 462.566 270.815 462.806C270.585 463.056 270.265 463.126 270.105 462.976L264.075 457.356C263.915 457.206 263.965 456.876 264.195 456.636C264.425 456.396 264.745 456.316 264.905 456.466Z" fill="#F45B69" stroke="#070600" stroke-miterlimit="10"/>
<path d="M129.275 330.755L261.175 453.785C261.335 453.935 261.285 454.265 261.055 454.505C260.825 454.745 260.505 454.825 260.345 454.675L128.445 331.645C128.285 331.495 128.335 331.165 128.565 330.925C128.795 330.675 129.115 330.605 129.275 330.755Z" fill="#F45B69" stroke="#070600" stroke-miterlimit="10"/>
<path d="M166.995 290.315L298.895 413.345C299.055 413.495 299.005 413.825 298.775 414.065C298.545 414.305 298.225 414.385 298.065 414.235L166.165 291.205C166.005 291.055 166.055 290.725 166.285 290.485C166.515 290.235 166.835 290.165 166.995 290.315Z" fill="#F45B69" stroke="#070600" stroke-miterlimit="10"/>
<path d="M156.085 302.005L287.985 425.035C288.145 425.185 288.095 425.515 287.865 425.755C287.635 425.995 287.315 426.075 287.155 425.925L155.255 302.895C155.095 302.745 155.145 302.415 155.375 302.175C155.605 301.925 155.925 301.855 156.085 302.005Z" fill="#F45B69" stroke="#070600" stroke-miterlimit="10"/>
<path d="M143.615 315.375L275.515 438.405C275.675 438.555 275.625 438.885 275.395 439.125C275.165 439.365 274.845 439.445 274.685 439.295L142.785 316.265C142.625 316.115 142.675 315.785 142.905 315.545C143.135 315.295 143.455 315.225 143.615 315.375Z" fill="#F45B69" stroke="#070600" stroke-miterlimit="10"/>
<path d="M161.865 288.655C161.965 288.755 161.995 288.935 161.905 289.125C161.785 289.415 161.475 289.635 161.225 289.615L132.495 287.815C132.245 287.805 132.135 287.555 132.255 287.265C132.375 286.975 132.685 286.755 132.935 286.775L161.665 288.575C161.745 288.575 161.815 288.605 161.855 288.655H161.865Z" fill="#F45B69" stroke="#070600" stroke-miterlimit="10"/>
<path d="M568.735 258.445C571.285 259.395 573.605 260.615 575.655 262.025L590.755 304.085L590.235 305.475C591.095 303.185 589.005 300.295 585.565 299.005L527.055 277.135C523.625 275.855 520.155 276.675 519.305 278.965L519.825 277.575L556.145 256.515C560.035 256.215 564.385 256.825 568.735 258.445Z" fill="#FF463F" stroke="#070600" stroke-miterlimit="10"/>
<path d="M591.315 304.075L576.215 262.015C576.175 261.915 576.095 261.815 575.985 261.735C573.815 260.245 571.425 259.005 568.875 258.055C564.555 256.445 560.085 255.755 555.935 256.065C555.845 256.065 555.775 256.095 555.715 256.125L519.395 277.185C519.325 277.225 519.285 277.275 519.255 277.345L518.735 278.735C518.655 278.945 518.845 279.215 519.165 279.325C519.485 279.435 519.795 279.365 519.875 279.155C520.655 277.075 523.805 276.335 526.915 277.495L585.425 299.365C588.535 300.525 590.435 303.165 589.665 305.235C589.585 305.445 589.775 305.715 590.095 305.825C590.415 305.935 590.725 305.865 590.805 305.655L591.325 304.265C591.345 304.195 591.345 304.125 591.325 304.055L591.315 304.075ZM556.485 256.935C560.375 256.665 564.555 257.315 568.595 258.825C570.935 259.695 573.135 260.835 575.145 262.185L588.915 300.535C588.055 299.765 586.965 299.095 585.715 298.625L527.205 276.755C525.915 276.275 524.615 276.065 523.435 276.095L556.495 256.925L556.485 256.935Z" fill="#FF463F" stroke="#070600" stroke-miterlimit="10"/>
<path d="M571.275 250.035C571.355 250.145 571.425 250.265 571.465 250.385L575.645 262.025C573.595 260.615 571.285 259.395 568.725 258.445C564.375 256.825 560.025 256.215 556.135 256.515L568.545 249.315C568.595 249.285 568.655 249.255 568.725 249.225C568.795 249.205 568.855 249.175 568.925 249.175C569.725 248.985 570.785 249.375 571.265 250.045L571.275 250.035Z" fill="#FF463F" stroke="#070600" stroke-miterlimit="10"/>
<path d="M576.215 262.025L572.035 250.385C571.975 250.235 571.895 250.075 571.775 249.925C571.465 249.495 570.955 249.125 570.365 248.905C569.765 248.685 569.145 248.625 568.695 248.745C568.605 248.755 568.525 248.785 568.435 248.815C568.405 248.815 568.355 248.835 568.325 248.855C568.245 248.895 568.175 248.925 568.125 248.955L555.715 256.155C555.535 256.265 555.505 256.475 555.665 256.665C555.815 256.855 556.105 256.975 556.365 256.955C560.285 256.655 564.525 257.305 568.605 258.835C571.015 259.735 573.275 260.905 575.335 262.315C575.535 262.455 575.805 262.505 576.005 262.445C576.125 262.405 576.205 262.335 576.235 262.245C576.255 262.185 576.255 262.105 576.235 262.035L576.215 262.025ZM569.005 249.675C569.005 249.675 569.065 249.645 569.105 249.625C569.165 249.605 569.255 249.585 569.255 249.585C569.505 249.525 569.805 249.545 570.095 249.655C570.385 249.765 570.635 249.935 570.785 250.145C570.845 250.225 570.885 250.305 570.915 250.375L574.685 260.885C572.875 259.765 570.925 258.815 568.885 258.055C565.305 256.715 561.625 256.015 558.095 255.995L569.005 249.665V249.675Z" fill="#FF463F" stroke="#070600" stroke-miterlimit="10"/>
<path d="M527.055 277.135L585.565 299.005C588.995 300.285 591.085 303.185 590.235 305.475L530.255 465.965C529.275 468.595 525.285 469.535 521.345 468.065L464.675 446.885C460.745 445.415 458.345 442.095 459.325 439.465L519.305 278.975C520.165 276.685 523.625 275.865 527.055 277.145V277.135Z" fill="#FF463F" stroke="#070600" stroke-miterlimit="10"/>
<path d="M585.705 298.625L527.195 276.755C523.455 275.355 519.665 276.255 518.725 278.745L458.745 439.235C457.685 442.065 460.275 445.665 464.525 447.255L521.195 468.435C525.435 470.025 529.755 469.005 530.815 466.175L590.795 305.685C591.725 303.195 589.445 300.025 585.695 298.625H585.705ZM519.875 279.175C520.655 277.095 523.805 276.355 526.915 277.515L585.425 299.385C588.535 300.545 590.435 303.185 589.665 305.255L529.685 465.745C528.785 468.165 525.105 469.025 521.495 467.675L464.825 446.495C461.205 445.145 459.005 442.075 459.905 439.665L519.885 279.175H519.875Z" fill="#FF463F" stroke="#070600" stroke-miterlimit="10"/>
<path d="M517.765 501.115L517.535 501.735C516.605 504.225 512.805 505.115 509.065 503.715L508.155 503.375C507.835 503.255 507.645 502.995 507.725 502.785C507.805 502.575 508.125 502.505 508.435 502.615C512.055 503.965 515.725 503.105 516.625 500.695C516.705 500.485 517.025 500.415 517.335 500.525C517.655 500.645 517.845 500.905 517.765 501.115Z" fill="#FF463F" stroke="#070600" stroke-miterlimit="10"/>
<path d="M452.185 482.025C452.105 482.235 451.785 482.305 451.475 482.195L450.555 481.845C446.815 480.445 444.535 477.285 445.465 474.795L445.695 474.175C445.775 473.965 446.095 473.895 446.405 474.005C446.715 474.115 446.915 474.385 446.835 474.595C445.935 477.005 448.145 480.065 451.755 481.415C452.075 481.535 452.265 481.795 452.185 482.005V482.025Z" fill="#FF463F" stroke="#070600" stroke-miterlimit="10"/>
<path d="M530.255 465.955L517.195 500.905C516.215 503.525 512.225 504.465 508.295 502.995L451.625 481.815C447.695 480.345 445.295 477.025 446.275 474.395L459.335 439.445C458.355 442.075 460.745 445.395 464.685 446.865L521.355 468.045C525.285 469.515 529.275 468.575 530.265 465.945L530.255 465.955Z" fill="#FF463F" stroke="#070600" stroke-miterlimit="10"/>
<path d="M530.395 465.575C530.075 465.455 529.765 465.535 529.685 465.745C528.785 468.165 525.105 469.025 521.495 467.675L464.825 446.495C461.205 445.145 459.005 442.075 459.905 439.665C459.985 439.455 459.795 439.185 459.475 439.075C459.155 438.965 458.845 439.035 458.765 439.245L445.705 474.195C444.645 477.025 447.245 480.615 451.485 482.205L508.155 503.385C512.395 504.975 516.715 503.955 517.775 501.125L530.835 466.175C530.915 465.965 530.725 465.695 530.405 465.585L530.395 465.575ZM458.885 442.355C459.695 444.335 461.755 446.225 464.525 447.255L521.195 468.435C523.965 469.465 526.765 469.395 528.665 468.435L516.615 500.695C515.715 503.105 512.035 503.965 508.425 502.615L451.755 481.435C448.135 480.085 445.935 477.025 446.835 474.615L458.885 442.355Z" fill="#FF463F" stroke="#070600" stroke-miterlimit="10"/>
<path d="M462.295 453.815L453.635 476.985C453.555 477.195 453.235 477.265 452.925 477.155C452.615 477.045 452.415 476.775 452.495 476.565L461.155 453.395C461.235 453.185 461.555 453.115 461.865 453.225C462.185 453.345 462.375 453.605 462.295 453.815Z" fill="#FF463F" stroke="#070600" stroke-miterlimit="10"/>
<path d="M515.795 476.125L508.505 495.635C508.425 495.845 508.105 495.915 507.795 495.805C507.485 495.695 507.285 495.425 507.365 495.215L514.655 475.705C514.735 475.495 515.055 475.425 515.365 475.535C515.675 475.645 515.875 475.915 515.795 476.125Z" fill="#FF463F" stroke="#070600" stroke-miterlimit="10"/>
<path d="M461.395 469.225L457.445 479.795C457.365 480.005 457.045 480.075 456.735 479.965C456.415 479.845 456.225 479.585 456.305 479.375L460.255 468.805C460.335 468.595 460.655 468.525 460.965 468.635C461.275 468.745 461.475 469.015 461.395 469.225Z" fill="#FF463F" stroke="#070600" stroke-miterlimit="10"/>
<path d="M466.405 452.105L463.515 459.825C463.435 460.035 463.115 460.105 462.805 459.995C462.495 459.885 462.295 459.615 462.375 459.405L465.265 451.685C465.345 451.475 465.665 451.405 465.975 451.515C466.285 451.625 466.485 451.895 466.405 452.105Z" fill="#FF463F" stroke="#070600" stroke-miterlimit="10"/>
<path d="M530.605 278.675L467.465 447.635C467.385 447.845 467.065 447.915 466.755 447.805C466.445 447.695 466.245 447.425 466.325 447.215L529.465 278.255C529.545 278.045 529.865 277.975 530.175 278.085C530.485 278.195 530.685 278.465 530.605 278.675Z" fill="#FF463F" stroke="#070600" stroke-miterlimit="10"/>
<path d="M582.405 298.025L519.265 466.985C519.185 467.195 518.865 467.265 518.555 467.155C518.245 467.045 518.045 466.775 518.125 466.565L581.265 297.605C581.345 297.395 581.665 297.325 581.975 297.435C582.285 297.545 582.485 297.815 582.405 298.025Z" fill="#FF463F" stroke="#070600" stroke-miterlimit="10"/>
<path d="M567.415 292.435L504.275 461.395C504.195 461.605 503.875 461.675 503.565 461.565C503.255 461.455 503.055 461.185 503.135 460.975L566.275 292.015C566.355 291.805 566.675 291.735 566.985 291.845C567.295 291.955 567.495 292.225 567.415 292.435Z" fill="#FF463F" stroke="#070600" stroke-miterlimit="10"/>
<path d="M550.295 286.035L487.155 454.995C487.075 455.205 486.755 455.275 486.445 455.165C486.125 455.045 485.935 454.785 486.015 454.575L549.155 285.615C549.235 285.405 549.555 285.335 549.865 285.445C550.175 285.555 550.375 285.825 550.295 286.035Z" fill="#FF463F" stroke="#070600" stroke-miterlimit="10"/>
<path d="M581.965 292.665C581.915 292.795 581.755 292.885 581.545 292.885C581.235 292.885 580.905 292.685 580.825 292.445L571.485 265.215C571.405 264.975 571.585 264.785 571.905 264.785C572.215 264.785 572.545 264.985 572.625 265.225L581.965 292.455C581.995 292.535 581.985 292.605 581.965 292.665Z" fill="#FF463F" stroke="#070600" stroke-miterlimit="10"/>
<path d="M469.655 444.555C469.425 444.555 469.215 444.395 469.165 444.155C469.105 443.885 469.275 443.625 469.545 443.565C475.875 442.165 479.985 441.325 480.735 441.175C480.995 441.125 481.265 441.295 481.325 441.565C481.385 441.835 481.215 442.095 480.945 442.155C479.825 442.415 475.645 443.345 469.755 444.545C469.725 444.545 469.685 444.555 469.655 444.555Z" fill="#FF463F" stroke="#070600" stroke-miterlimit="10"/>
<path d="M215.355 324.415C215.085 324.415 214.855 324.195 214.855 323.925C214.855 323.705 214.335 301.585 205.845 289.025C205.685 288.795 205.755 288.485 205.975 288.335C206.205 288.185 206.515 288.235 206.665 288.465C215.325 301.265 215.845 323.685 215.855 323.905C215.855 324.185 215.645 324.405 215.365 324.415H215.355Z" fill="#FF463F" stroke="#070600" stroke-miterlimit="10"/>
<path d="M185.135 410.185C184.995 410.185 184.865 410.125 184.765 410.025C184.575 409.825 184.595 409.505 184.795 409.315C200.535 395.055 199.345 366.725 199.335 366.435C199.325 366.155 199.535 365.925 199.805 365.915C200.095 365.905 200.315 366.115 200.325 366.395C200.335 366.685 201.555 395.485 185.465 410.065C185.365 410.155 185.245 410.195 185.125 410.195L185.135 410.185Z" fill="#FF463F" stroke="#070600" stroke-miterlimit="10"/>
<path d="M247.845 376.626C247.765 376.626 247.685 376.606 247.605 376.566C247.365 376.436 247.275 376.126 247.405 375.886C257.195 357.906 262.845 340.116 262.895 339.936C262.975 339.676 263.255 339.526 263.525 339.606C263.785 339.686 263.935 339.966 263.855 340.236C263.795 340.416 258.125 358.306 248.285 376.366C248.195 376.536 248.025 376.626 247.845 376.626Z" fill="#FF463F" stroke="#070600" stroke-miterlimit="10"/>
<path d="M185.135 410.185C185.025 410.185 184.915 410.145 184.815 410.075C173.595 400.905 177.865 382.635 177.905 382.455C177.975 382.185 178.245 382.025 178.505 382.085C178.775 382.145 178.935 382.415 178.875 382.685C178.835 382.865 174.715 400.525 185.445 409.305C185.655 409.475 185.695 409.795 185.515 410.005C185.415 410.125 185.275 410.185 185.125 410.185H185.135Z" fill="#FF463F" stroke="#070600" stroke-miterlimit="10"/>
<path d="M279.955 315.715C279.955 315.715 279.865 315.715 279.825 315.695C279.555 315.625 279.405 315.345 279.475 315.075C280.455 311.535 281.215 307.915 281.735 304.295C281.775 304.025 282.035 303.835 282.305 303.875C282.575 303.915 282.765 304.165 282.725 304.445C282.205 308.105 281.435 311.765 280.445 315.345C280.385 315.565 280.185 315.715 279.965 315.715H279.955Z" fill="#FF463F" stroke="#070600" stroke-miterlimit="10"/>
<path d="M203.265 298.096C203.265 298.096 203.175 298.095 203.125 298.075C202.855 297.995 202.705 297.726 202.785 297.456C202.795 297.416 203.845 293.835 205.785 288.575C205.885 288.315 206.165 288.186 206.425 288.276C206.685 288.376 206.815 288.655 206.725 288.915C204.795 294.145 203.755 297.696 203.745 297.736C203.685 297.956 203.485 298.096 203.265 298.096Z" fill="#FF463F" stroke="#070600" stroke-miterlimit="10"/>
<path d="M319.325 429.195C270.635 431.945 253.715 398.835 247.845 376.125C237.725 394.665 223.115 413.645 205.345 414.695C195.705 415.265 189.325 413.115 185.135 409.685C180.725 413.705 174.995 416.655 167.555 417.655C133.005 422.305 131.065 364.675 135.015 343.055C138.965 321.425 155.195 289.795 184.785 280.965C194.945 277.935 201.725 282.035 206.255 288.745C212.165 272.745 226.555 240.605 246.795 240.605C271.115 240.605 286.995 271.005 282.225 304.375C286.145 303.055 290.555 302.325 295.485 302.465C302.105 312.405 310.725 321.255 321.205 328.355C325.795 331.465 330.575 334.125 335.465 336.325C336.625 344.985 335.595 354.505 332.805 363.915C330.805 370.655 328.325 375.895 325.715 379.955C346.915 370.695 372.055 361.075 379.435 363.915C392.905 369.095 392.905 425.055 319.325 429.195Z" fill="#FF463F" stroke="#070600" stroke-miterlimit="10"/>
<path d="M313.785 429.855C269.095 429.855 253.245 397.895 247.685 377.455C238.305 394.335 223.525 414.115 205.375 415.195C196.725 415.705 189.935 414.075 185.155 410.345C180.345 414.615 174.455 417.235 167.625 418.155C159.305 419.275 152.275 416.905 146.735 411.105C131.245 394.875 131.865 357.525 134.525 342.975C138.945 318.765 156.515 288.885 184.645 280.495C193.525 277.845 200.745 280.265 206.125 287.685C212.945 269.495 227.025 240.115 246.805 240.115C255.645 240.115 263.745 244.055 270.215 251.525C280.715 263.625 285.515 283.545 282.835 303.665C286.825 302.415 291.095 301.855 295.505 301.975C295.665 301.975 295.815 302.065 295.905 302.195C302.685 312.375 311.295 321.045 321.485 327.945C325.995 330.995 330.765 333.665 335.665 335.875C335.825 335.945 335.935 336.095 335.955 336.265C337.085 344.725 336.165 354.335 333.275 364.065C331.615 369.675 329.495 374.645 326.975 378.865C355.875 366.325 373.585 361.135 379.605 363.455C385.055 365.545 387.945 374.865 386.345 385.115C383.225 405.025 363.985 427.186 319.345 429.695C317.445 429.805 315.585 429.855 313.775 429.855H313.785ZM247.845 375.625C247.845 375.625 247.885 375.625 247.905 375.625C248.105 375.645 248.275 375.795 248.325 375.995C253.515 396.065 268.885 428.845 313.805 428.845C315.585 428.845 317.415 428.795 319.295 428.685C363.335 426.205 382.305 404.465 385.365 384.945C387.055 374.186 383.585 366.035 379.255 364.375C373.475 362.145 355.025 367.695 325.915 380.405C325.715 380.495 325.475 380.435 325.335 380.275C325.195 380.105 325.175 379.865 325.295 379.685C328.145 375.255 330.505 369.905 332.325 363.775C335.135 354.285 336.065 344.925 335.005 336.665C330.135 334.455 325.405 331.805 320.925 328.765C310.695 321.835 302.045 313.145 295.215 302.955C290.735 302.865 286.405 303.495 282.385 304.845C282.225 304.905 282.045 304.865 281.905 304.755C281.775 304.645 281.705 304.475 281.735 304.295C284.615 284.185 279.905 264.205 269.455 252.155C263.175 244.915 255.345 241.095 246.805 241.095C226.575 241.095 212.045 274.535 206.735 288.905C206.675 289.085 206.515 289.205 206.325 289.225C206.145 289.255 205.955 289.165 205.855 289.005C200.705 281.375 193.665 278.825 184.945 281.425C157.225 289.695 139.895 319.205 135.525 343.125C132.895 357.515 132.255 394.435 147.475 410.385C152.775 415.945 159.515 418.215 167.505 417.135C174.275 416.225 180.105 413.585 184.815 409.295C184.995 409.125 185.275 409.125 185.465 409.275C190.055 413.035 196.725 414.685 205.325 414.175C223.415 413.105 238.195 392.755 247.415 375.865C247.505 375.705 247.675 375.605 247.855 375.605L247.845 375.625Z" fill="#FF463F" stroke="#070600" stroke-miterlimit="10"/>
<path d="M404.825 61.0954C423.595 72.6054 421.355 89.2354 417.685 99.1754C426.205 94.9054 436.515 91.6154 443.375 95.8054C447.095 98.0754 448.915 100.515 449.585 102.865C452.255 102.505 455.135 102.885 458.155 104.435C472.165 111.595 458.065 133.475 451.035 140.475C444.005 147.485 429.845 155.035 416.595 150.705C412.045 149.215 410.585 145.945 410.635 142.295C404.325 146.705 390.715 154.925 383.215 149.725C374.195 143.465 376.125 128.105 386.475 116.955C384.685 116.435 382.855 115.575 381.065 114.255C381.165 108.865 380.245 103.365 378.185 98.0354C377.285 95.7054 376.195 93.4854 374.945 91.4054C376.745 87.8954 379.575 84.6254 383.035 81.8554C385.515 79.8654 387.775 78.5654 389.795 77.7254C379.545 75.7054 367.745 72.8054 365.745 69.8554C362.085 64.4654 376.475 43.7054 404.835 61.1054L404.825 61.0954Z" fill="#FF463F" stroke="#070600" stroke-miterlimit="10"/>
<path d="M424.705 152.455C421.925 152.455 419.145 152.055 416.445 151.175C412.505 149.885 410.395 147.215 410.155 143.225C402.825 148.245 390.255 155.215 382.925 150.125C379.575 147.805 377.545 144.195 377.055 139.675C376.275 132.515 379.535 123.965 385.575 117.185C383.895 116.605 382.275 115.755 380.765 114.645C380.635 114.545 380.555 114.395 380.565 114.235C380.665 108.755 379.715 103.355 377.715 98.2054C376.835 95.9254 375.755 93.7254 374.515 91.6554C374.425 91.5054 374.425 91.3254 374.495 91.1654C376.265 87.7054 379.115 84.3454 382.715 81.4554C384.535 79.9954 386.365 78.8054 388.175 77.9054C374.655 75.1654 366.965 72.5454 365.325 70.1254C363.775 67.8454 365.105 63.4954 368.425 60.0154C374.775 53.3554 387.745 50.0354 405.095 60.6654C423.715 72.0854 421.805 88.6054 418.575 98.1754C429.565 92.8654 437.995 91.9254 443.645 95.3654C446.945 97.3754 449.065 99.7154 449.945 102.305C452.805 102.005 455.645 102.565 458.395 103.975C461.855 105.745 463.895 108.495 464.475 112.165C466.055 122.275 456.155 136.075 451.395 140.815C445.155 147.035 434.965 152.445 424.715 152.445L424.705 152.455ZM410.635 141.785C410.715 141.785 410.795 141.805 410.865 141.845C411.035 141.935 411.135 142.105 411.135 142.295C411.085 146.315 412.975 148.985 416.755 150.225C429.055 154.255 442.965 147.805 450.685 140.115C455.855 134.965 464.915 121.515 463.475 112.325C462.955 108.995 461.085 106.485 457.925 104.865C455.225 103.485 452.445 102.975 449.645 103.345C449.395 103.375 449.165 103.225 449.095 102.985C448.375 100.475 446.365 98.2054 443.105 96.2154C436.225 92.0254 425.605 95.7454 417.895 99.6054C417.715 99.6954 417.495 99.6654 417.335 99.5354C417.185 99.3954 417.125 99.1854 417.195 98.9854C421.275 87.9254 422.385 72.4554 404.545 61.5054C387.715 51.1754 375.215 54.3154 369.125 60.6854C365.825 64.1454 365.005 67.9054 366.125 69.5454C367.635 71.7654 376.065 74.4854 389.865 77.2054C390.085 77.2454 390.245 77.4254 390.265 77.6454C390.285 77.8654 390.165 78.0754 389.955 78.1554C387.785 79.0554 385.555 80.4154 383.315 82.2054C379.905 84.9354 377.205 88.0954 375.485 91.3454C376.695 93.3954 377.755 95.5654 378.615 97.8054C380.625 102.995 381.605 108.425 381.535 113.955C383.115 115.085 384.815 115.915 386.575 116.425C386.745 116.475 386.875 116.605 386.915 116.775C386.965 116.945 386.915 117.125 386.795 117.245C380.605 123.905 377.245 132.445 378.005 139.525C378.465 143.745 380.345 147.105 383.445 149.265C390.805 154.375 404.675 145.775 410.295 141.835C410.385 141.775 410.485 141.745 410.585 141.745L410.635 141.785Z" fill="#FF463F" stroke="#070600" stroke-miterlimit="10"/>
<path d="M335.465 336.825C335.215 336.825 335.005 336.645 334.975 336.395C334.925 336.035 334.875 335.675 334.815 335.325C334.755 334.945 334.695 334.565 334.625 334.205C331.435 316.615 318.995 305.635 299.585 303.275C298.985 303.205 298.395 303.145 297.815 303.105C297.775 303.105 297.745 303.105 297.705 303.085C297.335 303.055 296.965 303.035 296.595 303.015C296.215 302.985 295.865 302.975 295.515 302.965L295.485 302.465V301.965C295.905 301.975 296.275 301.985 296.655 302.015C297.055 302.035 297.475 302.055 297.895 302.095C297.925 302.095 297.955 302.095 297.975 302.115C298.545 302.155 299.115 302.215 299.695 302.285C319.575 304.695 332.325 315.965 335.605 334.025C335.675 334.395 335.735 334.785 335.795 335.165C335.855 335.525 335.905 335.895 335.955 336.265C335.995 336.535 335.805 336.795 335.525 336.825C335.505 336.825 335.485 336.825 335.455 336.825H335.465Z" fill="#FF463F" stroke="#070600" stroke-miterlimit="10"/>
<path d="M254.045 335.395C254.045 335.395 253.945 335.395 253.895 335.375C253.635 335.295 253.485 335.015 253.565 334.745C253.635 334.505 261.285 310.875 282.065 303.905C282.325 303.815 282.615 303.955 282.695 304.215C282.785 304.475 282.645 304.765 282.385 304.845C262.095 311.655 254.595 334.805 254.525 335.045C254.455 335.255 254.265 335.395 254.045 335.395Z" fill="#FF463F" stroke="#070600" stroke-miterlimit="10"/>
<path d="M293.425 395.506C293.245 395.506 293.065 395.406 292.975 395.226C292.855 394.976 292.955 394.676 293.195 394.556C293.345 394.486 308.215 387.056 325.505 379.496C325.755 379.386 326.055 379.496 326.165 379.756C326.275 380.006 326.165 380.306 325.905 380.416C308.635 387.966 293.785 395.376 293.635 395.456C293.565 395.496 293.485 395.506 293.415 395.506H293.425Z" fill="#FF463F" stroke="#070600" stroke-miterlimit="10"/>
<path d="M247.845 376.625C247.625 376.625 247.415 376.475 247.365 376.255C244.375 364.725 244.225 355.725 244.215 355.635C244.215 355.355 244.435 355.135 244.705 355.125C244.975 355.125 245.205 355.345 245.205 355.615C245.205 355.705 245.365 364.585 248.315 375.995C248.385 376.265 248.225 376.535 247.955 376.605C247.915 376.615 247.875 376.625 247.835 376.625H247.845Z" fill="#FF463F" stroke="#070600" stroke-miterlimit="10"/>
<path d="M336.945 437.425V508.605C336.945 511.105 334.915 513.135 332.415 513.135H159.745C155.675 508.695 144.605 496.665 131.765 483.085V428.545C131.765 426.045 133.795 424.015 136.295 424.015H220.395C221.985 424.015 223.455 424.845 224.275 426.215C225.165 427.695 226.655 428.405 228.135 428.405C229.925 428.405 231.705 427.375 232.405 425.415L236.725 413.455C238.175 409.465 243.755 409.495 245.245 413.465C248.135 421.185 254.125 429.335 266.485 432.305C287.105 437.255 319.545 434.325 331.915 432.925C334.605 432.615 336.945 434.715 336.945 437.425Z" fill="#FF463F" stroke="#070600" stroke-miterlimit="10"/>
<path d="M332.415 513.635H159.745C159.605 513.635 159.475 513.575 159.375 513.475C155.245 508.975 144.265 497.035 131.395 483.435C131.305 483.345 131.255 483.215 131.255 483.095V428.555C131.255 425.785 133.515 423.525 136.285 423.525H220.385C222.145 423.525 223.795 424.465 224.695 425.965C225.425 427.185 226.715 427.915 228.125 427.915C229.855 427.915 231.345 426.875 231.925 425.255L236.245 413.295C236.985 411.265 238.775 409.995 240.925 409.985C243.055 409.955 244.945 411.275 245.705 413.295C249.395 423.145 256.415 429.375 266.595 431.825C287.025 436.725 319.035 433.885 331.855 432.435C333.275 432.275 334.695 432.725 335.765 433.665C336.835 434.615 337.445 435.985 337.445 437.425V508.605C337.445 511.375 335.185 513.635 332.415 513.635ZM159.965 512.635H332.415C334.635 512.635 336.445 510.825 336.445 508.605V437.425C336.445 436.275 335.955 435.175 335.095 434.405C334.245 433.645 333.105 433.285 331.965 433.415C319.095 434.875 286.945 437.725 266.365 432.785C255.845 430.255 248.585 423.815 244.775 413.635C244.035 411.665 242.325 410.965 240.955 410.965H240.935C239.595 410.965 237.905 411.675 237.195 413.615L232.875 425.575C232.155 427.595 230.295 428.895 228.135 428.895C226.365 428.895 224.765 427.985 223.845 426.465C223.125 425.255 221.805 424.505 220.395 424.505H136.295C134.075 424.505 132.265 426.315 132.265 428.535V482.875C144.925 496.265 155.745 508.015 159.965 512.625V512.635Z" fill="#FF463F" stroke="#070600" stroke-miterlimit="10"/>
<path d="M336.945 514.665C336.665 514.665 336.445 514.445 336.445 514.165V513.135C336.445 512.855 336.665 512.635 336.945 512.635C337.225 512.635 337.445 512.855 337.445 513.135V514.165C337.445 514.445 337.225 514.665 336.945 514.665Z" fill="#FF463F" stroke="#070600" stroke-miterlimit="10"/>
<path d="M129.945 237.506C130.175 234.246 131.765 229.876 134.965 230.526C136.315 230.806 137.265 231.976 138.105 233.076C147.485 245.426 156.875 257.776 166.255 270.126C169.235 274.056 172.355 279.226 170.015 283.566C168.835 285.766 166.515 287.076 164.265 288.166C158.205 291.096 151.415 293.546 147.575 299.076C144.645 303.306 143.025 317.476 135.935 315.146C130.555 313.386 129.855 295.496 129.345 290.986C127.355 273.216 128.665 255.266 129.935 237.496L129.945 237.506Z" fill="#CAA8F5" stroke="#070600" stroke-miterlimit="10"/>
<path d="M137.475 315.916C136.945 315.916 136.385 315.826 135.785 315.626C130.815 313.996 129.685 300.656 129.085 293.486C129.005 292.486 128.925 291.646 128.865 291.046C126.885 273.326 128.185 255.236 129.435 237.746L129.455 237.476C129.615 235.206 130.455 232.076 132.295 230.676C133.125 230.046 134.055 229.836 135.075 230.046C136.675 230.376 137.785 231.826 138.515 232.786L166.665 269.836C169.515 273.586 173.005 279.106 170.465 283.816C169.235 286.096 166.865 287.476 164.495 288.626C163.545 289.086 162.575 289.536 161.595 289.986C156.465 292.366 151.155 294.816 148.005 299.366C147.165 300.576 146.415 302.716 145.615 304.996C143.875 309.926 141.765 315.916 137.485 315.916H137.475ZM129.945 237.506L130.445 237.546L130.425 237.816C129.175 255.266 127.885 273.306 129.855 290.936C129.925 291.546 129.995 292.386 130.075 293.406C130.575 299.346 131.745 313.256 136.095 314.686C140.595 316.166 142.755 310.056 144.655 304.666C145.475 302.326 146.255 300.116 147.165 298.806C150.475 294.026 155.905 291.516 161.165 289.086C162.135 288.636 163.105 288.186 164.045 287.736C166.265 286.656 168.475 285.386 169.575 283.346C171.835 279.146 168.535 273.966 165.855 270.446L137.705 233.396C136.865 232.286 136.005 231.266 134.865 231.036C134.135 230.886 133.485 231.036 132.895 231.486C131.425 232.606 130.605 235.336 130.445 237.556L129.945 237.516V237.506Z" fill="#CAA8F5" stroke="#070600" stroke-miterlimit="10"/>
<path d="M210.425 345.746C210.425 345.746 210.365 345.746 210.335 345.746C210.065 345.696 209.885 345.435 209.925 345.165C213.315 325.945 211.745 306.035 205.375 287.585C205.285 287.325 205.425 287.036 205.685 286.946C205.945 286.856 206.235 286.996 206.325 287.256C212.745 305.866 214.335 325.945 210.915 345.335C210.875 345.576 210.665 345.746 210.425 345.746Z" fill="#FF463F" stroke="#070600" stroke-miterlimit="10"/>
<path d="M182.195 413.925C182.105 413.925 182.005 413.895 181.925 413.845C181.695 413.695 181.625 413.385 181.775 413.155C188.395 402.925 191.445 390.605 190.365 378.465C190.345 378.195 190.545 377.945 190.815 377.925C191.065 377.905 191.335 378.105 191.355 378.375C192.455 390.735 189.345 403.275 182.605 413.695C182.505 413.845 182.345 413.925 182.185 413.925H182.195Z" fill="#FF463F" stroke="#070600" stroke-miterlimit="10"/>
<path d="M405.925 179.855C407.425 180.865 409.005 178.545 407.505 177.525C406.005 176.505 404.425 178.835 405.925 179.855Z" fill="#FF463F" stroke="#070600" stroke-miterlimit="10"/>
<path d="M418.105 186.055C419.605 187.065 421.185 184.745 419.685 183.725C418.185 182.705 416.605 185.035 418.105 186.055Z" fill="#FF463F" stroke="#070600" stroke-miterlimit="10"/>
<path d="M397.575 180.485C396.025 186.595 398.535 193.555 404.005 196.885C409.445 200.205 416.785 199.505 421.555 195.305C422.915 194.105 421.085 191.975 419.725 193.165C415.915 196.515 409.965 197.235 405.575 194.555C401.225 191.895 398.975 186.315 400.235 181.375C400.675 179.635 398.015 178.715 397.575 180.475V180.485Z" fill="#FF463F" stroke="#070600" stroke-miterlimit="10"/>
<path d="M106.475 513.565C106.475 513.565 106.465 513.565 106.455 513.565L18.395 509.775C18.115 509.765 17.905 509.525 17.915 509.255C17.925 508.985 18.145 508.755 18.435 508.775L105.265 512.515C97.755 504.605 89.285 497.625 81.095 490.865C72.475 483.765 63.565 476.415 55.755 467.985C54.225 466.345 52.335 464.295 51.735 461.725C51.155 459.185 52.365 455.925 55.035 455.285C56.205 454.995 57.385 455.275 58.495 455.575C84.825 463.095 103.925 493.925 109.155 503.205C109.295 503.445 109.205 503.755 108.965 503.885C108.725 504.015 108.415 503.935 108.285 503.695C103.105 494.505 84.175 463.945 58.225 456.545C57.205 456.265 56.215 456.035 55.275 456.255C53.165 456.755 52.235 459.425 52.715 461.495C53.255 463.795 55.045 465.735 56.495 467.295C64.265 475.675 73.155 483.005 81.745 490.085C90.275 497.115 99.095 504.385 106.855 512.715C106.995 512.865 107.025 513.085 106.945 513.265C106.865 513.445 106.685 513.555 106.495 513.555L106.475 513.565Z" fill="#FF463F" stroke="#070600" stroke-miterlimit="10"/>
<path d="M161.405 515.455C161.275 515.455 161.135 515.405 161.035 515.295C161.035 515.295 160.445 514.655 159.375 513.475C155.255 508.975 144.265 497.035 131.405 483.435C111.365 462.215 85.805 435.905 77.815 431.105C76.955 430.595 76.325 430.435 76.095 430.665C73.525 433.125 86.815 462.285 109.165 503.225C109.295 503.445 109.395 503.645 109.485 503.805L109.535 503.905C109.575 503.975 109.605 504.035 109.645 504.095C109.645 504.105 109.655 504.115 109.665 504.135C109.725 504.245 109.745 504.285 109.765 504.325C109.885 504.575 109.785 504.875 109.535 504.995C109.295 505.115 108.985 505.015 108.865 504.765L108.825 504.705C108.825 504.705 108.765 504.605 108.765 504.595C108.765 504.595 108.765 504.595 108.765 504.585C108.725 504.515 108.685 504.435 108.655 504.375L108.605 504.285C108.515 504.125 108.415 503.935 108.285 503.715C96.935 482.925 71.025 434.145 75.395 429.945C76.325 429.055 77.835 429.955 78.325 430.255C86.425 435.115 112.055 461.485 132.135 482.755C145.005 496.365 155.995 508.305 160.125 512.815C161.195 513.995 161.785 514.635 161.785 514.635C161.975 514.835 161.955 515.155 161.755 515.345C161.655 515.435 161.535 515.475 161.415 515.475L161.405 515.455Z" fill="#FF463F" stroke="#070600" stroke-miterlimit="10"/>
<path d="M604.245 513.635C604.125 513.635 604.005 513.595 603.905 513.505C603.705 513.315 603.695 513.005 603.875 512.795C607.845 508.495 612.455 503.575 616.835 498.935C618.705 496.955 620.635 494.915 622.585 492.885C643.555 452.245 643.585 445.765 642.625 444.865C642.385 444.635 641.755 444.805 640.905 445.315C632.905 450.115 607.345 476.415 587.315 497.635C583.965 501.175 580.735 504.615 577.715 507.835C577.525 508.035 577.215 508.045 577.005 507.855C576.805 507.665 576.795 507.345 576.985 507.145C580.005 503.925 583.235 500.485 586.585 496.945C606.665 475.675 632.295 449.305 640.395 444.445C640.885 444.145 642.385 443.255 643.315 444.125C644.245 444.995 647.065 447.635 623.445 493.405C623.425 493.445 623.395 493.485 623.365 493.525C621.395 495.575 619.455 497.625 617.565 499.625C613.175 504.265 608.575 509.185 604.605 513.485C604.505 513.595 604.375 513.645 604.235 513.645L604.245 513.635Z" fill="#FF463F" stroke="#070600" stroke-miterlimit="10"/>
<path d="M572.095 513.635C571.975 513.635 571.855 513.595 571.755 513.505C571.555 513.315 571.545 513.005 571.725 512.795C573.385 511.005 575.145 509.115 576.985 507.145C577.175 506.945 577.495 506.935 577.695 507.125C577.895 507.315 577.905 507.625 577.715 507.835C575.875 509.805 574.115 511.695 572.455 513.485C572.355 513.595 572.225 513.646 572.085 513.646L572.095 513.635Z" fill="#FF463F" stroke="#070600" stroke-miterlimit="10"/>
<path d="M604.245 513.635C604.125 513.635 604.005 513.595 603.905 513.505C603.705 513.315 603.695 513.005 603.875 512.795C607.845 508.495 612.455 503.575 616.835 498.935C618.725 496.935 620.665 494.885 622.635 492.835C638.285 476.455 648.125 467.005 651.885 464.745C652.825 464.185 653.535 464.125 654.005 464.565C656.665 467.125 643.855 492.195 632.635 512.775L632.375 513.225C632.375 513.225 632.345 513.285 632.325 513.325C632.255 513.505 632.075 513.635 631.865 513.635C631.585 513.635 631.365 513.415 631.365 513.135C631.365 513.075 631.375 513.005 631.405 512.945C631.425 512.895 631.445 512.845 631.485 512.795L631.765 512.285C648.495 481.585 654.645 466.555 653.315 465.275C653.285 465.245 653.035 465.205 652.405 465.585C648.775 467.775 638.725 477.425 623.355 493.515C621.385 495.565 619.445 497.615 617.555 499.615C613.165 504.255 608.565 509.175 604.595 513.475C604.495 513.585 604.365 513.635 604.225 513.635H604.245Z" fill="#FF463F" stroke="#070600" stroke-miterlimit="10"/>
<path d="M631.815 513.735C631.715 513.735 631.615 513.705 631.535 513.645C631.305 513.485 631.245 513.175 631.405 512.945L631.465 512.845C631.625 512.615 631.935 512.555 632.165 512.715C632.395 512.875 632.455 513.175 632.295 513.405C632.295 513.415 632.235 513.505 632.235 513.505C632.135 513.645 631.985 513.725 631.825 513.725L631.815 513.735Z" fill="#FF463F" stroke="#070600" stroke-miterlimit="10"/>
<path d="M669.585 513.635H631.875C631.595 513.635 631.375 513.415 631.375 513.135C631.375 512.855 631.595 512.635 631.875 512.635H669.585C669.865 512.635 670.085 512.855 670.085 513.135C670.085 513.415 669.865 513.635 669.585 513.635Z" fill="#FF463F" stroke="#070600" stroke-miterlimit="10"/>
<path d="M572.905 513.635H159.745C159.465 513.635 159.245 513.415 159.245 513.135C159.245 512.855 159.465 512.635 159.745 512.635H572.905C573.185 512.635 573.405 512.855 573.405 513.135C573.405 513.415 573.185 513.635 572.905 513.635Z" fill="#FF463F" stroke="#070600" stroke-miterlimit="10"/>
<path d="M307.735 46.7353L359.325 1.70532L357.665 35.3653L420.245 4.58532L392.025 50.0953L459.715 63.9953L388.305 77.6953L361.475 120.235L362.545 68.6653L329.375 93.7953L338.505 59.1653L315.335 66.0053L330.145 43.7953L307.735 46.7353Z" fill="#FF463F" stroke="#070600" stroke-miterlimit="10"/>
<path d="M361.475 120.735C361.475 120.735 361.375 120.735 361.335 120.715C361.115 120.655 360.975 120.455 360.975 120.225L362.025 69.6953L329.675 94.2053C329.505 94.3353 329.275 94.3453 329.095 94.2253C328.915 94.1053 328.835 93.8853 328.885 93.6853L337.785 59.9053L315.475 66.4953C315.275 66.5553 315.055 66.4853 314.935 66.3153C314.815 66.1453 314.805 65.9153 314.925 65.7453L329.125 44.4453L307.805 47.2453C307.575 47.2753 307.375 47.1553 307.285 46.9553C307.195 46.7553 307.245 46.5153 307.415 46.3753L358.995 1.32535C359.145 1.19535 359.365 1.16535 359.545 1.25535C359.725 1.34535 359.835 1.52535 359.825 1.72535L358.215 34.5353L420.035 4.13535C420.235 4.03535 420.475 4.08535 420.625 4.24535C420.775 4.41535 420.795 4.65535 420.675 4.84535L392.835 49.7453L459.825 63.5053C460.055 63.5553 460.225 63.7553 460.225 63.9953C460.225 64.2353 460.055 64.4353 459.815 64.4853L388.615 78.1353L361.895 120.495C361.805 120.645 361.645 120.725 361.475 120.725V120.735ZM362.545 68.1653C362.625 68.1653 362.705 68.1853 362.775 68.2153C362.945 68.3053 363.055 68.4753 363.045 68.6753L362.005 118.445L387.875 77.4253C387.945 77.3053 388.065 77.2253 388.205 77.2053L457.145 63.9853L391.915 50.5853C391.755 50.5553 391.625 50.4454 391.555 50.2953C391.485 50.1453 391.505 49.9753 391.585 49.8353L418.885 5.80535L357.865 35.8053C357.705 35.8853 357.515 35.8753 357.365 35.7753C357.215 35.6754 357.135 35.5053 357.145 35.3353L358.745 2.85535L309.295 46.0253L330.065 43.2953C330.275 43.2654 330.455 43.3554 330.555 43.5253C330.655 43.6953 330.655 43.9053 330.555 44.0653L316.505 65.1353L338.345 58.6853C338.515 58.6353 338.705 58.6853 338.835 58.8053C338.965 58.9353 339.015 59.1153 338.965 59.2953L330.205 92.5353L362.225 68.2753C362.315 68.2053 362.415 68.1753 362.525 68.1753L362.545 68.1653Z" fill="#FF463F" stroke="#070600" stroke-miterlimit="10"/>
<path d="M472.559 125.169L443.845 151.279C440.049 154.73 439.77 160.606 443.222 164.402L518.711 247.422C522.163 251.218 528.039 251.497 531.835 248.046L560.549 221.936C564.345 218.484 564.624 212.609 561.172 208.813L485.683 125.793C482.231 121.997 476.355 121.717 472.559 125.169Z" fill="#CAA8F5" stroke="#070600" stroke-miterlimit="10"/>
<path d="M525.595 250.976C522.925 250.976 520.275 249.896 518.345 247.776L442.865 164.756C441.105 162.816 440.205 160.316 440.325 157.706C440.445 155.096 441.585 152.686 443.515 150.926L472.225 124.826C476.215 121.196 482.425 121.486 486.055 125.486L561.535 208.506C565.165 212.506 564.875 218.706 560.875 222.336L532.165 248.436C530.295 250.136 527.935 250.976 525.585 250.976H525.595ZM478.815 123.276C476.705 123.276 474.585 124.026 472.905 125.556L444.195 151.656C442.455 153.236 441.435 155.396 441.325 157.746C441.215 160.096 442.025 162.346 443.605 164.076L519.085 247.096C522.345 250.686 527.915 250.946 531.505 247.686L560.215 221.586C563.805 218.326 564.065 212.756 560.805 209.166L485.325 126.146C483.595 124.236 481.205 123.276 478.815 123.276Z" fill="#CAA8F5" stroke="#070600" stroke-miterlimit="10"/>
<path d="M555.925 512.115C551.135 513.875 545.895 513.675 540.825 513.445C517.135 512.415 511.505 514.225 495.825 513.145C479.925 514.225 474.365 512.435 450.555 513.445C445.475 513.655 440.245 513.855 435.475 512.145C425.325 508.545 423.445 498.355 431.335 491.255C436.535 486.575 442.795 483.125 449.485 481.105C448.795 480.715 448.115 480.305 447.465 479.885C438.695 474.185 425.535 459.685 438.235 450.885C441.265 448.775 444.945 447.125 448.985 445.885C438.975 442.995 431.165 437.115 429.735 426.275C427.265 407.645 441.535 398.125 458.875 394.025C449.025 390.195 441.235 383.695 436.995 375.405C431.635 364.975 431.975 351.905 436.995 341.845C442.975 329.865 455.985 321.385 472.025 318.935C462.795 316.065 453.195 310.845 445.615 301.595C443.005 298.405 430.795 283.495 434.115 266.115C439.065 240.095 474.775 230.085 482.985 227.785C490.655 225.635 498.755 224.375 506.915 223.945C507.585 223.915 508.255 223.905 508.925 223.905C521.625 224.045 534.075 228.295 543.705 236.575C550.265 242.225 555.565 249.465 557.265 258.645C560.585 276.555 548.375 291.905 545.765 295.185C540.615 301.665 534.535 306.225 528.245 309.415C525.295 310.905 522.315 312.115 519.375 313.055C535.415 315.595 548.425 324.325 554.385 336.655C559.405 347.015 559.745 360.475 554.385 371.225C550.145 379.745 542.375 386.455 532.525 390.395C549.845 394.635 564.135 404.455 561.645 423.635C560.205 434.815 552.395 440.845 542.395 443.815C546.445 445.115 550.115 446.815 553.145 448.975C565.855 458.045 552.685 472.985 543.915 478.845C543.255 479.285 542.585 479.715 541.875 480.125C548.565 482.205 554.825 485.755 560.045 490.575C567.945 497.905 566.065 508.375 555.925 512.105V512.115Z" fill="#F45B69" stroke="#070600" stroke-miterlimit="10"/>
<path d="M545.855 514.095C544.125 514.095 542.425 514.015 540.795 513.945C528.635 513.415 521.285 513.635 514.795 513.835C508.695 514.015 503.425 514.175 495.785 513.645C488.075 514.175 482.765 514.015 476.605 513.835C470.115 513.645 462.755 513.425 450.565 513.945C445.715 514.145 440.215 514.375 435.295 512.625C430.325 510.865 426.985 507.415 426.145 503.165C425.295 498.895 427.065 494.425 430.995 490.895C435.875 486.505 441.815 483.085 448.255 480.975C447.895 480.755 447.535 480.535 447.185 480.305C442.145 477.035 432.595 468.585 432.465 460.035C432.405 456.255 434.255 453.035 437.945 450.485C440.535 448.685 443.685 447.145 447.325 445.905C436.575 442.385 430.495 435.815 429.235 426.345C426.585 406.345 442.655 397.675 457.255 393.915C447.875 389.935 440.555 383.485 436.545 375.645C431.315 365.465 431.315 352.115 436.545 341.635C442.315 330.085 454.705 321.645 469.945 318.795C459.855 315.305 451.545 309.645 445.225 301.925C435.575 290.105 431.455 277.365 433.625 266.035C435.905 254.035 446.295 237.585 482.835 227.325C490.425 225.195 498.515 223.905 506.895 223.465C507.575 223.425 508.255 223.425 508.935 223.425C522.145 223.565 534.615 228.115 544.035 236.215C551.605 242.735 556.225 250.255 557.755 258.565C559.925 270.245 555.805 283.365 546.165 295.495C541.405 301.485 535.455 306.325 528.475 309.865C526.185 311.025 523.805 312.045 521.395 312.905C536.675 315.845 549.085 324.545 554.845 336.445C560.065 347.225 560.065 360.965 554.845 371.455C550.805 379.555 543.475 386.205 534.105 390.285C548.725 394.165 564.815 403.105 562.155 423.705C560.895 433.465 554.805 440.235 544.015 443.835C547.675 445.125 550.845 446.715 553.445 448.575C557.135 451.215 558.985 454.525 558.925 458.415C558.785 467.225 549.245 475.905 544.205 479.265C543.825 479.525 543.455 479.765 543.085 479.985C549.525 482.145 555.485 485.665 560.395 490.205C564.345 493.875 566.105 498.505 565.225 502.915C564.355 507.235 561.035 510.755 556.115 512.565C552.805 513.775 549.285 514.075 545.875 514.075L545.855 514.095ZM526.555 512.615C530.535 512.615 535.165 512.695 540.845 512.945C545.585 513.165 550.955 513.405 555.755 511.645C560.345 509.955 563.435 506.705 564.235 502.735C565.045 498.675 563.395 494.375 559.705 490.955C554.635 486.265 548.415 482.695 541.725 480.615C541.535 480.555 541.395 480.395 541.375 480.195C541.355 479.995 541.455 479.805 541.625 479.705C542.285 479.325 542.945 478.915 543.635 478.445C549.305 474.655 557.785 466.195 557.905 458.405C557.955 454.865 556.255 451.825 552.845 449.395C549.985 447.355 546.415 445.635 542.225 444.295C542.015 444.225 541.875 444.035 541.875 443.815C541.875 443.595 542.025 443.405 542.235 443.345C553.525 440.005 559.875 433.355 561.135 423.585C563.795 403.035 546.975 394.465 532.385 390.895C532.175 390.845 532.025 390.665 532.005 390.445C531.995 390.225 532.115 390.025 532.315 389.945C542.125 386.025 549.795 379.305 553.915 371.025C559.005 360.805 559.005 347.405 553.915 336.895C548.065 324.795 535.115 316.075 519.275 313.565C519.045 313.525 518.875 313.345 518.855 313.105C518.835 312.875 518.985 312.665 519.205 312.595C522.205 311.635 525.165 310.425 528.005 308.985C534.855 305.505 540.685 300.765 545.355 294.885C554.815 282.975 558.865 270.145 556.755 258.745C555.265 250.655 550.755 243.335 543.365 236.965C534.125 229.015 521.895 224.555 508.905 224.415C508.245 224.415 507.585 224.415 506.935 224.455C498.635 224.885 490.615 226.175 483.115 228.275C447.055 238.405 436.825 254.495 434.595 266.215C432.485 277.245 436.525 289.685 445.975 301.255C452.585 309.315 461.395 315.095 472.165 318.455C472.385 318.525 472.535 318.735 472.515 318.975C472.495 319.205 472.325 319.395 472.095 319.435C456.265 321.855 443.305 330.315 437.435 342.075C432.345 352.275 432.345 365.275 437.435 375.185C441.545 383.205 449.215 389.735 459.055 393.565C459.255 393.645 459.385 393.845 459.375 394.065C459.355 394.285 459.205 394.465 458.995 394.515C444.415 397.965 427.595 406.255 430.235 426.205C431.495 435.685 437.845 442.135 449.135 445.395C449.345 445.455 449.495 445.655 449.495 445.875C449.495 446.095 449.355 446.295 449.145 446.355C444.965 447.635 441.395 449.305 438.525 451.295C435.125 453.655 433.425 456.585 433.475 460.015C433.585 467.555 442.065 475.775 447.745 479.465C448.395 479.885 449.065 480.295 449.745 480.675C449.915 480.775 450.015 480.965 449.995 481.165C449.975 481.365 449.835 481.535 449.645 481.585C442.935 483.615 436.725 487.085 431.685 491.625C428.025 494.915 426.375 499.045 427.145 502.955C427.915 506.845 431.015 510.025 435.645 511.665C440.385 513.355 445.785 513.135 450.545 512.935C462.765 512.415 470.145 512.635 476.655 512.825C482.785 513.005 488.075 513.165 495.805 512.635C503.465 513.155 508.715 513.005 514.795 512.825C518.275 512.725 522.005 512.605 526.585 512.605L526.555 512.615Z" fill="#F45B69" stroke="#070600" stroke-miterlimit="10"/>
<path d="M455.875 254.665L487.675 338.155L447.235 320.915L456.605 411.415L413.665 356.315L366.055 432.875L381.575 339.285L341.635 287.215L404.265 311.845L388.495 259.875L426.765 286.705L428.855 255.255L449.345 283.425L455.875 254.665Z" fill="#FF463F" stroke="#070600" stroke-miterlimit="10"/>
<path d="M366.055 433.375C365.995 433.375 365.935 433.365 365.875 433.345C365.655 433.265 365.515 433.035 365.555 432.795L381.035 339.425L341.235 287.525C341.095 287.345 341.095 287.095 341.235 286.925C341.365 286.745 341.605 286.675 341.815 286.765L403.485 311.005L388.015 260.035C387.955 259.835 388.025 259.615 388.205 259.485C388.375 259.355 388.615 259.355 388.785 259.485L426.325 285.805L428.355 255.245C428.365 255.035 428.515 254.855 428.715 254.795C428.915 254.735 429.135 254.815 429.255 254.985L449.095 282.265L455.375 254.575C455.425 254.365 455.605 254.205 455.825 254.185C456.045 254.165 456.245 254.295 456.325 254.505L488.125 337.995C488.195 338.185 488.145 338.395 488.005 338.535C487.865 338.675 487.645 338.715 487.465 338.635L447.805 321.725L457.095 411.375C457.115 411.595 456.995 411.805 456.785 411.895C456.575 411.975 456.345 411.915 456.205 411.735L413.705 357.195L366.475 433.155C366.385 433.305 366.215 433.395 366.055 433.395V433.375ZM343.125 288.345L381.965 338.985C382.045 339.095 382.085 339.235 382.065 339.375L366.955 430.475L413.235 356.045C413.325 355.905 413.475 355.815 413.635 355.805C413.795 355.795 413.955 355.865 414.055 355.995L455.925 409.725L446.725 320.965C446.705 320.785 446.785 320.615 446.925 320.515C447.065 320.415 447.255 320.385 447.415 320.455L486.775 337.235L455.985 256.395L449.825 283.545C449.785 283.735 449.635 283.885 449.435 283.925C449.245 283.965 449.045 283.885 448.935 283.725L429.255 256.675L427.255 286.745C427.245 286.925 427.135 287.085 426.975 287.165C426.815 287.245 426.625 287.225 426.475 287.125L389.395 261.135L404.745 311.715C404.805 311.895 404.745 312.095 404.605 312.225C404.465 312.355 404.255 312.395 404.085 312.325L343.135 288.365L343.125 288.345Z" fill="#FF463F" stroke="#070600" stroke-miterlimit="10"/>
<path d="M421.865 432.475H351.885C347.34 432.475 343.655 436.16 343.655 440.705V505.195C343.655 509.741 347.34 513.425 351.885 513.425H421.865C426.41 513.425 430.095 509.741 430.095 505.195V440.705C430.095 436.16 426.41 432.475 421.865 432.475Z" fill="#CAA8F5" stroke="#070600" stroke-miterlimit="10"/>
<path d="M421.865 513.925H351.885C347.065 513.925 343.155 510.005 343.155 505.195V440.705C343.155 435.895 347.075 431.975 351.885 431.975H421.865C426.685 431.975 430.595 435.895 430.595 440.705V505.195C430.595 510.005 426.675 513.925 421.865 513.925ZM351.895 432.975C347.635 432.975 344.165 436.445 344.165 440.705V505.195C344.165 509.455 347.635 512.925 351.895 512.925H421.875C426.135 512.925 429.605 509.455 429.605 505.195V440.705C429.605 436.445 426.135 432.975 421.875 432.975H351.895Z" fill="#CAA8F5" stroke="#070600" stroke-miterlimit="10"/>
</g>
<defs>
<clipPath id="clip0_7432_3467">
<rect width="653.17" height="515.4" fill="white" transform="translate(17.415 0.55542)"/>
</clipPath>
</defs>
</svg>
