<?xml version="1.0" encoding="UTF-8"?>
<svg id="Layer_1" data-name="Layer 1" xmlns="http://www.w3.org/2000/svg" viewBox="0 0 479.83 505">
  <defs>
    <style>
      .cls-1 {
        fill: #000;
      }

      .cls-1, .cls-2, .cls-3, .cls-4, .cls-5 {
        stroke-width: 0px;
      }

      .cls-2 {
        fill: #eef0f2;
      }

      .cls-3 {
        fill: #fff;
      }

      .cls-4 {
        fill: #ea8bf3;
      }

      .cls-5 {
        fill: #070600;
      }
    </style>
  </defs>
  <g>
    <g>
      <path class="cls-4" d="M266.42,454.31h-132.49c-5.19-.98-15.34-4.31-8.74-10.6,4.75-4.53,13.65-6.09,19.75-7.54,11.2-2.69,22.73-4.38,34.19-5.55.89-.1,1.77-.19,2.66-.27-2.8.03-5.47.02-8-.02-48.52-.84-49.63-14.69-49.63-14.69,0-15.59,29.21-21.54,49.53-23.79.23-.03.44-.05.67-.07h.01c.22-.03.45-.05.67-.07,2.37-.25,4.59-.45,6.62-.61.44-.03.87-.07,1.29-.1.36-.02.7-.05,1.04-.07.43-.03.84-.06,1.23-.08.47-.03.9-.06,1.33-.08h.01c3.88-.23,6.27-.27,6.27-.27,0,0-2.34.04-6.16-.05-.41-.01-.84-.02-1.28-.04-2.71-.07-6.02-.22-9.69-.48-.21-.01-.42-.03-.63-.04-.21-.02-.42-.03-.63-.05-.51-.04-1.02-.08-1.54-.13-20.84-1.73-50.33-7.21-48.74-24.35,1.85-19.72,40.37-24.69,59.69-25.94h.02c4.43-.29,7.85-.38,9.57-.41.25-.01.47-.01.65-.01.15-.01.28-.01.37-.01h-.37c-.18,0-.39,0-.64,0-3.03-.04-11.37-.3-21.18-1.86-19.69-3.13-45.28-11.47-45.65-33.68-.41-24.27,30.35-33.08,50.65-36.25,9.96-1.56,17.4-1.76,17.4-1.76-15.36.17-27.91-1.23-37.97-3.82-.01,0-.01,0-.01,0-63.45-16.27-28.04-79.41,25.71-91.21,24.59-5.38,54.73-.04,74.67,11.26,6.85,3.88,12.49,8.47,16.29,13.56.11.15.22.29.32.43.11.15.21.3.31.45,4.78,6.86,6.22,14.59,2.84,22.75-.75,1.8-1.63,3.5-2.62,5.1-.07.12-.14.24-.22.35-.07.12-.14.23-.22.35-1.71,2.64-3.73,5.01-5.98,7.16h-.01c-.63.61-1.28,1.19-1.95,1.75-7.41,6.29-16.87,10.35-25.99,12.97-.48.15-.97.28-1.45.41-3.47.95-6.88,1.69-10.09,2.28-.24.04-.47.08-.7.12s-.46.08-.69.12c-5.11.87-9.65,1.34-13.04,1.59,3.12.27,7.25.73,11.89,1.49.2.03.4.06.61.09.2.04.41.07.61.1,2.14.37,4.37.8,6.66,1.3.64.14,1.28.29,1.93.44.4.09.8.19,1.2.29,4.79,1.17,9.72,2.69,14.4,4.62,1.46.61,2.89,1.25,4.28,1.95.37.18.74.36,1.1.55,5.61,2.91,10.56,6.57,14.03,11.18.31.39.59.79.86,1.19,2.85,4.21,4.51,9.16,4.41,14.99-.22,13.06-8.9,21.39-19.99,26.71h-.01c-.51.24-1.04.49-1.56.72h-.01c-6.51,2.91-13.72,4.84-20.49,6.11-.47.09-.94.18-1.4.26-9.47,1.69-17.88,2.13-21.98,2.24-.5.02-.94.02-1.31.03-.52.01-.89.01-1.11.01.22,0,.59.01,1.1.01.36.01.79.02,1.29.03,3.86.11,11.62.44,20.56,1.56.41.05.81.1,1.22.15t.02.01h0c5.48.72,11.36,1.73,17.02,3.17.36.09.71.18,1.07.28h.03s.06.02.09.03c4.98,1.31,9.75,2.96,13.89,5.03.37.18.73.37,1.09.56,3.06,1.63,5.74,3.49,7.86,5.64.15.16.31.32.46.49.16.17.31.34.46.51,2.32,2.67,3.8,5.75,4.13,9.3.75,8.14-5.32,13.69-14.13,17.47-.25.11-.51.22-.77.33-.26.1-.51.2-.77.31-3.46,1.35-7.27,2.47-11.22,3.37-.48.11-.94.22-1.42.32h0c-5.57,1.21-11.35,2.02-16.73,2.57-.45.05-.9.1-1.35.14-7.78.75-14.61.95-18.59,1-.47.01-.91.01-1.3.01-1.52,0-2.37,0-2.37,0,.78,0,1.57.03,2.35.05.43.02.85.03,1.28.05,5.29.2,10.59.62,15.86,1.24.6.08,1.2.15,1.8.24.42.04.83.09,1.24.16,1.53.19,3.05.41,4.56.65.02,0,.04,0,.06.01,1.26.19,2.52.4,3.77.62,1.63.29,3.85.73,6.41,1.33.39.09.79.18,1.2.28,2.78.67,5.89,1.51,9.03,2.5.19.06.39.12.58.18.2.07.39.13.58.19,15.57,5.1,31.19,14.01,11.93,25.72-7.92,4.82-16.37,7.76-25.1,9.51-.23.04-.47.09-.7.14-.23.04-.47.08-.7.13-3.48.64-7,1.1-10.55,1.43-.44.04-.88.07-1.33.11-6.27.51-12.63.6-18.98.51,5.4.08,10.81.29,16.2.63.77.04,1.53.09,2.29.15h.01s.06,0,.08,0c.4.02.79.05,1.18.09,3.23.22,6.46.5,9.68.82h.02c.21.02.42.04.63.06.21.02.42.04.63.06,13.02,1.22,29.13,2.33,39.57,10.69,2.24,1.8,4.34,4.08,4.82,6.93,1.32,8.23-10.24,11.18-21.61,12.23Z"/>
      <path class="cls-5" d="M266.44,454.81h-132.51c-2.41-.45-10.07-2.18-11.25-6.17-.49-1.67.23-3.45,2.17-5.29,4.29-4.09,11.72-5.78,17.7-7.14.79-.18,1.55-.35,2.28-.53,8.41-2.02,17.63-3.62,28.03-4.87-47.51-1-49.15-14.55-49.19-15.13,0-15.54,27.17-21.8,49.97-24.33.23-.03.45-.05.68-.07.21-.03.45-.05.68-.07,1.75-.18,3.52-.35,5.29-.5-1.52-.08-3.07-.17-4.62-.28l-1.27-.09c-.5-.04-1.02-.08-1.54-.13-16.48-1.37-37.82-5.03-45.92-14.69-2.52-3-3.62-6.44-3.27-10.21,1.83-19.54,37.89-24.9,59.62-26.36-3.27-.28-7.06-.7-11.09-1.34-20.81-3.31-45.7-11.92-46.07-34.17-.42-24.97,31.82-33.75,51.07-36.75,2.43-.38,4.71-.68,6.78-.92-10.3-.42-19.46-1.65-27.33-3.67h-.44v-.12c-22.17-5.78-34.22-17.98-33.93-34.36.42-24.24,27.91-50.68,60.02-57.73,23.76-5.2,53.91-.65,75.02,11.31,7.15,4.05,12.68,8.66,16.44,13.7l.33.44c.11.15.21.3.31.45,5.21,7.48,6.18,15.29,2.9,23.23-.74,1.79-1.64,3.53-2.66,5.17-.08.14-.15.26-.24.38-.05.09-.12.2-.21.33-1.65,2.55-3.69,4.99-6.05,7.24-.64.61-1.31,1.21-1.99,1.77-6.56,5.57-15.36,9.96-26.17,13.07-.43.13-.87.25-1.31.37l-.15.04c-3.15.86-6.56,1.63-10.13,2.29l-1.39.24c-2.61.45-5.32.82-8.01,1.12,2.04.24,4.36.56,6.85.97l.6.09c.18.04.35.06.51.08l.11.02c2.27.39,4.52.83,6.69,1.31.55.12,1.1.25,1.66.38l.28.06c.38.08.75.18,1.13.27,5.31,1.3,10.18,2.86,14.55,4.66,1.61.67,3.03,1.32,4.31,1.97.37.18.74.36,1.11.55,6.18,3.2,10.95,7.01,14.2,11.32.31.39.6.8.88,1.21,3.08,4.55,4.59,9.69,4.5,15.28-.2,11.66-7.02,20.79-20.27,27.15l-.11.05c-.49.23-.98.46-1.47.68l-.11.04c-5.81,2.59-12.71,4.64-20.5,6.1-.47.09-.94.18-1.41.26-4.9.88-9.51,1.42-13.39,1.75,3.58.24,7.64.61,11.92,1.14l1.42.19c6.26.82,11.92,1.88,16.91,3.15.34.08.67.17,1.01.26l.13.03c5.45,1.44,10.16,3.14,14.04,5.08.34.16.67.34,1.01.52l.09.05c3.26,1.74,5.95,3.67,7.98,5.73l.16.17c.11.11.21.22.32.34.13.14.27.29.4.44,2.56,2.95,3.99,6.17,4.31,9.65.69,7.52-4.16,13.57-14.43,17.97-.22.1-.46.2-.7.3l-.09.04c-.25.1-.5.2-.75.3-3.36,1.31-7.16,2.45-11.3,3.4l-.33.08c-.37.08-.73.17-1.1.25h-.1c-4.88,1.08-10.53,1.95-16.69,2.58-.45.05-.9.1-1.36.14-3.3.32-6.44.54-9.3.69,2.17.19,4.36.41,6.54.66l.61.08c.4.05.81.1,1.21.16.41.04.83.09,1.25.16,1.44.18,2.94.39,4.55.65h.07c1.26.2,2.52.41,3.77.63,1.41.25,3.67.69,6.44,1.34l.29.07c.3.07.61.14.92.21,3.12.75,6.17,1.6,9.06,2.51l.58.18c.21.07.39.13.58.19,9.23,3.02,20.39,8.04,21.16,14.77.45,3.91-2.62,7.9-9.12,11.85-7.44,4.53-15.7,7.66-25.26,9.57-.24.04-.47.09-.69.14l-.12.02c-.19.03-.39.07-.58.11-3.35.62-6.82,1.09-10.61,1.44l-1.33.11c-.76.06-1.53.12-2.31.17.58.03,1.15.07,1.73.12h.01s.17,0,.17,0c.39.02.79.05,1.19.09,3.07.21,6.24.48,9.68.82l3.18.3c12.42,1.15,27.88,2.57,37.93,10.62,2.94,2.36,4.58,4.73,5,7.24.35,2.16-.13,4.1-1.42,5.76-2.86,3.68-9.8,6.05-20.64,7.05h-.02ZM181.78,429.85l.05,1c-.89.08-1.76.17-2.65.27-12.96,1.32-24.12,3.13-34.13,5.54-.73.17-1.49.35-2.29.53-5.86,1.33-13.15,2.99-17.24,6.89-1.64,1.56-2.28,3-1.9,4.29.81,2.74,6.1,4.65,10.38,5.46h132.37c10.54-.98,17.24-3.23,19.92-6.68,1.13-1.45,1.53-3.08,1.22-4.98-.38-2.25-1.9-4.42-4.64-6.62-9.82-7.86-25.11-9.27-37.4-10.41l-3.17-.3c-3.45-.34-6.61-.61-9.69-.82-.39-.04-.77-.07-1.16-.09h-.07c-.8-.06-1.56-.11-2.33-.15-5.36-.34-10.8-.55-16.18-.63v-1h.02c7.37.1,13.38-.06,18.93-.51l1.33-.11c3.76-.35,7.2-.82,10.5-1.42.19-.04.4-.08.61-.11.31-.06.56-.12.79-.16,9.43-1.89,17.59-4.98,24.93-9.44,6.14-3.74,9.05-7.4,8.65-10.89-.72-6.21-11.53-11-20.48-13.93-.19-.06-.38-.12-.59-.19l-.57-.18c-2.87-.91-5.9-1.74-9-2.49-.31-.08-.61-.14-.91-.21l-.29-.07c-2.75-.65-4.99-1.08-6.39-1.33-1.25-.22-2.5-.43-3.76-.62l-.1-.02c-1.64-.25-3.09-.46-4.51-.64-.42-.07-.82-.12-1.23-.16-.42-.06-.82-.11-1.21-.16l-.61-.08c-5.3-.62-10.63-1.04-15.81-1.23l-1.28-.05c-.77-.02-1.56-.04-2.33-.05v-1h.01s.4,0,1.07,0c.35,0,.78,0,1.29,0h0c.39,0,.82,0,1.28,0,4.3-.05,11.01-.27,18.55-1,.45-.04.9-.09,1.34-.14,6.12-.63,11.73-1.49,16.68-2.56h.11c.27-.08.62-.16.98-.24l.34-.08c4.1-.93,7.85-2.06,11.15-3.35.25-.11.51-.21.77-.31.29-.12.52-.22.75-.32,9.83-4.22,14.48-9.93,13.83-16.97-.3-3.27-1.65-6.31-4.01-9.02-.18-.21-.31-.35-.45-.5-.11-.12-.2-.22-.3-.32l-.16-.17c-1.96-1.99-4.56-3.85-7.73-5.54l-.09-.05c-.33-.17-.65-.34-.99-.5-3.82-1.91-8.46-3.59-13.8-5l-.13-.03c-.36-.1-.7-.19-1.06-.28-5.02-1.28-10.73-2.34-16.96-3.16l-.63-.08-.61-.08c-8.3-1.04-15.73-1.42-20.51-1.56l-1.29-.03c-.3,0-.56,0-.76,0h-.32v-1c.22,0,.58,0,1.1,0h.42c.27-.01.56-.02.88-.03,4.13-.11,12.47-.55,21.91-2.23.46-.08.93-.17,1.39-.26,7.76-1.46,14.62-3.5,20.38-6.07l.11-.04c.48-.21.97-.45,1.44-.67l.11-.05c12.83-6.18,19.42-15,19.61-26.22.09-5.38-1.36-10.33-4.32-14.7-.26-.39-.54-.78-.84-1.16-3.16-4.2-7.82-7.91-13.87-11.05-.36-.19-.72-.37-1.09-.54-1.27-.64-2.66-1.28-4.25-1.94-4.32-1.78-9.14-3.33-14.33-4.6-.45-.11-.82-.2-1.19-.29l-.28-.07c-.55-.13-1.1-.25-1.65-.38-2.16-.47-4.39-.91-6.64-1.29h-.09c-.17-.04-.35-.07-.53-.1l-.58-.08c-4.93-.81-9.17-1.25-11.86-1.49v-1c2.98-.22,7.64-.67,13-1.58l1.39-.24c3.53-.65,6.91-1.41,10.04-2.27l.15-.04c.43-.12.86-.23,1.29-.37,10.68-3.07,19.37-7.4,25.82-12.87.66-.55,1.31-1.13,1.93-1.72,2.32-2.21,4.3-4.59,5.91-7.08.08-.12.14-.22.21-.33.09-.13.15-.23.21-.33,1.01-1.63,1.88-3.32,2.6-5.06,3.15-7.6,2.21-15.1-2.79-22.27-.11-.16-.2-.3-.3-.44l-.32-.43c-3.67-4.92-9.1-9.44-16.13-13.42-20.91-11.85-50.78-16.35-74.32-11.21-31.69,6.96-58.82,32.95-59.24,56.77-.28,15.97,11.63,27.85,33.54,33.47l.38.1c10.37,2.62,22.96,3.87,37.47,3.71l.02,1c-.07,0-7.53.22-17.34,1.75-18.93,2.96-50.64,11.53-50.23,35.75.36,21.55,24.79,29.95,45.23,33.2,9.75,1.55,18.01,1.81,21.11,1.85.26.01.46.01.63.01h.37v1c-.09,0-.21,0-.34,0-.21,0-.42,0-.66.01-2.07.04-5.39.14-9.56.41-17.21,1.11-57.4,5.82-59.24,25.49-.32,3.49.7,6.68,3.04,9.47,7.88,9.39,28.95,12.98,45.24,14.33.52.05,1.03.09,1.54.13l1.25.09c3.35.24,6.69.4,9.68.48.39.02.76.03,1.11.04h.17c3.76.09,6.12.05,6.14.05h0l.02,1h0c-.07,0-2.47.04-6.25.27-.33.02-.64.04-.97.06l-.37.02c-.31.02-.62.04-.95.06l-1.87.13c-.24.02-.49.04-.74.06-2.18.17-4.41.38-6.6.61-.22.02-.44.04-.65.07-.26.02-.46.04-.69.07-18.34,2.03-49.09,7.76-49.09,23.29.01.09,1.87,13.37,49.14,14.19,2.63.04,5.32.05,7.99.02Z"/>
    </g>
    <g>
      <path class="cls-4" d="M156.61,188.49s-27.02,12.99-27.02,36.58"/>
      <path class="cls-5" d="M129.59,225.57c-.28,0-.5-.22-.5-.5,0-23.63,27.04-36.9,27.31-37.03.25-.12.55-.02.67.23.12.25.02.55-.23.67-.27.13-26.74,13.13-26.74,36.13,0,.28-.22.5-.5.5Z"/>
    </g>
    <g>
      <path class="cls-4" d="M141.75,370.07s16.54,14.14,43.43,14.51"/>
      <path class="cls-5" d="M185.18,385.08h0c-26.76-.37-43.58-14.49-43.75-14.63-.21-.18-.23-.5-.05-.71.18-.21.5-.23.71-.05.16.14,16.73,14.03,43.11,14.39.28,0,.5.23.49.51,0,.27-.23.49-.5.49Z"/>
    </g>
    <g>
      <path class="cls-4" d="M250.34,266.68s12.24,4.08,15.91,14.69"/>
      <path class="cls-5" d="M266.25,281.87c-.21,0-.4-.13-.47-.34-3.55-10.25-15.47-14.33-15.59-14.38-.26-.09-.4-.37-.32-.63.09-.26.37-.4.63-.32.51.17,12.51,4.28,16.22,15,.09.26-.05.55-.31.64-.05.02-.11.03-.16.03Z"/>
    </g>
  </g>
  <polygon class="cls-5" points="233.37 452.24 130.79 452.24 127.96 496.01 421.9 496.01 233.37 452.24"/>
  <g>
    <polygon class="cls-2" points="418.98 496.01 233.37 452.24 233.37 58.63 418.98 58.63 418.98 496.01"/>
    <path class="cls-5" d="M419.48,496.64l-.62-.15-186-43.86V58.13h186.61v438.51ZM233.87,451.85l184.61,43.53V59.13h-184.61v392.71Z"/>
  </g>
  <g>
    <g>
      <path class="cls-3" d="M66.76,239.91c2.42-1.25,4.88-2.14,7.3-2.71l41.29,17.09.68,1.32c-1.12-2.17-4.67-2.57-7.93-.89l-55.52,28.62c-3.26,1.68-4.98,4.8-3.86,6.97l-.68-1.32,8.83-41.05c2.4-3.08,5.77-5.9,9.89-8.02Z"/>
      <path class="cls-1" d="M115.72,253.87l-41.29-17.09c-.1-.04-.23-.05-.37-.02-2.56.6-5.09,1.54-7.5,2.79-4.1,2.11-7.61,4.96-10.17,8.24-.05.07-.09.14-.1.21l-8.83,41.05c-.02.08,0,.15.02.21l.68,1.32c.1.2.43.24.73.08.3-.15.46-.44.36-.64-1.02-1.97.56-4.81,3.51-6.33l55.52-28.62c2.95-1.52,6.18-1.16,7.2.81.1.2.43.24.73.08s.46-.44.36-.64l-.68-1.32c-.03-.06-.09-.11-.16-.14ZM57.41,247.97c2.41-3.06,5.7-5.72,9.54-7.7,2.22-1.14,4.54-2.01,6.89-2.59l37.65,15.59c-1.15.12-2.38.48-3.57,1.09l-55.52,28.62c-1.22.63-2.25,1.45-3.02,2.35l8.03-37.36ZM74.05,237.19h0s0,0,0,0Z"/>
    </g>
    <g>
      <path class="cls-1" d="M62.24,232.38c.13.01.27.04.39.09l11.42,4.73c-2.42.57-4.88,1.46-7.3,2.71-4.12,2.13-7.49,4.94-9.89,8.02l3.02-14.03c.01-.06.03-.13.05-.19.04-.06.06-.13.1-.19.39-.72,1.4-1.24,2.21-1.15Z"/>
      <path class="cls-1" d="M74.44,236.78l-11.43-4.73c-.15-.06-.33-.1-.52-.12-.53-.06-1.14.07-1.7.36-.57.29-1.02.72-1.24,1.13-.05.08-.09.15-.13.24-.02.03-.03.07-.04.1-.02.08-.05.16-.06.22l-3.01,14.03c-.04.21.1.37.34.38.24.02.53-.12.68-.32,2.42-3.1,5.74-5.8,9.62-7.8,2.28-1.18,4.67-2.07,7.1-2.64.24-.06.46-.22.55-.41.05-.11.05-.22,0-.3-.03-.06-.09-.11-.16-.14ZM60.45,233.82s.02-.06.03-.1c.03-.06.07-.13.07-.14.12-.23.34-.43.62-.58.28-.14.57-.21.83-.18h0c.1.01.19.03.26.06l10.31,4.27c-2.04.59-4.05,1.39-5.99,2.39-3.4,1.75-6.39,4.01-8.77,6.6l2.65-12.33Z"/>
    </g>
    <g>
      <g>
        <path class="cls-4" d="M52.58,283.34l55.52-28.62c3.26-1.68,6.81-1.28,7.93.89l78.49,152.29c1.29,2.5-.7,6.08-4.44,8l-53.78,27.72c-3.73,1.92-7.81,1.47-9.09-1.03l-78.49-152.29c-1.12-2.17.6-5.29,3.86-6.97Z"/>
        <path class="cls-5" d="M131.7,445.05c-2.13,0-3.92-.81-4.71-2.35l-78.49-152.29c-.58-1.13-.48-2.51.29-3.9.75-1.36,2.06-2.57,3.68-3.4l55.52-28.62c3.37-1.74,7.08-1.29,8.26,1l78.49,152.29c1.35,2.61-.69,6.35-4.54,8.34l-53.78,27.72c-1.58.82-3.23,1.21-4.71,1.21ZM112.13,253.93c-1.22,0-2.59.33-3.92,1.01l-55.52,28.62c-1.53.79-2.76,1.92-3.47,3.2-.69,1.24-.79,2.46-.29,3.43l78.49,152.29c1.22,2.37,5.15,2.78,8.75.92l53.78-27.72c3.61-1.86,5.55-5.3,4.33-7.67l-78.49-152.29c-.61-1.18-2-1.8-3.67-1.8Z"/>
      </g>
      <path class="cls-1" d="M107.91,254.36l-55.52,28.62c-3.54,1.83-5.44,5.24-4.22,7.61l78.49,152.29c1.39,2.69,5.79,3.19,9.82,1.11l53.78-27.72c4.03-2.08,6.18-5.95,4.79-8.64l-78.49-152.29c-1.22-2.37-5.1-2.8-8.65-.97ZM49.26,290.02c-1.02-1.97.56-4.81,3.51-6.33l55.52-28.62c2.95-1.52,6.18-1.16,7.2.81l78.49,152.29c1.18,2.29-.65,5.59-4.08,7.36l-53.78,27.72c-3.43,1.77-7.18,1.34-8.37-.95l-78.49-152.29Z"/>
    </g>
    <path class="cls-1" d="M212.15,440.78l.3.58c1.22,2.36-.68,5.77-4.23,7.6l-.87.45c-.3.15-.62.12-.73-.08-.1-.2.06-.49.36-.64,3.43-1.77,5.26-5.07,4.08-7.36-.1-.2.06-.49.36-.64.3-.15.62-.12.73.08Z"/>
    <path class="cls-1" d="M153.93,476.5c.1.2-.06.49-.36.64l-.88.45c-3.54,1.83-7.42,1.39-8.64-.97l-.3-.58c-.1-.2.06-.49.36-.64.3-.15.62-.12.73.08,1.18,2.29,4.93,2.71,8.36.94.3-.15.62-.12.73.08Z"/>
    <g>
      <path class="cls-2" d="M194.52,407.9l17.09,33.16c1.28,2.49-.71,6.07-4.44,8l-53.78,27.72c-3.73,1.92-7.81,1.47-9.09-1.02l-17.09-33.16c1.29,2.5,5.36,2.95,9.09,1.03l53.78-27.72c3.73-1.92,5.72-5.51,4.44-8Z"/>
      <path class="cls-5" d="M194.33,407.54c-.3.15-.46.44-.36.64,1.18,2.29-.65,5.59-4.08,7.36l-53.78,27.72c-3.43,1.77-7.18,1.34-8.37-.95-.1-.2-.43-.24-.73-.08s-.46.44-.36.64l17.09,33.16c1.38,2.69,5.79,3.18,9.82,1.1l53.78-27.72c4.03-2.08,6.18-5.95,4.8-8.64l-17.09-33.16c-.1-.2-.43-.24-.73-.08ZM129.07,444.87c2.01.73,4.79.47,7.42-.88l53.78-27.72c2.63-1.35,4.46-3.48,5.02-5.53l15.78,30.61c1.18,2.29-.65,5.59-4.08,7.36l-53.78,27.72c-3.43,1.77-7.18,1.35-8.36-.94l-15.78-30.61Z"/>
    </g>
    <path class="cls-1" d="M139.84,450.05l11.33,21.98c.1.2-.06.49-.36.64s-.62.12-.73-.08l-11.33-21.98c-.1-.2.06-.49.36-.64.3-.15.62-.12.73.08Z"/>
    <path class="cls-1" d="M192.32,425.44l9.54,18.51c.1.2-.06.49-.36.64s-.62.12-.73-.08l-9.54-18.51c-.1-.2.06-.49.36-.64s.62-.12.73.08Z"/>
    <path class="cls-1" d="M150.65,461.07l5.17,10.03c.1.2-.06.49-.36.64s-.62.12-.73-.08l-5.17-10.03c-.1-.2.06-.49.36-.64.3-.15.62-.12.73.08Z"/>
    <path class="cls-1" d="M141.34,445.86l3.78,7.33c.1.2-.06.49-.36.64-.3.15-.62.12-.73-.08l-3.78-7.33c-.1-.2.06-.49.36-.64s.62-.12.73.08Z"/>
    <path class="cls-1" d="M100.99,253.12c.07.13.03.3-.12.46-.21.23-.57.34-.81.24l-26.44-11.4c-.23-.1-.25-.37-.04-.6.21-.23.57-.34.81-.24l26.44,11.4c.07.03.13.08.16.14Z"/>
    <rect class="cls-1" x="103.95" y="268.13" width=".5" height="180.13" transform="translate(-151.01 86.11) rotate(-26.95)"/>
    <rect class="cls-1" x="119.79" y="260.12" width=".5" height="180.13" transform="translate(-145.66 92.42) rotate(-26.95)"/>
    <rect class="cls-1" x="138.96" y="250.6" width=".5" height="180.13" transform="translate(-139.26 100.07) rotate(-26.95)"/>
  </g>
  <g>
    <polygon class="cls-2" points="164.37 123.12 196.06 206.34 155.75 189.16 165.1 279.37 122.29 224.44 74.83 300.76 90.3 207.47 50.5 155.57 112.92 180.11 97.2 128.32 135.35 155.06 137.44 123.71 157.86 151.79 164.37 123.12"/>
    <path class="cls-5" d="M73.93,303.16l15.84-95.56-40.77-53.16,63.14,24.82-15.84-52.19,38.61,27.06,2.12-31.84,20.59,28.3,6.63-29.21,32.71,85.87-40.62-17.31,9.44,91.1-43.44-55.74-48.41,77.85ZM51.99,156.69l38.84,50.65-.04.21-15.06,90.8,46.51-74.79,42.17,54.12-9.25-89.32,40.01,17.06-30.69-80.58-6.38,28.13-20.26-27.85-2.05,30.85-37.69-26.42,15.59,51.4-.96-.38-60.75-23.88Z"/>
  </g>
  <g>
    <polygon class="cls-2" points="250.34 63.89 213.9 145.15 197.55 104.49 140.37 174.89 148.94 105.78 61.42 126.19 138.32 71.16 146.87 6.31 173.66 67.81 199.17 20.07 207.24 65.95 230.88 45.26 225.47 79.56 250.34 63.89"/>
    <path class="cls-5" d="M139.66,176.55l8.7-70.13-89.28,20.82,78.77-56.37,8.76-66.42,27.09,62.2,25.71-48.1,8.16,46.43,24.01-21.01-5.46,34.57,25.34-15.97-37.59,83.84-16.48-40.96-57.74,71.09ZM149.53,105.13l-8.44,68.09,56.62-69.7,16.23,40.35,35.28-78.68-24.4,15.38,5.37-34.02-23.27,20.37-7.97-45.33-25.32,47.37-26.48-60.79-8.35,63.28-.18.13-74.86,53.56,85.77-20Z"/>
  </g>
  <g>
    <circle class="cls-5" cx="267.56" cy="275.41" r="19.83"/>
    <g>
      <path class="cls-5" d="M270.44,261.51c3.98,1.68,7.26,4.21,8.75,8.38,1.34,3.75,1.67,10.82-2.67,12.78"/>
      <path class="cls-2" d="M276.72,283.13l-.41-.91c4.1-1.85,3.59-8.83,2.41-12.16-1.28-3.58-4.05-6.23-8.47-8.09l.39-.92c4.7,1.98,7.65,4.82,9.02,8.68,1.5,4.2,1.59,11.36-2.94,13.4Z"/>
    </g>
  </g>
  <g>
    <g>
      <circle class="cls-2" cx="112.13" cy="426.06" r="69.7"/>
      <path class="cls-5" d="M112.23,496.24c-22.92,0-45.4-11.18-58.85-31.75-21.19-32.39-12.08-75.98,20.31-97.17,32.39-21.19,75.98-12.08,97.17,20.31s12.08,75.98-20.31,97.17c-11.82,7.74-25.15,11.43-38.32,11.43ZM112.02,356.89c-12.99,0-26.12,3.64-37.78,11.27-31.93,20.89-40.91,63.86-20.02,95.79,20.89,31.93,63.86,40.91,95.79,20.02,31.93-20.89,40.91-63.86,20.02-95.79-13.26-20.27-35.43-31.29-58.02-31.29Z"/>
    </g>
    <g>
      <ellipse class="cls-1" cx="93.16" cy="372.3" rx=".76" ry=".79" transform="translate(-58.28 19.66) rotate(-9.19)"/>
      <ellipse class="cls-1" cx="97.47" cy="371.6" rx=".76" ry=".79" transform="translate(-58.11 20.34) rotate(-9.19)"/>
      <path class="cls-1" d="M95.4,380.65c-3.25,0-6.52-2.02-7.21-6.31-.04-.27.14-.53.41-.57.26-.05.53.14.57.41.71,4.4,4.3,5.87,7.32,5.38,3.03-.49,5.96-3.02,5.25-7.42-.04-.27.14-.53.41-.57.27-.05.53.14.57.41.79,4.85-2.46,7.98-6.08,8.57-.41.07-.83.1-1.25.1Z"/>
    </g>
  </g>
  <g>
    <g>
      <circle class="cls-4" cx="71.54" cy="124.81" r="34.55"/>
      <path class="cls-5" d="M71.5,159.85c-4.44,0-8.94-.85-13.29-2.64-8.66-3.56-15.41-10.28-19.01-18.93-3.6-8.64-3.62-18.17-.06-26.83s10.28-15.41,18.93-19.01c8.64-3.6,18.17-3.62,26.83-.06,8.66,3.56,15.41,10.28,19.01,18.93,3.6,8.64,3.62,18.17.06,26.83h0c-5.57,13.52-18.67,21.71-32.46,21.71ZM71.54,90.74c-4.44,0-8.88.88-13.1,2.64-8.39,3.5-14.92,10.06-18.39,18.47-3.46,8.41-3.44,17.67.06,26.06s10.06,14.92,18.47,18.39c17.36,7.15,37.3-1.17,44.45-18.53h0c3.46-8.41,3.44-17.67-.06-26.06s-10.06-14.92-18.47-18.39c-4.18-1.72-8.57-2.58-12.96-2.58Z"/>
    </g>
    <g>
      <ellipse class="cls-1" cx="75.37" cy="100.16" rx=".44" ry=".42" transform="translate(-45.09 134.83) rotate(-69.09)"/>
      <ellipse class="cls-1" cx="77.65" cy="101.03" rx=".44" ry=".42" transform="translate(-44.43 137.52) rotate(-69.09)"/>
      <path class="cls-1" d="M76.31,105.62c-.56,0-1.12-.11-1.63-.3-2.01-.77-3.51-2.96-2.48-5.65.1-.26.39-.39.65-.29.26.1.39.39.29.65-.83,2.18.4,3.79,1.9,4.36,1.5.57,3.49.2,4.32-1.98.1-.26.39-.39.65-.29.26.1.39.39.29.65-.76,2-2.38,2.86-3.98,2.86Z"/>
    </g>
  </g>
  <g>
    <path class="cls-2" d="M119.39,43.48v452.53h10.63V59.2h284.98v436.81h10.64V43.48H119.39Z"/>
    <path class="cls-5" d="M426.15,496.51h-11.64V59.7H130.52v436.81h-11.63V42.98h307.25v453.53ZM415.51,495.51h9.64V43.98H119.89v451.53h9.63V58.7h285.98v436.81Z"/>
  </g>
</svg>