<svg width="120" height="121" viewBox="0 0 120 121" fill="none" xmlns="http://www.w3.org/2000/svg">
<g clip-path="url(#clip0_10116_5413)">
<path d="M29.9614 60.7564C46.5087 60.7564 59.9229 47.3224 59.9229 30.7508C59.9229 14.1791 46.5087 0.745117 29.9614 0.745117C13.4142 0.745117 0 14.1791 0 30.7508C0 47.3224 13.4142 60.7564 29.9614 60.7564Z" fill="#333366"/>
<path d="M90.0376 60.7564C106.585 60.7564 119.999 47.3224 119.999 30.7508C119.999 14.1791 106.585 0.745117 90.0376 0.745117C73.4904 0.745117 60.0762 14.1791 60.0762 30.7508C60.0762 47.3224 73.4904 60.7564 90.0376 60.7564Z" fill="#333366"/>
<path d="M29.9614 120.745C46.5087 120.745 59.9229 107.311 59.9229 90.7391C59.9229 74.1674 46.5087 60.7334 29.9614 60.7334C13.4142 60.7334 0 74.1674 0 90.7391C0 107.311 13.4142 120.745 29.9614 120.745Z" fill="#333366"/>
<path d="M90.0376 120.745C106.585 120.745 119.999 107.311 119.999 90.7391C119.999 74.1674 106.585 60.7334 90.0376 60.7334C73.4904 60.7334 60.0762 74.1674 60.0762 90.7391C60.0762 107.311 73.4904 120.745 90.0376 120.745Z" fill="#333366"/>
</g>
<defs>
<clipPath id="clip0_10116_5413">
<rect width="120" height="120" fill="white" transform="translate(0 0.745117)"/>
</clipPath>
</defs>
</svg>
