<?xml version="1.0" encoding="UTF-8"?>
<svg id="Layer_1" data-name="Layer 1" xmlns="http://www.w3.org/2000/svg" version="1.1" xmlns:xlink="http://www.w3.org/1999/xlink" viewBox="0 0 1920 674">
  <defs>
    <style>
      .cls-1 {
        fill: #000;
      }

      .cls-1, .cls-2, .cls-3, .cls-4, .cls-5, .cls-6, .cls-7, .cls-8, .cls-9, .cls-10, .cls-11 {
        stroke-width: 0px;
      }

      .cls-2 {
        fill: #caa8f5;
      }

      .cls-3 {
        fill: #0e8c80;
      }

      .cls-4 {
        fill: none;
      }

      .cls-5 {
        fill: #e5e5e5;
      }

      .cls-6 {
        fill: #757bf6;
      }

      .cls-12 {
        clip-path: url(#clippath);
      }

      .cls-7 {
        fill: #f45b69;
      }

      .cls-8 {
        fill: #0c0c08;
      }

      .cls-9 {
        fill: #f1f1f1;
      }

      .cls-10 {
        fill: #eff0f2;
      }

      .cls-11 {
        fill: #dbff8f;
      }
    </style>
    <clipPath id="clippath">
      <rect class="cls-4" x="-6.77" y="-1.59" width="1928.51" height="673.98"/>
    </clipPath>
  </defs>
  <g class="cls-12">
    <g>
      <g>
        <path class="cls-1" d="M454.93,520.43l-5.71,31.13-11.24-14.18-173.4,173.4c-4.74,4.74-4.74,12.41,0,17.14l66.68,66.68,50.33-88.99,93.72,110.44-27.24-186.65,85.26,32.22-65.96-153.63"/>
        <path class="cls-10" d="M475.93,816.67c-.07.07-.16.13-.26.18-.35.16-.77.07-1.02-.23l-92.91-109.49-49.71,87.9c-.14.24-.37.4-.64.43s-.54-.05-.73-.25l-66.68-66.68c-5.07-5.07-5.07-13.31,0-18.38l173.4-173.4c.18-.18.42-.27.67-.25.25.01.48.13.63.33l10.05,12.67,5.36-29.24c.09-.47.54-.79,1.01-.7.47.09.79.54.7,1.01l-5.71,31.13c-.06.34-.32.6-.65.69-.33.08-.68-.04-.89-.3l-10.63-13.41-172.71,172.71c-4.39,4.39-4.39,11.52,0,15.91l65.87,65.87,49.76-87.99c.14-.25.39-.41.68-.44.28-.03.56.09.75.3l91.76,108.12-26.8-183.65c-.04-.31.08-.61.32-.8.24-.19.56-.24.85-.14l83.34,31.49-65.15-151.75c-.19-.44.01-.95.46-1.14.44-.19.95.01,1.14.46l65.96,153.63c.14.32.07.69-.17.95-.25.26-.61.34-.94.21l-83.87-31.7,27.02,185.19c.04.28-.06.55-.25.74Z"/>
      </g>
      <g>
        <path class="cls-6" d="M404.32,372.72l29.13,117.76c.15.59.86.86,1.61.61l569.85-232.39c.74-.25,1.23-.93,1.11-1.53l-20.72-95.06c-.13-.64-.91-.93-1.69-.62l-578.26,209.69c-.72.28-1.17.96-1.03,1.55Z"/>
        <g>
          <path class="cls-1" d="M423.45,380.91l33.88,115.27c.17.58.8.9,1.42.71l575.99-219.37c.61-.19.98-.8.83-1.39l-24.95-92.83c-.16-.63-.84-.96-1.49-.72l-584.91,196.94c-.59.22-.93.84-.76,1.41Z"/>
          <path class="cls-9" d="M458.38,497.99c-.36,0-.72-.09-1.04-.26-.5-.27-.87-.72-1.03-1.26l-33.88-115.27c-.32-1.11.3-2.29,1.42-2.7l584.94-196.95c.58-.21,1.24-.17,1.8.13.53.28.91.77,1.06,1.34l24.95,92.82c.29,1.14-.38,2.29-1.51,2.66l-575.99,219.38h-.03c-.22.08-.45.11-.68.11ZM458.34,495.87s.03,0,.07,0l575.97-219.37h.03c.09-.04.12-.11.12-.13l-24.95-92.82s-.04-.03-.11,0l-584.94,196.95c-.06.02-.09.09-.09.1l33.88,115.27s0,0,0,0Z"/>
        </g>
        <g>
          <path class="cls-5" d="M500.34,444.55l-16.43,5.89-13.62-38.01,16.06-5.75,2.53,8.23.32-.03c.74-3.65,2.31-6.73,4.71-9.25,2.39-2.52,5.33-4.4,8.82-5.65,4.08-1.46,7.61-1.51,10.59-.14,2.98,1.37,5.06,3.67,6.22,6.91l9.82,27.4-16.43,5.89-7.65-21.36c-.6-1.67-1.43-2.86-2.48-3.56-1.06-.7-2.79-.62-5.19.24-1.47.53-2.66,1.16-3.56,1.9-.9.74-1.46,1.6-1.69,2.6-.23.99-.1,2.16.37,3.48l7.6,21.21Z"/>
          <path class="cls-5" d="M557.97,425.15c-3.54,1.27-6.85,2.11-9.94,2.52s-5.96.24-8.59-.54c-2.63-.77-4.98-2.27-7.05-4.5-2.07-2.22-3.82-5.32-5.24-9.3s-1.99-7.49-1.7-10.53c.29-3.04,1.27-5.69,2.93-7.95,1.66-2.26,3.79-4.18,6.4-5.79,2.61-1.6,5.54-2.98,8.78-4.14,3.19-1.14,6.32-1.93,9.38-2.36,3.06-.43,5.94-.3,8.66.39,2.71.69,5.14,2.1,7.3,4.24,2.15,2.14,3.94,5.2,5.36,9.17,1.9,5.3,2.38,9.78,1.45,13.44-.93,3.66-2.96,6.71-6.07,9.16-3.11,2.45-7,4.5-11.67,6.18ZM554.22,414.69c1.62-.58,2.85-1.34,3.67-2.27.83-.93,1.25-2.2,1.25-3.81,0-1.61-.46-3.71-1.39-6.32-.91-2.55-1.87-4.4-2.86-5.54s-2.09-1.77-3.3-1.89c-1.21-.12-2.6.1-4.17.66-1.57.56-2.8,1.28-3.68,2.15-.88.87-1.34,2.06-1.38,3.57-.04,1.51.41,3.57,1.34,6.17.93,2.6,1.91,4.52,2.94,5.76,1.03,1.24,2.15,1.94,3.38,2.11,1.23.17,2.62-.03,4.19-.59Z"/>
          <path class="cls-5" d="M594.69,410.75l-28.06-32.83,18.05-6.47,11.36,14.3,4.79,5.93.37-.13-.02-7.72-.13-18.24,14.07-5.04-.67,43.13-19.74,7.07Z"/>
          <path class="cls-5" d="M624.68,354.12c-3.29,1.18-5.88,1.48-7.78.92-1.89-.57-3.25-2.01-4.08-4.31-.83-2.31-.69-4.28.41-5.92,1.1-1.64,3.3-3.05,6.59-4.23,3.29-1.18,5.84-1.47,7.66-.88,1.82.59,3.14,2.05,3.97,4.35.83,2.31.73,4.27-.3,5.88-1.03,1.62-3.19,3.01-6.48,4.19ZM647.43,391.85l-16.57,5.94-13.62-38.01,16.57-5.94,13.62,38.01Z"/>
          <path class="cls-5" d="M669.82,383.82l-16.43,5.89-13.62-38.01,16.06-5.75,2.53,8.23.32-.03c.74-3.65,2.31-6.73,4.71-9.25,2.39-2.52,5.33-4.4,8.82-5.65,4.08-1.46,7.61-1.51,10.59-.14,2.98,1.37,5.06,3.67,6.22,6.91l9.82,27.4-16.43,5.89-7.65-21.36c-.6-1.67-1.43-2.86-2.48-3.56-1.06-.7-2.79-.62-5.19.24-1.47.53-2.66,1.16-3.56,1.9-.9.74-1.46,1.6-1.69,2.6-.23.99-.1,2.16.37,3.48l7.6,21.21Z"/>
          <path class="cls-5" d="M717.52,367.56c-1.67.6-3.42,1-5.26,1.22-1.83.21-3.64.13-5.41-.26-1.77-.39-3.38-1.19-4.81-2.39-1.43-1.2-2.55-2.94-3.36-5.2-.84-2.36-1.08-4.48-.7-6.36.38-1.88,1.17-3.54,2.38-4.97,1.2-1.43,2.61-2.64,4.22-3.63,1.61-.99,3.23-1.78,4.85-2.36,3.04-1.09,5.71-1.66,7.99-1.7,2.28-.04,4.3.37,6.05,1.24l-2.32-6.48c-.49-1.37-1.19-2.19-2.08-2.45-.9-.26-2.11-.12-3.63.43-.88.32-1.58.7-2.08,1.16-.5.46-.8,1.01-.9,1.65-.1.65.02,1.46.38,2.44l-15.54,5.57c-1.11-3.09-1.4-5.88-.88-8.37.52-2.49,2.11-4.79,4.76-6.9s6.63-4.12,11.93-6.02c4.66-1.67,8.61-2.48,11.85-2.42,3.23.06,5.85.87,7.85,2.42,2,1.56,3.51,3.76,4.53,6.61l4.43,12.37c.28.79.64,1.35,1.06,1.7.43.35.97.44,1.64.29.66-.16,1.45-.51,2.36-1.06l3.85,10.75c-2.12,1.2-4.39,2.1-6.81,2.69-2.42.59-4.73.63-6.94.12-2.21-.51-4.08-1.85-5.63-4.01l-.29.11c-.65,3.45-2.23,6.31-4.73,8.59s-5.43,4.02-8.77,5.22ZM721.76,355.74c2.16-.77,3.6-1.55,4.32-2.34.72-.78.87-1.74.47-2.87-.37-1.03-1.13-1.63-2.27-1.81-1.14-.17-2.72.1-4.73.82-1.96.7-3.35,1.49-4.14,2.36-.8.87-1.01,1.82-.64,2.85.39,1.08,1.11,1.71,2.17,1.88,1.06.17,2.67-.13,4.83-.9Z"/>
          <path class="cls-5" d="M770.73,347.67l-16.43,5.89-13.62-38.01,16.06-5.75,2.53,8.23.32-.03c.82-3.73,2.07-6.71,3.74-8.94,1.67-2.23,3.78-3.8,6.33-4.72,3.49-1.25,6.57-1.22,9.26.09,2.69,1.31,4.65,3.71,5.9,7.19l3.69,10.31-14.44,5.17-1.77-4.93c-.62-1.72-1.39-2.8-2.32-3.24-.93-.44-2.26-.35-3.98.26-1.18.42-2.05.96-2.62,1.61-.57.65-.85,1.48-.85,2.51,0,1.02.27,2.27.8,3.74l7.39,20.62Z"/>
          <path class="cls-5" d="M819.59,331.41c-8.05,2.89-14.22,3.92-18.5,3.1-4.28-.82-7.31-3.71-9.09-8.67l14.8-5.31c.53,1.64,1.4,2.6,2.61,2.89,1.21.29,3.19-.06,5.94-1.05,2.41-.86,3.98-1.66,4.71-2.39.73-.73.95-1.52.65-2.35-.26-.74-.76-1.12-1.5-1.17-.74-.04-1.78.07-3.12.33l-10.05,2.11c-4.7.96-8.51.93-11.42-.1-2.92-1.03-5.02-3.34-6.3-6.92-1.55-4.32-.98-8.21,1.72-11.67,2.69-3.46,7.45-6.41,14.28-8.86,4.86-1.74,9.02-2.7,12.47-2.89,3.45-.18,6.32.43,8.59,1.83,2.27,1.4,4,3.67,5.18,6.79l-14.8,5.3c-.44-1.39-1.22-2.21-2.33-2.45-1.11-.24-2.75.03-4.91.8-1.82.65-3.05,1.3-3.71,1.95-.65.65-.86,1.32-.61,2.01.19.54.59.87,1.19.99.6.12,1.46.06,2.59-.18l12.51-2.66c3.96-.86,7.28-.78,9.98.25,2.7,1.03,4.66,3.26,5.89,6.7,1.09,3.05,1.18,5.89.28,8.54-.91,2.65-2.78,5.07-5.63,7.25-2.85,2.18-6.65,4.13-11.41,5.84Z"/>
          <path class="cls-5" d="M832.28,294.44l-3.72-10.39,37.79-13.54,3.72,10.39-37.79,13.54ZM866.51,314.59c-4.12,1.48-7.63,2.18-10.51,2.1-2.88-.08-5.23-.79-7.04-2.13-1.81-1.35-3.13-3.17-3.96-5.48l-9.21-25.71-.22-11.97,12.82-4.59,11.8,32.92c.35.98.75,1.75,1.2,2.31.45.56,1,.9,1.66,1.03.65.13,1.45.02,2.38-.31,1.42-.51,2.24-1.29,2.45-2.33.21-1.04-.11-2.74-.96-5.1l11.27-4.04c2.15,5.99,2.31,10.81.48,14.45-1.82,3.65-5.88,6.59-12.16,8.85Z"/>
          <path class="cls-5" d="M895.43,302.98l-28.06-32.83,18.05-6.47,11.36,14.3,4.79,5.93.37-.13-.02-7.72-.14-18.24,14.07-5.04-.67,43.13-19.74,7.07Z"/>
          <path class="cls-5" d="M952.54,283.77c-3.54,1.27-6.85,2.11-9.94,2.52-3.09.42-5.96.24-8.59-.54-2.63-.77-4.98-2.27-7.05-4.5-2.07-2.22-3.82-5.32-5.24-9.3-1.43-3.98-1.99-7.49-1.7-10.53.29-3.04,1.27-5.69,2.93-7.95,1.66-2.26,3.79-4.18,6.4-5.79,2.61-1.6,5.54-2.98,8.78-4.14,3.19-1.14,6.32-1.93,9.38-2.36,3.06-.43,5.94-.3,8.66.39,2.71.69,5.14,2.1,7.3,4.24,2.15,2.14,3.94,5.2,5.36,9.17,1.9,5.3,2.38,9.78,1.45,13.44-.93,3.66-2.96,6.71-6.07,9.16-3.11,2.45-7,4.5-11.67,6.18ZM948.79,273.31c1.62-.58,2.85-1.34,3.67-2.27.83-.93,1.25-2.2,1.25-3.81,0-1.61-.46-3.71-1.39-6.32-.91-2.55-1.87-4.4-2.86-5.54-.99-1.14-2.09-1.77-3.3-1.89-1.21-.12-2.6.1-4.17.66-1.57.56-2.8,1.28-3.68,2.15-.88.87-1.34,2.06-1.38,3.57s.41,3.57,1.34,6.17c.93,2.6,1.91,4.52,2.94,5.76,1.03,1.24,2.15,1.94,3.38,2.11,1.23.17,2.62-.03,4.19-.59Z"/>
          <path class="cls-5" d="M977.28,253.79l-16.76-33.31,21.88-7.84,8.21,36.37-13.33,4.78ZM990.63,269.7c-3.63,1.3-6.46,1.5-8.48.59-2.02-.91-3.46-2.59-4.34-5.05-.88-2.45-.83-4.67.15-6.66.98-1.98,3.28-3.63,6.92-4.93,3.44-1.23,6.16-1.39,8.18-.48,2.02.91,3.46,2.6,4.34,5.05.88,2.46.83,4.68-.15,6.66-.98,1.98-3.19,3.59-6.62,4.83Z"/>
        </g>
      </g>
      <g>
        <path class="cls-7" d="M483.4,107.08l5.3,110.79c.03.56.5.99,1.06.97l362.43-1.53c.55-.02-1.61-12.08-1.62-12.64l-1.44-130.14c0-.6-.52-1.06-1.11-1.01l-363.69,32.49c-.55.05-.96.52-.93,1.07Z"/>
        <g>
          <g>
            <path class="cls-1" d="M504.21,106.29l-3.62,110.85c-.02.56.42,1.03.98,1.05l359.72,15.83c.55.02,1.03-.4,1.06-.95l9.03-129.83c.04-.59-.43-1.1-1.03-1.09l-365.12,3.16c-.55,0-.99.44-1.01.99Z"/>
            <path class="cls-9" d="M861.33,235.08s-.06,0-.1,0l-359.72-15.83c-1.13-.05-2.02-1.01-1.99-2.15l3.62-110.85c.04-1.12.94-2,2.06-2.01l365.12-3.16c.58,0,1.14.23,1.53.65.4.42.6.99.56,1.57l-9.03,129.83c-.08,1.1-.98,1.94-2.07,1.94ZM501.64,217.14l359.65,15.82,9.02-129.76-365.05,3.16-3.62,110.78ZM505.27,106.33s0,0,0,0h0Z"/>
          </g>
          <g>
            <path class="cls-5" d="M570.29,133.77l16.68.54-1.76,54.59-16.53-.53.64-8.21-.3-.08c-1.93,2.68-4.19,4.81-6.76,6.37-2.57,1.56-5.63,2.29-9.17,2.17-2.59-.08-4.85-.59-6.76-1.53-1.92-.93-3.49-2.28-4.74-4.05-1.24-1.76-2.15-3.9-2.71-6.41-.57-2.51-.8-5.39-.69-8.63.12-3.74.67-6.88,1.65-9.42.98-2.54,2.31-4.55,3.98-6.05,1.67-1.49,3.62-2.54,5.87-3.14,2.24-.6,4.71-.86,7.4-.77,1.94.06,3.71.32,5.29.77,1.58.45,2.98,1.1,4.2,1.93,1.22.84,2.23,1.87,3.04,3.09l.67-20.64ZM562.6,158.89c-1.79-.06-3.24.22-4.33.83-1.09.61-1.9,1.62-2.42,3.03-.52,1.41-.82,3.3-.9,5.7-.07,2.29.1,4.13.53,5.52.43,1.39,1.16,2.38,2.19,2.99,1.03.61,2.44.94,4.23,1,1.89.06,3.37-.18,4.44-.72,1.07-.54,1.84-1.49,2.34-2.84.49-1.36.78-3.21.85-5.55.08-2.39-.09-4.31-.49-5.74-.4-1.44-1.13-2.48-2.18-3.14-1.05-.66-2.48-1.02-4.27-1.07Z"/>
            <path class="cls-5" d="M611.16,189.73l-16.83-.54,1.25-38.59,16.83.54-1.25,38.59ZM604.19,148.19c-3.34-.11-5.75-.75-7.24-1.92-1.49-1.17-2.19-2.93-2.11-5.27.08-2.34.89-4.05,2.45-5.12,1.56-1.07,4.01-1.55,7.35-1.45,3.34.11,5.71.75,7.12,1.91,1.41,1.17,2.08,2.92,2,5.27-.08,2.34-.85,4.05-2.34,5.13-1.48,1.07-3.89,1.56-7.23,1.45Z"/>
            <path class="cls-5" d="M659.73,180.75l-.34,10.54-40.16-1.3.32-9.87,14.14-13.69,3.69-2.88.03-1.05-5.46-.18-11.07-.36.34-10.54,38.66,1.25-.32,9.8-13.99,13.62-3.92,3.02-.03,1.05,5.98.19,12.11.39Z"/>
            <path class="cls-5" d="M679.63,192.7c-1.7-.05-3.4-.31-5.1-.76-1.71-.45-3.28-1.17-4.72-2.14-1.44-.97-2.59-2.24-3.43-3.82-.85-1.57-1.23-3.51-1.16-5.8.08-2.39.61-4.36,1.61-5.9,1-1.54,2.28-2.73,3.86-3.58,1.57-.85,3.25-1.43,5.03-1.75,1.78-.32,3.5-.45,5.14-.4,3.09.1,5.66.53,7.71,1.3,2.05.77,3.7,1.84,4.95,3.23l.21-6.58c.05-1.4-.29-2.37-.99-2.91-.71-.55-1.83-.85-3.38-.9-.9-.03-1.65.07-2.26.3-.61.23-1.07.61-1.38,1.15-.32.54-.49,1.31-.52,2.3l-15.78-.51c.1-3.14.82-5.72,2.16-7.75,1.34-2.03,3.56-3.52,6.66-4.46,3.1-.95,7.34-1.33,12.73-1.16,4.74.15,8.53.83,11.39,2.01,2.86,1.19,4.9,2.83,6.13,4.91,1.23,2.09,1.8,4.58,1.71,7.47l-.41,12.56c-.03.8.09,1.43.35,1.88.26.46.71.73,1.36.83.64.1,1.47.06,2.47-.11l-.35,10.92c-2.31.32-4.64.32-7,0-2.36-.33-4.43-1.1-6.21-2.33-1.78-1.23-2.98-3.08-3.6-5.54h-.3c-1.79,2.83-4.2,4.82-7.23,5.97-3.03,1.15-6.24,1.67-9.63,1.56ZM687.56,183.67c2.19.07,3.75-.12,4.66-.56.91-.44,1.39-1.24,1.42-2.39.03-1.05-.43-1.85-1.38-2.4-.96-.55-2.46-.87-4.5-.93-1.99-.06-3.5.15-4.51.64-1.01.49-1.54,1.26-1.57,2.31-.04,1.1.39,1.91,1.27,2.44.88.53,2.42.83,4.61.9Z"/>
            <path class="cls-5" d="M715.36,208.15l-4.69-9.96,9.75-5.3,1.23-38.21,16.83.54-1.32,40.98-21.8,11.95ZM730.27,152.26c-3.34-.11-5.75-.75-7.24-1.92-1.49-1.17-2.19-2.93-2.11-5.27.08-2.34.89-4.05,2.45-5.12,1.56-1.07,4-1.55,7.35-1.45,3.34.11,5.71.75,7.12,1.91,1.41,1.17,2.08,2.92,2,5.27-.08,2.34-.86,4.05-2.34,5.13-1.48,1.07-3.89,1.56-7.23,1.45Z"/>
            <path class="cls-5" d="M762.96,194.64l-16.68-.54,1.25-38.59,16.3.53-.64,8.21.3.08c1.94-2.98,4.42-5.17,7.44-6.57,3.01-1.4,6.29-2.04,9.83-1.93,4.14.13,7.29,1.33,9.47,3.6,2.17,2.27,3.21,5.04,3.1,8.33l-.9,27.82-16.68-.54.7-21.69c.05-1.69-.26-3.04-.96-4.04-.69-1-2.26-1.53-4.7-1.61-1.5-.05-2.77.1-3.83.44-1.06.34-1.86.91-2.41,1.72-.55.81-.85,1.88-.89,3.23l-.7,21.54Z"/>
            <path class="cls-5" d="M811.62,196.96c-3.69-.12-6.27-.94-7.74-2.46-1.47-1.52-2.17-3.53-2.09-6.02.08-2.49.9-4.45,2.47-5.87,1.57-1.42,4.2-2.07,7.89-1.95,3.49.11,5.97.93,7.44,2.45,1.47,1.52,2.17,3.53,2.09,6.02-.08,2.49-.91,4.45-2.47,5.87-1.57,1.42-4.1,2.08-7.59,1.96ZM805.34,178.12l-3.19-35.51,22.21.72-5.48,35.23-13.54-.44Z"/>
          </g>
        </g>
      </g>
      <g>
        <g>
          <path class="cls-3" d="M1079.74,375.63l8.75,119.82c.04.6.6,1.05,1.24.99l496.99-76.39c.64-.06,1.13-.58,1.11-1.18l-4.77-96.01c-.02-.65-.62-1.12-1.3-1.02l-500.97,52.58c-.63.09-1.09.62-1.04,1.21Z"/>
          <g>
            <g>
              <path class="cls-1" d="M1115.99,382.41l8.5,119.84c.04.6.59,1.05,1.24.99l497.15-75.35c.64-.05,1.13-.58,1.11-1.18l-4.57-96.02c-.02-.65-.62-1.12-1.3-1.03l-501.08,51.53c-.63.08-1.09.62-1.05,1.21Z"/>
              <path class="cls-9" d="M1125.62,504.3c-.54,0-1.04-.18-1.45-.53-.43-.37-.69-.89-.73-1.45l-8.5-119.84c-.08-1.15.78-2.17,1.96-2.33l501.11-51.54c.6-.08,1.24.1,1.72.51.46.39.73.95.75,1.54l4.57,96c.04,1.17-.86,2.16-2.04,2.28l-497.16,75.35h-.03c-.07,0-.13.01-.2.01ZM1125.55,502.17s.03.01.07.01l497.14-75.35h.03c.09-.01.14-.07.14-.09l-4.57-96s-.04-.04-.1-.03l-501.11,51.54c-.06,0-.1.07-.1.08l8.5,119.84s0,0,0,0Z"/>
            </g>
            <g>
              <path class="cls-5" d="M1167.06,462.82l-17.3,2.24-7.35-56.64,17.3-2.24,3.76,29.02.78-.1,8.94-13.78,17.61-2.28-11.06,16.35,19.35,23.29-21.03,2.73-11.82-15.11-1.32.17,2.12,16.37Z"/>
              <path class="cls-5" d="M1224.48,456.55c-3.72.48-7.14.6-10.25.34-3.11-.25-5.87-1.04-8.27-2.36-2.41-1.32-4.38-3.28-5.93-5.9-1.55-2.61-2.59-6.01-3.14-10.2-.54-4.19-.35-7.74.59-10.65.94-2.91,2.46-5.29,4.56-7.14,2.1-1.85,4.6-3.28,7.49-4.29,2.89-1.01,6.05-1.73,9.46-2.17,3.36-.44,6.58-.54,9.66-.31,3.08.23,5.87.97,8.38,2.23,2.5,1.25,4.58,3.15,6.22,5.7,1.64,2.55,2.74,5.92,3.28,10.11.72,5.59.24,10.07-1.45,13.44s-4.32,5.93-7.88,7.65-7.8,2.91-12.72,3.54ZM1223.05,445.53c1.71-.22,3.07-.7,4.07-1.44,1.01-.73,1.69-1.89,2.04-3.46.35-1.57.34-3.73-.01-6.47-.35-2.69-.89-4.7-1.61-6.02-.72-1.33-1.66-2.18-2.82-2.55-1.15-.38-2.56-.46-4.21-.24-1.66.21-3.01.65-4.05,1.31-1.05.66-1.75,1.73-2.11,3.19-.36,1.47-.37,3.57,0,6.31.36,2.74.9,4.83,1.64,6.26.74,1.43,1.69,2.36,2.85,2.79,1.16.43,2.57.53,4.22.32Z"/>
              <path class="cls-5" d="M1280.91,390.45l17.3-2.24,7.35,56.64-17.15,2.22-.72-8.59-.32-.04c-1.55,3.09-3.51,5.66-5.9,7.71-2.39,2.05-5.42,3.31-9.1,3.78-2.69.35-5.1.2-7.24-.44-2.13-.64-3.99-1.77-5.57-3.38-1.58-1.61-2.87-3.66-3.88-6.16-1.01-2.5-1.73-5.43-2.17-8.79-.5-3.88-.46-7.21.12-10,.59-2.78,1.61-5.09,3.09-6.91,1.47-1.82,3.31-3.23,5.53-4.23,2.21-1,4.71-1.68,7.51-2.04,2.02-.26,3.88-.29,5.59-.09,1.71.2,3.26.63,4.66,1.29,1.4.66,2.62,1.55,3.66,2.68l-2.78-21.42ZM1277.18,417.68c-1.86.24-3.31.77-4.33,1.59-1.03.82-1.69,1.99-1.99,3.53-.3,1.54-.29,3.55.03,6.03.31,2.38.8,4.25,1.48,5.61.68,1.36,1.6,2.27,2.76,2.72,1.16.45,2.68.56,4.54.32,1.97-.25,3.45-.75,4.46-1.49,1.01-.74,1.65-1.84,1.94-3.33.28-1.48.26-3.44-.05-5.87-.32-2.48-.81-4.43-1.47-5.85s-1.58-2.37-2.78-2.87c-1.2-.5-2.73-.63-4.59-.39Z"/>
              <path class="cls-5" d="M1318.32,399.64c-3.47.45-6.06.19-7.79-.76-1.73-.96-2.75-2.65-3.07-5.09-.32-2.43.24-4.33,1.67-5.7,1.43-1.37,3.87-2.28,7.34-2.73,3.46-.45,6.02-.19,7.68.78,1.65.97,2.63,2.67,2.95,5.1.32,2.43-.2,4.33-1.55,5.68-1.35,1.36-3.76,2.26-7.22,2.71ZM1332.49,441.36l-17.46,2.26-5.19-40.04,17.46-2.26,5.19,40.04Z"/>
              <path class="cls-5" d="M1359.18,437.89l-17.3,2.24-5.19-40.04,16.91-2.19.72,8.59.32.04c1.6-3.47,3.45-6.12,5.56-7.94,2.1-1.82,4.5-2.91,7.19-3.26,3.67-.48,6.68.21,9.03,2.06,2.34,1.85,3.75,4.62,4.23,8.29l1.41,10.86-15.21,1.97-.67-5.2c-.23-1.81-.76-3.03-1.58-3.66-.82-.63-2.13-.83-3.94-.59-1.24.16-2.21.5-2.91,1.01-.7.51-1.15,1.27-1.36,2.27-.21,1-.22,2.28-.02,3.83l2.82,21.73Z"/>
              <path class="cls-5" d="M1404.43,432.81c-1.76.23-3.56.25-5.4.07-1.84-.18-3.58-.65-5.23-1.41-1.65-.76-3.04-1.88-4.18-3.36-1.14-1.48-1.86-3.41-2.17-5.79-.32-2.48-.1-4.6.67-6.36.77-1.76,1.9-3.2,3.38-4.34,1.48-1.14,3.12-2.02,4.9-2.65,1.79-.63,3.53-1.05,5.24-1.27,3.21-.42,5.93-.4,8.17.04,2.24.45,4.12,1.28,5.65,2.5l-.89-6.83c-.19-1.45-.69-2.4-1.51-2.84-.82-.45-2.03-.56-3.64-.36-.93.12-1.69.35-2.28.69-.59.34-1,.81-1.24,1.42-.24.61-.29,1.43-.15,2.47l-16.37,2.12c-.42-3.26-.11-6.05.93-8.36,1.04-2.32,3.08-4.23,6.12-5.73,3.04-1.5,7.35-2.61,12.94-3.34,4.91-.64,8.94-.58,12.09.17,3.15.75,5.53,2.1,7.15,4.04,1.62,1.95,2.62,4.42,3.01,7.42l1.69,13.04c.11.83.33,1.46.68,1.88.34.43.86.64,1.54.63.68,0,1.53-.18,2.54-.53l1.47,11.33c-2.33.72-4.73,1.11-7.22,1.17-2.49.06-4.76-.39-6.8-1.37-2.05-.97-3.6-2.68-4.65-5.12l-.31.04c-1.37,3.23-3.52,5.69-6.46,7.39-2.94,1.69-6.16,2.77-9.68,3.23ZM1411.1,422.16c2.28-.3,3.85-.75,4.71-1.36.87-.61,1.22-1.51,1.07-2.7-.14-1.09-.75-1.84-1.83-2.25s-2.68-.48-4.8-.21c-2.07.27-3.59.74-4.55,1.42-.96.68-1.38,1.56-1.23,2.65.15,1.14.72,1.91,1.72,2.3,1,.4,2.63.45,4.91.15Z"/>
              <path class="cls-5" d="M1463.77,424.33l-17.3,2.24-5.19-40.04,16.91-2.19.72,8.59.32.04c1.5-3.4,3.69-6.08,6.57-8.03,2.88-1.95,6.15-3.16,9.82-3.64,4.29-.56,7.75.15,10.37,2.13,2.62,1.98,4.16,4.67,4.6,8.08l3.74,28.86-17.3,2.24-2.92-22.5c-.23-1.76-.78-3.09-1.66-4.01-.88-.91-2.59-1.2-5.12-.87-1.55.2-2.85.57-3.88,1.1-1.04.53-1.77,1.26-2.2,2.18-.43.92-.56,2.08-.38,3.48l2.9,22.35Z"/>
              <path class="cls-5" d="M1500.94,435.36l-6.52-9.49,9.18-7.11-5.14-39.65,17.46-2.26,5.52,42.52-20.49,15.99ZM1506.94,375.17c-3.47.45-6.06.19-7.79-.76-1.73-.96-2.75-2.65-3.07-5.09-.32-2.43.24-4.33,1.67-5.7,1.43-1.37,3.87-2.28,7.34-2.73,3.46-.45,6.02-.19,7.68.78,1.65.97,2.63,2.67,2.95,5.1.32,2.43-.2,4.33-1.55,5.68-1.35,1.36-3.76,2.26-7.22,2.71Z"/>
              <path class="cls-5" d="M1554.62,413.72c-5.07.66-9.57.62-13.5-.1-3.93-.72-7.14-2.51-9.61-5.34-2.47-2.84-4.07-7.05-4.79-12.63-.49-3.78-.39-7,.29-9.66.68-2.66,1.77-4.87,3.28-6.62,1.51-1.75,3.27-3.16,5.29-4.24,2.02-1.08,4.13-1.89,6.35-2.44,2.22-.55,4.36-.96,6.43-1.23,5.48-.71,10.02-.54,13.6.52,3.58,1.06,6.37,3.16,8.35,6.29,1.98,3.14,3.24,7.54,3.76,13.2l-29.41,3.81c.4,2.26.97,4.02,1.71,5.26.74,1.25,1.75,2.06,3.04,2.45,1.29.39,2.94.45,4.96.19,2.58-.39,4.33-1.09,5.25-2.1.92-1.01,1.29-2.64,1.1-4.88l15.05-1.95c.39,5.05-1.09,9.32-4.45,12.81-3.36,3.49-8.92,5.71-16.69,6.66ZM1549.76,381.69c-2.22.29-3.76.9-4.62,1.82-.85.93-1.35,2.45-1.5,4.57l12.88-1.67c-.13-1.4-.43-2.48-.89-3.24-.47-.75-1.16-1.24-2.08-1.47-.92-.22-2.19-.23-3.79-.02Z"/>
              <path class="cls-5" d="M1585.82,389.64l-9.26-36.12,23.04-2.99.26,37.28-14.04,1.82ZM1595.46,408.03c-3.83.5-6.63.08-8.41-1.24-1.78-1.32-2.83-3.27-3.17-5.86-.34-2.59.19-4.74,1.57-6.48,1.38-1.73,3.98-2.84,7.81-3.34,3.62-.47,6.32-.04,8.09,1.28,1.78,1.32,2.83,3.28,3.17,5.86.34,2.59-.19,4.75-1.57,6.48-1.38,1.73-3.88,2.83-7.5,3.3Z"/>
            </g>
          </g>
        </g>
        <g>
          <path class="cls-11" d="M977.6,324.88l43.14,104.56c.31.49,21.87-12.31,22.37-12.61l310.86-192.43c.49-.3.65-.93.37-1.43l-62.61-107.15c-.31-.53-1-.69-1.51-.34l-312.31,207.96c-.47.32-.6.95-.3,1.43Z"/>
          <g>
            <g>
              <path class="cls-1" d="M938.69,347.52l52.44,95.7c.28.51.92.69,1.42.41l335.8-179.8c.5-.27.7-.9.44-1.41l-57.06-110.2c-.28-.55-.97-.74-1.49-.42l-331.18,194.3c-.48.3-.65.92-.37,1.41Z"/>
              <path class="cls-9" d="M992.06,444.82c-.74,0-1.47-.39-1.85-1.08l-52.44-95.7c-.55-.99-.22-2.23.75-2.83l331.19-194.31c.48-.3,1.1-.38,1.66-.22.57.16,1.04.55,1.31,1.07l57.06,110.2c.53,1.04.14,2.27-.87,2.82l-335.81,179.8c-.32.17-.66.25-.99.25ZM939.62,347.01l52.44,95.7,335.8-179.81-57.06-110.19-331.19,194.31h0s.02,0,.02,0Z"/>
            </g>
            <g>
              <path class="cls-5" d="M1003.2,374.63l10.45,18.76-14.32,7.97-18.79-33.73,14.12-7.86,3.68,7.37.3-.08c.15-3.62,1.13-6.78,2.94-9.48,1.81-2.69,4.11-4.82,6.9-6.37,3.05-1.7,5.77-2.33,8.16-1.89,2.39.44,4.4,1.63,6.05,3.57l.23-.04c.23-3.38,1.21-6.36,2.95-8.92,1.74-2.57,4-4.63,6.79-6.18,3.4-1.89,6.57-2.4,9.51-1.53,2.94.87,5.21,2.75,6.82,5.62l13.54,24.32-14.58,8.12-10.52-18.89c-.82-1.48-1.75-2.5-2.76-3.04-1.02-.55-2.49-.29-4.4.78-1.18.66-2.07,1.36-2.67,2.13-.6.76-.91,1.62-.92,2.57-.01.95.31,2.01.96,3.19l10.45,18.76-14.58,8.12-10.52-18.89c-.82-1.48-1.76-2.49-2.8-3.02-1.04-.53-2.5-.28-4.37.76-1.13.63-2.01,1.33-2.64,2.11-.62.78-.94,1.64-.96,2.59-.01.95.31,2.01.96,3.19Z"/>
              <path class="cls-5" d="M1077.09,313.86l14.58-8.12,18.79,33.73-14.25,7.94-3.68-7.37-.3.08c-.13,3.67-1.15,6.86-3.06,9.58-1.91,2.72-4.37,4.92-7.38,6.59-3.57,1.99-6.89,2.58-9.94,1.77-3.05-.81-5.38-2.66-6.98-5.53l-13.54-24.32,14.58-8.12,10.56,18.96c.53.96,1.13,1.72,1.79,2.3.66.57,1.47.85,2.43.83.96-.02,2.14-.42,3.53-1.2,1.35-.75,2.38-1.54,3.09-2.37.71-.82,1.1-1.72,1.15-2.7.06-.97-.24-2.05-.9-3.23l-10.49-18.83Z"/>
              <path class="cls-5" d="M1147.42,306.81l5.13,9.22-35.1,19.55-4.81-8.63,5.08-19.02,1.68-4.36-.51-.92-4.77,2.66-9.67,5.39-5.13-9.22,33.79-18.82,4.77,8.56-4.99,18.88-1.8,4.6.51.91,5.23-2.91,10.59-5.9Z"/>
              <path class="cls-5" d="M1146.44,272.15c-2.92,1.63-5.32,2.32-7.19,2.08-1.88-.24-3.38-1.38-4.52-3.43-1.14-2.05-1.32-3.93-.54-5.65.78-1.72,2.63-3.39,5.55-5.02,2.92-1.63,5.28-2.3,7.09-2.02,1.81.28,3.29,1.44,4.43,3.49,1.14,2.05,1.35,3.91.63,5.6-.72,1.68-2.54,3.34-5.46,4.97ZM1173.8,304.19l-14.71,8.19-18.79-33.73,14.71-8.19,18.79,33.73Z"/>
              <path class="cls-5" d="M1196.35,291.63l-14.58,8.12-26.58-47.72,14.58-8.12,13.62,24.45.65-.36,3.06-15.41,14.84-8.26-4.03,18.43,25.44,13.84-17.71,9.87-15.85-9.24-1.11.62,7.68,13.79Z"/>
              <path class="cls-5" d="M1237.89,269.35c-1.48.83-3.07,1.48-4.77,1.97-1.7.49-3.41.69-5.15.6-1.73-.09-3.37-.59-4.91-1.51-1.54-.91-2.86-2.37-3.98-4.38-1.17-2.09-1.72-4.05-1.65-5.89.06-1.83.55-3.52,1.47-5.06.91-1.54,2.05-2.9,3.42-4.09,1.36-1.19,2.77-2.18,4.2-2.98,2.7-1.5,5.13-2.46,7.28-2.85,2.15-.4,4.12-.32,5.9.22l-3.2-5.75c-.68-1.22-1.46-1.88-2.35-1.99-.89-.11-2.01.22-3.36.97-.78.44-1.38.91-1.78,1.42-.4.51-.6,1.08-.59,1.7,0,.63.25,1.37.74,2.24l-13.79,7.68c-1.53-2.75-2.24-5.33-2.14-7.76.1-2.43,1.24-4.84,3.41-7.25s5.61-4.92,10.31-7.54c4.14-2.31,7.74-3.68,10.8-4.13,3.06-.45,5.66-.1,7.78,1.06,2.13,1.16,3.9,3,5.3,5.52l6.12,10.98c.39.7.81,1.18,1.27,1.43.46.26.99.26,1.59.01.6-.25,1.29-.7,2.07-1.36l5.32,9.54c-1.81,1.47-3.81,2.67-6,3.6-2.19.94-4.37,1.33-6.53,1.2-2.16-.14-4.14-1.1-5.94-2.9l-.26.15c-.07,3.35-1.11,6.3-3.12,8.85-2.01,2.54-4.49,4.64-7.46,6.29ZM1240.04,257.53c1.92-1.07,3.15-2.03,3.71-2.88.55-.85.55-1.78,0-2.78-.51-.92-1.32-1.36-2.42-1.35-1.1.02-2.55.52-4.34,1.52-1.74.97-2.92,1.93-3.54,2.87-.62.94-.67,1.87-.16,2.79.53.96,1.31,1.44,2.34,1.44,1.03,0,2.5-.54,4.42-1.6Z"/>
              <path class="cls-5" d="M1267.39,231.59l-21.01-28.81,19.41-10.81,13.43,33.03-11.83,6.59ZM1282.47,244.52c-3.23,1.8-5.86,2.42-7.9,1.88-2.05-.54-3.67-1.91-4.89-4.09-1.21-2.18-1.51-4.28-.9-6.31.61-2.02,2.53-3.94,5.76-5.73,3.05-1.7,5.6-2.27,7.64-1.73,2.05.55,3.67,1.91,4.89,4.09,1.21,2.18,1.51,4.28.9,6.31-.61,2.03-2.45,3.89-5.5,5.59Z"/>
            </g>
          </g>
        </g>
      </g>
      <g>
        <path class="cls-1" d="M489.38,499.18c8.68,31.37-14.62,70.27-53.44,81s-76.85-2.78-85.52-34.14c-8.68-31.37,15.29-68.71,54.11-79.45s76.18,1.22,84.85,32.59Z"/>
        <g>
          <path class="cls-10" d="M415.83,584.17c-18.53,0-35.52-4.43-47.83-12.46-13.78-9-21.07-21.97-21.07-37.51,0-16.59,8.18-33.92,22.46-47.56,15.35-14.67,35.95-23.31,57.98-24.32,21.29-.98,37.83,4.02,49.18,14.85,10.09,9.64,15.42,23.62,15.42,40.43,0,32.35-39.14,66.57-76.14,66.57ZM432.49,463.94c-1.65,0-3.33.04-5.05.12-21.62.99-41.81,9.46-56.86,23.84-13.93,13.31-21.92,30.18-21.92,46.3,0,33.32,33.73,48.24,67.16,48.24,36.15,0,74.39-33.32,74.39-64.83,0-16.33-5.15-29.87-14.88-39.17-10.08-9.63-24.48-14.49-42.85-14.49Z"/>
          <path class="cls-10" d="M362.72,547.58c2.45,12.07,15.2,20.06,27.07,19.39.84-.05.84-1.35,0-1.31-11.33.65-23.47-6.9-25.81-18.43-.17-.82-1.43-.47-1.26.35h0Z"/>
          <g>
            <path class="cls-10" d="M439.33,487.36c-1.2,3.72.58,7.87,3.78,9.98,3.28,2.16,7.88,2.2,11.17.02.7-.46-.03-1.55-.73-1.08-2.84,1.88-6.81,1.84-9.67,0-2.84-1.82-4.3-5.44-3.26-8.68.26-.8-1.03-1.04-1.28-.25h0Z"/>
            <circle class="cls-10" cx="446.04" cy="486.65" r="2.33"/>
            <circle class="cls-10" cx="452.74" cy="491.2" r="2.33"/>
          </g>
        </g>
      </g>
      <g>
        <path class="cls-1" d="M1379.59,222.13c35.75,4.39,64.55,37.35,57.72,72.6-6.82,35.25-37.87,61.06-73.62,56.66-35.75-4.39-62.66-37.33-55.84-72.58,6.82-35.25,35.99-61.08,71.73-56.68Z"/>
        <g>
          <path class="cls-10" d="M1432.18,312.43c-8.45,14.97-20.69,27.08-34.45,34.1-15.41,7.86-31.88,9.03-47.63,3.38-16.81-6.03-30.65-18.94-37.96-35.42-7.87-17.73-7.23-37.5,1.8-55.67,8.71-17.55,21.33-29.09,37.49-34.32,14.37-4.65,30.97-3.87,48.01,2.24,32.79,11.76,49.62,55.8,32.74,85.68ZM1317.92,255.26c-.75,1.33-1.48,2.71-2.18,4.12-8.86,17.82-9.49,37.2-1.78,54.59,7.14,16.09,20.59,28.67,36.93,34.53,33.77,12.11,64.27-9.71,79.52-36.7,16.49-29.2.16-72.19-31.77-83.64-16.55-5.93-32.62-6.7-46.49-2.22-14.35,4.64-25.85,14.5-34.23,29.33Z"/>
          <path class="cls-10" d="M1370.87,342.01c13.35,2.41,27.27-4.99,32-14.82.33-.69-.99-1.17-1.32-.47-4.51,9.38-17.7,16.45-30.45,14.15-.91-.16-1.13.98-.22,1.14h0Z"/>
          <g>
            <path class="cls-10" d="M1344.78,258.26c3.22,2.32,8.25,2.39,11.84.58,3.69-1.87,5.82-5.57,5.12-9.01-.15-.74-1.58-.54-1.43.2.61,2.98-1.24,6.17-4.4,7.81-3.14,1.63-7.48,1.5-10.29-.52-.69-.5-1.52.45-.84.95h0Z"/>
            <path class="cls-10" d="M1348.19,250.7c1.3.47,1.88,1.69,1.3,2.73s-2.12,1.5-3.42,1.03-1.88-1.69-1.3-2.73,2.12-1.5,3.42-1.03Z"/>
            <path class="cls-10" d="M1355.85,246.95c1.3.47,1.88,1.69,1.3,2.73s-2.12,1.5-3.42,1.03-1.88-1.69-1.3-2.73,2.12-1.5,3.42-1.03Z"/>
          </g>
        </g>
      </g>
      <g>
        <polygon class="cls-1" points="1167.76 681.1 1067.49 582.67 1207.65 616.1 1158.64 510.66 1247.82 556.06 1242.83 488.77 1294.72 542.35 1343.32 474.22 1435.03 603.82 1301.47 622.47 1348.47 811.53 1240.9 707.57 1162.92 884.17 1167.76 681.1"/>
        <path class="cls-10" d="M1066.85,582.08c.21-.22.53-.32.84-.25l138.41,33.01-48.25-103.81c-.16-.34-.11-.74.18-.99.27-.26.67-.32,1-.15l87.8,44.7-4.88-65.75c-.03-.37.18-.71.51-.86.33-.15.73-.07.98.19l51.16,52.83,48-67.28c.16-.23.43-.37.71-.36.28,0,.55.14.71.37l91.71,129.6c.18.25.21.57.09.85-.12.28-.38.47-.68.52l-132.6,18.51,46.77,188.12c.09.38-.07.77-.41.97-.34.19-.76.14-1.04-.13l-106.67-103.09-77.48,175.46c-.17.38-.58.59-.99.5-.41-.09-.69-.46-.68-.87l4.84-202.7-100.01-98.16c-.28-.27-.34-.7-.15-1.04.04-.06.08-.12.13-.18ZM1208.28,616.7c-.21.23-.53.32-.84.25l-137.11-32.7,98.04,96.23c.17.17.27.4.26.64l-4.74,198.69,76.21-172.59c.11-.26.35-.45.63-.5.28-.05.57.03.77.23l105.38,101.85-46.27-186.11c-.06-.24-.02-.49.12-.7.14-.2.36-.34.6-.38l132.14-18.45-90.17-127.43-47.89,67.13c-.14.21-.38.34-.64.36-.26.02-.51-.08-.69-.26l-50.22-51.85,4.82,64.89c.02.31-.13.61-.39.79-.26.17-.6.19-.88.05l-86.93-44.25,47.94,103.15c.14.3.1.66-.12.92-.01.02-.03.03-.04.05Z"/>
      </g>
      <g>
        <path class="cls-1" d="M1617.91,685.83c-126.56,92.63-214.12,129.76-254.81,84.88-33.5-36.95,28.7-143.26,87.66-160.81,33.75-10.05,77.36,1.49,73.96,28.69-5.55,44.5-62.03,40.03-76.91,23.45-51.33-57.18,82.84-236.76,155.21-229.16,18.98,1.99,26.18,13.42,28.51,31.37,6.52,50.17-88.54,144.88-116.21,109.76-25.89-32.85,72.59-101.91,127.81-79.61,25.46,10.28,25.53,30.48,25.7,32.11,3.92,35.87-42.21,96.92-118.89,124.34,83.34-27.48,128.05,4.4,128.18,16.39.13,11.97-37.83,18.02-100.49,18.71"/>
        <path class="cls-5" d="M1625.51,443.53c-4.89-6.86-12.21-10.6-22.38-11.67-46.08-4.84-115,63.92-148.05,128.65-9.94,19.46-16.36,38.09-18.71,54.15-36.31,18.73-69.45,65.4-80,103.19-6.57,23.49-4.51,42,5.96,53.55,20.16,22.24,51.66,25.31,96.31,9.4,40.97-14.6,93.26-45.39,159.87-94.14.36-.26.5-.71.38-1.11,40.14-2.65,60.37-8.79,60.27-18.31-.04-3.82-3.83-8.79-10.13-13.3-17.85-12.76-52.9-20.98-100.69-9.42,65.08-29.54,105.29-83.57,101.52-118.11,0-.07-.01-.18-.02-.34-.46-6.8-3.94-23.58-26.32-32.62-4.45-1.8-9.27-3.05-14.4-3.75,3.19-9.44,4.41-18.13,3.44-25.58-1.13-8.71-3.42-15.51-7.05-20.6ZM1438.68,613.52c2.41-15.4,8.51-33.01,18.24-52.06,16.64-32.6,41.78-65.43,68.97-90.07,29.06-26.33,56.41-39.63,77.02-37.47,16.8,1.77,25.05,10.88,27.6,30.48.97,7.46-.42,16.02-3.56,25.05-15.28-1.62-33.08,1.44-51.75,9.05-22.84,9.31-44.23,24.69-55.81,40.14-10.47,13.95-12.2,26.75-4.88,36.03,7.18,9.11,19.11,10.5,34.5,4.02,18.47-7.77,40.64-26.63,57.86-49.23,9.95-13.05,17.25-25.95,21.55-37.76,5.11.67,9.91,1.9,14.33,3.68,21.3,8.6,24.6,24.44,25.03,30.84.01.19.02.33.03.42,1.95,17.85-8.88,41.97-28.97,64.54-22.57,25.35-54.26,46.21-89.24,58.71-.53.19-.81.77-.63,1.31.18.54.76.82,1.3.64,56.65-18.68,97.87-10.29,117.56,3.78,6.79,4.85,9.24,9.2,9.26,11.64.04,3.61-4.41,8.72-25.85,12.56-16.99,3.04-41.77,4.76-73.62,5.11-.57,0-1.03.47-1.02,1.04,0,.57.47,1.02,1.04,1.02,14.41-.16,27.3-.59,38.66-1.28-65.98,48.21-117.79,78.69-158.37,93.15-43.77,15.6-74.55,12.71-94.09-8.84-12.58-13.89-9.94-35.73-5.5-51.61,10.32-36.92,42.39-82.41,77.69-101.25-.05.38-.09.75-.13,1.12-2.08,18.95,1.67,33.91,11.13,44.46,8.51,9.48,31.59,15.78,51.1,9.66,15.7-4.92,25.5-16.88,27.6-33.67,1.02-8.19-2.04-15.57-8.87-21.36-14.05-11.9-42.6-15.53-66.41-8.45-3.94,1.17-7.88,2.72-11.78,4.6ZM1515.57,572.63c-6.01-8.43-4.09-20.02,5.48-32.76,11.38-15.17,32.43-30.29,54.94-39.47,18.15-7.4,35.43-10.43,50.25-8.96-12.57,33.64-48.6,72.97-78.02,85.34-10.07,4.24-23.82,7.09-32.08-3.4-.2-.25-.39-.5-.57-.76ZM1438.33,615.98c4.21-2.1,8.47-3.82,12.73-5.09,23.2-6.91,50.92-3.45,64.49,8.04,6.36,5.39,9.1,11.96,8.15,19.53-2.55,20.44-15.64,28.66-26.17,31.96-18.77,5.88-40.86-.06-48.95-9.07-9.43-10.5-12.81-26.15-10.26-45.38Z"/>
      </g>
      <g>
        <polygon class="cls-1" points="957.14 819.66 1136.88 569.74 1010.64 555.69 991.16 442.75 940.43 534.28 846.69 437.98 882.4 555.68 640.2 507.01 807.17 592.6 759.17 733.93 916.61 615.38 957.14 819.66"/>
        <path class="cls-5" d="M957.14,820.72c-.07,0-.15,0-.22-.02-.41-.09-.73-.41-.81-.83l-40.21-202.62-156.09,117.54c-.37.28-.88.28-1.26.01-.38-.27-.53-.76-.38-1.2l47.7-140.46-166.15-85.17c-.47-.24-.69-.79-.52-1.29s.69-.79,1.21-.69l240.46,48.33-35.19-116.01c-.14-.47.05-.97.47-1.22.42-.25.96-.18,1.3.17l92.74,95.29,50.04-90.29c.22-.39.66-.61,1.1-.53.44.07.79.42.87.86l19.35,112.16,125.45,13.96c.37.04.7.28.85.62.15.34.11.74-.11,1.05l-179.74,249.91c-.2.28-.52.44-.86.44ZM916.61,614.32c.13,0,.25.02.38.07.34.13.59.43.66.78l40.06,201.89,177.26-246.46-124.44-13.85c-.47-.05-.85-.41-.93-.87l-18.97-109.98-49.27,88.9c-.16.29-.45.49-.79.54-.33.04-.67-.07-.9-.31l-90.7-93.19,34.44,113.55c.11.36.02.74-.23,1.02-.25.28-.63.4-.99.33l-234.7-47.17,160.17,82.11c.47.24.69.79.52,1.28l-46.89,138.08,154.69-116.48c.19-.14.41-.21.64-.21Z"/>
      </g>
      <g>
        <g>
          <path class="cls-5" d="M766.24,494.82l-40.12-89.9c-1.65-3.73-5.2-5.93-9.31-5.86-4.08.12-7.51,2.56-8.96,6.37l-34.93,91.93-.02.03-.06.16c-.14.36-.08.77.14,1.09.22.3.57.49.94.49h.04l91.22-2.68h.03c.38-.01.75-.22.94-.55.07-.12.13-.26.16-.38.05-.23.02-.48-.08-.71ZM742.98,479.6c-5.53-4.43-12.55-7.07-20.18-7.07-8.04,0-15.39,2.95-21.05,7.79-4.68-4.03-10.55-6.73-17.01-7.51l23.82-62.69c2.48,2.25,5.75,3.62,9.37,3.62,3.12,0,6-1.04,8.33-2.8l28.04,62.83c-4.18,1.18-8.01,3.18-11.32,5.82Z"/>
          <path class="cls-1" d="M769.67,689.23c0,.26-.06,26.24-9.57,51.95-12.69,34.28-35.24,51.74-67.05,51.89h-.23c-26.56,0-47.29-22.9-61.62-68.09-11.96-37.72-16.31-81.73-17.82-104.61h0c-.06-.65-.61-1.12-1.25-1.08-.62.03-1.08.56-1.08,1.16v.07c.01.15.02.32.03.47v.09l-.03.02-78.81,44.63h0c-.37-31.01,3.25-56.78,10.79-76.6,11.03-29.07,30.24-44.21,57.09-45,.8-.02,1.61-.04,2.4-.04,56.86,0,71.06,60.83,74.45,97.37l.89,30.48c.02.63.54,1.13,1.15,1.13.61-.01,1.14-.47,1.18-1.09.01-.13.72-13.16-.89-30.59l-4.17-142.28,88.91-2.6,5.65,192.69Z"/>
          <path class="cls-5" d="M532.22,665.74c-.01.21,0,.42,0,.63,0-.2-.06-.38-.15-.55l.15-.08Z"/>
        </g>
        <path class="cls-8" d="M754.3,473.77c-4.18,1.18-8.01,3.18-11.32,5.82-5.53-4.43-12.55-7.07-20.18-7.07-8.04,0-15.39,2.95-21.05,7.79-4.68-4.03-10.55-6.73-17.01-7.51l23.82-62.69c2.48,2.25,5.75,3.62,9.37,3.62,3.12,0,6-1.04,8.33-2.8l28.04,62.83Z"/>
        <g>
          <path class="cls-1" d="M611.07,621v.09l-.03.02v309.69l-78.81.52v-264.96c0-.2-.06-.38-.15-.55l.15-.08h0s78.81-44.72,78.81-44.72l.03-.02Z"/>
          <path class="cls-5" d="M766.32,495.53c-.04.13-.09.27-.16.38-.2.33-.56.54-.94.55h-.03l-91.22,2.68h-.04c-.37,0-.72-.19-.94-.49-.22-.33-.28-.73-.14-1.09l.06-.16c-.1.19-.17.41-.16.64l3.58,122.24c-6.84-35.9-25.21-78.5-73.79-78.5-.82,0-1.64.01-2.48.04-27.89.82-47.81,16.46-59.21,46.5-7.69,20.25-11.37,46.5-10.94,78.08v266.11c0,.3.13.61.35.83.22.21.51.34.82.34h.01l81.13-.55c.64,0,1.16-.52,1.16-1.16v-285.01c6.46,58.79,25.22,148.45,79.43,148.45h.26c32.42-.15,56.36-18.63,69.23-53.41,9.66-26.1,9.71-52.51,9.71-52.8l-5.67-193.66ZM760.09,741.18c-12.69,34.28-35.24,51.74-67.05,51.89h-.23c-26.56,0-47.29-22.9-61.62-68.09-11.96-37.72-16.31-81.73-17.82-104.61h0c-.06-.65-.61-1.12-1.25-1.08-.62.03-1.08.56-1.08,1.16v.07c.01.15.02.32.03.47v.09l-.03.02v309.69l-78.81.52v-264.96c0-.2-.06-.38-.15-.55l.15-.08h0c-.37-31.01,3.25-56.78,10.79-76.6,11.03-29.07,30.24-44.21,57.09-45,.8-.02,1.61-.04,2.4-.04,56.86,0,71.06,60.83,74.45,97.37l.89,30.48c.02.63.54,1.13,1.15,1.13.61-.01,1.14-.47,1.18-1.09.01-.13.72-13.16-.89-30.59l-4.17-142.28,88.91-2.6,5.65,192.69c0,.26-.06,26.24-9.57,51.95Z"/>
          <path class="cls-5" d="M611.04,620.53c.01.15.02.32.03.47v.09l-.03.02v-.58Z"/>
          <path class="cls-5" d="M613.37,620.37c-.06-.64-.61-1.11-1.25-1.07-.62.03-1.08.56-1.08,1.16v-.09c0-.65.52-1.16,1.16-1.16s1.16.51,1.16,1.16Z"/>
        </g>
      </g>
      <g>
        <path class="cls-2" d="M214.12,525.27l101.03,41.23c.54.21,1.15-.04,1.37-.58l142.21-343.82c.22-.53-.02-1.14-.55-1.37l-113.77-49.58c-.56-.25-1.22.03-1.42.61l-129.48,352.16c-.19.53.08,1.12.6,1.33Z"/>
        <g>
          <g>
            <path class="cls-1" d="M231.74,507.83l98.26,47.45c.52.25,1.15.03,1.4-.49l168.96-341.39c.25-.51.05-1.14-.46-1.4l-110.45-56.58c-.55-.28-1.22-.04-1.46.52l-156.77,350.51c-.22.52,0,1.12.52,1.37Z"/>
            <path class="cls-9" d="M330.45,556.45c-.3,0-.61-.07-.9-.2l-98.26-47.45c-1.03-.49-1.48-1.69-1.04-2.74l156.78-350.53c.22-.52.67-.95,1.22-1.14.55-.2,1.17-.16,1.69.11l110.45,56.57c1.03.54,1.44,1.77.93,2.81l-168.96,341.39c-.36.74-1.12,1.18-1.9,1.18ZM232.2,506.88l98.26,47.45,168.95-341.39-110.45-56.56-156.78,350.52h0s0-.02,0-.02Z"/>
          </g>
          <g>
            <path class="cls-5" d="M330.28,509.43l-7.15,15.07-46.78-22.19,6.99-14.74,7.28,3.87.2-.24c-1.73-2.86-2.78-5.8-3.14-8.82-.36-3.02.22-6.15,1.76-9.39,1.5-3.15,3.44-5.44,5.82-6.85,2.38-1.41,5.17-1.99,8.36-1.75,3.2.25,6.75,1.3,10.67,3.16,3.38,1.6,6.04,3.36,7.97,5.27,1.94,1.91,3.26,3.93,3.96,6.06.7,2.13.88,4.34.54,6.63-.34,2.29-1.09,4.66-2.25,7.09-.83,1.76-1.78,3.28-2.83,4.58-1.06,1.29-2.21,2.32-3.45,3.08-1.24.76-2.59,1.27-4.03,1.52l16.09,7.63ZM312.89,493.56c.77-1.62,1.1-3.05,1-4.29-.1-1.24-.71-2.38-1.81-3.43-1.1-1.05-2.74-2.09-4.9-3.11-2.12-1-3.88-1.59-5.29-1.76-1.41-.17-2.6.1-3.58.83-.98.72-1.85,1.9-2.62,3.52-.79,1.67-1.16,3.11-1.1,4.32.06,1.22.61,2.32,1.66,3.31,1.05.99,2.63,1.99,4.75,3,2.16,1.03,3.99,1.63,5.48,1.81,1.49.18,2.74-.07,3.75-.75,1.01-.68,1.9-1.83,2.67-3.45Z"/>
            <path class="cls-5" d="M301.4,443.23c-1.43,3.02-2.98,4.98-4.65,5.87-1.67.89-3.56.84-5.68-.17-2.12-1-3.36-2.43-3.72-4.29-.36-1.86.17-4.29,1.61-7.31,1.43-3.02,2.97-4.94,4.6-5.77,1.63-.83,3.51-.74,5.63.27,2.12,1.01,3.37,2.4,3.77,4.19.39,1.79-.13,4.19-1.56,7.21ZM342.28,453.42l-7.22,15.21-34.88-16.55,7.22-15.21,34.88,16.55Z"/>
            <path class="cls-5" d="M356.25,426.6c-3.51,7.39-6.99,12.25-10.44,14.59s-7.46,2.42-12.01.27l6.45-13.59c1.47.75,2.71.82,3.72.19,1.01-.62,2.12-2.2,3.32-4.72,1.05-2.21,1.57-3.81,1.57-4.8,0-.99-.38-1.67-1.15-2.03-.68-.32-1.28-.25-1.8.22-.53.47-1.16,1.25-1.89,2.33l-5.39,8.21c-2.53,3.82-5.13,6.37-7.81,7.64-2.67,1.27-5.65,1.13-8.94-.43-3.97-1.88-6.2-4.9-6.71-9.06-.51-4.16.72-9.37,3.69-15.64,2.12-4.46,4.28-7.92,6.5-10.38,2.21-2.45,4.56-3.98,7.05-4.56,2.49-.59,5.18-.22,8.09,1.1l-6.45,13.59c-1.24-.64-2.32-.67-3.23-.08-.91.59-1.84,1.87-2.78,3.86-.79,1.67-1.19,2.94-1.19,3.82,0,.88.31,1.47.94,1.77.5.24.99.19,1.47-.13.48-.32,1.03-.95,1.63-1.87l6.68-10.25c2.1-3.26,4.41-5.45,6.93-6.57,2.52-1.12,5.36-.94,8.51.56,2.79,1.33,4.78,3.19,5.96,5.6,1.18,2.41,1.54,5.31,1.08,8.71-.45,3.4-1.72,7.29-3.79,11.66Z"/>
            <path class="cls-5" d="M373.99,388.31c-.73,1.53-1.64,2.99-2.74,4.37-1.1,1.38-2.38,2.54-3.84,3.48-1.46.93-3.09,1.48-4.87,1.62-1.78.15-3.71-.27-5.78-1.25-2.16-1.03-3.75-2.3-4.76-3.83-1.01-1.53-1.59-3.19-1.74-4.97-.15-1.78-.01-3.55.41-5.31.42-1.76.98-3.38,1.69-4.87,1.33-2.79,2.75-4.98,4.27-6.55,1.52-1.57,3.16-2.65,4.94-3.25l-5.95-2.82c-1.26-.6-2.28-.68-3.07-.25-.78.43-1.51,1.34-2.17,2.74-.38.81-.59,1.54-.62,2.19-.03.65.14,1.22.5,1.73.37.51,1,.97,1.9,1.4l-6.77,14.26c-2.84-1.35-4.92-3.04-6.25-5.07-1.32-2.04-1.8-4.66-1.43-7.89s1.71-7.26,4.02-12.13c2.03-4.28,4.16-7.49,6.39-9.64,2.23-2.14,4.55-3.36,6.95-3.66,2.4-.29,4.91.18,7.53,1.42l11.36,5.39c.72.34,1.34.49,1.87.43.52-.05.96-.36,1.3-.91.35-.55.64-1.32.89-2.31l9.87,4.68c-.62,2.24-1.56,4.38-2.8,6.42-1.24,2.03-2.78,3.62-4.62,4.76-1.84,1.14-4.01,1.51-6.52,1.09l-.13.27c1.89,2.77,2.75,5.78,2.6,9.02-.16,3.24-.96,6.39-2.41,9.45ZM368.88,377.44c.94-1.98,1.39-3.48,1.35-4.5-.04-1.01-.58-1.77-1.62-2.26-.95-.45-1.86-.35-2.75.31-.89.65-1.77,1.91-2.65,3.75-.86,1.8-1.26,3.27-1.21,4.39.05,1.13.54,1.91,1.49,2.36.99.47,1.91.41,2.74-.19.84-.6,1.72-1.89,2.66-3.87Z"/>
            <path class="cls-5" d="M397.88,336.21l-7.15,15.07-34.88-16.55,6.99-14.74,7.28,3.87.2-.24c-1.96-2.97-2.98-6.12-3.06-9.44-.08-3.32.64-6.58,2.16-9.78,1.77-3.74,4.13-6.15,7.08-7.24,2.95-1.09,5.9-.93,8.88.49l25.15,11.93-7.15,15.07-19.6-9.3c-1.53-.73-2.89-.97-4.08-.74-1.19.24-2.31,1.46-3.35,3.67-.64,1.35-1.02,2.58-1.13,3.69-.11,1.11.09,2.07.61,2.9s1.39,1.53,2.6,2.1l19.47,9.24Z"/>
            <path class="cls-5" d="M380.71,276.05c-1.43,3.02-2.98,4.98-4.65,5.87-1.67.89-3.56.84-5.68-.17-2.12-1-3.36-2.43-3.72-4.29-.36-1.86.17-4.29,1.61-7.31,1.43-3.02,2.97-4.94,4.6-5.77,1.63-.83,3.51-.74,5.63.27,2.12,1.01,3.37,2.4,3.77,4.19.39,1.79-.13,4.19-1.56,7.21ZM426,312.03l-11,.33-.97-11.06-34.54-16.39,7.22-15.21,37.04,17.57,2.25,24.75Z"/>
            <path class="cls-5" d="M436.38,257.67c-2.1,4.42-4.45,8.02-7.07,10.81-2.62,2.79-5.71,4.44-9.27,4.96-3.56.52-7.77-.37-12.64-2.68-3.29-1.56-5.83-3.3-7.62-5.23-1.79-1.93-3-3.95-3.62-6.07-.62-2.12-.85-4.27-.67-6.45.18-2.18.62-4.3,1.32-6.37.71-2.07,1.48-4,2.34-5.8,2.27-4.78,4.75-8.33,7.46-10.66,2.71-2.33,5.83-3.48,9.38-3.46,3.55.03,7.74,1.3,12.56,3.81l-12.15,25.62c2.03.85,3.73,1.3,5.12,1.35,1.38.05,2.56-.34,3.54-1.18.98-.83,1.88-2.13,2.71-3.89,1.02-2.27,1.37-4.04,1.03-5.31-.34-1.26-1.46-2.4-3.35-3.41l6.22-13.11c4.26,2.3,6.93,5.7,7.99,10.21,1.06,4.51-.03,10.13-3.28,16.87ZM408.11,245c-.92,1.94-1.23,3.49-.92,4.65.3,1.17,1.27,2.36,2.9,3.57l5.32-11.22c-1.2-.62-2.22-.94-3.07-.96-.85-.02-1.6.29-2.26.92-.66.63-1.32,1.64-1.98,3.04Z"/>
            <path class="cls-5" d="M433.16,220.11l-33.83-11.25,9.52-20.08,30.11,19.09-5.8,12.24ZM452.95,221.88c-1.58,3.34-3.36,5.37-5.35,6.12-1.98.74-4.1.58-6.35-.49-2.25-1.07-3.72-2.61-4.4-4.61-.68-2-.23-4.67,1.36-8.01,1.5-3.15,3.24-5.1,5.22-5.85,1.98-.74,4.1-.58,6.35.49,2.25,1.07,3.72,2.61,4.4,4.61.68,2.01.27,4.59-1.23,7.74Z"/>
          </g>
        </g>
      </g>
      <g>
        <path class="cls-1" d="M438.93,677.72h-72.4c-.11-.08-.21-.14-.3-.21-17.43-13.06-18.67-50.41-18.67-50.41l-2.49,41.08c-.21,3.38-1.18,6.56-2.79,9.55h-110.59c7.32-45.1,29.21-110.65,94.69-113.5,94.72-4.11,111.03,101.86,112.54,113.5Z"/>
        <path class="cls-10" d="M331.71,563.24c90.53,0,106.54,102.47,108.08,114.37.03.25-.04.5-.21.69-.17.19-.4.3-.65.3h-72.4c-.18,0-.36-.06-.51-.16l-.09-.06c-.09-.06-.19-.12-.27-.19-11.64-8.72-16.17-27.71-17.91-39.92l-1.81,29.97c-.21,3.41-1.19,6.74-2.89,9.91-.15.28-.45.46-.77.46h-110.59c-.26,0-.5-.11-.66-.31-.17-.19-.24-.45-.2-.7,4.81-29.62,13.44-54.15,25.67-72.93,17.01-26.13,40.51-40.02,69.85-41.3,1.81-.08,3.6-.12,5.36-.12ZM437.94,676.85c-2.18-15.49-19.3-111.87-106.25-111.87-1.73,0-3.47.04-5.26.11-62.48,2.72-85.46,62.02-93.7,111.75h109.03c1.44-2.81,2.26-5.74,2.45-8.73l2.49-41.08c.03-.46.41-.82.87-.82h.01c.47,0,.84.38.86.84.01.37,1.43,37.09,18.32,49.75.02.01.03.03.05.04h71.14Z"/>
      </g>
    </g>
  </g>
</svg>