<?xml version="1.0" encoding="UTF-8"?>
<svg id="Layer_1" data-name="Layer 1" xmlns="http://www.w3.org/2000/svg" viewBox="0 0 1000 1000">
  <defs>
    <style>
      .cls-1 {
        fill: #f1f1f1;
      }

      .cls-2 {
        fill: #f63;
      }

      .cls-2, .cls-3, .cls-4, .cls-5, .cls-6, .cls-7, .cls-8, .cls-9, .cls-10, .cls-11, .cls-12, .cls-13, .cls-14, .cls-15 {
        stroke-miterlimit: 10;
      }

      .cls-2, .cls-9, .cls-10, .cls-11, .cls-15 {
        stroke-linecap: round;
      }

      .cls-2, .cls-12, .cls-15 {
        stroke-width: 3.24px;
      }

      .cls-2, .cls-15 {
        stroke: #e6e6e6;
      }

      .cls-3 {
        stroke-width: 2px;
      }

      .cls-3, .cls-4, .cls-5, .cls-6, .cls-7, .cls-8, .cls-16, .cls-12, .cls-13, .cls-14 {
        fill: #336;
      }

      .cls-3, .cls-4, .cls-5, .cls-6, .cls-7, .cls-8, .cls-12, .cls-13, .cls-14 {
        stroke: #f1f1f1;
      }

      .cls-17 {
        fill: #eef0f2;
      }

      .cls-18 {
        fill: #e4e4e4;
      }

      .cls-19 {
        fill: #69c8c9;
      }

      .cls-4 {
        stroke-width: 1.55px;
      }

      .cls-5 {
        stroke-width: 1.24px;
      }

      .cls-6 {
        stroke-width: 1.47px;
      }

      .cls-7 {
        stroke-width: 1.45px;
      }

      .cls-8 {
        stroke-width: 1.64px;
      }

      .cls-20 {
        fill: #f17e9b;
      }

      .cls-9 {
        stroke-width: 3.27px;
      }

      .cls-9, .cls-10, .cls-11 {
        stroke: #fff;
      }

      .cls-9, .cls-10, .cls-11, .cls-15 {
        fill: none;
      }

      .cls-10 {
        stroke-width: 3.32px;
      }

      .cls-11, .cls-14 {
        stroke-width: 2.63px;
      }

      .cls-21 {
        fill: #fc3;
      }

      .cls-22 {
        fill: #f1673a;
      }

      .cls-13 {
        stroke-width: 2.49px;
      }

      .cls-23 {
        fill: #98c93c;
      }
    </style>
  </defs>
  <rect class="cls-16" x="-26.5" y="-25" width="1053" height="1050"/>
  <g>
    <path class="cls-17" d="M577.4,253.96c-75.89,11.07-145.69-35.13-155.58-102.99-9.89-67.85,43.8-132.06,119.7-143.13,75.89-11.07,145.69,35.14,155.58,102.99,9.89,67.86-43.8,132.06-119.69,143.13ZM542.15,12.22c-73.48,10.71-125.5,72.67-115.96,138.11,9.54,65.44,77.09,109.97,150.57,99.25,73.48-10.71,125.5-72.67,115.96-138.11-9.54-65.44-77.09-109.96-150.56-99.25Z"/>
    <path class="cls-17" d="M897.13,327.57c-50.5,60.39-136.41,72.04-191.51,25.96-55.1-46.07-58.84-132.69-8.34-193.08,50.5-60.39,136.41-72.04,191.51-25.96,55.1,46.07,58.84,132.69,8.34,193.08ZM700.68,163.3c-48.94,58.52-45.45,142.34,7.78,186.85,53.23,44.51,136.34,33.11,185.28-25.41,48.94-58.52,45.45-142.34-7.78-186.85-53.23-44.51-136.34-33.11-185.28,25.41Z"/>
    <path class="cls-17" d="M749.24,111.4c-27.55-5.96-51.39-18-67.11-33.91-17.6-17.81-24.26-39.44-19.26-62.55,5.33-24.66,23.08-47.8,48.68-63.49,27.55-16.88,60.94-23.1,94.03-17.51,31.96,5.38,54.96,18.14,68.34,37.9,11.9,17.57,15.33,40.07,9.93,65.07-10.4,48.1-79.59,86.39-134.61,74.49ZM812.68-62c-2.45-.53-4.97-1.01-7.54-1.45-32.46-5.48-65.2.62-92.21,17.16-24.99,15.31-42.29,37.83-47.47,61.79-10.71,49.54,34.64,82.56,84.34,93.31,53.76,11.63,121.32-25.62,131.46-72.46,5.25-24.28,1.95-46.07-9.53-63.03-11.89-17.55-31.73-29.42-59.04-35.32Z"/>
    <path class="cls-17" d="M1042.6,111.54c-37.88,45.29-94.32,75.75-135.05,41.69-19.61-16.4-31-44.36-31.26-76.7-.27-34.67,12.31-70.31,35.43-100.36,24.75-32.18,52.61-49.89,80.58-51.25,19.46-.94,38.8,6.13,55.95,20.47,38.12,31.88,35.23,117.29-5.64,166.16ZM919.59-28.38c-1.77,2.12-3.53,4.31-5.27,6.58-22.75,29.58-35.14,64.62-34.87,98.66.25,31.37,11.18,58.39,29.98,74.11,38.98,32.59,93.69,2.61,130.63-41.56,18.48-22.1,30.36-54.54,31.78-86.77,1.45-32.91-7.84-60.25-25.49-75.01-16.44-13.74-34.95-20.53-53.54-19.63-25.15,1.22-50.34,16.26-73.22,43.62Z"/>
    <path class="cls-17" d="M482.39,72.69c-17.41,29.7-17.96,67.45-1.55,97.73,4.66,8.61,10.58,16.44,17.6,23.27,1.51,1.47,4.12-.58,2.59-2.07-23.78-23.14-33.78-57.88-26.54-90.21,2.1-9.39,5.7-18.44,10.56-26.74,1.07-1.82-1.58-3.83-2.66-1.98h0Z"/>
    <path class="cls-17" d="M598.54,53.36c-.69-.47-1.37-.93-2.06-1.4-.17-.14-.36-.23-.58-.26-.21-.07-.43-.09-.65-.05-.23.02-.43.1-.61.23-.19.1-.35.23-.48.42-.24.35-.39.8-.31,1.23s.28.84.65,1.09c.69.47,1.37.93,2.06,1.4.17.14.36.23.58.26.21.07.43.09.65.05.23-.02.43-.1.61-.23.19-.1.35-.23.48-.42.24-.35.39-.8.31-1.23s-.28-.84-.65-1.09h0Z"/>
    <path class="cls-17" d="M615.97,53.68c2.11-.31,1.64-3.59-.48-3.28s-1.64,3.59.48,3.28h0Z"/>
    <path class="cls-17" d="M588.66,80.71c4.5,5.46,12.17,7.96,19.07,6.46,6.66-1.45,12.66-6.44,14.51-13.11.57-2.04-2.5-3.3-3.08-1.24-1.54,5.53-6.31,9.85-11.92,11.07s-12.2-.64-15.99-5.25c-1.36-1.65-3.95.42-2.59,2.07h0Z"/>
    <path class="cls-17" d="M709.54,243.76c1.37-1.64-1.17-3.77-2.54-2.13s1.17,3.77,2.54,2.13h0Z"/>
    <path class="cls-17" d="M701.52,258.97c1.37-1.64-1.17-3.77-2.54-2.13s1.17,3.77,2.54,2.13h0Z"/>
    <path class="cls-17" d="M716.91,276.01c6.34,6.9,17.22.8,21.26-5.58,5.85-9.26,1.47-20.91-2.47-29.96-.85-1.95-3.97-.84-3.12,1.12,3.37,7.75,7.57,17.65,3.45,25.94-2.68,5.39-11.74,11.64-16.98,5.94-1.44-1.57-3.55.99-2.13,2.54h0Z"/>
    <path class="cls-17" d="M895.85,248.27c15.65-27.04,13.48-64.73-9.72-86.92-1.54-1.48-3.67,1.07-2.13,2.54,22.18,21.21,23.7,57.3,8.83,83-1.07,1.84,1.96,3.21,3.02,1.38h0Z"/>
    <path class="cls-17" d="M947.99,4.47c9.62,3.79,20.27,1.82,27.21-4.3,7.26-6.4,10.27-17.04,7.2-27.07-.45-1.47-2.63-.8-2.18.66,2.75,9-.11,18.66-6.51,24.46-6.23,5.63-16.11,7.66-24.87,4.21-1.45-.57-2.33,1.47-.86,2.05h0Z"/>
    <path class="cls-17" d="M682.05,39.92c-.24,18.73,16.15,34.72,34.02,37.53,1.26.2,1.69-1.74.42-1.94-17.05-2.68-32.68-17.8-32.45-35.7.02-1.28-1.97-1.17-1.99.11h0Z"/>
  </g>
  <g id="OBLAK_3" data-name="OBLAK 3">
    <g id="BODY">
      <path class="cls-3" d="M-174.5-14L5.04,337.34s36.17-56.83,72.33-88.48c0,0-60.71,133.04,105.27,127.88,124.65-6.46,91.71-144.02,91.71-144.02l111.73-29.06-23.9-93.65,89.13-69.1-100.11-156.29-182.13,62-19.38-49.08L1.81-55.33l31.65,102.04L-174.5-14Z"/>
      <g>
        <path class="cls-16" d="M276.62,232.39s-11.95-71.37-68.14-86.22"/>
        <path class="cls-1" d="M275.63,232.55c-6.85-34.42-25.81-70.99-60.29-84.11-1.89-.81-4.89-1.64-6.86-2.28,2,.6,4.99,1.39,6.9,2.16,25.52,8.98,43.29,31.89,53.49,56.16,3.77,8.94,6.8,18.15,8.74,27.74,0,0-1.97.33-1.97.33h0Z"/>
      </g>
      <g>
        <line class="cls-16" x1="364.45" y1="109.68" x2="341.53" y2="46.71"/>
        <polygon class="cls-1" points="363.51 110.02 341.53 46.71 365.39 109.34 363.51 110.02 363.51 110.02"/>
      </g>
    </g>
    <g id="DETALJI">
      <path class="cls-9" d="M66.68,27.41c-8.18-16.62-14.91-33.95-20.1-51.73-.87-2.97-1.58-6.52.43-8.88,1-1.18,2.5-1.79,3.94-2.35,8.78-3.46,17.56-6.92,26.34-10.39"/>
      <path class="cls-9" d="M339.27,118.07c7.1,20.67,11.91,38.95,16.73,58.73-8.05,1.55-16.11,3.11-24.16,4.66.31-.07.62-.14.93-.21"/>
      <path class="cls-9" d="M56.33,233.26c22.19-14.22,44.39-28.44,66.58-42.65-10.34,32.69-22.21,66.33-18.17,100.37.41,3.46,1.02,7,2.87,9.94,1.85,2.95,5.21,5.19,8.66,4.76"/>
      <path class="cls-9" d="M186.29,333.07c27.29-10.3,47.97-36.38,51.77-65.3,3.8-28.92-9.44-59.46-33.15-76.46"/>
    </g>
  </g>
  <g id="STRELICA">
    <path id="BODY-2" data-name="BODY" class="cls-12" d="M795.57,653.66l63.49-24.9s1.17,2.83,3.03,7.87c20.61,55.85,27.41,115.85,20.05,174.93-7.84,62.96-26.52,156.39-68.04,151.75-62.35-6.96-40.57-187.51-25.06-259.58,3.84-17.85,6.13-34.83,6.53-50.07,1.08-40.15-10.86-68.27-41.72-68.61-4.73-.05-12.76-1.84-36.84,7.34-230.63,84.85-261.3,463.94-261.3,463.94l211.06,43.84c-32.77-120.83,31.43-295.96,31.43-295.96-43.66,146.77-2.85,246.75,64.16,275.36,67,28.61,174.98,2.52,208.89-156.23,33.91-158.75-44.34-314.26-44.34-314.26l114.33-40.75-255.04-179.95-33.66,196.63s24.05-.68,33.4,18.12c9.35,18.8,9.63,50.53,9.63,50.53Z"/>
    <g id="DETALJI-2" data-name="DETALJI">
      <path class="cls-15" d="M864.12,462.43c-22.51-13.28-44.08-28.15-64.51-44.44-4.56,36.12-12.42,83.07-17.32,118.83"/>
      <path class="cls-15" d="M940.86,577.84c-13.71,6.1-27.41,12.2-41.12,18.3,3.16,16.24,7.9,32.17,14.15,47.48"/>
      <path class="cls-15" d="M812.87,983.5c23.85,1.44,47.54-15.59,53.78-38.65"/>
      <path class="cls-15" d="M703.57,990.15c12.21,27.46,31.79,52.14,57.65,67.47,25.86,15.32,58.22,20.56,86.74,11.07,26.62-8.86,48.03-29.6,62.82-53.44,14.79-23.84,23.67-50.81,31.84-77.65"/>
      <path class="cls-15" d="M947.21,921.04l.5.19"/>
      <path class="cls-15" d="M952.13,903.8q-.16.42,0,0"/>
      <path class="cls-15" d="M496.62,946.23c-7.19,24.54-17.46,58.23-17.57,97.22,16.36,2.92,32.72,5.83,49.08,8.75"/>
      <path class="cls-15" d="M667.83,647.21c18.64-13.91,38.77-25.83,59.93-35.48,9.94-4.53,21.6-8.55,31.45-3.83,7.17,3.43,11.68,10.96,13.45,18.7,1.77,7.75,1.18,15.81.58,23.74"/>
      <polygon class="cls-2" points="696.41 803.53 700 796.02 699.99 804.91 696.41 803.53"/>
    </g>
  </g>
  <g id="OBLAK">
    <g id="BODY-3" data-name="BODY">
      <path class="cls-13" d="M132.5,913.1c-55.71,34.42-80.49,96.18-63.69,146.02,17.48,51.86,72.6,68.86,82.94,71.78,54.77,15.47,118.16-6.82,148.34-53.95,15.83-24.73,18.55-50.08,18.88-64.45l98.59-5.44c-5.91-39.57-11.81-79.15-17.72-118.72,5.65,2.08,56.01,19.65,98.57-9.98,6.77-4.71,36.55-25.44,39.65-62.91.39-4.77,2.68-38.94-21.6-60.39-6.11-5.39-13.3-9.46-21.18-12.15l-8.11-90.83c-20.1,1.45-40.21,2.91-60.31,4.36-4.87-62.52-46.85-108.63-93.03-112.68-45.34-3.98-77.85,34.06-81.7,38.7-27.68,33.41-33.21,81.98-14.32,126.06l-63.39,1.51-.36,135.24-92.49,1.88,50.93,65.95Z"/>
      <g>
        <line class="cls-16" x1="237.81" y1="708.52" x2="299.54" y2="709.24"/>
        <polygon class="cls-1" points="237.82 707.28 299.54 709.24 237.79 709.76 237.82 707.28 237.82 707.28"/>
      </g>
      <g>
        <path class="cls-16" d="M426.94,657.05s2.9,19.45,1.43,36.23"/>
        <path class="cls-1" d="M428.17,656.87c1.19,12.1,1.56,24.33.2,36.42.29-6.05.09-12.1-.4-18.12-.5-5.99-1.23-12.02-2.26-17.93,0,0,2.46-.37,2.46-.37h0Z"/>
      </g>
      <g>
        <path class="cls-16" d="M494.03,742.51s-39.52-4.18-79.87,12.52"/>
        <path class="cls-1" d="M493.9,743.74c-26.9-2.29-54.52,1.56-79.74,11.28,18.81-7.98,39.07-12.44,59.46-13.7,6.83-.42,13.63-.53,20.54-.05,0,0-.26,2.47-.26,2.47h0Z"/>
      </g>
      <g>
        <line class="cls-16" x1="399.83" y1="888.34" x2="389.37" y2="818.24"/>
        <polygon class="cls-1" points="398.6 888.53 389.37 818.24 401.06 888.16 398.6 888.53 398.6 888.53"/>
      </g>
      <g>
        <path class="cls-16" d="M318.96,1012.5s0-57.65-26.15-90.86"/>
        <path class="cls-1" d="M317.72,1012.5c-.54-27.66-5.03-56.25-18.34-80.84-1.98-3.47-4.16-6.82-6.57-10.02,2.49,3.13,4.76,6.44,6.84,9.87,10.18,17.36,15.39,37.17,18.37,56.95,1.15,7.96,1.96,15.94,2.19,24.04h-2.49Z"/>
      </g>
      <g>
        <line class="cls-16" x1="132.5" y1="913.1" x2="166.3" y2="953.11"/>
        <polygon class="cls-1" points="133.45 912.3 166.3 953.11 131.55 913.9 133.45 912.3 133.45 912.3"/>
      </g>
      <g>
        <line class="cls-16" x1="174.06" y1="845.27" x2="232.43" y2="843.67"/>
        <polygon class="cls-1" points="174.03 844.02 232.43 843.67 174.09 846.51 174.03 844.02 174.03 844.02"/>
      </g>
    </g>
    <g id="DETALJI-3" data-name="DETALJI">
      <path class="cls-10" d="M113,952.49c-25.83,30.91-27.83,79.36-4.63,112.28,23.2,32.93,69.5,47.34,107.3,33.42,37.79-13.93,63.66-54.95,59.95-95.06"/>
      <path class="cls-10" d="M271.14,978.31l-.11-.73"/>
      <path class="cls-10" d="M356.45,980.74c8.04-.58,16.09-1.17,24.13-1.75-3.64-28.99-7.27-57.98-10.91-86.97"/>
      <path class="cls-10" d="M478.67,867.46c13.1-6.77,23.84-18,30.03-31.38,6.19-13.38,7.79-28.84,4.47-43.2-1.57-6.79-4.34-13.54-9.39-18.34-6.45-6.13-15.88-8.31-24.77-7.78-8.89.53-17.43,3.46-25.85,6.37.5-.18.99-.36,1.49-.53"/>
      <path class="cls-10" d="M462.33,874.05l-.73.11"/>
      <path class="cls-10" d="M444.25,878.25l-.37.05"/>
      <path class="cls-10" d="M425.77,877.27l-.37.05"/>
      <path class="cls-10" d="M446.65,682.5c8.58-1.11,17.15-2.23,25.73-3.34-.34,8.41.1,16.85,1.31,25.18"/>
      <path class="cls-10" d="M257.55,658.42c1.86-10.69,3.73-21.43,7.17-31.72,3.44-10.29,8.53-20.2,16.11-27.97,9.18-9.41,21.5-15.19,34.13-18.83,13.22-3.81,27.45-5.46,40.7-1.76,20.89,5.82,37.04,25.74,38.42,47.38"/>
      <path class="cls-10" d="M255.48,672.2l.04.24"/>
      <path class="cls-10" d="M254.88,686.51l-.04-.24"/>
      <path class="cls-10" d="M253.99,739.99c-18.13,1.54-36.26,3.07-54.39,4.61-.34,12.02-.67,24.04-1.01,36.05"/>
      <path class="cls-10" d="M198.27,812.84l-.37.05"/>
      <path class="cls-10" d="M144.91,899.97c-9.34-10.24-17.67-21.39-24.84-33.24,18.91,1.64,37.94,2.03,56.9,1.15"/>
      <path class="cls-10" d="M189.9,868.2l.33-.24"/>
      <path class="cls-10" d="M204.55,867.47l.21.16"/>
    </g>
  </g>
  <g id="OBLAK_2" data-name="OBLAK 2">
    <g id="BODY-4" data-name="BODY">
      <path class="cls-14" d="M-89.03,438.41v309.62l80.33-14.73s-19.69,191.76,81.37,185.02c101.06-6.74,65.3-187.09,65.3-187.09l49.24-13.47-30.06-167.4s154.44-39.91,100.54-187.09c-53.9-147.19-275.2-45.61-275.2-45.61l3.63,113.5-75.15,7.26Z"/>
      <g>
        <line class="cls-16" x1="139.53" y1="732.79" x2="89.77" y2="743.67"/>
        <polygon class="cls-1" points="139.81 734.07 89.77 743.67 139.25 731.5 139.81 734.07 139.81 734.07"/>
      </g>
      <g>
        <path class="cls-16" d="M157.15,552.43s-26.17,9.07-46.9,12.18"/>
        <path class="cls-1" d="M157.58,553.67c-15.52,4.7-31.25,8.81-47.33,10.94,7.96-1.45,15.78-3.5,23.52-5.79,7.73-2.31,15.41-4.85,22.95-7.63l.86,2.48h0Z"/>
      </g>
    </g>
    <g id="DETALJI-4" data-name="DETALJI">
      <path class="cls-11" d="M18.92,744.1c2.14,26.07,4.28,52.14,6.42,78.22.88,10.71,1.77,21.5,4.62,31.86,2.85,10.36,7.82,20.39,15.75,27.65,7.93,7.26,19.1,11.42,29.64,9.35,8-1.57,15.09-6.57,20.14-12.97,5.04-6.41,8.17-14.15,10.09-22.08"/>
      <path class="cls-11" d="M109.59,839.43h.29"/>
      <path class="cls-11" d="M123.42,699.97c11.06-2.21,22.12-4.42,33.18-6.63-3.15-24.27-6.3-48.53-9.45-72.8"/>
      <path class="cls-11" d="M177.39,498.04c22.58-7.95,40.89-26.24,50.68-48.09,9.8-21.84,11.41-46.91,6.49-70.34-2.89-13.77-8.22-27.46-18.05-37.51-9.67-9.89-23.11-15.54-36.8-17.53-13.69-1.98-27.68-.51-41.22,2.29"/>
      <path class="cls-11" d="M122.32,328.88v-.44"/>
      <path class="cls-11" d="M87.64,336.78l.44-.44"/>
      <path class="cls-11" d="M17.97,444.77c.28,21.8.56,43.61.85,65.41"/>
    </g>
  </g>
  <g>
    <g>
      <path class="cls-19" d="M162.97,626.53l-11.5,120.09c-.06.61.42,1.14,1.06,1.19l722.8,7.95c.64.05,1.21-.38,1.29-.98l11.44-95.85c.09-.64-.43-1.21-1.12-1.23l-722.73-32.19c-.63-.02-1.18.43-1.24,1.02Z"/>
      <g>
        <path class="cls-8" d="M183.28,643.69l-11.67,119.21c-.06.6.41,1.13,1.05,1.18l708.69,10.68c.63.05,1.21-.38,1.29-.97l11.56-95.14c.09-.64-.42-1.2-1.11-1.23l-708.57-34.75c-.63-.02-1.17.43-1.23,1.01Z"/>
        <g>
          <path class="cls-18" d="M216.79,734.06l-16.45-.65,2.01-51.05,16.08.63-.69,8.1.29.09c1.93-2.68,4.19-4.77,6.79-6.27,2.6-1.5,5.66-2.18,9.21-2.04,3.44.14,6.27,1.01,8.47,2.62,2.2,1.61,3.81,3.92,4.83,6.91,1.01,3,1.44,6.63,1.27,10.91-.15,3.69-.71,6.78-1.7,9.28-.98,2.5-2.31,4.48-3.97,5.94-1.66,1.46-3.6,2.48-5.81,3.06-2.22.58-4.65.81-7.31.71-1.92-.08-3.67-.34-5.25-.8-1.58-.46-2.96-1.1-4.14-1.94-1.17-.83-2.16-1.86-2.95-3.07l-.69,17.56ZM224.46,712.12c1.77.07,3.2-.18,4.28-.76,1.08-.57,1.88-1.56,2.41-2.97.52-1.41.83-3.29.92-5.65.09-2.31-.06-4.14-.45-5.48-.39-1.35-1.1-2.32-2.14-2.93-1.04-.61-2.44-.95-4.21-1.02-1.82-.07-3.27.15-4.35.68-1.08.52-1.87,1.45-2.36,2.79-.5,1.34-.79,3.16-.88,5.47-.09,2.36.07,4.25.48,5.67.41,1.42,1.12,2.46,2.13,3.11,1.01.66,2.4,1.02,4.17,1.09Z"/>
          <path class="cls-18" d="M272.05,723.23l-16.45-.65,1.5-38.07,16.08.63-.69,8.1.29.08c2.04-2.97,4.18-5.14,6.43-6.51,2.24-1.36,4.65-2,7.21-1.9,3.49.14,6.18,1.25,8.07,3.35,1.89,2.09,2.76,4.89,2.62,8.38l-.41,10.33-14.46-.57.19-4.94c.07-1.72-.23-2.94-.89-3.66-.66-.72-1.85-1.11-3.57-1.18-1.18-.05-2.14.11-2.86.48-.73.37-1.27,1-1.63,1.89-.36.9-.56,2.08-.62,3.56l-.81,20.66Z"/>
          <path class="cls-18" d="M325.86,726.46c-3.54-.14-6.74-.57-9.59-1.3-2.85-.73-5.29-1.9-7.32-3.5-2.03-1.61-3.56-3.75-4.59-6.42-1.03-2.67-1.46-6.01-1.31-9.99.16-3.98.9-7.25,2.23-9.81,1.33-2.56,3.12-4.53,5.37-5.92,2.25-1.39,4.79-2.32,7.65-2.8,2.85-.48,5.9-.65,9.15-.53,3.2.13,6.21.54,9.04,1.24,2.83.7,5.31,1.83,7.44,3.4,2.13,1.56,3.76,3.66,4.89,6.29,1.13,2.63,1.61,5.94,1.46,9.92-.21,5.31-1.37,9.4-3.48,12.28-2.11,2.87-4.96,4.83-8.54,5.87-3.59,1.04-7.72,1.47-12.39,1.28ZM326.27,715.99c1.62.06,2.96-.17,4.02-.69,1.05-.52,1.87-1.49,2.44-2.9.57-1.41.91-3.41,1.01-6.02.1-2.56-.08-4.51-.54-5.86-.46-1.35-1.2-2.29-2.22-2.82-1.01-.53-2.31-.83-3.88-.89-1.58-.06-2.9.13-3.98.58-1.08.45-1.9,1.33-2.47,2.64-.57,1.31-.9,3.26-1.01,5.87-.1,2.61.08,4.63.54,6.08.46,1.45,1.2,2.46,2.21,3.04,1.01.58,2.3.9,3.88.97Z"/>
          <path class="cls-18" d="M403.25,725.75c-.17,4.28-1.32,7.63-3.46,10.06-2.14,2.43-5.04,4.1-8.7,5.01-3.66.91-7.85,1.28-12.57,1.09-7.72-.3-13.31-1.53-16.77-3.69-3.46-2.16-5.18-5.45-5.15-9.88l16.67.66c.02.64.21,1.19.56,1.65.35.46.99.8,1.92,1.04s2.2.38,3.83.45c2.51.1,4.27-.3,5.29-1.2,1.02-.9,1.57-2.4,1.66-4.52l.05-1.25c.08-.69.13-1.35.15-1.99.03-.64.06-1.29.11-1.95.05-.66.09-1.31.11-1.95l-.29-.09c-1.62,2.35-3.68,4.21-6.17,5.59-2.49,1.38-5.49,2-8.98,1.86-2.56-.1-4.78-.62-6.66-1.56-1.88-.94-3.43-2.24-4.65-3.91-1.22-1.67-2.1-3.73-2.64-6.16-.54-2.43-.76-5.2-.63-8.3.14-3.59.7-6.59,1.68-8.99.98-2.4,2.3-4.29,3.96-5.68,1.65-1.39,3.59-2.36,5.8-2.91,2.21-.55,4.65-.78,7.3-.67,3.05.12,5.58.66,7.58,1.63,2.01.97,3.59,2.36,4.75,4.18l.18-4.57,16.45.65-1.4,35.41ZM381.05,698.42c-1.77-.07-3.2.16-4.28.68-1.08.52-1.88,1.42-2.4,2.68-.52,1.26-.82,2.97-.9,5.14-.09,2.21.08,3.98.49,5.3.42,1.32,1.13,2.29,2.14,2.89,1.01.61,2.4.94,4.17,1.01,1.87.07,3.33-.14,4.38-.64,1.05-.5,1.83-1.41,2.32-2.72.5-1.31.79-3.1.88-5.36.08-2.16-.07-3.88-.46-5.15-.39-1.27-1.11-2.21-2.14-2.82-1.04-.61-2.44-.95-4.21-1.02Z"/>
          <path class="cls-18" d="M428.45,729.4l-16.45-.65,1.5-38.07,16.08.63-.69,8.1.29.09c2.04-2.97,4.18-5.14,6.43-6.51,2.24-1.36,4.65-2,7.21-1.9,3.49.14,6.18,1.25,8.07,3.35,1.89,2.09,2.76,4.89,2.62,8.38l-.41,10.33-14.46-.57.19-4.94c.07-1.72-.23-2.94-.89-3.66-.66-.72-1.85-1.11-3.57-1.18-1.18-.05-2.14.11-2.86.48-.73.37-1.27,1-1.63,1.89-.36.9-.56,2.08-.62,3.56l-.81,20.66Z"/>
          <path class="cls-18" d="M471.36,731.83c-1.67-.07-3.35-.33-5.03-.79-1.68-.46-3.23-1.17-4.65-2.14-1.42-.97-2.54-2.23-3.36-3.79-.83-1.56-1.19-3.47-1.1-5.73.09-2.36.64-4.3,1.63-5.81.99-1.51,2.27-2.68,3.83-3.51,1.56-.83,3.22-1.39,4.98-1.69,1.76-.3,3.45-.42,5.08-.35,3.05.12,5.58.57,7.6,1.33,2.01.77,3.63,1.84,4.86,3.22l.26-6.49c.05-1.38-.27-2.34-.96-2.88-.69-.54-1.8-.85-3.33-.91-.89-.03-1.63.06-2.23.28-.6.22-1.06.6-1.38,1.13-.32.53-.49,1.29-.53,2.27l-15.57-.61c.12-3.1.85-5.64,2.19-7.63,1.33-1.99,3.54-3.44,6.6-4.36,3.07-.91,7.25-1.27,12.57-1.06,4.67.18,8.41.87,11.22,2.07,2.81,1.19,4.81,2.83,6.01,4.89,1.2,2.07,1.74,4.53,1.63,7.38l-.49,12.39c-.03.79.08,1.41.33,1.86.25.45.7.73,1.33.83.64.1,1.45.07,2.44-.09l-.42,10.77c-2.28.3-4.58.29-6.91-.05-2.33-.34-4.37-1.12-6.11-2.35-1.75-1.23-2.92-3.06-3.52-5.5h-.29c-1.79,2.78-4.18,4.73-7.18,5.84-3,1.11-6.17,1.6-9.52,1.47ZM479.24,722.98c2.16.09,3.7-.09,4.6-.52.9-.43,1.38-1.21,1.42-2.35.04-1.03-.41-1.83-1.35-2.38-.94-.55-2.42-.87-4.43-.95-1.97-.08-3.45.12-4.46.6-1,.48-1.53,1.23-1.57,2.27-.04,1.08.37,1.89,1.23,2.41.87.53,2.38.83,4.55.92Z"/>
          <path class="cls-18" d="M528.44,712.14l-.83,21.17-16.16-.64,1.5-38.07,15.94.63-.69,8.1.29.09c1.99-2.98,4.44-5.13,7.35-6.47,2.91-1.34,5.94-1.94,9.09-1.82,3.44.14,6.06,1,7.84,2.6,1.78,1.6,2.87,3.64,3.27,6.11l.22.08c1.93-2.73,4.29-4.73,7.07-6,2.78-1.27,5.75-1.84,8.9-1.72,3.84.15,6.77,1.35,8.8,3.6,2.03,2.25,2.98,4.99,2.85,8.24l-1.08,27.44-16.45-.65.84-21.32c.07-1.67-.19-3-.77-3.98-.58-.98-1.95-1.52-4.11-1.6-1.33-.05-2.44.09-3.34.42-.9.33-1.6.9-2.1,1.69-.5.79-.77,1.85-.83,3.18l-.83,21.17-16.45-.65.84-21.32c.07-1.67-.2-3-.8-3.98-.6-.98-1.96-1.52-4.07-1.6-1.28-.05-2.38.09-3.31.42-.93.33-1.64.9-2.14,1.69-.5.79-.78,1.85-.83,3.18Z"/>
          <path class="cls-18" d="M608.16,736.48l-16.6-.65,1.5-38.07,16.6.65-1.5,38.07ZM601.58,695.44c-3.3-.13-5.67-.78-7.13-1.94-1.46-1.17-2.14-2.9-2.05-5.22.09-2.31.91-3.99,2.45-5.04,1.54-1.05,3.96-1.51,7.26-1.38s5.63.78,7.02,1.94c1.38,1.16,2.03,2.9,1.94,5.21-.09,2.31-.87,3.99-2.34,5.04-1.47,1.05-3.85,1.51-7.15,1.38Z"/>
          <path class="cls-18" d="M633.54,737.49l-16.45-.65,1.5-38.07,16.08.63-.69,8.1.29.09c2.04-2.97,4.18-5.14,6.43-6.51,2.24-1.36,4.65-2,7.21-1.9,3.49.14,6.18,1.25,8.07,3.35,1.89,2.09,2.76,4.89,2.62,8.38l-.41,10.33-14.46-.57.19-4.94c.07-1.72-.23-2.94-.89-3.66-.66-.72-1.85-1.11-3.57-1.18-1.18-.05-2.14.11-2.86.48-.73.37-1.27,1-1.63,1.89-.36.9-.56,2.08-.62,3.56l-.81,20.66Z"/>
          <path class="cls-18" d="M676.45,739.92c-1.67-.07-3.35-.33-5.03-.79-1.68-.46-3.23-1.17-4.64-2.14-1.42-.97-2.54-2.23-3.36-3.79-.83-1.56-1.19-3.47-1.1-5.73.09-2.36.64-4.3,1.63-5.81,1-1.51,2.27-2.68,3.83-3.51,1.56-.83,3.22-1.39,4.98-1.69,1.76-.3,3.45-.42,5.08-.35,3.05.12,5.58.57,7.59,1.33,2.01.77,3.63,1.84,4.86,3.22l.26-6.49c.05-1.38-.27-2.34-.96-2.88-.69-.54-1.8-.85-3.33-.91-.89-.03-1.63.06-2.23.28-.6.22-1.06.6-1.38,1.13-.32.53-.49,1.29-.53,2.27l-15.57-.61c.12-3.1.85-5.64,2.19-7.63,1.33-1.99,3.53-3.44,6.6-4.36,3.07-.91,7.25-1.27,12.57-1.06,4.67.18,8.41.87,11.22,2.07,2.81,1.19,4.81,2.83,6.01,4.89,1.2,2.07,1.74,4.53,1.63,7.38l-.49,12.39c-.03.79.08,1.41.33,1.86.25.45.7.73,1.33.83.64.1,1.45.07,2.44-.09l-.42,10.77c-2.28.3-4.58.29-6.91-.05-2.33-.34-4.37-1.12-6.11-2.35-1.75-1.23-2.92-3.06-3.52-5.5h-.3c-1.78,2.78-4.18,4.73-7.18,5.84-3,1.11-6.17,1.6-9.52,1.47ZM684.34,731.06c2.16.09,3.7-.09,4.6-.52.9-.43,1.38-1.21,1.42-2.35.04-1.03-.41-1.83-1.35-2.38-.94-.55-2.42-.87-4.43-.95-1.97-.08-3.45.12-4.46.6-1,.48-1.53,1.23-1.57,2.27-.04,1.08.37,1.89,1.23,2.41.87.53,2.38.83,4.54.92Z"/>
          <path class="cls-18" d="M732.99,741.41l-16.45-.65,1.5-38.07,16.08.63-.69,8.1.29.09c1.94-2.93,4.4-5.07,7.38-6.43,2.98-1.36,6.22-1.97,9.71-1.83,4.08.16,7.19,1.37,9.31,3.62,2.13,2.25,3.13,5,3,8.25l-1.08,27.44-16.45-.65.84-21.4c.07-1.67-.24-3-.91-3.99-.68-.99-2.22-1.53-4.63-1.62-1.48-.06-2.74.08-3.79.4-1.05.33-1.85.89-2.39,1.68-.55.79-.85,1.85-.9,3.18l-.84,21.25Z"/>
          <path class="cls-18" d="M765.83,757.55l-4.56-9.86,9.66-5.16,1.49-37.7,16.6.65-1.59,40.43-21.59,11.64ZM780.93,702.51c-3.3-.13-5.67-.78-7.13-1.94-1.46-1.17-2.14-2.9-2.05-5.22.09-2.31.91-3.99,2.45-5.04,1.54-1.05,3.96-1.51,7.26-1.38,3.29.13,5.63.78,7.02,1.94,1.38,1.16,2.03,2.9,1.94,5.21-.09,2.31-.87,3.99-2.34,5.04-1.47,1.05-3.85,1.51-7.15,1.38Z"/>
          <path class="cls-18" d="M819.19,745.91c-4.82-.19-9-.93-12.55-2.23-3.54-1.3-6.24-3.46-8.09-6.49-1.85-3.03-2.67-7.2-2.46-12.51.14-3.59.74-6.57,1.79-8.94,1.05-2.37,2.42-4.25,4.1-5.64,1.68-1.39,3.54-2.42,5.59-3.1,2.05-.68,4.14-1.1,6.29-1.27,2.15-.16,4.21-.2,6.17-.13,5.21.21,9.4,1.08,12.57,2.64,3.16,1.55,5.42,3.95,6.77,7.18s1.82,7.52,1.41,12.88l-27.96-1.1c.01,2.17.27,3.89.76,5.17.49,1.28,1.31,2.19,2.44,2.76,1.13.56,2.66.88,4.58.96,2.46.05,4.2-.33,5.22-1.12,1.02-.8,1.61-2.25,1.8-4.36l14.31.56c-.43,4.76-2.49,8.5-6.17,11.21-3.68,2.71-9.21,3.9-16.58,3.56ZM819.73,715.34c-2.11-.08-3.64.24-4.58.96-.94.73-1.65,2.07-2.12,4.02l12.25.48c.1-1.33,0-2.38-.32-3.15-.31-.78-.88-1.34-1.71-1.69-.82-.35-2-.56-3.52-.62Z"/>
          <path class="cls-18" d="M858.08,747.08c-3.64-.14-6.18-.97-7.62-2.48-1.44-1.51-2.12-3.49-2.02-5.95.1-2.46.92-4.38,2.48-5.78,1.56-1.39,4.15-2.02,7.8-1.87,3.44.14,5.88.96,7.33,2.47,1.44,1.51,2.12,3.5,2.02,5.95-.1,2.46-.92,4.39-2.48,5.78-1.56,1.39-4.06,2.02-7.5,1.88ZM852.02,728.44l-2.9-35.06,21.91.86-5.65,34.73-13.35-.53Z"/>
        </g>
      </g>
    </g>
    <g>
      <path class="cls-22" d="M157.36,499.45l6.08,101.41c.12.51,22.17-4.06,22.68-4.17l320.24-72.56c.5-.11.82-.6.73-1.11l-21.86-109.29c-.1-.54-.65-.88-1.18-.73l-326.01,85.33c-.49.13-.79.63-.67,1.13Z"/>
      <g>
        <path class="cls-6" d="M144.45,481.76l16.56,96.6c.09.51.58.85,1.09.77l337.74-54.54c.51-.08.85-.56.78-1.07l-16.25-110.27c-.08-.55-.6-.91-1.14-.79l-338.05,68.21c-.5.11-.82.59-.73,1.09Z"/>
        <g>
          <path class="cls-18" d="M191.29,523.62l3.39,18.99-14.49,2.59-6.1-34.14,14.29-2.55.97,7.34.28.02c1.19-3.03,2.94-5.43,5.27-7.19,2.32-1.76,4.9-2.89,7.72-3.39,3.09-.55,5.58-.29,7.48.78,1.9,1.07,3.26,2.67,4.1,4.8l.21.03c1.18-2.8,2.89-5.04,5.12-6.72,2.23-1.67,4.75-2.76,7.57-3.26,3.44-.61,6.28-.12,8.52,1.48,2.24,1.6,3.62,3.86,4.14,6.77l4.4,24.61-14.75,2.63-3.41-19.12c-.27-1.5-.75-2.63-1.46-3.39-.71-.76-2.03-.97-3.97-.62-1.19.21-2.15.56-2.89,1.03-.74.47-1.25,1.11-1.54,1.91-.29.8-.33,1.8-.11,2.99l3.39,18.99-14.75,2.63-3.42-19.12c-.27-1.5-.77-2.63-1.49-3.39-.73-.76-2.04-.97-3.94-.63-1.15.2-2.1.55-2.85,1.02-.76.48-1.28,1.12-1.57,1.92-.29.8-.33,1.8-.11,2.99Z"/>
          <path class="cls-18" d="M271.8,493.61l14.75-2.63,6.1,34.14-14.42,2.58-.97-7.34-.28-.02c-1.18,3.08-2.98,5.49-5.4,7.24-2.42,1.75-5.15,2.9-8.19,3.44-3.62.65-6.6.18-8.96-1.4-2.35-1.58-3.79-3.83-4.31-6.74l-4.4-24.61,14.75-2.63,3.43,19.18c.17.97.46,1.8.85,2.48s1,1.15,1.82,1.42c.82.26,1.94.27,3.35.02,1.37-.24,2.47-.61,3.32-1.1.84-.49,1.43-1.14,1.77-1.95.33-.81.39-1.81.18-3l-3.4-19.05Z"/>
          <path class="cls-18" d="M333.59,508.17l1.67,9.33-35.52,6.34-1.56-8.73,9.87-14.67,2.7-3.21-.17-.93-4.83.86-9.79,1.75-1.67-9.33,34.2-6.11,1.55,8.67-9.75,14.58-2.88,3.38.17.93,5.29-.95,10.72-1.91Z"/>
          <path class="cls-18" d="M342.89,478.45c-2.96.53-5.19.42-6.72-.34-1.52-.75-2.47-2.16-2.84-4.24s.03-3.73,1.2-4.96c1.17-1.23,3.23-2.11,6.18-2.64,2.95-.53,5.16-.41,6.62.35,1.46.76,2.37,2.18,2.74,4.25s0,3.72-1.1,4.94c-1.1,1.22-3.13,2.09-6.08,2.62ZM356.76,513.66l-14.88,2.66-6.1-34.14,14.88-2.66,6.1,34.14Z"/>
          <path class="cls-18" d="M379.58,509.58l-14.75,2.63-8.62-48.29,14.75-2.63,4.42,24.74.66-.12,7.11-12.19,15.02-2.68-8.82,14.48,17.56,19.19-17.93,3.2-10.76-12.48-1.12.2,2.49,13.96Z"/>
          <path class="cls-18" d="M421.37,502.8c-1.5.27-3.04.36-4.63.28-1.58-.08-3.1-.41-4.55-1-1.45-.58-2.69-1.49-3.73-2.71s-1.74-2.85-2.1-4.88c-.38-2.12-.27-3.94.32-5.48.59-1.54,1.5-2.83,2.72-3.86,1.22-1.04,2.59-1.86,4.1-2.47,1.51-.61,2.99-1.05,4.44-1.31,2.73-.49,5.07-.59,7.01-.3,1.94.29,3.59.93,4.95,1.91l-1.04-5.82c-.22-1.23-.69-2.03-1.41-2.38-.72-.35-1.77-.4-3.13-.16-.79.14-1.44.37-1.93.69-.49.32-.82.74-1,1.27s-.19,1.24-.03,2.12l-13.96,2.49c-.5-2.78-.34-5.18.45-7.21.8-2.03,2.47-3.75,5.02-5.16,2.55-1.41,6.2-2.54,10.96-3.39,4.19-.75,7.65-.86,10.38-.35,2.73.51,4.83,1.57,6.3,3.18,1.47,1.6,2.43,3.68,2.89,6.24l1.98,11.11c.13.71.35,1.24.66,1.59.31.35.76.51,1.35.48.58-.04,1.3-.22,2.15-.56l1.72,9.66c-1.97.71-4.02,1.15-6.15,1.3-2.13.15-4.1-.14-5.89-.89s-3.19-2.15-4.2-4.2l-.26.05c-1.04,2.83-2.79,5.03-5.24,6.6s-5.17,2.63-8.17,3.17ZM426.65,493.39c1.94-.35,3.27-.8,3.99-1.36.72-.56.99-1.35.81-2.36-.17-.93-.72-1.54-1.66-1.85-.94-.31-2.32-.3-4.13.02-1.76.32-3.05.78-3.85,1.4-.8.62-1.12,1.39-.95,2.32.17.97.7,1.61,1.57,1.9.87.3,2.28.28,4.22-.07Z"/>
          <path class="cls-18" d="M457.46,479.36l-9.42-30.61,19.65-3.51,1.75,31.98-11.97,2.14ZM466.49,494.75c-3.26.58-5.68.34-7.26-.72-1.58-1.06-2.56-2.69-2.96-4.9-.39-2.2-.04-4.08,1.08-5.62,1.11-1.54,3.3-2.6,6.56-3.19,3.09-.55,5.42-.3,7,.76,1.58,1.06,2.56,2.69,2.96,4.9.39,2.21.03,4.08-1.08,5.62-1.11,1.54-3.21,2.59-6.3,3.14Z"/>
        </g>
      </g>
    </g>
    <g>
      <path class="cls-20" d="M515.42,325.38l-16.08,102.1c-.08.54.29,1.05.83,1.14l347.87,56.46c.54.09,1.04-.27,1.14-.8l21-115.65c.11-.57-.29-1.12-.87-1.18l-352.79-42.91c-.53-.06-1.02.31-1.1.84Z"/>
      <g>
        <path class="cls-4" d="M510.61,299.65l-22.41,100.9c-.12.54.22,1.06.76,1.19l351.43,81.64c.53.12,1.06-.2,1.19-.73l28.18-114.12c.14-.56-.22-1.13-.8-1.23l-357.19-68.43c-.53-.09-1.03.25-1.15.77Z"/>
        <g>
          <path class="cls-18" d="M530.68,390.82l-15.45-3.32,10.3-47.95,15.1,3.25-1.98,7.55.26.13c2.26-2.22,4.75-3.82,7.45-4.81,2.7-.99,5.72-1.13,9.04-.41,3.23.69,5.76,1.99,7.58,3.88,1.82,1.89,2.96,4.33,3.43,7.33.47,3,.27,6.51-.59,10.53-.74,3.46-1.79,6.3-3.13,8.5-1.34,2.2-2.92,3.86-4.73,4.96-1.81,1.11-3.81,1.75-6,1.94-2.19.18-4.53,0-7.03-.53-1.8-.39-3.41-.93-4.83-1.62-1.42-.69-2.62-1.53-3.59-2.51-.97-.98-1.73-2.11-2.28-3.39l-3.54,16.49ZM541.54,371.34c1.66.36,3.05.35,4.17,0,1.12-.36,2.04-1.17,2.77-2.41.73-1.25,1.33-2.98,1.8-5.19.47-2.17.63-3.92.48-5.26-.15-1.34-.66-2.38-1.54-3.12-.88-.74-2.15-1.3-3.81-1.65-1.71-.37-3.12-.39-4.22-.07-1.11.32-2.01,1.07-2.7,2.25-.69,1.18-1.27,2.86-1.73,5.03-.48,2.22-.64,4.03-.48,5.44.16,1.41.66,2.51,1.5,3.29.85.79,2.1,1.36,3.76,1.71Z"/>
          <path class="cls-18" d="M584.92,389.72l-15.59-3.35,7.68-35.75,15.59,3.35-7.68,35.75ZM585.45,349.82c-3.09-.66-5.23-1.67-6.42-3.01-1.19-1.34-1.54-3.1-1.08-5.27.47-2.17,1.52-3.62,3.15-4.36,1.63-.74,4-.77,7.09-.11s5.2,1.66,6.32,2.99,1.44,3.08.98,5.25c-.47,2.17-1.48,3.63-3.05,4.38-1.56.75-3.89.79-6.99.13Z"/>
          <path class="cls-18" d="M612.69,396.77c-7.58-1.63-12.82-3.78-15.72-6.46-2.9-2.68-3.85-6.35-2.85-11.01l13.93,2.99c-.37,1.51-.16,2.67.63,3.47.79.8,2.48,1.48,5.07,2.03,2.26.49,3.85.62,4.77.41.92-.21,1.46-.71,1.63-1.5.15-.69-.05-1.23-.6-1.61-.55-.38-1.4-.8-2.56-1.24l-8.74-3.18c-4.08-1.5-6.99-3.35-8.74-5.54-1.75-2.19-2.27-4.97-1.54-8.34.87-4.06,3.17-6.78,6.9-8.16,3.73-1.37,8.8-1.37,15.22,0,4.57.98,8.23,2.23,10.98,3.74,2.74,1.51,4.66,3.34,5.74,5.51,1.08,2.17,1.33,4.73.74,7.7l-13.93-2.99c.32-1.28.12-2.28-.62-3-.74-.71-2.13-1.29-4.16-1.73-1.71-.37-2.97-.46-3.79-.27-.81.19-1.29.6-1.43,1.25-.11.51.04.95.44,1.33.4.38,1.1.74,2.08,1.1l10.9,3.94c3.46,1.23,5.98,2.88,7.56,4.96,1.58,2.08,2.03,4.74,1.33,7.97-.62,2.86-1.9,5.1-3.87,6.71-1.96,1.61-4.56,2.57-7.8,2.89-3.23.32-7.09,0-11.57-.96Z"/>
          <path class="cls-18" d="M651.84,404.82c-1.57-.34-3.11-.86-4.63-1.57-1.51-.71-2.86-1.64-4.04-2.79-1.18-1.15-2.03-2.53-2.55-4.14-.52-1.61-.56-3.48-.1-5.6.48-2.22,1.31-3.96,2.5-5.23,1.19-1.27,2.59-2.16,4.2-2.69,1.61-.52,3.27-.78,4.99-.78,1.71,0,3.33.17,4.86.5,2.86.62,5.18,1.45,6.96,2.51,1.78,1.06,3.13,2.34,4.07,3.85l1.31-6.1c.28-1.29.13-2.25-.43-2.88-.57-.63-1.57-1.1-3-1.4-.83-.18-1.55-.21-2.15-.1-.61.11-1.1.39-1.49.84-.39.45-.68,1.14-.88,2.06l-14.62-3.14c.62-2.91,1.73-5.2,3.32-6.86,1.59-1.66,3.91-2.68,6.96-3.04,3.05-.36,7.07,0,12.06,1.07,4.39.94,7.81,2.21,10.27,3.8,2.46,1.59,4.09,3.46,4.88,5.62.79,2.15.9,4.57.33,7.25l-2.5,11.64c-.16.74-.16,1.34,0,1.81.16.47.54.8,1.13,1,.58.2,1.36.3,2.32.32l-2.17,10.12c-2.21-.09-4.38-.48-6.52-1.18-2.14-.7-3.94-1.78-5.39-3.23-1.46-1.45-2.26-3.37-2.42-5.77l-.28-.06c-2.15,2.34-4.73,3.79-7.75,4.35-3.02.56-6.1.5-9.24-.17ZM660.76,397.75c2.03.44,3.51.53,4.44.26.93-.26,1.5-.92,1.73-1.98.21-.97-.08-1.79-.88-2.47-.8-.68-2.14-1.22-4.04-1.63-1.85-.4-3.29-.45-4.31-.17-1.03.29-1.65.91-1.85,1.88-.22,1.02.04,1.85.77,2.48.73.64,2.11,1.18,4.15,1.62Z"/>
          <path class="cls-18" d="M705.06,415.53l-15.45-3.32,7.68-35.75,15.1,3.25-1.98,7.55.26.13c2.31-2.45,5-4.07,8.04-4.87,3.04-.8,6.21-.84,9.49-.14,3.83.82,6.57,2.48,8.21,4.95,1.64,2.48,2.14,5.24,1.48,8.29l-5.54,25.77-15.45-3.32,4.32-20.09c.34-1.57.27-2.88-.21-3.92-.48-1.04-1.85-1.81-4.11-2.3-1.39-.3-2.6-.38-3.65-.24-1.04.14-1.89.54-2.54,1.19-.65.66-1.11,1.61-1.38,2.86l-4.29,19.96Z"/>
          <path class="cls-18" d="M733.46,436.2l-2.69-10.07,9.99-3.29,7.61-35.41,15.59,3.35-8.16,37.97-22.33,7.45ZM756.8,386.64c-3.09-.67-5.23-1.67-6.42-3.01-1.19-1.34-1.54-3.1-1.08-5.27.47-2.17,1.51-3.62,3.15-4.36,1.63-.74,4-.77,7.09-.11s5.2,1.66,6.32,2.99c1.12,1.33,1.44,3.08.97,5.25-.47,2.17-1.48,3.63-3.04,4.38-1.56.75-3.89.79-6.99.13Z"/>
          <path class="cls-18" d="M785.84,433.98c-4.53-.97-8.36-2.36-11.5-4.17-3.14-1.81-5.33-4.3-6.59-7.47s-1.34-7.25-.27-12.24c.72-3.37,1.78-6.09,3.17-8.16,1.39-2.07,2.99-3.62,4.8-4.66,1.82-1.03,3.75-1.71,5.8-2.02,2.05-.31,4.1-.36,6.16-.16,2.06.2,4.01.5,5.86.9,4.9,1.05,8.71,2.57,11.45,4.56,2.74,1.99,4.48,4.62,5.23,7.9.75,3.28.48,7.41-.78,12.41l-26.26-5.64c-.34,2.05-.39,3.72-.13,5.01.25,1.29.87,2.29,1.85,3.01.98.72,2.37,1.27,4.17,1.66,2.32.45,4.03.38,5.12-.21,1.09-.59,1.9-1.86,2.42-3.83l13.44,2.89c-1.2,4.43-3.75,7.63-7.68,9.59-3.92,1.96-9.35,2.17-16.27.64ZM791.38,405.16c-1.99-.43-3.48-.37-4.49.16-1.01.53-1.9,1.68-2.66,3.45l11.5,2.47c.31-1.24.39-2.25.22-3.03-.17-.79-.62-1.41-1.33-1.88-.72-.47-1.8-.86-3.23-1.17Z"/>
          <path class="cls-18" d="M822.43,441.48c-3.42-.73-5.69-1.94-6.8-3.6-1.12-1.67-1.43-3.65-.93-5.96.5-2.31,1.59-3.99,3.3-5.05,1.7-1.06,4.26-1.22,7.68-.49,3.23.69,5.41,1.88,6.52,3.54,1.12,1.67,1.43,3.65.93,5.96-.5,2.31-1.6,4-3.3,5.05-1.7,1.06-4.17,1.24-7.4.55ZM819.76,422.85l3.02-33.64,20.58,4.42-11.06,31.91-12.54-2.69Z"/>
        </g>
      </g>
    </g>
    <g>
      <path class="cls-21" d="M522.79,499.08l-9.03,97.78c-.05.49.31.93.81.98l317.92,43.4c.49.05.08-10.79.14-11.28l14.8-114.27c.07-.52-.32-.99-.85-1.02l-322.85-16.41c-.48-.02-.9.34-.95.82Z"/>
      <g>
        <path class="cls-7" d="M507.46,505.35l-11.98,97.46c-.06.49.29.94.78,1.01l315.93,42.46c.49.07.94-.27,1.01-.75l18.25-113.77c.08-.52-.29-1-.82-1.04l-322.2-26.15c-.48-.04-.91.31-.97.79Z"/>
        <g>
          <path class="cls-18" d="M563.65,534.7l14.66,1.8-5.88,48-14.53-1.78,1.21-7.19-.25-.1c-1.92,2.21-4.07,3.9-6.46,5.08-2.39,1.18-5.14,1.57-8.25,1.19-2.28-.28-4.23-.91-5.84-1.88s-2.9-2.29-3.85-3.94c-.95-1.65-1.58-3.61-1.88-5.87-.3-2.26-.28-4.82.07-7.67.4-3.29,1.14-6.01,2.2-8.17,1.07-2.16,2.39-3.83,3.99-5.02,1.59-1.18,3.4-1.95,5.42-2.31,2.02-.35,4.22-.38,6.58-.09,1.71.21,3.24.58,4.6,1.1,1.36.52,2.54,1.2,3.55,2.04,1.01.84,1.82,1.83,2.44,2.97l2.22-18.15ZM554.86,556.25c-1.58-.19-2.87-.06-3.89.39-1.01.46-1.8,1.28-2.37,2.48-.57,1.2-.98,2.85-1.24,4.95-.25,2.02-.24,3.65.03,4.91.27,1.26.83,2.19,1.69,2.81.86.62,2.08,1.02,3.65,1.22,1.67.2,2.99.11,3.97-.28.98-.39,1.74-1.16,2.29-2.32.54-1.16.94-2.76,1.19-4.83.26-2.1.27-3.8.02-5.1s-.8-2.28-1.68-2.94c-.88-.66-2.1-1.09-3.68-1.28Z"/>
          <path class="cls-18" d="M595.24,587.29l-14.79-1.81,4.16-33.93,14.79,1.81-4.16,33.93ZM592.39,550.1c-2.94-.36-5.01-1.12-6.23-2.27-1.22-1.15-1.7-2.75-1.45-4.82.25-2.06,1.11-3.5,2.57-4.32,1.46-.82,3.65-1.05,6.59-.69,2.94.36,4.98,1.11,6.13,2.25,1.15,1.14,1.6,2.74,1.35,4.8-.25,2.06-1.08,3.51-2.47,4.34-1.39.83-3.56,1.07-6.49.71Z"/>
          <path class="cls-18" d="M638.78,583.22l-1.14,9.27-35.31-4.33,1.06-8.68,13.55-10.95,3.48-2.24.11-.92-4.8-.59-9.73-1.19,1.14-9.27,33.99,4.17-1.06,8.61-13.42,10.9-3.69,2.35-.11.92,5.26.64,10.65,1.31Z"/>
          <path class="cls-18" d="M655.39,595.33c-1.49-.18-2.97-.54-4.44-1.08-1.47-.54-2.8-1.29-3.99-2.26-1.19-.97-2.1-2.18-2.73-3.64-.62-1.45-.81-3.19-.56-5.21.26-2.1.89-3.8,1.89-5.07,1-1.28,2.23-2.23,3.69-2.85,1.45-.62,2.98-1,4.58-1.14,1.6-.14,3.12-.12,4.56.06,2.72.33,4.95.92,6.69,1.75,1.74.84,3.11,1.92,4.11,3.24l.71-5.79c.15-1.23-.06-2.11-.64-2.65s-1.55-.89-2.91-1.06c-.79-.1-1.46-.07-2.01.09-.55.16-.99.46-1.31.91-.32.45-.54,1.11-.64,1.99l-13.87-1.7c.34-2.76,1.18-4.98,2.52-6.67,1.34-1.68,3.42-2.82,6.22-3.41,2.81-.59,6.58-.59,11.31-.01,4.16.51,7.46,1.4,9.88,2.68,2.42,1.28,4.09,2.88,5.01,4.82.92,1.94,1.22,4.18.91,6.72l-1.35,11.05c-.09.7-.03,1.26.16,1.69.19.42.57.7,1.13.84.56.14,1.29.17,2.19.1l-1.18,9.6c-2.06.1-4.12-.08-6.17-.56-2.06-.47-3.82-1.32-5.29-2.55-1.47-1.23-2.39-2.95-2.74-5.17l-.26-.03c-1.8,2.36-4.08,3.93-6.85,4.7-2.76.77-5.64.98-8.62.61ZM663.09,588c1.93.24,3.31.19,4.15-.13.84-.32,1.32-.98,1.45-1.99.11-.92-.23-1.66-1.03-2.23-.8-.57-2.1-.96-3.89-1.18-1.75-.22-3.1-.15-4.03.21-.93.35-1.46.99-1.57,1.91-.12.96.19,1.71.93,2.25.74.54,2.07.92,4,1.16Z"/>
          <path class="cls-18" d="M685.67,611.78l-3.35-9.15,9.02-3.9,4.12-33.6,14.79,1.81-4.42,36.03-20.17,8.81ZM703.24,563.69c-2.94-.36-5.01-1.12-6.23-2.27-1.22-1.15-1.7-2.75-1.45-4.82.25-2.06,1.11-3.5,2.57-4.32,1.46-.82,3.65-1.05,6.59-.69,2.94.36,4.98,1.11,6.13,2.25,1.15,1.14,1.6,2.74,1.35,4.8-.25,2.06-1.08,3.51-2.47,4.34-1.39.83-3.56,1.07-6.49.71Z"/>
          <path class="cls-18" d="M728.71,603.65l-14.66-1.8,4.16-33.93,14.33,1.76-1.21,7.19.26.1c1.95-2.47,4.31-4.21,7.08-5.21,2.77-1,5.71-1.3,8.82-.92,3.64.45,6.32,1.75,8.06,3.92,1.74,2.17,2.43,4.7,2.07,7.6l-3,24.46-14.66-1.8,2.34-19.07c.18-1.49,0-2.7-.52-3.63-.53-.93-1.87-1.53-4.02-1.79-1.31-.16-2.45-.13-3.41.08-.96.22-1.71.66-2.26,1.32-.55.67-.9,1.59-1.04,2.78l-2.32,18.94Z"/>
          <path class="cls-18" d="M771.43,609.55c-3.24-.4-5.46-1.33-6.63-2.78-1.18-1.46-1.63-3.28-1.36-5.47.27-2.19,1.15-3.85,2.65-4.98,1.49-1.13,3.86-1.5,7.11-1.1,3.07.38,5.19,1.29,6.37,2.75,1.18,1.46,1.63,3.28,1.37,5.47-.27,2.19-1.15,3.85-2.65,4.98-1.5,1.13-3.78,1.51-6.85,1.13ZM767.39,592.43v-31.57s19.52,2.39,19.52,2.39l-7.62,30.63-11.9-1.46Z"/>
        </g>
      </g>
    </g>
    <g>
      <path class="cls-23" d="M78.39,389.19l31.11,86.51c.16.44.72.58,1.26.33l411.54-219.45c.54-.25.85-.8.72-1.24l-23-70.05c-.15-.47-.75-.63-1.32-.34L79.04,387.95c-.52.27-.81.82-.66,1.25Z"/>
      <path class="cls-5" d="M93.44,393.88l34.49,84.26c.17.43.68.61,1.13.42l417.18-210.11c.45-.19.68-.68.52-1.11l-26.02-68.05c-.17-.46-.71-.66-1.18-.43L93.91,392.76c-.43.21-.64.7-.47,1.12Z"/>
      <g>
        <path class="cls-18" d="M156.27,435.92l-11.93,5.71-13.22-27.59,11.66-5.58,2.55,6.01.24-.05c.28-2.81,1.22-5.25,2.83-7.34s3.68-3.73,6.21-4.95c2.96-1.42,5.62-1.73,7.97-.93,2.36.8,4.1,2.38,5.22,4.73l9.53,19.89-11.92,5.71-7.43-15.51c-.58-1.21-1.3-2.04-2.15-2.49-.85-.45-2.15-.25-3.9.58-1.07.51-1.92,1.08-2.54,1.71-.62.63-.98,1.32-1.07,2.09-.09.77.09,1.63.55,2.6l7.38,15.4Z"/>
        <path class="cls-18" d="M198.2,416.82c-2.57,1.23-5,2.12-7.3,2.67-2.3.55-4.47.64-6.52.26-2.04-.38-3.93-1.33-5.67-2.84-1.73-1.51-3.29-3.72-4.68-6.6-1.38-2.89-2.08-5.49-2.1-7.81-.01-2.32.52-4.39,1.59-6.22,1.07-1.83,2.53-3.45,4.38-4.86,1.84-1.41,3.94-2.68,6.3-3.81,2.32-1.11,4.61-1.95,6.89-2.51,2.27-.56,4.46-.69,6.56-.38,2.1.31,4.04,1.19,5.83,2.63,1.79,1.45,3.37,3.61,4.76,6.5,1.84,3.85,2.56,7.19,2.14,10.02-.42,2.83-1.71,5.29-3.86,7.37-2.16,2.09-4.93,3.94-8.32,5.56ZM194.56,409.22c1.18-.56,2.04-1.23,2.59-2,.55-.77.77-1.76.65-2.97s-.63-2.76-1.54-4.65c-.89-1.85-1.75-3.17-2.58-3.96-.84-.78-1.71-1.17-2.63-1.17-.92,0-1.95.28-3.09.82-1.14.55-2.01,1.18-2.6,1.91-.6.72-.85,1.66-.76,2.8.09,1.14.58,2.66,1.49,4.55.9,1.89,1.79,3.26,2.66,4.12.87.86,1.77,1.3,2.71,1.33.94.03,1.97-.22,3.12-.77Z"/>
        <path class="cls-18" d="M224.77,403.1l-23.7-22.57,13.1-6.28,9.67,9.9,4.07,4.1.27-.13-.62-5.82-1.52-13.74,10.21-4.89,2.84,32.56-14.33,6.87Z"/>
        <path class="cls-18" d="M242.98,358.08c-2.39,1.14-4.32,1.58-5.79,1.29-1.47-.28-2.61-1.26-3.41-2.93s-.85-3.17-.15-4.5c.7-1.32,2.25-2.56,4.64-3.7,2.39-1.14,4.29-1.56,5.71-1.26,1.42.31,2.53,1.3,3.33,2.97.8,1.68.88,3.16.23,4.46-.65,1.3-2.17,2.52-4.56,3.66ZM263.06,384.76l-12.03,5.76-13.22-27.59,12.03-5.76,13.22,27.59Z"/>
        <path class="cls-18" d="M279.31,376.97l-11.93,5.71-13.22-27.59,11.66-5.58,2.55,6.01.24-.05c.28-2.81,1.22-5.25,2.83-7.34s3.68-3.73,6.21-4.95c2.96-1.42,5.62-1.73,7.97-.93,2.36.8,4.1,2.38,5.22,4.73l9.53,19.89-11.92,5.71-7.43-15.51c-.58-1.21-1.3-2.04-2.15-2.49-.85-.45-2.15-.25-3.9.58-1.07.51-1.92,1.08-2.54,1.71-.62.63-.98,1.32-1.07,2.09-.09.77.09,1.63.55,2.6l7.38,15.4Z"/>
        <path class="cls-18" d="M314.01,361.01c-1.21.58-2.5,1.02-3.87,1.33-1.37.3-2.73.38-4.1.22-1.37-.16-2.64-.63-3.81-1.43s-2.15-2.02-2.93-3.66c-.82-1.71-1.16-3.29-1.02-4.74.14-1.45.61-2.76,1.41-3.93.8-1.17,1.77-2.19,2.9-3.07,1.14-.87,2.29-1.59,3.47-2.16,2.21-1.06,4.17-1.69,5.89-1.9,1.72-.21,3.27-.05,4.66.46l-2.25-4.71c-.48-1-1.07-1.56-1.76-1.69s-1.6.08-2.7.6c-.64.31-1.13.65-1.48,1.04-.34.38-.53.82-.55,1.32-.03.5.13,1.1.47,1.81l-11.28,5.4c-1.08-2.25-1.51-4.33-1.31-6.24.2-1.92,1.22-3.77,3.05-5.57,1.83-1.8,4.68-3.62,8.53-5.46,3.39-1.62,6.3-2.54,8.75-2.74,2.44-.21,4.48.2,6.11,1.22,1.63,1.02,2.94,2.56,3.93,4.63l4.3,8.98c.27.57.58.97.93,1.2.35.23.77.26,1.26.09.49-.17,1.06-.49,1.7-.98l3.74,7.81c-1.5,1.07-3.14,1.92-4.92,2.56-1.78.63-3.52.84-5.22.63-1.7-.21-3.22-1.08-4.56-2.58l-.21.1c-.22,2.65-1.19,4.93-2.9,6.85-1.71,1.92-3.78,3.46-6.2,4.62ZM316.29,351.77c1.57-.75,2.59-1.45,3.07-2.1.48-.65.52-1.38.13-2.2-.36-.75-.98-1.14-1.85-1.19-.88-.04-2.04.29-3.5.99-1.43.68-2.41,1.38-2.94,2.1-.53.72-.62,1.45-.26,2.2.38.78.97,1.2,1.78,1.25.81.05,2-.3,3.57-1.05Z"/>
        <path class="cls-18" d="M352.58,341.88l-11.92,5.71-13.22-27.59,11.66-5.58,2.55,6.01.24-.05c.33-2.88,1.04-5.22,2.12-7.03,1.08-1.81,2.55-3.16,4.4-4.05,2.53-1.21,4.86-1.43,6.99-.65,2.13.78,3.79,2.43,5.01,4.96l3.59,7.49-10.48,5.02-1.72-3.58c-.6-1.25-1.27-2-2-2.26-.74-.26-1.73-.09-2.98.51-.86.41-1.47.88-1.85,1.41-.38.53-.53,1.19-.44,1.96.08.77.38,1.69.9,2.76l7.17,14.97Z"/>
        <path class="cls-18" d="M388.15,325.82c-5.85,2.8-10.42,4.06-13.71,3.77-3.29-.29-5.8-2.23-7.53-5.83l10.75-5.15c.53,1.19,1.26,1.85,2.19,1.97.93.12,2.4-.29,4.4-1.25,1.75-.84,2.87-1.56,3.37-2.17.5-.61.6-1.22.31-1.83-.26-.53-.66-.79-1.22-.76-.56.03-1.33.19-2.33.49l-7.41,2.37c-3.47,1.09-6.34,1.36-8.62.81-2.28-.55-4.04-2.13-5.29-4.73-1.5-3.14-1.37-6.11.39-8.93,1.76-2.82,5.12-5.41,10.08-7.79,3.53-1.69,6.59-2.74,9.18-3.15,2.59-.41,4.79-.17,6.62.71,1.82.88,3.3,2.45,4.43,4.72l-10.75,5.15c-.44-1.01-1.09-1.57-1.95-1.66-.86-.09-2.07.23-3.64.99-1.32.63-2.2,1.22-2.64,1.76-.44.54-.54,1.06-.3,1.56.19.39.51.61.97.65.46.04,1.11-.07,1.94-.34l9.23-2.97c2.92-.96,5.43-1.16,7.54-.59,2.11.57,3.77,2.1,4.96,4.59,1.06,2.21,1.35,4.35.87,6.42-.48,2.07-1.71,4.04-3.68,5.9-1.98,1.87-4.69,3.63-8.15,5.29Z"/>
        <path class="cls-18" d="M394.84,296.98l-3.61-7.54,27.43-13.14,3.61,7.54-27.43,13.14ZM422.21,309.51c-3,1.43-5.58,2.23-7.76,2.4-2.18.17-4-.19-5.47-1.06s-2.61-2.15-3.41-3.82l-8.94-18.66-1.09-9.01,9.3-4.46,11.45,23.9c.34.71.7,1.26,1.09,1.65.38.39.83.6,1.33.65.5.04,1.09-.1,1.77-.42,1.03-.5,1.59-1.14,1.66-1.95.08-.8-.3-2.06-1.12-3.77l8.18-3.92c2.08,4.35,2.58,7.97,1.49,10.86-1.09,2.89-3.92,5.43-8.48,7.61Z"/>
        <path class="cls-18" d="M443.11,298.51l-23.7-22.57,13.1-6.28,9.67,9.9,4.07,4.1.27-.13-.62-5.82-1.52-13.74,10.21-4.89,2.84,32.56-14.33,6.87Z"/>
        <path class="cls-18" d="M484.67,279.59c-2.57,1.23-5,2.12-7.3,2.67-2.3.55-4.47.64-6.52.26-2.04-.38-3.93-1.33-5.67-2.84-1.73-1.51-3.29-3.72-4.68-6.6-1.38-2.89-2.08-5.49-2.1-7.81-.01-2.32.52-4.39,1.59-6.22,1.07-1.83,2.53-3.45,4.38-4.86,1.84-1.41,3.94-2.68,6.3-3.81,2.32-1.11,4.61-1.95,6.89-2.51,2.27-.56,4.46-.69,6.56-.38,2.1.31,4.04,1.19,5.83,2.63,1.79,1.44,3.37,3.61,4.76,6.5,1.84,3.85,2.56,7.19,2.14,10.02-.42,2.83-1.71,5.29-3.86,7.37-2.16,2.09-4.93,3.94-8.32,5.56ZM481.04,271.99c1.18-.56,2.04-1.23,2.59-2,.55-.77.77-1.76.65-2.97s-.63-2.76-1.54-4.65c-.89-1.85-1.75-3.17-2.58-3.96-.84-.78-1.71-1.17-2.63-1.17-.92,0-1.95.28-3.09.82-1.14.55-2.01,1.18-2.6,1.91-.6.72-.85,1.66-.76,2.8.09,1.14.58,2.66,1.49,4.55.91,1.89,1.79,3.26,2.66,4.12.87.85,1.77,1.3,2.71,1.33.94.03,1.97-.22,3.12-.77Z"/>
        <path class="cls-18" d="M501,255.06l-15.22-23.81,15.88-7.61,9.02,26.78-9.68,4.64ZM512.3,266.02c-2.64,1.26-4.75,1.63-6.34,1.1-1.59-.53-2.81-1.69-3.67-3.47-.85-1.78-.99-3.46-.41-5.03.58-1.57,2.19-2.99,4.83-4.25,2.5-1.2,4.54-1.53,6.13-1,1.59.53,2.81,1.69,3.67,3.47.85,1.78.99,3.46.41,5.03-.58,1.57-2.12,2.96-4.62,4.15Z"/>
      </g>
    </g>
  </g>
</svg>