<?xml version="1.0" encoding="UTF-8"?>
<svg id="Layer_1" data-name="Layer 1" xmlns="http://www.w3.org/2000/svg" viewBox="0 0 1920 1080">
  <defs>
    <style>
      .cls-1 {
        fill: #336;
      }

      .cls-2 {
        fill: #fc3;
      }

      .cls-3 {
        fill: #ececec;
      }
    </style>
  </defs>
  <rect class="cls-1" x="-242" y="-116" width="2363" height="1310"/>
  <g>
    <path class="cls-3" d="M358.03,313.54v-28.55h117.8v28.55h-117.8ZM434.94,421.05c-12.35,0-22.46-1.54-30.35-4.63-7.89-3.09-13.72-7.67-17.49-13.76-3.77-6.08-5.66-13.5-5.66-22.25v-89.51l9.77-37.29h34.72v117.28c0,4.46.39,8.19,1.16,11.19.77,3,2.27,5.36,4.5,7.07,2.23,1.72,5.49,2.57,9.77,2.57,6.51,0,11.02-2.1,13.5-6.3,2.48-4.2,3.64-11.36,3.47-21.48h32.15c.34,19.38-3.82,33.74-12.47,43.08-8.66,9.35-23.02,14.02-43.08,14.02Z"/>
    <path class="cls-3" d="M547.84,420.28c-6.17,0-12.31-.69-18.39-2.06-6.09-1.37-11.62-3.6-16.59-6.69-4.98-3.09-9-7.24-12.09-12.47-3.09-5.23-4.63-11.61-4.63-19.16,0-8.23,1.63-15,4.89-20.32,3.26-5.31,7.46-9.47,12.6-12.47,5.14-3,10.71-5.14,16.72-6.43,6-1.29,11.83-1.93,17.49-1.93,10.8,0,19.93,1.33,27.39,3.99,7.46,2.66,13.07,6.39,16.85,11.19v-25.98c0-6.86-1.72-11.7-5.14-14.53-3.43-2.83-8.83-4.24-16.2-4.24-4.8,0-8.66.64-11.57,1.93-2.92,1.29-5.02,3.3-6.3,6.04-1.29,2.74-1.93,6.6-1.93,11.57h-42.95c0-10.46,2.1-19.16,6.3-26.11,4.2-6.94,11.1-12.17,20.71-15.69,9.6-3.51,22.54-5.27,38.84-5.27,15.26,0,27.43,1.84,36.52,5.53,9.09,3.69,15.65,8.96,19.68,15.82,4.03,6.86,6.04,15.09,6.04,24.69v50.41c0,3.6.64,6.3,1.93,8.1,1.29,1.8,3.22,2.83,5.79,3.09,2.57.26,5.66-.04,9.26-.9v29.32c-7.03,1.37-14.11,1.67-21.22.9-7.12-.77-13.37-3-18.78-6.69-5.4-3.69-9.05-9.39-10.93-17.1h-.77c-5.14,8.58-12.35,14.96-21.6,19.16s-19.89,6.3-31.89,6.3ZM566.88,394.56c9.43,0,16.16-1.24,20.19-3.73,4.03-2.48,6.04-6.56,6.04-12.22,0-5.31-2.1-9.3-6.3-11.96-4.2-2.66-10.85-3.99-19.93-3.99s-15.78,1.33-20.06,3.99c-4.29,2.66-6.43,6.65-6.43,11.96,0,5.66,2.01,9.73,6.04,12.22,4.03,2.49,10.84,3.73,20.45,3.73Z"/>
    <path class="cls-3" d="M664.35,417.71v-187.76h45.52v187.76h-45.52Z"/>
    <path class="cls-3" d="M804.27,421.31c-16.12,0-29.96-2.19-41.54-6.56-11.57-4.37-20.45-11.7-26.62-21.99-6.17-10.29-9.26-24.26-9.26-41.92,0-11.49,1.37-21.26,4.12-29.32,2.74-8.06,6.56-14.7,11.45-19.93,4.89-5.23,10.5-9.3,16.85-12.22,6.34-2.91,13.07-4.97,20.19-6.17,7.11-1.2,14.27-1.8,21.48-1.8,16.46,0,29.92,2.36,40.38,7.07,10.46,4.72,18.04,12.47,22.76,23.28,4.71,10.8,6.56,25.38,5.53,43.72h-96.45c.17,9.43,1.37,16.98,3.6,22.63,2.23,5.66,5.74,9.69,10.55,12.09,4.8,2.4,11.23,3.6,19.29,3.6,10.29-.34,17.7-2.48,22.25-6.43,4.54-3.94,6.9-10.2,7.07-18.78h39.61c-.69,16.46-6.86,29.37-18.52,38.71-11.66,9.35-29.24,14.02-52.73,14.02ZM801.18,308.66c-9.77,0-16.72,1.97-20.83,5.92-4.12,3.95-6.6,10.29-7.46,19.03h53.5c.34-5.49-.13-10.12-1.41-13.89-1.29-3.77-3.73-6.56-7.33-8.36-3.6-1.8-9.09-2.7-16.46-2.7Z"/>
    <path class="cls-3" d="M933.38,417.71h-44.5v-132.72h43.72l-1.29,26.23,1.03.26c5.66-9.43,13.33-16.63,23.02-21.6,9.69-4.97,20.62-7.46,32.79-7.46,14.74,0,25.93,3.82,33.56,11.45,7.63,7.63,11.45,17.79,11.45,30.48v93.36h-44.5v-77.42c0-8.06-1.67-14.23-5.02-18.52-3.34-4.28-10.16-6.43-20.45-6.43-6.86,0-12.52.99-16.97,2.96-4.46,1.97-7.72,4.85-9.77,8.62-2.06,3.77-3.09,8.23-3.09,13.37v77.42Z"/>
    <path class="cls-3" d="M1044.23,313.54v-28.55h117.8v28.55h-117.8ZM1121.14,421.05c-12.35,0-22.46-1.54-30.35-4.63-7.89-3.09-13.72-7.67-17.49-13.76-3.77-6.08-5.66-13.5-5.66-22.25v-89.51l9.77-37.29h34.72v117.28c0,4.46.39,8.19,1.16,11.19.77,3,2.27,5.36,4.5,7.07,2.23,1.72,5.49,2.57,9.77,2.57,6.51,0,11.02-2.1,13.5-6.3,2.48-4.2,3.64-11.36,3.47-21.48h32.15c.34,19.38-3.82,33.74-12.47,43.08-8.66,9.35-23.02,14.02-43.08,14.02Z"/>
    <path class="cls-3" d="M411.53,599.28c-6.17,0-12.31-.69-18.39-2.06-6.09-1.37-11.62-3.6-16.59-6.69-4.98-3.09-9-7.24-12.09-12.47-3.09-5.23-4.63-11.61-4.63-19.16,0-8.23,1.63-15,4.89-20.32,3.26-5.31,7.46-9.47,12.6-12.47,5.14-3,10.71-5.14,16.72-6.43,6-1.29,11.83-1.93,17.49-1.93,10.8,0,19.93,1.33,27.39,3.99,7.46,2.66,13.07,6.39,16.85,11.19v-25.98c0-6.86-1.72-11.7-5.14-14.53-3.43-2.83-8.83-4.24-16.2-4.24-4.8,0-8.66.64-11.57,1.93-2.92,1.29-5.02,3.3-6.3,6.04-1.29,2.74-1.93,6.6-1.93,11.57h-42.95c0-10.46,2.1-19.16,6.3-26.11,4.2-6.94,11.1-12.17,20.71-15.69,9.6-3.51,22.54-5.27,38.84-5.27,15.26,0,27.43,1.84,36.52,5.53,9.09,3.69,15.65,8.96,19.68,15.82,4.03,6.86,6.04,15.09,6.04,24.69v50.41c0,3.6.64,6.3,1.93,8.1,1.29,1.8,3.22,2.83,5.79,3.09,2.57.26,5.66-.04,9.26-.9v29.32c-7.03,1.37-14.11,1.67-21.22.9-7.12-.77-13.37-3-18.78-6.69-5.4-3.68-9.05-9.39-10.93-17.1h-.77c-5.14,8.58-12.35,14.96-21.6,19.16s-19.89,6.3-31.89,6.3ZM430.56,573.56c9.43,0,16.16-1.24,20.19-3.73,4.03-2.48,6.04-6.56,6.04-12.22,0-5.31-2.1-9.3-6.3-11.96-4.2-2.66-10.85-3.99-19.93-3.99s-15.78,1.33-20.06,3.99c-4.29,2.66-6.43,6.65-6.43,11.96,0,5.66,2.01,9.73,6.04,12.22,4.03,2.49,10.84,3.73,20.45,3.73Z"/>
    <path class="cls-3" d="M597.74,600.05c-25.72,0-44.84-5.53-57.36-16.59-12.52-11.06-18.78-28.93-18.78-53.63s6.08-41.96,18.26-52.85c12.17-10.89,30.18-16.33,54.01-16.33,14.57,0,26.75,2.06,36.52,6.17,9.77,4.12,17.1,10.42,21.99,18.9,4.89,8.49,7.07,19.25,6.56,32.28h-43.21c.34-10.46-1.16-17.83-4.5-22.12-3.34-4.28-9.22-6.43-17.62-6.43-6.52,0-11.7,1.29-15.56,3.86-3.86,2.57-6.6,6.78-8.23,12.6-1.63,5.83-2.44,13.72-2.44,23.66,0,15.09,2.31,25.59,6.94,31.51,4.63,5.92,12.86,8.87,24.69,8.87,10.29,0,17.62-2.36,21.99-7.07,4.37-4.71,6.56-12.47,6.56-23.28h39.35c.17,19.72-5.62,34.72-17.36,45.01-11.75,10.29-29.02,15.43-51.83,15.43Z"/>
    <path class="cls-3" d="M724.28,599.28c-6.17,0-12.31-.69-18.39-2.06-6.09-1.37-11.62-3.6-16.59-6.69-4.98-3.09-9-7.24-12.09-12.47-3.09-5.23-4.63-11.61-4.63-19.16,0-8.23,1.63-15,4.89-20.32,3.26-5.31,7.46-9.47,12.6-12.47,5.14-3,10.71-5.14,16.72-6.43,6-1.29,11.83-1.93,17.49-1.93,10.8,0,19.93,1.33,27.39,3.99,7.46,2.66,13.07,6.39,16.85,11.19v-25.98c0-6.86-1.72-11.7-5.14-14.53-3.43-2.83-8.83-4.24-16.2-4.24-4.8,0-8.66.64-11.57,1.93-2.92,1.29-5.02,3.3-6.3,6.04-1.29,2.74-1.93,6.6-1.93,11.57h-42.95c0-10.46,2.1-19.16,6.3-26.11,4.2-6.94,11.1-12.17,20.71-15.69,9.6-3.51,22.54-5.27,38.84-5.27,15.26,0,27.43,1.84,36.52,5.53,9.09,3.69,15.65,8.96,19.68,15.82,4.03,6.86,6.04,15.09,6.04,24.69v50.41c0,3.6.64,6.3,1.93,8.1,1.29,1.8,3.22,2.83,5.79,3.09,2.57.26,5.66-.04,9.26-.9v29.32c-7.03,1.37-14.11,1.67-21.22.9-7.12-.77-13.37-3-18.78-6.69-5.4-3.68-9.05-9.39-10.93-17.1h-.77c-5.14,8.58-12.35,14.96-21.6,19.16s-19.89,6.3-31.89,6.3ZM743.32,573.56c9.43,0,16.16-1.24,20.19-3.73,4.03-2.48,6.04-6.56,6.04-12.22,0-5.31-2.1-9.3-6.3-11.96-4.2-2.66-10.85-3.99-19.93-3.99s-15.78,1.33-20.06,3.99c-4.29,2.66-6.43,6.65-6.43,11.96,0,5.66,2.01,9.73,6.04,12.22,4.03,2.49,10.84,3.73,20.45,3.73Z"/>
    <path class="cls-3" d="M940.07,408.95h44.5v187.76h-44.5l1.29-27.52-.77-.26c-5.66,9.26-12.95,16.63-21.86,22.12-8.92,5.49-19.46,8.23-31.64,8.23-8.4,0-15.91-1.33-22.51-3.99-6.6-2.66-12.22-6.82-16.85-12.47-4.63-5.66-8.15-12.82-10.55-21.48-2.4-8.66-3.6-18.99-3.6-30.99,0-13.37,1.58-24.52,4.76-33.44,3.17-8.91,7.54-15.99,13.12-21.22,5.57-5.23,12.09-8.91,19.55-11.06,7.46-2.14,15.56-3.21,24.31-3.21,6.69,0,12.9.82,18.65,2.44,5.74,1.63,10.84,4.07,15.3,7.33,4.46,3.26,8.06,7.2,10.8,11.83v-74.07ZM909.72,489.2c-7.03,0-12.86,1.2-17.49,3.6-4.63,2.4-8.1,6.56-10.42,12.47s-3.47,14.02-3.47,24.31,1.11,18.35,3.34,24.18c2.23,5.83,5.66,9.9,10.29,12.22,4.63,2.31,10.54,3.47,17.75,3.47s13.07-1.16,17.62-3.47c4.54-2.31,7.93-6.39,10.16-12.22,2.23-5.83,3.34-13.89,3.34-24.18s-1.12-18.6-3.34-24.43c-2.23-5.83-5.62-9.94-10.16-12.35-4.55-2.4-10.42-3.6-17.62-3.6Z"/>
    <path class="cls-3" d="M1078.96,600.31c-16.12,0-29.96-2.19-41.54-6.56-11.57-4.37-20.45-11.7-26.62-21.99-6.17-10.29-9.26-24.26-9.26-41.92,0-11.49,1.37-21.26,4.12-29.32,2.74-8.06,6.56-14.7,11.45-19.93,4.89-5.23,10.5-9.3,16.85-12.22,6.34-2.91,13.07-4.97,20.19-6.17,7.11-1.2,14.27-1.8,21.48-1.8,16.46,0,29.92,2.36,40.38,7.07,10.46,4.72,18.04,12.47,22.76,23.28,4.71,10.8,6.56,25.38,5.53,43.72h-96.45c.17,9.43,1.37,16.98,3.6,22.63,2.23,5.66,5.74,9.69,10.54,12.09,4.8,2.4,11.23,3.6,19.29,3.6,10.29-.34,17.7-2.48,22.25-6.43,4.54-3.94,6.9-10.2,7.07-18.78h39.61c-.69,16.46-6.86,29.37-18.52,38.71-11.66,9.35-29.24,14.02-52.73,14.02ZM1075.87,487.66c-9.77,0-16.72,1.97-20.83,5.92-4.12,3.95-6.6,10.29-7.46,19.03h53.5c.34-5.49-.13-10.12-1.41-13.89-1.29-3.77-3.73-6.56-7.33-8.36s-9.09-2.7-16.46-2.7Z"/>
    <path class="cls-3" d="M1207.3,519.55v77.16h-43.72v-132.72h43.47l-1.29,26.23.77.26c5.83-9.6,13.33-16.85,22.5-21.73,9.17-4.89,19.25-7.33,30.22-7.33s20.45,2.53,26.88,7.59c6.43,5.06,10.58,11.96,12.47,20.7l.77.26c5.83-9.43,13.25-16.55,22.25-21.35,9-4.8,18.99-7.2,29.96-7.2,13.54,0,23.88,3.82,30.99,11.45,7.11,7.63,10.67,17.79,10.67,30.48v93.36h-44.5v-77.16c0-8.06-1.46-14.23-4.37-18.52-2.92-4.28-8.92-6.43-18-6.43-6,0-10.93.99-14.79,2.96-3.86,1.97-6.73,4.8-8.62,8.49-1.89,3.69-2.83,8.19-2.83,13.5v77.16h-44.5v-77.16c0-8.06-1.46-14.23-4.37-18.52-2.92-4.28-8.83-6.43-17.75-6.43-6,0-10.93.99-14.79,2.96-3.86,1.97-6.73,4.8-8.62,8.49-1.89,3.69-2.83,8.19-2.83,13.5Z"/>
    <path class="cls-3" d="M1445.21,463.99l20.58,55.56,13.12,36.78h1.29l13.12-36.01,21.35-56.33h38.84l-53.75,137.35c-2.92,7.03-6.3,12.86-10.16,17.49-3.86,4.63-8.45,8.44-13.76,11.45-5.32,3-11.66,5.7-19.03,8.1l-28.29,9.77-9.77-30.61,24.18-7.72c3.6-1.03,6.64-1.97,9.13-2.83,2.48-.86,4.54-1.97,6.17-3.34,1.63-1.38,2.87-3.26,3.73-5.66l1.8-4.63h-16.98l-50.67-129.37h49.13Z"/>
  </g>
  <g>
    <path class="cls-2" d="M381.5,719.8c-3.4,0-6.53-.38-9.39-1.14-2.87-.76-5.35-2.06-7.43-3.92-2.09-1.86-3.72-4.44-4.89-7.74-1.17-3.3-1.75-7.48-1.75-12.52s.58-9.22,1.75-12.52c1.17-3.3,2.8-5.89,4.89-7.78,2.09-1.88,4.56-3.21,7.43-3.99,2.87-.78,6-1.17,9.39-1.17s6.51.39,9.36,1.17c2.84.78,5.32,2.11,7.43,3.99,2.11,1.88,3.75,4.46,4.92,7.74,1.17,3.28,1.75,7.44,1.75,12.49s-.58,9.22-1.75,12.52c-1.17,3.3-2.81,5.9-4.92,7.78-2.11,1.88-4.59,3.2-7.43,3.96-2.85.76-5.96,1.14-9.36,1.14ZM381.5,711.34c2.52,0,4.52-.47,5.99-1.41,1.47-.94,2.52-2.64,3.17-5.09.64-2.45.96-5.93.96-10.43,0-3.39-.17-6.19-.52-8.4-.34-2.2-.91-3.92-1.69-5.16-.78-1.24-1.81-2.11-3.1-2.62-1.29-.5-2.87-.76-4.75-.76-2.48,0-4.46.47-5.95,1.41-1.49.94-2.57,2.64-3.23,5.09-.67,2.46-1,5.95-1,10.49,0,3.35.17,6.12.52,8.33s.92,3.92,1.72,5.16c.8,1.24,1.86,2.11,3.17,2.62,1.31.5,2.88.76,4.71.76Z"/>
    <path class="cls-2" d="M409.23,718.91v-11.42c0-2.89.44-5.3,1.31-7.23.87-1.93,2.17-3.5,3.89-4.71s3.8-2.14,6.23-2.79l12.11-3.23c1.88-.55,3.29-1.26,4.23-2.13.94-.87,1.41-2.22,1.41-4.06,0-2.2-.67-3.81-2-4.82-1.33-1.01-3.28-1.51-5.85-1.51-2.11,0-3.75.34-4.92,1.03s-1.97,1.75-2.41,3.2c-.44,1.44-.65,3.29-.65,5.54h-12.8c0-6.01,1.71-10.47,5.13-13.38,3.42-2.91,8.64-4.37,15.66-4.37s11.92,1.31,15.38,3.92c3.46,2.62,5.2,6.54,5.2,11.77,0,4.13-1.09,7.33-3.27,9.6-2.18,2.27-5.22,3.91-9.12,4.92l-12.04,3.3c-1.56.46-2.73,1.11-3.51,1.96-.78.85-1.17,2.1-1.17,3.75v1.93h29.45v8.74h-42.25Z"/>
    <path class="cls-2" d="M453.48,701.43v-8.33h23.33v8.33h-23.33Z"/>
    <path class="cls-2" d="M504.19,719.8c-3.4,0-6.53-.38-9.39-1.14-2.87-.76-5.35-2.06-7.43-3.92-2.09-1.86-3.72-4.44-4.89-7.74-1.17-3.3-1.75-7.48-1.75-12.52s.58-9.22,1.75-12.52c1.17-3.3,2.8-5.89,4.89-7.78,2.09-1.88,4.56-3.21,7.43-3.99,2.87-.78,6-1.17,9.39-1.17s6.51.39,9.36,1.17c2.84.78,5.32,2.11,7.43,3.99,2.11,1.88,3.75,4.46,4.92,7.74,1.17,3.28,1.75,7.44,1.75,12.49s-.58,9.22-1.75,12.52c-1.17,3.3-2.81,5.9-4.92,7.78-2.11,1.88-4.59,3.2-7.43,3.96-2.85.76-5.96,1.14-9.36,1.14ZM504.19,711.34c2.52,0,4.52-.47,5.99-1.41,1.47-.94,2.52-2.64,3.17-5.09.64-2.45.96-5.93.96-10.43,0-3.39-.17-6.19-.52-8.4-.34-2.2-.91-3.92-1.69-5.16-.78-1.24-1.81-2.11-3.1-2.62-1.29-.5-2.87-.76-4.75-.76-2.48,0-4.46.47-5.95,1.41-1.49.94-2.57,2.64-3.23,5.09-.67,2.46-1,5.95-1,10.49,0,3.35.17,6.12.52,8.33s.92,3.92,1.72,5.16c.8,1.24,1.86,2.11,3.17,2.62,1.31.5,2.88.76,4.71.76Z"/>
    <path class="cls-2" d="M552.85,669.02c3.53,0,6.74.39,9.63,1.17,2.89.78,5.37,2.12,7.43,4.03,2.06,1.9,3.65,4.47,4.75,7.71s1.65,7.31,1.65,12.21c0,5.23-.6,9.51-1.79,12.83-1.19,3.33-2.86,5.93-4.99,7.81-2.13,1.88-4.6,3.19-7.4,3.92-2.8.73-5.83,1.1-9.08,1.1-6.7,0-11.81-1.25-15.35-3.75-3.53-2.5-5.35-6.39-5.44-11.66h13.08c.04,2.61.73,4.47,2.06,5.57,1.33,1.1,3.3,1.65,5.92,1.65,1.65,0,3.08-.23,4.3-.69,1.21-.46,2.22-1.24,3.03-2.34.8-1.1,1.4-2.65,1.79-4.64.39-2,.58-4.53.58-7.6h-.21c-.92.96-2.15,1.86-3.68,2.68-1.54.83-3.29,1.48-5.26,1.96-1.97.48-4.08.72-6.33.72s-4.3-.26-6.3-.79c-2-.53-3.78-1.4-5.37-2.62-1.58-1.21-2.82-2.82-3.72-4.82-.89-2-1.34-4.46-1.34-7.4,0-3.95.91-7.17,2.72-9.67,1.81-2.5,4.37-4.36,7.67-5.57,3.3-1.21,7.18-1.82,11.63-1.82ZM553.67,677.07c-3.35,0-5.79.67-7.33,2-1.54,1.33-2.31,3.42-2.31,6.26s.77,4.86,2.31,6.19c1.54,1.33,3.98,2,7.33,2s5.71-.67,7.23-2c1.51-1.33,2.27-3.39,2.27-6.19s-.76-4.93-2.27-6.26c-1.51-1.33-3.92-2-7.23-2Z"/>
    <path class="cls-2" d="M587.32,719.46c-2.8,0-4.76-.61-5.88-1.82-1.12-1.21-1.69-2.86-1.69-4.92s.56-3.65,1.69-4.89c1.12-1.24,3.08-1.86,5.88-1.86,2.61,0,4.5.62,5.64,1.86,1.15,1.24,1.72,2.87,1.72,4.89s-.57,3.71-1.72,4.92c-1.15,1.22-3.03,1.82-5.64,1.82Z"/>
    <path class="cls-2" d="M621.45,719.8c-3.4,0-6.53-.38-9.39-1.14-2.87-.76-5.35-2.06-7.43-3.92-2.09-1.86-3.72-4.44-4.89-7.74-1.17-3.3-1.75-7.48-1.75-12.52s.58-9.22,1.75-12.52c1.17-3.3,2.8-5.89,4.89-7.78,2.09-1.88,4.56-3.21,7.43-3.99,2.87-.78,6-1.17,9.39-1.17s6.51.39,9.36,1.17c2.84.78,5.32,2.11,7.43,3.99,2.11,1.88,3.75,4.46,4.92,7.74,1.17,3.28,1.75,7.44,1.75,12.49s-.58,9.22-1.75,12.52c-1.17,3.3-2.81,5.9-4.92,7.78-2.11,1.88-4.59,3.2-7.43,3.96-2.85.76-5.96,1.14-9.36,1.14ZM621.45,711.34c2.52,0,4.52-.47,5.99-1.41,1.47-.94,2.52-2.64,3.17-5.09.64-2.45.96-5.93.96-10.43,0-3.39-.17-6.19-.52-8.4-.34-2.2-.91-3.92-1.69-5.16-.78-1.24-1.81-2.11-3.1-2.62-1.29-.5-2.87-.76-4.75-.76-2.48,0-4.46.47-5.95,1.41-1.49.94-2.57,2.64-3.23,5.09-.67,2.46-1,5.95-1,10.49,0,3.35.17,6.12.52,8.33s.92,3.92,1.72,5.16c.8,1.24,1.86,2.11,3.17,2.62,1.31.5,2.88.76,4.71.76Z"/>
    <path class="cls-2" d="M691.51,681.47c0,2.98-.92,5.31-2.75,6.99-1.84,1.67-4.59,2.76-8.26,3.27v.28c2.94.41,5.46,1.13,7.57,2.17,2.11,1.03,3.74,2.44,4.89,4.23,1.15,1.79,1.72,4.01,1.72,6.67,0,3.58-.98,6.45-2.92,8.6-1.95,2.16-4.66,3.72-8.12,4.68-3.46.96-7.54,1.45-12.21,1.45s-8.69-.48-12.18-1.45c-3.49-.96-6.21-2.53-8.15-4.71-1.95-2.18-2.92-5.01-2.92-8.5,0-2.71.57-4.96,1.72-6.74,1.15-1.79,2.78-3.2,4.89-4.23,2.11-1.03,4.61-1.75,7.5-2.17v-.28c-3.67-.5-6.42-1.59-8.26-3.27-1.84-1.67-2.75-3.98-2.75-6.92s.85-5.39,2.55-7.23c1.7-1.83,4.05-3.18,7.05-4.03,3-.85,6.53-1.27,10.56-1.27s7.56.41,10.56,1.24c3,.83,5.34,2.17,7.02,4.03,1.67,1.86,2.51,4.25,2.51,7.19ZM671.41,712.03c3.21,0,5.69-.58,7.43-1.75,1.74-1.17,2.61-3.24,2.61-6.23.05-2.84-.8-4.85-2.55-6.02-1.74-1.17-4.22-1.75-7.43-1.75s-5.71.58-7.5,1.75c-1.79,1.17-2.68,3.2-2.68,6.09s.88,4.99,2.65,6.16c1.77,1.17,4.25,1.75,7.47,1.75ZM671.41,688.63c2.29,0,4.06-.46,5.3-1.38,1.24-.92,1.86-2.48,1.86-4.68s-.61-3.66-1.82-4.51c-1.22-.85-2.97-1.27-5.26-1.27s-4.14.42-5.4,1.27c-1.26.85-1.89,2.37-1.89,4.58s.62,3.75,1.86,4.65,3.03,1.34,5.37,1.34Z"/>
    <path class="cls-2" d="M706.51,719.46c-2.8,0-4.76-.61-5.88-1.82-1.12-1.21-1.69-2.86-1.69-4.92s.56-3.65,1.69-4.89c1.12-1.24,3.08-1.86,5.88-1.86,2.61,0,4.5.62,5.64,1.86,1.15,1.24,1.72,2.87,1.72,4.89s-.57,3.71-1.72,4.92c-1.15,1.22-3.03,1.82-5.64,1.82Z"/>
    <path class="cls-2" d="M718.83,718.91v-11.42c0-2.89.44-5.3,1.31-7.23.87-1.93,2.17-3.5,3.89-4.71s3.8-2.14,6.23-2.79l12.11-3.23c1.88-.55,3.29-1.26,4.23-2.13.94-.87,1.41-2.22,1.41-4.06,0-2.2-.67-3.81-2-4.82-1.33-1.01-3.28-1.51-5.85-1.51-2.11,0-3.75.34-4.92,1.03s-1.97,1.75-2.41,3.2c-.44,1.44-.65,3.29-.65,5.54h-12.8c0-6.01,1.71-10.47,5.13-13.38,3.42-2.91,8.64-4.37,15.66-4.37s11.92,1.31,15.38,3.92c3.46,2.62,5.2,6.54,5.2,11.77,0,4.13-1.09,7.33-3.27,9.6-2.18,2.27-5.22,3.91-9.12,4.92l-12.04,3.3c-1.56.46-2.73,1.11-3.51,1.96-.78.85-1.17,2.1-1.17,3.75v1.93h29.45v8.74h-42.25Z"/>
    <path class="cls-2" d="M788.4,719.8c-3.4,0-6.53-.38-9.39-1.14-2.87-.76-5.35-2.06-7.43-3.92-2.09-1.86-3.72-4.44-4.89-7.74-1.17-3.3-1.75-7.48-1.75-12.52s.58-9.22,1.75-12.52c1.17-3.3,2.8-5.89,4.89-7.78,2.09-1.88,4.56-3.21,7.43-3.99,2.87-.78,6-1.17,9.39-1.17s6.51.39,9.36,1.17c2.84.78,5.32,2.11,7.43,3.99,2.11,1.88,3.75,4.46,4.92,7.74,1.17,3.28,1.75,7.44,1.75,12.49s-.58,9.22-1.75,12.52c-1.17,3.3-2.81,5.9-4.92,7.78-2.11,1.88-4.59,3.2-7.43,3.96-2.85.76-5.96,1.14-9.36,1.14ZM788.4,711.34c2.52,0,4.52-.47,5.99-1.41,1.47-.94,2.52-2.64,3.17-5.09.64-2.45.96-5.93.96-10.43,0-3.39-.17-6.19-.52-8.4-.34-2.2-.91-3.92-1.69-5.16-.78-1.24-1.81-2.11-3.1-2.62-1.29-.5-2.87-.76-4.75-.76-2.48,0-4.46.47-5.95,1.41-1.49.94-2.57,2.64-3.23,5.09-.67,2.46-1,5.95-1,10.49,0,3.35.17,6.12.52,8.33s.92,3.92,1.72,5.16c.8,1.24,1.86,2.11,3.17,2.62,1.31.5,2.88.76,4.71.76Z"/>
    <path class="cls-2" d="M816.13,718.91v-11.42c0-2.89.44-5.3,1.31-7.23.87-1.93,2.17-3.5,3.89-4.71s3.8-2.14,6.23-2.79l12.11-3.23c1.88-.55,3.29-1.26,4.23-2.13.94-.87,1.41-2.22,1.41-4.06,0-2.2-.67-3.81-2-4.82-1.33-1.01-3.28-1.51-5.85-1.51-2.11,0-3.75.34-4.92,1.03s-1.97,1.75-2.41,3.2c-.44,1.44-.65,3.29-.65,5.54h-12.8c0-6.01,1.71-10.47,5.13-13.38,3.42-2.91,8.64-4.37,15.66-4.37s11.92,1.31,15.38,3.92c3.46,2.62,5.2,6.54,5.2,11.77,0,4.13-1.09,7.33-3.27,9.6-2.18,2.27-5.22,3.91-9.12,4.92l-12.04,3.3c-1.56.46-2.73,1.11-3.51,1.96-.78.85-1.17,2.1-1.17,3.75v1.93h29.45v8.74h-42.25Z"/>
    <path class="cls-2" d="M860.1,709.41v-8.33l17.55-31.17h14.04l-17.69,30.62v.28h32.41v8.6h-46.31ZM885.77,718.91v-32.41h13.01v32.41h-13.01Z"/>
    <path class="cls-2" d="M917.15,719.46c-2.8,0-4.76-.61-5.88-1.82-1.12-1.21-1.69-2.86-1.69-4.92s.56-3.65,1.69-4.89c1.12-1.24,3.08-1.86,5.88-1.86,2.61,0,4.5.62,5.64,1.86,1.15,1.24,1.72,2.87,1.72,4.89s-.57,3.71-1.72,4.92c-1.15,1.22-3.03,1.82-5.64,1.82Z"/>
  </g>
  <g>
    <path class="cls-2" d="M381.7,800.8c-5.46,0-9.93-.55-13.42-1.65-3.49-1.1-6.06-2.87-7.71-5.3-1.65-2.43-2.5-5.62-2.55-9.57h13.14c.05,3.03.88,5.17,2.51,6.43,1.63,1.26,4.32,1.89,8.09,1.89,3.44,0,5.95-.45,7.54-1.34,1.58-.89,2.37-2.37,2.37-4.44,0-1.47-.4-2.62-1.2-3.47-.8-.85-2.31-1.43-4.51-1.75l-12.11-1.72c-4.82-.73-8.41-2.22-10.77-4.47-2.36-2.25-3.54-5.55-3.54-9.91,0-5.09,1.82-8.95,5.47-11.56,3.65-2.61,8.93-3.92,15.86-3.92,7.52,0,13.06,1.24,16.62,3.72,3.55,2.48,5.4,6.65,5.54,12.52h-13.14c0-1.97-.29-3.54-.86-4.71-.57-1.17-1.5-2.03-2.79-2.58-1.28-.55-3.07-.83-5.37-.83-2.8,0-4.91.42-6.33,1.27-1.42.85-2.13,2.28-2.13,4.3,0,1.38.4,2.45,1.2,3.23.8.78,2.17,1.31,4.09,1.58l12.39,1.93c5.14.78,8.84,2.34,11.11,4.68,2.27,2.34,3.41,5.69,3.41,10.05,0,5.18-1.9,9.08-5.71,11.7-3.81,2.62-9.54,3.92-17.2,3.92Z"/>
    <path class="cls-2" d="M404.21,799.91l18.17-49.2h16.45l18.17,49.2h-14.59l-4.13-11.56h-18.65l-4.27,11.56h-11.15ZM422.3,780.02h13.28l-3.72-10.12-2.75-7.71h-.21l-2.82,7.64-3.78,10.18Z"/>
    <path class="cls-2" d="M472.95,799.91h-13.21v-49h22.43c4.4,0,8.09.36,11.04,1.07,2.96.71,5.18,1.95,6.67,3.72,1.49,1.77,2.24,4.23,2.24,7.4,0,2.66-.53,4.86-1.58,6.61-1.06,1.74-2.59,3.09-4.61,4.03-2.02.94-4.5,1.59-7.43,1.96v.21c2.94.14,5.48.57,7.64,1.31,2.16.73,3.89,1.89,5.2,3.48,1.31,1.58,2.12,3.71,2.44,6.37l1.58,12.87h-13.21l-1.24-10.67c-.27-2.52-.76-4.38-1.44-5.57-.69-1.19-1.66-1.97-2.92-2.34-1.26-.37-2.95-.55-5.06-.55h-8.53v19.13ZM480.32,759.17h-7.5v13.35h7.5c1.51,0,2.81-.1,3.89-.31,1.08-.21,1.95-.57,2.62-1.1.66-.53,1.16-1.24,1.48-2.13.32-.89.48-2.03.48-3.41,0-1.83-.27-3.21-.83-4.13-.55-.92-1.46-1.52-2.72-1.82-1.26-.3-2.9-.45-4.92-.45Z"/>
    <path class="cls-2" d="M505.78,799.91l18.17-49.2h16.45l18.17,49.2h-14.59l-4.13-11.56h-18.65l-4.27,11.56h-11.15ZM523.87,780.02h13.28l-3.72-10.12-2.75-7.71h-.21l-2.82,7.64-3.78,10.18Z"/>
    <path class="cls-2" d="M577.89,800.8c-4.36,0-8.04-.62-11.04-1.86-3.01-1.24-5.29-3.19-6.85-5.85-1.56-2.66-2.34-6.12-2.34-10.39v-3.78h12.32v3.85c0,1.74.18,3.2.55,4.37.37,1.17.87,2.1,1.51,2.79.64.69,1.43,1.18,2.37,1.48.94.3,1.96.45,3.06.45,1.47,0,2.72-.24,3.75-.72,1.03-.48,1.82-1.3,2.37-2.44.55-1.15.83-2.66.83-4.54v-33.24h13.14v33.31c0,5.5-1.65,9.65-4.96,12.42-3.3,2.78-8.21,4.16-14.73,4.16Z"/>
    <path class="cls-2" d="M644.71,799.91h-41.15v-49h37.99v8.53h-24.77v10.74h19.06v8.46h-19.06v12.73h27.94v8.53Z"/>
    <path class="cls-2" d="M660.47,800.12l-17.89-49.2h14.52l9.77,27.66,3.3,9.57h.27l3.44-9.7,9.77-27.53h11.22l-17.89,49.2h-16.52Z"/>
    <path class="cls-2" d="M719.79,800.8c-3.85,0-7.38-.38-10.56-1.14-3.19-.76-5.93-2.09-8.22-3.99-2.29-1.9-4.06-4.5-5.3-7.78-1.24-3.28-1.86-7.42-1.86-12.42s.62-9.22,1.86-12.52c1.24-3.3,3-5.89,5.3-7.78,2.29-1.88,5.03-3.21,8.22-3.99,3.19-.78,6.71-1.17,10.56-1.17s7.43.39,10.6,1.17c3.17.78,5.89,2.11,8.19,3.99,2.29,1.88,4.06,4.46,5.3,7.74,1.24,3.28,1.86,7.44,1.86,12.49s-.62,9.21-1.86,12.49c-1.24,3.28-3,5.87-5.3,7.78-2.29,1.9-5.02,3.23-8.19,3.99-3.17.76-6.7,1.14-10.6,1.14ZM719.79,792.34c2.8,0,5.13-.47,6.98-1.41,1.86-.94,3.26-2.64,4.2-5.09.94-2.45,1.41-5.93,1.41-10.43,0-3.39-.26-6.19-.79-8.4-.53-2.2-1.32-3.92-2.37-5.16-1.06-1.24-2.36-2.11-3.92-2.62-1.56-.5-3.37-.76-5.44-.76-2.8,0-5.14.47-7.02,1.41-1.88.94-3.29,2.64-4.23,5.09-.94,2.46-1.41,5.95-1.41,10.49s.47,7.97,1.41,10.43c.94,2.46,2.34,4.14,4.2,5.06,1.86.92,4.19,1.38,6.98,1.38Z"/>
  </g>
</svg>