<svg width="1422" height="333" viewBox="0 0 1422 333" fill="none" xmlns="http://www.w3.org/2000/svg">
<g clip-path="url(#clip0_10094_1811)">
<path d="M1171.27 233.071C1184.69 215.973 1180.58 231.497 1204.96 184.409C1231.02 134.078 1234.31 72.2007 1218.43 17.709C1218.12 16.6308 1216.37 8.31055 1215.06 8.31055H1394.83C1400.03 82.2098 1364.03 132.646 1361.92 135.528C1361.85 135.614 1361.82 135.662 1361.82 135.662C1346.47 161.109 1321.85 179.362 1294.74 190.63C1273.89 199.304 1251.48 203.044 1229.79 208.95C1218.83 211.927 1201.92 214.694 1191.54 219.341C1173.84 227.27 1176.83 226.869 1171.27 233.071Z" fill="#EEF0F2" stroke="#EEF0F2" stroke-width="3" stroke-linecap="round" stroke-linejoin="round"/>
<path d="M1171.37 230.886C1184.51 218.167 1195.05 202.767 1202.07 185.573C1205.66 176.824 1208.34 167.607 1209.98 158.046C1211.24 150.795 1211.91 143.343 1211.94 135.747V135.204C1211.94 78.0116 1175.86 29.2352 1125.19 10.3048C1111.38 5.14279 1096.49 2.19445 1080.96 1.9082H1076.4V332.046H1407.15V327.809C1401.97 258.91 1344.32 204.609 1273.96 204.609C1236.16 207.948 1201.22 215.591 1171.37 230.886Z" fill="#EEF0F2" stroke="#EEF0F2" stroke-width="3" stroke-miterlimit="10"/>
<path d="M1126.51 272.898C1127.92 269.93 1180.35 222.117 1186.13 218.263L1126.51 272.898Z" fill="#EEF0F2"/>
<path d="M1126.41 272.85C1130.58 267.525 1135.67 262.984 1140.39 258.165C1152.47 246.381 1164.75 234.807 1177.4 223.644C1180.01 221.478 1182.61 219.255 1185.74 217.585L1186.63 217.986C1184.33 220.323 1181.46 223.443 1178.96 225.667C1161.3 241.048 1143.35 257.116 1126.39 272.859L1126.41 272.85Z" fill="#EEF0F2"/>
<path d="M1390.96 318.601C1391.98 302.075 1385.79 285.225 1374.3 273.279C1362.81 261.333 1346.19 254.473 1329.61 254.816" fill="#EEF0F2"/>
<path d="M1392.39 318.601C1393.17 305.405 1389.52 292.019 1382.25 280.979C1374.94 269.873 1364.06 261.514 1351.55 257.02C1344.53 254.501 1337.06 253.261 1329.61 253.395C1327.76 253.423 1327.76 256.286 1329.61 256.257C1342.39 256.028 1355.05 260.054 1365.42 267.478C1375.79 274.901 1383.27 285.645 1386.98 297.705C1389.07 304.47 1389.94 311.531 1389.52 318.601C1389.41 320.443 1392.28 320.433 1392.39 318.601H1392.39Z" fill="#EEF0F2"/>
<path d="M1152.28 51.4766C1145.8 33.2427 1127.49 19.8464 1108.11 19.1689L1152.28 51.4766Z" fill="#EEF0F2"/>
<path d="M1153.66 51.0951C1148.35 36.3725 1135.89 24.7795 1121.02 20.0087C1116.84 18.6634 1112.49 17.9096 1108.1 17.7378C1106.26 17.6615 1106.26 20.524 1108.1 20.6003C1122.71 21.1728 1136.72 29.0827 1145.14 40.9429C1147.53 44.311 1149.49 47.975 1150.88 51.8584C1151.5 53.5759 1154.28 52.8412 1153.65 51.0951H1153.66Z" fill="#EEF0F2"/>
<path d="M1387.75 19.1777C1381.7 51.3805 1373.59 83.6309 1357.89 112.399C1342.2 141.166 1318.14 166.423 1287.52 178.197" fill="#EEF0F2"/>
<path d="M1386.36 18.7966C1381.28 45.8373 1374.81 72.9162 1363.42 98.0773C1353.42 120.156 1339.49 140.614 1320.95 156.414C1310.89 164.983 1299.48 172.053 1287.12 176.824C1285.42 177.482 1286.16 180.249 1287.89 179.581C1310.35 170.898 1329.34 155.164 1344 136.263C1360.26 115.29 1370.97 90.6826 1378.45 65.3689C1382.89 50.3218 1386.24 34.9695 1389.13 19.5599C1389.47 17.7565 1386.71 16.9837 1386.37 18.7966H1386.36Z" fill="#EEF0F2"/>
<path d="M1093.35 17.5469L1097.84 17.5755C1098.43 17.5755 1099.13 17.6327 1099.45 18.1385C1099.98 18.9781 1098.88 19.9227 1097.94 20.2281C1095.48 21.02 1092.75 20.9914 1090.32 20.1326C1090.95 19.188 1092.27 18.7777 1093.32 19.1976" fill="#EEF0F2"/>
<path d="M1093.35 18.978C1094.82 18.978 1096.28 18.9971 1097.75 19.0066C1097.89 19.0066 1098.01 19.0066 1098.14 19.0066C1098.2 19.0066 1098.27 19.0066 1098.33 19.0162C1098.14 18.9875 1098.14 18.9875 1098.31 19.0162C1098.55 19.1879 1098.15 18.8253 1098.39 19.0448C1098.28 18.9398 1098.19 18.873 1098.15 18.7108C1098.14 18.6536 1098.15 18.1765 1098.15 18.4818L1098.21 18.3483C1098.13 18.4818 1098.14 18.4818 1098.23 18.3483C1098.14 18.4437 1098.05 18.5391 1097.95 18.6154C1098.14 18.4628 1097.86 18.6631 1097.8 18.7013C1097.77 18.7204 1097.4 18.8826 1097.67 18.7872C1097.52 18.8444 1097.38 18.8826 1097.24 18.9303C1096.92 19.0257 1096.6 19.102 1096.27 19.1688C1095.66 19.2929 1095.22 19.3406 1094.52 19.3501C1093.15 19.3787 1092.04 19.1975 1090.69 18.7395L1091.55 20.8386C1091.38 21.0771 1091.62 20.7814 1091.64 20.7432C1091.82 20.5524 1091.57 20.7718 1091.69 20.6955C1091.78 20.6382 1091.87 20.5905 1091.96 20.5333C1091.75 20.6764 1091.99 20.5237 1092.08 20.4951C1092.12 20.4856 1092.46 20.4188 1092.27 20.4474C1092.07 20.476 1092.41 20.4474 1092.45 20.4474C1092.58 20.4474 1092.79 20.5428 1092.56 20.4474C1092.68 20.4951 1092.8 20.5142 1092.93 20.5524C1093.63 20.81 1094.53 20.2661 1094.69 19.5505C1094.88 18.7395 1094.45 18.062 1093.69 17.7853C1091.96 17.1556 1090.1 17.938 1089.07 19.3787C1088.5 20.1802 1089.13 21.2012 1089.93 21.4779C1091.61 22.0504 1093.42 22.2985 1095.19 22.1649C1096.96 22.0313 1098.95 21.7355 1100.18 20.4569C1100.82 19.789 1101.19 18.8635 1100.94 17.938C1100.68 17.0124 1099.79 16.3541 1098.84 16.2014C1097.98 16.0583 1097.1 16.106 1096.23 16.106L1093.36 16.0869C1092.61 16.0869 1091.88 16.7453 1091.92 17.5181C1091.96 18.291 1092.55 18.9398 1093.36 18.9494L1093.35 18.978Z" fill="#EEF0F2"/>
<path d="M815.174 96.5986C832.304 109.995 816.751 105.892 863.927 130.233C914.353 156.243 976.346 159.525 1030.94 143.677C1032.02 143.362 1040.36 141.616 1040.36 140.308V319.747C966.319 324.937 915.787 289.004 912.9 286.895C912.814 286.828 912.766 286.8 912.766 286.8C887.271 271.476 868.984 246.897 857.694 219.837C849.005 199.027 845.258 176.662 839.34 155.012C836.358 144.077 833.585 127.198 828.93 116.836C820.986 99.1653 821.387 102.152 815.174 96.5986Z" fill="#EEF0F2" stroke="#EEF0F2" stroke-width="3" stroke-linecap="round" stroke-linejoin="round"/>
<path d="M817.353 96.7035C830.096 109.823 845.525 120.338 862.751 127.351C871.517 130.929 880.752 133.601 890.33 135.242C897.596 136.501 905.062 137.169 912.671 137.198H913.216C970.515 137.198 1019.38 101.188 1038.35 50.6083C1043.52 36.8303 1046.47 21.9645 1046.76 6.45952V1.9082H716.004V332.046H720.248C789.277 326.874 843.68 269.329 843.68 199.103C840.334 161.376 832.677 126.502 817.353 96.7035Z" fill="#EEF0F2" stroke="#EEF0F2" stroke-width="3" stroke-miterlimit="10"/>
<path d="M775.273 51.9248C778.246 53.337 826.149 105.663 830.011 111.435L775.273 51.9248Z" fill="#EEF0F2"/>
<path d="M775.312 51.8296C780.646 55.9897 785.197 61.0659 790.024 65.7794C801.83 77.8399 813.426 90.1008 824.61 102.724C826.78 105.329 829.008 107.924 830.681 111.044L830.279 111.932C827.937 109.642 824.811 106.779 822.584 104.28C807.174 86.6563 791.076 68.7373 775.303 51.8105L775.312 51.8296Z" fill="#EEF0F2"/>
<path d="M729.475 315.882C746.032 316.903 762.914 310.72 774.882 299.251C786.851 287.782 793.724 271.199 793.38 254.645" fill="#EEF0F2"/>
<path d="M729.474 317.314C742.695 318.087 756.107 314.442 767.167 307.19C778.294 299.891 786.668 289.033 791.171 276.543C793.694 269.539 794.937 262.087 794.803 254.645C794.775 252.803 791.907 252.803 791.935 254.645C792.165 267.402 788.131 280.035 780.694 290.387C773.256 300.74 762.492 308.202 750.409 311.913C743.631 313.993 736.557 314.862 729.474 314.442C727.629 314.337 727.638 317.199 729.474 317.304V317.314Z" fill="#EEF0F2"/>
<path d="M997.109 77.6396C1015.38 71.1704 1028.8 52.8983 1029.48 33.5576L997.109 77.6396Z" fill="#EEF0F2"/>
<path d="M997.483 79.0234C1012.23 73.7278 1023.85 61.2952 1028.63 46.4485C1029.98 42.2789 1030.73 37.9375 1030.9 33.5579C1030.98 31.7164 1028.11 31.7164 1028.04 33.5579C1027.46 48.1374 1019.54 62.1157 1007.65 70.5219C1004.28 72.9072 1000.61 74.8633 996.718 76.2563C994.998 76.8765 995.734 79.6436 997.483 79.0138V79.0234Z" fill="#EEF0F2"/>
<path d="M1029.46 312.676C997.196 306.636 964.885 298.545 936.063 282.878C907.241 267.21 881.937 243.204 870.141 212.633" fill="#EEF0F2"/>
<path d="M1029.84 311.293C1002.75 306.217 975.619 299.766 950.411 288.393C928.29 278.412 907.795 264.51 891.964 246C883.38 235.962 876.296 224.569 871.516 212.242C870.857 210.543 868.085 211.278 868.754 213.005C877.453 235.428 893.217 254.377 912.154 269.014C933.166 285.244 957.819 295.931 983.181 303.392C998.256 307.829 1013.64 311.169 1029.08 314.06C1030.88 314.394 1031.66 311.636 1029.84 311.302V311.293Z" fill="#EEF0F2"/>
<path d="M1031.09 18.8255L1031.06 23.31C1031.06 23.9016 1031.01 24.5981 1030.5 24.913C1029.66 25.4473 1028.71 24.35 1028.41 23.4054C1027.61 20.9532 1027.64 18.2339 1028.5 15.8008C1029.45 16.4305 1029.86 17.7473 1029.44 18.7968" fill="#EEF0F2"/>
<path d="M1029.66 18.825C1029.66 20.2944 1029.64 21.7543 1029.63 23.2237C1029.63 23.3572 1029.63 23.4813 1029.63 23.6149C1029.63 23.6721 1029.63 23.7389 1029.62 23.7962C1029.65 23.6149 1029.65 23.6149 1029.62 23.7771C1029.45 24.0156 1029.81 23.6244 1029.59 23.863C1029.7 23.7485 1029.77 23.6626 1029.93 23.6244C1029.98 23.6053 1030.46 23.6149 1030.16 23.6244L1030.29 23.6817C1030.16 23.5958 1030.16 23.6053 1030.29 23.7007C1030.2 23.6149 1030.1 23.5195 1030.02 23.424C1030.18 23.6149 1029.98 23.3286 1029.94 23.2714C1029.92 23.2428 1029.76 22.8706 1029.85 23.1378C1029.79 22.9947 1029.76 22.8515 1029.71 22.7084C1029.61 22.3936 1029.54 22.0691 1029.47 21.7447C1029.34 21.1341 1029.3 20.6952 1029.29 19.9986C1029.26 18.6246 1029.44 17.5178 1029.9 16.1725L1027.8 17.0312C1027.56 16.8595 1027.85 17.098 1027.89 17.1266C1028.08 17.2984 1027.86 17.0503 1027.94 17.1743C1028 17.2602 1028.04 17.3556 1028.1 17.4415C1027.96 17.2316 1028.11 17.4701 1028.14 17.5655C1028.15 17.6037 1028.22 17.9377 1028.19 17.7468C1028.16 17.556 1028.19 17.8899 1028.19 17.9281C1028.19 18.0617 1028.09 18.2716 1028.19 18.0426C1028.14 18.1571 1028.12 18.2811 1028.08 18.4052C1027.82 19.1113 1028.37 20.0082 1029.09 20.1704C1029.9 20.3517 1030.58 19.9223 1030.85 19.1685C1031.49 17.4415 1030.7 15.5809 1029.26 14.5599C1028.46 13.9874 1027.43 14.6172 1027.16 15.4187C1026.58 17.0885 1026.33 18.9013 1026.47 20.6665C1026.6 22.4317 1026.9 24.4164 1028.18 25.6472C1028.85 26.2865 1029.77 26.6586 1030.7 26.401C1031.63 26.1434 1032.29 25.256 1032.44 24.3114C1032.59 23.4527 1032.54 22.5748 1032.54 21.7066L1032.56 18.8346C1032.56 18.0903 1031.9 17.3652 1031.12 17.4033C1030.35 17.4415 1029.7 18.0331 1029.69 18.8346L1029.66 18.825Z" fill="#EEF0F2"/>
<path d="M590.077 237.356C572.947 223.959 588.5 228.062 541.324 203.722C490.898 177.711 428.905 174.429 374.311 190.278C373.23 190.592 364.895 192.338 364.895 193.646V14.2074C438.933 9.01675 489.464 44.9502 492.351 47.0589C492.437 47.1257 492.485 47.1543 492.485 47.1543C517.98 62.478 536.267 87.0571 547.557 114.117C556.246 134.927 559.994 157.292 565.911 178.942C568.894 189.877 571.666 206.756 576.321 217.118C584.265 234.789 583.864 231.802 590.077 237.356Z" fill="#EEF0F2" stroke="#EEF0F2" stroke-width="3" stroke-linecap="round" stroke-linejoin="round"/>
<path d="M587.889 237.25C575.146 224.131 559.717 213.616 542.491 206.603C533.725 203.025 524.49 200.353 514.912 198.712C507.646 197.453 500.181 196.785 492.571 196.756H492.026C434.727 196.756 385.859 232.766 366.893 283.346C361.721 297.124 358.767 311.989 358.48 327.494V332.046H689.238V1.9082H684.994C615.965 7.07972 561.562 64.6248 561.562 134.851C564.908 172.578 572.565 207.452 587.889 237.25Z" fill="#EEF0F2" stroke="#EEF0F2" stroke-width="3" stroke-miterlimit="10"/>
<path d="M629.98 282.029C627.007 280.617 579.104 228.291 575.242 222.519L629.98 282.029Z" fill="#EEF0F2"/>
<path d="M629.931 282.125C624.597 277.965 620.046 272.888 615.219 268.175C603.413 256.114 591.817 243.854 580.633 231.23C578.463 228.625 576.235 226.03 574.562 222.91L574.964 222.022C577.306 224.312 580.432 227.175 582.659 229.675C598.069 247.298 614.167 265.217 629.941 282.144L629.931 282.125Z" fill="#EEF0F2"/>
<path d="M675.769 18.0711C659.212 17.0502 642.33 23.2331 630.362 34.702C618.393 46.171 611.52 62.7542 611.864 79.3088" fill="#EEF0F2"/>
<path d="M675.769 16.64C662.548 15.8672 649.136 19.512 638.076 26.7636C627.016 34.0152 618.575 44.9212 614.072 57.4111C611.548 64.4146 610.306 71.8665 610.439 79.3089C610.468 81.1505 613.336 81.1505 613.307 79.3089C613.078 66.5519 617.112 53.9189 624.549 43.5663C631.929 33.29 642.75 25.7522 654.834 22.0406C661.611 19.9605 668.685 19.0922 675.769 19.512C677.614 19.617 677.604 16.7545 675.769 16.6496V16.64Z" fill="#EEF0F2"/>
<path d="M408.142 256.314C389.874 262.784 376.452 281.056 375.773 300.396L408.142 256.314Z" fill="#EEF0F2"/>
<path d="M407.759 254.931C393.009 260.226 381.394 272.659 376.615 287.506C375.267 291.675 374.511 296.017 374.339 300.396C374.263 302.238 377.131 302.238 377.207 300.396C377.781 285.817 385.706 271.838 397.588 263.432C400.963 261.047 404.633 259.091 408.524 257.698C410.245 257.078 409.509 254.31 407.759 254.94V254.931Z" fill="#EEF0F2"/>
<path d="M375.793 21.2773C408.056 27.3171 440.367 35.4084 469.189 51.0756C498.011 66.7428 523.315 90.7494 535.111 121.32" fill="#EEF0F2"/>
<path d="M375.411 22.6613C402.502 27.7374 429.632 34.1874 454.84 45.561C476.961 55.5414 497.457 69.4435 513.287 87.9541C521.871 97.9918 528.955 109.384 533.735 121.712C534.394 123.41 537.167 122.676 536.497 120.949C527.798 98.5261 512.035 79.5766 493.097 64.9398C472.086 48.7097 447.432 38.0231 422.071 30.5617C406.995 26.1248 391.614 22.7853 376.176 19.8942C374.369 19.5603 373.595 22.3178 375.411 22.6517V22.6613Z" fill="#EEF0F2"/>
<path d="M374.158 315.128L374.187 310.644C374.187 310.052 374.244 309.356 374.751 309.041C375.592 308.506 376.539 309.604 376.844 310.548C377.638 313 377.609 315.72 376.749 318.153C375.802 317.523 375.391 316.206 375.812 315.157" fill="#EEF0F2"/>
<path d="M375.592 315.128C375.592 313.659 375.611 312.199 375.621 310.73C375.621 310.596 375.621 310.472 375.621 310.338C375.621 310.281 375.621 310.214 375.63 310.157C375.601 310.338 375.601 310.338 375.63 310.176C375.802 309.938 375.439 310.329 375.659 310.09C375.554 310.205 375.487 310.291 375.324 310.329C375.267 310.348 374.789 310.338 375.095 310.329L374.961 310.272C375.095 310.357 375.095 310.348 374.961 310.252C375.057 310.338 375.152 310.434 375.229 310.529C375.076 310.338 375.276 310.625 375.315 310.682C375.334 310.71 375.496 311.083 375.401 310.815C375.458 310.959 375.496 311.102 375.544 311.245C375.64 311.56 375.716 311.884 375.783 312.208C375.907 312.819 375.955 313.258 375.965 313.955C375.993 315.329 375.812 316.435 375.353 317.781L377.456 316.922C377.695 317.094 377.399 316.855 377.36 316.827C377.169 316.655 377.389 316.903 377.313 316.779C377.255 316.693 377.207 316.598 377.15 316.512C377.293 316.722 377.14 316.483 377.112 316.388C377.102 316.349 377.035 316.016 377.064 316.206C377.093 316.397 377.064 316.063 377.064 316.025C377.064 315.892 377.16 315.682 377.064 315.911C377.112 315.796 377.131 315.672 377.169 315.548C377.427 314.842 376.882 313.945 376.165 313.783C375.353 313.602 374.674 314.031 374.397 314.785C373.766 316.512 374.55 318.372 375.993 319.393C376.796 319.966 377.819 319.336 378.096 318.535C378.67 316.865 378.919 315.052 378.785 313.287C378.651 311.521 378.355 309.537 377.074 308.306C376.404 307.667 375.477 307.295 374.55 307.552C373.623 307.81 372.963 308.697 372.81 309.642C372.667 310.501 372.714 311.378 372.714 312.247L372.695 315.119C372.695 315.863 373.355 316.588 374.129 316.55C374.904 316.512 375.554 315.92 375.563 315.119L375.592 315.128Z" fill="#EEF0F2"/>
<path d="M237.323 100.406C223.901 117.505 228.012 101.981 203.625 149.068C177.566 199.4 174.278 261.277 190.156 315.769C190.472 316.847 192.221 325.167 193.531 325.167H13.7552C8.55484 251.268 44.5558 200.831 46.6684 197.949C46.7354 197.864 46.764 197.816 46.764 197.816C62.1166 172.369 86.7418 154.116 113.852 142.847C134.702 134.174 157.109 130.433 178.799 124.527C189.755 121.55 206.665 118.783 217.047 114.137C234.751 106.208 231.759 106.608 237.323 100.406Z" fill="#EEF0F2" stroke="#EEF0F2" stroke-width="3" stroke-linecap="round" stroke-linejoin="round"/>
<path d="M237.218 102.591C224.074 115.31 213.539 130.71 206.513 147.904C202.928 156.654 200.251 165.871 198.607 175.431C197.345 182.683 196.676 190.135 196.648 197.73V198.274C196.648 255.466 232.725 304.242 283.4 323.173C297.204 328.335 312.097 331.283 327.631 331.569H332.191V1.43164H1.43359V5.66809C6.61483 74.5676 64.268 128.869 134.626 128.869C172.424 125.529 207.364 117.886 237.218 102.591Z" fill="#EEF0F2" stroke="#EEF0F2" stroke-width="3" stroke-miterlimit="10"/>
<path d="M282.081 60.5801C280.667 63.5475 228.242 111.36 222.459 115.215L282.081 60.5801Z" fill="#EEF0F2"/>
<path d="M282.176 60.6277C278.008 65.9519 272.922 70.4937 268.2 75.3121C256.117 87.096 243.833 98.6699 231.186 109.833C228.576 111.999 225.976 114.223 222.85 115.892L221.961 115.492C224.255 113.154 227.123 110.034 229.628 107.811C247.284 92.4297 265.237 76.3617 282.195 60.6182L282.176 60.6277Z" fill="#EEF0F2"/>
<path d="M17.627 14.876C16.6041 31.4019 22.7987 48.2523 34.2892 60.1983C45.7796 72.1443 62.394 79.0047 78.9797 78.6612" fill="#EEF0F2"/>
<path d="M16.1939 14.8756C15.4196 28.0716 19.0713 41.4584 26.3365 52.4979C33.6495 63.6043 44.5282 71.9627 57.0416 76.4568C64.0582 78.9757 71.5242 80.2161 78.9806 80.0825C80.8255 80.0539 80.8255 77.1915 78.9806 77.2201C66.1995 77.4491 53.5428 73.4225 43.1708 65.9992C32.7987 58.5759 25.3232 47.8321 21.6046 35.7716C19.5206 29.0066 18.6507 21.9459 19.0713 14.8756C19.1765 13.0341 16.3087 13.0436 16.2035 14.8756H16.1939Z" fill="#EEF0F2"/>
<path d="M256.316 282C262.798 300.234 281.104 313.63 300.481 314.308L256.316 282Z" fill="#EEF0F2"/>
<path d="M254.931 282.382C260.236 297.105 272.692 308.698 287.567 313.468C291.744 314.814 296.094 315.568 300.482 315.739C302.327 315.816 302.327 312.953 300.482 312.877C285.875 312.304 271.87 304.394 263.448 292.534C261.058 289.166 259.099 285.502 257.703 281.619C257.082 279.901 254.309 280.636 254.94 282.382H254.931Z" fill="#EEF0F2"/>
<path d="M20.8398 314.299C26.891 282.096 34.9974 249.846 50.6941 221.078C66.3907 192.31 90.4424 167.054 121.071 155.279" fill="#EEF0F2"/>
<path d="M22.2261 314.681C27.3117 287.64 33.7739 260.561 45.1688 235.4C55.168 213.321 69.0962 192.864 87.6415 177.063C97.6981 168.495 109.112 161.424 121.463 156.654C123.165 155.995 122.428 153.228 120.698 153.896C98.2334 162.579 79.2483 178.313 64.5841 197.215C48.3234 218.187 37.6168 242.795 30.1413 268.109C25.6962 283.156 22.3503 298.508 19.4538 313.917C19.1192 315.721 21.8819 316.494 22.2165 314.681H22.2261Z" fill="#EEF0F2"/>
<path d="M315.243 315.931L310.751 315.902C310.158 315.902 309.46 315.845 309.145 315.34C308.609 314.5 309.709 313.555 310.655 313.25C313.112 312.458 315.836 312.487 318.274 313.345C317.643 314.29 316.324 314.7 315.272 314.28" fill="#EEF0F2"/>
<path d="M315.243 314.5C313.771 314.5 312.308 314.481 310.836 314.471C310.702 314.471 310.578 314.471 310.444 314.471C310.387 314.471 310.32 314.471 310.263 314.461C310.444 314.49 310.444 314.49 310.282 314.461C310.043 314.29 310.435 314.652 310.196 314.433C310.31 314.538 310.396 314.605 310.435 314.767C310.454 314.824 310.444 315.301 310.435 314.996L310.377 315.129C310.463 314.996 310.454 314.996 310.358 315.129C310.444 315.034 310.54 314.939 310.636 314.862C310.444 315.015 310.731 314.814 310.788 314.776C310.817 314.757 311.19 314.595 310.922 314.69C311.066 314.633 311.209 314.595 311.352 314.547C311.668 314.452 311.993 314.376 312.318 314.309C312.93 314.185 313.37 314.137 314.067 314.127C315.444 314.099 316.553 314.28 317.901 314.738L317.04 312.639C317.212 312.4 316.973 312.696 316.945 312.734C316.773 312.925 317.021 312.706 316.897 312.782C316.811 312.839 316.715 312.887 316.629 312.944C316.84 312.801 316.601 312.954 316.505 312.982C316.467 312.992 316.132 313.059 316.323 313.03C316.515 313.002 316.18 313.03 316.142 313.03C316.008 313.03 315.798 312.935 316.027 313.03C315.912 312.983 315.788 312.963 315.664 312.925C314.956 312.668 314.058 313.212 313.895 313.927C313.714 314.738 314.144 315.416 314.899 315.692C316.629 316.322 318.493 315.54 319.516 314.099C320.09 313.297 319.459 312.276 318.656 312C316.983 311.427 315.167 311.179 313.398 311.313C311.63 311.446 309.641 311.742 308.408 313.021C307.768 313.689 307.395 314.614 307.653 315.54C307.911 316.465 308.8 317.124 309.746 317.276C310.607 317.419 311.486 317.372 312.356 317.372L315.234 317.391C315.979 317.391 316.706 316.732 316.668 315.959C316.629 315.187 316.037 314.538 315.234 314.528L315.243 314.5Z" fill="#EEF0F2"/>
</g>
<defs>
<clipPath id="clip0_10094_1811">
<rect width="1422" height="333" fill="white"/>
</clipPath>
</defs>
</svg>
