<?xml version="1.0" encoding="UTF-8"?>
<svg id="Layer_1" data-name="Layer 1" xmlns="http://www.w3.org/2000/svg" viewBox="0 0 1432 591">
  <defs>
    <style>
      .cls-1 {
        fill: #f1f1f1;
      }

      .cls-2, .cls-3, .cls-4, .cls-5, .cls-6, .cls-7, .cls-8, .cls-9, .cls-10, .cls-11, .cls-12, .cls-13, .cls-14 {
        stroke-miterlimit: 10;
      }

      .cls-2, .cls-3, .cls-5, .cls-6, .cls-7, .cls-8, .cls-9, .cls-15, .cls-14 {
        fill: #336;
      }

      .cls-2, .cls-3, .cls-5, .cls-6, .cls-7, .cls-8, .cls-9, .cls-14 {
        stroke: #f1f1f1;
      }

      .cls-2, .cls-13 {
        stroke-width: 2.28px;
      }

      .cls-3, .cls-4, .cls-12 {
        stroke-width: 2px;
      }

      .cls-16 {
        fill: #eef0f2;
      }

      .cls-4, .cls-10, .cls-11, .cls-12, .cls-13 {
        stroke-linecap: round;
      }

      .cls-4, .cls-10, .cls-11, .cls-13 {
        fill: none;
      }

      .cls-4, .cls-12 {
        stroke: #e6e6e6;
      }

      .cls-17 {
        fill: #e4e4e4;
      }

      .cls-18 {
        fill: #69c8c9;
      }

      .cls-5 {
        stroke-width: 1.55px;
      }

      .cls-6 {
        stroke-width: 1.24px;
      }

      .cls-7 {
        stroke-width: 1.23px;
      }

      .cls-8 {
        stroke-width: 1.47px;
      }

      .cls-9 {
        stroke-width: 1.33px;
      }

      .cls-19 {
        fill: #f17e9b;
      }

      .cls-10 {
        stroke-width: 3.27px;
      }

      .cls-10, .cls-11, .cls-13 {
        stroke: #fff;
      }

      .cls-11 {
        stroke-width: 3.68px;
      }

      .cls-20 {
        fill: #fc3;
      }

      .cls-12 {
        fill: #f63;
      }

      .cls-21 {
        fill: #f1673a;
      }

      .cls-14 {
        stroke-width: 2.76px;
      }

      .cls-22 {
        fill: #98c93c;
      }
    </style>
  </defs>
  <rect class="cls-15" x="-37" y="-22" width="1510" height="623"/>
  <g>
    <path class="cls-16" d="M483.52,502.99c-63.83,0-115.76-46.43-115.76-103.49s51.93-103.49,115.76-103.49,115.75,46.43,115.75,103.49-51.93,103.49-115.75,103.49ZM483.52,299.68c-61.8,0-112.07,44.77-112.07,99.81s50.28,99.81,112.07,99.81,112.07-44.78,112.07-99.81-50.28-99.81-112.07-99.81Z"/>
    <path class="cls-16" d="M483.46,718.13c-65.51,0-118.81-48.63-118.81-108.4s53.3-108.4,118.81-108.4,118.81,48.63,118.81,108.4-53.3,108.4-118.81,108.4ZM483.46,505.02c-63.48,0-115.13,46.98-115.13,104.72s51.65,104.72,115.13,104.72,115.13-46.98,115.13-104.72-51.65-104.72-115.13-104.72Z"/>
    <path class="cls-16" d="M427.04,342.3c-17.9,22.37-22.89,53.39-13.01,80.3,2.81,7.65,6.74,14.81,11.7,21.27,1.07,1.39,3.47.02,2.38-1.39-16.81-21.91-20.86-51.72-11.03-77.47,2.86-7.48,6.91-14.5,11.91-20.75,1.1-1.37-.84-3.34-1.95-1.95h0Z"/>
    <path class="cls-16" d="M525.02,340.33c-.51-.47-1.02-.93-1.53-1.4-.13-.13-.27-.23-.44-.29-.16-.09-.34-.13-.53-.12-.19,0-.37.03-.53.12-.17.06-.32.15-.44.29-.24.26-.42.61-.4.98s.13.73.4.98c.51.47,1.02.93,1.53,1.4.13.13.27.23.44.29.16.09.34.13.53.12.19,0,.37-.03.53-.12.17-.06.32-.15.44-.29.24-.26.42-.61.4-.98s-.13-.73-.4-.98h0Z"/>
    <path class="cls-16" d="M539.33,342.69c1.78,0,1.78-2.76,0-2.76s-1.78,2.76,0,2.76h0Z"/>
    <path class="cls-16" d="M513.59,361.67c3.05,5.04,9.07,8.01,14.93,7.61,5.66-.39,11.19-3.78,13.53-9.05.71-1.61-1.67-3.02-2.38-1.39-1.93,4.37-6.38,7.36-11.14,7.69s-9.97-1.99-12.54-6.24c-.92-1.52-3.31-.13-2.38,1.39h0Z"/>
    <path class="cls-16" d="M436.83,553.63c1.78,0,1.78-2.76,0-2.76s-1.78,2.76,0,2.76h0Z"/>
    <path class="cls-16" d="M422.83,556.63c1.78,0,1.78-2.76,0-2.76s-1.78,2.76,0,2.76h0Z"/>
    <path class="cls-16" d="M420.17,575.55c-1.02,7.73,8.68,11.42,14.91,10.59,9.03-1.2,14.13-10.23,17.81-17.57.79-1.58-1.59-2.98-2.38-1.39-3.15,6.29-7.23,14.26-14.72,16.05-4.87,1.17-13.7-1.28-12.86-7.67.23-1.76-2.53-1.74-2.76,0h0Z"/>
  </g>
  <g id="OBLAK_3" data-name="OBLAK 3">
    <g id="BODY">
      <path class="cls-3" d="M599,435.5l179.54,351.34s36.17-56.83,72.33-88.48c0,0-60.71,133.04,105.27,127.88,124.65-6.46,91.71-144.02,91.71-144.02l111.73-29.06-23.9-93.65,89.13-69.1-100.11-156.29-182.13,62-19.38-49.08-147.9,47.15,31.65,102.04-207.96-60.71Z"/>
      <g>
        <line class="cls-15" x1="1137.95" y1="559.18" x2="1115.03" y2="496.21"/>
        <polygon class="cls-1" points="1137.01 559.52 1115.03 496.21 1138.89 558.84 1137.01 559.52 1137.01 559.52"/>
      </g>
      <g>
        <line class="cls-15" x1="942.86" y1="396.57" x2="961.32" y2="437.44"/>
        <polygon class="cls-1" points="943.77 396.16 961.32 437.44 941.95 396.99 943.77 396.16 943.77 396.16"/>
      </g>
    </g>
    <g id="DETALJI">
      <path class="cls-10" d="M716.84,571.1c-12.46-21.39-24.93-42.78-37.39-64.17,21.32,5.27,42.63,10.55,63.95,15.82"/>
      <path class="cls-10" d="M840.18,476.91c-8.18-16.62-14.91-33.95-20.1-51.73-.87-2.97-1.58-6.52.43-8.88,1-1.18,2.5-1.79,3.94-2.35,8.78-3.46,17.56-6.92,26.34-10.39"/>
      <path class="cls-10" d="M1027.86,407.38c26.15-10.16,52.3-20.33,78.44-30.49,2.81-1.09,6.04-2.17,8.73-.8,2.02,1.03,3.17,3.19,4.19,5.22,5.43,10.8,10.85,21.6,16.28,32.4"/>
      <path class="cls-10" d="M1112.77,567.57c7.1,20.67,11.91,38.95,16.73,58.73-8.05,1.55-16.11,3.11-24.16,4.66.31-.07.62-.14.93-.21"/>
    </g>
  </g>
  <g id="STRELICA">
    <path id="BODY-2" data-name="BODY" class="cls-3" d="M736.06,427.69l39.24-15.39s.72,1.75,1.87,4.86c12.73,34.51,16.94,71.59,12.39,108.1-4.85,38.9-16.39,96.64-42.04,93.78-38.53-4.3-25.07-115.87-15.49-160.41,2.37-11.03,3.79-21.52,4.04-30.94.66-24.81-6.71-42.19-25.78-42.4-2.93-.03-7.88-1.14-22.77,4.54-142.52,52.43-161.47,286.7-161.47,286.7l130.43,27.09c-20.25-74.67,19.42-182.89,19.42-182.89-26.98,90.7-1.76,152.48,39.65,170.16,41.4,17.68,108.13,1.56,129.09-96.54,20.96-98.1-27.4-194.2-27.4-194.2l70.65-25.18-157.6-111.2-20.8,121.51s14.86-.42,20.64,11.2c5.78,11.62,5.95,31.22,5.95,31.22Z"/>
    <g id="DETALJI-2" data-name="DETALJI">
      <path class="cls-4" d="M778.42,309.51c-13.91-8.21-27.24-17.39-39.86-27.46-2.82,22.32-7.67,51.33-10.71,73.43"/>
      <path class="cls-4" d="M825.84,380.84c-8.47,3.77-16.94,7.54-25.41,11.31,1.95,10.03,4.88,19.88,8.74,29.34"/>
      <path class="cls-4" d="M832.8,582.27q-.1.26,0,0"/>
      <path class="cls-4" d="M657.12,423.7c11.52-8.6,23.96-15.96,37.03-21.92,6.14-2.8,13.35-5.29,19.44-2.37,4.43,2.12,7.22,6.77,8.31,11.56,1.09,4.79.73,9.77.36,14.67"/>
      <polygon class="cls-12" points="674.78 520.3 677 515.66 676.99 521.15 674.78 520.3"/>
    </g>
  </g>
  <g id="OBLAK">
    <g id="BODY-3" data-name="BODY">
      <path class="cls-14" d="M-41.2,687.14c-61.78,38.18-89.27,106.67-70.64,161.94,19.39,57.52,80.52,76.37,91.99,79.61,60.75,17.15,131.05-7.56,164.52-59.83,17.56-27.42,20.57-55.54,20.93-71.48l109.34-6.03c-6.55-43.89-13.1-87.78-19.65-131.67,6.27,2.3,62.12,21.79,109.33-11.07,7.5-5.22,40.54-28.22,43.97-69.77.44-5.29,2.98-43.19-23.96-66.98-6.77-5.98-14.75-10.49-23.49-13.47l-8.99-100.74c-22.3,1.61-44.6,3.23-66.89,4.84-5.4-69.34-51.96-120.48-103.17-124.98-50.29-4.42-86.34,37.77-90.61,42.92-30.7,37.05-36.83,90.93-15.88,139.81l-70.31,1.67-.4,149.99-102.58,2.08,56.49,73.15Z"/>
      <g>
        <line class="cls-15" x1="75.6" y1="460.25" x2="144.07" y2="461.05"/>
        <polygon class="cls-1" points="75.62 458.87 144.07 461.05 75.59 461.62 75.62 458.87 75.62 458.87"/>
      </g>
      <g>
        <path class="cls-15" d="M285.36,403.16s3.22,21.57,1.59,40.19"/>
        <path class="cls-1" d="M286.73,402.96c1.32,13.42,1.73,26.99.22,40.39.32-6.71.1-13.42-.44-20.1-.55-6.65-1.37-13.33-2.51-19.88,0,0,2.73-.41,2.73-.41h0Z"/>
      </g>
      <g>
        <path class="cls-15" d="M359.78,497.94s-43.83-4.63-88.58,13.88"/>
        <path class="cls-1" d="M359.63,499.31c-29.83-2.54-60.47,1.74-88.44,12.51,20.86-8.85,43.34-13.8,65.94-15.19,7.57-.46,15.12-.59,22.78-.06,0,0-.29,2.74-.29,2.74h0Z"/>
      </g>
      <g>
        <line class="cls-15" x1="255.3" y1="659.68" x2="243.7" y2="581.94"/>
        <polygon class="cls-1" points="253.94 659.89 243.7 581.94 256.67 659.48 253.94 659.89 253.94 659.89"/>
      </g>
    </g>
    <g id="DETALJI-3" data-name="DETALJI">
      <path class="cls-11" d="M342.74,636.52c14.53-7.51,26.44-19.96,33.31-34.8,6.87-14.84,8.64-31.98,4.96-47.92-1.74-7.53-4.82-15.01-10.42-20.34-7.16-6.8-17.62-9.21-27.47-8.63-9.86.59-19.33,3.84-28.67,7.06.55-.2,1.1-.39,1.65-.59"/>
      <path class="cls-11" d="M307.23,431.38c9.51-1.23,19.02-2.47,28.53-3.7-.37,9.33.11,18.69,1.45,27.93"/>
      <path class="cls-11" d="M97.49,404.68c2.06-11.86,4.14-23.77,7.96-35.18,3.81-11.41,9.46-22.4,17.87-31.02,10.18-10.44,23.85-16.85,37.85-20.89,14.66-4.23,30.44-6.05,45.14-1.96,23.17,6.45,41.08,28.54,42.61,52.55"/>
      <path class="cls-11" d="M95.21,419.96l.04.27"/>
      <path class="cls-11" d="M94.53,435.84l-.04-.27"/>
      <path class="cls-11" d="M93.55,495.15c-20.11,1.7-40.21,3.41-60.32,5.11-.37,13.33-.74,26.66-1.12,39.99"/>
      <path class="cls-11" d="M31.75,575.94l-.41.06"/>
    </g>
  </g>
  <g id="OBLAK_2" data-name="OBLAK 2">
    <g id="BODY-4" data-name="BODY">
      <path class="cls-2" d="M1116.08,396.64v268.8l69.74-12.79s-17.1,166.48,70.64,160.63c87.74-5.85,56.69-162.43,56.69-162.43l42.74-11.7-26.1-145.33s134.08-34.65,87.29-162.43c-46.79-127.78-238.92-39.59-238.92-39.59l3.15,98.54-65.24,6.3Z"/>
      <g>
        <line class="cls-15" x1="1180.66" y1="390.13" x2="1183.14" y2="438.95"/>
        <polygon class="cls-1" points="1181.8 390.07 1183.14 438.95 1179.52 390.19 1181.8 390.07 1181.8 390.07"/>
      </g>
      <g>
        <path class="cls-15" d="M1184.25,651.98s2.25-44.09,8.55-79.19"/>
        <path class="cls-1" d="M1183.11,651.92c1.97-26.52,4.77-53,9.69-79.13-4.16,26.22-6.2,52.75-7.41,79.25,0,0-2.28-.12-2.28-.12h0Z"/>
      </g>
      <g>
        <path class="cls-15" d="M1329.8,495.63s-22.72,7.87-40.72,10.57"/>
        <path class="cls-1" d="M1330.17,496.7c-13.48,4.08-27.13,7.65-41.09,9.5,13.78-2.59,27.2-6.88,40.35-11.65,0,0,.75,2.15.75,2.15h0Z"/>
      </g>
    </g>
    <g id="DETALJI-4" data-name="DETALJI">
      <path class="cls-13" d="M1140.3,535.17c.05-35.09.09-70.19.14-105.28,6.47.13,12.94.27,19.41.4"/>
      <path class="cls-13" d="M1300.52,623.71c9.6-1.92,19.21-3.84,28.81-5.75-2.73-21.07-5.47-42.13-8.2-63.2"/>
      <path class="cls-13" d="M1347.38,448.41c19.6-6.9,35.5-22.78,44-41.75,8.51-18.96,9.91-40.73,5.64-61.07-2.51-11.95-7.13-23.84-15.67-32.57-8.4-8.58-20.06-13.49-31.95-15.21-11.88-1.72-24.03-.44-35.79,1.98"/>
      <path class="cls-13" d="M1299.56,301.55v-.38"/>
      <path class="cls-13" d="M1269.45,308.41l.38-.38"/>
      <path class="cls-13" d="M1208.97,402.16c.24,18.93.49,37.86.73,56.79"/>
    </g>
  </g>
  <g>
    <g>
      <path class="cls-18" d="M63.95,160.33l-8.64,90.23c-.04.46.31.85.8.89l543.08,5.97c.48.04.91-.29.97-.74l8.59-72.01c.07-.48-.32-.91-.84-.93l-543.03-24.19c-.48-.02-.89.32-.93.77Z"/>
      <g>
        <path class="cls-7" d="M79.21,173.22l-8.77,89.57c-.04.45.31.85.79.89l532.48,8.02c.48.04.91-.28.97-.73l8.68-71.49c.07-.48-.32-.9-.83-.92l-532.39-26.11c-.47-.02-.88.32-.92.76Z"/>
        <g>
          <path class="cls-17" d="M104.39,241.13l-12.36-.49,1.51-38.36,12.08.48-.52,6.09.22.06c1.45-2.01,3.15-3.59,5.1-4.71,1.95-1.12,4.26-1.64,6.92-1.53,2.59.1,4.71.76,6.36,1.97,1.65,1.21,2.86,2.94,3.63,5.2.76,2.25,1.08,4.98.95,8.2-.11,2.77-.53,5.1-1.27,6.97-.74,1.88-1.73,3.37-2.98,4.46-1.25,1.1-2.7,1.86-4.37,2.3-1.66.43-3.49.61-5.49.53-1.44-.06-2.76-.26-3.95-.6-1.19-.34-2.23-.83-3.11-1.45-.88-.63-1.62-1.4-2.21-2.31l-.52,13.19ZM110.15,224.64c1.33.05,2.4-.14,3.21-.57.81-.43,1.42-1.17,1.81-2.23.39-1.06.62-2.47.69-4.25.07-1.74-.04-3.11-.34-4.12-.29-1.01-.83-1.74-1.61-2.2-.78-.46-1.83-.71-3.16-.76-1.37-.05-2.46.12-3.27.51-.81.39-1.4,1.09-1.78,2.1-.37,1-.59,2.37-.66,4.11-.07,1.77.05,3.19.36,4.26.31,1.07.84,1.85,1.6,2.34s1.8.76,3.13.82Z"/>
          <path class="cls-17" d="M145.9,232.99l-12.36-.49,1.13-28.6,12.08.48-.52,6.09.22.06c1.53-2.23,3.14-3.86,4.83-4.89,1.69-1.02,3.49-1.5,5.41-1.42,2.62.1,4.64.94,6.06,2.52,1.42,1.57,2.08,3.67,1.97,6.3l-.31,7.76-10.86-.43.15-3.71c.05-1.29-.17-2.21-.67-2.75-.5-.54-1.39-.83-2.69-.88-.89-.04-1.6.08-2.15.36-.55.27-.96.75-1.22,1.42-.27.67-.42,1.57-.47,2.67l-.61,15.52Z"/>
          <path class="cls-17" d="M186.34,235.42c-2.66-.1-5.06-.43-7.21-.98-2.14-.55-3.98-1.42-5.5-2.63-1.53-1.21-2.67-2.82-3.45-4.83-.77-2.01-1.1-4.51-.98-7.51.12-2.99.68-5.45,1.68-7.37,1-1.92,2.35-3.41,4.03-4.45,1.69-1.04,3.6-1.75,5.75-2.11,2.14-.36,4.43-.49,6.87-.4,2.4.09,4.67.41,6.79.93,2.13.53,3.99,1.38,5.59,2.55,1.6,1.17,2.82,2.75,3.67,4.72.85,1.98,1.21,4.46,1.09,7.45-.16,3.99-1.03,7.07-2.61,9.22s-3.72,3.63-6.42,4.41c-2.7.78-5.8,1.1-9.31.97ZM186.65,227.55c1.22.05,2.23-.12,3.02-.52.79-.39,1.4-1.12,1.83-2.18.43-1.06.68-2.56.76-4.52.08-1.92-.06-3.39-.41-4.4-.35-1.01-.9-1.72-1.67-2.12-.76-.4-1.73-.62-2.92-.67-1.18-.05-2.18.1-2.99.44-.81.34-1.43,1-1.85,1.98-.43.98-.68,2.45-.76,4.41-.08,1.96.06,3.48.4,4.57.35,1.09.9,1.85,1.66,2.29.76.44,1.73.68,2.91.73Z"/>
          <path class="cls-17" d="M244.48,234.88c-.13,3.21-.99,5.73-2.6,7.56-1.61,1.82-3.79,3.08-6.53,3.77-2.75.69-5.89.96-9.44.82-5.8-.23-10-1.15-12.6-2.77-2.6-1.62-3.89-4.1-3.87-7.42l12.53.49c.02.48.16.89.42,1.24.26.34.74.6,1.44.78.7.17,1.65.29,2.87.34,1.88.07,3.21-.23,3.98-.9.77-.67,1.18-1.8,1.24-3.39l.04-.94c.06-.52.1-1.01.11-1.5.02-.48.05-.97.09-1.47.04-.5.07-.99.09-1.47l-.22-.06c-1.22,1.77-2.76,3.17-4.64,4.2-1.87,1.04-4.12,1.5-6.75,1.4-1.92-.08-3.59-.46-5.01-1.17-1.42-.7-2.58-1.68-3.49-2.94-.91-1.26-1.57-2.8-1.98-4.63-.41-1.83-.57-3.91-.48-6.24.11-2.7.53-4.95,1.27-6.75.74-1.8,1.73-3.23,2.97-4.27,1.24-1.04,2.7-1.77,4.36-2.19,1.66-.42,3.49-.58,5.49-.51,2.29.09,4.19.5,5.7,1.22,1.51.73,2.7,1.77,3.57,3.14l.14-3.44,12.36.49-1.05,26.61ZM227.8,214.35c-1.33-.05-2.4.12-3.21.51-.81.39-1.41,1.06-1.8,2.01-.39.95-.62,2.23-.68,3.86-.07,1.66.06,2.99.37,3.98.31.99.85,1.72,1.61,2.17.76.46,1.8.71,3.13.76,1.4.06,2.5-.1,3.29-.48.79-.38,1.37-1.06,1.75-2.04.37-.98.59-2.33.66-4.03.06-1.63-.05-2.92-.35-3.87-.3-.96-.83-1.66-1.61-2.12-.78-.46-1.83-.71-3.16-.76Z"/>
          <path class="cls-17" d="M263.42,237.62l-12.36-.49,1.13-28.6,12.08.48-.52,6.09.22.06c1.53-2.23,3.14-3.86,4.83-4.89,1.69-1.03,3.49-1.5,5.41-1.42,2.62.1,4.64.94,6.06,2.51,1.42,1.57,2.08,3.67,1.97,6.3l-.31,7.76-10.86-.43.15-3.71c.05-1.29-.17-2.21-.67-2.75-.5-.54-1.39-.83-2.69-.88-.89-.03-1.6.08-2.15.36-.55.27-.96.75-1.22,1.42-.27.67-.42,1.57-.47,2.67l-.61,15.52Z"/>
          <path class="cls-17" d="M295.66,239.45c-1.26-.05-2.52-.25-3.78-.59-1.26-.35-2.43-.88-3.49-1.61-1.06-.73-1.9-1.68-2.52-2.85-.62-1.17-.9-2.61-.83-4.31.07-1.77.48-3.23,1.23-4.37.75-1.14,1.71-2.01,2.88-2.63,1.17-.62,2.42-1.04,3.74-1.27s2.59-.31,3.81-.27c2.29.09,4.19.42,5.71,1,1.51.58,2.73,1.38,3.65,2.42l.19-4.88c.04-1.03-.2-1.76-.72-2.17-.52-.41-1.35-.64-2.5-.68-.67-.03-1.22.04-1.67.21-.45.17-.79.45-1.03.85-.24.4-.37.97-.4,1.71l-11.7-.46c.09-2.33.64-4.24,1.64-5.74,1-1.5,2.66-2.59,4.96-3.27,2.3-.69,5.45-.95,9.44-.79,3.51.14,6.32.66,8.43,1.55,2.11.9,3.62,2.12,4.52,3.68.9,1.55,1.31,3.4,1.23,5.54l-.37,9.31c-.02.59.06,1.06.25,1.4.19.34.52.55,1,.62.48.07,1.09.05,1.83-.07l-.32,8.09c-1.71.23-3.44.22-5.19-.04s-3.28-.84-4.59-1.76c-1.32-.92-2.2-2.3-2.64-4.13h-.22c-1.34,2.09-3.14,3.55-5.39,4.39-2.25.84-4.64,1.21-7.15,1.11ZM301.58,232.8c1.63.06,2.78-.07,3.46-.39.68-.32,1.04-.91,1.07-1.76.03-.78-.31-1.37-1.01-1.79-.71-.42-1.82-.65-3.33-.71-1.48-.06-2.59.09-3.35.45-.75.36-1.15.93-1.18,1.7-.03.81.28,1.42.93,1.81.65.4,1.79.63,3.42.69Z"/>
          <path class="cls-17" d="M338.54,224.65l-.63,15.91-12.14-.48,1.13-28.6,11.97.47-.52,6.09.22.06c1.49-2.24,3.33-3.86,5.52-4.86,2.19-1.01,4.46-1.46,6.83-1.37,2.59.1,4.55.75,5.89,1.95,1.34,1.2,2.16,2.73,2.46,4.59l.16.06c1.45-2.05,3.22-3.56,5.31-4.51,2.09-.95,4.32-1.38,6.69-1.29,2.88.11,5.09,1.02,6.61,2.7,1.52,1.69,2.24,3.75,2.14,6.19l-.81,20.62-12.36-.49.63-16.02c.05-1.26-.14-2.25-.58-2.99-.43-.74-1.46-1.14-3.09-1.2-1-.04-1.83.07-2.51.32-.68.25-1.2.67-1.58,1.27-.38.6-.58,1.39-.62,2.39l-.63,15.91-12.36-.49.63-16.02c.05-1.26-.15-2.25-.6-2.99-.45-.74-1.47-1.14-3.06-1.2-.96-.04-1.79.07-2.48.32-.69.25-1.23.67-1.6,1.27-.38.6-.58,1.39-.62,2.39Z"/>
          <path class="cls-17" d="M398.45,242.95l-12.47-.49,1.13-28.6,12.47.49-1.13,28.6ZM393.5,212.11c-2.48-.1-4.26-.58-5.35-1.46-1.1-.88-1.61-2.18-1.54-3.92.07-1.74.68-3,1.84-3.79,1.16-.79,2.98-1.13,5.45-1.03,2.48.1,4.23.58,5.27,1.46,1.04.87,1.52,2.18,1.46,3.92-.07,1.74-.65,3-1.76,3.79-1.1.79-2.9,1.13-5.37,1.04Z"/>
          <path class="cls-17" d="M417.52,243.7l-12.36-.49,1.13-28.6,12.08.48-.52,6.09.22.06c1.53-2.23,3.14-3.86,4.83-4.89,1.69-1.03,3.49-1.5,5.41-1.42,2.62.1,4.64.94,6.06,2.52,1.42,1.57,2.08,3.67,1.97,6.3l-.31,7.76-10.86-.43.15-3.71c.05-1.29-.17-2.21-.67-2.75-.5-.54-1.39-.83-2.69-.88-.89-.04-1.6.08-2.15.36-.55.27-.96.75-1.22,1.42-.27.67-.42,1.57-.47,2.67l-.61,15.52Z"/>
          <path class="cls-17" d="M449.75,245.52c-1.26-.05-2.52-.25-3.78-.59-1.26-.35-2.43-.88-3.49-1.61-1.06-.73-1.9-1.68-2.52-2.85-.62-1.17-.9-2.61-.83-4.31.07-1.77.48-3.23,1.23-4.37.75-1.14,1.71-2.01,2.88-2.63,1.17-.62,2.42-1.04,3.74-1.27,1.32-.23,2.59-.31,3.81-.27,2.29.09,4.19.43,5.71,1,1.51.58,2.73,1.38,3.65,2.42l.19-4.88c.04-1.03-.2-1.76-.72-2.17-.52-.41-1.35-.64-2.5-.68-.67-.03-1.22.04-1.67.21-.45.17-.8.45-1.03.85-.24.4-.37.97-.4,1.71l-11.7-.46c.09-2.33.64-4.24,1.64-5.74,1-1.5,2.66-2.59,4.96-3.27,2.3-.69,5.45-.95,9.44-.79,3.51.14,6.32.66,8.43,1.55,2.11.9,3.62,2.12,4.52,3.68.9,1.55,1.31,3.4,1.23,5.54l-.37,9.31c-.02.59.06,1.06.25,1.4.19.34.52.55,1,.62.48.07,1.09.05,1.83-.07l-.32,8.09c-1.71.23-3.44.22-5.19-.04s-3.28-.84-4.59-1.76c-1.31-.92-2.2-2.3-2.64-4.13h-.22c-1.34,2.09-3.14,3.55-5.39,4.39-2.25.84-4.64,1.21-7.15,1.11ZM455.68,238.87c1.63.06,2.78-.07,3.46-.39.68-.32,1.04-.91,1.07-1.76.03-.78-.31-1.37-1.01-1.79-.71-.42-1.82-.65-3.33-.71-1.48-.06-2.59.09-3.35.45-.75.36-1.15.93-1.18,1.7-.03.81.28,1.42.93,1.81.65.4,1.79.63,3.42.69Z"/>
          <path class="cls-17" d="M492.24,246.64l-12.36-.49,1.13-28.6,12.08.48-.52,6.09.22.06c1.46-2.2,3.31-3.81,5.55-4.83,2.24-1.02,4.67-1.48,7.3-1.38,3.07.12,5.4,1.03,7,2.72,1.6,1.69,2.35,3.76,2.25,6.2l-.81,20.62-12.36-.49.63-16.08c.05-1.26-.18-2.26-.69-3-.51-.74-1.67-1.15-3.48-1.22-1.11-.04-2.06.06-2.84.3-.79.25-1.39.67-1.8,1.26-.41.59-.64,1.39-.68,2.39l-.63,15.96Z"/>
          <path class="cls-17" d="M516.91,258.78l-3.43-7.41,7.26-3.88,1.12-28.33,12.47.49-1.2,30.38-16.22,8.74ZM528.25,217.42c-2.48-.1-4.26-.58-5.35-1.46-1.1-.88-1.61-2.18-1.54-3.92.07-1.74.68-3,1.84-3.79,1.16-.79,2.98-1.13,5.45-1.03,2.48.1,4.23.58,5.27,1.46,1.04.87,1.52,2.18,1.46,3.92-.07,1.74-.66,3-1.76,3.79-1.1.79-2.9,1.14-5.37,1.04Z"/>
          <path class="cls-17" d="M557,250.03c-3.62-.14-6.76-.7-9.43-1.68-2.66-.97-4.69-2.6-6.08-4.87-1.39-2.28-2.01-5.41-1.85-9.4.11-2.7.56-4.94,1.35-6.72.79-1.78,1.82-3.19,3.08-4.24,1.26-1.04,2.66-1.82,4.2-2.33,1.54-.51,3.11-.83,4.73-.95,1.62-.12,3.16-.15,4.64-.09,3.92.15,7.06.82,9.44,1.98,2.38,1.17,4.07,2.96,5.09,5.39,1.01,2.43,1.37,5.65,1.06,9.67l-21.01-.83c0,1.63.2,2.92.57,3.88.37.96.98,1.65,1.83,2.07.85.42,2,.66,3.44.72,1.85.04,3.16-.24,3.92-.84.76-.6,1.21-1.69,1.35-3.28l10.75.42c-.33,3.58-1.87,6.39-4.63,8.42-2.76,2.04-6.92,2.93-12.46,2.67ZM557.41,227.06c-1.59-.06-2.74.18-3.44.72-.71.55-1.24,1.55-1.59,3.02l9.2.36c.08-1,0-1.79-.24-2.37-.24-.58-.66-1.01-1.28-1.27-.62-.26-1.5-.42-2.65-.46Z"/>
          <path class="cls-17" d="M586.23,250.9c-2.74-.11-4.64-.73-5.73-1.86-1.08-1.13-1.59-2.62-1.52-4.47.07-1.85.69-3.29,1.86-4.34,1.17-1.04,3.12-1.51,5.86-1.41,2.59.1,4.42.72,5.51,1.85,1.08,1.14,1.59,2.63,1.52,4.47-.07,1.85-.69,3.3-1.86,4.34-1.17,1.05-3.05,1.52-5.64,1.42ZM581.67,236.9l-2.18-26.35,16.46.65-4.25,26.09-10.03-.4Z"/>
        </g>
      </g>
    </g>
    <g>
      <path class="cls-21" d="M638.1,131.54l-6.86,101.36c.05.52,22.51-1.21,23.03-1.26l326.87-31.29c.51-.05.89-.49.86-1l-7.79-111.19c-.03-.55-.53-.96-1.08-.88l-334.21,43.22c-.5.07-.86.53-.81,1.03Z"/>
      <g>
        <path class="cls-8" d="M627.55,112.36l4.15,97.92c.03.52.46.92.98.9l341.93-11.19c.51-.02.92-.44.91-.96l-2.11-111.44c0-.55-.48-.98-1.03-.93l-343.97,24.71c-.51.05-.89.48-.86.99Z"/>
        <g>
          <path class="cls-17" d="M668.69,159.83l.95,19.26-14.7.73-1.71-34.63,14.5-.72.03,7.4.27.05c1.56-2.86,3.61-5.01,6.14-6.46,2.53-1.45,5.23-2.24,8.09-2.38,3.13-.15,5.57.42,7.32,1.72,1.75,1.3,2.9,3.06,3.46,5.28l.2.06c1.53-2.63,3.51-4.64,5.93-6.01,2.42-1.38,5.06-2.13,7.93-2.27,3.49-.17,6.25.68,8.27,2.55,2.02,1.88,3.1,4.29,3.25,7.24l1.23,24.97-14.97.74-.96-19.4c-.08-1.52-.41-2.7-1.02-3.55-.6-.85-1.89-1.22-3.86-1.12-1.21.06-2.21.28-3,.65-.79.38-1.38.94-1.77,1.7-.39.76-.55,1.74-.49,2.95l.95,19.26-14.97.74-.96-19.4c-.08-1.52-.43-2.7-1.05-3.55-.63-.84-1.9-1.22-3.82-1.12-1.16.06-2.15.27-2.96.65-.81.38-1.41.94-1.8,1.7-.39.76-.55,1.74-.49,2.95Z"/>
          <path class="cls-17" d="M752.36,140.29l14.97-.74,1.71,34.63-14.63.72-.03-7.4-.27-.05c-1.56,2.9-3.65,5.07-6.27,6.5-2.62,1.43-5.47,2.22-8.56,2.37-3.67.18-6.57-.66-8.7-2.53-2.13-1.87-3.27-4.28-3.42-7.23l-1.23-24.97,14.97-.74.96,19.46c.05.98.23,1.84.53,2.56.31.73.85,1.27,1.63,1.64.78.36,1.89.51,3.32.44,1.39-.07,2.53-.29,3.43-.67.9-.38,1.57-.95,2-1.71.43-.76.62-1.75.56-2.95l-.95-19.33Z"/>
          <path class="cls-17" d="M811.8,162.59l.47,9.46-36.04,1.78-.44-8.86,11.66-13.29,3.09-2.84-.05-.94-4.9.24-9.93.49-.47-9.46,34.7-1.71.43,8.79-11.53,13.22-3.28,2.99.05.94,5.37-.27,10.87-.54Z"/>
          <path class="cls-17" d="M824.8,134.29c-3,.15-5.2-.25-6.62-1.19s-2.17-2.46-2.28-4.56c-.1-2.1.5-3.69,1.82-4.77s3.47-1.69,6.47-1.83c3-.15,5.17.25,6.52,1.19,1.35.94,2.07,2.47,2.18,4.57.1,2.1-.47,3.69-1.72,4.76-1.25,1.07-3.37,1.68-6.37,1.83ZM834.08,170.97l-15.1.75-1.71-34.63,15.1-.75,1.71,34.63Z"/>
          <path class="cls-17" d="M857.23,169.83l-14.97.74-2.42-49,14.97-.74,1.24,25.1.67-.03,8.6-11.19,15.24-.75-10.58,13.24,14.98,21.26-18.19.9-9.09-13.75-1.14.06.7,14.16Z"/>
          <path class="cls-17" d="M899.55,168.41c-1.52.08-3.06-.03-4.62-.31-1.56-.28-3.02-.8-4.38-1.57-1.36-.76-2.48-1.82-3.35-3.16-.87-1.35-1.36-3.05-1.46-5.11-.11-2.15.23-3.95,1.01-5.4.78-1.45,1.84-2.61,3.19-3.49,1.35-.87,2.81-1.52,4.38-1.93,1.57-.41,3.1-.66,4.57-.73,2.77-.14,5.1.06,6.99.6,1.89.54,3.44,1.38,4.67,2.53l-.29-5.91c-.06-1.25-.43-2.1-1.1-2.54-.67-.44-1.7-.62-3.09-.55-.81.04-1.47.19-2,.44-.53.25-.91.63-1.15,1.13s-.34,1.21-.3,2.1l-14.16.7c-.14-2.82.32-5.18,1.36-7.1,1.05-1.91,2.93-3.41,5.63-4.48s6.47-1.73,11.31-1.97c4.25-.21,7.7.11,10.34.97,2.64.86,4.59,2.17,5.85,3.95,1.25,1.78,1.94,3.96,2.07,6.56l.56,11.28c.04.72.19,1.27.45,1.66.27.39.69.6,1.28.64.58.04,1.32-.05,2.21-.28l.48,9.8c-2.04.46-4.13.63-6.27.51-2.14-.12-4.05-.66-5.73-1.63-1.69-.97-2.9-2.54-3.63-4.7h-.27c-1.39,2.68-3.4,4.65-6.03,5.9-2.63,1.25-5.47,1.95-8.51,2.1ZM905.98,159.75c1.97-.1,3.35-.38,4.13-.84.78-.46,1.15-1.21,1.1-2.24-.05-.94-.52-1.62-1.41-2.05-.9-.43-2.26-.59-4.1-.5-1.79.09-3.12.39-3.99.9-.87.51-1.29,1.24-1.24,2.18.05.99.49,1.68,1.31,2.09.83.41,2.22.56,4.19.47Z"/>
          <path class="cls-17" d="M938.32,149.75l-5.46-31.56,19.93-.98-2.33,31.94-12.15.6ZM945.32,166.15c-3.31.16-5.68-.38-7.11-1.63-1.43-1.25-2.2-3-2.31-5.23-.11-2.24.48-4.05,1.78-5.44,1.3-1.39,3.6-2.16,6.92-2.33,3.13-.15,5.41.39,6.84,1.65,1.43,1.25,2.2,3,2.31,5.23.11,2.24-.48,4.05-1.78,5.44-1.3,1.39-3.52,2.16-6.65,2.31Z"/>
        </g>
      </g>
    </g>
    <g>
      <path class="cls-19" d="M1021.92,47.88l-16.08,102.1c-.08.54.29,1.05.83,1.14l347.87,56.46c.54.09,1.04-.27,1.14-.8l21-115.65c.11-.57-.29-1.12-.87-1.18l-352.79-42.91c-.53-.06-1.02.31-1.1.84Z"/>
      <g>
        <path class="cls-5" d="M1017.11,22.15l-22.41,100.9c-.12.54.22,1.06.76,1.19l351.43,81.64c.53.12,1.06-.2,1.19-.73l28.18-114.12c.14-.56-.22-1.13-.8-1.23L1018.26,21.37c-.53-.09-1.03.25-1.15.77Z"/>
        <g>
          <path class="cls-17" d="M1037.18,113.32l-15.45-3.32,10.3-47.95,15.1,3.25-1.98,7.55.26.13c2.26-2.22,4.75-3.82,7.45-4.81,2.7-.99,5.72-1.13,9.04-.41,3.23.69,5.76,1.99,7.58,3.88,1.82,1.89,2.96,4.33,3.43,7.33.47,3,.27,6.51-.59,10.53-.74,3.46-1.79,6.3-3.13,8.5-1.34,2.2-2.92,3.86-4.73,4.96-1.81,1.11-3.81,1.75-6,1.94-2.19.18-4.53,0-7.03-.53-1.8-.39-3.41-.93-4.83-1.62-1.42-.69-2.62-1.53-3.59-2.51-.97-.98-1.73-2.11-2.28-3.39l-3.54,16.49ZM1048.04,93.84c1.66.36,3.05.35,4.17,0,1.12-.36,2.04-1.17,2.77-2.41.73-1.25,1.33-2.98,1.8-5.19.47-2.17.63-3.92.48-5.26-.15-1.34-.66-2.38-1.54-3.12-.88-.74-2.15-1.3-3.81-1.65-1.71-.37-3.12-.39-4.22-.07-1.11.32-2.01,1.07-2.7,2.25-.69,1.18-1.27,2.86-1.73,5.03-.48,2.22-.64,4.03-.48,5.44.16,1.41.66,2.51,1.5,3.29.85.79,2.1,1.36,3.76,1.71Z"/>
          <path class="cls-17" d="M1091.42,112.22l-15.59-3.35,7.68-35.75,15.59,3.35-7.68,35.75ZM1091.95,72.32c-3.09-.66-5.23-1.67-6.42-3.01-1.19-1.34-1.54-3.1-1.08-5.27.47-2.17,1.52-3.62,3.15-4.36,1.63-.74,4-.77,7.09-.11s5.2,1.66,6.32,2.99,1.44,3.08.98,5.25c-.47,2.17-1.48,3.63-3.05,4.38-1.56.75-3.89.79-6.99.13Z"/>
          <path class="cls-17" d="M1119.19,119.27c-7.58-1.63-12.82-3.78-15.72-6.46-2.9-2.68-3.85-6.35-2.85-11.01l13.93,2.99c-.37,1.51-.16,2.67.63,3.47.79.8,2.48,1.48,5.07,2.03,2.26.49,3.85.62,4.77.41.92-.21,1.46-.71,1.63-1.5.15-.69-.05-1.23-.6-1.61-.55-.38-1.4-.8-2.56-1.24l-8.74-3.18c-4.08-1.5-6.99-3.35-8.74-5.54-1.75-2.19-2.27-4.97-1.54-8.34.87-4.06,3.17-6.78,6.9-8.16,3.73-1.37,8.8-1.37,15.22,0,4.57.98,8.23,2.23,10.98,3.74,2.74,1.51,4.66,3.34,5.74,5.51,1.08,2.17,1.33,4.73.74,7.7l-13.93-2.99c.32-1.28.12-2.28-.62-3-.74-.71-2.13-1.29-4.16-1.73-1.71-.37-2.97-.46-3.79-.27-.81.19-1.29.6-1.43,1.25-.11.51.04.95.44,1.33.4.38,1.1.74,2.08,1.1l10.9,3.94c3.46,1.23,5.98,2.88,7.56,4.96,1.58,2.08,2.03,4.74,1.33,7.97-.62,2.86-1.9,5.1-3.87,6.71-1.96,1.61-4.56,2.57-7.8,2.89-3.23.32-7.09,0-11.57-.96Z"/>
          <path class="cls-17" d="M1158.34,127.32c-1.57-.34-3.11-.86-4.63-1.57-1.51-.71-2.86-1.64-4.04-2.79-1.18-1.15-2.03-2.53-2.55-4.14-.52-1.61-.56-3.48-.1-5.6.48-2.22,1.31-3.96,2.5-5.23,1.19-1.27,2.59-2.16,4.2-2.69,1.61-.52,3.27-.78,4.99-.78,1.71,0,3.33.17,4.86.5,2.86.62,5.18,1.45,6.96,2.51,1.78,1.06,3.13,2.34,4.07,3.85l1.31-6.1c.28-1.29.13-2.25-.43-2.88-.57-.63-1.57-1.1-3-1.4-.83-.18-1.55-.21-2.15-.1-.61.11-1.1.39-1.49.84-.39.45-.68,1.14-.88,2.06l-14.62-3.14c.62-2.91,1.73-5.2,3.32-6.86,1.59-1.66,3.91-2.68,6.96-3.04,3.05-.36,7.07,0,12.06,1.07,4.39.94,7.81,2.21,10.27,3.8,2.46,1.59,4.09,3.46,4.88,5.62.79,2.15.9,4.57.33,7.25l-2.5,11.64c-.16.74-.16,1.34,0,1.81.16.47.54.8,1.13,1,.58.2,1.36.3,2.32.32l-2.17,10.12c-2.21-.09-4.38-.48-6.52-1.18-2.14-.7-3.94-1.78-5.39-3.23-1.46-1.45-2.26-3.37-2.42-5.77l-.28-.06c-2.15,2.34-4.73,3.79-7.75,4.35-3.02.56-6.1.5-9.24-.17ZM1167.26,120.25c2.03.44,3.51.53,4.44.26.93-.26,1.5-.92,1.73-1.98.21-.97-.08-1.79-.88-2.47-.8-.68-2.14-1.22-4.04-1.63-1.85-.4-3.29-.45-4.31-.17-1.03.29-1.65.91-1.85,1.88-.22,1.02.04,1.85.77,2.48.73.64,2.11,1.18,4.15,1.62Z"/>
          <path class="cls-17" d="M1211.57,138.03l-15.45-3.32,7.68-35.75,15.1,3.25-1.98,7.55.26.13c2.31-2.45,5-4.07,8.04-4.87,3.04-.8,6.21-.84,9.49-.14,3.83.82,6.57,2.48,8.21,4.95,1.64,2.48,2.14,5.24,1.48,8.29l-5.54,25.77-15.45-3.32,4.32-20.09c.34-1.57.27-2.88-.21-3.92-.48-1.04-1.85-1.81-4.11-2.3-1.39-.3-2.6-.38-3.65-.24-1.04.14-1.89.54-2.54,1.19-.65.66-1.11,1.61-1.38,2.86l-4.29,19.96Z"/>
          <path class="cls-17" d="M1239.96,158.7l-2.69-10.07,9.99-3.29,7.61-35.41,15.59,3.35-8.16,37.97-22.33,7.45ZM1263.3,109.14c-3.09-.67-5.23-1.67-6.42-3.01-1.19-1.34-1.54-3.1-1.08-5.27.47-2.17,1.51-3.62,3.15-4.36,1.63-.74,4-.77,7.09-.11s5.2,1.66,6.32,2.99c1.12,1.33,1.44,3.08.97,5.25-.47,2.17-1.48,3.63-3.04,4.38-1.56.75-3.89.79-6.99.13Z"/>
          <path class="cls-17" d="M1292.34,156.48c-4.53-.97-8.36-2.36-11.5-4.17-3.14-1.81-5.33-4.3-6.59-7.47s-1.34-7.25-.27-12.24c.72-3.37,1.78-6.09,3.17-8.16,1.39-2.07,2.99-3.62,4.8-4.66,1.82-1.03,3.75-1.71,5.8-2.02,2.05-.31,4.1-.36,6.16-.16,2.06.2,4.01.5,5.86.9,4.9,1.05,8.71,2.57,11.45,4.56,2.74,1.99,4.48,4.62,5.23,7.9.75,3.28.48,7.41-.78,12.41l-26.26-5.64c-.34,2.05-.39,3.72-.13,5.01.25,1.29.87,2.29,1.85,3.01.98.72,2.37,1.27,4.17,1.66,2.32.45,4.03.38,5.12-.21,1.09-.59,1.9-1.86,2.42-3.83l13.44,2.89c-1.2,4.43-3.75,7.63-7.68,9.59-3.92,1.96-9.35,2.17-16.27.64ZM1297.88,127.66c-1.99-.43-3.48-.37-4.49.16-1.01.53-1.9,1.68-2.66,3.45l11.5,2.47c.31-1.24.39-2.25.22-3.03-.17-.79-.62-1.41-1.33-1.88-.72-.47-1.8-.86-3.23-1.17Z"/>
          <path class="cls-17" d="M1328.93,163.98c-3.42-.73-5.69-1.94-6.8-3.6-1.12-1.67-1.43-3.65-.93-5.96.5-2.31,1.59-3.99,3.3-5.05,1.7-1.06,4.26-1.22,7.68-.49,3.23.69,5.41,1.88,6.52,3.54,1.12,1.67,1.43,3.65.93,5.96-.5,2.31-1.6,4-3.3,5.05-1.7,1.06-4.17,1.24-7.4.55ZM1326.26,145.35l3.02-33.64,20.58,4.42-11.06,31.91-12.54-2.69Z"/>
        </g>
      </g>
    </g>
    <g>
      <path class="cls-20" d="M981.25,188.6l1.18,89.95c0,.45.38.82.83.82l293.82,8.94c.45,0-.97-9.84-.96-10.29l2.49-105.53c.01-.48-.39-.87-.87-.85l-295.71,16.12c-.44.02-.79.39-.78.84Z"/>
      <g>
        <path class="cls-9" d="M967.89,195.78l-1.53,89.94c0,.45.35.83.8.84l291.92,8.28c.45.01.83-.33.85-.78l5.68-105.41c.03-.48-.36-.88-.85-.87l-296.07,7.18c-.44.01-.8.37-.81.81Z"/>
        <g>
          <path class="cls-17" d="M1021.9,217.11l13.53.23-.74,44.29-13.41-.22.42-6.67-.24-.06c-1.53,2.2-3.33,3.95-5.4,5.25-2.07,1.3-4.53,1.93-7.41,1.88-2.1-.03-3.94-.42-5.5-1.15-1.57-.73-2.86-1.81-3.89-3.22-1.03-1.41-1.79-3.13-2.28-5.17-.49-2.03-.72-4.36-.67-6.99.05-3.03.46-5.58,1.22-7.66.76-2.07,1.81-3.72,3.15-4.96,1.33-1.23,2.91-2.11,4.72-2.62,1.81-.52,3.81-.76,5.99-.72,1.58.03,3.01.21,4.3.56,1.29.35,2.43.85,3.43,1.51,1,.66,1.84,1.49,2.51,2.47l.28-16.75ZM1015.97,237.59c-1.46-.02-2.62.22-3.5.73-.88.51-1.52,1.34-1.92,2.49-.4,1.15-.62,2.69-.65,4.63-.03,1.86.14,3.35.5,4.47.37,1.12.97,1.92,1.81,2.4.84.48,1.99.73,3.45.76,1.54.03,2.74-.19,3.59-.64.86-.45,1.48-1.23,1.86-2.34.38-1.11.59-2.61.62-4.51.03-1.94-.12-3.49-.47-4.65-.34-1.16-.95-2-1.81-2.52-.86-.52-2.02-.79-3.48-.82Z"/>
          <path class="cls-17" d="M1049.56,228.38c-2.71-.05-4.67-.53-5.89-1.46s-1.81-2.35-1.78-4.25c.03-1.9.67-3.3,1.92-4.19,1.25-.89,3.23-1.31,5.94-1.27,2.71.04,4.64.53,5.8,1.46,1.16.93,1.72,2.35,1.69,4.25-.03,1.9-.64,3.3-1.83,4.19-1.19.89-3.14,1.31-5.85,1.27ZM1055.74,261.99l-13.65-.23.52-31.31,13.65.23-.52,31.31Z"/>
          <path class="cls-17" d="M1095.02,254.08l-.14,8.56-32.58-.54.13-8.01,11.29-11.28,2.95-2.38v-.85s-4.42-.07-4.42-.07l-8.98-.15.14-8.56,31.37.52-.13,7.95-11.17,11.22-3.14,2.5v.85s4.84.08,4.84.08l9.83.16Z"/>
          <path class="cls-17" d="M1111.31,263.52c-1.38-.02-2.76-.21-4.15-.55-1.39-.35-2.68-.9-3.86-1.67-1.18-.77-2.12-1.79-2.83-3.05-.71-1.27-1.05-2.83-1.01-4.69.03-1.94.44-3.54,1.23-4.8.79-1.26,1.82-2.25,3.08-2.95,1.27-.71,2.62-1.2,4.06-1.48,1.44-.28,2.83-.41,4.16-.39,2.51.04,4.6.36,6.27.95,1.67.59,3.02,1.45,4.05,2.56l.09-5.34c.02-1.13-.26-1.92-.84-2.35s-1.5-.66-2.75-.68c-.73-.01-1.34.08-1.83.27-.49.2-.86.51-1.11.95-.25.44-.38,1.07-.4,1.88l-12.8-.21c.04-2.55.59-4.65,1.65-6.31,1.06-1.66,2.84-2.9,5.34-3.7,2.5-.81,5.94-1.18,10.31-1.1,3.84.06,6.93.56,9.26,1.49s4.01,2.23,5.03,3.91c1.02,1.68,1.52,3.69,1.48,6.03l-.17,10.19c-.01.65.09,1.15.31,1.52.22.37.59.59,1.11.66.52.07,1.19.03,2.01-.12l-.15,8.86c-1.87.29-3.76.32-5.68.09-1.92-.23-3.61-.84-5.07-1.81-1.46-.97-2.46-2.46-2.99-4.45h-.24c-1.42,2.32-3.34,3.97-5.79,4.94-2.44.97-5.04,1.43-7.79,1.39ZM1117.63,256.1c1.78.03,3.04-.14,3.77-.51.73-.37,1.11-1.02,1.12-1.95.01-.85-.37-1.49-1.15-1.93s-2-.67-3.66-.7c-1.62-.03-2.84.17-3.65.58-.82.41-1.23,1.04-1.24,1.89-.01.89.34,1.54,1.06,1.96.72.42,1.97.64,3.75.67Z"/>
          <path class="cls-17" d="M1140.49,275.6l-3.93-8.02,7.84-4.42.52-31.01,13.65.23-.55,33.25-17.52,9.96ZM1151.86,230.09c-2.71-.05-4.67-.53-5.89-1.46-1.22-.93-1.81-2.35-1.78-4.25.03-1.9.67-3.3,1.92-4.19,1.25-.89,3.23-1.31,5.94-1.27,2.71.04,4.64.53,5.8,1.46,1.16.93,1.72,2.35,1.69,4.25-.03,1.9-.64,3.3-1.83,4.19-1.19.89-3.14,1.31-5.85,1.27Z"/>
          <path class="cls-17" d="M1178.91,264.04l-13.53-.23.52-31.31,13.23.22-.42,6.67.24.06c1.54-2.44,3.52-4.25,5.95-5.42,2.43-1.17,5.08-1.74,7.95-1.69,3.36.06,5.93.99,7.72,2.8,1.79,1.81,2.67,4.05,2.62,6.72l-.38,22.57-13.53-.23.29-17.6c.02-1.38-.25-2.46-.83-3.26-.57-.8-1.85-1.21-3.83-1.25-1.21-.02-2.25.11-3.1.4s-1.5.76-1.94,1.42c-.44.66-.66,1.54-.68,2.63l-.29,17.48Z"/>
          <path class="cls-17" d="M1213.07,250.1l-3.04-28.76,18.02.3-4,28.64-10.98-.18ZM1218.4,265.31c-2.99-.05-5.1-.68-6.31-1.9-1.21-1.21-1.8-2.83-1.77-4.85.03-2.02.68-3.62,1.93-4.79,1.25-1.17,3.38-1.73,6.37-1.68,2.83.05,4.85.68,6.07,1.89,1.21,1.21,1.8,2.83,1.77,4.85-.03,2.02-.68,3.62-1.93,4.79-1.25,1.17-3.3,1.74-6.13,1.69Z"/>
        </g>
      </g>
    </g>
    <g>
      <path class="cls-22" d="M175.71,80.15l1.8,91.92c0,.46.49.78,1.09.72l460.12-76.26c.59-.06,1.07-.48,1.08-.95l.62-73.73c.01-.5-.51-.84-1.14-.74l-462.54,58.08c-.58.09-1.03.52-1.02.97Z"/>
      <path class="cls-6" d="M188.47,89.41l5.72,90.87c.03.46.44.8.93.76l462.48-65.61c.48-.04.86-.43.85-.88l-2.89-72.8c-.01-.49-.46-.85-.98-.79l-465.31,47.54c-.48.06-.83.46-.8.91Z"/>
      <g>
        <path class="cls-17" d="M234.55,149.33l-13.13,1.6-3.7-30.37,12.83-1.56.49,6.51.24.03c1.16-2.57,2.84-4.59,5.03-6.05,2.19-1.46,4.68-2.36,7.47-2.7,3.26-.4,5.87.16,7.85,1.67,1.98,1.51,3.12,3.56,3.44,6.15l2.67,21.9-13.13,1.6-2.08-17.07c-.16-1.33-.58-2.35-1.24-3.04-.66-.7-1.96-.93-3.88-.69-1.18.14-2.16.41-2.95.81-.79.39-1.35.94-1.68,1.64-.33.7-.44,1.58-.31,2.64l2.06,16.95Z"/>
        <path class="cls-17" d="M280.39,144.65c-2.83.34-5.42.41-7.77.2-2.35-.21-4.44-.82-6.26-1.84-1.82-1.01-3.3-2.51-4.46-4.5-1.16-1.99-1.93-4.57-2.32-7.75-.39-3.18-.22-5.87.51-8.07.73-2.2,1.89-3.99,3.5-5.38,1.6-1.39,3.5-2.46,5.7-3.2,2.2-.75,4.59-1.28,7.18-1.59,2.55-.31,4.99-.37,7.33-.17,2.33.19,4.44.77,6.33,1.74,1.89.96,3.45,2.42,4.68,4.36,1.23,1.94,2.04,4.5,2.43,7.68.52,4.24.12,7.63-1.18,10.18-1.3,2.55-3.31,4.46-6.02,5.75-2.71,1.29-5.93,2.16-9.66,2.61ZM279.37,136.29c1.29-.16,2.33-.51,3.1-1.06.77-.55,1.29-1.42,1.56-2.61.27-1.19.28-2.82.03-4.9-.25-2.04-.64-3.57-1.18-4.58-.54-1.01-1.25-1.66-2.12-1.95-.87-.29-1.94-.36-3.19-.21-1.26.15-2.28.48-3.08.97-.8.5-1.34,1.3-1.62,2.41-.28,1.11-.3,2.71-.04,4.78.25,2.08.65,3.66,1.21,4.75s1.26,1.8,2.14,2.13c.88.33,1.94.42,3.2.27Z"/>
        <path class="cls-17" d="M309.95,140.16l-15.23-28.97,14.42-1.75,6,12.47,2.54,5.19.29-.04,1.28-5.71,2.96-13.5,11.24-1.37-7.72,31.76-15.78,1.92Z"/>
        <path class="cls-17" d="M341.61,103.33c-2.63.32-4.6.11-5.9-.63s-2.07-2.03-2.29-3.87c-.22-1.84.21-3.28,1.3-4.31,1.09-1.03,2.95-1.7,5.58-2.02,2.63-.32,4.57-.11,5.81.64,1.24.74,1.98,2.04,2.2,3.88s-.18,3.28-1.21,4.3c-1.03,1.02-2.86,1.69-5.49,2.01ZM352.09,135.03l-13.24,1.61-3.7-30.37,13.24-1.61,3.7,30.37Z"/>
        <path class="cls-17" d="M369.99,132.85l-13.13,1.6-3.7-30.37,12.83-1.56.49,6.51.24.03c1.16-2.57,2.84-4.59,5.03-6.05,2.19-1.46,4.68-2.36,7.47-2.7,3.26-.4,5.87.16,7.85,1.67,1.98,1.51,3.12,3.56,3.44,6.15l2.67,21.9-13.13,1.6-2.08-17.07c-.16-1.33-.58-2.35-1.24-3.05-.66-.7-1.96-.93-3.88-.69-1.18.14-2.16.41-2.95.81s-1.35.94-1.68,1.64c-.33.7-.44,1.58-.31,2.64l2.06,16.95Z"/>
        <path class="cls-17" d="M407.97,128.83c-1.33.16-2.7.17-4.09.02s-2.71-.52-3.96-1.1c-1.25-.58-2.3-1.44-3.15-2.57-.85-1.13-1.39-2.6-1.61-4.4-.23-1.88-.05-3.49.55-4.82.59-1.33,1.46-2.42,2.59-3.27,1.13-.86,2.37-1.51,3.73-1.98,1.36-.46,2.68-.77,3.98-.93,2.43-.3,4.5-.27,6.19.08,1.69.35,3.12.99,4.27,1.93l-.63-5.18c-.13-1.1-.51-1.82-1.13-2.16-.62-.34-1.54-.44-2.75-.29-.71.09-1.28.26-1.73.51-.45.25-.76.61-.94,1.07-.18.46-.23,1.08-.13,1.87l-12.42,1.51c-.3-2.47-.05-4.58.75-6.33.8-1.75,2.36-3.18,4.67-4.3,2.31-1.12,5.59-1.93,9.83-2.45,3.73-.45,6.78-.39,9.16.2,2.38.59,4.18,1.62,5.4,3.11,1.22,1.49,1.96,3.37,2.24,5.64l1.2,9.89c.08.63.24,1.1.5,1.43.26.33.65.49,1.16.49.52,0,1.16-.13,1.92-.38l1.05,8.59c-1.77.53-3.59.81-5.48.85-1.89.03-3.6-.33-5.15-1.08-1.54-.75-2.71-2.05-3.49-3.91l-.23.03c-1.06,2.44-2.7,4.29-4.94,5.56-2.24,1.27-4.69,2.06-7.35,2.39ZM413.08,120.8c1.73-.21,2.92-.54,3.58-1,.66-.46.94-1.14.83-2.04-.1-.82-.56-1.4-1.37-1.71-.82-.32-2.03-.38-3.64-.18-1.57.19-2.72.54-3.46,1.05-.74.51-1.05,1.17-.95,2,.1.86.53,1.45,1.29,1.75.75.31,1.99.35,3.72.14Z"/>
        <path class="cls-17" d="M450.63,123.04l-13.13,1.6-3.7-30.37,12.83-1.56.49,6.51.24.03c1.23-2.62,2.65-4.61,4.26-5.98,1.6-1.37,3.43-2.18,5.47-2.43,2.79-.34,5.06.2,6.83,1.62,1.76,1.42,2.82,3.52,3.16,6.31l1,8.24-11.54,1.4-.48-3.94c-.17-1.37-.56-2.3-1.18-2.78-.62-.48-1.61-.64-2.98-.47-.94.11-1.68.36-2.21.75-.53.38-.88.95-1.05,1.71-.17.76-.18,1.72-.04,2.9l2.01,16.48Z"/>
        <path class="cls-17" d="M489.46,119.21c-6.44.78-11.17.51-14.2-.81-3.03-1.32-4.78-3.97-5.27-7.93l11.83-1.44c.12,1.3.6,2.16,1.45,2.57.85.42,2.37.49,4.57.22,1.92-.23,3.22-.56,3.88-.98.67-.42.96-.96.88-1.63-.07-.59-.38-.96-.91-1.11-.54-.15-1.32-.25-2.36-.28l-7.78-.13c-3.63-.07-6.44-.74-8.43-1.99-1.98-1.25-3.15-3.31-3.5-6.17-.42-3.45.65-6.23,3.23-8.34,2.57-2.11,6.58-3.49,12.04-4.15,3.88-.47,7.12-.49,9.7-.05,2.58.44,4.6,1.37,6.04,2.79,1.45,1.42,2.34,3.38,2.69,5.89l-11.83,1.44c-.1-1.1-.53-1.84-1.31-2.2-.78-.36-2.04-.44-3.76-.23-1.45.18-2.47.45-3.07.82-.59.37-.85.83-.79,1.38.05.43.29.74.71.93.42.19,1.07.29,1.95.3l9.69.13c3.07.03,5.51.64,7.33,1.86,1.82,1.21,2.9,3.19,3.23,5.94.3,2.43-.11,4.55-1.23,6.36-1.12,1.81-2.91,3.28-5.38,4.42-2.47,1.14-5.61,1.94-9.42,2.4Z"/>
        <path class="cls-17" d="M505.04,94.02l-1.01-8.3,30.2-3.67,1.01,8.3-30.2,3.67ZM526.96,114.64c-3.3.4-6,.33-8.12-.21-2.12-.54-3.73-1.46-4.85-2.76-1.11-1.3-1.78-2.87-2.01-4.71l-2.5-20.54,1.85-8.89,10.24-1.25,3.2,26.31c.1.79.26,1.42.5,1.91.24.49.59.83,1.05,1.04.46.2,1.07.26,1.81.17,1.14-.14,1.87-.58,2.2-1.31.33-.74.38-2.05.15-3.93l9.01-1.1c.58,4.79-.11,8.38-2.06,10.76-1.96,2.39-5.45,3.89-10.47,4.5Z"/>
        <path class="cls-17" d="M550.28,110.91l-15.23-28.97,14.42-1.75,6,12.47,2.54,5.19.29-.04,1.28-5.71,2.96-13.5,11.24-1.37-7.72,31.76-15.77,1.92Z"/>
        <path class="cls-17" d="M595.71,106.28c-2.83.34-5.42.41-7.77.2-2.36-.21-4.44-.82-6.26-1.84-1.82-1.01-3.3-2.51-4.46-4.5-1.16-1.99-1.93-4.57-2.32-7.75-.39-3.18-.22-5.87.51-8.07.73-2.2,1.89-3.99,3.5-5.38,1.6-1.39,3.5-2.46,5.7-3.2,2.2-.75,4.59-1.28,7.18-1.59,2.55-.31,4.99-.37,7.33-.17,2.33.19,4.44.77,6.33,1.74,1.89.96,3.45,2.42,4.68,4.36,1.23,1.94,2.04,4.5,2.43,7.68.52,4.24.12,7.63-1.18,10.18-1.3,2.55-3.31,4.47-6.02,5.75-2.71,1.29-5.93,2.16-9.66,2.61ZM594.69,97.92c1.29-.16,2.33-.51,3.1-1.06s1.29-1.42,1.56-2.61c.27-1.19.28-2.82.03-4.9-.25-2.04-.64-3.57-1.18-4.58-.54-1.01-1.25-1.66-2.12-1.95-.87-.29-1.94-.36-3.19-.21-1.26.15-2.28.48-3.08.97-.8.5-1.33,1.3-1.62,2.41s-.3,2.71-.05,4.78c.25,2.08.66,3.66,1.21,4.75.55,1.09,1.26,1.8,2.14,2.13.88.33,1.94.42,3.2.27Z"/>
        <path class="cls-17" d="M619.02,88.27l-6.8-27.42,17.48-2.13-.03,28.26-10.65,1.3ZM626.22,102.27c-2.9.35-5.02.02-6.36-.99-1.34-1.01-2.13-2.5-2.36-4.46-.24-1.96.17-3.59,1.23-4.9,1.06-1.3,3.04-2.13,5.94-2.48,2.75-.33,4.79,0,6.13,1.02,1.34,1.01,2.13,2.5,2.36,4.46.24,1.96-.17,3.59-1.23,4.9-1.06,1.3-2.96,2.12-5.71,2.46Z"/>
      </g>
    </g>
  </g>
</svg>