<?xml version="1.0" encoding="UTF-8"?>
<svg id="Layer_1" data-name="Layer 1" xmlns="http://www.w3.org/2000/svg" version="1.1" xmlns:xlink="http://www.w3.org/1999/xlink" viewBox="0 0 372 334">
  <defs>
    <style>
      .cls-1 {
        fill: #000;
      }

      .cls-1, .cls-2, .cls-3, .cls-4, .cls-5, .cls-6, .cls-7, .cls-8, .cls-9, .cls-10, .cls-11, .cls-12 {
        stroke-width: 0px;
      }

      .cls-13, .cls-9 {
        fill: #0c0c08;
      }

      .cls-2 {
        fill: #caa8f5;
      }

      .cls-3 {
        fill: #0e8c80;
      }

      .cls-4 {
        fill: none;
      }

      .cls-14, .cls-5, .cls-7 {
        fill: #e5e5e5;
      }

      .cls-15 {
        clip-path: url(#clippath-1);
      }

      .cls-6 {
        fill: #757bf6;
      }

      .cls-7 {
        clip-path: url(#clippath-2);
      }

      .cls-8 {
        fill: #f45b69;
      }

      .cls-10 {
        fill: #f1f1f1;
      }

      .cls-16 {
        clip-path: url(#clippath-3);
      }

      .cls-11 {
        fill: #eff0f2;
      }

      .cls-12 {
        fill: #dbff8f;
      }
    </style>
    <clipPath id="clippath-1">
      <rect class="cls-4" width="372" height="334"/>
    </clipPath>
    <clipPath id="clippath-2">
      <path class="cls-9" d="M318.62,191.22l10.96-29.71c.87-2.35,4.05-2.44,5.04-.15l12.55,28.99-28.55.86Z"/>
    </clipPath>
    <clipPath id="clippath-3">
      <path class="cls-7" d="M318.62,191.6c-.12,0-.23-.06-.3-.16-.07-.1-.09-.23-.04-.35l10.96-29.71c.45-1.23,1.53-2.02,2.8-2.05,1.29-.03,2.39.69,2.91,1.89l12.55,28.99c.05.11.04.25-.02.35-.06.11-.18.17-.3.18l-28.55.86h-.01ZM332.13,160.08s-.05,0-.07,0c-.98.03-1.8.63-2.14,1.57l-10.76,29.19,27.46-.83-12.33-28.48c-.39-.9-1.21-1.44-2.15-1.44Z"/>
    </clipPath>
    <clipPath id="clippath-4">
      <rect class="cls-4" x="41.69" y="-750.25" width="738.74" height="663.28"/>
    </clipPath>
  </defs>
  <g>
    <g class="cls-15">
      <g>
        <g>
          <g>
            <path class="cls-11" d="M348.15,128.49c-11.55,0-20.94-8.83-20.94-19.69s9.4-19.69,20.94-19.69,20.94,8.83,20.94,19.69-9.4,19.69-20.94,19.69ZM348.15,89.77c-11.19,0-20.29,8.53-20.29,19.02s9.1,19.02,20.29,19.02,20.29-8.53,20.29-19.02-9.1-19.02-20.29-19.02Z"/>
            <path class="cls-5" d="M348.15,128.86c-11.75,0-21.31-9-21.31-20.07s9.56-20.07,21.31-20.07,21.31,9,21.31,20.07-9.56,20.07-21.31,20.07ZM348.15,90.15c-10.99,0-19.93,8.36-19.93,18.65s8.94,18.65,19.93,18.65,19.93-8.36,19.93-18.65-8.94-18.65-19.93-18.65Z"/>
          </g>
          <g>
            <g>
              <path class="cls-11" d="M341.75,102.5c1.12,1.76,3.39,2.42,5.29,1.8s3.48-2.56,3.68-4.67c.04-.45-.64-.51-.68-.06-.17,1.82-1.49,3.47-3.17,4.05s-3.62-.04-4.6-1.57c-.24-.38-.76.08-.52.45h0Z"/>
              <path class="cls-5" d="M345.58,104.91c-1.66,0-3.25-.81-4.14-2.2h0c-.14-.23-.16-.51-.04-.75.12-.24.36-.41.6-.42.23-.01.44.1.57.31.86,1.36,2.62,1.96,4.18,1.42,1.57-.54,2.77-2.07,2.92-3.73.02-.26.17-.48.39-.58.24-.11.52-.08.73.07.2.15.3.38.28.64-.21,2.25-1.82,4.3-3.93,4.99-.52.17-1.05.25-1.57.25Z"/>
            </g>
            <g>
              <path class="cls-11" d="M344.43,98.48c.52.44.6,1.22.18,1.76s-1.19.62-1.71.19-.6-1.22-.18-1.76,1.19-.62,1.71-.19Z"/>
              <path class="cls-5" d="M343.66,101.09c-.36,0-.71-.13-.99-.36-.33-.27-.53-.66-.58-1.1s.08-.86.34-1.2c.55-.7,1.54-.81,2.22-.24h0c.68.57.78,1.59.24,2.29-.27.34-.64.55-1.06.6-.06,0-.11,0-.17,0ZM343.66,98.58c-.25,0-.5.11-.66.33-.14.18-.21.41-.18.64.02.23.13.44.31.59.18.15.4.22.63.19.23-.02.43-.14.57-.32.3-.38.24-.93-.13-1.23h0c-.16-.13-.35-.19-.53-.19Z"/>
            </g>
            <g>
              <path class="cls-11" d="M348.47,97.22c.52.44.6,1.22.18,1.76s-1.19.62-1.71.19-.6-1.22-.18-1.76,1.19-.62,1.71-.19Z"/>
              <path class="cls-5" d="M347.71,99.82c-.35,0-.7-.12-.99-.36-.33-.27-.53-.66-.58-1.1s.08-.86.34-1.2c.55-.7,1.54-.81,2.22-.24h0c.68.56.78,1.59.24,2.29-.31.4-.77.6-1.23.6ZM347.71,97.31c-.25,0-.5.11-.66.33-.14.18-.21.41-.18.64.02.23.13.44.31.59.36.3.9.25,1.2-.13.14-.18.21-.41.18-.64-.02-.23-.13-.44-.31-.59h0c-.16-.13-.35-.2-.54-.2Z"/>
            </g>
          </g>
        </g>
        <g>
          <path class="cls-1" d="M227.53,220.27c3.63,13.53-6.12,30.3-22.36,34.93s-32.16-1.2-35.79-14.72c-3.63-13.53,6.4-29.63,22.64-34.26s31.88.53,35.51,14.05Z"/>
          <g>
            <path class="cls-11" d="M196.75,256.92c-7.75,0-14.86-1.91-20.01-5.37-5.77-3.88-8.82-9.47-8.82-16.18,0-7.15,3.42-14.63,9.4-20.51,6.43-6.33,15.04-10.05,24.26-10.49,8.91-.42,15.83,1.73,20.58,6.41,4.22,4.16,6.45,10.18,6.45,17.43,0,13.95-16.38,28.71-31.86,28.71ZM203.73,205.07c-.69,0-1.39.02-2.11.05-9.04.43-17.49,4.08-23.79,10.28-5.83,5.74-9.17,13.02-9.17,19.96,0,14.37,14.11,20.8,28.1,20.8,15.13,0,31.13-14.37,31.13-27.95,0-7.04-2.15-12.88-6.23-16.89-4.22-4.15-10.24-6.25-17.93-6.25Z"/>
            <path class="cls-11" d="M174.53,241.14c1.02,5.2,6.36,8.65,11.33,8.36.35-.02.35-.58,0-.56-4.74.28-9.82-2.97-10.8-7.95-.07-.36-.6-.2-.53.15h0Z"/>
            <g>
              <path class="cls-11" d="M206.59,215.17c-.5,1.6.24,3.4,1.58,4.3s3.3.95,4.67.01c.29-.2-.01-.67-.31-.47-1.19.81-2.85.79-4.05,0s-1.8-2.35-1.36-3.74c.11-.34-.43-.45-.54-.11h0Z"/>
              <ellipse class="cls-11" cx="209.39" cy="214.87" rx=".97" ry="1"/>
              <ellipse class="cls-11" cx="212.2" cy="216.83" rx=".97" ry="1"/>
            </g>
          </g>
        </g>
        <g>
          <path class="cls-1" d="M114.26-4.92l-10.9,7.75.87-7.75H1.62C-1.18-4.92-3.45-2.58-3.45.3v40.66l41.22-11.79-4.95,62.25L79.99,26.21l15.69,35.82L121.63-4.92"/>
          <path class="cls-11" d="M32.82,91.81s-.09,0-.13-.02c-.15-.06-.25-.21-.23-.38l4.9-61.71L-3.35,41.33c-.11.03-.23,0-.32-.06-.09-.07-.14-.18-.14-.3V.3C-3.81-2.79-1.38-5.3,1.62-5.3h102.61c.1,0,.2.05.27.13.07.08.1.19.09.29l-.78,6.93,10.24-7.28c.17-.12.39-.07.51.1.11.17.07.4-.09.52l-10.9,7.75c-.12.08-.27.09-.39.01-.12-.08-.19-.22-.17-.37l.82-7.33H1.62C-.97-4.55-3.09-2.37-3.09.3v40.17l40.76-11.66c.11-.03.24,0,.33.07.09.08.14.2.13.32l-4.84,60.95L79.7,25.99c.08-.11.2-.16.33-.15.13.01.24.1.29.22l15.34,35.01L121.29-5.06c.07-.19.29-.29.47-.21.19.08.28.3.2.49l-25.94,66.96c-.05.14-.18.23-.33.24-.16,0-.28-.08-.34-.22l-15.44-35.24-46.8,64.71c-.07.1-.18.15-.29.15Z"/>
        </g>
        <g>
          <polygon class="cls-1" points="99.9 156.59 98.73 217.17 68.66 163.31 50.64 209.88 38.85 168.47 19.8 189.95 21.21 157.82 -13.48 162.73 -.36 95.62 43.66 132 87.71 61.31 86.95 125.82 163.1 98.02 99.9 156.59"/>
          <path class="cls-11" d="M98.73,217.54c-.13,0-.25-.07-.32-.19l-29.69-53.18-17.74,45.85c-.06.15-.2.25-.36.24-.16,0-.29-.12-.33-.27l-11.61-40.77-18.61,20.99c-.1.12-.27.15-.41.09-.14-.06-.23-.21-.22-.36l1.39-31.68-34.26,4.85c-.11.02-.23-.03-.32-.11-.08-.09-.11-.21-.09-.33L-.72,95.55c.03-.13.11-.23.23-.28.12-.04.25-.02.35.06l43.71,36.12,43.83-70.33c.09-.14.26-.21.41-.16.16.05.26.2.26.36l-.75,63.96,75.66-27.61c.16-.06.35,0,.44.16.09.15.06.35-.07.47l-63.09,58.46-1.16,60.41c0,.17-.12.31-.27.36-.03,0-.06.01-.09.01ZM68.66,162.94c.13,0,.25.07.32.19l29.41,52.68,1.14-59.22c0-.1.05-.2.12-.27l61.84-57.3-74.42,27.16c-.11.04-.24.02-.33-.05s-.15-.19-.15-.31l.74-63.19-43.37,69.58c-.06.09-.15.15-.25.17-.1.02-.21-.01-.29-.08L-.13,96.3l-12.9,65.99,34.18-4.84c.11-.02.22.02.3.09.08.08.12.18.12.29l-1.36,31.1,18.37-20.71c.09-.1.22-.14.35-.11.13.03.23.13.27.26l11.49,40.36,17.63-45.56c.05-.13.17-.23.31-.24,0,0,.02,0,.03,0Z"/>
        </g>
        <g>
          <path class="cls-1" d="M377.28,2.59v52.09c-.91,3.22-1.84,6.43-2.79,9.63-.72,2.38-1.49,4.86-3.12,6.71-2.67,3.05-7.06,3.77-11.03,3.52-10.03-.62-18.91-7.09-24.22-15.81.29,8.43-.41,16.9-2.09,25.16-2.04,10.02-6.44,20.78-15.61,24.73-5.99,2.58-13.69-.28-17.34-5.27.57,7.12-.38,14.32-3.6,20.59-4.62,9-14.63,15.43-24.37,13.65-9.73-1.78-17.27-13.26-13.61-22.73,2.16-5.6,7.28-9.28,11.9-12.99-13.54-3.47-18.16-23.4-10.11-35.16,8.05-11.75,24.07-15.27,37.69-12.11-9.56-17.5-11.65-39-6.28-58.25h78.52c3.34,0,6.05,2.79,6.05,6.23Z"/>
          <path class="cls-11" d="M276.35,138.25c-1.11,0-2.21-.1-3.3-.3-5.09-.93-9.94-4.64-12.66-9.66-2.4-4.45-2.85-9.4-1.23-13.58,2-5.19,6.45-8.72,10.75-12.14.23-.18.46-.37.69-.55-5.41-1.66-9.77-6.13-12.03-12.39-2.82-7.8-1.87-16.88,2.42-23.15,8.43-12.31,24.64-15.1,37.28-12.44-9.2-17.31-11.36-38.32-5.92-57.81.04-.16.19-.27.35-.27h78.52c3.54,0,6.41,2.97,6.41,6.61v52.09s0,.07-.01.1c-.9,3.21-1.84,6.45-2.79,9.64-.69,2.29-1.47,4.89-3.19,6.85-2.99,3.41-7.81,3.87-11.33,3.65-9.22-.57-18.03-6.1-23.8-14.87.18,8.05-.54,16.09-2.13,23.91-1.85,9.1-6.1,20.81-15.83,25-6.07,2.61-13.27-.2-17.04-4.48.41,7.3-.87,14.07-3.72,19.63-4.41,8.6-13.05,14.14-21.45,14.14ZM289.3,53.88c-10.38,0-21.34,3.73-27.71,13.04-4.15,6.07-5.07,14.88-2.33,22.45,2.27,6.3,6.73,10.71,12.24,12.12.14.03.24.15.27.29.03.14-.02.29-.13.37-.42.34-.85.68-1.27,1.01-4.22,3.35-8.59,6.82-10.52,11.82-1.54,3.97-1.1,8.69,1.19,12.94,2.61,4.83,7.26,8.39,12.15,9.29,9.04,1.65,19.13-4.01,23.98-13.46,2.94-5.73,4.17-12.78,3.56-20.38-.01-.17.08-.32.23-.38.15-.06.32,0,.42.12,3.33,4.54,10.74,7.81,16.91,5.15,9.43-4.06,13.58-15.54,15.39-24.46,1.67-8.2,2.37-16.63,2.08-25.07,0-.17.1-.32.26-.37.16-.05.33.02.42.16,5.61,9.21,14.56,15.05,23.94,15.64,3.35.21,7.95-.21,10.74-3.4,1.61-1.84,2.37-4.35,3.04-6.57.94-3.16,1.87-6.38,2.77-9.57V2.59c0-3.23-2.55-5.86-5.69-5.86h-78.25c-5.37,19.49-3.07,40.5,6.32,57.69.07.13.06.29-.02.41-.09.12-.23.18-.37.14-3.03-.7-6.29-1.08-9.6-1.08ZM377.28,54.68h0,0Z"/>
        </g>
        <g>
          <path class="cls-1" d="M130.5-3.14h55.2c-.16,4.69-2.11,45.17-19.52,44.91-14.85-.22-30.21-32.3-35.68-44.91Z"/>
          <path class="cls-11" d="M166.35,42.15c-.06,0-.11,0-.17,0-14.94-.22-30.16-31.63-36.01-45.13-.05-.12-.04-.25.03-.36s.18-.17.31-.17h55.2c.1,0,.19.04.26.11s.11.17.1.27c-.16,4.65-2.11,45.27-19.72,45.27ZM131.06-2.76c5.95,13.64,20.79,43.95,35.12,44.16,16.68.24,18.89-38.06,19.14-44.16h-54.26Z"/>
        </g>
        <g>
          <path class="cls-1" d="M185.76-3.14h30.3s.09.06.13.09c7.29,5.63,7.81,21.74,7.81,21.74l1.04-17.71c.09-1.46.49-2.83,1.17-4.12h46.27c-3.06,19.45-12.22,47.71-39.62,48.94-39.64,1.77-46.46-43.92-47.09-48.94Z"/>
          <path class="cls-11" d="M230.63,46.23c-37.88,0-44.58-44.19-45.23-49.32-.01-.11.02-.21.09-.3.07-.08.17-.13.27-.13h30.3c.08,0,.15.02.21.07l.04.03s.08.05.11.08c4.87,3.76,6.77,11.95,7.5,17.22l.76-12.92c.09-1.47.5-2.91,1.21-4.27.06-.12.19-.2.32-.2h46.27c.11,0,.21.05.28.13.07.08.1.2.08.3-2.01,12.77-5.62,23.35-10.74,31.45-7.12,11.27-16.95,17.26-29.23,17.81-.76.03-1.51.05-2.24.05ZM186.18-2.76c.91,6.68,8.08,48.24,44.46,48.24.72,0,1.45-.02,2.2-.05,26.14-1.17,35.76-26.75,39.21-48.19h-45.62c-.6,1.21-.94,2.48-1.02,3.76l-1.04,17.71c-.01.2-.17.35-.36.35h0c-.19,0-.35-.16-.36-.36,0-.16-.6-15.99-7.67-21.45,0,0-.01-.01-.02-.02h-29.77Z"/>
        </g>
        <g>
          <path class="cls-1" d="M260.62,365.4h-55.2c.16-4.69,2.11-45.17,19.52-44.91,14.85.22,30.21,32.3,35.68,44.91Z"/>
          <path class="cls-11" d="M260.62,365.77h-55.2c-.1,0-.19-.04-.26-.11s-.11-.17-.1-.27c.16-4.65,2.1-45.27,19.72-45.27.06,0,.11,0,.17,0,14.94.22,30.16,31.63,36.01,45.13.05.12.04.25-.03.36s-.18.17-.31.17ZM205.8,365.02h54.26c-5.95-13.64-20.79-43.95-35.12-44.16-.05,0-.11,0-.16,0-16.53,0-18.73,38.08-18.98,44.16Z"/>
        </g>
        <g>
          <path class="cls-1" d="M205.35,365.4h-30.3s-.09-.06-.13-.09c-7.29-5.63-7.81-21.74-7.81-21.74l-1.04,17.71c-.09,1.46-.49,2.83-1.17,4.12h-46.27c3.06-19.45,12.22-47.71,39.62-48.94,39.64-1.77,46.46,43.92,47.09,48.94Z"/>
          <path class="cls-11" d="M205.35,365.77h-30.3c-.08,0-.15-.02-.21-.07l-.04-.03s-.07-.05-.11-.08c-4.87-3.76-6.77-11.95-7.5-17.22l-.76,12.92c-.09,1.47-.5,2.91-1.21,4.27-.06.12-.19.2-.32.2h-46.27c-.11,0-.21-.05-.28-.13-.07-.08-.1-.2-.08-.3,2.01-12.77,5.62-23.35,10.74-31.45,7.12-11.27,16.95-17.26,29.23-17.81,39.85-1.77,46.81,44.04,47.47,49.27.01.11-.02.21-.09.3-.07.08-.17.13-.27.13ZM175.17,365.02h29.77c-.93-6.81-8.35-49.92-46.66-48.19-26.14,1.17-35.76,26.75-39.21,48.19h45.62c.6-1.21.94-2.48,1.02-3.76l1.04-17.71c.01-.2.17-.35.36-.35h0c.19,0,.35.16.36.36,0,.16.6,15.99,7.67,21.45,0,0,.01.01.02.02Z"/>
        </g>
        <g>
          <path class="cls-1" d="M-10.31,335.13c48.93,26.93,81.44,35.83,93.45,17.55,9.89-15.05-17.18-50.22-38.7-53.53-12.32-1.89-27.01,4.51-24.47,14.15,4.16,15.77,23.71,11.26,28.1,4.52,15.13-23.27-40.8-81.18-65.76-74.72-6.55,1.69-8.5,6.19-8.42,12.78.22,18.44,38.22,47.73,46.16,33.64,7.43-13.18-30.49-33.05-48.72-22.17-8.4,5.02-7.42,12.31-7.4,12.91.42,13.14,19.61,32.81,47.82,38.77-30.55-5.64-44.62,8.16-44.07,12.49.55,4.33,14.14,4.56,36.12,1.59"/>
          <path class="cls-5" d="M62.63,362.67c-3.73,0-7.87-.48-12.44-1.44-15.07-3.17-34.92-11.59-60.67-25.77-.14-.08-.21-.23-.19-.38-14.19,1.1-21.58-.07-22.01-3.51-.18-1.38.9-3.37,2.88-5.32,5.61-5.52,17.48-10.28,34.79-8.57-24.26-7.32-41.03-24.75-41.43-37.41,0-.03,0-.07,0-.12-.18-2.48.2-8.71,7.59-13.12,1.47-.88,3.1-1.58,4.86-2.09-1.59-3.24-2.45-6.32-2.48-9.05-.09-7.52,2.59-11.57,8.7-13.15,15.89-4.11,43.45,17.16,58.25,38.83,4.45,6.51,7.63,12.91,9.25,18.58,13.65,4.89,27.57,20.04,33.15,33.13,3.47,8.14,3.67,14.93.58,19.63-4.29,6.54-11.16,9.78-20.82,9.78ZM-9.76,335c25.5,14.01,45.16,22.35,60.09,25.49,16.1,3.38,26.74.76,32.51-8.02,3.72-5.66,1.7-13.4-.64-18.91-5.45-12.79-18.95-27.56-32.24-32.55.03.13.07.27.1.4,1.67,6.73,1.11,12.32-1.68,16.61-2.51,3.86-10.28,7.32-17.41,6.11-5.74-.97-9.77-4.78-11.34-10.73-.77-2.9-.06-5.73,2.04-8.16,4.33-5.02,14.14-7.79,22.83-6.46,1.44.22,2.89.58,4.36,1.06-1.61-5.44-4.63-11.47-8.98-17.85-7.45-10.91-17.89-21.47-28.64-28.96-11.49-8.01-21.72-11.41-28.84-9.57-5.79,1.5-8.23,5.21-8.15,12.42.03,2.74.94,5.76,2.49,8.86,5.27-1.37,11.66-1.18,18.57.61,8.46,2.19,16.72,6.64,21.54,11.62,4.36,4.5,5.6,9.02,3.5,12.75-2.06,3.66-6.17,4.77-11.88,3.22-6.85-1.86-15.56-7.53-22.71-14.8-4.13-4.2-7.33-8.48-9.42-12.52-1.76.5-3.38,1.19-4.83,2.06-7.03,4.2-7.4,10.08-7.23,12.41,0,.07,0,.12,0,.15.21,6.54,5.2,14.69,13.36,21.8,9.16,7.99,21.3,13.89,34.17,16.61.2.04.32.24.28.44-.04.2-.22.33-.42.3-20.76-3.83-34.78,1.31-40.98,7.4-2.14,2.1-2.78,3.79-2.66,4.68.17,1.31,1.98,2.92,9.68,3.21,6.1.22,14.86-.43,26.03-1.93.2-.03.38.12.41.32s-.11.39-.31.42c-5.05.68-9.59,1.19-13.6,1.52ZM40,299.2c-7.17,0-14.33,2.52-17.79,6.54-1.96,2.27-2.59,4.78-1.88,7.47,1.91,7.24,6.9,9.54,10.75,10.19,6.86,1.16,14.3-2.12,16.69-5.79,2.78-4.28,3.18-10.09,1.33-16.9-1.58-.54-3.15-.94-4.71-1.18-1.44-.22-2.92-.33-4.39-.33ZM-22.91,265.41c6.08,11.49,20.65,23.84,31.57,26.79,3.74,1.01,8.69,1.34,11.07-2.87,1.92-3.4.71-7.61-3.39-11.84-4.74-4.89-12.86-9.27-21.2-11.42-6.72-1.74-12.93-1.94-18.04-.65Z"/>
        </g>
        <g>
          <path class="cls-1" d="M413.29,326.85c.69-57.16-6.6-91-27.87-93.58-17.52-2.12-35.36,38.83-28.31,60.04,4.04,12.14,16.31,22.64,23.45,15.88,11.67-11.06-1.21-26.88-9.04-27.79-27-3.13-51.17,74.68-34.12,94.55,4.47,5.21,9.24,4.93,14.89,1.82,15.79-8.68,23.54-56.93,7.75-57.71-14.78-.73-14.44,43.1,3.32,54.77,8.19,5.38,14.02,1.13,14.52.83,11.13-6.43,19.24-33.04,11.4-61.59,9.2,30.54,27.56,37.07,31.04,34.57,3.47-2.49-2.58-15.04-15.24-33.78"/>
          <path class="cls-5" d="M345.08,380.37c-2.98,0-5.56-1.38-7.95-4.17-10.85-12.65-5.21-47.65,6.65-71.16,3.57-7.07,7.61-12.92,11.75-17.01-2.06-14.74,4.58-34.45,13.29-45.58,5.42-6.92,11.17-10.23,16.65-9.56,10.54,1.28,17.9,9.98,22.48,26.59,4.21,15.25,6.08,37.28,5.71,67.36,0,.16-.11.3-.25.35,2.41,4.02,4.3,7.53,5.66,10.49,2.86,6.23,3.34,9.91,1.45,11.27-1.11.8-3.32.72-5.91-.19-7.34-2.6-16.9-11.26-23.39-27.89,4.85,25.56-2.45,48.93-13.17,55.12-.02.01-.06.03-.1.06-2.05,1.3-7.6,3.82-14.8-.91-1.43-.94-2.78-2.11-4.04-3.48-2.06,2.95-4.32,5.14-6.66,6.43-2.74,1.51-5.17,2.27-7.38,2.27ZM355.67,288.96c-3.94,3.98-7.76,9.51-11.25,16.43-5.97,11.84-10.26,26.24-11.78,39.53-1.62,14.19.17,25.13,5.02,30.79,3.96,4.61,8.28,5.13,14.44,1.74,2.35-1.29,4.53-3.51,6.48-6.36-3.6-4.19-6.38-10.12-8.02-17.27-2.01-8.75-1.97-18.35.1-25.06,1.87-6.06,5.2-9.28,9.37-9.07,4.1.2,6.95,3.45,8.24,9.39,1.55,7.13.67,17.7-2.3,27.59-1.72,5.71-3.93,10.61-6.45,14.38,1.24,1.37,2.58,2.54,4,3.47,6.85,4.5,12.09,2.13,14.02.9.06-.04.1-.06.13-.08,5.54-3.2,10.26-11.52,12.64-22.25,2.67-12.06,2.17-25.88-1.41-38.91-.05-.2.06-.4.25-.46.19-.06.39.05.45.25,6.25,20.76,17.13,31.22,25.23,34.09,2.79.99,4.54.79,5.25.29,1.05-.75,1.61-3.16-1.69-10.33-2.61-5.69-7.21-13.4-13.65-22.93-.12-.17-.07-.4.09-.52.16-.12.39-.08.51.09,2.9,4.29,5.43,8.22,7.57,11.76.34-29.79-1.52-51.61-5.69-66.72-4.49-16.29-11.65-24.81-21.86-26.05-6.58-.79-12.33,4.61-15.99,9.29-8.51,10.87-15.03,30.02-13.21,44.48.1-.09.2-.19.3-.28,5.03-4.63,10.11-6.68,15.09-6.1,4.48.52,11.03,6.04,13.27,13.12,1.81,5.7.38,11.14-4.03,15.31-2.15,2.04-4.9,2.69-7.97,1.89-6.31-1.65-13.22-9.36-16.07-17.92-.47-1.42-.83-2.91-1.09-4.47ZM359.68,320.43c-3.66,0-6.6,3.02-8.31,8.56-2.03,6.59-2.06,16.03-.08,24.66,1.6,6.95,4.27,12.72,7.74,16.81,7.11-10.85,11.03-29.86,8.56-41.21-.85-3.89-2.85-8.57-7.57-8.8-.11,0-.22,0-.33,0ZM356.31,288.33c.26,1.7.64,3.32,1.15,4.85,2.77,8.35,9.46,15.84,15.56,17.44,2.86.75,5.31.17,7.3-1.71,5.36-5.08,5.04-10.71,3.83-14.53-2.16-6.81-8.41-12.11-12.66-12.61-4.96-.57-10.16,1.73-15.17,6.56Z"/>
        </g>
      </g>
    </g>
    <g>
      <path class="cls-3" d="M82.56,255.75l.07,48.75c0,.25.21.44.46.44l197.33-16.55c.25,0,.46-.2.47-.44l.82-39c0-.26-.21-.47-.48-.45l-198.23,6.79c-.25.02-.44.22-.44.46Z"/>
      <path class="cls-2" d="M191,45.74l-14.11,41.82c-.07.22.04.46.26.54l138.15,50.24c.21.08.45-.03.53-.25l17.12-47.16c.09-.23-.04-.49-.27-.56l-141.17-44.9c-.21-.06-.44.06-.51.27Z"/>
      <path class="cls-8" d="M231.64,94.2l-39.77,18.6c-.2.09-.29.34-.2.54l53.26,136.43c.09.21,4.19-2.42,4.39-2.5l47.41-20.04c.22-.09.31-.35.21-.57l-64.78-132.27c-.1-.2-.33-.28-.53-.19Z"/>
      <path class="cls-12" d="M65.38,235.62l20.05,40.98c.13.19,8.22-5.65,8.41-5.79l116.32-87.39c.18-.14.23-.4.1-.59l-27.77-41.43c-.14-.21-.41-.25-.6-.09l-116.42,93.72c-.17.14-.21.4-.07.59Z"/>
      <g>
        <g>
          <path class="cls-1" d="M233.06,100.33l-41.09,15.25c-.21.08-.32.31-.24.53l46.52,138.01c.07.21.29.33.5.26l48.82-16.05c.22-.07.34-.33.25-.55l-54.25-137.2c-.08-.21-.31-.31-.51-.23Z"/>
          <path class="cls-10" d="M238.62,254.59c-.24,0-.47-.16-.55-.41l-46.52-138.01c-.1-.31.05-.65.35-.76l41.09-15.25c.3-.11.62.04.74.34l54.25,137.2c.06.15.06.33-.01.48-.07.15-.2.27-.35.32l-48.82,16.05c-.06.02-.12.03-.18.03ZM233.12,100.51l-41.09,15.25c-.11.04-.17.17-.13.29l46.52,138.01c.04.12.16.18.27.14l48.82-16.05c.06-.02.11-.06.13-.12.03-.06.03-.12,0-.18l-54.25-137.21c-.05-.11-.17-.17-.28-.13Z"/>
        </g>
        <g>
          <path class="cls-5" d="M232.61,129.37l2.23,6.37-20.23,7.52-2.21-6.31,3.1-.99v-.12c-1.28-.33-2.38-.86-3.33-1.59-.95-.74-1.66-1.78-2.13-3.13-.35-.99-.49-1.92-.42-2.78.06-.86.33-1.66.79-2.39.46-.73,1.11-1.39,1.95-1.98.84-.59,1.86-1.11,3.06-1.56,1.39-.51,2.61-.78,3.69-.79,1.07-.01,2,.19,2.79.59.79.41,1.46.99,2,1.74.55.75,1,1.65,1.36,2.67.26.74.42,1.45.49,2.11.06.66.03,1.29-.1,1.87-.13.59-.36,1.12-.69,1.61l7.65-2.84ZM222.3,130.23c-.24-.69-.55-1.19-.93-1.51-.38-.32-.87-.47-1.46-.46-.59.01-1.33.19-2.21.52-.85.32-1.5.66-1.94,1.03-.44.37-.7.79-.78,1.27-.07.48.01,1.06.25,1.75.25.72.56,1.25.91,1.57.35.32.81.47,1.38.46.57-.02,1.29-.19,2.15-.51.89-.33,1.56-.68,2.03-1.04.47-.37.74-.8.83-1.29.09-.5.01-1.09-.23-1.77Z"/>
          <path class="cls-5" d="M218.08,153.17l-2.25-6.43,14.3-5.31,2.25,6.43-14.3,5.31ZM232.27,144.31c-.45-1.28-.56-2.28-.35-3.02.21-.74.75-1.26,1.62-1.59.87-.32,1.61-.27,2.23.16.62.43,1.15,1.28,1.6,2.55.45,1.28.56,2.27.34,2.97-.22.71-.77,1.22-1.64,1.54-.87.32-1.61.28-2.22-.11-.61-.4-1.14-1.23-1.58-2.51Z"/>
          <path class="cls-5" d="M228.43,170.13l-3.91,1.45-5.37-15.34,3.66-1.36,7.07,3.28,1.59.96.39-.14-.73-2.09-1.48-4.23,3.91-1.45,5.17,14.77-3.63,1.35-7.02-3.23-1.67-1.02-.39.14.8,2.29,1.62,4.63Z"/>
          <path class="cls-5" d="M226.95,179.43c-.23-.65-.38-1.33-.46-2.04-.08-.71-.05-1.41.1-2.1.15-.69.44-1.31.9-1.87.45-.56,1.1-.99,1.95-1.31.89-.33,1.68-.42,2.39-.28.71.15,1.33.45,1.87.92.54.47,1,1.01,1.37,1.64.37.62.67,1.25.89,1.88.41,1.18.63,2.21.65,3.1.02.89-.14,1.67-.46,2.35l2.44-.91c.52-.19.82-.46.92-.81.1-.35.04-.82-.16-1.41-.12-.34-.27-.61-.44-.81-.17-.19-.38-.31-.62-.35-.24-.04-.55.01-.92.15l-2.11-6.03c1.16-.43,2.21-.55,3.15-.35.94.2,1.8.81,2.6,1.84.8,1.03,1.56,2.57,2.28,4.62.63,1.81.94,3.34.92,4.6-.02,1.25-.32,2.27-.91,3.05-.58.78-1.41,1.36-2.48,1.76l-4.66,1.73c-.3.11-.51.25-.64.41-.13.17-.17.38-.11.64.06.26.19.56.4.92l-4.05,1.5c-.45-.82-.79-1.7-1.02-2.64-.22-.94-.24-1.84-.05-2.69.19-.86.69-1.59,1.5-2.19l-.04-.11c-1.3-.25-2.38-.86-3.24-1.83-.86-.97-1.52-2.1-1.97-3.4ZM231.41,181.07c.29.84.59,1.4.88,1.67.3.28.66.34,1.08.18.39-.14.61-.44.68-.88.06-.44-.04-1.06-.31-1.84-.27-.76-.56-1.3-.89-1.61-.33-.31-.68-.39-1.07-.25-.41.15-.64.43-.71.84-.07.41.05,1.04.34,1.87Z"/>
          <path class="cls-5" d="M226.49,195.22l2.96-3.26,3.36,2.88,14.16-5.26,2.25,6.43-15.19,5.64-7.54-6.43ZM249.11,192.46c-.45-1.28-.56-2.28-.35-3.02.21-.74.75-1.26,1.62-1.59.87-.32,1.61-.27,2.23.16.62.43,1.15,1.28,1.6,2.55.45,1.28.56,2.27.34,2.97s-.77,1.22-1.64,1.54c-.87.32-1.61.29-2.22-.11-.61-.4-1.14-1.23-1.58-2.51Z"/>
          <path class="cls-5" d="M238.36,211.14l-2.23-6.37,14.3-5.31,2.18,6.23-3.1.99v.12c1.39.29,2.55.89,3.5,1.82.95.93,1.66,2.07,2.14,3.42.55,1.58.57,2.95.06,4.11-.51,1.16-1.38,1.97-2.6,2.42l-10.31,3.83-2.23-6.37,8.04-2.99c.63-.23,1.07-.56,1.34-.97.26-.41.23-1.08-.09-2.01-.2-.57-.44-1.03-.72-1.38-.28-.35-.6-.57-.98-.65-.37-.09-.81-.04-1.31.15l-7.98,2.97Z"/>
          <path class="cls-5" d="M244.59,229.84c-.49-1.41-.57-2.51-.23-3.29.34-.78.97-1.35,1.9-1.69.92-.34,1.76-.33,2.51.05.75.38,1.37,1.27,1.86,2.68.47,1.33.53,2.39.19,3.17-.34.78-.98,1.35-1.9,1.69-.92.34-1.76.33-2.51-.05-.75-.38-1.36-1.23-1.82-2.57ZM250.57,224.65l12.53-6.53,2.97,8.48-13.69,3.21-1.81-5.17Z"/>
        </g>
      </g>
      <g>
        <g>
          <path class="cls-1" d="M69.72,235.55l23.44,37.11c.13.2.38.25.57.12l126.49-83.05c.19-.13.25-.38.13-.58l-25.68-42.84c-.13-.21-.4-.27-.6-.12l-124.24,88.78c-.18.13-.23.39-.1.58Z"/>
          <path class="cls-10" d="M93.5,273.04c-.2,0-.39-.1-.5-.28l-23.44-37.11c-.18-.28-.11-.64.15-.84l124.24-88.78c.13-.1.3-.14.47-.1.16.03.31.14.39.28l25.68,42.84c.17.29.09.66-.19.84l-126.49,83.05c-.1.07-.21.1-.32.1ZM194.3,146.3s-.1.02-.14.05l-124.24,88.78c-.1.07-.12.22-.06.33h0s23.44,37.11,23.44,37.11c.07.11.21.14.32.07l126.49-83.05c.1-.07.14-.22.07-.33l-25.68-42.84c-.03-.06-.09-.1-.15-.11-.02,0-.03,0-.05,0Z"/>
        </g>
        <g>
          <path class="cls-5" d="M95.85,244.54l4.66,7.27-5.38,3.67-8.38-13.07,5.31-3.61,1.66,2.87.11-.04c-.05-1.47.24-2.78.87-3.92.63-1.14,1.47-2.07,2.52-2.79,1.15-.78,2.2-1.12,3.15-1.01.95.11,1.78.52,2.48,1.26l.09-.02c-.01-1.38.29-2.61.89-3.7.61-1.09,1.43-1.99,2.48-2.71,1.28-.87,2.51-1.17,3.69-.91,1.18.26,2.13.95,2.84,2.07l6.04,9.42-5.48,3.73-4.69-7.32c-.37-.57-.76-.96-1.18-1.15-.42-.19-.98-.04-1.71.45-.44.3-.77.62-.98.94-.21.33-.31.68-.29,1.07.02.38.18.8.47,1.26l4.66,7.27-5.48,3.73-4.69-7.32c-.37-.57-.76-.95-1.19-1.14s-.99-.04-1.69.44c-.43.29-.75.6-.97.93-.22.33-.32.69-.3,1.08.02.39.18.8.47,1.26Z"/>
          <path class="cls-5" d="M123.05,217.68l5.48-3.73,8.38,13.07-5.36,3.65-1.66-2.87-.11.04c.06,1.49-.25,2.81-.91,3.97-.67,1.16-1.57,2.12-2.7,2.89-1.34.92-2.63,1.25-3.85,1.02-1.22-.24-2.19-.91-2.9-2.02l-6.04-9.42,5.48-3.73,4.71,7.35c.24.37.5.66.77.87.28.21.6.3.98.26.38-.04.83-.23,1.35-.59.51-.35.89-.7,1.14-1.05.25-.35.38-.73.37-1.13,0-.4-.16-.82-.45-1.28l-4.68-7.29Z"/>
          <path class="cls-5" d="M150.45,212.67l2.29,3.57-13.2,8.99-2.14-3.34,1.43-7.85.53-1.82-.23-.35-1.79,1.22-3.64,2.48-2.29-3.57,12.71-8.65,2.13,3.32-1.4,7.79-.57,1.92.23.35,1.97-1.34,3.98-2.71Z"/>
          <path class="cls-5" d="M149.04,198.68c-1.1.75-2.02,1.1-2.76,1.06-.74-.04-1.37-.46-1.88-1.25-.51-.79-.64-1.55-.38-2.27.26-.72.93-1.45,2.03-2.2,1.1-.75,2.01-1.09,2.73-1.04.72.06,1.33.48,1.84,1.27.51.79.65,1.54.42,2.25-.23.7-.9,1.43-1.99,2.18ZM160.73,210.8l-5.53,3.77-8.38-13.07,5.53-3.77,8.38,13.07Z"/>
          <path class="cls-5" d="M169.21,205.03l-5.48,3.73-11.86-18.49,5.48-3.73,6.07,9.47.25-.17.74-6.33,5.58-3.8-1.04,7.58,10.4,4.82-6.66,4.54-6.5-3.25-.42.28,3.43,5.34Z"/>
          <path class="cls-5" d="M184.86,194.74c-.56.38-1.16.69-1.81.94s-1.32.38-2,.4c-.68.02-1.34-.14-1.97-.46-.63-.32-1.19-.87-1.69-1.65-.52-.81-.79-1.59-.82-2.33-.03-.74.11-1.44.43-2.09.31-.65.72-1.24,1.22-1.76.5-.52,1.02-.97,1.56-1.34,1.02-.69,1.94-1.15,2.77-1.38.83-.23,1.61-.26,2.32-.09l-1.43-2.23c-.3-.47-.63-.72-.98-.73-.35-.02-.78.15-1.29.5-.29.2-.51.41-.66.63-.14.22-.2.45-.18.71s.14.55.36.89l-5.19,3.53c-.68-1.06-1.04-2.09-1.07-3.07-.03-.98.34-2,1.12-3.04.78-1.04,2.06-2.16,3.83-3.37,1.56-1.06,2.93-1.73,4.12-2,1.19-.28,2.22-.21,3.09.19.87.4,1.62,1.09,2.25,2.07l2.73,4.26c.17.27.35.45.54.54.19.09.4.08.63-.04.23-.12.49-.32.77-.62l2.37,3.7c-.67.65-1.42,1.2-2.25,1.64-.83.45-1.67.67-2.53.68-.85.01-1.66-.32-2.42-.99l-.1.07c.07,1.36-.25,2.58-.96,3.68-.71,1.09-1.63,2.02-2.74,2.78ZM185.35,189.89c.72-.49,1.18-.92,1.37-1.28.19-.36.16-.74-.09-1.12-.23-.35-.56-.51-.99-.47s-.99.29-1.66.75c-.66.45-1.09.87-1.3,1.27-.21.4-.21.78.02,1.13.24.37.56.54.96.51.4-.03.97-.29,1.69-.78Z"/>
          <path class="cls-5" d="M195.32,178.56l-9.11-11.01,7.3-4.97,6.26,12.95-4.45,3.03ZM201.62,183.32c-1.21.83-2.23,1.16-3.05,1-.82-.16-1.5-.66-2.04-1.5-.54-.84-.72-1.69-.54-2.52.18-.84.88-1.67,2.09-2.5,1.15-.78,2.13-1.09,2.95-.93.82.16,1.5.66,2.04,1.5.54.84.72,1.69.54,2.52-.18.84-.84,1.65-1.99,2.43Z"/>
        </g>
      </g>
      <g>
        <g>
          <path class="cls-1" d="M210.88,57.42l-16.61,40.83c-.09.22.01.47.22.56l137.75,61.13c.21.09.45,0,.54-.22l19.94-45.97c.1-.23,0-.49-.24-.58l-141.08-55.99c-.21-.08-.44.03-.53.24Z"/>
          <path class="cls-10" d="M332.4,160.16c-.08,0-.16-.02-.23-.05l-137.75-61.13c-.3-.13-.44-.49-.32-.8l16.61-40.83c.12-.31.45-.46.76-.34l141.09,55.99c.15.06.28.18.34.34.06.16.06.34,0,.49l-19.94,45.97c-.1.23-.32.36-.55.36ZM211.26,57.34c-.09,0-.18.06-.22.15h0s-16.61,40.84-16.61,40.84c-.05.12,0,.26.12.31l137.75,61.13c.12.05.25,0,.3-.12l19.94-45.97c.03-.06.03-.13,0-.19-.03-.06-.07-.11-.14-.13l-141.09-55.99s-.05-.01-.08-.01Z"/>
        </g>
        <g>
          <path class="cls-5" d="M212.31,97.38l-6.08-2.57,7.75-19.43,5.94,2.52-1.37,3.03.1.07c1.09-.76,2.22-1.25,3.4-1.46,1.18-.21,2.42-.04,3.73.51,1.27.54,2.21,1.28,2.81,2.21.6.93.89,2.05.86,3.35-.03,1.3-.37,2.76-1.02,4.39-.56,1.4-1.2,2.52-1.91,3.34-.71.83-1.48,1.4-2.3,1.73-.82.33-1.69.45-2.6.36-.91-.09-1.85-.34-2.84-.76-.71-.3-1.33-.65-1.86-1.05-.53-.4-.96-.84-1.28-1.33-.33-.49-.55-1.02-.68-1.6l-2.67,6.68ZM218.18,89.99c.65.28,1.22.38,1.71.31.48-.07.92-.34,1.31-.81s.76-1.15,1.12-2.05c.35-.88.55-1.61.58-2.18.04-.57-.1-1.05-.4-1.43-.3-.38-.78-.71-1.44-.99-.67-.28-1.25-.4-1.72-.35-.48.05-.9.3-1.27.74-.37.45-.73,1.11-1.08,1.99-.36.9-.56,1.65-.6,2.26-.04.61.08,1.11.37,1.5.29.4.76.73,1.41,1.01Z"/>
          <path class="cls-5" d="M234.58,101.04l-6.13-2.6,5.78-14.49,6.13,2.6-5.78,14.49ZM237.74,84.26c-1.22-.52-2.02-1.1-2.4-1.76-.39-.66-.4-1.42-.05-2.3.35-.88.89-1.41,1.61-1.6.72-.19,1.69-.02,2.91.49,1.22.52,2,1.1,2.36,1.74.36.64.36,1.41.01,2.29-.35.88-.87,1.42-1.57,1.62-.7.2-1.65.04-2.87-.48Z"/>
          <path class="cls-5" d="M245.42,106.12c-2.98-1.26-4.96-2.57-5.95-3.92-.99-1.35-1.11-2.97-.35-4.86l5.48,2.32c-.26.61-.26,1.11,0,1.51.27.4.91.81,1.93,1.24.89.38,1.53.56,1.92.53.39-.02.65-.19.78-.51.11-.28.07-.52-.12-.73-.2-.2-.51-.44-.96-.72l-3.34-2.01c-1.56-.94-2.61-1.94-3.17-3-.56-1.06-.56-2.27-.02-3.63.66-1.65,1.8-2.62,3.42-2.91,1.63-.3,3.7.09,6.23,1.16,1.8.76,3.2,1.56,4.22,2.41,1.01.84,1.66,1.76,1.94,2.76.28.99.19,2.1-.27,3.3l-5.48-2.32c.23-.52.22-.95-.03-1.31-.25-.36-.78-.71-1.57-1.04-.67-.28-1.18-.42-1.53-.4-.35.02-.57.16-.68.42-.08.21-.06.4.08.59.14.19.39.4.77.62l4.17,2.49c1.32.78,2.23,1.67,2.73,2.67s.48,2.15-.04,3.46c-.46,1.16-1.16,2.01-2.08,2.53-.92.53-2.06.74-3.4.63-1.35-.11-2.9-.54-4.66-1.29Z"/>
          <path class="cls-5" d="M260.84,112.49c-.62-.26-1.21-.6-1.78-1.02s-1.05-.91-1.45-1.48c-.4-.57-.64-1.22-.74-1.94-.1-.72.03-1.51.37-2.37.36-.9.83-1.57,1.41-2.01.58-.44,1.22-.71,1.92-.81.7-.1,1.4-.08,2.1.05.7.13,1.35.33,1.95.58,1.13.48,2.01,1.01,2.66,1.59.65.58,1.11,1.22,1.38,1.93l.99-2.47c.21-.52.22-.94.04-1.25-.19-.31-.56-.58-1.12-.82-.33-.14-.62-.21-.87-.21-.26,0-.48.08-.67.24s-.36.43-.51.8l-5.75-2.44c.47-1.18,1.09-2.06,1.86-2.64.77-.58,1.8-.83,3.07-.75,1.27.08,2.89.54,4.85,1.37,1.73.73,3.03,1.53,3.92,2.38s1.42,1.77,1.58,2.74c.17.97.03,1.99-.4,3.08l-1.88,4.72c-.12.3-.16.55-.13.77s.16.38.39.51c.22.13.53.23.93.31l-1.64,4.1c-.89-.2-1.76-.54-2.58-.99-.83-.46-1.48-1.05-1.97-1.77-.49-.72-.68-1.59-.56-2.62l-.11-.05c-1.05.82-2.21,1.24-3.49,1.25s-2.53-.25-3.77-.78ZM265.01,110.19c.8.34,1.4.49,1.8.45.4-.04.68-.27.85-.7.16-.39.1-.76-.18-1.11-.28-.35-.79-.68-1.53-.99-.73-.31-1.31-.44-1.75-.4-.44.04-.74.26-.9.65-.16.41-.12.78.13,1.11.25.33.78.66,1.58,1Z"/>
          <path class="cls-5" d="M281.82,121.05l-6.08-2.57,5.78-14.49,5.94,2.52-1.37,3.03.1.07c1.13-.86,2.34-1.34,3.65-1.44,1.31-.1,2.6.12,3.89.66,1.51.64,2.51,1.54,2.99,2.71.49,1.17.49,2.37,0,3.61l-4.17,10.45-6.08-2.57,3.25-8.14c.25-.64.32-1.19.2-1.67-.12-.48-.62-.9-1.51-1.28-.55-.23-1.04-.36-1.47-.38-.44-.02-.81.08-1.13.31-.31.23-.57.59-.77,1.1l-3.23,8.09Z"/>
          <path class="cls-5" d="M291.92,131.93l-.36-4.45,4.33-.63,5.72-14.35,6.13,2.6-6.14,15.39-9.69,1.44ZM305.12,112.8c-1.22-.52-2.02-1.1-2.4-1.76s-.4-1.42-.05-2.3c.35-.88.89-1.41,1.61-1.6.72-.19,1.69-.02,2.91.49,1.22.52,2,1.1,2.36,1.74.36.64.36,1.41.01,2.29-.35.88-.87,1.42-1.57,1.62-.69.2-1.65.04-2.87-.48Z"/>
          <path class="cls-5" d="M313.51,134.97c-1.78-.75-3.25-1.63-4.4-2.63-1.15-1-1.87-2.22-2.14-3.65-.28-1.43-.01-3.16.79-5.18.55-1.37,1.18-2.43,1.9-3.2.72-.77,1.49-1.3,2.31-1.6.82-.3,1.66-.43,2.52-.41.86.03,1.7.16,2.53.4.83.24,1.6.52,2.33.82,1.93.82,3.37,1.75,4.35,2.79.97,1.05,1.49,2.29,1.55,3.73.06,1.44-.35,3.16-1.23,5.17l-10.33-4.37c-.29.84-.43,1.54-.42,2.1,0,.56.19,1.03.54,1.41.35.38.88.72,1.59,1.02.92.37,1.62.47,2.11.3.49-.16.91-.64,1.27-1.43l5.29,2.24c-.82,1.78-2.1,2.93-3.85,3.46-1.75.53-3.98.21-6.7-.97ZM317.9,123.24c-.78-.33-1.4-.42-1.85-.27-.45.15-.9.57-1.34,1.25l4.52,1.92c.22-.5.32-.92.31-1.26-.01-.34-.15-.64-.41-.9-.26-.25-.67-.5-1.23-.74Z"/>
          <path class="cls-5" d="M327.93,140.91c-1.34-.57-2.18-1.25-2.52-2.03-.33-.79-.31-1.65.06-2.58.37-.94.95-1.56,1.72-1.88.77-.32,1.83-.19,3.18.38,1.27.54,2.07,1.2,2.41,1.99.33.79.31,1.65-.06,2.58-.37.94-.95,1.56-1.72,1.88-.77.32-1.8.21-3.07-.33ZM328.21,132.86l3.72-13.95,8.09,3.43-6.88,12.61-4.93-2.09Z"/>
        </g>
      </g>
      <path class="cls-5" d="M238.14,227.35s0-.07,0-.1l.73-.05s0,.05,0,.08v.05s-.73.02-.73.02Z"/>
      <path class="cls-5" d="M290.68,231.36l.73-.04-.73.04Z"/>
      <rect class="cls-5" x="206.06" y="253.22" width=".73" height=".39" transform="translate(-7.14 5.99) rotate(-1.63)"/>
      <path class="cls-5" d="M238.14,227.35s0-.07,0-.1v-.11s0-.04,0-.04c0-.07,0-.1,0-.1l.73-.02s0,.04,0,.12c0,.02,0,.06,0,.09h0s0,.06,0,.09v.05s-.73.02-.73.02Z"/>
      <g>
        <path class="cls-6" d="M22.43,213.19l33.77,34.81c.17.18.47.12.67-.13L201.73,47.71c.2-.24.22-.58.06-.77l-26.32-28.69c-.17-.2-.49-.13-.7.14L22.46,212.44c-.19.25-.2.58-.03.75Z"/>
        <g>
          <path class="cls-1" d="M30.54,212.03l34.86,32.95c.18.17.45.14.62-.05L215.61,47.99c.17-.19.17-.48,0-.66l-27.29-27.03c-.18-.18-.48-.16-.65.06L30.51,211.38c-.16.2-.14.49.03.65Z"/>
          <path class="cls-10" d="M65.68,245.27c-.15,0-.29-.06-.4-.16l-34.86-32.95c-.24-.23-.26-.63-.05-.91L187.53,20.25c.11-.15.29-.24.47-.25.17,0,.33.05.45.18l27.29,27.02c.24.25.24.65.01.92L66.17,245.04c-.13.15-.29.23-.46.23-.01,0-.02,0-.03,0ZM30.66,211.89l34.86,32.95s.11.06.17.06c.07,0,.14-.04.2-.1L215.47,47.88c.11-.13.11-.31.01-.41l-27.29-27.02s-.11-.07-.18-.07c-.08,0-.15.05-.2.11L30.65,211.5c-.09.12-.09.29.01.39h0Z"/>
        </g>
        <g>
          <path class="cls-5" d="M69.41,218.03l-4.34,5.49-12.32-10.35,4.24-5.36,2.53,2.33.1-.08c-.49-1.42-.59-2.82-.29-4.2.29-1.38.9-2.65,1.82-3.81,1.08-1.36,2.26-2.12,3.54-2.27,1.28-.15,2.45.22,3.5,1.1l8.88,7.46-4.34,5.49-6.92-5.82c-.54-.45-1.06-.69-1.56-.72-.5-.02-1.07.37-1.7,1.17-.39.49-.66.96-.81,1.41-.15.44-.17.86-.04,1.26s.4.77.83,1.13l6.88,5.78Z"/>
          <path class="cls-5" d="M84.89,199.21c-.93,1.18-1.88,2.17-2.84,2.96-.96.79-1.96,1.33-3,1.61-1.04.28-2.14.25-3.29-.08-1.15-.34-2.37-1.05-3.66-2.13-1.29-1.08-2.19-2.18-2.71-3.3-.52-1.12-.73-2.24-.63-3.37.1-1.13.43-2.25.98-3.35.55-1.1,1.26-2.2,2.12-3.28.84-1.07,1.74-1.99,2.68-2.79.94-.79,1.94-1.35,3-1.68,1.05-.33,2.16-.35,3.32-.06,1.16.29,2.38.98,3.67,2.06,1.72,1.44,2.79,2.9,3.22,4.37.43,1.47.37,2.95-.18,4.45-.55,1.5-1.45,3.03-2.68,4.59ZM81.5,196.36c.43-.54.69-1.06.78-1.56s-.03-1.03-.35-1.59c-.33-.56-.91-1.19-1.75-1.9-.83-.7-1.53-1.14-2.09-1.33-.57-.19-1.06-.18-1.5.03-.43.21-.86.58-1.27,1.1-.42.53-.68,1.03-.8,1.52-.12.49-.03,1,.26,1.53.29.53.86,1.15,1.71,1.86.84.71,1.56,1.17,2.16,1.39s1.12.22,1.57.03c.45-.2.88-.56,1.29-1.08Z"/>
          <path class="cls-5" d="M94.34,186.51l-16.14-5.53,4.77-6.03,6.74,2.59,2.82,1.06.1-.12-1.58-2.68-3.75-6.31,3.72-4.7,8.54,15.12-5.22,6.59Z"/>
          <path class="cls-5" d="M92.94,160.55c-.87,1.1-1.68,1.75-2.44,1.95-.75.2-1.5-.01-2.25-.64-.75-.63-1.1-1.34-1.07-2.14.04-.8.49-1.75,1.36-2.85.87-1.1,1.67-1.74,2.41-1.91.73-.17,1.48.05,2.22.68.75.63,1.11,1.33,1.1,2.11-.02.78-.46,1.71-1.33,2.81ZM108.28,168.89l-4.38,5.54-12.32-10.35,4.38-5.54,12.32,10.35Z"/>
          <path class="cls-5" d="M114.2,161.41l-4.34,5.49-12.32-10.35,4.24-5.36,2.53,2.33.1-.08c-.49-1.42-.59-2.82-.29-4.2.29-1.38.9-2.65,1.82-3.81,1.08-1.36,2.26-2.12,3.54-2.27,1.28-.15,2.45.22,3.5,1.1l8.88,7.46-4.34,5.49-6.92-5.82c-.54-.45-1.06-.69-1.56-.72-.5-.02-1.07.37-1.7,1.17-.39.49-.66.96-.81,1.41s-.17.86-.04,1.26.4.77.83,1.13l6.88,5.78Z"/>
          <path class="cls-5" d="M126.97,145.76c-.44.56-.95,1.07-1.52,1.52s-1.2.81-1.88,1.04c-.68.24-1.38.3-2.11.18-.73-.12-1.46-.49-2.19-1.1-.76-.64-1.27-1.33-1.53-2.06-.26-.73-.32-1.47-.21-2.22.12-.75.34-1.47.69-2.15.34-.68.73-1.29,1.15-1.84.8-1.02,1.59-1.77,2.35-2.27.76-.49,1.53-.77,2.29-.84l-2.1-1.77c-.45-.37-.85-.51-1.2-.42-.36.1-.73.4-1.14.91-.23.29-.39.57-.46.84s-.07.52.03.76c.1.25.31.5.62.77l-4.11,5.19c-1-.84-1.67-1.75-2-2.72-.33-.97-.26-2.1.2-3.39s1.4-2.82,2.8-4.59c1.23-1.56,2.4-2.67,3.5-3.32,1.1-.66,2.15-.92,3.14-.8.99.12,1.95.57,2.87,1.35l4.01,3.37c.25.21.49.34.7.37.21.03.42-.05.61-.24.19-.19.39-.48.58-.86l3.49,2.93c-.47.86-1.05,1.65-1.75,2.36-.7.71-1.47,1.21-2.32,1.49-.85.29-1.75.21-2.71-.21l-.08.1c.48,1.33.53,2.66.15,3.98-.38,1.32-1.01,2.54-1.89,3.65ZM126,140.77c.57-.72.9-1.29.98-1.72s-.06-.79-.43-1.1c-.33-.28-.71-.33-1.13-.15-.42.18-.9.61-1.43,1.28-.52.66-.83,1.22-.92,1.69-.09.47.03.84.36,1.12.35.29.72.36,1.11.2.39-.16.87-.6,1.45-1.33Z"/>
          <path class="cls-5" d="M140.87,127.7l-4.34,5.49-12.32-10.35,4.24-5.36,2.53,2.33.1-.08c-.48-1.47-.67-2.77-.56-3.89.11-1.12.5-2.11,1.17-2.97.92-1.16,1.97-1.8,3.14-1.91,1.17-.11,2.32.31,3.45,1.26l3.34,2.81-3.82,4.82-1.6-1.34c-.56-.47-1.04-.68-1.44-.64-.4.04-.83.35-1.29.92-.31.39-.5.76-.56,1.11s.01.69.22,1.05c.21.35.55.73,1.03,1.13l6.69,5.62Z"/>
          <path class="cls-5" d="M154.04,111.81c-2.13,2.69-4,4.34-5.61,4.95-1.61.61-3.22.24-4.83-1.11l3.91-4.95c.51.46,1,.61,1.47.46.47-.15,1.06-.69,1.79-1.61.64-.8,1-1.41,1.1-1.82.1-.41.01-.73-.26-.95-.24-.2-.49-.23-.74-.09-.26.14-.58.4-.99.77l-2.96,2.84c-1.39,1.32-2.68,2.11-3.87,2.36-1.19.25-2.37-.11-3.53-1.08-1.4-1.18-2-2.65-1.79-4.42.21-1.77,1.21-3.79,3.01-6.07,1.28-1.62,2.49-2.83,3.62-3.62,1.13-.79,2.22-1.18,3.27-1.17,1.05,0,2.09.44,3.13,1.27l-3.91,4.95c-.43-.39-.86-.51-1.28-.36-.42.15-.92.59-1.49,1.31-.48.61-.76,1.09-.85,1.45-.09.36-.02.64.2.83.18.15.38.18.6.09.22-.08.5-.29.84-.61l3.68-3.54c1.16-1.13,2.3-1.8,3.41-2.01,1.12-.21,2.23.16,3.35,1.09.99.83,1.6,1.8,1.83,2.91.23,1.11.09,2.34-.42,3.7-.52,1.36-1.4,2.83-2.66,4.42Z"/>
          <path class="cls-5" d="M166.44,96.13c-1.09,1.38-2.13,2.36-3.12,2.93-.99.58-1.92.82-2.81.73s-1.7-.45-2.45-1.07l-8.33-7-2.51-4.11,3.39-4.28,10.67,8.97c.32.27.61.45.88.55.27.1.52.1.77,0,.25-.09.49-.3.74-.61.38-.48.49-.92.35-1.32-.14-.41-.6-.93-1.36-1.57l2.98-3.76c1.94,1.63,2.98,3.27,3.1,4.92.13,1.65-.64,3.52-2.3,5.62ZM150.8,96.31l-3.37-2.83,9.99-12.62,3.37,2.83-9.99,12.62Z"/>
          <path class="cls-5" d="M173.83,86.04l-16.14-5.53,4.77-6.03,6.74,2.59,2.82,1.06.1-.12-1.58-2.68-3.75-6.31,3.72-4.7,8.54,15.12-5.22,6.59Z"/>
          <path class="cls-5" d="M189.17,67.39c-.93,1.18-1.88,2.17-2.84,2.96-.96.79-1.96,1.33-3.01,1.61-1.04.28-2.14.25-3.29-.08-1.15-.34-2.37-1.05-3.66-2.13-1.29-1.08-2.19-2.18-2.71-3.3-.52-1.12-.73-2.24-.63-3.37.1-1.13.43-2.25.98-3.35.55-1.1,1.26-2.2,2.12-3.28.84-1.07,1.74-1.99,2.68-2.79.94-.79,1.94-1.35,3-1.68,1.06-.33,2.16-.35,3.32-.06,1.16.29,2.38.98,3.67,2.06,1.72,1.44,2.79,2.9,3.22,4.37.43,1.47.37,2.95-.18,4.45-.55,1.5-1.44,3.03-2.68,4.59ZM185.78,64.55c.43-.54.69-1.06.78-1.56.09-.5-.03-1.03-.35-1.59-.33-.56-.91-1.19-1.75-1.9-.83-.7-1.52-1.14-2.09-1.33-.57-.19-1.06-.18-1.5.03-.43.21-.86.58-1.27,1.1-.42.53-.68,1.03-.8,1.52-.12.49-.03,1,.26,1.53.29.53.86,1.15,1.71,1.86s1.56,1.17,2.16,1.39,1.12.22,1.57.03.88-.56,1.29-1.08Z"/>
          <path class="cls-5" d="M191.42,51.79l-12.42-8.06,5.78-7.31,10.17,10.92-3.52,4.45ZM199.16,54.52c-.96,1.21-1.87,1.87-2.74,1.98-.87.11-1.7-.18-2.49-.84-.8-.67-1.23-1.45-1.3-2.35-.07-.89.37-1.95,1.33-3.16.91-1.15,1.8-1.77,2.66-1.88.87-.11,1.7.18,2.49.84.8.67,1.23,1.45,1.3,2.34.07.9-.34,1.92-1.25,3.06Z"/>
        </g>
      </g>
      <g>
        <g>
          <path class="cls-1" d="M299.3,231.36c.99,15.36,5.49,56.15,25.3,56.04,24.4-.12,24.34-33.87,24.34-33.87l-1.78-62.53-28.56.86,1.32,46.26c.51,5.68.28,9.83.28,9.83l-.28-9.83c-1.12-12.48-5.82-32.32-24.42-31.75-19.55.59-21.78,25.49-21.59,39.8"/>
          <path class="cls-5" d="M324.53,287.78c-19.81,0-24.49-39.43-25.59-56.39-.01-.21.14-.39.34-.4.2,0,.37.14.39.35.48,7.38,1.83,21.57,5.58,33.73,4.48,14.57,10.97,21.96,19.28,21.96.02,0,.05,0,.07,0,9.95-.05,17.01-5.68,20.98-16.74,2.98-8.29,3-16.67,3-16.76l-1.77-62.14-27.83.84,1.31,45.88c.51,5.62.28,9.82.28,9.86-.01.2-.17.35-.36.35h0c-.2,0-.35-.16-.36-.36l-.28-9.83c-1.06-11.78-5.5-31.4-23.3-31.4-.25,0-.5,0-.75.01-8.4.25-14.41,5.14-17.87,14.51-2.37,6.44-3.51,14.82-3.37,24.91,0,.21-.16.38-.36.38h0c-.2,0-.36-.16-.36-.37-.14-10.18,1.02-18.66,3.42-25.18,3.57-9.69,9.8-14.73,18.53-15,15.79-.46,21.69,13.53,23.87,25.3l-1.12-39.42c0-.21.15-.38.35-.39l28.56-.86c.09,0,.19.03.26.1.07.07.11.16.11.26l1.78,62.53c0,.1-.02,8.61-3.04,17.03-4.03,11.22-11.52,17.17-21.66,17.23-.03,0-.05,0-.08,0Z"/>
        </g>
        <g>
          <path class="cls-13" d="M318.62,191.22l10.96-29.71c.87-2.35,4.05-2.44,5.04-.15l12.55,28.99-28.55.86Z"/>
          <path class="cls-14" d="M318.62,191.6c-.12,0-.23-.06-.3-.16-.07-.1-.09-.23-.04-.35l10.96-29.71c.45-1.23,1.53-2.02,2.8-2.05,1.29-.03,2.39.69,2.91,1.89l12.55,28.99c.05.11.04.25-.02.35-.06.11-.18.17-.3.18l-28.55.86h-.01ZM332.13,160.08s-.05,0-.07,0c-.98.03-1.8.63-2.14,1.57l-10.76,29.19,27.46-.83-12.33-28.48c-.39-.9-1.21-1.44-2.15-1.44Z"/>
          <g class="cls-16">
            <ellipse class="cls-5" cx="322.45" cy="193.12" rx="10.91" ry="11.24"/>
            <ellipse class="cls-5" cx="343.73" cy="192.66" rx="10.91" ry="11.24"/>
            <ellipse class="cls-5" cx="332.15" cy="162.68" rx="4.62" ry="4.76"/>
          </g>
        </g>
        <g>
          <polyline class="cls-1" points="273.91 246.17 273.91 331.99 299.3 331.82 299.3 231.33"/>
          <path class="cls-5" d="M273.91,332.37c-.1,0-.19-.04-.26-.11-.07-.07-.11-.17-.11-.27v-85.82c0-.21.16-.38.36-.38s.36.17.36.38v85.44l24.66-.17v-100.11c0-.21.16-.38.36-.38s.36.17.36.38v100.49c0,.21-.16.37-.36.38l-25.39.18h0Z"/>
        </g>
        <path class="cls-5" d="M299.3,313.24h-25.39c-.2,0-.36-.17-.36-.38s.16-.38.36-.38h25.39c.2,0,.36.17.36.38s-.16.38-.36.38Z"/>
        <path class="cls-5" d="M279.01,332c-.2,0-.36-.17-.36-.38v-18.75c0-.21.16-.38.36-.38s.36.17.36.38v18.75c0,.21-.16.38-.36.38Z"/>
        <path class="cls-5" d="M287,332c-.2,0-.36-.17-.36-.38v-18.75c0-.21.16-.38.36-.38s.36.17.36.38v18.75c0,.21-.16.38-.36.38Z"/>
        <path class="cls-5" d="M296.13,332c-.2,0-.36-.17-.36-.38v-18.75c0-.21.16-.38.36-.38s.36.17.36.38v18.75c0,.21-.16.38-.36.38Z"/>
      </g>
      <g>
        <g>
          <path class="cls-1" d="M92.63,259.54l-.03,48.75c0,.25.2.44.46.44l197.37-16.12c.25,0,.46-.2.47-.44l.9-38.99c.01-.26-.21-.47-.48-.45l-198.24,6.37c-.25.02-.44.22-.44.46Z"/>
          <path class="cls-10" d="M93.06,308.91c-.18,0-.35-.07-.47-.19-.11-.12-.18-.27-.18-.44l.03-48.75c0-.34.27-.62.62-.65l198.25-6.37c.18,0,.36.06.49.19.12.12.19.29.18.46l-.9,38.99c-.01.35-.3.62-.65.63l-197.35,16.12s0,0-.01,0ZM92.81,259.54l-.03,48.75c0,.06.02.12.07.17.05.05.12.08.2.08l197.35-16.12c.17,0,.3-.12.3-.26l.9-38.99c0-.07-.02-.13-.07-.18-.06-.06-.14-.09-.22-.08l-198.25,6.37c-.15,0-.27.13-.27.27h0Z"/>
        </g>
        <g>
          <path class="cls-5" d="M110.43,293.56l-6.86.41-1.3-23.14,6.86-.41.66,11.85.31-.02,3.9-5.32,6.98-.42-4.8,6.3,6.95,9.99-8.33.5-4.22-6.46-.52.03.37,6.69Z"/>
          <path class="cls-5" d="M133.15,292.69c-1.48.09-2.82.04-4.04-.16-1.21-.19-2.28-.59-3.18-1.19-.91-.6-1.63-1.46-2.16-2.56-.54-1.1-.85-2.51-.95-4.22-.1-1.71.08-3.14.53-4.29.45-1.15,1.11-2.07,1.99-2.76.88-.69,1.9-1.19,3.06-1.52s2.42-.53,3.78-.61c1.33-.08,2.6-.03,3.8.16,1.2.18,2.28.56,3.23,1.14.95.58,1.71,1.41,2.28,2.49.57,1.08.91,2.47,1.01,4.19.13,2.28-.19,4.08-.95,5.4s-1.86,2.27-3.31,2.87c-1.45.6-3.15.95-5.09,1.07ZM132.9,288.18c.68-.04,1.22-.19,1.64-.46.42-.27.72-.72.9-1.34.18-.63.24-1.5.18-2.62-.06-1.1-.22-1.93-.46-2.48s-.59-.93-1.03-1.12c-.44-.19-.99-.26-1.65-.22-.66.04-1.2.18-1.63.41-.43.24-.73.65-.92,1.23-.18.58-.24,1.43-.18,2.55s.22,1.98.47,2.58c.25.6.6,1,1.04,1.21.44.21.99.29,1.65.25Z"/>
          <path class="cls-5" d="M157.17,267.57l6.86-.41,1.3,23.14-6.8.4-.04-3.5-.12-.02c-.69,1.21-1.54,2.19-2.53,2.95-1,.76-2.22,1.18-3.68,1.27-1.07.06-2.01-.07-2.83-.39-.82-.32-1.52-.83-2.09-1.53-.57-.7-1.02-1.57-1.35-2.61-.33-1.04-.53-2.25-.6-3.62-.09-1.58.02-2.93.33-4.04s.78-2.01,1.41-2.71c.63-.69,1.39-1.21,2.29-1.55.9-.34,1.9-.54,3.01-.61.8-.05,1.53,0,2.2.12.67.13,1.26.35,1.8.66.53.31.99.7,1.36,1.19l-.49-8.75ZM154.94,278.48c-.74.04-1.32.22-1.75.52-.43.3-.72.76-.88,1.37-.16.61-.21,1.43-.16,2.44.05.97.2,1.74.42,2.31.23.57.56.96,1.01,1.18.44.22,1.04.3,1.77.26.78-.05,1.38-.2,1.79-.47.42-.27.7-.7.85-1.29.15-.59.2-1.38.14-2.38-.06-1.01-.19-1.82-.41-2.41-.22-.59-.56-1.01-1.01-1.24-.46-.24-1.05-.33-1.79-.29Z"/>
          <path class="cls-5" d="M171.6,272.37c-1.37.08-2.39-.1-3.04-.53-.65-.44-1.01-1.15-1.06-2.15-.06-.99.22-1.75.81-2.26.6-.51,1.58-.81,2.96-.89,1.37-.08,2.37.1,2.99.54.62.44.96,1.16,1.02,2.15.06.99-.2,1.75-.77,2.26-.57.51-1.54.81-2.91.89ZM176,289.66l-6.92.41-.92-16.35,6.92-.41.92,16.35Z"/>
          <path class="cls-5" d="M186.58,289.03l-6.86.41-.92-16.35,6.7-.4.04,3.5.12.02c.73-1.36,1.53-2.38,2.41-3.05.88-.68,1.85-1.05,2.92-1.11,1.46-.09,2.62.28,3.49,1.1.87.82,1.35,1.98,1.43,3.48l.25,4.44-6.03.36-.12-2.12c-.04-.74-.21-1.25-.52-1.53-.3-.28-.81-.4-1.53-.35-.49.03-.88.14-1.17.32-.29.19-.49.48-.6.88s-.15.91-.11,1.55l.5,8.87Z"/>
          <path class="cls-5" d="M204.5,288.28c-.7.04-1.4,0-2.12-.13-.72-.13-1.39-.37-2.02-.72-.63-.35-1.14-.85-1.55-1.48-.41-.63-.64-1.44-.69-2.41-.06-1.01.09-1.87.44-2.55.35-.69.84-1.24,1.45-1.66.61-.42,1.28-.73,2-.93.72-.2,1.42-.32,2.09-.36,1.27-.08,2.34,0,3.21.25.87.25,1.58.64,2.15,1.18l-.16-2.79c-.03-.59-.21-.99-.51-1.19-.31-.2-.78-.29-1.42-.25-.37.02-.67.09-.91.21-.24.12-.42.3-.53.54-.11.24-.15.57-.13.99l-6.49.39c-.07-1.33.12-2.45.6-3.36.47-.91,1.33-1.62,2.56-2.14,1.24-.52,2.96-.84,5.18-.98,1.95-.12,3.53.02,4.74.42,1.21.39,2.11,1.01,2.7,1.84.58.83.91,1.87.98,3.09l.3,5.32c.02.34.09.6.21.78.12.18.32.28.59.3.27.02.6-.03,1.01-.14l.26,4.63c-.93.22-1.89.31-2.87.27-.98-.05-1.86-.3-2.63-.75-.78-.45-1.34-1.19-1.68-2.21h-.12c-.63,1.27-1.54,2.21-2.74,2.81-1.2.6-2.5.94-3.89,1.03ZM207.41,284.16c.9-.05,1.53-.19,1.89-.41.36-.22.52-.58.5-1.06-.02-.44-.24-.76-.66-.96-.41-.2-1.04-.27-1.88-.22-.82.05-1.43.2-1.83.44-.4.25-.58.59-.56,1.03.03.46.23.79.61.98.38.19,1.02.26,1.92.2Z"/>
          <path class="cls-5" d="M228.04,286.56l-6.86.41-.92-16.35,6.7-.4.04,3.5.12.02c.69-1.33,1.62-2.35,2.81-3.06,1.18-.71,2.5-1.1,3.96-1.19,1.7-.1,3.04.29,4.01,1.16.97.88,1.5,2.01,1.58,3.4l.66,11.79-6.86.41-.52-9.19c-.04-.72-.22-1.27-.54-1.67-.32-.39-.98-.56-1.99-.5-.62.04-1.13.15-1.56.33-.42.18-.73.46-.93.82-.2.36-.28.83-.25,1.4l.51,9.13Z"/>
          <path class="cls-5" d="M242.33,292.1l-2.29-4.03,3.8-2.61-.91-16.2,6.92-.41.97,17.37-8.5,5.88ZM246.37,267.92c-1.37.08-2.39-.1-3.04-.53-.65-.44-1.01-1.15-1.06-2.15-.06-.99.22-1.75.81-2.26.6-.51,1.58-.81,2.96-.89,1.37-.08,2.37.1,2.99.54.62.44.96,1.16,1.02,2.15.06.99-.2,1.75-.77,2.26-.57.51-1.54.81-2.91.89Z"/>
          <path class="cls-5" d="M264.02,284.9c-2.01.12-3.78-.02-5.3-.43-1.53-.41-2.73-1.22-3.62-2.44-.89-1.22-1.4-2.97-1.53-5.25-.09-1.54.04-2.84.38-3.9.34-1.06.83-1.92,1.48-2.58.64-.66,1.37-1.18,2.2-1.56.82-.38,1.68-.65,2.56-.8.89-.16,1.74-.26,2.56-.31,2.17-.13,3.95.07,5.33.61,1.38.53,2.41,1.46,3.1,2.79.69,1.33,1.06,3.14,1.11,5.45l-11.66.69c.09.93.27,1.65.52,2.18.26.52.63.88,1.12,1.08.49.19,1.14.27,1.94.22,1.02-.08,1.73-.31,2.12-.7.39-.38.58-1.03.57-1.94l5.97-.35c.01,2.06-.69,3.74-2.11,5.05-1.42,1.31-3.67,2.05-6.74,2.21ZM263,271.79c-.88.05-1.5.25-1.86.6-.36.35-.6.95-.72,1.81l5.11-.3c-.01-.57-.1-1.02-.26-1.34-.16-.32-.42-.54-.78-.65-.36-.12-.85-.16-1.49-.12Z"/>
          <path class="cls-5" d="M276.94,276.05l-2.62-14.89,9.13-.54-.94,15.1-5.57.33ZM280.22,283.78c-1.52.09-2.61-.16-3.27-.74-.66-.59-1.02-1.41-1.08-2.46-.06-1.06.21-1.91.8-2.58.59-.66,1.64-1.04,3.16-1.13,1.43-.09,2.48.17,3.14.75.66.59,1.02,1.41,1.08,2.46.06,1.06-.21,1.91-.8,2.58-.59.66-1.6,1.03-3.04,1.12Z"/>
        </g>
      </g>
    </g>
  </g>
  <rect class="cls-4" x="30.19" y="48.62" width="310.14" height="311.21"/>
</svg>