<svg xmlns="http://www.w3.org/2000/svg" width="688" height="462" viewBox="0 0 688 462" fill="none">
    <g clip-path="url(#clip0_7451_13995)">
        <g clip-path="url(#clip1_7451_13995)">
            <path d="M501.32 441.852C501.874 450.358 459.731 456.552 407.25 459.534C354.769 462.506 311.835 461.155 311.269 452.649C310.903 446.925 329.832 440.831 358.25 436.558L363.455 435.807L370.748 434.026C370.748 434.026 367.302 433.816 363.844 431.094C361.212 429.023 360.162 419.646 359.808 415.323V415.273L366.759 158.965L366.618 181.801C366.618 181.801 366.865 178.499 368.305 166.761C369.674 155.613 412.938 105.438 417.352 100.345C417.553 100.114 417.683 99.9743 417.706 99.9343L390.339 113.494L390.256 113.534C383.328 116.856 375.74 120.469 367.703 124.241C315.611 148.738 244.555 180.21 211.546 186.194C169.521 193.809 190.126 165.39 205.492 148.918C229.897 122.76 258.752 99.9142 288.987 78.6995C327.448 51.7108 373.639 23.221 419.429 5.90899C544.077 -41.2237 463.638 345.795 444.437 431.514C473.964 432.475 500.942 436.058 501.32 441.852Z" fill="#FF463F"/>
            <path d="M361.826 461.956C339.84 461.956 318.409 460.635 312.107 455.911C310.844 454.961 310.171 453.89 310.089 452.709C309.522 443.843 343.44 437.769 358.038 435.577L363.184 434.837L366.677 433.986C365.556 433.516 364.293 432.825 363.03 431.835C360.328 429.703 359.136 421.718 358.616 415.403C358.616 415.383 358.616 415.303 358.616 415.283L365.567 158.955C365.579 158.405 366.075 157.935 366.759 157.975C367.408 157.975 367.928 158.435 367.928 158.975L367.892 163.979C373.215 150.79 403.155 115.185 413.399 103.227L390.917 114.364C382.786 118.267 375.445 121.749 368.388 125.062C368.353 125.092 368.305 125.112 368.258 125.132C315.057 150.139 244.732 181.201 211.77 187.175C198.305 189.616 190.185 188.636 186.928 184.193C180.85 175.907 195.354 158.145 204.548 148.298C226.038 125.262 252.627 102.896 288.22 77.929C336.441 44.0955 380.414 19.5585 418.946 4.99835C434.583 -0.91576 447.836 -0.335357 458.351 6.71954C487.146 26.043 495.644 93.9001 483.606 208.4C474.106 298.712 454.244 393.018 445.853 430.564C460.688 431.094 501.945 433.336 502.5 441.802C503.255 453.36 443.198 458.503 407.333 460.535C396.428 461.155 378.962 461.956 361.838 461.956H361.826ZM367.29 182.622L360.977 415.303C361.638 423.319 363.042 429.113 364.635 430.364C367.715 432.785 370.795 433.025 370.831 433.035C371.397 433.076 371.858 433.456 371.917 433.936C371.976 434.416 371.622 434.867 371.067 434.997L363.774 436.778C363.774 436.778 363.691 436.798 363.644 436.798L358.439 437.549C326.304 442.382 312.177 448.586 312.437 452.599C312.484 453.229 312.886 453.83 313.664 454.41C320.981 459.894 355.937 461.445 407.156 458.543C476.313 454.61 500.459 447.125 500.128 441.912C499.88 438.139 480.656 433.696 444.378 432.515C444.036 432.505 443.717 432.365 443.505 432.135C443.292 431.905 443.209 431.614 443.268 431.324C451.494 394.609 471.651 299.373 481.234 208.219C493.201 94.4304 484.999 27.1637 456.864 8.28062C447.092 1.72607 434.653 1.23573 419.89 6.81961C381.558 21.3097 337.763 45.7566 289.719 79.47C254.256 104.347 227.785 126.613 206.401 149.539C191.436 165.6 185.064 177.838 188.946 183.142C191.578 186.734 199.096 187.425 211.298 185.223C243.941 179.299 313.959 148.378 367.007 123.441C367.043 123.411 367.09 123.391 367.137 123.371C374.23 120.048 381.606 116.546 389.678 112.673L417.116 99.0837C417.565 98.8635 418.131 98.9135 418.509 99.2138C418.887 99.514 418.993 99.9943 418.769 100.385C418.745 100.435 418.639 100.565 418.462 100.765L418.297 100.955C400.677 121.289 370.559 158.065 369.474 166.881C368.058 178.449 367.798 181.851 367.786 181.881C367.763 182.191 367.574 182.462 367.29 182.632V182.622Z" fill="#070600"/>
            <path d="M390.339 114.494C389.926 114.494 389.524 114.314 389.312 113.984C388.993 113.504 389.194 112.893 389.76 112.623C398.517 108.41 407.356 104.117 416.762 99.4839C424.61 95.6113 429.177 93.3197 429.177 93.3197C429.732 93.0395 430.464 93.1896 430.794 93.6699C431.125 94.1402 430.948 94.7607 430.381 95.0409C430.381 95.0409 425.814 97.3425 417.942 101.215C408.525 105.848 399.685 110.151 390.917 114.374C390.728 114.464 390.527 114.504 390.339 114.504V114.494Z" fill="#070600"/>
            <path d="M440.625 449.107C440.542 449.107 440.471 449.107 440.389 449.087C439.751 448.977 439.338 448.446 439.468 447.906C439.48 447.846 440.932 441.792 443.28 431.324C443.398 430.784 444.012 430.424 444.661 430.524C445.298 430.624 445.723 431.154 445.605 431.695C443.256 442.182 441.805 448.236 441.793 448.296C441.675 448.766 441.191 449.097 440.637 449.097L440.625 449.107Z" fill="#070600"/>
            <path d="M366.759 159.946H366.747C366.098 159.946 365.579 159.516 365.579 158.965L366.523 124.211C366.547 123.661 367.149 123.22 367.751 123.25C368.4 123.27 368.907 123.741 368.883 124.291L368.86 124.762L367.939 158.945C367.928 159.486 367.396 159.946 366.759 159.946Z" fill="#070600"/>
            <path d="M359.206 437.409H359.171C358.522 437.399 358.003 436.938 358.026 436.378L358.628 415.293C358.64 414.753 359.171 414.312 359.808 414.312H359.832C360.481 414.323 361 414.783 360.988 415.333L360.386 436.418C360.375 436.958 359.844 437.389 359.206 437.389V437.409Z" fill="#070600"/>
            <path d="M417.706 99.9343C417.706 99.9343 417.553 100.114 417.352 100.345C412.938 105.438 369.674 155.613 368.305 166.761C366.865 178.499 366.618 181.801 366.618 181.801L366.759 158.965V158.925L366.972 125.072L367.68 124.721L390.256 113.534L390.339 113.494L417.706 99.9343Z" fill="#070600"/>
            <path d="M220.161 158.835C230.653 147.597 242.194 137.07 254.669 127.393C267.143 117.717 280.408 108.961 294.487 101.125C302.488 96.672 310.737 92.5291 319.187 88.7065C321.194 87.7959 319.412 85.2041 317.405 86.1147C302.417 92.8994 288.079 100.695 274.566 109.421C260.994 118.187 248.237 127.834 236.482 138.321C229.885 144.205 223.607 150.349 217.671 156.714C216.267 158.215 218.757 160.356 220.173 158.835H220.161Z" fill="#070600"/>
            <path d="M468.937 184.823C467.638 209.851 465.302 234.838 461.915 259.725C458.528 284.612 454.09 309.45 448.614 334.097C445.522 348.006 442.1 361.856 438.371 375.656C437.863 377.537 441.274 378.338 441.781 376.456C448.449 351.879 454.078 327.112 458.669 302.195C463.248 277.307 466.801 252.29 469.279 227.193C470.683 213.093 471.734 198.963 472.477 184.823C472.571 182.892 469.031 182.892 468.937 184.823Z" fill="#070600"/>
            <path d="M425.519 16.4964C431.833 14.1547 439.173 11.3428 446.23 12.5636C451.435 13.4643 456.875 16.7465 457.135 21.6099C457.241 23.5313 460.782 23.5413 460.676 21.6099C460.357 15.6658 454.492 11.2327 447.989 9.83175C439.669 8.0405 431.231 11.1327 423.737 13.9046C421.648 14.6751 423.454 17.2669 425.519 16.4964Z" fill="#070600"/>
            <path d="M370.748 434.026L363.455 435.807C362.015 436.008 360.599 436.208 359.206 436.408C358.888 436.458 358.569 436.508 358.25 436.558L359.655 413.112C359.655 413.112 359.702 413.952 359.808 415.273V415.323C360.162 419.646 361.212 429.023 363.844 431.094C367.302 433.816 370.748 434.026 370.748 434.026Z" fill="#070600"/>
            <path d="M441.227 445.994C441.227 445.994 441.427 442.782 450.538 438.019C459.649 433.256 478.46 434.637 478.46 434.637L444.106 431.685L441.238 445.994H441.227Z" fill="#070600"/>
            <path d="M323.4 452.019C342.011 446.885 361.106 443.072 380.473 440.631C382.715 440.351 381.759 437.459 379.528 437.739C360.174 440.18 341.079 443.993 322.456 449.127C320.297 449.717 321.217 452.619 323.4 452.019Z" fill="#070600"/>
            <path d="M376.85 434.857C379.127 434.857 379.127 431.855 376.85 431.855C374.572 431.855 374.572 434.857 376.85 434.857Z" fill="#070600"/>
            <g clip-path="url(#clip2_7451_13995)">
                <path d="M468.453 207.849C451.506 235.118 434.547 262.377 417.6 289.646C409.292 303.005 401.066 316.425 391.991 329.434C390.067 332.196 388.203 335.047 385.889 337.599C384.048 339.641 381.735 341.712 378.82 342.623C375.681 343.593 372.271 342.893 369.78 341.052C366.948 338.95 365.461 335.848 364.529 332.826C363.549 329.654 363.101 326.391 362.157 323.209C361.401 320.688 360.044 316.655 356.468 316.174C352.468 315.634 350.981 319.387 349.411 321.738C347.31 324.89 345.174 328.033 343.003 331.165C334.282 343.754 325.076 356.112 315.541 368.271C306.005 380.429 295.856 392.708 285.589 404.666C280.549 410.54 275.439 416.384 270.294 422.188C265.845 427.211 261.407 432.255 256.25 436.788C251.459 440.991 245.971 444.924 239.504 447.125C233.036 449.327 226.369 449.477 219.972 447.496C205.527 443.012 198.01 430.494 193.572 418.856C192.333 415.613 191.259 412.341 190.185 409.059C189.572 407.198 186.161 407.988 186.775 409.859C190.952 422.588 195.661 436.328 208.206 445.044C213.658 448.836 220.22 451.478 227.325 451.859C234.429 452.239 240.849 450.398 246.632 447.395C259.448 440.731 268.205 429.563 277.021 419.546C287.548 407.598 297.85 395.509 307.846 383.231C317.972 370.792 327.767 358.154 337.114 345.285C341.705 338.96 346.189 332.576 350.544 326.121C351.559 324.62 352.562 323.109 353.565 321.608C354.037 320.888 354.899 318.526 356.303 319.267C356.988 319.627 357.495 320.798 357.79 321.398C358.18 322.179 358.439 322.999 358.687 323.81C359.183 325.431 359.537 327.082 359.903 328.723C361.224 334.717 363.183 341.912 370.241 344.914C376.767 347.686 383.258 344.944 387.601 340.561C390.032 338.11 391.944 335.358 393.867 332.626C396.121 329.434 398.328 326.211 400.488 322.969C404.902 316.344 409.15 309.64 413.352 302.915C430.688 275.156 447.918 247.347 465.196 219.557C467.308 216.165 469.409 212.783 471.521 209.39C472.583 207.679 469.527 206.168 468.465 207.879L468.453 207.849Z" fill="#070600"/>
            </g>
        </g>
    </g>
    <defs>
        <clipPath id="clip0_7451_13995">
            <rect width="688" height="461" fill="white" transform="translate(0 0.955566)"/>
        </clipPath>
        <clipPath id="clip1_7451_13995">
            <rect width="317" height="461" fill="white" transform="translate(185.5 0.955566)"/>
        </clipPath>
        <clipPath id="clip2_7451_13995">
            <rect width="285.042" height="244.79" fill="white" transform="translate(186.68 207.099)"/>
        </clipPath>
    </defs>
</svg>
