<svg width="646" height="470" viewBox="0 0 646 470" fill="none" xmlns="http://www.w3.org/2000/svg">
<path d="M120.643 443.036H91.9817C91.3525 443.036 90.8446 442.528 90.8446 441.899C90.8446 441.269 91.3525 440.761 91.9817 440.761H120.643C121.272 440.761 121.78 441.269 121.78 441.899C121.78 442.528 121.272 443.036 120.643 443.036Z" fill="#070600"/>
<path d="M186.941 443.984H158.279C157.65 443.984 157.142 443.476 157.142 442.847C157.142 442.217 157.65 441.709 158.279 441.709H186.941C187.57 441.709 188.078 442.217 188.078 442.847C188.078 443.476 187.57 443.984 186.941 443.984Z" fill="#070600"/>
<path d="M577.517 443.984H548.856C548.227 443.984 547.719 443.476 547.719 442.847C547.719 442.217 548.227 441.709 548.856 441.709H577.517C578.147 441.709 578.655 442.217 578.655 442.847C578.655 443.476 578.147 443.984 577.517 443.984Z" fill="#070600"/>
<path d="M338.229 440.92H306.581C305.952 440.92 305.444 440.412 305.444 439.783C305.444 439.154 305.952 438.645 306.581 438.645H338.229C338.858 438.645 339.366 439.154 339.366 439.783C339.366 440.412 338.858 440.92 338.229 440.92Z" fill="#070600"/>
<path d="M111.759 442.862H102.299C101.669 442.862 101.161 442.354 101.161 441.724V179.335C101.161 178.705 101.669 178.197 102.299 178.197H111.759C112.388 178.197 112.896 178.705 112.896 179.335V441.724C112.896 442.354 112.388 442.862 111.759 442.862ZM103.436 440.587H110.622V180.472H103.436V440.587Z" fill="#070600"/>
<path d="M179.906 73.7906C177.814 74.003 175.76 74.0105 173.751 73.8286C170.484 73.5328 167.239 74.5717 164.859 76.8315L163.525 78.0979L140.39 52.3299L142.035 50.6009C144.081 48.4397 145.218 45.5732 145.218 42.593V42.5475C145.218 39.5142 145.65 36.587 146.446 33.8115C146.371 34.7898 146.333 35.7832 146.333 36.7842C146.333 56.1064 161.061 71.9858 179.906 73.7906Z" fill="#070600"/>
<path d="M163.525 79.2354C163.525 79.2354 163.495 79.2354 163.479 79.2354C163.169 79.2203 162.881 79.0838 162.676 78.8563L139.541 53.0883C139.147 52.6484 139.154 51.9735 139.563 51.5413L141.208 49.8123C143.058 47.8558 144.081 45.2926 144.081 42.5854C144.081 39.4762 144.506 36.4278 145.355 33.493C145.514 32.9319 146.075 32.583 146.651 32.6892C147.227 32.7954 147.629 33.3186 147.583 33.8949C147.508 34.8353 147.47 35.8059 147.47 36.7766C147.47 55.4542 161.463 70.8711 180.012 72.6531C180.596 72.7062 181.043 73.1991 181.043 73.7831C181.043 74.367 180.603 74.8599 180.02 74.9205C177.89 75.1329 175.744 75.148 173.645 74.9585C170.635 74.6855 167.724 75.6713 165.64 77.6505L164.306 78.9169C164.093 79.1141 163.813 79.2279 163.525 79.2279V79.2354ZM141.944 52.3527L163.593 76.4675L164.078 76.005C165.829 74.3442 168.043 73.2522 170.431 72.8351C158.128 68.4217 148.918 57.9871 146.098 45.141C145.628 47.4842 144.513 49.6303 142.861 51.382L141.936 52.3527H141.944Z" fill="#070600"/>
<path d="M74.6985 160.43C74.0087 160.43 73.3189 160.354 72.6442 160.21C63.5782 158.231 58.3098 153.309 56.536 145.149C55.869 142.124 56.7483 138.961 58.8935 136.702L139.579 51.5488C139.798 51.3213 140.109 51.1773 140.42 51.1924C140.738 51.1924 141.042 51.3365 141.254 51.5716L164.389 77.3396C164.798 77.7946 164.776 78.4999 164.328 78.9245L134.977 106.854C134.644 107.165 134.159 107.256 133.742 107.074C133.325 106.892 133.052 106.482 133.052 106.027C133.075 98.3605 129.664 91.5431 123.182 86.2424L99.6075 109.614C105.05 116.174 107.051 124.379 105.247 132.849C105.073 133.706 104.838 134.616 104.535 135.617C104.474 135.807 104.376 135.974 104.232 136.11L81.5966 157.647C79.694 159.451 77.2228 160.43 74.7137 160.43H74.6985ZM140.367 54.0058L60.5309 138.264C58.9087 139.978 58.2416 142.366 58.7495 144.664C60.3186 151.861 65.0184 156.213 73.1218 157.988C75.5627 158.519 78.14 157.776 80.0123 156.001L102.427 134.677C102.67 133.858 102.859 133.107 103.004 132.387C104.762 124.159 102.746 116.53 97.1894 110.312C96.7876 109.857 96.8104 109.174 97.2349 108.75L122.28 83.9219C122.682 83.52 123.326 83.4821 123.774 83.8309C130.596 89.0861 134.507 95.8428 135.197 103.494L161.941 78.0524L140.367 54.021V54.0058Z" fill="#070600"/>
<path d="M179.906 74.9281C179.906 74.9281 179.83 74.9281 179.8 74.9281C160.076 73.0399 145.196 56.6448 145.196 36.7918C145.196 35.7604 145.234 34.7291 145.317 33.7281C145.317 33.6523 145.34 33.5764 145.355 33.5006C149.35 19.6611 162.206 10 176.616 10C185.652 10 194.051 13.6172 200.259 20.1844C206.46 26.7439 209.598 35.3509 209.098 44.4054C208.234 60.0573 195.847 73.1612 180.3 74.8902L180.194 74.9054C180.133 74.913 180.065 74.9205 180.005 74.9281C179.974 74.9281 179.944 74.9281 179.914 74.9281H179.906ZM147.576 34.0163C147.508 34.9187 147.477 35.8514 147.477 36.7842C147.477 55.4163 161.41 70.818 179.906 72.6456C179.967 72.638 180.02 72.6304 180.08 72.6228C194.513 71.0227 206.028 58.8364 206.831 44.2765C207.301 35.8514 204.383 27.8511 198.614 21.7465C192.838 15.6344 185.03 12.2674 176.624 12.2674C163.26 12.2674 151.328 21.2005 147.576 34.0087V34.0163Z" fill="#070600"/>
<path d="M179.906 74.9281C179.906 74.9281 179.83 74.9281 179.8 74.9281C160.076 73.0399 145.196 56.6448 145.196 36.7918C145.196 35.7604 145.234 34.7291 145.317 33.7281C145.317 33.6523 145.34 33.5764 145.355 33.5006C149.35 19.6611 162.206 10 176.616 10C185.652 10 194.051 13.6172 200.259 20.1844C206.46 26.7439 209.598 35.3509 209.098 44.4054C208.234 60.0573 195.847 73.1612 180.3 74.8902L180.194 74.9054C180.133 74.913 180.065 74.9205 180.005 74.9281C179.974 74.9281 179.944 74.9281 179.914 74.9281H179.906ZM147.576 34.0163C147.508 34.9187 147.477 35.8514 147.477 36.7842C147.477 55.4163 161.41 70.818 179.906 72.6456C179.967 72.638 180.02 72.6304 180.08 72.6228C194.513 71.0227 206.028 58.8364 206.831 44.2765C207.301 35.8514 204.383 27.8511 198.614 21.7465C192.838 15.6344 185.03 12.2674 176.624 12.2674C163.26 12.2674 151.328 21.2005 147.576 34.0087V34.0163Z" fill="#070600"/>
<path d="M121.067 81.7834C120.764 81.7834 120.461 81.6621 120.241 81.427C119.809 80.972 119.832 80.2516 120.294 79.8193L138.502 62.719C138.957 62.2868 139.677 62.3095 140.109 62.7721C140.541 63.2271 140.519 63.9475 140.056 64.3798L121.848 81.4801C121.628 81.6848 121.348 81.791 121.067 81.791V81.7834Z" fill="#070600"/>
<path d="M66.0721 140.144C65.784 140.144 65.4884 140.031 65.2686 139.811C64.8213 139.363 64.8213 138.643 65.2686 138.203L92.391 111.07C92.8383 110.623 93.5584 110.623 93.9981 111.07C94.4453 111.518 94.4453 112.238 93.9981 112.678L66.8756 139.811C66.6558 140.031 66.3601 140.144 66.0721 140.144Z" fill="#070600"/>
<path d="M197.606 53.9072C197.295 53.9072 196.992 53.7859 196.765 53.5357C196.34 53.0731 196.371 52.3527 196.833 51.928C205.02 44.4206 200.479 33.9708 200.282 33.5309C200.024 32.9546 200.282 32.2873 200.85 32.0295C201.419 31.7716 202.094 32.0295 202.351 32.5982C202.404 32.7195 207.787 44.9741 198.372 53.6039C198.152 53.8011 197.879 53.8997 197.606 53.8997V53.9072Z" fill="#070600"/>
<path d="M197.978 27.5174C199.441 27.5174 199.441 25.2424 197.978 25.2424C196.515 25.2424 196.515 27.5174 197.978 27.5174Z" fill="#070600"/>
<path d="M121.977 179.775H92.0802C91.4511 179.775 90.9432 179.267 90.9432 178.637V146.082C90.9432 145.771 91.072 145.475 91.2995 145.256L102.427 134.662C102.67 133.843 102.859 133.092 103.004 132.372C104.762 124.144 102.746 116.515 97.1894 110.297C96.7876 109.842 96.8104 109.159 97.2349 108.734L122.28 83.9067C122.682 83.5048 123.326 83.4669 123.774 83.8157C131.346 89.6473 135.334 97.3292 135.303 106.027C135.288 113.808 130.52 123.969 123.053 132.265C123.084 132.372 123.107 132.485 123.107 132.599V178.63C123.107 179.259 122.599 179.767 121.97 179.767L121.977 179.775ZM93.2173 177.5H120.84V133.683C120.537 133.585 120.287 133.357 120.158 133.054C119.976 132.637 120.067 132.152 120.378 131.826C128.057 123.734 133.022 113.61 133.037 106.027C133.06 98.3605 129.648 91.5431 123.167 86.2348L99.5924 109.607C105.035 116.166 107.036 124.371 105.232 132.842C105.058 133.699 104.823 134.609 104.52 135.61C104.459 135.799 104.36 135.966 104.216 136.103L93.2249 146.567V177.5H93.2173Z" fill="#070600"/>
<path d="M103.11 202.82C103.11 202.82 108.348 189.898 110.44 189.201C112.532 188.503 111.137 184.484 111.137 184.484L111.66 180.116L102.299 179.335L103.102 202.82H103.11Z" fill="#070600"/>
<path d="M103.11 203.958C103.041 203.958 102.981 203.958 102.913 203.943C102.382 203.852 101.995 203.397 101.973 202.858L101.169 179.373C101.161 179.047 101.283 178.736 101.518 178.508C101.753 178.281 102.079 178.175 102.397 178.197L111.759 178.978C112.07 179.001 112.35 179.153 112.547 179.396C112.744 179.638 112.835 179.942 112.797 180.252L112.305 184.37C112.547 185.159 113.108 187.388 112.365 188.905C112.039 189.572 111.501 190.042 110.811 190.27C109.72 190.892 106.506 197.489 104.171 203.237C103.997 203.67 103.572 203.95 103.117 203.95L103.11 203.958ZM103.481 180.579L104.065 197.664C106.036 193.265 108.446 188.67 110.076 188.124C110.175 188.094 110.243 188.048 110.311 187.912C110.637 187.252 110.356 185.705 110.061 184.863C110.008 184.696 109.985 184.529 110.008 184.355L110.387 181.162L103.481 180.586V180.579Z" fill="#070600"/>
<path d="M567.701 442.862H558.241C557.612 442.862 557.104 442.354 557.104 441.724V179.335C557.104 178.705 557.612 178.197 558.241 178.197H567.701C568.33 178.197 568.838 178.705 568.838 179.335V441.724C568.838 442.354 568.33 442.862 567.701 442.862ZM559.378 440.587H566.564V180.472H559.378V440.587Z" fill="#070600"/>
<path d="M490.093 73.7906C492.186 74.003 494.24 74.0105 496.249 73.8286C499.516 73.5328 502.76 74.5717 505.14 76.8315L506.475 78.0979L529.61 52.3299L527.965 50.6009C525.918 48.4397 524.781 45.5732 524.781 42.593V42.5475C524.781 39.5142 524.349 36.587 523.553 33.8115C523.629 34.7898 523.667 35.7832 523.667 36.7842C523.667 56.1064 508.938 71.9858 490.093 73.7906Z" fill="#070600"/>
<path d="M506.475 79.2354C506.187 79.2354 505.906 79.1217 505.694 78.9245L504.36 77.6581C502.267 75.6713 499.357 74.693 496.355 74.966C494.255 75.1556 492.11 75.1405 489.98 74.9281C489.396 74.8675 488.956 74.3745 488.956 73.7906C488.956 73.2067 489.404 72.7138 489.987 72.6607C508.544 70.8862 522.53 55.4618 522.53 36.7842C522.53 35.8135 522.492 34.8429 522.416 33.9025C522.371 33.3186 522.772 32.7954 523.348 32.6968C523.932 32.5906 524.485 32.9395 524.645 33.5006C525.486 36.4429 525.918 39.4838 525.918 42.5475C525.918 45.3002 526.942 47.8634 528.791 49.8199L530.436 51.5488C530.845 51.9811 530.853 52.6484 530.459 53.0958L507.324 78.8639C507.119 79.0914 506.831 79.2279 506.52 79.243C506.505 79.243 506.49 79.243 506.475 79.243V79.2354ZM499.569 72.8351C501.957 73.2522 504.17 74.3442 505.921 76.005L506.406 76.4675L528.056 52.3527L527.139 51.382C525.479 49.6303 524.372 47.4766 523.894 45.1485C521.074 57.9871 511.864 68.4217 499.561 72.8351H499.569Z" fill="#070600"/>
<path d="M595.309 160.43C592.799 160.43 590.328 159.451 588.426 157.647L565.791 136.11C565.647 135.974 565.541 135.807 565.487 135.617C565.184 134.616 564.949 133.706 564.775 132.834C562.971 124.379 564.972 116.166 570.415 109.607L546.84 86.2348C540.359 91.5355 536.948 98.3605 536.97 106.02C536.97 106.475 536.697 106.884 536.28 107.066C535.864 107.248 535.378 107.157 535.045 106.846L505.694 78.9169C505.247 78.4923 505.224 77.787 505.633 77.332L528.768 51.564C528.981 51.3289 529.284 51.1924 529.602 51.1848C529.951 51.1697 530.224 51.3062 530.444 51.5413L611.129 136.694C613.266 138.954 614.146 142.116 613.486 145.142C611.712 153.294 606.444 158.223 597.378 160.195C596.696 160.346 596.006 160.415 595.324 160.415L595.309 160.43ZM567.572 134.669L589.987 156.001C591.859 157.776 594.437 158.526 596.878 157.988C604.989 156.221 609.688 151.861 611.25 144.672C611.75 142.374 611.083 139.985 609.469 138.271L529.633 54.0134L508.059 78.0449L534.802 103.487C535.492 95.8353 539.404 89.0785 546.226 83.8233C546.673 83.4745 547.317 83.5124 547.719 83.9143L572.765 108.742C573.197 109.167 573.212 109.857 572.81 110.304C567.254 116.522 565.245 124.159 566.996 132.372C567.14 133.1 567.33 133.85 567.572 134.669Z" fill="#070600"/>
<path d="M490.093 74.9281C490.093 74.9281 490.033 74.9281 490.003 74.9281C489.934 74.9281 489.874 74.913 489.813 74.9054H489.737C474.16 73.1688 461.781 60.0649 460.909 44.413C460.401 35.3585 463.54 26.7515 469.748 20.1919C475.956 13.6248 484.355 10.0076 493.391 10.0076C507.801 10.0076 520.657 19.6687 524.652 33.5006C524.675 33.5764 524.69 33.6523 524.69 33.7281C524.766 34.7291 524.811 35.7604 524.811 36.7918C524.811 56.6448 509.939 73.0399 490.207 74.9281C490.169 74.9281 490.139 74.9281 490.101 74.9281H490.093ZM493.383 12.275C484.977 12.275 477.169 15.642 471.393 21.7541C465.624 27.8586 462.706 35.859 463.176 44.2841C463.979 58.844 475.494 71.0303 489.957 72.6304C489.987 72.6304 490.048 72.638 490.109 72.6456C508.605 70.818 522.537 55.4163 522.537 36.7842C522.537 35.8514 522.507 34.9187 522.439 34.0163C518.687 21.2081 506.763 12.275 493.391 12.275H493.383Z" fill="#070600"/>
<path d="M490.093 74.9281C490.093 74.9281 490.033 74.9281 490.003 74.9281C489.934 74.9281 489.874 74.913 489.813 74.9054H489.737C474.16 73.1688 461.781 60.0649 460.909 44.413C460.401 35.3585 463.54 26.7515 469.748 20.1919C475.956 13.6248 484.355 10.0076 493.391 10.0076C507.801 10.0076 520.657 19.6687 524.652 33.5006C524.675 33.5764 524.69 33.6523 524.69 33.7281C524.766 34.7291 524.811 35.7604 524.811 36.7918C524.811 56.6448 509.939 73.0399 490.207 74.9281C490.169 74.9281 490.139 74.9281 490.101 74.9281H490.093ZM493.383 12.275C484.977 12.275 477.169 15.642 471.393 21.7541C465.624 27.8586 462.706 35.859 463.176 44.2841C463.979 58.844 475.494 71.0303 489.957 72.6304C489.987 72.6304 490.048 72.638 490.109 72.6456C508.605 70.818 522.537 55.4163 522.537 36.7842C522.537 35.8514 522.507 34.9187 522.439 34.0163C518.687 21.2081 506.763 12.275 493.391 12.275H493.383Z" fill="#070600"/>
<path d="M548.932 81.7834C548.652 81.7834 548.371 81.6848 548.151 81.4725L529.943 64.3722C529.488 63.9399 529.466 63.2195 529.89 62.7645C530.322 62.3095 531.042 62.2868 531.497 62.7114L549.705 79.8118C550.16 80.244 550.183 80.9644 549.758 81.4194C549.538 81.6545 549.235 81.7758 548.932 81.7758V81.7834Z" fill="#070600"/>
<path d="M603.927 140.144C603.639 140.144 603.344 140.031 603.124 139.811L576.001 112.678C575.554 112.23 575.554 111.51 576.001 111.07C576.449 110.623 577.169 110.623 577.608 111.07L604.731 138.203C605.178 138.651 605.178 139.371 604.731 139.811C604.511 140.031 604.215 140.144 603.927 140.144Z" fill="#070600"/>
<path d="M472.393 53.9072C472.12 53.9072 471.84 53.8087 471.628 53.6115C462.213 44.9741 467.587 32.7271 467.648 32.6058C467.906 32.037 468.58 31.7792 469.149 32.037C469.718 32.2949 469.975 32.9698 469.718 33.5385C469.52 33.9784 464.98 44.4281 473.167 51.9356C473.629 52.3603 473.659 53.0807 473.235 53.5432C473.007 53.7859 472.704 53.9148 472.393 53.9148V53.9072Z" fill="#070600"/>
<path d="M472.022 27.5174C473.485 27.5174 473.485 25.2424 472.022 25.2424C470.559 25.2424 470.559 27.5174 472.022 27.5174Z" fill="#070600"/>
<path d="M577.919 179.775H548.022C547.393 179.775 546.885 179.267 546.885 178.637V132.607C546.885 132.493 546.901 132.379 546.938 132.273C539.472 123.977 534.704 113.815 534.689 106.035C534.666 97.3368 538.653 89.6549 546.218 83.8233C546.666 83.4745 547.31 83.5124 547.712 83.9143L572.757 108.742C573.189 109.167 573.204 109.857 572.803 110.304C567.246 116.522 565.237 124.159 566.988 132.372C567.132 133.1 567.322 133.85 567.564 134.669L578.692 145.263C578.92 145.475 579.049 145.779 579.049 146.09V178.645C579.049 179.274 578.541 179.782 577.912 179.782L577.919 179.775ZM549.159 177.5H576.782V146.567L565.791 136.103C565.647 135.966 565.541 135.799 565.487 135.61C565.184 134.609 564.949 133.699 564.775 132.827C562.971 124.371 564.972 116.158 570.415 109.599L546.84 86.2272C540.359 91.528 536.948 98.3529 536.97 106.012C536.985 113.595 541.951 123.727 549.629 131.81C549.94 132.136 550.031 132.622 549.849 133.039C549.72 133.342 549.47 133.57 549.167 133.668V177.485L549.159 177.5Z" fill="#070600"/>
<path d="M566.897 202.82C566.897 202.82 561.659 189.898 559.567 189.201C557.475 188.503 558.87 184.484 558.87 184.484L558.347 180.116L567.709 179.335L566.905 202.82H566.897Z" fill="#070600"/>
<path d="M566.89 203.958C566.435 203.958 566.011 203.685 565.836 203.245C563.509 197.497 560.287 190.899 559.15 190.255C558.506 190.042 557.968 189.572 557.642 188.905C556.891 187.381 557.46 185.159 557.703 184.37L557.21 180.252C557.172 179.949 557.263 179.638 557.46 179.396C557.657 179.153 557.938 179.009 558.248 178.978L567.61 178.197C567.936 178.175 568.254 178.281 568.489 178.508C568.724 178.736 568.853 179.047 568.838 179.373L568.035 202.858C568.019 203.397 567.625 203.844 567.095 203.943C567.026 203.958 566.958 203.958 566.897 203.958H566.89ZM559.613 181.155L559.992 184.347C560.015 184.522 559.992 184.696 559.939 184.856C559.643 185.72 559.363 187.244 559.689 187.904C559.757 188.04 559.825 188.086 559.924 188.116C561.553 188.662 563.956 193.258 565.935 197.656L566.518 180.571L559.613 181.147V181.155Z" fill="#070600"/>
<path d="M176.23 443.529H166.769C166.14 443.529 165.632 443.021 165.632 442.392V305.741C165.632 305.111 166.14 304.603 166.769 304.603H176.23C176.859 304.603 177.367 305.111 177.367 305.741V442.392C177.367 443.021 176.859 443.529 176.23 443.529ZM167.906 441.254H175.093V306.878H167.906V441.254Z" fill="#070600"/>
<path d="M166.694 330.94C166.694 330.94 172.811 316.304 174.903 315.599C176.995 314.894 175.6 310.882 175.6 310.882L176.123 306.514L166.762 305.733L166.686 330.932L166.694 330.94Z" fill="#070600"/>
<path d="M166.694 332.077C166.618 332.077 166.542 332.077 166.466 332.055C165.935 331.949 165.549 331.478 165.556 330.94L165.632 305.741C165.632 305.422 165.769 305.119 166.004 304.907C166.239 304.694 166.549 304.588 166.868 304.611L176.23 305.392C176.54 305.415 176.821 305.566 177.018 305.809C177.215 306.052 177.306 306.355 177.268 306.666L176.775 310.784C177.018 311.572 177.579 313.802 176.836 315.318C176.51 315.986 175.972 316.456 175.282 316.683C174.16 317.366 170.491 324.851 167.762 331.38C167.58 331.812 167.163 332.077 166.716 332.077H166.694ZM167.899 306.977L167.846 325.435C170.127 320.407 172.887 315.076 174.539 314.522C174.638 314.492 174.706 314.446 174.774 314.31C175.1 313.65 174.827 312.126 174.524 311.261C174.471 311.102 174.448 310.928 174.471 310.753L174.85 307.561L167.891 306.977H167.899Z" fill="#070600"/>
<path d="M44.5439 446.024C40.6249 446.024 36.9484 445.182 33.8557 443.218C27.0485 438.888 22.6595 428.719 22.4018 416.677C22.144 404.642 26.1844 388.785 38.275 380.36C49.0846 372.83 64.9123 372.026 75.9114 378.449C83.2719 382.749 87.2819 389.483 90.1776 396.46C93.0126 379.496 91.1024 360.644 85.7734 344.855C84.1739 340.108 81.6345 333.844 78.5114 327.876C78.428 328.111 78.3371 328.339 78.2461 328.566C77.5563 330.258 71.1661 345.068 59.0375 345.629C52.0712 345.947 45.2186 342.338 42.3684 336.84C39.7911 331.88 40.3899 324.995 43.9678 318.428C47.6291 311.709 53.3295 307.045 58.4993 306.56C65.4581 305.9 72.1288 312.801 77.5336 321.567C78.0793 314.249 75.2216 305.377 69.0815 295.511C61.2662 282.945 48.5312 269.341 32.2486 256.161C31.7635 255.767 31.6877 255.046 32.0819 254.561C32.476 254.076 33.1886 253.992 33.6813 254.394C65.966 280.526 82.9914 306.946 79.3907 324.729C83.0521 331.281 86.0084 338.447 87.9186 344.127C93.1491 359.635 94.9608 377.721 92.8913 393.752C92.6109 395.914 92.2394 398.196 91.7467 400.562C92.2773 402.033 92.7852 403.489 93.2779 404.923C96.4465 414.121 99.1906 422.061 106.816 424.048C112.767 425.602 119.369 422.94 122.819 419.513C128.087 414.273 127.465 406.113 126.677 395.777L126.571 394.389C124.532 367.264 122.781 343.839 128.087 323.023C130.065 315.258 133.105 307.667 137.115 300.448C137.418 299.894 138.116 299.704 138.661 300.008C139.207 300.311 139.412 301.009 139.101 301.555C135.19 308.6 132.226 316.008 130.293 323.584C125.07 344.036 126.821 367.287 128.837 394.215L128.943 395.603C129.739 406.09 130.429 415.145 124.418 421.128C120.635 424.889 113.328 428.105 106.24 426.254C97.432 423.957 94.3695 415.077 91.1251 405.666C91.0114 405.332 90.8977 404.998 90.7764 404.665C87.7822 416.055 81.8089 428.499 70.0214 436.856C62.805 441.975 53.0946 446.016 44.5136 446.016L44.5439 446.024ZM58.9542 376.379C52.1015 376.379 45.1276 378.351 39.5712 382.226C28.2159 390.135 24.4333 405.18 24.6759 416.624C24.9184 427.915 28.8981 437.364 35.0761 441.292C44.0664 447.002 58.8253 442.035 68.7328 435.005C79.6712 427.24 86.2813 414.773 89.3741 400.646C86.4405 392.691 82.7109 385.062 74.7667 380.421C70.1352 377.714 64.5863 376.387 58.9617 376.387L58.9542 376.379ZM59.462 308.797C59.2119 308.797 58.9693 308.812 58.7192 308.835C54.3529 309.244 49.2286 313.544 45.969 319.527C42.755 325.435 42.1637 331.516 44.3847 335.801C46.8029 340.465 52.9354 343.642 58.9314 343.369C69.8319 342.868 75.8886 328.339 76.1388 327.717C76.4799 326.875 76.768 325.996 76.9878 325.093C71.9999 316.297 65.7765 308.797 59.462 308.797Z" fill="#070600"/>
<path d="M32.9005 258.633C34.0527 257.534 35.8569 255.941 36.9939 254.948C37.5624 254.455 37.5928 253.59 37.0697 253.052L18.7329 234.185C18.2477 233.692 17.467 233.654 16.9439 234.101C16.4512 234.526 16.3451 235.239 16.6862 235.792L30.8917 258.375C31.3314 259.073 32.3017 259.202 32.893 258.626L32.9005 258.633Z" fill="#070600"/>
<path d="M32.0061 260.127C31.9075 260.127 31.809 260.127 31.7028 260.112C30.9675 260.021 30.3232 259.612 29.929 258.982L15.7235 236.399C15.0867 235.383 15.2914 234.026 16.201 233.244C17.1789 232.403 18.6495 232.471 19.5516 233.396L37.8884 252.263C38.3584 252.741 38.6085 253.401 38.5782 254.068C38.5479 254.736 38.2447 255.365 37.7444 255.805C36.7286 256.692 34.8563 258.338 33.6965 259.452C33.2416 259.892 32.6428 260.127 32.0212 260.127H32.0061ZM17.7929 234.928C17.755 234.928 17.7171 234.943 17.6792 234.966C17.6186 235.019 17.6034 235.11 17.6489 235.186L31.8544 257.769C31.8923 257.83 31.9454 257.845 31.9833 257.852C32.0288 257.852 32.0743 257.845 32.1122 257.807C33.2492 256.722 34.9851 255.183 36.2435 254.091C36.2814 254.061 36.2965 254.023 36.2965 253.977C36.2965 253.947 36.2965 253.894 36.2435 253.848L17.9066 234.981C17.9066 234.981 17.8308 234.928 17.7853 234.928H17.7929Z" fill="#070600"/>
<path d="M17.7095 235.846C17.376 235.846 17.0425 235.694 16.8151 235.413L10.2429 227.057C9.8563 226.564 9.93969 225.851 10.4324 225.456C10.9251 225.07 11.6377 225.153 12.0319 225.646L18.604 234.003C18.9906 234.496 18.9072 235.209 18.4145 235.603C18.2023 235.77 17.9597 235.846 17.7095 235.846Z" fill="#070600"/>
<path d="M221.833 292.326C222.955 293.456 224.585 295.23 225.593 296.345C226.093 296.899 226.957 296.914 227.488 296.383L245.991 277.683C246.477 277.19 246.499 276.409 246.037 275.893C245.605 275.408 244.885 275.317 244.346 275.673L222.045 290.316C221.355 290.771 221.249 291.742 221.833 292.326Z" fill="#070600"/>
<path d="M226.555 297.907C226.555 297.907 226.518 297.907 226.502 297.907C225.835 297.892 225.199 297.604 224.751 297.103C223.645 295.882 222.098 294.199 221.029 293.122C220.514 292.599 220.256 291.886 220.332 291.15C220.408 290.415 220.802 289.763 221.424 289.361L243.725 274.717C244.733 274.058 246.09 274.24 246.886 275.135C247.742 276.098 247.705 277.569 246.803 278.486L228.299 297.187C227.844 297.649 227.207 297.915 226.563 297.915L226.555 297.907ZM245.067 276.591C245.067 276.591 244.998 276.598 244.976 276.621L222.674 291.264C222.614 291.302 222.598 291.355 222.598 291.393C222.598 291.446 222.606 291.484 222.644 291.522C223.751 292.629 225.32 294.343 226.442 295.579C226.472 295.617 226.51 295.632 226.563 295.632C226.631 295.632 226.646 295.625 226.692 295.579L245.195 276.879C245.256 276.818 245.264 276.712 245.195 276.644C245.165 276.606 245.112 276.591 245.067 276.591Z" fill="#070600"/>
<path d="M245.453 277.811C245.127 277.811 244.794 277.667 244.574 277.394C244.18 276.909 244.248 276.189 244.733 275.794L252.958 269.06C253.443 268.658 254.163 268.734 254.557 269.22C254.951 269.705 254.883 270.425 254.398 270.82L246.173 277.554C245.961 277.728 245.703 277.811 245.453 277.811Z" fill="#070600"/>
<path d="M597.772 324.032C599.121 323.182 601.206 321.977 602.51 321.233C603.162 320.862 603.366 320.02 602.957 319.391L588.721 297.263C588.35 296.679 587.584 296.489 586.985 296.83C586.417 297.149 586.174 297.831 586.402 298.438L595.862 323.387C596.158 324.161 597.075 324.471 597.772 324.032Z" fill="#070600"/>
<path d="M597.082 325.374C596.825 325.374 596.567 325.336 596.309 325.245C595.612 325.01 595.058 324.479 594.793 323.789L585.333 298.84C584.908 297.718 585.378 296.428 586.424 295.837C587.546 295.208 588.979 295.564 589.676 296.648L603.912 318.776C604.276 319.338 604.39 320.035 604.231 320.687C604.071 321.332 603.647 321.893 603.071 322.227C601.903 322.894 599.751 324.13 598.379 325.002C597.984 325.253 597.537 325.381 597.082 325.381V325.374ZM587.622 297.809C587.622 297.809 587.561 297.809 587.539 297.831C587.463 297.869 587.433 297.96 587.463 298.044L596.923 322.993C596.946 323.061 596.991 323.084 597.029 323.099C597.075 323.114 597.12 323.106 597.166 323.084C598.576 322.196 600.766 320.93 601.949 320.255C601.987 320.232 602.017 320.194 602.025 320.149C602.032 320.119 602.032 320.066 602.002 320.012L587.766 297.884C587.736 297.831 587.683 297.809 587.622 297.809Z" fill="#070600"/>
<path d="M587.622 298.719C587.205 298.719 586.803 298.491 586.606 298.097L581.816 288.602C581.535 288.041 581.755 287.359 582.316 287.078C582.877 286.798 583.559 287.018 583.84 287.579L588.63 297.073C588.911 297.634 588.691 298.317 588.13 298.597C587.963 298.681 587.789 298.719 587.622 298.719Z" fill="#070600"/>
<path d="M353.898 350.603C354.83 349.815 356.278 348.685 357.187 347.98C357.642 347.631 357.703 346.971 357.331 346.539L344.217 331.304C343.876 330.902 343.277 330.841 342.853 331.16C342.459 331.456 342.345 332.002 342.58 332.434L352.381 350.315C352.685 350.869 353.42 351.013 353.898 350.603Z" fill="#070600"/>
<path d="M353.261 351.976C353.132 351.976 353.003 351.961 352.867 351.938C352.23 351.817 351.692 351.43 351.381 350.861L341.579 332.98C341.072 332.062 341.322 330.887 342.163 330.25C343.058 329.567 344.339 329.704 345.074 330.553L358.188 345.796C358.567 346.235 358.757 346.827 358.696 347.411C358.635 347.987 358.34 348.526 357.877 348.882C357.066 349.511 355.565 350.679 354.625 351.468C354.239 351.794 353.754 351.976 353.253 351.976H353.261ZM344.21 333.041L353.299 349.625C354.178 348.89 355.429 347.911 356.376 347.176L344.21 333.041Z" fill="#070600"/>
<path d="M343.414 332.798C343.058 332.798 342.701 332.623 342.482 332.305L337.85 325.624C337.494 325.108 337.623 324.396 338.138 324.039C338.653 323.683 339.366 323.812 339.722 324.327L344.354 331.008C344.71 331.524 344.581 332.237 344.066 332.593C343.869 332.73 343.641 332.798 343.422 332.798H343.414Z" fill="#070600"/>
<path d="M171.727 238.401H128.481C128.064 238.401 127.677 238.174 127.48 237.802C127.283 237.43 127.298 236.983 127.533 236.634L158.006 190.391C158.219 190.073 158.575 189.883 158.954 189.883H202.207C202.624 189.883 203.011 190.111 203.208 190.482C203.405 190.854 203.39 191.301 203.155 191.65L172.674 237.893C172.462 238.212 172.106 238.401 171.727 238.401ZM130.596 236.126H171.12L200.1 192.158H159.568L130.596 236.126Z" fill="#070600"/>
<path d="M223.925 228.02L195.036 273.792L171.727 237.264L202.207 191.021L223.925 228.02Z" fill="#070600"/>
<path d="M195.036 274.93C194.65 274.93 194.286 274.733 194.081 274.407L170.772 237.878C170.529 237.499 170.537 237.013 170.779 236.642L201.26 190.399C201.472 190.073 201.836 189.876 202.238 189.891C202.632 189.898 202.988 190.111 203.185 190.452L224.903 227.451C225.115 227.815 225.108 228.277 224.88 228.634L195.992 274.407C195.787 274.733 195.423 274.937 195.036 274.937V274.93ZM173.084 237.271L195.036 271.669L222.598 227.997L202.154 193.167L173.084 237.271Z" fill="#070600"/>
<path d="M174.82 263.835C174.63 263.835 174.448 263.79 174.274 263.691L173.432 263.229C172.978 262.979 172.75 262.455 172.879 261.947C173.008 261.447 173.463 261.09 173.978 261.09H175.093C175.502 261.09 175.873 261.303 176.078 261.659C176.283 262.008 176.283 262.44 176.078 262.797L176.032 262.88C175.949 263.032 175.866 263.176 175.775 263.312C175.555 263.646 175.191 263.828 174.82 263.828V263.835Z" fill="#070600"/>
<path d="M148.357 217.365C148.16 217.365 147.962 217.312 147.781 217.206C147.242 216.887 147.06 216.19 147.379 215.651L159.394 195.305C159.712 194.767 160.409 194.585 160.948 194.903C161.486 195.222 161.668 195.92 161.349 196.458L149.335 216.804C149.122 217.16 148.743 217.365 148.357 217.365Z" fill="#070600"/>
<path d="M195.036 274.93C194.847 274.93 194.665 274.884 194.491 274.786L174.274 263.691C173.993 263.54 173.796 263.282 173.72 262.971C173.645 262.668 173.698 262.342 173.872 262.076C173.94 261.97 174.001 261.864 174.062 261.758L174.115 261.674C176.578 257.132 175.123 251.331 170.787 248.479L168.854 247.205C164.222 244.157 157.969 245.454 154.921 250.087L154.057 251.399C153.731 251.892 153.079 252.051 152.564 251.77L127.95 238.265C127.496 238.014 127.268 237.491 127.397 236.983C127.526 236.475 127.981 236.126 128.496 236.126H171.742C172.129 236.126 172.492 236.323 172.697 236.649L196.007 273.178C196.287 273.618 196.234 274.187 195.878 274.566C195.658 274.801 195.355 274.93 195.044 274.93L195.036 274.93ZM176.366 262.251L191.686 270.66L171.105 238.409H132.923L152.723 249.276L153.011 248.843C156.748 243.163 164.412 241.578 170.097 245.309L172.03 246.583C177.177 249.966 179.019 256.753 176.366 262.258V262.251Z" fill="#070600"/>
<path d="M174.82 263.835C174.63 263.835 174.448 263.79 174.274 263.691L173.432 263.229C172.978 262.979 172.75 262.455 172.879 261.947C173.008 261.447 173.463 261.09 173.978 261.09H175.093C175.502 261.09 175.873 261.303 176.078 261.659C176.283 262.008 176.283 262.44 176.078 262.797L176.032 262.88C175.949 263.032 175.866 263.176 175.775 263.312C175.555 263.646 175.191 263.828 174.82 263.828V263.835Z" fill="#070600"/>
<path d="M175.744 305.688H165.572C160.932 305.688 157.157 301.911 157.157 297.263V287.874C157.157 287.655 157.226 287.435 157.347 287.253L173.66 262.417C173.728 262.311 173.789 262.213 173.849 262.114C174.16 261.591 174.835 261.409 175.373 261.705L183.575 266.201C183.939 266.399 184.166 266.785 184.166 267.202V297.27C184.166 301.919 180.391 305.695 175.752 305.695L175.744 305.688ZM159.432 288.216V297.263C159.432 300.652 162.183 303.413 165.572 303.413H175.744C179.133 303.413 181.884 300.652 181.884 297.263V267.87L175.199 264.207L159.432 288.216Z" fill="#070600"/>
<path d="M152.624 285.577L152.238 286.252C151.578 285.493 150.813 284.75 149.986 284.053L152.624 285.577Z" fill="#070600"/>
<path d="M152.238 287.389C151.912 287.389 151.593 287.245 151.381 286.995C150.775 286.297 150.055 285.592 149.251 284.917C148.804 284.538 148.713 283.878 149.054 283.393C149.395 282.907 150.047 282.771 150.555 283.059L153.193 284.583C153.739 284.894 153.921 285.592 153.61 286.13L153.223 286.805C153.041 287.124 152.715 287.336 152.344 287.374C152.306 287.374 152.268 287.374 152.23 287.374L152.238 287.389Z" fill="#070600"/>
<path d="M175.093 262.235H173.978L174.82 262.698C174.751 262.812 174.683 262.925 174.607 263.039L154.284 293.979C155.717 291.795 154.588 288.921 152.238 286.252L152.624 285.577L149.986 284.053C144.566 279.442 136.289 276.371 133.636 280.405L153.094 250.769L153.959 249.458C157.355 244.293 164.298 242.853 169.468 246.25L171.401 247.524C176.305 250.747 177.844 257.17 175.093 262.235Z" fill="#070600"/>
<path d="M154.284 295.117C154.072 295.117 153.852 295.056 153.663 294.927C153.14 294.586 152.996 293.88 153.337 293.35C154.739 291.211 152.442 288.193 151.389 286.995C151.146 286.722 151.055 286.358 151.131 286.017L149.425 285.031C149.365 284.993 149.312 284.955 149.259 284.909C145.196 281.451 139.98 279.267 136.865 279.715C135.811 279.867 135.068 280.291 134.591 281.019C134.25 281.542 133.545 281.687 133.014 281.345C132.491 281.004 132.347 280.299 132.688 279.768L153.011 248.821C156.748 243.141 164.412 241.556 170.097 245.287L172.03 246.561C177.344 250.057 179.133 257.17 176.093 262.766C176.04 262.857 175.979 262.941 175.911 263.016C175.881 263.107 175.851 263.191 175.797 263.274C175.722 263.403 175.638 263.532 175.555 263.661L155.24 294.586C155.02 294.919 154.656 295.101 154.292 295.101L154.284 295.117ZM153.625 286.13C154.626 287.374 155.323 288.587 155.71 289.748L173.22 263.085C172.909 262.804 172.773 262.372 172.879 261.955C173.008 261.454 173.463 261.098 173.978 261.098H174.388C176.434 256.639 174.926 251.202 170.772 248.472L168.839 247.198C164.207 244.149 157.953 245.446 154.906 250.079L136.948 277.425C141.261 277.038 147 280.049 150.638 283.112L153.185 284.583C153.724 284.894 153.913 285.577 153.61 286.115L153.625 286.13Z" fill="#070600"/>
<path d="M175.093 262.235C175.002 262.395 174.918 262.546 174.82 262.698L173.978 262.235H175.093Z" fill="#070600"/>
<path d="M174.82 263.835C174.63 263.835 174.448 263.79 174.274 263.691L173.432 263.229C172.978 262.979 172.75 262.455 172.879 261.947C173.008 261.447 173.463 261.09 173.978 261.09H175.093C175.502 261.09 175.873 261.303 176.078 261.659C176.283 262.008 176.283 262.44 176.078 262.797L176.032 262.88C175.949 263.032 175.866 263.176 175.775 263.312C175.555 263.646 175.191 263.828 174.82 263.828V263.835Z" fill="#070600"/>
<path d="M152.624 285.577L152.238 286.252L142.459 303.185C141.239 305.293 138.548 306.014 136.448 304.8L135.015 303.974C132.908 302.753 132.188 300.061 133.401 297.96L143.566 280.344L149.986 284.053L152.624 285.577Z" fill="#070600"/>
<path d="M138.639 305.763C137.828 305.763 137.009 305.559 136.266 305.126L134.833 304.3C132.552 302.98 131.763 300.046 133.082 297.771L143.437 279.829L153.147 285.44L142.793 303.375C141.906 304.907 140.291 305.763 138.639 305.763ZM143.702 280.86L133.727 298.15C132.62 300.068 133.279 302.533 135.205 303.648L136.637 304.474C138.555 305.581 141.019 304.922 142.133 302.996L152.109 285.713L143.702 280.86Z" fill="#070600"/>
<path d="M148.531 297.983C145.438 297.983 141.997 296.694 139.124 294.806C136.221 292.902 133.916 290.468 132.635 287.958C131.089 284.932 131.119 282.051 132.718 279.609C133.067 279.085 133.772 278.934 134.295 279.283C134.818 279.624 134.97 280.329 134.621 280.86C133.492 282.589 133.499 284.614 134.636 286.881C136.903 291.378 143.005 295.42 147.962 295.7C150.426 295.837 152.223 295.048 153.329 293.357C153.678 292.834 154.383 292.682 154.906 293.031C155.429 293.372 155.581 294.078 155.232 294.608C153.655 297.02 151.222 297.991 148.531 297.991V297.983Z" fill="#070600"/>
<path d="M207.605 220.982C207.392 220.982 207.173 220.922 206.983 220.793C206.46 220.444 206.316 219.739 206.657 219.215L261.008 136.603C267.633 126.532 264.897 112.852 254.906 106.103C249.963 102.766 244.021 101.576 238.176 102.751C232.332 103.927 227.313 107.324 224.046 112.314L172.894 190.391C172.553 190.915 171.848 191.066 171.318 190.717C170.794 190.376 170.643 189.671 170.992 189.14L222.144 111.063C225.752 105.565 231.286 101.818 237.729 100.522C244.18 99.225 250.729 100.537 256.179 104.215C267.201 111.654 270.218 126.737 262.911 137.847L208.56 220.459C208.34 220.793 207.976 220.975 207.612 220.975L207.605 220.982Z" fill="#070600"/>
<path d="M217.186 189.595C216.974 189.595 216.754 189.534 216.565 189.405C216.042 189.064 215.89 188.359 216.239 187.828L256.862 125.713C257.203 125.19 257.915 125.039 258.438 125.387C258.961 125.729 259.113 126.434 258.764 126.965L218.141 189.079C217.921 189.413 217.558 189.595 217.186 189.595Z" fill="#070600"/>
<path d="M254.171 114.922C253.754 114.922 253.352 114.695 253.155 114.293C251.093 110.168 244.991 108.287 244.93 108.264C244.331 108.082 243.99 107.445 244.172 106.846C244.354 106.247 244.983 105.906 245.59 106.088C245.878 106.171 252.692 108.272 255.194 113.277C255.474 113.838 255.247 114.52 254.686 114.801C254.519 114.884 254.353 114.922 254.178 114.922H254.171Z" fill="#070600"/>
<path d="M89.2149 450.081C88.2067 450.081 87.2061 449.982 86.2055 449.778C71.0145 446.585 61.5618 429.993 60.3868 416.009C59.4241 404.528 64.3362 392.205 73.8798 382.203C83.901 371.708 97.3486 365.467 108.954 365.899C115.056 366.126 120.461 368.219 143.172 386.162C154.641 360.416 184.947 330.69 220.529 295.791L221.469 294.866C221.916 294.426 222.636 294.434 223.076 294.881C223.516 295.329 223.508 296.049 223.061 296.489L222.121 297.414C186.387 332.464 156.043 362.229 144.999 387.61C162.236 401.321 171.393 409.829 177.488 415.509C177.837 415.835 178.178 416.146 178.504 416.457C181.096 414.296 183.855 411.899 186.819 409.313C199.789 398.022 215.92 383.962 238.851 372.383C250.274 366.612 285.045 349.049 298.296 361.827C308.021 371.207 301.752 392.994 297.075 403.201C290.791 416.927 279.269 427.771 263.76 434.566C233.833 447.67 203.488 435.248 194.9 431.13C187.691 427.672 184.045 424.669 178.413 419.482C168.854 427.24 160.986 431.775 153.034 429.235C142.3 425.807 140.496 419.467 139.632 416.419L139.579 416.244C137.077 407.486 138.229 398.211 142.247 388.346C119.658 370.464 114.518 368.401 108.871 368.189C97.8716 367.764 85.1063 373.755 75.5248 383.796C66.4284 393.32 61.7437 404.998 62.6534 415.835C63.7601 428.999 72.5533 444.598 86.6755 447.563C93.4447 448.989 101.23 444.113 105.884 441.201C106.892 440.564 107.772 440.018 108.439 439.662C108.992 439.366 109.682 439.578 109.977 440.132C110.273 440.685 110.061 441.375 109.507 441.671C108.909 441.99 108.067 442.521 107.089 443.127C102.791 445.819 95.9689 450.096 89.2149 450.096V450.081ZM180.187 418.011C185.66 423.047 189.048 425.784 195.885 429.068C204.254 433.079 233.81 445.19 262.85 432.473C277.836 425.906 288.957 415.456 295.006 402.246C299.448 392.547 305.527 371.95 296.719 363.457C284.636 351.802 250.949 368.819 239.882 374.407C217.209 385.858 201.192 399.811 188.32 411.02C185.462 413.507 182.764 415.858 180.187 418.004V418.011ZM144.089 389.794C140.466 398.962 139.465 407.554 141.769 415.607L141.822 415.789C142.641 418.664 144.157 424.002 153.731 427.058C160.675 429.272 167.694 425.261 176.745 417.92C176.487 417.678 176.222 417.427 175.949 417.177C169.938 411.581 160.94 403.216 144.097 389.801L144.089 389.794Z" fill="#070600"/>
<path d="M335.166 456.55C323.728 456.55 313.055 451.188 305.073 443.658C299.236 443.241 293.899 442.058 289.131 441.004C272.477 437.326 256.748 433.853 250.638 420.21C247.098 412.301 247.257 401.412 251.047 392.471C254.11 385.259 259.143 380.065 265.23 377.858C272.523 375.219 283.749 376.235 290.215 383.325C295.423 389.036 294.627 395.375 293.702 402.716C292.891 409.184 291.974 416.525 295.089 425.033C297.197 430.782 301.017 436.552 306.005 441.429C311.652 441.762 317.724 441.338 324.152 439.32C344.938 432.814 356.74 414.697 364.707 399.637C366.314 396.596 367.891 392.933 369.558 389.066C370.188 387.61 370.824 386.124 371.491 384.622C366.344 362.904 353.435 347.077 345.377 338.918C344.938 338.47 344.938 337.75 345.385 337.31C345.832 336.87 346.552 336.87 346.992 337.318C354.883 345.303 367.322 360.484 372.985 381.293C378.837 368.652 386.614 356.139 400.547 356.139C400.767 356.139 400.987 356.139 401.214 356.147C408.582 356.352 416.026 359.946 421.651 366.005C429.39 374.339 432.028 385.335 434.59 395.959C437.531 408.191 440.313 419.74 450.183 427.642C461.591 436.765 478.306 427.18 487.266 420.658C502.624 409.465 515.867 395.178 525.554 379.352C534.241 365.163 544.187 344.863 530.345 332.449C513.524 317.366 505.838 305.726 506.838 296.838C507.324 292.531 509.908 289.05 514.517 286.487C518.065 284.515 522.151 284.583 526.108 284.644C530.042 284.705 534.12 284.765 537.713 282.847C542.845 280.102 546.506 275.984 547.499 271.821C548.242 268.727 547.575 265.655 545.513 262.706C544.209 260.832 542.489 259.202 540.669 257.465C537.122 254.083 533.445 250.587 533.044 245.196C531.876 229.703 552.055 217.957 563.676 215.735C568.777 214.756 573.993 214.749 579.041 214.749C586.826 214.741 594.172 214.734 601.373 211.534C613.532 206.127 622.279 195.95 624.197 184.977C625.456 177.78 623.515 171.107 618.876 166.656C618.421 166.223 618.406 165.503 618.846 165.048C619.278 164.593 619.998 164.578 620.453 165.01C625.645 169.992 627.836 177.409 626.441 185.364C624.394 197.08 615.146 207.901 602.305 213.611C594.672 217.009 586.735 217.016 579.056 217.024C574.114 217.024 569.005 217.039 564.115 217.972C551.722 220.345 534.347 232.061 535.318 245.029C535.659 249.549 538.858 252.597 542.246 255.82C544.065 257.549 545.945 259.346 547.386 261.401C549.796 264.859 550.6 268.643 549.713 272.344C548.545 277.197 544.566 281.755 538.782 284.849C534.673 287.048 530.307 286.98 526.07 286.911C522.242 286.851 518.626 286.798 515.616 288.474C511.629 290.688 509.492 293.509 509.09 297.088C508.195 305.073 515.851 316.395 531.861 330.75C546.969 344.294 536.599 365.649 527.495 380.535C517.656 396.611 504.208 411.118 488.608 422.493C479.132 429.401 461.349 439.487 448.765 429.417C438.282 421.029 435.28 408.555 432.377 396.49C429.89 386.146 427.313 375.446 419.983 367.552C414.775 361.94 407.915 358.611 401.153 358.422C387.183 358.027 379.86 371.359 373.872 384.842C374.751 388.694 375.388 392.729 375.721 396.922C376.623 408.305 378.299 429.485 363.517 444.31C360.015 447.821 350.357 456.049 336.41 456.527C335.993 456.542 335.576 456.55 335.166 456.55ZM308.613 443.81C316.216 450.263 325.972 454.608 336.334 454.259C349.471 453.812 358.59 446.032 361.91 442.71C375.956 428.628 374.334 408.123 373.462 397.104C373.227 394.132 372.833 391.242 372.31 388.444C372.09 388.952 371.871 389.46 371.658 389.961C369.975 393.881 368.384 397.574 366.731 400.699C358.559 416.146 346.423 434.74 324.842 441.497C319.126 443.286 313.722 443.878 308.62 443.81H308.613ZM273.364 378.783C270.711 378.783 268.171 379.215 266.003 379.996C260.515 381.983 255.952 386.73 253.14 393.358C249.584 401.745 249.418 411.922 252.708 419.278C258.347 431.874 273.538 435.233 289.616 438.782C293.558 439.654 297.894 440.61 302.571 441.133C298.228 436.446 294.892 431.123 292.952 425.815C289.647 416.783 290.602 409.162 291.443 402.435C292.33 395.375 293.027 389.794 288.532 384.857C284.636 380.58 278.784 378.775 273.364 378.775V378.783Z" fill="#070600"/>
<path d="M611.098 150.852L623.075 163.926C621.863 162.068 615.002 166.549 616.215 168.407L604.496 156.1L611.106 150.852H611.098Z" fill="#070600"/>
<path d="M616.208 169.545C615.904 169.545 615.609 169.423 615.381 169.188L603.662 156.881C603.442 156.653 603.329 156.335 603.351 156.016C603.374 155.698 603.526 155.402 603.776 155.205L610.386 149.957C610.856 149.586 611.53 149.639 611.932 150.079L623.674 162.894C623.833 163.031 623.947 163.175 624.023 163.296C624.349 163.789 624.235 164.456 623.765 164.813C623.295 165.177 622.628 165.116 622.226 164.684L622.166 164.616C621.84 164.563 620.741 164.813 619.353 165.715C617.959 166.625 617.292 167.535 617.208 167.854C617.466 168.331 617.352 168.938 616.913 169.287C616.708 169.454 616.458 169.53 616.208 169.53V169.545ZM606.171 156.221L615.594 166.117C616.587 164.714 618.595 163.296 620.377 162.682L610.97 152.414L606.164 156.229L606.171 156.221Z" fill="#070600"/>
<path d="M617.617 170.273C617.314 170.273 617.003 170.258 616.678 170.235C616.048 170.189 615.578 169.643 615.624 169.014C615.669 168.385 616.223 167.922 616.844 167.96C620.142 168.203 621.855 167.05 622.401 164.221C622.522 163.607 623.128 163.205 623.735 163.319C624.349 163.44 624.751 164.039 624.637 164.654C624.129 167.262 622.484 170.258 617.617 170.258V170.273Z" fill="#070600"/>
<path d="M452.973 460C433.347 460 416.883 453.569 406.482 441.823C399.228 433.625 395.794 423.653 397.068 414.478C398.735 402.412 412.721 392.478 425.676 388.899C439.305 385.138 449.978 389.195 459.393 392.782C468.527 396.262 476.419 399.265 485.507 395.269C493.588 391.72 498.788 384.387 501.979 376.675C499.296 377.463 496.499 377.881 493.543 377.865C477.01 377.782 457.703 364.617 456.422 345.856C455.792 336.59 459.749 326.314 466.761 319.034C471.749 313.862 477.616 310.988 482.847 311.163C487.312 311.307 491.761 313.658 495.718 317.965C504.049 327.035 509.332 343.43 508.574 357.846C508.355 361.933 507.521 367.294 505.785 372.807C522.848 364.716 533.567 340.927 537.281 327.164C543.05 305.809 537.554 282.87 520.945 258.982C520.574 258.444 520.248 257.981 519.998 257.61C519.649 257.086 519.786 256.381 520.309 256.032C520.824 255.683 521.537 255.82 521.885 256.343C522.136 256.707 522.446 257.162 522.81 257.685C525.842 262.046 532.142 271.108 536.69 283.385C542.352 298.681 543.292 313.605 539.472 327.755C535.507 342.429 523.743 368.121 504.784 375.704C501.487 384.531 495.756 393.252 486.425 397.354C476.479 401.722 467.792 398.408 458.59 394.913C449.054 391.28 439.199 387.534 426.282 391.098C414.048 394.48 400.858 403.702 399.319 414.796C398.136 423.32 401.373 432.617 408.188 440.321C418.141 451.575 434.007 457.733 452.973 457.733C453.443 457.733 453.905 457.733 454.375 457.725C485.826 457.224 509.082 431.934 511.629 429.053C520.263 419.285 525.501 409.23 530.133 400.35C536.659 387.83 542.292 377.008 554.951 371.283C558.074 369.873 569.141 365.8 580.625 372.603C590.525 378.472 592.132 391.584 593.694 404.27C595.24 416.897 596.847 429.955 606.52 435.771C613.236 439.806 623.538 438.062 628.579 433.967C640.169 424.571 629.655 386.783 597.333 321.65C597.052 321.089 597.279 320.407 597.848 320.126C598.409 319.846 599.091 320.073 599.372 320.642C632.687 387.784 642.708 425.428 630.011 435.733C624.265 440.397 612.978 442.308 605.345 437.72C594.717 431.335 593.05 417.716 591.427 404.543C589.866 391.849 588.395 379.852 579.458 374.551C568.921 368.303 558.749 372.049 555.883 373.346C543.937 378.753 538.471 389.24 532.142 401.389C527.457 410.383 522.151 420.574 513.327 430.547C510.712 433.504 486.826 459.469 454.405 459.985C453.928 459.992 453.443 460 452.965 460H452.973ZM482.407 313.438C477.897 313.438 472.818 316.039 468.399 320.627C461.819 327.452 458.097 337.067 458.688 345.712C459.848 362.729 478.048 375.53 493.55 375.606C493.596 375.606 493.641 375.606 493.687 375.606C496.969 375.606 500.084 375.022 503.026 373.968C505.11 368.037 506.073 362.122 506.308 357.732C507.028 344.105 501.873 328.028 494.05 319.512C490.518 315.667 486.622 313.567 482.778 313.445C482.657 313.445 482.536 313.445 482.415 313.445L482.407 313.438Z" fill="#070600"/>
<path d="M506.331 251.824C501.328 251.824 496.817 248.661 495.104 243.944C494.634 242.633 494.399 241.268 494.399 239.887C494.399 233.313 499.751 227.959 506.331 227.959C508.438 227.959 510.507 228.52 512.319 229.582C515.98 231.697 518.254 235.648 518.254 239.887C518.254 246.47 512.903 251.824 506.331 251.824ZM506.331 230.234C501.002 230.234 496.673 234.564 496.673 239.887C496.673 241.01 496.863 242.117 497.242 243.171C498.629 246.978 502.275 249.549 506.331 249.549C511.652 249.549 515.98 245.211 515.98 239.887C515.98 236.452 514.138 233.26 511.174 231.546C509.711 230.689 508.036 230.234 506.331 230.234Z" fill="#070600"/>
<path d="M448.242 145.824C433.931 145.362 425.259 154.902 419.725 169.992C416.519 168.771 413.312 167.55 410.113 166.33C417.512 147.47 428.731 135.39 446.491 134.92C447.037 138.567 447.575 142.215 448.242 145.824Z" fill="#070600"/>
<path d="M419.725 171.13C419.589 171.13 419.452 171.107 419.323 171.054L409.712 167.391C409.431 167.285 409.204 167.065 409.075 166.792C408.946 166.519 408.946 166.201 409.06 165.92C417.368 144.747 429.602 134.237 446.469 133.79C447.052 133.79 447.537 134.192 447.621 134.76L447.712 135.39C448.22 138.757 448.735 142.245 449.364 145.627C449.425 145.968 449.334 146.317 449.107 146.575C448.879 146.833 448.576 146.985 448.205 146.969C435.689 146.56 426.722 154.227 420.794 170.394C420.688 170.682 420.476 170.91 420.195 171.039C420.044 171.107 419.884 171.145 419.725 171.145V171.13ZM411.599 165.677L419.066 168.521C425.16 152.634 434.272 144.816 446.886 144.672C446.385 141.813 445.946 138.916 445.521 136.095C430.467 136.891 419.354 146.583 411.599 165.677Z" fill="#070600"/>
<path d="M410.113 167.467C409.977 167.467 409.84 167.444 409.704 167.391C407.574 166.572 405.451 165.761 403.321 164.949L401.047 164.085C400.251 163.782 399.463 163.486 398.667 163.19C393.778 161.378 388.722 159.497 384.499 155.88C376.244 148.774 371.514 138.469 371.514 127.594C371.514 107.043 388.229 90.3222 408.772 90.3222C420.142 90.3222 430.739 95.4106 437.842 104.291C441.2 108.477 443.421 112.761 444.46 117.031C445.87 122.87 446.757 128.906 447.621 134.738C447.666 135.056 447.575 135.39 447.363 135.632C447.151 135.883 446.848 136.027 446.522 136.034C430.671 136.451 419.111 146.492 411.175 166.724C411 167.171 410.568 167.444 410.113 167.444V167.467ZM408.772 92.6048C389.48 92.6048 373.788 108.302 373.788 127.602C373.788 137.809 378.23 147.493 385.985 154.158C389.904 157.51 394.543 159.232 399.463 161.059C400.259 161.355 401.062 161.651 401.858 161.962L404.132 162.826C405.914 163.501 407.688 164.183 409.469 164.866C417.55 144.922 429.246 134.753 445.18 133.835C444.384 128.443 443.527 122.9 442.246 117.577C441.291 113.633 439.214 109.644 436.068 105.724C429.398 97.3898 419.445 92.6048 408.772 92.6048Z" fill="#070600"/>
<path d="M496.173 244.695C495.885 244.695 495.604 244.589 495.385 244.377L418.922 170.849C418.702 170.637 418.573 170.349 418.573 170.038C418.573 169.878 418.603 169.719 418.664 169.583C424.971 152.391 434.666 144.247 448.28 144.687C448.621 144.694 448.947 144.861 449.152 145.134L512.933 229.604C513.282 230.067 513.229 230.719 512.804 231.114L512.524 231.379C512.152 231.728 511.599 231.788 511.167 231.531C509.704 230.674 508.036 230.226 506.331 230.226C501.002 230.226 496.673 234.556 496.673 239.88C496.673 241.002 496.863 242.109 497.242 243.163C497.416 243.664 497.234 244.217 496.787 244.498C496.597 244.619 496.385 244.68 496.173 244.68V244.695ZM421.037 169.727L494.407 240.282C494.407 240.153 494.407 240.016 494.407 239.887C494.407 233.313 499.758 227.959 506.338 227.959C507.271 227.959 508.188 228.065 509.082 228.277L447.674 146.947C435.606 146.787 426.889 154.234 421.044 169.727H421.037Z" fill="#070600"/>
<path d="M419.71 171.168C419.528 171.168 419.346 171.122 419.172 171.031C418.649 170.751 418.429 170.114 418.664 169.575C418.679 169.545 418.687 169.515 418.702 169.492C418.975 168.931 419.657 168.696 420.225 168.969C420.771 169.234 421.006 169.879 420.779 170.432C420.764 170.478 420.741 170.531 420.718 170.569C420.514 170.948 420.119 171.168 419.718 171.168H419.71Z" fill="#070600"/>
<path d="M425.623 176.855C425.486 176.855 425.35 176.832 425.221 176.779C424.637 176.559 424.334 175.9 424.561 175.316C430.747 158.936 440.056 150.981 453.086 151.087C453.715 151.087 454.223 151.603 454.216 152.232C454.216 152.862 453.723 153.339 453.071 153.362C453.01 153.362 452.957 153.362 452.897 153.362C441.041 153.362 432.468 160.809 426.684 176.12C426.51 176.575 426.077 176.855 425.623 176.855Z" fill="#070600"/>
<path d="M505.254 229.081L524.622 252.916L516.488 260.082L495.961 237.029L505.254 229.081Z" fill="#070600"/>
<path d="M516.488 261.219C516.177 261.219 515.859 261.09 515.639 260.84L495.112 237.787C494.907 237.559 494.808 237.256 494.824 236.953C494.846 236.649 494.983 236.361 495.218 236.164L504.511 228.217C504.746 228.02 505.049 227.921 505.353 227.951C505.656 227.982 505.936 228.126 506.133 228.368L525.501 252.203C525.888 252.673 525.827 253.371 525.372 253.772L517.239 260.939C517.026 261.128 516.753 261.219 516.488 261.219ZM497.583 237.135L516.587 258.482L523.053 252.787L505.11 230.712L497.583 237.142V237.135Z" fill="#070600"/>
<path d="M332.096 440.048H312.812C312.183 440.048 311.675 439.54 311.675 438.911V316.418C311.675 315.789 312.183 315.28 312.812 315.28H332.096C332.726 315.28 333.234 315.789 333.234 316.418V438.911C333.234 439.54 332.726 440.048 332.096 440.048ZM313.949 437.773H330.959V317.555H313.949V437.773Z" fill="#070600"/>
<path d="M318.763 406.887C318.133 406.887 317.626 406.379 317.626 405.749V351.248C317.626 350.619 318.133 350.111 318.763 350.111C319.392 350.111 319.9 350.619 319.9 351.248V405.749C319.9 406.379 319.392 406.887 318.763 406.887Z" fill="#070600"/>
<path d="M338.426 317.555H307.059C306.634 317.555 306.24 317.313 306.043 316.934C305.846 316.555 305.884 316.092 306.134 315.751C310.424 309.851 312.782 301.896 312.782 293.365C312.782 278.13 304.921 264.965 294.498 262.751C294.058 262.66 293.717 262.319 293.626 261.879C293.55 261.545 293.626 261.174 293.846 260.908C294.066 260.643 294.384 260.468 294.725 260.468H350.168C350.509 260.468 350.835 260.628 351.055 260.893C351.275 261.159 351.351 261.515 351.282 261.849L351.237 262.061C351.146 262.478 350.828 262.812 350.411 262.918C340.2 265.572 332.786 278.38 332.786 293.372C332.786 301.85 335.121 309.76 339.366 315.652C339.556 315.91 339.624 316.244 339.556 316.555L339.533 316.661C339.419 317.184 338.957 317.555 338.418 317.555H338.426ZM309.196 315.281H336.387C332.589 309.229 330.52 301.532 330.52 293.365C330.52 279.768 336.379 267.817 345.006 262.736H300.63C309.257 267.786 315.071 279.631 315.071 293.365C315.071 301.54 313.002 309.229 309.204 315.281H309.196Z" fill="#070600"/>
<path d="M313.282 344.476C313.282 344.476 313.608 334.8 321.666 328.673C329.724 322.545 331.657 322.227 331.657 322.227L331.983 317.389H313.29V344.476H313.282Z" fill="#070600"/>
<path d="M313.29 345.614C313.29 345.614 313.275 345.614 313.267 345.614C312.645 345.606 312.153 345.098 312.153 344.476V317.389C312.153 316.759 312.66 316.251 313.29 316.251H331.983C332.301 316.251 332.597 316.38 332.817 316.615C333.029 316.843 333.143 317.154 333.12 317.465L332.801 322.303C332.764 322.826 332.377 323.266 331.854 323.349C331.831 323.357 329.784 323.941 322.363 329.583C314.851 335.293 314.434 344.423 314.434 344.522C314.412 345.136 313.911 345.621 313.297 345.621L313.29 345.614ZM314.419 318.526V335.899C315.723 333.162 317.762 330.212 320.976 327.77C326.555 323.531 329.307 321.984 330.573 321.423L330.762 318.526H314.419Z" fill="#070600"/>
<path d="M278.64 262.417C271.878 262.417 266.383 256.912 266.383 250.155V236.771C266.383 236.141 266.89 235.633 267.52 235.633H268.732C268.914 235.633 269.096 235.679 269.263 235.762C273.735 238.105 293.338 240.471 322.166 240.471C350.994 240.471 370.589 238.105 375.062 235.762C375.221 235.679 375.403 235.633 375.592 235.633H376.161C376.79 235.633 377.298 236.141 377.298 236.771V250.155C377.298 256.919 371.795 262.417 365.041 262.417H278.64ZM268.649 237.999V250.155C268.649 255.661 273.129 260.142 278.632 260.142H365.018C370.521 260.142 375.001 255.661 375.001 250.155V238.265C368.005 240.926 346.855 242.746 322.143 242.746C297.432 242.746 274.895 240.805 268.641 237.999H268.649Z" fill="#070600"/>
<path d="M322.151 242.746C295.976 242.746 273.789 240.706 268.194 237.779C266.981 237.142 266.375 236.376 266.375 235.482C266.375 234.329 266.375 231.925 283.385 230.022C293.748 228.861 307.513 228.217 322.151 228.217C336.789 228.217 350.547 228.854 360.909 230.022C377.927 231.933 377.927 234.329 377.927 235.482C377.927 236.369 377.313 237.142 376.108 237.779C370.514 240.706 348.334 242.746 322.151 242.746ZM268.778 235.466C268.876 235.542 269.028 235.641 269.255 235.762C273.728 238.105 293.331 240.471 322.151 240.471C350.972 240.471 370.574 238.105 375.047 235.762C375.274 235.641 375.426 235.542 375.524 235.466C373.197 233.366 353.587 230.492 322.143 230.492C290.7 230.492 271.097 233.366 268.763 235.466H268.778Z" fill="#070600"/>
<path d="M313.926 293.365C313.926 302.412 311.296 310.586 307.059 316.418H305.869L294.741 261.636C305.603 263.949 313.926 277.273 313.926 293.365Z" fill="#070600"/>
<path d="M307.059 317.555H305.869C305.33 317.555 304.86 317.176 304.754 316.645L293.626 261.864C293.55 261.485 293.664 261.098 293.937 260.832C294.21 260.559 294.597 260.446 294.976 260.529C306.611 263.009 315.063 276.818 315.063 293.372C315.063 302.381 312.547 310.806 307.976 317.093C307.764 317.389 307.422 317.563 307.059 317.563V317.555ZM296.226 263.221L306.725 314.916C310.644 309.108 312.789 301.502 312.789 293.365C312.789 278.979 305.778 266.444 296.226 263.221Z" fill="#070600"/>
<path d="M350.13 261.811L338.449 316.312C334.257 310.488 331.657 302.359 331.657 293.365C331.657 277.629 339.624 264.541 350.13 261.811Z" fill="#070600"/>
<path d="M338.449 317.449C338.085 317.449 337.744 317.275 337.524 316.979C333.006 310.7 330.52 302.321 330.52 293.365C330.52 277.356 338.646 263.616 349.842 260.711C350.221 260.613 350.63 260.711 350.918 260.992C351.207 261.265 351.328 261.667 351.244 262.053L339.563 316.554C339.472 316.994 339.123 317.336 338.684 317.427C338.608 317.442 338.525 317.449 338.449 317.449ZM348.606 263.502C339.343 267.119 332.794 279.275 332.794 293.365C332.794 300.812 334.598 307.819 337.911 313.407L348.606 263.494V263.502Z" fill="#070600"/>
<path d="M347.128 206.051V235.8H291.041V204.815C302.245 208.258 331.589 208.667 347.128 206.051Z" fill="#070600"/>
<path d="M347.128 236.938H291.041C290.412 236.938 289.904 236.429 289.904 235.8V204.815C289.904 204.451 290.079 204.117 290.367 203.897C290.655 203.677 291.034 203.617 291.375 203.723C301.957 206.976 331.035 207.605 346.939 204.921C347.272 204.868 347.606 204.959 347.864 205.171C348.121 205.383 348.265 205.702 348.265 206.043V235.792C348.265 236.422 347.757 236.93 347.128 236.93V236.938ZM292.178 234.663H345.991V207.385C330.035 209.805 303.814 209.259 292.178 206.316V234.67V234.663Z" fill="#070600"/>
<path d="M321.977 208.902C309.469 208.902 297.075 207.856 290.708 205.899C290.23 205.755 289.904 205.308 289.904 204.815V175.498C289.904 159.406 302.996 146.31 319.089 146.31C326.881 146.31 334.204 149.343 339.722 154.856C345.233 160.377 348.265 167.71 348.265 175.498V206.051C348.265 206.604 347.864 207.082 347.318 207.173C340.351 208.349 331.134 208.902 321.977 208.902ZM292.178 203.958C303.132 206.946 330.3 207.514 345.991 205.08V175.498C345.991 168.309 343.194 161.552 338.115 156.464C333.029 151.383 326.275 148.585 319.089 148.585C304.246 148.585 292.178 160.657 292.178 175.498V203.958Z" fill="#070600"/>
<path d="M297.492 187.927C296.878 187.927 296.378 187.441 296.355 186.827C296.355 186.729 296.029 176.749 296.029 171.312C296.029 165.344 302.018 160.612 302.268 160.415C302.761 160.028 303.473 160.119 303.86 160.612C304.246 161.105 304.155 161.825 303.663 162.204C303.61 162.25 298.296 166.451 298.296 171.304C298.296 176.703 298.614 186.645 298.614 186.744C298.637 187.373 298.144 187.896 297.515 187.919C297.5 187.919 297.492 187.919 297.477 187.919L297.492 187.927Z" fill="#070600"/>
<path d="M401.934 155.356C401.836 155.356 401.729 155.341 401.631 155.319C401.381 155.25 395.377 153.476 385.591 141.729C375.638 129.786 378.17 121.042 378.283 120.671C378.465 120.071 379.11 119.73 379.709 119.92C380.307 120.102 380.641 120.739 380.459 121.338C380.429 121.444 378.253 129.369 387.334 140.273C396.567 151.353 402.192 153.112 402.245 153.127C402.844 153.301 403.192 153.931 403.018 154.53C402.874 155.03 402.419 155.356 401.927 155.356H401.934Z" fill="#070600"/>
<path d="M382.271 114.725C383.734 114.725 383.734 112.45 382.271 112.45C380.808 112.45 380.808 114.725 382.271 114.725Z" fill="#070600"/>
<path d="M283.135 269.568C282.476 269.568 281.816 269.409 281.21 269.098C279.815 268.378 278.943 266.952 278.943 265.375V218.874C278.943 217.35 279.785 215.97 281.134 215.272C282.483 214.574 284.098 214.681 285.341 215.568L321.059 240.866L356.141 216.015C357.24 215.234 358.666 215.136 359.863 215.757C361.061 216.379 361.804 217.6 361.804 218.95V265.2C361.804 266.619 361.023 267.908 359.757 268.56C358.491 269.212 356.99 269.106 355.831 268.287L321.052 243.649L285.553 268.795C284.825 269.311 283.984 269.568 283.135 269.568ZM283.006 217.084C282.726 217.084 282.445 217.153 282.188 217.289C281.589 217.6 281.225 218.192 281.225 218.867V265.367C281.225 266.095 281.611 266.732 282.263 267.066C282.908 267.4 283.658 267.347 284.249 266.929L319.096 242.246L284.03 217.411C283.719 217.191 283.362 217.077 283.006 217.077V217.084ZM323.03 242.253L357.157 266.429C357.627 266.763 358.211 266.801 358.719 266.535C359.227 266.27 359.537 265.769 359.537 265.193V218.942C359.537 218.442 359.272 218.002 358.825 217.775C358.378 217.547 357.87 217.577 357.46 217.866L323.03 242.253Z" fill="#070600"/>
</svg>
