<svg xmlns="http://www.w3.org/2000/svg" width="24" height="24" viewBox="0 0 24 24" fill="none">
    <path d="M10.998 16L15.998 12L10.998 8V11H1.99805V13H10.998V16Z" fill="#EA8BF3"/>
    <path d="M12.9991 2.99906C11.8166 2.99578 10.6452 3.22717 9.55282 3.67982C8.46041 4.13247 7.46867 4.79739 6.63507 5.63606L8.04907 7.05006C9.37107 5.72806 11.1291 4.99906 12.9991 4.99906C14.8691 4.99906 16.6271 5.72806 17.9491 7.05006C19.2711 8.37206 20.0001 10.1301 20.0001 12.0001C20.0001 13.8701 19.2711 15.6281 17.9491 16.9501C16.6271 18.2721 14.8691 19.0011 12.9991 19.0011C11.1291 19.0011 9.37107 18.2721 8.04907 16.9501L6.63507 18.3641C8.33407 20.0641 10.5941 21.0011 12.9991 21.0011C15.4041 21.0011 17.6641 20.0641 19.3631 18.3641C21.0631 16.6651 22.0001 14.4051 22.0001 12.0001C22.0001 9.59506 21.0631 7.33506 19.3631 5.63606C18.5295 4.79739 17.5377 4.13247 16.4453 3.67982C15.3529 3.22717 14.1815 2.99578 12.9991 2.99906Z" fill="#EA8BF3"/>
</svg>
