<svg xmlns="http://www.w3.org/2000/svg" width="173" height="56" viewBox="0 0 173 56" fill="none">
    <path d="M11.0769 24.4894C9.29858 24.4894 7.84567 24.2686 6.70659 23.8269C5.56752 23.3852 4.73065 22.7227 4.18436 21.851C3.63807 20.9792 3.37073 19.9099 3.37073 18.6546V5.81093L4.77714 0.464248H9.77512V17.2947C9.77512 17.934 9.83325 18.4686 9.93786 18.8987C10.0541 19.3287 10.2633 19.6658 10.5888 19.9099C10.9142 20.154 11.3791 20.2818 11.9952 20.2818C12.9366 20.2818 13.5875 19.9796 13.9362 19.3752C14.2966 18.7708 14.4593 17.748 14.436 16.2951H19.0621C19.1086 19.073 18.5158 21.142 17.2605 22.4786C16.04 23.8153 13.9711 24.4894 11.0769 24.4894ZM0 4.96244H16.9699V9.05381H0V4.96244Z" fill="#EEF0F2"/>
    <path d="M30.0925 20.6887C31.4524 20.6887 32.4172 20.5143 32.9983 20.154C33.5795 19.7937 33.8701 19.2125 33.8701 18.3989C33.8701 17.6317 33.5679 17.0622 32.9635 16.6786C32.3591 16.2951 31.4059 16.1091 30.0925 16.1091C28.7791 16.1091 27.8144 16.2951 27.1983 16.6786C26.5823 17.0622 26.2685 17.6317 26.2685 18.3989C26.2685 19.2125 26.5591 19.7937 27.1402 20.154C27.7214 20.5143 28.7094 20.6887 30.0925 20.6887ZM27.3494 24.3848C26.4661 24.3848 25.5711 24.2918 24.6993 24.0943C23.8276 23.8967 23.0256 23.5828 22.305 23.1295C21.5843 22.6878 21.0032 22.0951 20.5615 21.3396C20.1198 20.584 19.899 19.6774 19.899 18.5849C19.899 17.3993 20.1314 16.4346 20.608 15.6674C21.0729 14.9003 21.6773 14.3075 22.4212 13.8774C23.1651 13.4474 23.9671 13.1336 24.8272 12.9592C25.6873 12.7732 26.5358 12.6803 27.3494 12.6803C28.9069 12.6803 30.2204 12.8662 31.2897 13.2498C32.359 13.6334 33.1727 14.168 33.719 14.8538V11.1344C33.719 10.1464 33.4749 9.46062 32.9751 9.05381C32.4753 8.647 31.7081 8.4494 30.6388 8.4494C29.953 8.4494 29.3951 8.54239 28.9767 8.72836C28.5583 8.91433 28.2561 9.20491 28.0701 9.6001C27.8841 9.99529 27.7911 10.5532 27.7911 11.2622H21.6076C21.6076 9.76283 21.9098 8.50752 22.5142 7.51954C23.1186 6.51995 24.1182 5.77606 25.5014 5.26464C26.8845 4.76484 28.7442 4.50913 31.0921 4.50913C33.2889 4.50913 35.044 4.77646 36.3574 5.29951C37.6709 5.83418 38.6123 6.58969 39.1935 7.56604C39.7747 8.55401 40.0652 9.72795 40.0652 11.1111V18.3408C40.0652 18.8522 40.1582 19.2474 40.3442 19.5031C40.5302 19.7588 40.8091 19.9099 41.1811 19.9448C41.553 19.9796 41.9947 19.9331 42.5177 19.8169V24.0245C41.5065 24.2221 40.4837 24.2686 39.4608 24.1524C38.438 24.0361 37.5314 23.7223 36.7526 23.1876C35.9739 22.653 35.4508 21.8394 35.1719 20.7351H35.0556C34.3117 21.9672 33.2773 22.8854 31.9406 23.4899C30.6039 24.0826 29.0813 24.3848 27.3494 24.3848Z" fill="#EEF0F2"/>
    <path d="M50.6889 0H44.1334V24.0136H50.6889V0Z" fill="#EEF0F2"/>
    <path d="M63.8464 8.35642C62.44 8.35642 61.4404 8.63537 60.8476 9.20491C60.2548 9.77445 59.8945 10.6811 59.7783 11.9364H67.4845C67.531 11.146 67.4612 10.4835 67.2752 9.9488C67.0893 9.4025 66.7406 9.00732 66.2175 8.75161C65.6945 8.48427 64.9041 8.35642 63.8464 8.35642ZM64.2881 24.5243C61.9634 24.5243 59.9759 24.2105 58.3021 23.5828C56.64 22.9552 55.3614 21.9091 54.4665 20.4213C53.5831 18.9452 53.1298 16.9344 53.1298 14.4005C53.1298 12.75 53.3274 11.3552 53.7226 10.1929C54.1178 9.04219 54.664 8.08908 55.3731 7.33357C56.0821 6.57806 56.8841 5.9969 57.8023 5.57847C58.7205 5.16003 59.6853 4.86945 60.7081 4.6951C61.731 4.52075 62.7654 4.43939 63.7999 4.43939C66.171 4.43939 68.1121 4.77646 69.6115 5.45061C71.1225 6.12476 72.2151 7.24059 72.8893 8.78648C73.5634 10.3324 73.8307 12.4245 73.6913 15.063H59.8015C59.8248 16.4113 59.9991 17.5039 60.3246 18.3059C60.65 19.1195 61.1498 19.7007 61.8472 20.0378C62.533 20.3864 63.4628 20.5492 64.6251 20.5492C66.1013 20.5027 67.1706 20.1889 67.8332 19.6309C68.4841 19.0614 68.8327 18.1664 68.856 16.9344H74.563C74.47 19.2939 73.575 21.1536 71.9013 22.4903C70.2043 23.8618 67.6704 24.5243 64.2881 24.5243Z" fill="#EEF0F2"/>
    <path d="M76.4808 24.0129V4.96244H82.7806L82.5946 8.72836L82.7458 8.76323C83.5594 7.41493 84.6636 6.38047 86.0584 5.65983C87.4531 4.95081 89.0339 4.59049 90.7774 4.59049C92.9044 4.59049 94.5084 5.13678 95.6126 6.22937C96.7052 7.32195 97.2631 8.78647 97.2631 10.5997V24.0013H90.8588V12.8895C90.8588 11.7271 90.6147 10.8438 90.1381 10.2278C89.6616 9.61172 88.6736 9.30952 87.1974 9.30952C86.2095 9.30952 85.3958 9.449 84.7566 9.73958C84.1173 10.0185 83.6407 10.437 83.3502 10.9716C83.0596 11.5179 82.9085 12.1572 82.9085 12.8895V24.0129H76.4808Z" fill="#EEF0F2"/>
    <path d="M109.932 24.4894C108.154 24.4894 106.701 24.2686 105.562 23.8269C104.423 23.3852 103.586 22.7227 103.04 21.851C102.494 20.9792 102.226 19.9099 102.226 18.6546V5.81093L103.633 0.464248H108.631V17.2947C108.631 17.934 108.689 18.4686 108.793 18.8987C108.91 19.3287 109.119 19.6658 109.444 19.9099C109.77 20.154 110.235 20.2818 110.851 20.2818C111.792 20.2818 112.443 19.9796 112.792 19.3752C113.152 18.7708 113.315 17.748 113.292 16.2951H117.918C117.964 19.073 117.371 21.142 116.116 22.4786C114.896 23.8153 112.827 24.4894 109.932 24.4894ZM98.8555 4.96244H115.825V9.05381H98.8555V4.96244Z" fill="#EEF0F2"/>
    <path d="M10.4493 45.295C11.8092 45.295 12.774 45.1207 13.3551 44.7603C13.9363 44.4 14.2269 43.8189 14.2269 43.0052C14.2269 42.2381 13.9247 41.6686 13.3202 41.285C12.7158 40.9014 11.7627 40.7155 10.4493 40.7155C9.13589 40.7155 8.17116 40.9014 7.55513 41.285C6.9391 41.6686 6.62527 42.2381 6.62527 43.0052C6.62527 43.8189 6.91585 44.4 7.49701 44.7603C8.08979 45.1207 9.06615 45.295 10.4493 45.295ZM7.70623 48.9912C6.82286 48.9912 5.92788 48.8982 5.05614 48.7006C4.18439 48.503 3.38239 48.1892 2.66175 47.7359C1.94111 47.2942 1.35995 46.7014 0.918271 45.9459C0.476589 45.1904 0.255748 44.2838 0.255748 43.1912C0.255748 42.0056 0.488208 41.0409 0.964761 40.2738C1.42969 39.5066 2.0341 38.9139 2.77798 38.4838C3.52187 38.0537 4.32387 37.7515 5.18399 37.5656C6.04411 37.3796 6.8926 37.2866 7.70623 37.2866C9.26374 37.2866 10.5772 37.4726 11.6465 37.8562C12.7158 38.2397 13.5295 38.7744 14.0758 39.4602V35.7291C14.0758 34.7411 13.8317 34.0554 13.3319 33.6485C12.8321 33.2417 12.0649 33.0441 10.9956 33.0441C10.3098 33.0441 9.75192 33.1371 9.33348 33.3231C8.91504 33.5091 8.61284 33.7997 8.42687 34.1948C8.2409 34.59 8.14792 35.1479 8.14792 35.857H1.96436C1.96436 34.3576 2.26657 33.1023 2.87097 32.1143C3.47538 31.1147 4.47498 30.3708 5.85814 29.8594C7.2413 29.3596 9.10102 29.1039 11.4489 29.1039C13.6457 29.1039 15.4008 29.3712 16.7142 29.8942C18.0276 30.4289 18.9691 31.1844 19.5503 32.1608C20.1315 33.1488 20.422 34.3227 20.422 35.7059V42.9355C20.422 43.4469 20.515 43.8421 20.701 44.0978C20.887 44.3535 21.1659 44.5046 21.5379 44.5395C21.9098 44.5744 22.3515 44.5279 22.8745 44.4116V48.6193C21.8633 48.8168 20.8405 48.8633 19.8176 48.7471C18.7948 48.6309 17.8882 48.3171 17.1094 47.7824C16.3307 47.2477 15.8076 46.4341 15.5403 45.3299H15.424C14.6802 46.5619 13.6457 47.4802 12.309 48.0846C10.9724 48.689 9.43809 48.9912 7.70623 48.9912Z" fill="#EEF0F2"/>
    <path d="M34.5326 49.0958C30.8248 49.0958 28.0701 48.3054 26.2685 46.713C24.4669 45.1207 23.5603 42.5636 23.5603 39.0185C23.5603 35.5199 24.432 32.9976 26.1872 31.4285C27.9423 29.871 30.5342 29.0806 33.9631 29.0806C36.0669 29.0806 37.822 29.3712 39.2284 29.964C40.6348 30.5568 41.6925 31.4634 42.4015 32.6722C43.1106 33.8926 43.4244 35.4385 43.343 37.3099H37.1246C37.1711 35.8105 36.9619 34.7528 36.4737 34.1367C35.9972 33.5207 35.1487 33.2185 33.9398 33.2185C32.9984 33.2185 32.2545 33.4045 31.6966 33.7764C31.1386 34.1483 30.7435 34.7528 30.511 35.5896C30.2785 36.4265 30.1623 37.5539 30.1623 38.9836C30.1623 41.1455 30.4994 42.6565 31.1619 43.505C31.8244 44.3535 33.01 44.7836 34.7186 44.7836C36.2064 44.7836 37.2525 44.4465 37.8917 43.7724C38.5194 43.0982 38.8332 41.9824 38.8332 40.4365H44.5054C44.5286 43.2609 43.6917 45.4229 42.0064 46.899C40.3094 48.3635 37.822 49.0958 34.5326 49.0958Z" fill="#EEF0F2"/>
    <path d="M55.5125 45.295C56.8725 45.295 57.8372 45.1207 58.4184 44.7603C58.9995 44.4 59.2901 43.8189 59.2901 43.0052C59.2901 42.2381 58.9879 41.6686 58.3835 41.285C57.7791 40.9014 56.826 40.7155 55.5125 40.7155C54.1991 40.7155 53.2344 40.9014 52.6184 41.285C52.0023 41.6686 51.6885 42.2381 51.6885 43.0052C51.6885 43.8189 51.9791 44.4 52.5602 44.7603C53.1414 45.1207 54.1294 45.295 55.5125 45.295ZM52.7695 48.9912C51.8745 48.9912 50.9911 48.8982 50.1194 48.7006C49.2476 48.503 48.4456 48.1892 47.725 47.7359C47.0043 47.2942 46.4232 46.7014 45.9815 45.9459C45.5398 45.1904 45.319 44.2838 45.319 43.1912C45.319 42.0056 45.5514 41.0409 46.028 40.2738C46.4929 39.5066 47.0973 38.9139 47.8412 38.4838C48.5851 38.0537 49.3871 37.7515 50.2472 37.5656C51.1073 37.3796 51.9558 37.2866 52.7695 37.2866C54.327 37.2866 55.6404 37.4726 56.7097 37.8562C57.7791 38.2397 58.5927 38.7744 59.139 39.4602V35.7291C59.139 34.7411 58.8949 34.0554 58.3951 33.6485C57.8953 33.2417 57.1282 33.0441 56.0588 33.0441C55.3731 33.0441 54.8152 33.1371 54.3967 33.3231C53.9783 33.5091 53.6761 33.7997 53.4901 34.1948C53.3041 34.59 53.2111 35.1479 53.2111 35.857H47.0276C47.0276 34.3576 47.3298 33.1023 47.9342 32.1143C48.5386 31.1147 49.5382 30.3708 50.9214 29.8594C52.3045 29.3596 54.1643 29.1039 56.5121 29.1039C58.7089 29.1039 60.464 29.3712 61.7775 29.8942C63.0909 30.4289 64.0324 31.1844 64.6135 32.1608C65.1947 33.1488 65.4853 34.3227 65.4853 35.7059V42.9355C65.4853 43.4469 65.5783 43.8421 65.7642 44.0978C65.9502 44.3535 66.2292 44.5046 66.6011 44.5395C66.973 44.5744 67.4147 44.5279 67.9378 44.4116V48.6193C66.9265 48.8168 65.9037 48.8633 64.8809 48.7471C63.858 48.6309 62.9514 48.3171 62.1726 47.7824C61.3939 47.2477 60.8708 46.4341 60.5919 45.3299H60.4757C59.7318 46.5619 58.6973 47.4802 57.3606 48.0846C56.024 48.689 54.4897 48.9912 52.7695 48.9912Z" fill="#EEF0F2"/>
    <path d="M79.4796 33.1952C78.4684 33.1952 77.6315 33.3696 76.9574 33.7067C76.2949 34.0554 75.7951 34.6481 75.458 35.4966C75.1209 36.3451 74.9582 37.5075 74.9582 38.9836C74.9582 40.4598 75.1209 41.6221 75.4347 42.4473C75.7602 43.2842 76.2484 43.8654 76.9109 44.2024C77.5734 44.5395 78.4335 44.7022 79.468 44.7022C80.5025 44.7022 81.351 44.5395 82.0019 44.2024C82.6528 43.8654 83.1409 43.2842 83.4664 42.4473C83.7918 41.6105 83.9429 40.4598 83.9429 38.9836C83.9429 37.4842 83.7802 36.3103 83.4664 35.4734C83.1409 34.6365 82.6528 34.0437 82.0019 33.7067C81.3626 33.358 80.5141 33.1952 79.4796 33.1952ZM90.2543 21.6766V48.6193H83.85L84.0359 44.6674L83.9197 44.6325C83.1061 45.9575 82.06 47.0153 80.7698 47.8056C79.4796 48.596 77.9686 48.9912 76.2135 48.9912C75.0047 48.9912 73.9237 48.8052 72.9706 48.4217C72.0175 48.0381 71.2155 47.4453 70.5414 46.6317C69.8788 45.8181 69.3674 44.7952 69.0187 43.5515C68.67 42.3078 68.4957 40.8317 68.4957 39.0998C68.4957 37.182 68.7281 35.578 69.1814 34.2994C69.6348 33.0209 70.2624 32.0097 71.076 31.2542C71.878 30.4987 72.8195 29.9756 73.8889 29.6618C74.9582 29.3596 76.1321 29.1969 77.3874 29.1969C78.3522 29.1969 79.2472 29.3131 80.0724 29.5456C80.8977 29.778 81.6299 30.1267 82.2808 30.5916C82.9201 31.0566 83.4431 31.6261 83.8383 32.2886V21.6766H90.2543Z" fill="#EEF0F2"/>
    <path d="M103.412 32.9628C102.005 32.9628 101.006 33.2417 100.413 33.8113C99.8203 34.3808 99.4599 35.2874 99.3437 36.5427H107.05C107.096 35.7523 107.027 35.0898 106.841 34.5435C106.655 33.9972 106.306 33.6021 105.783 33.3463C105.272 33.1023 104.481 32.9628 103.412 32.9628ZM103.854 49.1307C101.529 49.1307 99.5413 48.8168 97.8676 48.1892C96.2054 47.5615 94.9269 46.5155 94.0319 45.0277C93.1485 43.5515 92.6952 41.5407 92.6952 39.0069C92.6952 37.3564 92.8928 35.9616 93.288 34.7992C93.6832 33.6369 94.2295 32.6838 94.9385 31.9399C95.6475 31.1844 96.4495 30.6033 97.3678 30.1848C98.286 29.7664 99.2507 29.4758 100.274 29.3015C101.296 29.1271 102.331 29.0457 103.365 29.0457C105.736 29.0457 107.678 29.3828 109.177 30.057C110.688 30.7311 111.781 31.8469 112.455 33.3928C113.129 34.9387 113.396 37.0309 113.257 39.6694H99.367C99.3902 41.0177 99.5646 42.1103 99.89 42.9123C100.215 43.7259 100.715 44.307 101.413 44.6441C102.098 44.9928 103.028 45.1555 104.191 45.1555C105.667 45.109 106.736 44.7952 107.399 44.2373C108.049 43.6678 108.398 42.7728 108.421 41.5407H114.128C114.035 43.9002 113.14 45.7599 111.467 47.0966C109.77 48.4682 107.248 49.1307 103.854 49.1307Z" fill="#EEF0F2"/>
    <path d="M122.346 37.5423V48.6193H116.046V29.5688H122.311L122.125 33.3347L122.241 33.3696C123.078 31.9864 124.159 30.952 125.484 30.2546C126.809 29.5572 128.262 29.2085 129.843 29.2085C131.494 29.2085 132.784 29.5688 133.714 30.3011C134.643 31.0217 135.236 32.0213 135.515 33.2766L135.631 33.3115C136.468 31.9632 137.538 30.9403 138.839 30.2429C140.141 29.5572 141.571 29.2085 143.152 29.2085C145.104 29.2085 146.592 29.7548 147.615 30.8474C148.638 31.9399 149.149 33.4045 149.149 35.2177V48.6193H142.733V37.5423C142.733 36.3916 142.524 35.4966 142.106 34.8806C141.687 34.2646 140.815 33.9624 139.514 33.9624C138.653 33.9624 137.944 34.1019 137.387 34.3924C136.829 34.6714 136.422 35.0782 136.143 35.6129C135.876 36.1475 135.736 36.7868 135.736 37.554V48.6309H129.332V37.554C129.332 36.4033 129.122 35.5083 128.704 34.8922C128.286 34.2762 127.437 33.974 126.147 33.974C125.287 33.974 124.578 34.1135 124.02 34.4041C123.462 34.683 123.055 35.0898 122.776 35.6245C122.486 36.1359 122.346 36.7868 122.346 37.5423Z" fill="#EEF0F2"/>
    <path d="M156.623 29.5688L159.587 37.5423L161.481 42.8193H161.667L163.562 37.6469L166.642 29.5688H172.233L164.492 49.2818C164.073 50.293 163.585 51.1299 163.027 51.7924C162.469 52.4549 161.807 53.0012 161.04 53.4313C160.273 53.8613 159.354 54.2449 158.297 54.5936L154.217 56L152.811 51.6064L156.298 50.5022C156.821 50.3511 157.251 50.2233 157.611 50.0954C157.971 49.9675 158.262 49.8164 158.494 49.6189C158.727 49.4213 158.913 49.1539 159.029 48.8052L159.285 48.1427H156.844L149.544 29.5804H156.623V29.5688Z" fill="#EEF0F2"/>
</svg>
