<svg width="33" height="32" viewBox="0 0 33 32" fill="none" xmlns="http://www.w3.org/2000/svg">
<g clip-path="url(#clip0_7522_19109)">
<path d="M16.4761 13.3772C20.1211 13.3772 23.0759 10.3826 23.0759 6.68859C23.0759 2.99458 20.1211 0 16.4761 0C12.8312 0 9.87634 2.99458 9.87634 6.68859C9.87634 10.3826 12.8312 13.3772 16.4761 13.3772Z" fill="#DBFF8F"/>
<path d="M25.566 22.7105C29.2109 22.7105 32.1658 19.7159 32.1658 16.0219C32.1658 12.3279 29.2109 9.33331 25.566 9.33331C21.921 9.33331 18.9662 12.3279 18.9662 16.0219C18.9662 19.7159 21.921 22.7105 25.566 22.7105Z" fill="#DBFF8F"/>
<path d="M7.33025 22.6437C10.9752 22.6437 13.93 19.6491 13.93 15.9551C13.93 12.2611 10.9752 9.26648 7.33025 9.26648C3.68529 9.26648 0.730469 12.2611 0.730469 15.9551C0.730469 19.6491 3.68529 22.6437 7.33025 22.6437Z" fill="#DBFF8F"/>
<path d="M16.5638 32C20.2087 32 23.1636 29.0054 23.1636 25.3114C23.1636 21.6174 20.2087 18.6228 16.5638 18.6228C12.9188 18.6228 9.96399 21.6174 9.96399 25.3114C9.96399 29.0054 12.9188 32 16.5638 32Z" fill="#DBFF8F"/>
</g>
<defs>
<clipPath id="clip0_7522_19109">
<rect width="31.5789" height="32" fill="white" transform="translate(0.730469)"/>
</clipPath>
</defs>
</svg>
