<svg width="121" height="120" viewBox="0 0 121 120" fill="none" xmlns="http://www.w3.org/2000/svg">
<g clip-path="url(#clip0_10116_5390)">
<path d="M61.1244 0.245117H59.1529C27.0656 0.245117 1.05859 25.9222 1.05859 57.6007V59.5498H59.1529H119.219V57.6007C119.219 25.9222 93.208 0.245117 61.1244 0.245117Z" fill="#333366"/>
<path d="M30.6294 119.245C47.1766 119.245 60.5908 105.856 60.5908 89.3394C60.5908 72.8229 47.1766 59.4336 30.6294 59.4336C14.0822 59.4336 0.667969 72.8229 0.667969 89.3394C0.667969 105.856 14.0822 119.245 30.6294 119.245Z" fill="#333366"/>
<path d="M90.7056 119.245C107.253 119.245 120.667 105.856 120.667 89.3394C120.667 72.8229 107.253 59.4336 90.7056 59.4336C74.1583 59.4336 60.7441 72.8229 60.7441 89.3394C60.7441 105.856 74.1583 119.245 90.7056 119.245Z" fill="#333366"/>
</g>
<defs>
<clipPath id="clip0_10116_5390">
<rect width="120" height="119" fill="white" transform="translate(0.667969 0.245117)"/>
</clipPath>
</defs>
</svg>
