<svg xmlns="http://www.w3.org/2000/svg" width="121" height="122" viewBox="0 0 121 122" fill="none">
    <g id="Layer_1" clip-path="url(#clip0_7450_8441)">
        <path id="Vector" d="M119.103 67.5806C119.785 67.5806 120.348 68.09 120.333 68.7067C119.674 98.1666 93.0641 121.869 60.3334 121.869C27.6028 121.869 0.992919 98.1666 0.333416 68.7067C0.318596 68.09 0.881767 67.5806 1.5635 67.5806H119.096H119.103Z" fill="#070600"/>
        <path id="Vector_2" d="M0.985474 50.1392H38.8884L2.15628 36.9543L3.68277 33.4822L5.55754 34.1525L3.74205 33.3682L5.5279 29.9966L7.34338 30.7875L5.59459 29.8826L7.63979 26.6316L9.38118 27.5366L7.71389 26.5244L9.99622 23.4142L41.2596 42.2363L14.0866 18.7891L16.9395 16.0877L18.3993 17.3412L17.0433 16.0006L20.0963 13.4803L21.4523 14.8276L20.2 13.3998L23.4382 11.0806L24.6905 12.5083L23.5568 11.0068L26.9655 8.89538L48.1511 36.9409L32.6713 5.99296L36.4356 4.45126L37.2656 6.10691L36.5616 4.40434L40.4371 3.10394L41.1337 4.80652L40.5705 3.06373L44.5349 2.01135L45.0981 3.75414L44.6683 1.98453L48.7068 1.18017L56.7395 34.3603L55.1981 0.422725L59.3256 0.268555L59.4071 2.08508L59.4664 0.268555L63.5938 0.375803L63.5346 2.19233L63.7346 0.382506L67.8473 0.751174L67.6472 2.561L67.9881 0.771283L72.0562 1.39467L65.765 34.8831L78.3919 2.88945L82.2822 4.14962L81.6079 5.8589L82.4156 4.19654L86.2022 5.69802L85.3945 7.36038L86.3282 5.75165L89.9814 7.48103L89.0477 9.09647L90.1074 7.54806L93.6198 9.50535L73.9162 38.429L98.8736 13.0446L101.964 15.5247L100.63 16.8854L102.06 15.6118L104.95 18.2863L103.52 19.5532L105.046 18.3802L107.721 21.229L106.195 22.402L107.81 21.3295L110.256 24.3325L74.5461 48.1149L115.554 32.8588L117.132 36.3108L115.265 37.008L117.177 36.4315L118.481 39.9841L116.569 40.5539L118.518 40.1048L119.54 43.7244L91.8117 50.1392H119.844V61.4138H0.985474V50.1392Z" fill="#070600"/>
    </g>
    <defs>
        <clipPath id="clip0_7450_8441">
            <rect width="120" height="121.6" fill="white" transform="translate(0.333374 0.268555)"/>
        </clipPath>
    </defs>
</svg>
