<svg xmlns="http://www.w3.org/2000/svg" width="120" height="114" viewBox="0 0 120 114" fill="none">
    <g id="Group">
        <path id="Vector" d="M51.5552 58.4571C57.6982 66.7274 63.5295 75.2354 68.9219 83.9583C71.5893 88.3367 74.1528 92.7717 76.4853 97.2859C77.6515 99.5373 78.76 101.811 79.73 104.108C80.215 105.251 80.6653 106.405 81.0233 107.525C81.208 108.079 81.3697 108.634 81.4736 109.131C81.5313 109.38 81.566 109.607 81.5891 109.776V109.923C81.5891 109.923 81.6006 109.923 81.6122 109.923C81.6122 109.901 81.6122 109.889 81.6122 109.867V109.833L81.6353 109.765L81.6584 109.697V109.663L81.693 109.595C81.7276 109.505 81.7623 109.448 81.8316 109.335C81.9124 109.199 81.9932 109.097 82.1318 108.962C82.2819 108.803 82.4551 108.69 82.663 108.577C82.8708 108.464 83.1133 108.396 83.298 108.362C83.402 108.339 83.4943 108.328 83.5983 108.328C83.6906 108.328 83.7484 108.328 83.8177 108.328C83.887 108.328 83.9562 108.339 84.0255 108.351L84.1525 108.373C84.3373 108.43 84.3835 108.453 84.4527 108.487C84.522 108.52 84.5105 108.532 84.4643 108.487C84.4181 108.464 84.3488 108.407 84.2795 108.339C83.9678 108.068 83.5752 107.638 83.2172 107.208C82.4782 106.314 81.7623 105.296 81.081 104.267C79.7069 102.185 78.4252 99.9899 77.2127 97.7498C74.7648 93.2808 72.5708 88.6422 70.4808 83.947C68.3908 79.2518 66.4624 74.4887 64.6149 69.6916C62.7789 64.8833 61.0353 60.041 59.3956 55.1648L56.9707 47.9579L56.1855 55.4815C55.3426 63.5822 54.3265 71.6602 53.0447 79.693C52.3981 83.7094 51.6937 87.7145 50.8508 91.6743C50.4236 93.6542 49.9732 95.6341 49.4536 97.5687C49.1996 98.5417 48.9224 99.5034 48.6107 100.442C48.4606 100.906 48.2989 101.37 48.1257 101.8C48.0448 102.015 47.9525 102.23 47.8601 102.411C47.8139 102.502 47.7677 102.592 47.7331 102.649C47.6984 102.717 47.6523 102.762 47.71 102.705L47.7331 102.683C47.7331 102.683 47.7793 102.637 47.8139 102.626L47.8601 102.603L47.9294 102.569C47.9987 102.535 48.068 102.513 48.1372 102.49C48.195 102.479 48.3682 102.445 48.4836 102.445C48.6106 102.445 48.7261 102.468 48.8531 102.513C48.9802 102.558 49.0956 102.637 49.1418 102.671C49.2111 102.717 49.2688 102.784 49.315 102.841C49.3612 102.886 49.419 102.988 49.4305 103.011C49.442 103.033 49.4536 103.067 49.4536 103.079V103.045C49.419 102.943 49.4074 102.717 49.3959 102.513C49.3843 102.072 49.3959 101.585 49.4421 101.11C49.5113 100.137 49.6268 99.1414 49.7654 98.1571C50.0425 96.1658 50.4004 94.1746 50.793 92.1947C51.5898 88.2236 52.5136 84.2638 53.5182 80.3153C55.5274 72.4296 57.883 64.6231 60.3887 56.8618L61.7512 52.6757L58.2987 55.4929C53.6683 59.2717 48.8762 62.8581 43.8302 65.992C41.3014 67.5533 38.7033 69.0015 36.0359 70.1894C34.6964 70.7778 33.3339 71.2982 31.9829 71.6602C31.3132 71.8299 30.6319 71.9657 30.0083 72.011C29.8582 72.011 29.6966 72.0336 29.558 72.0223H29.3502L29.1654 71.9996C28.946 71.977 28.7613 71.8978 28.8075 71.9091C28.8306 71.9091 28.8536 71.9318 28.8536 71.9657C28.8883 71.9883 28.8998 72.0223 28.9114 72.0562C28.9345 72.0675 28.9229 72.1128 28.9345 72.1241C28.9345 72.0675 29.0268 71.8412 29.1423 71.6376C29.4194 71.185 29.8582 70.6986 30.3432 70.246C31.3247 69.3296 32.5256 68.5263 33.7611 67.7909C36.2437 66.3201 38.9689 65.1661 41.7517 64.1818C47.3405 62.2245 53.2179 61.014 59.1416 60.2446L62.2246 59.8487L59.973 57.7443C58.9106 56.7487 57.8483 55.7418 56.8091 54.7235C56.2895 54.2144 55.7814 53.7053 55.2849 53.1848C55.0308 52.9246 54.7883 52.6757 54.5574 52.4155C54.3265 52.1666 54.084 51.8951 53.9223 51.6801C53.8761 51.6235 53.853 51.5783 53.853 51.5783C53.853 51.6009 53.8761 51.5783 53.9454 51.8046V51.8385C53.9454 51.8385 53.98 51.929 53.98 51.9743C53.9916 52.0761 54.0032 52.1779 53.9916 52.2684C53.9916 52.3137 53.9916 52.3703 53.9685 52.4155C53.957 52.5173 53.8992 52.6984 53.8299 52.8454C53.7491 52.9925 53.6452 53.1396 53.5182 53.2527C53.4027 53.3659 53.241 53.4451 53.1833 53.479C53.0216 53.5695 52.8138 53.6261 52.6175 53.6374C52.5713 53.6374 52.5251 53.6374 52.4789 53.6374H52.375L52.3057 53.6261C52.2133 53.6261 52.1094 53.5808 52.0401 53.5582C52.0055 53.5582 51.9362 53.513 51.9247 53.513C51.9247 53.513 51.9016 53.5129 51.9016 53.5016L51.9362 53.5243C51.9362 53.5243 52.0286 53.5922 52.0863 53.6374C52.3173 53.8184 52.5713 54.0447 52.8138 54.2823C53.3103 54.7462 53.7838 55.2553 54.2456 55.7644C55.1463 56.7939 55.9892 57.914 56.4742 58.9888L56.5089 59.068L56.5551 59.1472C57.2017 60.1994 57.8714 61.2402 58.6104 62.2472C58.9799 62.7563 59.361 63.2541 59.7651 63.7519C59.973 64.0008 60.1808 64.2497 60.4233 64.5099C60.5503 64.6457 60.6774 64.7701 60.8621 64.9398C60.9198 64.9851 60.9545 65.0191 61.0469 65.0869C61.093 65.1209 61.1161 65.1435 61.2085 65.1888L61.324 65.2566C61.4048 65.3019 61.4972 65.3358 61.578 65.3698L61.6589 65.3924C61.7281 65.415 61.7859 65.4263 61.8552 65.4377C61.9937 65.4603 62.1323 65.4603 62.2708 65.449C62.2939 65.449 62.5018 65.4263 62.6634 65.3585C62.8251 65.3019 62.9868 65.2114 63.1253 65.1096C63.1946 65.053 63.2523 64.9964 63.3101 64.9398C63.3678 64.872 63.414 64.8267 63.4371 64.7815C63.4948 64.6909 63.5526 64.6004 63.5988 64.4986C63.6449 64.3968 63.6796 64.295 63.7027 64.1818C63.7258 64.08 63.7373 63.9329 63.7373 63.9329C63.7373 63.865 63.7373 63.7972 63.7373 63.7293C63.7373 63.6614 63.7258 63.5935 63.7142 63.5256L63.6911 63.4464C63.6911 63.4464 63.6565 63.3446 63.6449 63.2881L63.6103 63.1975C63.5872 63.141 63.5641 63.0844 63.5526 63.0618C63.414 62.7789 63.3216 62.6432 63.2177 62.4848C63.1138 62.3377 63.0214 62.1906 62.929 62.0662C62.7327 61.7946 62.548 61.5457 62.3517 61.2968C61.9591 60.799 61.5665 60.3238 61.1739 59.8487C60.3771 58.9096 59.5688 57.9932 58.749 57.0994L56.6821 59.5319C58.7374 60.7877 60.8159 61.9983 62.9406 63.1523C64.0029 63.7293 65.0768 64.2837 66.1853 64.8267C66.7396 65.0983 67.2938 65.3585 67.8827 65.6074C68.1714 65.7318 68.4716 65.8563 68.8065 65.9807C68.9797 66.0373 69.1413 66.1052 69.3954 66.173C69.4762 66.1957 69.5455 66.207 69.6379 66.2296C69.7071 66.2409 69.788 66.2523 69.8573 66.2523H69.915C69.915 66.2523 70.0189 66.2523 70.0651 66.2523C70.169 66.2523 70.273 66.2409 70.3769 66.2183H70.4577C70.4577 66.2183 70.6078 66.1617 70.6886 66.1278C70.8849 66.0486 71.0928 65.9242 71.2545 65.7771C71.3353 65.6979 71.4046 65.6187 71.4739 65.5395C71.5316 65.4603 71.5893 65.3811 71.6355 65.268C71.7394 65.0643 71.7972 64.7928 71.7972 64.5326C71.7972 64.4081 71.7856 64.2723 71.751 64.1592C71.7279 64.0347 71.6817 63.9329 71.6817 63.9329C71.6586 63.8764 71.6355 63.8198 71.6124 63.7745C71.5547 63.6727 71.4969 63.5596 71.4161 63.4691C71.3353 63.3672 71.3007 63.3333 71.2429 63.2767C71.1736 63.2088 71.1505 63.1862 71.1159 63.1636C70.8619 62.9486 70.7117 62.8581 70.5616 62.7563C70.4115 62.6545 70.2614 62.5753 70.1229 62.4848C69.8457 62.3151 69.5686 62.1567 69.2915 62.0096C68.7488 61.7154 68.1945 61.4326 67.6518 61.1497C66.5664 60.6067 65.4694 60.0863 64.3724 59.5771C62.1785 58.5589 59.973 57.6085 57.7675 56.6695L57.167 60.0297C62.7096 59.7582 68.2522 59.1133 73.714 57.8122C76.4391 57.156 79.1527 56.3414 81.7969 55.21C83.1248 54.633 84.4297 53.9881 85.7114 53.1283C86.358 52.687 86.9931 52.2119 87.6282 51.4878C87.94 51.1144 88.2864 50.6958 88.5289 49.9265C88.5866 49.7568 88.6328 49.5079 88.6443 49.259C88.679 49.0327 88.6328 48.7159 88.5751 48.4444C88.5173 48.1728 88.3672 47.8787 88.2171 47.6298C88.067 47.4148 87.8707 47.1886 87.6859 47.0302C87.5127 46.8944 87.3164 46.7586 87.1432 46.6568C86.9816 46.5776 86.8199 46.4984 86.6582 46.4305C86.3696 46.34 86.0693 46.2495 85.8268 46.2156C85.6998 46.1929 85.5728 46.1703 85.4458 46.159L85.0994 46.1251C84.8569 46.1024 84.6606 46.1024 84.4412 46.1024C83.5867 46.1024 82.8246 46.2043 82.0741 46.3174C80.596 46.5663 79.1988 46.9397 77.8363 47.3696C75.1112 48.2294 72.5246 49.2816 69.9958 50.4356C64.9382 52.7549 60.1231 55.4476 55.435 58.31L58.5758 61.2176C62.3748 54.6896 66.0236 48.071 69.3954 41.2828C71.0813 37.8886 72.6978 34.4606 74.199 30.942C74.9495 29.177 75.6654 27.4121 76.3121 25.5679C76.6354 24.6402 76.9472 23.7125 77.2127 22.7056C77.3513 22.1964 77.4783 21.6873 77.5707 21.0538C77.6169 20.7257 77.6746 20.4089 77.6284 19.7979V19.6848L77.5938 19.5264C77.5707 19.4133 77.5707 19.3454 77.513 19.1757C77.4899 19.0965 77.4668 19.0286 77.4437 18.9494L77.3975 18.8363L77.3167 18.6666C77.2589 18.5534 77.2012 18.4403 77.1319 18.3385C77.1088 18.2932 77.0395 18.2027 76.9818 18.1348C76.9241 18.0556 76.8548 17.9877 76.7855 17.9085C76.5546 17.6483 76.0465 17.3202 75.5731 17.1958C75.1458 17.0713 74.5916 17.0826 74.3491 17.1279C74.199 17.1505 74.0257 17.1958 73.8987 17.2297C73.8064 17.2636 73.714 17.2976 73.6216 17.3315C73.5408 17.3655 73.4253 17.422 73.3791 17.456L73.2175 17.5465L73.0558 17.6483L72.9403 17.7275L72.7325 17.8859C72.6401 17.9651 72.5246 18.0782 72.4553 18.1461C72.2937 18.3045 72.1782 18.4516 72.0627 18.576C71.8434 18.8476 71.6702 19.0738 71.5085 19.3114C71.1852 19.7753 70.908 20.2165 70.6425 20.6578C70.1228 21.5289 69.6494 22.4001 69.1991 23.2599C68.2984 24.991 67.4786 26.722 66.6934 28.453C65.123 31.9263 63.6796 35.4336 62.2939 38.9635C59.5457 46.0119 57.0516 53.1396 54.7075 60.3012L60.7466 60.6293C59.8113 55.5494 58.7721 50.4809 57.5943 45.4236C56.428 40.3777 55.1232 35.343 53.6336 30.3424C52.1325 25.3417 50.4697 20.3862 48.449 15.4761C47.4329 13.021 46.3243 10.5772 44.9964 8.14476C44.3152 6.92287 43.6108 5.7123 42.6755 4.43384C42.1905 3.78896 41.694 3.15538 40.851 2.39736C40.6316 2.20503 40.3892 2.00139 40.0658 1.78643C39.9273 1.6846 39.6963 1.56014 39.5116 1.45832C39.4077 1.40175 39.2691 1.33387 39.1421 1.28862C39.015 1.23205 38.8996 1.18678 38.7264 1.1189C38.1606 0.915252 37.1214 0.688987 35.9205 1.00577C35.6202 1.08497 35.3316 1.18679 35.0544 1.33386C34.7773 1.46963 34.5117 1.63934 34.3038 1.79773C34.1999 1.87693 34.096 1.96743 33.9921 2.05794L33.842 2.19372L33.7265 2.31817C33.5764 2.48788 33.4378 2.65758 33.3108 2.8386C33.1261 3.12144 32.9298 3.47216 32.8374 3.69844C32.7796 3.82289 32.7334 3.95866 32.6873 4.07179L32.5833 4.38858C32.4563 4.80719 32.4101 5.13529 32.3639 5.44077C32.2831 6.0404 32.2831 6.52689 32.2831 6.97944C32.3062 7.87323 32.387 8.64257 32.5025 9.38928C32.7219 10.8714 33.0337 12.229 33.3801 13.564C34.0729 16.2228 34.9159 18.7571 35.8165 21.2574C37.6294 26.2468 39.6963 31.0664 41.9018 35.8069C46.3013 45.2992 51.2434 54.4746 56.4049 63.5143C57.779 65.9128 60.8736 66.7614 63.3101 65.415C65.7581 64.0687 66.6241 61.0366 65.25 58.6494C65.2153 58.5928 65.1692 58.5136 65.1345 58.4571C62.4094 54.1578 59.7651 49.802 57.2248 45.401C54.6844 40.9999 52.2365 36.5649 49.9501 32.0507C47.6754 27.5479 45.5276 22.9884 43.6801 18.3724C42.7563 16.0757 41.9134 13.7564 41.2321 11.471C40.8972 10.3396 40.597 9.19694 40.4122 8.14476C40.3199 7.62432 40.2506 7.1152 40.2275 6.74184C40.2159 6.54951 40.2275 6.40243 40.2275 6.36849C40.2275 6.35717 40.2275 6.36849 40.1929 6.48163C40.1929 6.51557 40.1698 6.53821 40.1582 6.56084C40.1467 6.60609 40.1236 6.66265 40.1005 6.7079C40.0658 6.77578 39.9619 7.00207 39.858 7.13783C39.7772 7.25097 39.6963 7.3641 39.5924 7.46592L39.4192 7.64695C39.3499 7.71483 39.2807 7.7714 39.1998 7.83928C39.0497 7.9411 38.865 8.07687 38.6571 8.1787C38.4493 8.28052 38.2414 8.35972 38.022 8.41629C37.1329 8.65388 36.4285 8.46154 36.1745 8.37103L35.9782 8.29184C35.9782 8.29184 35.8627 8.23526 35.8396 8.22394C35.7934 8.20132 35.7126 8.14476 35.7011 8.14476C35.6549 8.11081 35.6549 8.11082 35.6895 8.13345C35.8165 8.22396 36.1514 8.58599 36.4516 8.97066C37.0752 9.75131 37.7103 10.7469 38.2992 11.7652C39.4885 13.8129 40.5739 16.0305 41.5901 18.2932C43.6108 22.83 45.3544 27.5592 46.9363 32.3449C48.5183 37.1419 49.927 42.0068 51.2088 46.9057C52.4789 51.8159 53.6105 56.7713 54.6382 61.7381L57.1324 73.7759L60.6773 62.0662C62.8366 54.9385 65.123 47.8561 67.6749 40.8755C68.945 37.3908 70.2845 33.9288 71.7279 30.546C72.4554 28.8489 73.2059 27.1745 74.0027 25.5566C74.4068 24.7534 74.811 23.9501 75.2382 23.2034C75.446 22.83 75.6654 22.468 75.8733 22.1625C75.9772 22.0041 76.0811 21.857 76.162 21.7665L76.2428 21.676C76.2428 21.676 76.2312 21.6873 76.2197 21.6986C76.2082 21.71 76.1735 21.7326 76.1504 21.7439L76.0234 21.8231L75.931 21.8684C75.931 21.8684 75.8156 21.9249 75.7694 21.9475C75.7116 21.9702 75.6423 21.9928 75.5846 22.0154C75.4922 22.0494 75.3537 22.0833 75.2267 22.1059C75.0419 22.1399 74.5454 22.1625 74.1759 22.0381C73.7602 21.9362 73.3098 21.6308 73.1135 21.4271C73.0558 21.3706 72.9981 21.3027 72.9403 21.2348C72.8826 21.1669 72.8364 21.0877 72.8133 21.0651C72.7556 20.9859 72.7094 20.8954 72.6632 20.8162C72.6401 20.7709 72.617 20.7257 72.6055 20.6804L72.5708 20.6012C72.5708 20.6012 72.5362 20.5107 72.5246 20.4541C72.49 20.3297 72.49 20.3297 72.4784 20.2731V20.1713C72.4669 20.0242 72.4784 20.1826 72.4438 20.3071C72.4092 20.6012 72.3168 21.0085 72.2244 21.4045C72.0281 22.2078 71.7625 23.0676 71.4739 23.9161C70.9081 25.6245 70.2499 27.3329 69.557 29.0413C68.1714 32.458 66.6472 35.8409 65.0421 39.1897C61.8436 45.8988 58.3448 52.506 54.696 59.0341L50.4582 66.6143L57.8368 61.9417C62.3632 59.068 67.0051 56.3867 71.7972 54.09C74.199 52.9473 76.6354 51.9064 79.0949 51.0918C80.3304 50.6845 81.566 50.3451 82.7669 50.1188C83.3558 50.017 83.9562 49.9378 84.4758 49.9265C84.6029 49.9265 84.7299 49.9265 84.8338 49.9265H84.9955L85.1225 49.9604C85.2264 49.9604 85.2379 49.9944 85.2841 49.9944C85.2841 49.9944 85.2611 49.9944 85.2611 49.9831C85.238 49.9717 85.1687 49.9378 85.1456 49.8925C85.0878 49.8473 84.9955 49.7568 84.9493 49.6663C84.8569 49.5644 84.8223 49.4287 84.7876 49.3155C84.7414 49.2024 84.7645 49.0553 84.753 48.9988C84.753 48.9196 84.7876 48.8404 84.7761 48.8291C84.8338 48.6933 84.7761 48.8404 84.649 48.9761C84.4066 49.2703 83.9678 49.6323 83.4943 49.9604C82.5359 50.6279 81.4043 51.2049 80.2381 51.7254C77.894 52.7549 75.3767 53.5582 72.8133 54.1918C67.6749 55.4702 62.3401 56.1491 56.9823 56.4772L49.3035 56.941L56.3818 59.8373C58.5758 60.7425 60.7582 61.6589 62.9059 62.6319C63.9798 63.1183 65.0537 63.6161 66.0929 64.1253C66.6125 64.3855 67.1322 64.6457 67.6287 64.9059C67.8827 65.0417 68.1252 65.1774 68.3562 65.3019L68.6795 65.4942C68.7718 65.5508 68.8758 65.63 68.8527 65.6074C68.8527 65.6074 68.8527 65.6074 68.8065 65.5621C68.7718 65.5282 68.7603 65.5168 68.7026 65.449C68.6448 65.3698 68.5871 65.2793 68.5409 65.1888C68.5178 65.1435 68.4947 65.0983 68.4832 65.053C68.4832 65.053 68.4485 64.9625 68.4139 64.838C68.3908 64.7249 68.3677 64.6004 68.3677 64.476C68.3677 64.2271 68.4254 63.9669 68.5294 63.7632C68.5871 63.6614 68.6333 63.5822 68.691 63.503C68.7487 63.4238 68.818 63.3446 68.8988 63.2654C69.049 63.1183 69.2453 62.9939 69.4416 62.926C69.5108 62.8921 69.6725 62.8581 69.661 62.8581H69.7187C69.7995 62.8242 69.8919 62.8129 69.9727 62.8129C70.0189 62.8129 70.0651 62.8129 70.0998 62.8129H70.1229C70.1229 62.8129 70.1921 62.8129 70.2268 62.8242C70.2499 62.8242 70.2499 62.8242 70.2499 62.8242C70.2152 62.8242 70.0882 62.7789 69.9843 62.745C69.7533 62.6658 69.4993 62.564 69.2453 62.4508C68.7256 62.2359 68.206 61.9983 67.6864 61.7494C66.6356 61.2516 65.5964 60.7198 64.5572 60.1768C62.4787 59.0793 60.4349 57.914 58.4026 56.7147L48.6684 50.9221L56.3357 59.1472C57.144 60.0184 57.9407 60.8895 58.7143 61.7833C59.0954 62.2246 59.4765 62.6771 59.8344 63.1183C60.0076 63.3446 60.1808 63.5596 60.3425 63.7858L60.5619 64.1026C60.6196 64.1932 60.6889 64.3176 60.6889 64.295V64.261L60.6542 64.2271C60.6427 64.1931 60.6312 64.1592 60.6196 64.1253V64.0687C60.5965 64.0121 60.585 63.9556 60.585 63.8877C60.585 63.8311 60.585 63.7632 60.585 63.7067C60.585 63.7067 60.585 63.5709 60.6196 63.4691C60.6427 63.3672 60.6774 63.2654 60.7235 63.1636C60.7697 63.0618 60.8159 62.9713 60.8852 62.8921C60.9083 62.8581 60.9545 62.8015 61.0122 62.745C61.07 62.6884 61.1277 62.6318 61.197 62.5753C61.324 62.4735 61.4856 62.3829 61.6473 62.3264C61.7974 62.2698 62.0053 62.2472 62.0284 62.2472C62.1554 62.2359 62.2824 62.2472 62.4094 62.2472C62.4787 62.2472 62.5364 62.2698 62.5942 62.2924L62.6634 62.3151C62.7327 62.3377 62.802 62.3716 62.8713 62.4056L62.9406 62.4395L63.0099 62.4848C62.9752 62.4508 62.8828 62.3716 62.802 62.2811C62.6288 62.1001 62.4441 61.8964 62.2708 61.6815C61.9129 61.2516 61.5665 60.799 61.2201 60.3465C60.5388 59.4187 59.8921 58.4571 59.2686 57.4615L59.361 57.6312C58.6104 56.0586 57.6289 54.848 56.6012 53.6714C56.0816 53.0943 55.5389 52.54 54.9616 51.9969C54.6729 51.7254 54.3727 51.4652 54.0262 51.1936C53.9339 51.1258 53.853 51.0579 53.7376 50.9787C53.6914 50.9447 53.6106 50.8995 53.5413 50.8542L53.4027 50.775C53.4027 50.775 53.241 50.6958 53.1602 50.6619C53.0794 50.6279 52.9408 50.594 52.8369 50.5827H52.7561C52.7561 50.5827 52.6868 50.5601 52.6406 50.5601C52.5944 50.5601 52.5367 50.5601 52.4905 50.5601C52.2826 50.5714 52.0632 50.6279 51.89 50.7185C51.8207 50.7524 51.6591 50.8429 51.5436 50.956C51.4166 51.0692 51.3011 51.2163 51.2203 51.3747C51.1395 51.5217 51.0817 51.7028 51.0702 51.8159C51.0702 51.8725 51.0586 51.9177 51.0586 51.9743C51.0586 52.0874 51.0587 52.2006 51.0702 52.3024C51.0702 52.3589 51.0933 52.4155 51.1048 52.4608V52.506C51.1626 52.6305 51.2318 52.7889 51.2434 52.8228C51.2665 52.8794 51.3127 52.9586 51.3358 52.9812C51.4282 53.1396 51.509 53.2414 51.5783 53.3319C51.8669 53.694 52.121 53.9768 52.3866 54.2597C52.6521 54.5425 52.9062 54.814 53.1718 55.0856C53.7029 55.6286 54.2225 56.1491 54.7653 56.6695C55.8276 57.7104 56.913 58.7173 57.9869 59.7242L58.8183 57.2239C52.733 58.0385 46.6707 59.3169 40.8395 61.3873C37.9296 62.4282 35.066 63.6614 32.3524 65.2793C31.0014 66.0939 29.685 66.9876 28.4726 68.119C27.8721 68.696 27.2832 69.307 26.7752 70.1442C26.5327 70.5854 26.2902 71.038 26.2094 71.7281C26.1978 71.8978 26.2094 72.1015 26.2094 72.2825C26.2209 72.4748 26.2902 72.6898 26.3479 72.8934C26.4288 73.0971 26.5442 73.2894 26.6597 73.4704C26.7983 73.6288 26.9484 73.7872 27.0985 73.923C27.7451 74.4208 28.334 74.5113 28.8421 74.6018L29.2231 74.6471C29.3502 74.6471 29.4656 74.6471 29.5811 74.6471C29.8236 74.6471 30.043 74.6471 30.2739 74.6244C31.1631 74.5565 31.9714 74.3755 32.7681 74.1719C34.3385 73.742 35.805 73.165 37.2252 72.5314C40.0658 71.2529 42.7448 69.7369 45.3429 68.119C50.5275 64.8606 55.3657 61.195 60.0423 57.3483L57.9522 55.9794C55.4581 63.7859 53.1602 71.6602 51.1048 79.6025C50.0887 83.5736 49.1418 87.5674 48.3335 91.6064C47.9294 93.6203 47.5599 95.6567 47.2596 97.7045C47.1095 98.7341 46.9825 99.7636 46.9017 100.827C46.8671 101.359 46.8324 101.902 46.844 102.479C46.844 102.773 46.8555 103.067 46.9363 103.463L46.971 103.622L47.0287 103.814C47.0518 103.882 47.098 103.972 47.1326 104.052C47.1673 104.131 47.2712 104.278 47.352 104.38C47.4213 104.459 47.5137 104.549 47.6061 104.617C47.6754 104.674 47.8255 104.764 47.9871 104.821C48.1488 104.877 48.2989 104.911 48.4606 104.911C48.6107 104.911 48.807 104.889 48.8993 104.866C49.0033 104.832 49.1072 104.798 49.1996 104.753C49.2573 104.73 49.2919 104.708 49.315 104.696L49.3959 104.64C49.3959 104.64 49.4998 104.561 49.546 104.527L49.6383 104.436C49.8808 104.199 49.9732 104.04 50.0771 103.882C50.1695 103.723 50.2504 103.588 50.3196 103.452C50.4582 103.18 50.5737 102.92 50.6776 102.66C50.8855 102.151 51.0702 101.642 51.2318 101.144C51.5667 100.137 51.8554 99.1414 52.1325 98.1344C52.6752 96.1319 53.1602 94.1294 53.599 92.1155C54.4881 88.0991 55.2618 84.0714 55.9661 80.0324C56.6705 75.9934 57.3056 71.9431 57.8945 67.8927C58.4949 63.8424 59.0377 59.7808 59.5457 55.7191L56.3357 56.0246C57.8945 60.9687 59.5226 65.8902 61.2547 70.7891C62.9868 75.6879 64.8227 80.5415 66.7742 85.3725C68.7372 90.2035 70.8388 94.9779 73.1828 99.6844C74.3606 102.038 75.5962 104.368 76.9934 106.676C77.6977 107.83 78.4367 108.973 79.3028 110.116C79.7416 110.693 80.2034 111.27 80.8385 111.881C81.0002 112.039 81.1734 112.197 81.3928 112.367C81.6006 112.537 81.8662 112.718 82.2242 112.91C82.4436 113.012 82.6399 113.103 82.9863 113.193C83.0671 113.216 83.1248 113.227 83.2403 113.25C83.3442 113.261 83.4597 113.284 83.5636 113.284C83.6791 113.284 83.7715 113.295 83.91 113.284C84.0486 113.284 84.1987 113.261 84.3373 113.238C84.6029 113.193 84.9262 113.091 85.2033 112.944C85.492 112.797 85.7114 112.616 85.9308 112.412C86.1271 112.22 86.2425 112.05 86.3811 111.847C86.4966 111.666 86.5543 111.53 86.6236 111.372L86.6698 111.258L86.7044 111.168L86.7622 110.987L86.8084 110.806L86.843 110.659L86.8892 110.365L86.9123 110.127C86.9354 109.81 86.9354 109.55 86.9123 109.312C86.8892 108.837 86.8314 108.43 86.7622 108.045C86.6236 107.276 86.4504 106.586 86.2656 105.907C85.8846 104.549 85.4458 103.271 84.9839 102.015C84.0486 99.5034 83.0209 97.0596 81.9355 94.6611C79.7531 89.8528 77.3744 85.1915 74.8802 80.5755C72.3976 75.9595 69.8226 71.4 67.1668 66.9085C65.8273 64.657 64.4994 62.4056 63.1484 60.1768L59.0377 53.4903C57.7675 51.4199 55.0308 50.7524 52.9177 51.9969C50.8046 53.2414 50.1233 55.9228 51.3935 57.9932C51.4628 58.1063 51.5321 58.2082 51.6014 58.31V58.3326L51.5552 58.4571Z" fill="#070600"/>
        <path id="Vector_2" d="M58.6245 52.4497C49.6755 57.9256 40.5186 63.0959 31.1655 67.8138C26.4774 70.1557 21.7431 72.3958 16.9511 74.4097C14.5493 75.4166 12.136 76.367 9.7111 77.1703C8.49866 77.5776 7.28622 77.9509 6.10842 78.2451C5.51952 78.3922 4.94217 78.5166 4.411 78.5958C4.15697 78.6297 3.90292 78.6637 3.71817 78.675H3.60269C3.60269 78.675 3.55652 78.675 3.54497 78.675C3.54497 78.675 3.54498 78.675 3.55653 78.675L3.59117 78.6863C3.62581 78.6863 3.63734 78.6976 3.68353 78.7203C3.74126 78.7429 3.81054 78.7655 3.85673 78.7994C3.93756 78.8334 4.06458 78.9013 4.14541 78.9805C4.24933 79.0597 4.42255 79.2067 4.52648 79.3538C4.81516 79.6932 4.98836 80.225 4.98836 80.5983C4.98836 80.983 4.90751 81.1866 4.86132 81.3224C4.83823 81.379 4.81513 81.4242 4.79204 81.4695C4.79204 81.4921 4.76894 81.5148 4.7574 81.5261C4.72276 81.56 4.74586 81.5487 4.73431 81.5487L4.78052 81.4921C4.78052 81.4921 4.89599 81.3677 4.96527 81.2998C5.30014 80.9943 5.762 80.6436 6.24698 80.3155C7.22848 79.648 8.32544 79.0144 9.4455 78.4035C11.6856 77.1929 14.0412 76.0728 16.4199 75.0207C21.2004 72.9163 26.1079 71.0495 31.0732 69.2959C41.0152 65.8226 51.1766 62.8923 61.4304 60.3014L67.585 58.7515L61.4304 57.3033C53.5207 55.4478 45.6571 53.3548 37.909 50.9676C34.0408 49.7683 30.1956 48.4672 26.4428 47.0191C24.5606 46.295 22.7015 45.5257 20.9002 44.6884C19.9995 44.2698 19.1104 43.8286 18.2675 43.3534C17.8518 43.1158 17.4361 42.8669 17.0666 42.618C16.8818 42.4936 16.7086 42.3578 16.5701 42.2447C16.4315 42.1428 16.316 41.9731 16.3622 42.0523C16.3622 42.0523 16.3853 42.0863 16.3969 42.1202C16.3969 42.1315 16.3968 42.1542 16.4084 42.1655C16.4084 42.1994 16.4315 42.2333 16.4315 42.256C16.4315 42.2899 16.4315 42.3126 16.4315 42.3578C16.4315 42.4031 16.4315 42.4596 16.4315 42.5049C16.42 42.5954 16.3853 42.7198 16.3391 42.8217C16.2814 42.9235 16.2352 42.9914 16.1659 43.0706C16.1197 43.1271 16.0735 43.1611 16.0158 43.195C15.9811 43.2176 15.9581 43.229 15.935 43.2403C15.9003 43.2403 15.9119 43.2516 15.9003 43.2516C15.8657 43.2516 15.9234 43.2516 15.9927 43.2403C16.062 43.2403 16.1544 43.2403 16.2467 43.2403C16.6393 43.2403 17.1012 43.3082 17.5631 43.376C18.4984 43.5344 19.4568 43.7607 20.4152 44.0209C22.332 44.5414 24.2489 45.1636 26.1426 45.8424C29.93 47.2001 33.6713 48.7388 37.3663 50.3906C44.7449 53.7168 51.9387 57.439 58.994 61.3989L65.2871 64.9288L60.6798 59.4303C56.8347 54.8369 53.0588 50.1982 49.3868 45.4917C47.5508 43.1385 45.7495 40.7626 43.9943 38.3527C43.1167 37.1535 42.2623 35.9429 41.4309 34.721C41.0152 34.1101 40.611 33.4991 40.23 32.8882C40.0452 32.5827 39.8605 32.2772 39.6873 31.9831C39.6064 31.836 39.5256 31.6889 39.4563 31.5532L39.3755 31.3721C39.3755 31.3721 39.3409 31.2816 39.3524 31.3269C39.3524 31.3608 39.3524 31.3608 39.3755 31.4287C39.3755 31.5305 39.3986 31.5418 39.3524 31.8247C39.3409 31.8813 39.3293 31.9265 39.2947 31.9944C39.2485 32.1075 39.1792 32.232 39.0984 32.3338C39.006 32.447 38.9252 32.5148 38.8097 32.6053C38.6942 32.6845 38.5441 32.7524 38.4055 32.7977C38.2323 32.8429 38.1515 32.8429 38.0938 32.8542C38.0245 32.8542 37.9437 32.8542 37.8744 32.8542C37.6896 32.8203 37.7012 32.8203 37.6319 32.809L37.5511 32.7864L37.5049 32.7637L37.4587 32.7411L37.4125 32.7185C37.4818 32.775 37.5973 32.8769 37.7127 32.99C37.9437 33.2163 38.1862 33.4765 38.4171 33.748C38.8905 34.2798 39.364 34.8455 39.8143 35.4225C40.7381 36.5652 41.6387 37.7531 42.5279 38.9411C44.3061 41.3283 46.0266 43.7607 47.7125 46.2158C51.0842 51.126 54.352 56.1267 57.5044 61.1952L62.6313 69.443L60.2988 60.0412C59.1787 55.5497 58.151 51.0355 57.2619 46.4986C56.8231 44.2359 56.419 41.9618 56.0956 39.6991C55.934 38.5677 55.7954 37.4363 55.6915 36.3163C55.6453 35.7619 55.5991 35.2075 55.5876 34.6645C55.5876 34.3929 55.5876 34.1327 55.5876 33.8951C55.5876 33.7707 55.5876 33.6688 55.6107 33.5783C55.6107 33.4991 55.6453 33.3973 55.6107 33.4765V33.5217C55.6107 33.5217 55.5645 33.5896 55.5529 33.6123C55.5298 33.6575 55.4837 33.7367 55.449 33.7933C55.4259 33.8159 55.3682 33.8951 55.322 33.9404C55.2643 33.9969 55.2412 34.0196 55.1488 34.0988C54.9525 34.2458 54.7446 34.359 54.3982 34.4155C54.3174 34.4269 54.2366 34.4269 54.1557 34.4269C54.0865 34.4269 54.0287 34.4269 53.9594 34.4269C53.8324 34.4155 53.6823 34.3703 53.5899 34.3363C53.2435 34.2006 53.1281 34.0648 53.0588 34.0082C52.9318 33.8612 52.9433 33.8725 52.9318 33.8612L52.9664 33.929C53.0357 34.0761 53.1165 34.3137 53.1973 34.5513C53.3474 35.0378 53.486 35.5696 53.613 36.1126C53.8555 37.1987 54.0634 38.3075 54.2481 39.4389C54.6176 41.6903 54.8947 43.9644 55.1372 46.2497C55.5991 50.8205 55.8763 55.4252 56.0264 60.0412L56.315 68.6849L59.6175 60.6408C60.5875 58.265 61.6151 55.9117 62.7352 53.6376C63.301 52.5063 63.8899 51.3862 64.5135 50.3227C64.8252 49.791 65.1485 49.2705 65.4834 48.8067C65.6451 48.5691 65.8183 48.3428 65.9799 48.1618C66.0146 48.1165 66.0608 48.0713 66.0954 48.026C66.13 47.9807 66.1647 47.9468 66.1993 47.9242C66.2571 47.8563 66.3148 47.8337 66.2109 47.9016C66.1878 47.9129 66.1762 47.9242 66.1531 47.9355L66.0377 47.9921C66.0377 47.9921 65.9222 48.0373 65.8645 48.0486C65.8529 48.0486 65.7605 48.0713 65.7028 48.0826C65.6335 48.0939 65.5642 48.1052 65.5065 48.1052C65.4372 48.1052 65.3679 48.1052 65.3102 48.1052C65.2063 48.1052 65.0908 48.0826 64.9869 48.0599C64.7675 48.0034 64.5712 47.9015 64.398 47.7884C64.3056 47.7318 64.2248 47.6527 64.1555 47.5735C64.1208 47.5395 64.0862 47.4943 64.0516 47.449L63.9823 47.3698C63.9015 47.268 63.8437 47.1548 63.7975 47.0304L63.7513 46.9173L63.7282 46.8381C63.7282 46.8381 63.7052 46.7023 63.7052 46.691C63.7052 46.6457 63.7052 46.5892 63.7052 46.5665C63.7052 46.5665 63.7052 46.5439 63.7052 46.5326C63.7052 46.5326 63.7052 46.5439 63.7052 46.5552C63.7052 46.6457 63.6243 46.8946 63.5435 47.1322C63.3703 47.6187 63.1278 48.1618 62.8507 48.6935C62.308 49.757 61.6613 50.8092 60.9685 51.8387C59.5713 53.8978 57.9663 55.8551 56.2573 57.7106L49.2251 65.3361L58.6937 60.8784C59.0401 60.7087 59.3981 60.5503 59.7676 60.3467C59.9524 60.2449 60.1487 60.143 60.3565 60.0073L60.5297 59.8942C60.5297 59.8942 60.6452 59.8149 60.7145 59.7584C60.7837 59.7018 60.8415 59.6679 60.9454 59.566L61.084 59.4416C61.1417 59.385 61.2341 59.2832 61.3034 59.1927L61.3611 59.1248L61.3842 59.0909L61.4304 59.0117C61.4997 58.8985 61.5689 58.7741 61.6151 58.6383C61.6382 58.5704 61.6613 58.5139 61.6844 58.446C61.6844 58.446 61.7191 58.3215 61.7306 58.2536C61.7422 58.1744 61.7537 58.0839 61.7653 58.0047C61.7653 57.835 61.7652 57.6653 61.7422 57.4956C61.7075 57.3259 61.6729 57.1902 61.5921 57.0091C61.5112 56.8394 61.4073 56.6697 61.2687 56.5113C61.1994 56.4321 61.1302 56.3642 61.0609 56.2964L60.957 56.2059L60.8646 56.138C60.7145 56.0361 60.5413 55.9456 60.3565 55.8778L60.2179 55.8325L60.114 55.8099L59.987 55.7872C59.9062 55.7759 59.8254 55.7646 59.733 55.7533C59.4905 55.7307 59.3173 55.7533 59.2018 55.7533C59.0632 55.7646 58.9709 55.7872 58.8669 55.7986C58.4974 55.8778 58.2203 55.9683 57.9085 56.0927C57.5968 56.2398 57.2965 56.3643 56.8347 56.7829C56.7885 56.8281 56.7076 56.9186 56.6499 56.9865C56.5922 57.0657 56.5344 57.1223 56.4536 57.2467C56.3843 57.3599 56.3266 57.4617 56.2573 57.6088C56.188 57.7672 56.1418 57.9482 56.1072 58.1179C56.0726 58.2989 56.061 58.5252 56.0841 58.7288C56.0956 58.9438 56.1534 59.1135 56.2111 59.2945C56.2458 59.385 56.2804 59.4755 56.3266 59.5547C56.3612 59.6339 56.3959 59.6792 56.4421 59.7471C56.5229 59.8715 56.6037 59.9847 56.7076 60.0865L57.1118 56.9865C55.3451 58.1066 53.6592 59.3737 52.1119 60.8106C51.3383 61.5346 50.5992 62.2927 49.8949 63.1525C49.5484 63.5824 49.202 64.0237 48.8672 64.5781C48.694 64.8609 48.5323 65.1324 48.3476 65.6415C48.3014 65.7999 48.2552 65.9244 48.209 66.1846C48.209 66.2525 48.1975 66.2751 48.1859 66.3882C48.1859 66.4788 48.1859 66.5806 48.1859 66.6711V66.8182C48.1975 66.8974 48.2206 66.9879 48.2321 67.0671C48.2552 67.1463 48.2668 67.2368 48.3014 67.316L48.3476 67.4404L48.3707 67.497L48.4168 67.5875C48.5323 67.8251 48.7055 68.0627 48.8903 68.255C49.0866 68.4474 49.3522 68.6284 49.6293 68.7415C49.7794 68.8094 49.8718 68.832 49.9642 68.8547C50.0565 68.8773 50.1604 68.8999 50.2644 68.9112C50.3683 68.9225 50.4607 68.9338 50.5646 68.9338C50.6339 68.9338 50.6801 68.9338 50.7378 68.9338C50.8533 68.9338 50.9572 68.9112 51.0727 68.8886C51.1304 68.8773 51.1766 68.866 51.1997 68.8547L51.2921 68.832C51.4191 68.7981 51.5576 68.7415 51.6269 68.7189L51.8579 68.6057L52.0311 68.5152C52.1581 68.4474 52.2274 68.4021 52.3197 68.3342C52.4814 68.2211 52.6315 68.1193 52.7585 68.0174C53.0126 67.8138 53.2435 67.6214 53.4514 67.4291C53.8671 67.0444 54.2481 66.6711 54.6061 66.2864C55.3335 65.5284 56.0033 64.7478 56.6499 63.9784C57.9432 62.4171 59.1556 60.8332 60.3334 59.2266L56.1418 58.0274C56.3728 63.9671 57.0887 69.9295 58.6706 75.7787C59.4674 78.6976 60.4604 81.594 61.8807 84.4111C62.5966 85.8253 63.4049 87.2056 64.4904 88.5632C65.0562 89.2421 65.6566 89.9209 66.5804 90.5771C67.0769 90.9052 67.6196 91.2559 68.5434 91.4709C68.7974 91.5161 69.0514 91.5501 69.317 91.5614C69.6288 91.5614 69.929 91.5274 70.2523 91.4596C70.5757 91.369 70.9105 91.2559 71.1992 91.0862C71.3378 91.007 71.4763 90.9052 71.6149 90.8147C71.7535 90.7128 71.8689 90.611 71.9613 90.5092C72.0652 90.4074 72.1576 90.3056 72.25 90.1924C72.3424 90.0793 72.4347 89.9661 72.4809 89.8756C72.5964 89.6833 72.7234 89.4683 72.8158 89.276C72.8851 89.1063 72.9544 88.9253 73.0236 88.7443C73.0929 88.5632 73.1045 88.4275 73.1507 88.2691C73.2892 87.6355 73.3123 87.1377 73.3239 86.6286C73.3239 85.6556 73.1968 84.8071 73.0467 83.9812C72.735 82.352 72.2731 80.8472 71.7535 79.3878C70.7027 76.4801 69.421 73.7422 68.0238 71.0721C65.2294 65.7434 62.0193 60.7314 58.6245 55.8551L55.7261 60.5164C66.2455 62.0324 76.9035 62.9036 87.6769 62.666C93.0578 62.5303 98.4734 62.1116 103.912 61.116C106.637 60.5956 109.362 59.962 112.134 58.9325C113.531 58.4007 114.928 57.8124 116.429 56.8281C117.18 56.319 117.976 55.7533 118.819 54.6559C119.223 54.1015 119.685 53.3661 119.905 52.2687C119.928 52.1329 119.951 51.9971 119.974 51.8614C119.986 51.7143 119.997 51.5672 119.997 51.4201C120.009 51.126 119.986 50.8092 119.939 50.5037C119.893 50.1983 119.812 49.8928 119.708 49.6099C119.604 49.3384 119.489 49.0442 119.35 48.818C118.796 47.845 118.126 47.268 117.561 46.8494C116.983 46.4308 116.452 46.1705 115.967 45.9669C114.986 45.5483 114.143 45.322 113.323 45.141C111.695 44.7903 110.205 44.6658 108.739 44.5979C105.817 44.4735 103.034 44.6319 100.286 44.8808C94.8014 45.4125 89.4782 46.3968 84.2243 47.5848C73.7395 49.972 63.555 53.1625 53.5322 56.7263C50.8995 57.6653 49.5369 60.5164 50.4838 63.0959C51.4422 65.6755 54.352 67.0105 56.9848 66.0828C57.0541 66.0602 57.1349 66.0262 57.2042 65.9923C61.9731 64.0463 66.7998 62.2135 71.6611 60.539C76.5224 58.8646 81.4184 57.3146 86.3605 56.0248C91.2911 54.7351 96.2794 53.6376 101.222 52.9927C103.681 52.676 106.152 52.461 108.485 52.4836C109.639 52.4949 110.771 52.5741 111.718 52.7438C112.18 52.823 112.607 52.9362 112.838 53.0267C112.953 53.0719 113.023 53.1059 112.965 53.072C112.93 53.0267 112.734 52.9135 112.503 52.4949C112.457 52.4044 112.376 52.2687 112.353 52.1442C112.295 52.0084 112.272 51.8614 112.249 51.7143C112.214 51.5672 112.226 51.4088 112.226 51.2731C112.226 51.2052 112.226 51.1373 112.249 51.0694C112.249 51.0128 112.261 50.9563 112.272 50.8997C112.376 50.4471 112.515 50.2888 112.538 50.2548C112.607 50.1982 112.376 50.4585 112.053 50.6847C111.395 51.1599 110.39 51.6577 109.351 52.0763C107.238 52.9362 104.859 53.5811 102.446 54.1128C97.5958 55.1537 92.5151 55.6967 87.4113 55.9796C77.1921 56.5226 66.8344 55.9004 56.5575 54.6559L49.6408 53.8186L53.6592 59.3058C57.054 63.9558 60.2757 68.7302 63.0239 73.6856C64.398 76.1633 65.6451 78.6863 66.6381 81.2319C67.1231 82.4991 67.5388 83.7888 67.8044 84.9994C67.9314 85.599 68.0238 86.1987 68.0353 86.6738C68.0353 86.9001 68.0353 87.1264 68.0122 87.2056C68.0122 87.2169 68.0122 87.2735 68.0122 87.2508C68.0122 87.2508 68.0122 87.2395 68.0238 87.2282C68.0238 87.2056 68.0584 87.1377 68.093 87.1037C68.1046 87.1037 68.1277 87.0585 68.1623 87.0133C68.197 86.968 68.2316 86.934 68.2663 86.9001C68.4279 86.7417 68.7281 86.5494 69.0283 86.4928C69.1669 86.4589 69.2824 86.4362 69.4094 86.4589C69.5018 86.4589 69.5595 86.4589 69.6403 86.4815C69.8251 86.5268 69.7212 86.5154 69.6057 86.4362C69.317 86.2552 68.9129 85.8479 68.5318 85.4067C67.7697 84.4903 67.0654 83.3589 66.4418 82.1823C65.1947 79.8064 64.2248 77.1816 63.4511 74.5115C61.9038 69.1375 61.1071 63.5032 60.7837 57.835L60.4142 51.2391L56.5922 56.6245C55.4837 58.1971 54.3405 59.7358 53.1627 61.2179C52.5738 61.9533 51.9618 62.6773 51.3498 63.3448C51.038 63.6729 50.7378 64.001 50.4376 64.2839C50.2875 64.431 50.1374 64.5554 50.0103 64.6572C49.9411 64.7138 49.8949 64.7477 49.8487 64.7817C49.8487 64.7817 49.8025 64.8156 49.8256 64.8043C49.8256 64.8043 49.8718 64.7817 49.8949 64.7704C49.8949 64.7704 49.9873 64.7364 50.0565 64.7138L50.1835 64.6799C50.2644 64.6572 50.3452 64.6459 50.426 64.6459H50.553C50.6339 64.6459 50.7263 64.6459 50.8071 64.6459C50.8879 64.6459 50.9803 64.6685 51.0611 64.6912C51.142 64.7138 51.2112 64.7364 51.3498 64.793C51.5923 64.8948 51.8348 65.0532 52.008 65.2343C52.1812 65.3926 52.3313 65.6076 52.4352 65.8226L52.493 65.947L52.5276 66.0488C52.5507 66.1167 52.5622 66.1846 52.5853 66.2525C52.5969 66.3204 52.6084 66.3882 52.62 66.4561V66.558C52.62 66.6258 52.62 66.6937 52.62 66.7503V66.8634C52.5853 67.0105 52.5738 67.0105 52.5622 67.0558C52.5391 67.101 52.6084 66.9426 52.6893 66.8069C52.8625 66.524 53.1049 66.1733 53.3705 65.8452C53.9017 65.1777 54.5137 64.5215 55.1603 63.8879C56.4651 62.6321 57.9201 61.4894 59.4674 60.4711L59.8715 57.3712C59.9408 57.4391 59.9986 57.5183 60.0563 57.6088C60.0794 57.654 60.1025 57.688 60.1256 57.7445C60.1602 57.8124 60.1949 57.8803 60.2179 57.9482C60.2757 58.0953 60.2988 58.2197 60.3219 58.3894C60.345 58.5478 60.3219 58.7288 60.2988 58.8646C60.2757 59.0004 60.241 59.1248 60.1833 59.2493C60.1371 59.3511 60.1025 59.419 60.0563 59.4869C59.9986 59.5661 59.9755 59.6 59.9408 59.6452C59.9177 59.6792 59.86 59.7358 59.8369 59.7471C59.6406 59.9168 59.6521 59.8715 59.6752 59.8715C59.6983 59.8602 59.7676 59.8376 59.7445 59.8376C59.733 59.8376 59.733 59.8376 59.6868 59.8376C59.6637 59.8376 59.5829 59.8489 59.4212 59.8376C59.3635 59.8376 59.2942 59.8263 59.2364 59.8149L59.1441 59.7923L59.0632 59.7697L58.9478 59.7358C58.7861 59.6792 58.636 59.6 58.509 59.5095L58.4282 59.4529L58.3242 59.3737C58.255 59.3171 58.1857 59.2493 58.1279 59.1814C58.0009 59.0343 57.897 58.8759 57.8277 58.7175C57.7584 58.5478 57.7122 58.412 57.6776 58.2536C57.643 58.0952 57.6429 57.9369 57.6429 57.7785C57.6429 57.6993 57.6545 57.6201 57.6776 57.5409C57.6776 57.473 57.7238 57.3599 57.7238 57.3599C57.7353 57.3033 57.7584 57.2467 57.7815 57.2015C57.8277 57.0883 57.8739 56.9865 57.9432 56.896L58.0356 56.7715C58.0356 56.7715 58.1395 56.6471 58.1626 56.6245C58.1741 56.6132 58.1857 56.6018 58.2088 56.5792C58.2549 56.5453 58.2319 56.5566 58.2319 56.5566C58.2319 56.5566 58.2319 56.5566 58.1972 56.5792L58.1395 56.6131C58.0471 56.6697 57.9201 56.7489 57.7931 56.8168C57.539 56.9639 57.2388 57.111 56.9386 57.258L59.375 60.4259C61.1763 58.4121 62.8507 56.2851 64.3402 53.9997C65.0793 52.857 65.7836 51.6804 66.4187 50.4132C66.7305 49.7796 67.0192 49.1234 67.2847 48.3994C67.4118 48.026 67.5272 47.6526 67.6081 47.0983C67.6081 47.0191 67.6312 46.9625 67.6312 46.872V46.6005C67.6427 46.4873 67.6311 46.3516 67.6196 46.2271C67.6196 46.1706 67.585 46.0461 67.5619 45.9556L67.5272 45.8085C67.5272 45.8085 67.5041 45.7293 67.4695 45.6388C67.4002 45.4804 67.3194 45.3333 67.227 45.1976C67.2039 45.1636 67.1924 45.141 67.1462 45.0844C67.1115 45.0392 67.0654 44.9939 67.0192 44.9487C66.9268 44.8581 66.8344 44.7676 66.7305 44.6998C66.5226 44.5527 66.2917 44.4509 66.0261 44.383C65.8991 44.349 65.7721 44.3264 65.6451 44.3151C65.5527 44.3151 65.4719 44.3151 65.3795 44.3151C65.2871 44.3151 65.2063 44.3264 65.1139 44.3377C65.0331 44.349 64.9176 44.3717 64.8945 44.383C64.8021 44.4169 64.6982 44.4395 64.6058 44.4848L64.4673 44.5414L64.3749 44.5866L64.2132 44.6771C63.8322 44.926 63.6474 45.107 63.4742 45.2768C63.3818 45.3673 63.3126 45.4465 63.2433 45.5257C63.1624 45.6049 63.1047 45.6841 63.0354 45.7633C62.7814 46.08 62.562 46.3742 62.3541 46.6797C61.9384 47.2793 61.5805 47.8676 61.2456 48.4672C60.5644 49.6552 59.9524 50.8431 59.375 52.0537C58.2203 54.4522 57.1926 56.8847 56.2227 59.3285L59.8023 59.9281C59.5944 55.2555 59.2595 50.5716 58.7399 45.9103C58.4743 43.5797 58.1626 41.2377 57.7469 38.9071C57.539 37.7418 57.3081 36.5652 57.0309 35.3885C56.8808 34.8002 56.7307 34.2006 56.5344 33.5783C56.4305 33.2615 56.3266 32.9561 56.1418 32.5714C56.0956 32.4696 56.0379 32.3678 55.9686 32.2433C55.8762 32.1075 55.8185 31.9831 55.5876 31.7455C55.4721 31.6324 55.2989 31.4513 54.8832 31.2816C54.7793 31.2364 54.6061 31.1911 54.456 31.1798C54.3751 31.1798 54.3059 31.1685 54.225 31.1685C54.1326 31.1685 54.0518 31.1685 53.9594 31.1911C53.5784 31.2477 53.3359 31.3835 53.105 31.5532C52.9895 31.6437 52.9548 31.6776 52.8856 31.7568C52.8278 31.8134 52.7585 31.9039 52.7239 31.9491C52.6662 32.0396 52.5969 32.1415 52.5622 32.2207C52.5276 32.2886 52.5045 32.3451 52.4814 32.413L52.4352 32.5601C52.3313 32.9221 52.3198 33.1145 52.2967 33.3181C52.2851 33.5104 52.2736 33.6915 52.262 33.8612C52.262 34.2006 52.262 34.5287 52.2736 34.8342C52.2967 35.4564 52.3544 36.0674 52.4121 36.667C52.5391 37.8663 52.7008 39.0429 52.874 40.2082C53.232 42.5388 53.6708 44.8468 54.1442 47.1435C55.091 51.7369 56.188 56.285 57.3658 60.7992L60.1602 59.6452C56.927 54.588 53.6477 49.5647 50.2066 44.6206C48.4861 42.1542 46.7425 39.6991 44.9181 37.2892C44.0059 36.0787 43.0821 34.8794 42.1237 33.7028C41.6387 33.1145 41.1537 32.5261 40.6226 31.9378C40.357 31.6437 40.0914 31.3495 39.7912 31.0554C39.6295 30.9083 39.4794 30.7499 39.2485 30.5689C39.1792 30.5123 39.133 30.4783 39.0291 30.4105C38.9829 30.3765 38.9483 30.3539 38.8674 30.3086L38.752 30.2521C38.752 30.2521 38.625 30.1955 38.5557 30.1729C38.4633 30.1503 38.4517 30.1276 38.2439 30.105C38.163 30.105 38.0707 30.0937 37.9898 30.105C37.9206 30.105 37.8282 30.105 37.6434 30.1616C37.4933 30.2068 37.3317 30.2747 37.2047 30.3652C37.0661 30.4557 36.9853 30.5462 36.8929 30.6594C36.8005 30.7725 36.7312 30.9083 36.6735 31.0327C36.6389 31.1119 36.6273 31.1685 36.6157 31.2364C36.5465 31.5758 36.5811 31.6324 36.5927 31.7794C36.6042 31.8926 36.6158 31.9378 36.6389 32.017C36.6966 32.2433 36.7543 32.3678 36.8005 32.4922C36.8467 32.6167 36.9044 32.7185 36.9506 32.8203C37.0545 33.0239 37.1469 33.205 37.2508 33.3747C37.4471 33.7254 37.655 34.0648 37.8628 34.3929C38.2785 35.0491 38.6942 35.6827 39.1215 36.3163C39.9759 37.5721 40.8651 38.794 41.7542 40.0159C43.544 42.4483 45.38 44.8355 47.239 47.2001C50.9572 51.9293 54.7908 56.5679 58.6706 61.1613L60.368 59.1927C53.232 55.2442 45.9573 51.522 38.4748 48.1844C34.7336 46.5213 30.9461 44.9373 27.0663 43.5457C25.1264 42.8556 23.1634 42.2107 21.1427 41.6563C20.1265 41.3848 19.1104 41.1359 18.0365 40.9549C17.4938 40.8644 16.9511 40.7965 16.316 40.7852C16.1544 40.7852 15.9927 40.7852 15.8079 40.8078C15.6232 40.8304 15.4269 40.8531 15.1497 40.9323C15.0805 40.9549 15.0227 40.9775 14.9304 41.0115C14.838 41.0567 14.7571 41.0907 14.6763 41.1472C14.5724 41.2151 14.48 41.2943 14.3761 41.3848C14.2607 41.5093 14.1683 41.6224 14.0874 41.7808C14.0066 41.9392 13.9489 42.1202 13.9373 42.2673C13.9373 42.3465 13.9258 42.4257 13.9258 42.5049C13.9258 42.5728 13.9258 42.6293 13.9489 42.6972C13.9489 42.7651 13.972 42.8217 13.9835 42.8896L14.0297 43.0253C14.0643 43.1158 14.099 43.2063 14.1336 43.2629C14.4223 43.772 14.6763 43.9757 14.9188 44.1906C15.1613 44.3943 15.3922 44.5753 15.6232 44.745C16.0851 45.0731 16.547 45.3446 17.0089 45.6162C17.9326 46.1479 18.8679 46.6118 19.8032 47.0643C21.6854 47.9581 23.5791 48.7501 25.4959 49.5081C29.318 51.0128 33.1978 52.3479 37.1007 53.615C44.895 56.1493 52.7816 58.3215 60.7029 60.3693V57.3712C55.5183 58.5704 50.3567 59.8715 45.2067 61.2518C40.0568 62.6321 34.9299 64.1142 29.8492 65.732C24.7569 67.3499 19.6993 69.0922 14.711 71.0948C12.2168 72.0904 9.73421 73.1539 7.27468 74.3645C6.03915 74.9754 4.82671 75.6203 3.59117 76.3896C2.96763 76.7743 2.35561 77.1929 1.68587 77.7473C1.51267 77.8944 1.33949 78.0527 1.16628 78.2338C1.07391 78.3243 0.969978 78.4374 0.877602 78.5392C0.773682 78.675 0.681282 78.7768 0.565811 78.9578L0.404167 79.2294C0.346436 79.3425 0.277161 79.4783 0.230972 79.6027C0.115501 79.8856 1.52588e-05 80.2476 1.52588e-05 80.802C1.52588e-05 80.8699 1.52588e-05 80.9264 1.52588e-05 80.9943C1.52588e-05 81.0735 0.0231094 81.1527 0.0346527 81.2206C0.0577469 81.379 0.103943 81.5261 0.150131 81.6732C0.254059 81.956 0.427254 82.2615 0.612007 82.4991C0.773666 82.6914 1.00463 82.9177 1.17784 83.0308C1.33949 83.1439 1.52422 83.2571 1.68587 83.3363C1.82444 83.3928 1.95146 83.4494 2.09003 83.506C2.21705 83.5512 2.30943 83.5739 2.4249 83.6078L2.58655 83.6417L2.71358 83.6644L2.97918 83.7096C3.12929 83.7322 3.27937 83.7436 3.41794 83.7549H3.79901C4.28398 83.7662 4.68813 83.7323 5.09227 83.6983C5.87747 83.6078 6.60495 83.4833 7.30933 83.3476C8.71806 83.0534 10.0575 82.714 11.3854 82.3293C14.0297 81.5713 16.5931 80.7002 19.1335 79.7951C24.2142 77.9735 29.1795 75.9371 34.087 73.8101C43.9135 69.5561 53.5207 64.9175 63.0701 60.1431C65.264 59.0456 66.13 56.4095 65.01 54.2599C63.8899 52.1103 61.1994 51.2617 59.0055 52.3592C58.89 52.4157 58.7746 52.4836 58.6706 52.5402L58.6245 52.4497Z" fill="#070600"/>
        <path id="Vector_3" d="M62.3888 63.4807C63.6244 58.5592 64.9985 53.6717 66.5458 48.8407C68.0585 43.9984 69.779 39.2353 71.6496 34.5401C73.5087 29.8449 75.6218 25.2515 78.0236 20.8617C79.2245 18.6782 80.5177 16.5399 81.9265 14.5713C82.6309 13.5983 83.3814 12.6592 84.1666 11.8673C84.5477 11.4826 84.9518 11.1093 85.2982 10.8604C85.4714 10.7246 85.6331 10.6341 85.7255 10.5888C85.8178 10.5323 85.8409 10.5662 85.5753 10.5549C85.4368 10.5549 85.2405 10.4983 85.0557 10.3965C84.9634 10.3399 84.8825 10.2947 84.8133 10.2155C84.7555 10.1702 84.6978 10.0797 84.6631 10.0571C84.5361 9.86476 84.5938 9.87608 84.6169 9.98921C84.6747 10.2268 84.6978 10.7246 84.64 11.2337C84.5477 12.2746 84.2705 13.4286 83.9241 14.5713C83.2313 16.868 82.2613 19.176 81.199 21.4387C79.0513 25.9642 76.4301 30.3314 73.6241 34.574C70.7951 38.8167 67.7467 42.9236 64.5482 46.9174C61.3381 50.9111 57.9779 54.7917 54.5022 58.5818L51.2806 62.1004L56.0149 61.2066C62.6775 59.9508 69.3748 58.8647 76.1068 58.2085C79.467 57.8804 82.8387 57.6541 86.1758 57.6202C87.8501 57.6088 89.5129 57.6428 91.141 57.7673C91.9493 57.8351 92.7576 57.9256 93.5082 58.0727C93.8777 58.1406 94.2472 58.2311 94.5474 58.3329C94.6975 58.3782 94.8361 58.4348 94.94 58.48C95.0324 58.514 95.0901 58.5818 94.9862 58.48C94.9747 58.4574 94.9169 58.4008 94.8823 58.3329C94.8245 58.2537 94.7899 58.1632 94.7553 58.0162C94.686 57.7446 94.7553 57.4165 94.8476 57.2807C95.0093 56.9979 95.0209 57.0658 94.9516 57.0997C94.813 57.1903 94.4897 57.3373 94.1664 57.4391C93.4966 57.6654 92.7114 57.8351 91.9262 57.9709C90.3443 58.2424 88.6931 58.4008 87.0303 58.5026C83.7047 58.695 80.3445 58.6497 76.9843 58.5026C70.2524 58.1632 63.532 57.3373 56.8578 56.2059L50.9457 55.2103L55.4722 59.0683C58.4282 61.58 61.3381 64.1595 64.1094 66.8183C65.495 68.1533 66.8576 69.5109 68.1508 70.9025C68.7975 71.604 69.421 72.3054 69.9984 73.0182C70.2871 73.3802 70.5642 73.731 70.8182 74.0817C70.9452 74.2514 71.0607 74.4324 71.1531 74.5908L71.2224 74.704L71.2685 74.7945C71.2685 74.7945 71.2916 74.851 71.3032 74.8624V74.885C71.3032 74.885 71.3032 74.8737 71.3032 74.8624V74.8171C71.3032 74.8171 71.2685 74.704 71.2685 74.6474V74.5003C71.2685 74.4098 71.2916 74.3193 71.3147 74.2401C71.3263 74.1948 71.3378 74.1496 71.3609 74.1156L71.384 74.0478C71.384 74.0478 71.4187 73.9686 71.4418 73.9346C71.5226 73.7875 71.6381 73.6405 71.7651 73.5273C71.9152 73.4029 72.0191 73.335 72.1346 73.2784C72.2616 73.2218 72.4001 73.1766 72.5272 73.154L72.6657 73.1313H72.7466C72.7466 73.1313 72.8505 73.1313 72.9082 73.1313L73.0699 73.154C73.0699 73.154 73.1392 73.1766 73.1507 73.1766L73.0814 73.1427C73.0237 73.1087 72.9544 73.0635 72.8736 73.0182C72.5618 72.8146 72.2154 72.5317 71.869 72.2489C71.1877 71.6606 70.5064 71.0157 69.8483 70.3482C68.5319 69.0018 67.2617 67.5763 66.0493 66.1055C63.6129 63.1639 61.3381 60.0639 59.1903 56.8848L56.3728 52.71L55.934 57.7107C55.8417 58.8081 55.7262 59.8942 55.5761 60.9577C55.5068 61.4895 55.426 62.0212 55.3221 62.519C55.2759 62.7679 55.2181 63.0168 55.1604 63.2318C55.1373 63.3449 55.1027 63.4354 55.068 63.526C55.0449 63.5938 55.0103 63.6844 55.0218 63.6391V63.6052L55.068 63.5486C55.0911 63.5146 55.1027 63.5033 55.1258 63.4694C55.1719 63.4128 55.2297 63.3562 55.2759 63.311L55.3452 63.2544C55.3452 63.2544 55.4144 63.2092 55.4375 63.1865C55.5068 63.1413 55.5761 63.096 55.6454 63.0621C55.7377 63.0168 55.911 62.949 56.0495 62.9263C56.1996 62.9037 56.3382 62.8811 56.523 62.8924C56.7077 62.9037 56.8925 62.949 57.0426 63.0168C57.158 63.0621 57.2735 63.1187 57.389 63.1979C57.4467 63.2318 57.4929 63.277 57.5391 63.311L57.6199 63.3789C57.6199 63.3789 57.7123 63.4807 57.7585 63.5373C57.8855 63.6957 57.9201 63.7975 57.9432 63.8427C57.9663 63.9106 57.9663 63.9219 57.9779 63.9446C57.9779 63.9672 57.9779 63.9785 57.9779 63.9446C57.9663 63.8427 57.9548 63.6278 57.9663 63.4241C57.9894 62.9942 58.0472 62.5303 58.1511 62.1004C58.3474 61.2293 58.7515 60.4034 59.1672 60.0187L59.6753 59.5548L59.7099 58.8307C59.8139 56.8735 59.7908 54.9049 59.606 52.925C59.5136 51.9407 59.3866 50.945 59.1903 49.9381C59.0864 49.429 58.9709 48.9312 58.8093 48.3768C58.7169 48.094 58.6361 47.8338 58.4398 47.4265C58.4167 47.3812 58.382 47.3133 58.3358 47.2454L58.2781 47.1549L58.1857 47.0192C58.1857 47.0192 58.128 46.94 58.0703 46.8721C58.001 46.7929 57.9317 46.725 57.8509 46.6571C57.8162 46.6232 57.5968 46.4535 57.4005 46.363C57.3543 46.3403 57.2966 46.3177 57.2504 46.2951L57.1696 46.2612C57.1696 46.2612 57.1234 46.2498 57.0657 46.2272C56.8694 46.1706 56.65 46.148 56.4421 46.1593C56.2227 46.1593 56.0264 46.2159 55.8648 46.2725C55.6916 46.3403 55.5184 46.4308 55.3683 46.5327C55.299 46.5892 55.2181 46.6458 55.1604 46.7024L55.068 46.7929C55.0103 46.8608 54.9525 46.9287 54.9064 46.9965C54.8602 47.0644 54.8024 47.1549 54.7793 47.2115L54.7216 47.3246C54.687 47.4038 54.6639 47.483 54.6292 47.5509C54.5946 47.6641 54.583 47.7433 54.5599 47.8338C54.5484 47.913 54.5368 47.9695 54.5253 48.0374C54.4907 48.2863 54.4907 48.4447 54.4907 48.6144C54.4907 48.7728 54.4907 48.9199 54.4907 49.067C54.5022 49.3498 54.5253 49.61 54.5484 49.8702C54.5946 50.3907 54.6639 50.8772 54.7447 51.375C54.8948 52.348 55.068 53.2983 55.2643 54.2487C55.6569 56.1381 56.0957 57.9935 56.5691 59.849L59.837 58.084C56.7885 54.8936 53.6131 51.8162 50.2182 48.9312C48.5208 47.4944 46.7772 46.0914 44.9181 44.779C43.9828 44.1228 43.036 43.4893 41.9967 42.8897C41.4771 42.5955 40.9459 42.3013 40.2993 42.0411L40.0453 41.9393L39.7566 41.8375C39.6642 41.8035 39.5603 41.7696 39.4333 41.7469C39.3178 41.713 39.2024 41.6904 39.0292 41.6678L38.7867 41.6338C38.6827 41.6338 38.5326 41.6338 38.4172 41.6338H38.2209C38.2209 41.6338 38.14 41.6564 38.0823 41.6678L37.9091 41.7017C37.7936 41.7356 37.6782 41.7696 37.5742 41.8148L37.4125 41.8827C37.3433 41.9166 37.2509 41.9732 37.1816 42.0185C36.8699 42.2334 36.5927 42.5389 36.4542 42.8444C36.3733 43.0028 36.3156 43.1725 36.2694 43.3422C36.2463 43.4214 36.2348 43.5232 36.2232 43.5911V43.7382C36.2117 43.9418 36.2232 44.1681 36.2694 44.3378C36.2925 44.451 36.3271 44.5641 36.3618 44.6659L36.4195 44.8243L36.4657 44.9261L36.5696 45.1298C36.6505 45.2769 36.6966 45.3447 36.7659 45.4466C36.8929 45.6502 36.9969 45.7746 37.1239 45.933C37.3433 46.2046 37.5627 46.4535 37.7821 46.6798C38.2209 47.1323 38.6481 47.5283 39.0869 47.9243C39.9529 48.6936 40.8421 49.4064 41.7312 50.0965C43.521 51.4655 45.3454 52.7439 47.2045 53.9771C50.9111 56.4322 54.7101 58.7063 58.5668 60.8785L59.733 56.8508C52.7355 56.568 45.7149 56.5114 38.6712 56.8735C35.1493 57.0545 31.6275 57.3373 28.0941 57.8238C26.3274 58.0727 24.5491 58.3556 22.7478 58.7629C21.8471 58.9665 20.9349 59.2041 19.9765 59.5322C19.4915 59.7019 18.995 59.8829 18.383 60.2336C18.2214 60.3242 18.0597 60.426 17.8634 60.5731C17.7595 60.6523 17.6671 60.7201 17.5401 60.8446C17.4823 60.9012 17.4246 60.9464 17.3553 61.0256C17.286 61.1048 17.2168 61.184 17.1475 61.2745C16.9974 61.4895 16.8357 61.7044 16.7087 62.1117C16.6509 62.2814 16.5932 62.5303 16.5817 62.7792C16.5586 63.0168 16.5817 63.2884 16.6394 63.5486C16.6971 63.8088 16.7895 64.0124 16.8934 64.2274C16.9512 64.3405 16.9974 64.4084 17.0551 64.4876C17.1128 64.5668 17.1706 64.6347 17.2283 64.7139C17.2976 64.7931 17.3438 64.8383 17.3899 64.8836L17.5401 65.0194C17.6555 65.1212 17.7364 65.1778 17.8172 65.2343C18.1751 65.4719 18.3946 65.5624 18.6255 65.6529L18.9257 65.7548L19.1913 65.834C19.5261 65.9245 19.8148 65.9697 20.1035 66.015C20.6578 66.0942 21.1543 66.1394 21.6393 66.1621C22.6092 66.2186 23.5445 66.2073 24.4567 66.1847C26.2812 66.1394 28.071 66.0037 29.8492 65.8226C33.3942 65.4719 36.8814 64.9515 40.3571 64.3745C47.2969 63.1865 54.1443 61.6931 60.9339 60.0413L58.1164 55.4819C50.9573 63.1073 44.1791 71.1175 38.1169 79.7273C35.1032 84.0378 32.2626 88.5068 29.7915 93.2585C28.5675 95.6457 27.4244 98.0895 26.5006 100.76C26.0503 102.106 25.6345 103.475 25.3921 105.093C25.2881 105.919 25.1842 106.767 25.3459 107.966C25.4498 108.566 25.5884 109.313 26.2119 110.274C26.3505 110.501 26.5814 110.761 26.8124 110.987C27.0664 111.225 27.3435 111.451 27.6784 111.643C28.3366 112.039 29.064 112.209 29.6991 112.254C30.9462 112.311 31.7083 112.005 32.3088 111.768C32.8977 111.508 33.3596 111.236 33.7521 110.965C34.5489 110.422 35.1493 109.878 35.7151 109.347C36.8352 108.272 37.759 107.174 38.625 106.077C40.3571 103.871 41.8351 101.608 43.2323 99.3227C46.0036 94.7406 48.3938 90.0341 50.5993 85.2823C54.9987 75.7561 58.7284 66.015 62.054 56.1607C62.8276 53.8753 61.5575 51.3976 59.225 50.6396C56.8925 49.8815 54.3636 51.1261 53.59 53.4114C53.5784 53.4454 53.5669 53.4906 53.5554 53.5246V53.5472C50.6224 63.2657 47.343 72.8937 43.3708 82.171C41.3732 86.7984 39.2139 91.3578 36.7775 95.6684C35.5535 97.818 34.2487 99.911 32.8399 101.823C32.1356 102.773 31.4081 103.667 30.6806 104.414C30.3227 104.776 29.9532 105.104 29.676 105.308C29.5375 105.41 29.4335 105.466 29.4335 105.466C29.4335 105.489 29.5606 105.376 30.1495 105.398C30.4612 105.41 30.8538 105.523 31.2349 105.738C31.4197 105.851 31.5813 105.964 31.7083 106.1C31.8353 106.201 31.9392 106.36 31.997 106.439C32.2626 106.869 32.2164 106.971 32.2279 106.937C32.2048 106.869 32.1933 106.428 32.251 105.975C32.3549 105.047 32.6436 103.939 32.99 102.841C33.6944 100.624 34.6759 98.3724 35.7498 96.1549C37.9206 91.7085 40.5303 87.3867 43.3247 83.178C48.9481 74.7605 55.426 66.8183 62.2965 59.2267L68.6012 52.2688L59.479 54.6673C52.8163 56.4209 46.1075 58.0048 39.3756 59.2833C36.0038 59.9169 32.6321 60.4712 29.2603 60.8672C27.5745 61.0596 25.9002 61.2179 24.2605 61.2971C23.4406 61.3311 22.6323 61.3424 21.8702 61.3198C21.4892 61.3085 21.1197 61.2745 20.8194 61.2293C20.6693 61.2066 20.5307 61.184 20.4499 61.1614H20.4038V61.1501C20.4384 61.1614 20.4615 61.1614 20.6347 61.2858C20.6693 61.3085 20.704 61.3424 20.7848 61.399C20.8194 61.4216 20.8425 61.4555 20.8772 61.4895L20.9811 61.6026C21.0735 61.7158 21.1312 61.7949 21.2236 61.9533C21.316 62.123 21.3737 62.2701 21.4314 62.4851C21.4892 62.6887 21.4892 62.915 21.4776 63.096C21.4776 63.2884 21.4199 63.492 21.3853 63.6052C21.2813 63.9106 21.189 64.0464 21.0966 64.1708C21.0619 64.2161 21.0273 64.2614 20.9926 64.2953L20.9234 64.3632C20.9234 64.3632 20.8656 64.4084 20.8425 64.4311C20.8195 64.4424 20.8425 64.4311 20.8656 64.4198C21.0042 64.3406 21.316 64.1935 21.6508 64.0803C22.3205 63.8427 23.0942 63.6278 23.8794 63.4354C25.4613 63.0621 27.1126 62.7679 28.7869 62.5077C32.124 62.0099 35.5304 61.6931 38.9483 61.4669C45.7842 61.0256 52.6778 60.9917 59.5714 61.184L68.5434 61.4442L60.7376 57.1676C56.9271 55.0746 53.1743 52.9023 49.5485 50.5604C47.7356 49.3951 45.9574 48.1845 44.26 46.9174C43.417 46.2838 42.5856 45.6276 41.8235 44.9714C41.4425 44.6433 41.073 44.3039 40.7497 43.9645C40.588 43.7948 40.4494 43.6364 40.3224 43.4893C40.2878 43.4327 40.2069 43.3422 40.1954 43.3196C40.1954 43.3083 40.1608 43.263 40.1723 43.2856C40.1723 43.2856 40.1723 43.2969 40.1723 43.3083C40.1723 43.3083 40.1723 43.3083 40.1723 43.3196C40.1723 43.3422 40.1954 43.3648 40.1954 43.3874C40.2069 43.4327 40.2185 43.478 40.23 43.5232C40.2531 43.6364 40.2762 43.7947 40.2647 43.9192V44.021C40.2647 44.021 40.2416 44.1568 40.2185 44.2134C40.1839 44.3491 40.1377 44.4962 40.0684 44.6207C39.9414 44.8582 39.7335 45.1298 39.4679 45.2995C39.4102 45.3447 39.3294 45.3787 39.2716 45.4126C39.237 45.4352 39.2024 45.4466 39.1562 45.4692C39.0753 45.5031 38.9945 45.5257 38.9137 45.5484C38.8675 45.5484 38.8328 45.571 38.7867 45.571H38.6943C38.6943 45.571 38.6365 45.5936 38.6019 45.5936C38.5442 45.5936 38.4633 45.5936 38.4287 45.5936C38.4171 45.5936 38.4056 45.5936 38.3941 45.5936C38.371 45.5936 38.3479 45.5936 38.3941 45.5936C38.4056 45.5936 38.4287 45.5936 38.4633 45.6163L38.5673 45.6502L38.7058 45.7068C39.0754 45.8538 39.5141 46.0801 39.9414 46.3177C40.8074 46.8042 41.685 47.3812 42.551 47.9695C44.2831 49.1688 45.9574 50.4925 47.5971 51.8615C50.8764 54.6107 53.9941 57.5862 56.9964 60.6749L62.1348 65.9584L60.2642 58.9099C59.7908 57.111 59.3404 55.3008 58.9478 53.502C58.7515 52.5969 58.5783 51.7031 58.4398 50.8206C58.3705 50.3794 58.3012 49.9381 58.2666 49.5195C58.2435 49.3045 58.2319 49.1009 58.2204 48.9199C58.2204 48.8294 58.2204 48.7389 58.2204 48.6597C58.2204 48.5918 58.2204 48.5239 58.2204 48.5352V48.5578C58.2204 48.5578 58.1973 48.6144 58.1857 48.671C58.1742 48.7162 58.1511 48.7728 58.128 48.8181L58.0933 48.8859C58.0933 48.8859 58.0241 49.0104 57.9894 49.067C57.9432 49.1235 57.897 49.1801 57.8509 49.2367L57.77 49.3159C57.77 49.3159 57.6546 49.429 57.5853 49.4743C57.4467 49.5761 57.2966 49.6553 57.1349 49.7119C56.9848 49.7684 56.8001 49.8137 56.6038 49.825C56.4075 49.8363 56.1996 49.8137 56.0264 49.7571L55.934 49.7232L55.8648 49.7005C55.8648 49.7005 55.7724 49.6666 55.7262 49.644C55.553 49.5648 55.3567 49.4177 55.3452 49.3951C55.2874 49.3498 55.2412 49.2932 55.1835 49.2367L55.1258 49.1688L55.068 49.0896C55.068 49.0896 55.0565 49.0556 55.0565 49.067C55.068 49.0896 55.1373 49.2706 55.195 49.429C55.3105 49.7797 55.4144 50.1983 55.4953 50.6169C55.6685 51.4542 55.7955 52.3366 55.8879 53.2304C56.0611 55.0067 56.1073 56.8169 56.0264 58.6158L56.5691 57.4165C55.9571 58.0162 55.5415 58.6723 55.2412 59.3172C54.9295 59.9734 54.7216 60.6183 54.5715 61.2745C54.4214 61.9307 54.329 62.5756 54.3059 63.2657C54.3059 63.6165 54.3059 63.9672 54.3636 64.4198C54.3867 64.5442 54.4098 64.6687 54.456 64.827C54.4907 64.9289 54.5022 64.9967 54.5599 65.1325C54.6061 65.2456 54.6754 65.404 54.8371 65.619C54.8948 65.6869 54.941 65.7548 55.0103 65.8113L55.1027 65.9019C55.1027 65.9019 55.2181 65.9924 55.2759 66.0376C55.3913 66.1168 55.5299 66.196 55.6569 66.2413C55.8301 66.3092 56.038 66.3544 56.2343 66.377C56.4421 66.3883 56.6038 66.377 56.7654 66.3431C56.9271 66.3091 57.1003 66.2526 57.2158 66.196C57.3081 66.1507 57.389 66.1055 57.4698 66.0489L57.5853 65.9584L57.643 65.9132L57.6777 65.8905C57.7585 65.8113 57.8393 65.7321 57.9086 65.6529C57.9548 65.5964 57.9894 65.5398 58.0356 65.4832L58.0933 65.404L58.128 65.3475L58.1973 65.223C58.3474 64.9402 58.4051 64.7478 58.4744 64.5555C58.5321 64.3745 58.5783 64.2048 58.6245 64.0464C58.7053 63.7183 58.7746 63.4128 58.8324 63.1187C58.9478 62.519 59.0287 61.942 59.1095 61.365C59.2596 60.211 59.3635 59.0683 59.4559 57.9369L56.1996 58.7629C58.4282 62.0099 60.7838 65.1778 63.3357 68.2099C64.6174 69.7259 65.9454 71.208 67.3656 72.6448C68.0816 73.3576 68.809 74.0591 69.6173 74.7492C70.0215 75.0886 70.4372 75.428 70.9452 75.7561C71.0722 75.8353 71.2108 75.9258 71.3609 76.0164L71.615 76.1521C71.7189 76.1974 71.8343 76.254 71.9498 76.2992C72.0191 76.3218 72.123 76.3558 72.2038 76.3784C72.3078 76.401 72.3424 76.4236 72.5503 76.4463C72.6311 76.4463 72.7235 76.4463 72.8043 76.4463H72.9313H73.0006L73.1161 76.4237C73.2777 76.3897 73.4394 76.3331 73.6011 76.2653C73.7512 76.1974 73.8897 76.1182 74.0514 75.9711C74.2015 75.8353 74.3401 75.6656 74.4324 75.4846C74.4555 75.4394 74.4786 75.3941 74.5017 75.3488L74.5364 75.2583C74.5364 75.2583 74.571 75.1452 74.5941 75.0886C74.6518 74.8737 74.6749 74.5569 74.6634 74.489C74.6634 74.3759 74.6403 74.2514 74.6172 74.1383C74.5941 74.0478 74.5826 73.9912 74.5595 73.9233L74.4902 73.7197L74.4324 73.5726C74.3863 73.4821 74.3516 73.3803 74.3054 73.3124L74.1899 73.0861L74.0745 72.8938C73.9128 72.6335 73.7627 72.4073 73.6011 72.181C73.2893 71.7398 72.966 71.3325 72.6426 70.9365C71.996 70.1445 71.3263 69.3978 70.645 68.6624C69.2825 67.2029 67.8853 65.8 66.4534 64.4424C63.5897 61.7157 60.6452 59.1136 57.643 56.5793L56.2689 59.4304C63.047 60.5617 69.8944 61.3877 76.7996 61.7158C80.2522 61.8742 83.7163 61.9081 87.215 61.6931C88.9586 61.58 90.7138 61.4216 92.492 61.1048C93.3812 60.9464 94.2703 60.7541 95.2172 60.4373C95.6906 60.2676 96.164 60.0979 96.7414 59.7359C96.8915 59.634 97.0416 59.5322 97.2148 59.3738C97.3764 59.2267 97.5843 59.0004 97.746 58.6837C97.9192 58.3556 98.0346 57.8012 97.9192 57.3373C97.8614 57.0884 97.7806 56.9074 97.6767 56.7264C97.5843 56.5793 97.4688 56.4322 97.3764 56.3304C96.9723 55.9231 96.6605 55.7647 96.3719 55.6289C96.0832 55.4932 95.8176 55.3914 95.5751 55.3122C95.067 55.1538 94.6052 55.0519 94.1317 54.9614C93.208 54.7917 92.3073 54.6899 91.4182 54.622C89.6399 54.4863 87.8963 54.4523 86.1527 54.4749C82.677 54.5202 79.2245 54.7691 75.795 55.1085C68.936 55.7986 62.1464 56.8395 55.4144 58.0953L56.9156 60.7201C60.472 56.93 63.9246 53.0268 67.2386 49.0104C70.5642 45.0053 73.7512 40.8758 76.7303 36.5992C79.721 32.3226 82.5154 27.8989 84.9518 23.215C86.1643 20.8617 87.2728 18.4519 88.1619 15.8724C88.5891 14.5713 88.9817 13.2363 89.1896 11.7315C89.282 10.9735 89.3628 10.1815 89.1896 9.15199C89.0857 8.64287 88.9471 8.03193 88.439 7.31916C88.3236 7.14946 88.1388 6.95712 87.9771 6.79872C87.7808 6.62902 87.573 6.47063 87.3305 6.34618C86.8571 6.07465 86.3375 5.96151 85.8756 5.91625C84.9634 5.871 84.3398 6.08596 83.8317 6.28961C83.3237 6.49326 82.9195 6.73085 82.5616 6.96844C81.8341 7.44362 81.2568 7.94142 80.714 8.45054C79.6402 9.46878 78.7279 10.5096 77.8619 11.5731C76.1414 13.7114 74.6518 15.9289 73.2546 18.1804C70.4602 22.6946 68.07 27.3558 65.7837 32.0624C61.2803 41.4981 57.4583 51.1939 53.8671 60.9464C53.0357 63.2205 54.2251 65.7208 56.546 66.5467C58.867 67.3613 61.4189 66.196 62.2618 63.9219C62.3196 63.7749 62.3658 63.6278 62.4004 63.4807H62.3888Z" fill="#070600"/>
        <path id="Vector_4" d="M52.4448 62.4395C62.1559 65.9581 71.6014 70.1442 80.5619 75.0996C85.0191 77.6113 89.3608 80.3153 93.3676 83.3587C95.3537 84.8973 97.2705 86.5152 98.9333 88.2575C99.7647 89.1287 100.527 90.0451 101.127 90.9502C101.427 91.4027 101.67 91.8553 101.82 92.2513C101.889 92.4436 101.936 92.6133 101.959 92.7264C101.982 92.8396 101.959 92.8735 101.993 92.7943C102.016 92.7151 102.143 92.5567 102.224 92.5341C102.305 92.5002 102.27 92.5341 102.143 92.5567C101.901 92.6133 101.416 92.6133 100.908 92.5341C99.8801 92.3757 98.737 92.0024 97.6285 91.5385C95.3883 90.6108 93.1828 89.3663 91.0697 87.9973C86.8435 85.2254 82.8598 81.9784 79.107 78.4937C75.3542 75.0091 71.8092 71.2869 68.449 67.4176C65.0773 63.5483 61.8788 59.5206 58.8303 55.391L56.6364 52.4155L55.9666 56.0359C54.9043 61.7381 53.6226 67.3949 51.8674 72.8821C50.9899 75.62 49.9853 78.3127 48.7728 80.8696C48.1608 82.1368 47.4911 83.37 46.7406 84.4787C46.3595 85.0218 45.9553 85.5535 45.5397 85.9721C45.3318 86.1758 45.1239 86.3568 44.9507 86.4699C44.9161 86.4926 44.8584 86.5378 44.8353 86.5491C44.8007 86.5491 44.7776 86.5718 44.7545 86.5944C44.7314 86.5944 44.7083 86.5944 44.8007 86.5944C44.8699 86.5944 45.0316 86.6057 45.1471 86.6849C45.2048 86.7188 45.2394 86.7302 45.2741 86.7754C45.2972 86.7867 45.3087 86.798 45.3087 86.8207C45.3087 86.8207 45.2394 86.6283 45.1933 86.4247C45.124 85.9495 45.1355 85.3159 45.2048 84.6937C45.3664 83.4152 45.7244 82.0802 46.1632 80.7678C47.0639 78.143 48.334 75.5861 49.7659 73.1197C52.6526 68.1869 56.2322 63.6048 60.1698 59.3508L63.3106 55.9567L58.6571 56.545C56.7749 56.7826 54.8928 56.9976 53.0221 57.1673C52.0868 57.2465 51.1515 57.3144 50.2278 57.3596C49.7659 57.3823 49.3156 57.3936 48.8768 57.3936C48.6574 57.3936 48.438 57.3936 48.2417 57.3823C48.0569 57.3823 47.8375 57.3596 47.7913 57.3483H47.8144L47.9068 57.3823C47.9068 57.3823 47.9645 57.4049 47.9992 57.4162C48.0454 57.4388 48.1724 57.4954 48.2417 57.552L48.2994 57.5972L48.3918 57.6764C48.5072 57.7782 48.5996 57.8914 48.6805 58.0271C48.7613 58.1742 48.8075 58.2421 48.8883 58.5136C48.946 58.7512 48.9576 59.0227 48.8883 59.2603C48.8883 59.3169 48.8537 59.3848 48.8421 59.4187L48.8075 59.5092C48.7844 59.5658 48.7613 59.6337 48.7267 59.6903C48.6574 59.8147 48.5765 59.9279 48.4957 60.0184C48.4033 60.1202 48.3571 60.1541 48.2763 60.222L48.1493 60.3125C48.1493 60.3125 48.0916 60.3465 48.0685 60.3578C48.0454 60.3691 48.0338 60.3691 48.0223 60.3804C48.08 60.3578 48.2879 60.3125 48.4611 60.2786C48.8537 60.2107 49.2809 60.1541 49.7197 60.1202C50.5973 60.041 51.5095 60.0071 52.4217 60.0184C54.2461 60.0184 56.0706 60.1654 57.8719 60.437L59.4539 57.4049L59.4885 57.4501C59.4885 57.4501 59.5462 57.518 59.5693 57.5407C59.5693 57.5407 59.6271 57.6199 59.6502 57.6651L59.6964 57.7443L59.7194 57.7896C59.7194 57.7896 59.7656 57.8688 59.7772 57.914C59.8118 58.0045 59.8465 58.095 59.858 58.1855V58.2534L59.8927 58.3779C59.9042 58.5136 59.9042 58.6607 59.8927 58.8078C59.8696 58.9549 59.8349 59.1019 59.7772 59.2264C59.731 59.3508 59.6617 59.4753 59.5462 59.6224C59.4423 59.7581 59.3153 59.8826 59.1767 59.9957C59.1074 60.0523 59.0266 60.0976 58.9573 60.1315C58.8881 60.1654 58.7841 60.2107 58.7726 60.222C58.6571 60.2673 58.5186 60.3125 58.3915 60.3238C58.3223 60.3238 58.2645 60.3465 58.1952 60.3465H58.1029C58.022 60.3465 57.9181 60.3465 57.8488 60.3352C57.7911 60.3352 57.6872 60.3012 57.6756 60.3012C57.6063 60.2786 57.5832 60.2786 57.5717 60.2673C57.537 60.2559 57.5948 60.2673 57.6294 60.3012C57.7334 60.3465 57.8604 60.4143 57.9758 60.4935C58.0913 60.5614 58.2183 60.6406 58.3107 60.6972C58.3453 60.7198 58.4031 60.7651 58.3453 60.7198C58.3222 60.6972 58.2876 60.6746 58.1837 60.5614C58.1375 60.5049 58.0913 60.4483 58.0451 60.3804L57.9874 60.2786C57.9874 60.2786 57.9297 60.1768 57.9066 60.1315C57.8835 60.0749 57.8604 60.0297 57.8488 59.9731L57.8257 59.8939V59.8487L57.7911 59.7468C57.6641 59.0228 57.9758 58.276 58.6802 57.8687C58.7264 57.8461 58.761 57.8235 58.8072 57.8009L58.8996 57.7556L58.9804 57.7217C58.9804 57.7217 59.0959 57.6877 59.1536 57.6764C59.2691 57.6538 59.3961 57.6312 59.5 57.6312C59.6386 57.6312 59.8234 57.6425 59.8349 57.6425L59.9388 57.6651H59.9966L59.8927 57.6425L59.6964 57.5633L59.2691 57.3709L58.3684 56.9523L57.5255 60.403C59.7772 60.4596 62.0404 60.4483 64.3152 60.3125C65.4468 60.2446 66.5899 60.1541 67.7446 60.007C68.322 59.9392 68.8994 59.8487 69.5114 59.7355C69.8231 59.679 70.1234 59.6111 70.4929 59.5092C70.5852 59.4866 70.6892 59.4527 70.8046 59.4074C70.9317 59.3622 71.0471 59.3169 71.3127 59.1698C71.3935 59.1246 71.4628 59.068 71.5436 59.0228C71.6938 58.9096 71.8785 58.7173 72.0055 58.5363C72.0055 58.5363 72.0748 58.4231 72.1095 58.3666C72.1441 58.2987 72.1787 58.2195 72.2134 58.1516C72.2711 58.0045 72.3057 57.8348 72.3288 57.6764C72.3404 57.518 72.3404 57.3596 72.3288 57.2125C72.3057 57.0542 72.2596 56.8958 72.1903 56.7374C72.121 56.579 72.0286 56.4319 71.9247 56.2961C71.8785 56.2282 71.8208 56.1717 71.763 56.1151L71.6938 56.0472C71.6014 55.968 71.4975 55.9001 71.3935 55.8323C71.3358 55.7983 71.2896 55.7757 71.2319 55.7418L71.151 55.7078H71.1164L70.9894 55.6399L70.8508 55.5947C70.8508 55.5947 70.7584 55.5721 70.7469 55.5607C70.6545 55.5381 70.539 55.5155 70.4698 55.5042C70.1811 55.4589 70.0079 55.4589 69.8116 55.4476C69.6384 55.4476 69.4652 55.4476 69.3035 55.4476C68.9917 55.4476 68.68 55.4702 68.3913 55.4815C67.8024 55.5155 67.225 55.5721 66.6592 55.6286C65.5276 55.7418 64.4076 55.8888 63.299 56.0472C61.082 56.364 58.8765 56.7487 56.6826 57.1447L58.634 60.222C62.687 55.0064 66.3128 49.4174 69.0148 43.2966C70.3543 40.2306 71.4744 37.0401 72.0864 33.6347C72.3866 31.9263 72.5713 30.1727 72.4328 28.2946C72.3519 27.3442 72.2134 26.3712 71.7284 25.2625L71.5321 24.8439C71.4513 24.6968 71.3589 24.5497 71.2665 24.4026C71.2203 24.3347 71.1741 24.2555 71.1279 24.1877L70.9432 23.9614C70.8046 23.8143 70.7122 23.6672 70.5275 23.5202C70.3543 23.3731 70.1926 23.2373 69.9963 23.1016C69.7885 22.9771 69.5575 22.8527 69.3382 22.7508C69.0957 22.6603 68.8301 22.5924 68.576 22.5359C68.322 22.5019 68.0564 22.4906 67.8024 22.4906C66.7862 22.5359 66.0588 22.9092 65.4814 23.2599C64.9387 23.622 64.4884 24.0293 64.142 24.414C63.4145 25.2059 62.8949 25.9979 62.433 26.8012C61.5323 28.3964 60.8742 30.0029 60.3199 31.6208C59.2229 34.8452 58.507 38.1036 57.9643 41.362C57.4216 44.6203 57.0521 47.89 56.8096 51.1484C56.5556 54.4067 56.4054 57.6764 56.3477 60.9348L60.8395 59.2151C53.715 51.6349 46.1747 44.4054 37.9648 37.8208C35.9094 36.1803 33.8078 34.585 31.6485 33.0463C29.4892 31.5077 27.2838 30.0143 24.9859 28.6227C22.688 27.2311 20.3093 25.9187 17.7228 24.7873C16.418 24.2329 15.0785 23.7125 13.485 23.3278C12.6767 23.1468 11.8338 22.9771 10.6444 23.011C10.044 23.0563 9.30497 23.1016 8.28882 23.6107C8.05788 23.7238 7.76922 23.9275 7.51519 24.1198C7.24961 24.3461 6.99556 24.595 6.77616 24.9004C6.55677 25.2059 6.38358 25.5227 6.25657 25.8621C6.18728 26.0318 6.15264 26.1789 6.10645 26.3486C6.06026 26.507 6.0256 26.6767 6.01405 26.8125C5.99096 26.9595 5.97943 27.0953 5.96788 27.2424C5.96788 27.3895 5.96788 27.4913 5.96788 27.6271C5.96788 27.8873 6.00253 28.0909 6.03717 28.2946C6.10645 28.7019 6.21036 29.03 6.31428 29.3241C6.53368 29.9011 6.77617 30.3537 7.00711 30.7497C7.49209 31.5416 7.98861 32.1639 8.48514 32.7522C9.48973 33.9062 10.5059 34.8905 11.5567 35.8182C13.6467 37.6624 15.806 39.2689 17.9999 40.8189C22.3993 43.8849 26.9489 46.6002 31.5677 49.1572C40.8284 54.237 50.3432 58.7173 60.0081 62.8242C62.2713 63.7859 64.8925 62.7676 65.874 60.5614C66.8555 58.3439 65.8163 55.7757 63.5646 54.814C63.5184 54.7914 63.4722 54.7688 63.4145 54.7575H63.3914C53.7958 51.1031 44.3041 47.1433 35.2397 42.5273C30.7132 40.2193 26.2676 37.7529 22.076 35.0376C19.986 33.6799 17.9653 32.2431 16.1409 30.7157C15.2286 29.9577 14.3741 29.1657 13.6698 28.3964C13.3233 28.0117 13.0116 27.6271 12.8153 27.3329C12.7229 27.1858 12.6652 27.0727 12.6536 27.0501C12.6305 27.0387 12.7345 27.1406 12.6652 27.6949C12.6536 27.7515 12.6421 27.842 12.619 27.9212C12.5959 28.0117 12.5728 28.0796 12.5382 28.1701C12.4689 28.3624 12.365 28.5322 12.2495 28.7132C12.1109 28.8829 11.9954 29.03 11.8453 29.1431C11.7299 29.2449 11.5682 29.3354 11.4758 29.392C11.037 29.5957 10.9677 29.5391 11.0024 29.5504C11.1063 29.5278 11.5682 29.5504 12.0301 29.6635C12.977 29.8559 14.097 30.2292 15.1824 30.6591C17.3764 31.5416 19.5934 32.673 21.7527 33.9062C26.0829 36.3839 30.2629 39.2689 34.2928 42.3463C42.3642 48.5123 49.9044 55.4363 57.0521 62.711L61.567 67.3044L61.5439 60.98C61.5208 54.6443 61.8095 48.2973 62.7332 42.0974C63.1951 39.0087 63.8302 35.9427 64.754 33.0577C65.2274 31.6208 65.7701 30.2179 66.4514 28.996C66.7862 28.3851 67.1673 27.8307 67.5253 27.4234C67.71 27.2084 67.8832 27.0727 68.0102 26.9709C68.1257 26.903 68.1604 26.9143 67.9756 26.9256C67.9179 26.9256 67.8717 26.9256 67.8139 26.9143C67.7562 26.9143 67.6985 26.8917 67.6407 26.869C67.5945 26.869 67.5484 26.8464 67.5253 26.8125C67.5022 26.7898 67.4791 26.8012 67.4675 26.7785C67.4444 26.7672 67.5368 26.8351 67.6176 27.0387C67.8024 27.4121 67.9409 28.0457 67.9987 28.6906C68.1257 30.0143 68.0218 31.485 67.7793 32.9558C67.3059 35.8974 66.3359 38.8616 65.135 41.7127C62.7217 47.4488 59.3153 52.8454 55.4701 57.8914L52.3755 61.953L57.4331 60.98C59.5809 60.5614 61.7286 60.1768 63.8764 59.8487C64.9503 59.6789 66.0242 59.5319 67.0749 59.4187C67.6061 59.3622 68.1257 59.3056 68.6453 59.2717C68.8994 59.249 69.1534 59.2377 69.3843 59.2377H69.7077H69.8809C69.8809 59.2377 69.8231 59.2377 69.8116 59.2264H69.7538L69.673 59.1811L69.5922 59.1472L69.5114 59.1133C69.5114 59.1133 69.419 59.068 69.3728 59.0341C69.2804 58.9775 69.1996 58.9096 69.1188 58.8417L69.061 58.7852C69.061 58.7852 68.9571 58.6833 68.9109 58.6155C68.807 58.491 68.7262 58.3439 68.6569 58.1969C68.5876 58.0498 68.553 57.8914 68.5299 57.7443C68.5068 57.5972 68.5068 57.4614 68.5299 57.3031C68.5414 57.1447 68.5876 56.9976 68.6338 56.8505C68.6569 56.7826 68.6915 56.7147 68.7262 56.6469C68.7492 56.5903 68.8185 56.4998 68.8185 56.4885C68.9109 56.3301 69.0726 56.1717 69.2111 56.0699C69.2573 56.0359 69.3035 56.002 69.3497 55.968C69.4883 55.8888 69.4883 55.9002 69.4767 55.9002L69.3959 55.9228C69.2342 55.968 69.0033 56.0246 68.7723 56.0699C68.2989 56.1717 67.7793 56.2509 67.2712 56.3188C66.232 56.4545 65.1697 56.5564 64.1073 56.6355C61.9711 56.7826 59.8118 56.8166 57.6525 56.7826L48.9114 56.6355L56.798 60.2333L57.768 60.6746L58.2761 60.9008L58.5647 61.014C58.6687 61.0592 58.7726 61.0932 58.9458 61.1497C59.0035 61.1611 59.0382 61.1837 59.1306 61.195H59.1998L59.3037 61.2289C59.3384 61.2289 59.5347 61.2629 59.6964 61.2516C59.8003 61.2516 59.9388 61.2289 60.0543 61.2063C60.1121 61.195 60.1698 61.1724 60.2391 61.1497L60.3199 61.1158L60.4123 61.0705C60.4123 61.0705 60.4931 61.0253 60.5393 61.0027C61.2552 60.5954 61.5785 59.826 61.44 59.1019L61.4169 58.9888V58.9436L61.3822 58.8644C61.3591 58.8078 61.3476 58.7512 61.3129 58.6946C61.2898 58.6381 61.2667 58.5815 61.2321 58.5363L61.1628 58.4231C61.1166 58.3552 61.0705 58.2873 61.0127 58.2195C60.8742 58.0724 60.8049 58.0158 60.7587 57.9706C60.5624 57.8122 60.4816 57.7669 60.3776 57.6877C60.1813 57.5633 60.0081 57.4615 59.8349 57.3596C59.6617 57.2578 59.4885 57.1673 59.2691 57.0655C59.1536 57.0089 59.0613 56.9636 58.865 56.8958C58.8072 56.8731 58.7495 56.8505 58.634 56.8279C58.5994 56.8279 58.4724 56.7939 58.3915 56.7826C58.3107 56.7713 58.1952 56.76 58.1029 56.76H58.0105C57.9412 56.76 57.8719 56.7713 57.8026 56.7826C57.6641 56.8053 57.5255 56.8392 57.41 56.8958C57.41 56.8958 57.283 56.941 57.2253 56.9863C57.156 57.0315 57.0752 57.0768 57.0059 57.122C56.8673 57.2239 56.7288 57.3596 56.6248 57.4954C56.5209 57.6425 56.4516 57.7669 56.3939 57.9027C56.3362 58.0384 56.3015 58.1855 56.2784 58.3326C56.2553 58.4797 56.2553 58.6268 56.2784 58.7738C56.2784 58.8644 56.29 58.8757 56.3015 58.8983V58.9662C56.3362 59.068 56.3708 59.1585 56.4054 59.249C56.4285 59.2943 56.4401 59.3395 56.4632 59.3848L56.4978 59.4414L56.5556 59.5319C56.5902 59.5884 56.6479 59.6676 56.6595 59.679C56.6941 59.7242 56.7518 59.8034 56.7749 59.826L56.8558 59.9165L58.4377 56.8845C56.4516 56.6129 54.454 56.4771 52.4448 56.4885C51.4402 56.4885 50.4356 56.5337 49.4079 56.6355C48.8883 56.6921 48.3802 56.7487 47.826 56.8505C47.5373 56.9071 47.2833 56.9523 46.8791 57.0881L46.7174 57.1447C46.6482 57.1786 46.5789 57.2012 46.5096 57.2352L46.348 57.3257C46.348 57.3257 46.2671 57.3709 46.1401 57.4614C46.0362 57.5406 45.9669 57.5972 45.8514 57.7217C45.759 57.8348 45.6667 57.9593 45.5974 58.0837C45.5627 58.1516 45.5281 58.2195 45.505 58.2873L45.4704 58.3892C45.4704 58.3892 45.4357 58.5023 45.4242 58.5589C45.3664 58.8078 45.378 59.1019 45.4242 59.3508C45.4935 59.6337 45.5628 59.7242 45.6551 59.8826C45.7475 60.0297 45.8514 60.1541 45.9784 60.2673C46.0593 60.3351 46.0593 60.3351 46.0939 60.3578L46.1747 60.4143C46.2787 60.4822 46.4172 60.5614 46.4981 60.5954L46.6713 60.6632C46.8098 60.7085 46.856 60.7198 46.9368 60.7425L47.0408 60.7651H47.1216C47.5488 60.8556 47.8144 60.8556 48.1031 60.8669C48.3802 60.8669 48.6458 60.8669 48.8999 60.8669C49.4195 60.8669 49.916 60.8443 50.4125 60.8103C51.4056 60.7538 52.3755 60.6746 53.3455 60.5841C55.2854 60.3917 57.2022 60.1541 59.1075 59.8939L57.5948 57.0881C53.5649 61.5231 49.8467 66.2636 46.8214 71.4792C45.3203 74.0927 43.9692 76.808 42.9762 79.7269C42.4912 81.1864 42.0756 82.6911 41.8793 84.3203C41.7869 85.1349 41.7407 85.9835 41.8908 86.9564C41.9947 87.4542 42.1102 87.986 42.5028 88.6082C42.6182 88.7666 42.7453 88.925 42.8838 89.0834C43.057 89.2418 43.2418 89.3889 43.4496 89.5133C43.6806 89.6265 43.923 89.7396 44.154 89.7849C44.3849 89.8301 44.6621 89.8754 44.8699 89.8528C45.3318 89.8414 45.6782 89.7283 45.99 89.6039C46.1286 89.536 46.2671 89.4681 46.4057 89.4002C46.5442 89.3323 46.6366 89.2531 46.7636 89.1852C47.214 88.8911 47.5488 88.5743 47.8721 88.2575C48.4957 87.6239 48.9807 86.9677 49.4426 86.3115C50.3317 84.9878 51.0592 83.6302 51.7173 82.2612C53.0106 79.512 54.0383 76.7062 54.939 73.8664C56.7288 68.1869 58.022 62.4169 59.0728 56.6242L56.1976 57.2691C59.3037 61.4439 62.56 65.5169 65.9549 69.4767C69.3728 73.4252 72.9408 77.2605 76.7283 80.8923C80.5388 84.5014 84.5225 87.986 88.9451 91.0068C91.1505 92.5228 93.4484 93.937 96.0003 95.091C97.282 95.6567 98.61 96.1771 100.169 96.4713C100.954 96.6071 101.797 96.7202 102.836 96.5618C103.356 96.4713 103.968 96.3016 104.58 95.8943C105.192 95.4983 105.734 94.8082 105.965 94.1181C106.208 93.4279 106.219 92.8056 106.162 92.2852C106.104 91.7648 105.989 91.3122 105.862 90.8936C105.584 90.079 105.226 89.3776 104.845 88.7327C104.083 87.4429 103.206 86.3455 102.305 85.2933C100.492 83.2003 98.5176 81.3561 96.4853 79.6138C92.4207 76.1178 88.0906 73.0292 83.6334 70.1329C81.4048 68.696 79.1763 67.2705 76.9015 65.9128C74.6267 64.5439 72.3288 63.2428 70.0194 61.9417C67.71 60.6406 65.3891 59.3735 63.045 58.1403C60.7125 56.8845 58.3569 55.6852 56.0013 54.4633C53.8189 53.3319 51.1169 54.1578 49.9737 56.2961C48.819 58.4344 49.662 61.0819 51.8444 62.2019C52.0176 62.2924 52.1792 62.3603 52.3524 62.4282H52.3871L52.4448 62.4395Z" fill="#070600"/>
    </g>
</svg>
