<svg xmlns="http://www.w3.org/2000/svg" width="120" height="121" viewBox="0 0 120 121" fill="none">
    <g id="Layer_1" clip-path="url(#clip0_7450_8419)">
        <path id="Vector" d="M1.87539 0.0684814H31.3288C47.0234 0.0684814 59.771 12.6717 59.771 28.1972V31.0426C59.771 46.5681 47.0234 59.1713 31.3201 59.1713H28.4422C12.7476 59.1628 -1.52588e-05 46.5595 -1.52588e-05 31.0426V1.92265C-1.52588e-05 0.897305 0.8383 0.0684814 1.87539 0.0684814Z" fill="#070600"/>
        <path id="Vector_2" d="M91.5491 59.1627L88.6712 59.1627C72.9766 59.1627 60.229 46.5595 60.229 31.034L60.229 28.1886C60.229 12.6631 72.9766 0.0599022 88.6798 0.0599022L118.133 0.0599022C119.17 0.0599022 120.009 0.888721 120.009 1.91407V31.034C120 46.5595 107.252 59.1627 91.5491 59.1627Z" fill="#070600"/>
        <path id="Vector_3" d="M28.4508 60.9657H31.3288C47.032 60.9657 59.7796 73.569 59.7796 89.0944V91.9398C59.7796 107.465 47.032 120.069 31.3288 120.069H1.87539C0.838299 120.069 -1.52588e-05 119.24 -1.52588e-05 118.214V89.0944C-1.52588e-05 73.569 12.7476 60.9657 28.4508 60.9657Z" fill="#070600"/>
        <path id="Vector_4" d="M118.125 120.068H88.6712C72.9679 120.068 60.2204 107.465 60.2204 91.9397L60.2204 89.0944C60.2204 73.5689 72.9679 60.9657 88.6712 60.9657L91.5491 60.9657C107.252 60.9657 120 73.5689 120 89.0944V118.214C120 119.24 119.162 120.068 118.125 120.068Z" fill="#070600"/>
    </g>
    <defs>
        <clipPath id="clip0_7450_8419">
            <rect width="120" height="120" fill="white" transform="translate(-1.52588e-05 0.0684814)"/>
        </clipPath>
    </defs>
</svg>
