<svg xmlns="http://www.w3.org/2000/svg" width="121" height="122" viewBox="0 0 121 122" fill="none">
    <g id="Layer_1" clip-path="url(#clip0_7450_8462)">
        <path id="Vector" d="M0.666687 71.4539L1.50756 75.4782L3.4645 75.0658L1.53814 75.608L2.6542 79.5636L4.58056 79.0214L2.70007 79.6934L4.09133 83.5574L45.6074 68.659L8.93016 93.1485L11.2158 96.5619L12.8746 95.4547L11.2999 96.6765L13.8149 99.9219L15.3972 98.7001L13.9066 100.029L16.6432 103.091L18.1339 101.762L16.735 103.198L19.6857 106.061L45.7527 79.3192L24.7309 110.177L28.125 112.484L29.2487 110.834L28.2473 112.56L31.7942 114.629L32.8033 112.904L31.9165 114.69L35.6087 116.508L36.4878 114.721L35.731 116.569L39.5379 118.119L53.6798 83.5726L45.7603 120.051L49.7736 120.922L50.2017 118.967L49.9112 120.945L53.9779 121.533L54.2684 119.555L54.1232 121.548L58.2205 121.853L58.3658 119.86L58.3581 121.853L62.4707 121.869L62.6236 84.5501L68.9607 121.334L73.0122 120.631L72.6759 118.669L73.1498 120.609L77.1401 119.631L76.6662 117.692L77.2777 119.593L81.1916 118.341L80.5801 116.439L81.3215 118.295L85.136 116.768L71.2846 82.1065L90.9534 113.835L94.4468 111.674L93.3995 109.979L94.5691 111.598L97.902 109.2L96.7324 107.581L98.009 109.116L101.174 106.489L99.8895 104.954L101.273 106.397L104.247 103.557L78.4014 76.6007L108.535 98.6619L110.966 95.3478L109.353 94.1718L111.043 95.2332L113.236 91.7587L111.539 90.6897L113.305 91.6365L115.255 88.0246L113.489 87.0777L115.316 87.8948L117.005 84.153L67.279 61.794L120.667 50.6832L119.826 46.6665L117.869 47.0713L119.795 46.5291L118.672 42.5811L116.745 43.1233L118.633 42.4437L117.242 38.5797L75.7259 53.4857L112.403 28.9886L110.118 25.5752L108.451 26.6824L110.033 25.4606L107.519 22.2152L105.936 23.437L107.427 22.1083L104.69 19.0461L103.2 20.3749L104.591 18.9469L101.648 16.0833L75.5807 42.8255L96.6025 11.9673L93.2008 9.65353L92.0771 11.3106L93.0861 9.57717L89.5315 7.51538L88.5301 9.24117L89.4092 7.44665L85.7247 5.62922L84.8379 7.42374L85.5947 5.57576L81.7879 4.01796L67.6536 38.5721L75.573 2.09362L71.5522 1.22309L71.1317 3.17797L71.4146 1.20018L67.3478 0.612187L67.065 2.58235L67.2102 0.596914L63.1129 0.291464L62.96 2.28453L62.9676 0.283827L58.8626 0.268555L58.7098 37.5947L52.3726 0.81073L48.3212 1.50563L48.6575 3.47579L48.1836 1.53618L44.1856 2.51362L44.6672 4.45323L44.0557 2.5518L40.1418 3.80415L40.7533 5.70558L40.0118 3.84997L36.1897 5.36958L50.0488 40.0383L30.3724 8.30191L26.8789 10.463L27.9339 12.1659L26.7643 10.5393L23.4314 12.9371L24.6009 14.5637L23.3167 13.0288L20.1596 15.6556L21.4362 17.1905L20.0526 15.7473L17.0866 18.588L42.9319 45.544L12.7905 23.4752L10.3596 26.7893L11.9726 27.9729L10.2832 26.9039L8.08929 30.3784L9.78632 31.4475L8.02049 30.5006L6.07884 34.1201L7.83703 35.067L6.01769 34.2423L4.3283 37.9841L54.0544 60.3507L0.666687 71.4539Z" fill="black"/>
    </g>
    <defs>
        <clipPath id="clip0_7450_8462">
            <rect width="120" height="121.6" fill="white" transform="translate(0.666687 0.268555)"/>
        </clipPath>
    </defs>
</svg>
