<svg xmlns="http://www.w3.org/2000/svg" width="121" height="122" viewBox="0 0 121 122" fill="none">
    <g id="Layer_1" clip-path="url(#clip0_7450_8430)">
        <path id="Vector" d="M60.5002 51.1019C74.351 51.1019 85.5794 39.7224 85.5794 25.6852C85.5794 11.648 74.351 0.268555 60.5002 0.268555C46.6493 0.268555 35.421 11.648 35.421 25.6852C35.421 39.7224 46.6493 51.1019 60.5002 51.1019Z" fill="#070600"/>
        <path id="Vector_2" d="M95.0416 86.5685C108.892 86.5685 120.121 75.1891 120.121 61.1519C120.121 47.1147 108.892 35.7352 95.0416 35.7352C81.1908 35.7352 69.9624 47.1147 69.9624 61.1519C69.9624 75.1891 81.1908 86.5685 95.0416 86.5685Z" fill="#070600"/>
        <path id="Vector_3" d="M25.7458 86.3145C39.5967 86.3145 50.825 74.9351 50.825 60.8978C50.825 46.8606 39.5967 35.4812 25.7458 35.4812C11.895 35.4812 0.666656 46.8606 0.666656 60.8978C0.666656 74.9351 11.895 86.3145 25.7458 86.3145Z" fill="#070600"/>
        <path id="Vector_4" d="M60.8331 121.869C74.684 121.869 85.9123 110.489 85.9123 96.4519C85.9123 82.4147 74.684 71.0353 60.8331 71.0353C46.9823 71.0353 35.7539 82.4147 35.7539 96.4519C35.7539 110.489 46.9823 121.869 60.8331 121.869Z" fill="#070600"/>
    </g>
    <defs>
        <clipPath id="clip0_7450_8430">
            <rect width="120" height="121.6" fill="white" transform="translate(0.666656 0.268555)"/>
        </clipPath>
    </defs>
</svg>
