<svg xmlns="http://www.w3.org/2000/svg" width="121" height="97" viewBox="0 0 121 97" fill="none">
    <g id="Layer_1" clip-path="url(#clip0_7450_8409)">
        <path id="Vector" d="M100.988 96.0756C111.676 96.0756 120.34 74.5837 120.34 48.072C120.34 21.5604 111.676 0.0684814 100.988 0.0684814C90.3007 0.0684814 81.6367 21.5604 81.6367 48.072C81.6367 74.5837 90.3007 96.0756 100.988 96.0756Z" fill="#070600"/>
        <path id="Vector_2" d="M79.8509 94.3097C87.7411 94.3097 94.1373 73.8052 94.1373 48.5117C94.1373 23.2181 87.7411 2.71362 79.8509 2.71362C71.9608 2.71362 65.5646 23.2181 65.5646 48.5117C65.5646 73.8052 71.9608 94.3097 79.8509 94.3097Z" fill="#070600"/>
        <path id="Vector_3" d="M36.2218 94.3097C56.0424 94.3097 72.1103 73.5512 72.1103 47.9444C72.1103 22.3375 56.0424 1.57898 36.2218 1.57898C16.4011 1.57898 0.333313 22.3375 0.333313 47.9444C0.333313 73.5512 16.4011 94.3097 36.2218 94.3097Z" fill="#070600"/>
    </g>
    <defs>
        <clipPath id="clip0_7450_8409">
            <rect width="120" height="96" fill="white" transform="translate(0.333313 0.0684814)"/>
        </clipPath>
    </defs>
</svg>
