<svg width="33" height="32" viewBox="0 0 33 32" fill="none" xmlns="http://www.w3.org/2000/svg">
<g clip-path="url(#clip0_7522_19099)">
<path d="M1.07909 0H8.93332C13.1186 0 16.5179 3.36087 16.5179 7.501V8.25976C16.5179 12.3999 13.1186 15.7608 8.93102 15.7608H8.16357C3.97833 15.7585 0.578979 12.3976 0.578979 8.25976V0.494446C0.578979 0.22102 0.80253 0 1.07909 0Z" fill="#0E8C80"/>
<path d="M24.9921 15.7585H24.2247C20.0394 15.7585 16.6401 12.3976 16.6401 8.25749V7.49873C16.6401 3.3586 20.0394 -0.00226784 24.227 -0.00226784L32.0812 -0.00226784C32.3577 -0.00226784 32.5813 0.21875 32.5813 0.492176V8.25749C32.579 12.3976 29.1796 15.7585 24.9921 15.7585Z" fill="#0E8C80"/>
<path d="M8.16587 16.2393H8.93332C13.1209 16.2393 16.5202 19.6001 16.5202 23.7403V24.499C16.5202 28.6391 13.1209 32 8.93332 32H1.07909C0.80253 32 0.578979 31.779 0.578979 31.5056V23.7403C0.578979 19.6001 3.97833 16.2393 8.16587 16.2393Z" fill="#0E8C80"/>
<path d="M32.0789 32H24.2246C20.0371 32 16.6377 28.6391 16.6377 24.499V23.7402C16.6377 19.6001 20.0371 16.2392 24.2246 16.2392H24.9921C29.1796 16.2392 32.579 19.6001 32.579 23.7402V31.5056C32.579 31.779 32.3554 32 32.0789 32Z" fill="#0E8C80"/>
</g>
<defs>
<clipPath id="clip0_7522_19099">
<rect width="32" height="32" fill="white" transform="translate(0.578979)"/>
</clipPath>
</defs>
</svg>
