<svg width="296" height="309" viewBox="0 0 296 309" fill="none" xmlns="http://www.w3.org/2000/svg">
<g clip-path="url(#clip0_3818_1456)">
<path d="M295.833 202.876L184.466 153.24L292.101 95.941L277.222 67.9183L206.73 105.442L255.885 42.4582L230.903 22.9221L178.107 90.57L195.939 6.6001L164.934 0L147.103 83.9761L126.355 0.675987L95.6024 8.35152L116.35 91.6516L61.228 25.8842L36.9449 46.2867L92.0668 112.048L13.7238 77.1302L0.833374 106.124L112.2 155.766L4.56545 213.059L19.4447 241.082L89.9368 203.558L40.7814 266.542L65.7642 286.078L118.56 218.43L100.728 302.406L131.732 309L149.564 225.03L170.305 308.33L201.064 300.648L180.317 217.348L235.439 283.116L259.722 262.713L204.6 196.952L282.943 231.87L295.833 202.876Z" fill="#EA8BF3"/>
</g>
<defs>
<clipPath id="clip0_3818_1456">
<rect width="295" height="309" fill="white" transform="translate(0.833374)"/>
</clipPath>
</defs>
</svg>
