<svg width="116" height="121" viewBox="0 0 116 121" fill="none" xmlns="http://www.w3.org/2000/svg">
<path d="M115.168 79.5321L71.7533 60.2533L113.714 38.0047L107.915 27.1209L80.434 41.6956L99.5939 17.2355L89.8563 9.64674L69.2762 35.9189L76.2253 3.30799L64.1405 0.745117L57.1878 33.3561L49.1004 1.00769L37.112 3.98846L45.1994 36.3368L23.7108 10.7969L14.244 18.7185L35.7326 44.2584L5.19247 30.7007L0.167969 41.9581L43.5827 61.237L1.62155 83.4855L7.42476 94.3694L34.902 79.7947L15.7421 104.255L25.4796 111.843L46.0597 85.5713L39.1107 118.182L51.1991 120.745L58.1482 88.1342L66.2356 120.483L78.2239 117.502L70.1365 85.1534L91.6251 110.693L101.092 102.772L79.6034 77.2318L110.143 90.7895L115.168 79.5321Z" fill="#333366"/>
</svg>
