<svg xmlns="http://www.w3.org/2000/svg" width="182" height="53" viewBox="0 0 182 53" fill="none">
    <path d="M180.795 13.0104C173.038 10.8162 166.631 6.04702 161.397 0.496345C160.015 -0.976487 157.7 1.15762 159.071 2.62043C162.857 6.63816 167.256 10.215 172.27 12.8401C152.379 13.0204 130.139 14.0424 113.33 23.8513C113.111 21.8374 112.726 19.8335 111.783 18.02C106.857 8.50174 92.0886 13.321 84.2547 16.2466C81.8738 17.1283 79.5478 18.0902 77.2986 19.1522C76.8158 15.6355 75.3017 12.1989 72.6246 9.64394C68.1262 5.34567 61.3676 4.85473 55.3989 6.44779C48.6951 8.24124 42.6277 12.0185 37.087 15.7857C25.9287 23.3703 16.3613 32.6281 7.24373 42.1665C4.95063 44.5611 2.69044 46.9757 0.419279 49.3904C-0.952195 50.8532 1.36285 52.9873 2.7453 51.5145C10.8644 42.8478 19.0384 34.1611 28.2218 26.4162C32.7422 22.6089 37.4929 19.042 42.5729 15.8859C47.587 12.7699 53.0619 9.60386 59.1622 8.7422C64.5713 7.97072 69.6732 9.8844 72.2955 14.353C73.4585 16.3368 74.04 18.511 74.1497 20.7252C72.1089 21.8173 70.123 23.0096 68.214 24.3422C63.0901 27.9291 58.6027 32.2174 54.982 37.1068C53.1936 39.5214 51.6904 42.3268 52.4694 45.3125C53.0839 47.647 54.8503 49.2 57.5055 48.7291C62.9146 47.7673 66.4256 43.6193 69.5086 39.832C73.3926 35.0628 76.8158 29.3719 77.3973 23.3503C77.4303 23.0497 77.4193 22.7391 77.4412 22.4285C77.8252 22.2382 78.1983 22.0378 78.5823 21.8574C82.6748 19.9037 87.0745 18.2906 91.4741 17.0181C95.5227 15.8559 100.263 14.7437 104.454 15.9461C109.172 17.3087 109.94 21.8173 110.192 25.815C106.758 28.1495 103.598 30.9048 100.778 34.1711C97.8707 37.5276 94.5353 42.0162 95.5118 46.5349C95.9726 48.659 97.6403 50.6328 100.054 51.0335C102.512 51.4543 104.991 50.3823 106.813 48.9495C111.07 45.6031 112.606 39.5715 113.253 34.7222C113.582 32.2474 113.648 29.7426 113.538 27.2578C128.636 17.7996 149.273 16.2967 167.212 15.936C169.418 15.896 171.623 15.8759 173.828 15.8559C167.958 19.0821 162.835 23.3603 158.753 28.4301C157.491 29.9931 160.355 31.4859 161.595 29.943C166.62 23.721 173.422 18.8617 181.158 15.7557C182.54 15.2046 181.991 13.3611 180.763 13.0104H180.795ZM56.3535 45.8436C56.2108 45.8436 56.2328 45.7834 56.3535 45.8436V45.8436ZM73.239 27.1276C71.3958 32.568 67.7422 37.4274 63.6826 41.6856C62.2782 43.1484 60.9835 44.1703 59.0635 45.032C58.2735 45.3827 57.4835 45.6231 56.6387 45.8135C56.5509 45.8335 56.4851 45.8436 56.4303 45.8436C55.9914 45.3526 55.7061 44.8316 55.6074 44.1804C55.2234 41.5753 57.4287 39.1006 59.0086 37.1268C60.6983 35.0127 62.5964 33.0389 64.6262 31.1854C67.4679 28.6004 70.5948 26.316 73.9522 24.3322C73.7876 25.274 73.5682 26.2158 73.261 27.1276H73.239ZM108.162 41.5353C107.372 43.4089 106.231 45.5029 104.52 46.8054C103.28 47.7572 100.943 48.8293 99.5823 47.4867C96.8284 44.7815 100.241 39.9622 101.996 37.6678C104.421 34.4817 107.241 31.7765 110.335 29.462C110.335 33.5599 109.786 37.7079 108.162 41.5353Z" fill="black"/>
</svg>
