<svg width="40" height="32" viewBox="0 0 40 32" fill="none" xmlns="http://www.w3.org/2000/svg">
<g clip-path="url(#clip0_7522_19094)">
<g clip-path="url(#clip1_7522_19094)">
<path d="M33.5516 32.0024C37.1142 32.0024 40.0022 24.8384 40.0022 16.0012C40.0022 7.16397 37.1142 0 33.5516 0C29.9891 0 27.1011 7.16397 27.1011 16.0012C27.1011 24.8384 29.9891 32.0024 33.5516 32.0024Z" fill="#757BF6"/>
<path d="M26.5059 31.4137C29.1359 31.4137 31.268 24.5789 31.268 16.1477C31.268 7.71654 29.1359 0.881714 26.5059 0.881714C23.8758 0.881714 21.7438 7.71654 21.7438 16.1477C21.7438 24.5789 23.8758 31.4137 26.5059 31.4137Z" fill="#757BF6"/>
<path d="M11.9628 31.4137C18.5697 31.4137 23.9256 24.4942 23.9256 15.9586C23.9256 7.42298 18.5697 0.503479 11.9628 0.503479C5.35594 0.503479 0 7.42298 0 15.9586C0 24.4942 5.35594 31.4137 11.9628 31.4137Z" fill="#757BF6"/>
</g>
</g>
<defs>
<clipPath id="clip0_7522_19094">
<rect width="40" height="32" fill="white"/>
</clipPath>
<clipPath id="clip1_7522_19094">
<rect width="40" height="32" fill="white"/>
</clipPath>
</defs>
</svg>
