<svg xmlns="http://www.w3.org/2000/svg" width="24" height="20" viewBox="0 0 24 20" fill="none">
    <path fill-rule="evenodd" clip-rule="evenodd" d="M12 -1C7.03145 -1 3 3.03145 3 8C3 12.9686 7.03145 17 12 17C16.9588 17 21 12.9686 21 8C21 3.03145 16.9588 -1 12 -1ZM17.9447 3.14859C19.0184 4.45662 19.6627 6.1258 19.6822 7.9317C19.4284 7.8829 16.8904 7.3655 14.333 7.6876C14.2744 7.5607 14.2256 7.4241 14.167 7.2874C14.0108 6.9165 13.8352 6.5358 13.6594 6.1746C16.4902 5.0228 17.7787 3.36334 17.9447 3.14859ZM12 0.32755C13.9523 0.32755 15.7386 1.05966 17.0955 2.26031C16.9588 2.45553 15.7972 4.00759 13.064 5.03253C11.8048 2.71909 10.4089 0.82538 10.1942 0.53254C10.77 0.39588 11.3753 0.32755 12 0.32755ZM8.72996 1.04989C8.93494 1.32321 10.3015 3.22668 11.5803 5.49131C7.98807 6.448 4.81562 6.4284 4.47397 6.4284C4.9718 4.04664 6.58243 2.06507 8.72996 1.04989ZM4.30803 8.0098C4.30803 7.9317 4.30803 7.8536 4.30803 7.7755C4.63991 7.7852 8.36876 7.8341 12.205 6.6822C12.4295 7.1117 12.6345 7.551 12.8297 7.9902C12.7321 8.0195 12.6247 8.0488 12.5271 8.0781C8.56399 9.3568 6.45553 12.8514 6.27983 13.1442C5.05965 11.7874 4.30803 9.9816 4.30803 8.0098ZM12 15.692C10.2234 15.692 8.58352 15.0868 7.28525 14.0716C7.42191 13.7885 8.98371 10.782 13.3178 9.269C13.3373 9.2592 13.3471 9.2592 13.3666 9.2495C14.4501 12.051 14.8894 14.4034 15.0065 15.077C14.0792 15.4772 13.064 15.692 12 15.692ZM16.2852 14.3742C16.2072 13.9056 15.7972 11.6605 14.7917 8.898C17.2028 8.5173 19.3113 9.1421 19.5749 9.23C19.243 11.3677 18.013 13.2126 16.2852 14.3742Z" fill="#070600"/>
</svg>
