<svg width="19" height="19" viewBox="0 0 19 19" fill="none" xmlns="http://www.w3.org/2000/svg">
<path fill-rule="evenodd" clip-rule="evenodd" d="M13.5 0.242188H5.5C2.73858 0.242188 0.5 2.48077 0.5 5.24219V13.2422C0.5 16.0036 2.73858 18.2422 5.5 18.2422H13.5C16.2614 18.2422 18.5 16.0036 18.5 13.2422V5.24219C18.5 2.48077 16.2614 0.242188 13.5 0.242188ZM16.75 13.2422C16.7445 15.0348 15.2926 16.4867 13.5 16.4922H5.5C3.70735 16.4867 2.25549 15.0348 2.25 13.2422V5.24219C2.25549 3.44954 3.70735 1.99768 5.5 1.99219H13.5C15.2926 1.99768 16.7445 3.44954 16.75 5.24219V13.2422ZM14.25 5.49219C14.8023 5.49219 15.25 5.04447 15.25 4.49219C15.25 3.93991 14.8023 3.49219 14.25 3.49219C13.6977 3.49219 13.25 3.93991 13.25 4.49219C13.25 5.04447 13.6977 5.49219 14.25 5.49219ZM9.5 4.74219C7.01472 4.74219 5 6.75691 5 9.24219C5 11.7275 7.01472 13.7422 9.5 13.7422C11.9853 13.7422 14 11.7275 14 9.24219C14.0027 8.04789 13.5294 6.90176 12.6849 6.05727C11.8404 5.21278 10.6943 4.73953 9.5 4.74219ZM6.75 9.24219C6.75 10.761 7.9812 11.9922 9.5 11.9922C11.0188 11.9922 12.25 10.761 12.25 9.24219C12.25 7.72339 11.0188 6.49219 9.5 6.49219C7.9812 6.49219 6.75 7.72339 6.75 9.24219Z" fill="black"/>
</svg>
