<svg xmlns="http://www.w3.org/2000/svg" width="24" height="20" viewBox="0 0 24 20" fill="none">
    <path fill-rule="evenodd" clip-rule="evenodd" d="M4.5 -0.757812C3.67157 -0.757812 3 -0.0862425 3 0.742188V15.7422C3 16.5706 3.67157 17.2422 4.5 17.2422H19.5C20.3284 17.2422 21 16.5706 21 15.7422V0.742188C21 -0.0862425 20.3284 -0.757812 19.5 -0.757812H4.5ZM8.52076 3.24491C8.52639 4.20116 7.81061 4.79038 6.96123 4.78616C6.16107 4.78194 5.46357 4.14491 5.46779 3.24632C5.47201 2.40116 6.13998 1.72194 7.00764 1.74163C7.88795 1.76132 8.52639 2.40679 8.52076 3.24491ZM12.2797 6.00395H9.75971H9.7583V14.5638H12.4217V14.3641C12.4217 13.9842 12.4214 13.6042 12.4211 13.2241C12.4203 12.2103 12.4194 11.1954 12.4246 10.1819C12.426 9.93579 12.4372 9.67989 12.5005 9.44499C12.7381 8.56749 13.5271 8.00079 14.4074 8.14009C14.9727 8.22859 15.3467 8.55629 15.5042 9.08929C15.6013 9.42249 15.6449 9.78109 15.6491 10.1285C15.6605 11.1761 15.6589 12.2237 15.6573 13.2714C15.6567 13.6412 15.6561 14.0112 15.6561 14.381V14.5624H18.328V14.3571C18.328 13.9051 18.3278 13.4532 18.3275 13.0013C18.327 11.8718 18.3264 10.7423 18.3294 9.61239C18.3308 9.10189 18.276 8.59849 18.1508 8.10489C17.9638 7.37079 17.5771 6.76329 16.9485 6.32459C16.5027 6.01238 16.0133 5.81129 15.4663 5.78879C15.404 5.7862 15.3412 5.78281 15.2781 5.7794C14.9984 5.76428 14.7141 5.74892 14.4467 5.80285C13.6817 5.95613 13.0096 6.30629 12.5019 6.92359C12.4429 6.99439 12.3852 7.06629 12.2991 7.17359L12.2797 7.19789V6.00395ZM5.68164 14.5666H8.33242V6.00952H5.68164V14.5666Z" fill="#070600"/>
</svg>
