<svg xmlns="http://www.w3.org/2000/svg" width="27" height="24" viewBox="0 0 27 24" fill="none">
    <path d="M26.1907 19.9995C26.1907 22.2055 24.2327 23.9995 21.825 23.9995H8.56854L10.8005 21.9995H21.8261C23.03 21.9995 24.009 21.1025 24.009 19.9995C24.009 18.8965 23.03 17.9995 21.8261 17.9995H16.369C13.9613 17.9995 12.0033 16.2055 12.0033 13.9995C12.0033 12.0725 13.4985 10.4605 15.4816 10.0835L17.6198 11.9995H16.369C15.1651 11.9995 14.1861 12.8965 14.1861 13.9995C14.1861 15.1025 15.1651 15.9995 16.369 15.9995H21.8261C24.2338 15.9995 26.1907 17.7935 26.1907 19.9995ZM24.5918 8.53549C26.7201 6.58549 26.7201 3.41349 24.5918 1.46449C23.5615 0.520488 22.1907 0.000488281 20.7336 0.000488281C19.2765 0.000488281 17.9057 0.520488 16.8743 1.46449C14.7471 3.41449 14.7471 6.58649 16.883 8.54349L20.7336 11.9935L24.5918 8.53549ZM23.0485 2.87849C24.3255 4.04849 24.3255 5.95149 23.0573 7.11349L20.7336 9.19549L18.4176 7.12149C17.1417 5.95149 17.1417 4.04849 18.4176 2.87849C19.0364 2.31149 19.8583 1.99949 20.7336 1.99949C21.6089 1.99949 22.4308 2.31249 23.0485 2.87849ZM9.3118 20.5355C11.4401 18.5855 11.4401 15.4135 9.3118 13.4645C8.28149 12.5205 6.91066 12.0005 5.4536 12.0005C3.99654 12.0005 2.62571 12.5205 1.59431 13.4645C-0.532888 15.4145 -0.532888 18.5865 1.60304 20.5435L5.4536 23.9935L9.3118 20.5355ZM7.76852 14.8785C9.04549 16.0485 9.04549 17.9515 7.77725 19.1135L5.4536 21.1955L3.13759 19.1215C1.86171 17.9515 1.86171 16.0485 3.13759 14.8785C3.75643 14.3115 4.57827 13.9995 5.4536 13.9995C6.32892 13.9995 7.15077 14.3125 7.76852 14.8785Z" fill="#070600"/>
</svg>
