<svg width="26" height="23" viewBox="0 0 26 23" fill="none" xmlns="http://www.w3.org/2000/svg">
<path d="M8.66699 13C11.707 13 14.0003 10.7066 14.0003 7.66665C14.0003 4.62665 11.707 2.33332 8.66699 2.33332C5.62699 2.33332 3.33366 4.62665 3.33366 7.66665C3.33366 10.7066 5.62699 13 8.66699 13ZM8.66699 4.99998C10.2377 4.99998 11.3337 6.09598 11.3337 7.66665C11.3337 9.23732 10.2377 10.3333 8.66699 10.3333C7.09633 10.3333 6.00033 9.23732 6.00033 7.66665C6.00033 6.09598 7.09633 4.99998 8.66699 4.99998ZM10.0003 14.3333H7.33366C3.65766 14.3333 0.666992 17.324 0.666992 21V22.3333H3.33366V21C3.33366 18.7946 5.12833 17 7.33366 17H10.0003C12.2057 17 14.0003 18.7946 14.0003 21V22.3333H16.667V21C16.667 17.324 13.6763 14.3333 10.0003 14.3333ZM22.4857 0.514648L20.6003 2.39998C22.3617 4.16398 23.3337 6.50798 23.3337 8.99998C23.3337 11.492 22.3617 13.836 20.6003 15.6L22.4857 17.4853C24.7523 15.2173 26.0003 12.204 26.0003 8.99998C26.0003 5.79598 24.7523 2.78265 22.4857 0.514648Z" fill="black"/>
<path d="M18.7136 4.28548L16.8283 6.17348C17.5843 6.92681 18.0003 7.93081 18.0003 9.00015C18.0003 10.0695 17.5843 11.0735 16.8283 11.8268L18.7136 13.7148C19.9723 12.4561 20.667 10.7828 20.667 9.00015C20.667 7.21748 19.9723 5.54415 18.7136 4.28548Z" fill="black"/>
</svg>
