<svg width="20" height="20" viewBox="0 0 20 20" fill="none" xmlns="http://www.w3.org/2000/svg">
<path d="M18 5H16.791C16.9377 4.51378 17.0082 4.00779 17 3.5C17 1.57 15.43 0 13.5 0C11.878 0 10.795 1.482 10.096 3.085C9.407 1.57 8.269 0 6.5 0C4.57 0 3 1.57 3 3.5C3 4.096 3.079 4.589 3.209 5H2C0.897 5 0 5.897 0 7V9C0 10.103 0.897 11 2 11V18C2 19.103 2.897 20 4 20H16C17.103 20 18 19.103 18 18V11C19.103 11 20 10.103 20 9V7C20 5.897 19.103 5 18 5ZM13.5 2C14.327 2 15 2.673 15 3.5C15 5 14.374 5 14 5H11.522C12.033 3.424 12.775 2 13.5 2ZM5 3.5C5 2.673 5.673 2 6.5 2C7.388 2 8.214 3.525 8.698 5H6C5.626 5 5 5 5 3.5ZM2 7H9V9H2V7ZM4 18V11H9V18H4ZM16 18H11V11H16V18ZM11 9V7.085L11.017 7H18L18.001 9H11Z" fill="black"/>
</svg>
